<?xml version="1.0" encoding="UTF-8"?>
<svg id="uuid-55258b69-2b77-49c3-a4e0-c54270d4889e" data-name="Layer 1" xmlns="http://www.w3.org/2000/svg" viewBox="0 0 690.74 159.19">
  <g>
    <g>
      <g>
        <path d="M280.31,22.2v-9.54h1.14l4.38,7.21h-.61l4.32-7.21h1.14v9.54s-1.32,0-1.32,0v-7.48s.31,0,.31,0l-3.85,6.33h-.64l-3.88-6.33h.35v7.48h-1.34Z" fill="#4a17a1"/>
        <path d="M297.67,22.3c-1.28,0-2.29-.36-3.02-1.08-.73-.72-1.1-1.77-1.1-3.15v-5.43h1.39v5.37c0,1.06.24,1.84.72,2.33.48.49,1.16.74,2.03.74s1.56-.25,2.04-.74c.48-.49.72-1.27.72-2.33v-5.37h1.35v5.43c0,1.38-.37,2.43-1.09,3.15-.73.72-1.74,1.08-3.03,1.08Z" fill="#4a17a1"/>
        <path d="M304.65,22.2v-9.54h1.39v8.36h5.28v1.19h-6.68Z" fill="#4a17a1"/>
        <path d="M314.87,22.2v-8.36h-3.35v-1.19h8.07v1.19h-3.34v8.36h-1.38Z" fill="#4a17a1"/>
        <path d="M321.11,22.2v-9.54h1.39v9.54h-1.39Z" fill="#4a17a1"/>
        <path d="M329.79,22.3c-.74,0-1.43-.12-2.06-.36-.63-.24-1.17-.58-1.63-1.02-.46-.44-.82-.96-1.08-1.55-.26-.59-.39-1.24-.39-1.95s.13-1.36.39-1.95c.26-.59.62-1.11,1.09-1.55s1.01-.78,1.64-1.02,1.31-.36,2.06-.36,1.45.12,2.08.38,1.18.62,1.62,1.11l-.91.86c-.37-.38-.79-.67-1.25-.85-.46-.19-.96-.28-1.49-.28s-1.06.09-1.53.27c-.47.18-.88.44-1.22.76s-.61.72-.8,1.17c-.19.45-.29.94-.29,1.47s.1,1.02.29,1.47c.19.45.46.84.8,1.17s.75.58,1.22.76c.47.18.98.27,1.53.27s1.03-.09,1.49-.28c.46-.19.88-.47,1.25-.87l.91.86c-.45.49-.99.86-1.62,1.12s-1.34.38-2.1.38Z" fill="#4a17a1"/>
        <path d="M334.03,22.2l4.42-9.54h1.38l4.43,9.54h-1.46l-3.94-8.78h.56l-3.94,8.78h-1.44ZM335.91,19.81l.38-1.09h5.49l.4,1.09h-6.27Z" fill="#4a17a1"/>
        <path d="M349.75,22.3c-1.28,0-2.29-.36-3.02-1.08-.73-.72-1.1-1.77-1.1-3.15v-5.43h1.39v5.37c0,1.06.24,1.84.72,2.33.48.49,1.16.74,2.03.74s1.56-.25,2.04-.74c.48-.49.72-1.27.72-2.33v-5.37h1.35v5.43c0,1.38-.37,2.43-1.09,3.15-.73.72-1.74,1.08-3.03,1.08Z" fill="#4a17a1"/>
        <path d="M356.74,22.2v-9.54h4.11c1.04,0,1.96.2,2.75.6s1.41.96,1.85,1.68c.44.72.66,1.55.66,2.5s-.22,1.78-.66,2.49c-.44.72-1.06,1.28-1.85,1.68-.79.4-1.71.6-2.75.6h-4.11ZM358.13,21.01h2.63c.81,0,1.51-.15,2.1-.45.59-.3,1.05-.72,1.37-1.26s.49-1.17.49-1.87-.16-1.35-.49-1.88c-.33-.54-.78-.95-1.37-1.25-.59-.3-1.29-.45-2.1-.45h-2.63v7.17Z" fill="#4a17a1"/>
        <path d="M366.77,22.2l4.42-9.54h1.38l4.43,9.54h-1.46l-3.94-8.78h.56l-3.94,8.78h-1.44ZM368.65,19.81l.38-1.09h5.49l.4,1.09h-6.27Z" fill="#4a17a1"/>
        <path d="M378.45,22.2v-9.54h1.39v8.36h5.28v1.19h-6.68Z" fill="#4a17a1"/>
      </g>
      <path d="M256.1,34.33c-9.67,0-17.55-7.7-17.55-17.17S246.43,0,256.1,0s17.55,7.7,17.55,17.17-7.87,17.17-17.55,17.17ZM256.1.47c-9.42,0-17.08,7.49-17.08,16.7s7.66,16.7,17.08,16.7,17.08-7.49,17.08-16.7S265.52.47,256.1.47Z" fill="#4a17a1"/>
      <path d="M244.14,17.43c.74.04,1.42-.14,2.03-.55.4-.26.78-.55,1.19-.8.97-.61,2.04-.8,3.17-.73,1.04.06,1.95.42,2.78,1.01.33.24.66.47,1.01.67.54.32,1.15.39,1.77.41.85.02,1.59-.23,2.28-.72.44-.31.89-.62,1.37-.87.83-.44,1.73-.56,2.66-.52,1.04.05,1.98.37,2.82.98.25.18.5.34.75.51.63.44,1.33.64,2.1.6v1.59c-.46-.02-.92-.05-1.37-.16-.64-.15-1.21-.44-1.74-.81-.28-.2-.56-.39-.85-.58-.49-.32-1.02-.53-1.62-.55-.65-.02-1.3-.04-1.9.26-.38.19-.73.42-1.08.66-.45.3-.89.62-1.4.82-.76.29-1.54.4-2.35.35-.88-.05-1.7-.27-2.44-.75-.34-.22-.68-.44-1.01-.68-.44-.31-.91-.55-1.44-.62-.38-.05-.78-.03-1.17-.03-.65,0-1.21.27-1.74.63-.45.3-.9.62-1.37.89-.65.37-1.36.53-2.1.56-.12,0-.23.01-.35.02v-1.59Z" fill="#4a17a1"/>
      <path d="M268.07,13.68c-1.08.02-2.07-.26-2.96-.87-.29-.2-.59-.4-.88-.6-.62-.43-1.3-.63-2.06-.64-.88-.02-1.66.22-2.37.74-.39.28-.79.55-1.21.79-.8.44-1.67.6-2.58.59-1.12-.01-2.12-.34-3.02-.98-.23-.16-.46-.31-.68-.47-.59-.42-1.24-.63-1.97-.66-.91-.04-1.72.18-2.45.7-.46.32-.93.64-1.42.9-.72.38-1.5.52-2.32.5v-1.56c.82.03,1.55-.22,2.22-.69.44-.31.88-.61,1.35-.87.77-.43,1.62-.56,2.49-.56,1.25,0,2.34.43,3.32,1.17.27.2.56.38.85.55.59.34,1.24.4,1.91.39.75-.01,1.4-.24,2-.66.38-.26.76-.53,1.15-.77.84-.52,1.77-.7,2.75-.69.74.01,1.45.15,2.12.46.48.22.9.53,1.33.82.43.3.86.58,1.37.72.34.09.7.11,1.05.12v1.56Z" fill="#4a17a1"/>
      <path d="M244.14,22.76c.74.02,1.42-.16,2.03-.57.47-.31.93-.64,1.41-.93.71-.42,1.49-.59,2.3-.61.81-.03,1.59.08,2.33.39.54.22,1,.57,1.48.89.18.12.36.25.55.36.44.26.91.42,1.43.44.59.02,1.19.05,1.75-.19.25-.1.49-.23.71-.37.32-.2.63-.42.94-.64.84-.58,1.78-.87,2.8-.9.97-.03,1.9.13,2.74.62.44.25.85.55,1.27.83.41.28.84.51,1.33.59.28.05.56.05.84.07v1.56c-1.14.02-2.17-.29-3.09-.95-.22-.16-.45-.3-.67-.46-.76-.56-1.61-.74-2.54-.69-.68.04-1.27.26-1.82.64-.4.28-.8.56-1.22.81-.96.57-2.02.72-3.13.64-.92-.07-1.76-.37-2.51-.89-.32-.22-.63-.44-.96-.65-.48-.32-1.01-.51-1.6-.54-.7-.04-1.39,0-2.03.33-.23.12-.44.26-.65.4-.39.25-.76.53-1.16.75-.78.45-1.64.63-2.54.61v-1.56Z" fill="#4a17a1"/>
    </g>
    <g>
      <g>
        <path d="M281.7,137.36h-1.39v-9.54h6.88v1.19h-5.49v8.36ZM281.56,132.33h5.03v1.17h-5.03v-1.17Z" fill="#4a17a1"/>
        <path d="M289.16,137.36v-9.54h1.39v9.54h-1.39Z" fill="#4a17a1"/>
        <path d="M293.48,137.36v-9.54h1.39v8.36h5.28v1.19h-6.68Z" fill="#4a17a1"/>
        <path d="M303.7,137.36v-8.36h-3.35v-1.19h8.07v1.19h-3.34v8.36h-1.38Z" fill="#4a17a1"/>
        <path d="M309.94,137.36v-9.54h3.8c.85,0,1.58.13,2.19.4.6.26,1.07.65,1.39,1.15s.49,1.1.49,1.79-.16,1.28-.49,1.78c-.33.5-.79.87-1.39,1.14-.6.26-1.33.4-2.19.4h-3.04l.63-.63v3.53h-1.39ZM311.34,133.97l-.63-.67h3c.89,0,1.57-.19,2.03-.57s.69-.91.69-1.59-.23-1.21-.69-1.58c-.46-.37-1.14-.56-2.03-.56h-3l.63-.68v5.64ZM316.46,137.36l-2.48-3.46h1.49l2.51,3.46h-1.52Z" fill="#4a17a1"/>
        <path d="M324.48,137.47c-.74,0-1.43-.12-2.07-.37-.64-.25-1.19-.59-1.65-1.03-.46-.44-.83-.96-1.09-1.55-.26-.59-.39-1.24-.39-1.94s.13-1.35.39-1.94c.26-.59.62-1.11,1.09-1.55.46-.44,1.01-.78,1.64-1.03.63-.25,1.32-.37,2.08-.37s1.43.12,2.06.36c.63.24,1.18.58,1.64,1.02.46.44.83.96,1.08,1.55.25.6.38,1.24.38,1.94s-.13,1.36-.38,1.95c-.26.59-.62,1.11-1.08,1.55-.46.44-1.01.78-1.64,1.02-.63.24-1.32.36-2.06.36ZM324.47,136.26c.55,0,1.05-.09,1.51-.27s.86-.44,1.2-.77c.34-.33.6-.72.79-1.17s.29-.93.29-1.46-.1-1.01-.29-1.45c-.19-.44-.46-.83-.79-1.17-.34-.34-.74-.59-1.2-.78-.46-.18-.96-.27-1.51-.27s-1.04.09-1.5.27c-.46.18-.86.44-1.21.78-.34.34-.61.72-.8,1.17-.19.44-.29.92-.29,1.45s.1,1.01.29,1.46.46.83.8,1.17.75.59,1.21.77.96.27,1.5.27Z" fill="#4a17a1"/>
        <path d="M334.63,137.47c-.74,0-1.45-.11-2.13-.33-.68-.22-1.21-.51-1.6-.87l.52-1.06c.37.32.85.58,1.42.79s1.18.31,1.8.31c.57,0,1.03-.06,1.38-.19.35-.13.61-.3.78-.52.17-.22.25-.47.25-.76,0-.33-.11-.59-.33-.79-.22-.2-.5-.36-.85-.48-.35-.12-.73-.23-1.15-.32s-.84-.2-1.26-.32c-.42-.12-.81-.28-1.16-.47-.35-.19-.63-.45-.84-.77-.21-.32-.32-.74-.32-1.25s.13-.94.4-1.36c.26-.41.67-.75,1.23-1,.55-.25,1.26-.38,2.11-.38.57,0,1.13.07,1.69.22s1.04.35,1.45.63l-.46,1.09c-.42-.27-.86-.47-1.32-.59-.46-.12-.92-.18-1.35-.18-.55,0-1,.07-1.35.21-.35.14-.61.32-.77.54-.16.23-.24.48-.24.76,0,.34.11.6.33.8.22.2.5.36.85.48.35.12.73.23,1.15.32.42.1.84.2,1.26.32.42.12.81.27,1.16.46.35.19.63.45.84.76s.32.73.32,1.23-.13.93-.4,1.34c-.27.41-.68.75-1.25,1s-1.27.37-2.13.37Z" fill="#4a17a1"/>
        <path d="M344.19,137.36v-9.54h3.8c.85,0,1.58.13,2.19.4.6.26,1.07.65,1.39,1.15s.49,1.1.49,1.79-.16,1.28-.49,1.78c-.33.5-.79.87-1.39,1.14-.6.26-1.33.4-2.19.4h-3.04l.63-.63v3.53h-1.39ZM345.58,133.97l-.63-.67h3c.89,0,1.57-.19,2.03-.57s.69-.91.69-1.59-.23-1.21-.69-1.58c-.46-.37-1.14-.56-2.03-.56h-3l.63-.68v5.64ZM350.71,137.36l-2.48-3.46h1.49l2.51,3.46h-1.52Z" fill="#4a17a1"/>
        <path d="M355.71,136.18h5.69v1.19h-7.08v-9.54h6.88v1.19h-5.49v7.17ZM355.59,131.94h5.02v1.16h-5.02v-1.16Z" fill="#4a17a1"/>
        <path d="M363.66,137.36v-9.54h1.14l4.38,7.21h-.61l4.32-7.21h1.14v9.54s-1.32,0-1.32,0v-7.49s.31,0,.31,0l-3.85,6.33h-.64l-3.88-6.33h.35v7.49h-1.34Z" fill="#4a17a1"/>
        <path d="M381.37,137.47c-.74,0-1.43-.12-2.07-.37-.64-.25-1.19-.59-1.65-1.03-.46-.44-.83-.96-1.09-1.55-.26-.59-.39-1.24-.39-1.94s.13-1.35.39-1.94c.26-.59.62-1.11,1.09-1.55.46-.44,1.01-.78,1.64-1.03.63-.25,1.32-.37,2.08-.37s1.43.12,2.06.36c.63.24,1.18.58,1.64,1.02.46.44.83.96,1.08,1.55.25.6.38,1.24.38,1.94s-.13,1.36-.38,1.95c-.26.59-.62,1.11-1.08,1.55-.46.44-1.01.78-1.64,1.02-.63.24-1.32.36-2.06.36ZM381.36,136.26c.55,0,1.05-.09,1.51-.27s.86-.44,1.2-.77c.34-.33.6-.72.79-1.17s.29-.93.29-1.46-.1-1.01-.29-1.45c-.19-.44-.46-.83-.79-1.17-.34-.34-.74-.59-1.2-.78-.46-.18-.96-.27-1.51-.27s-1.04.09-1.5.27c-.46.18-.86.44-1.21.78-.34.34-.61.72-.8,1.17-.19.44-.29.92-.29,1.45s.1,1.01.29,1.46.46.83.8,1.17.75.59,1.21.77.96.27,1.5.27Z" fill="#4a17a1"/>
        <path d="M391.49,137.36l-4.29-9.54h1.5l3.94,8.81h-.86l3.97-8.81h1.39l-4.28,9.54h-1.38Z" fill="#4a17a1"/>
        <path d="M398.25,127.04l1.9-1.77h1.7l-2.34,1.77h-1.25ZM398.6,137.36v-9.54h1.39v9.54h-1.39Z" fill="#4a17a1"/>
        <path d="M405.74,137.36l-4.29-9.54h1.5l3.94,8.81h-.86l3.97-8.81h1.39l-4.28,9.54h-1.38Z" fill="#4a17a1"/>
        <path d="M414.24,136.18h5.69v1.19h-7.08v-9.54h6.88v1.19h-5.49v7.17ZM414.11,131.94h5.02v1.16h-5.02v-1.16Z" fill="#4a17a1"/>
        <path d="M422.18,137.36v-9.54h1.39v9.54h-1.39Z" fill="#4a17a1"/>
        <path d="M429.35,137.47c-.74,0-1.45-.11-2.13-.33-.68-.22-1.21-.51-1.6-.87l.52-1.06c.37.32.85.58,1.42.79s1.18.31,1.8.31c.57,0,1.03-.06,1.38-.19.35-.13.61-.3.78-.52.17-.22.25-.47.25-.76,0-.33-.11-.59-.33-.79-.22-.2-.5-.36-.85-.48-.35-.12-.73-.23-1.15-.32s-.84-.2-1.26-.32c-.42-.12-.81-.28-1.16-.47-.35-.19-.63-.45-.84-.77-.21-.32-.32-.74-.32-1.25s.13-.94.4-1.36c.26-.41.67-.75,1.23-1,.55-.25,1.26-.38,2.11-.38.57,0,1.13.07,1.69.22s1.04.35,1.45.63l-.46,1.09c-.42-.27-.86-.47-1.32-.59-.46-.12-.92-.18-1.35-.18-.55,0-1,.07-1.35.21-.35.14-.61.32-.77.54-.16.23-.24.48-.24.76,0,.34.11.6.33.8.22.2.5.36.85.48.35.12.73.23,1.15.32.42.1.84.2,1.26.32.42.12.81.27,1.16.46.35.19.63.45.84.76s.32.73.32,1.23-.13.93-.4,1.34c-.27.41-.68.75-1.25,1s-1.27.37-2.13.37Z" fill="#4a17a1"/>
        <path d="M281.7,152.54h5.69v1.19h-7.08v-9.54h6.88v1.19h-5.49v7.17ZM281.58,148.3h5.02v1.16h-5.02v-1.16Z" fill="#4a17a1"/>
        <path d="M294.79,152.54h5.69v1.19h-7.08v-9.54h6.88v1.19h-5.49v7.17ZM294.66,148.3h5.02v1.16h-5.02v-1.16Z" fill="#4a17a1"/>
        <path d="M304.13,153.72h-1.39v-9.54h6.88v1.19h-5.49v8.36ZM303.99,148.69h5.03v1.17h-5.03v-1.17Z" fill="#4a17a1"/>
        <path d="M311.59,153.72v-9.54h1.39v9.54h-1.39Z" fill="#4a17a1"/>
        <path d="M320.27,153.83c-.74,0-1.43-.12-2.06-.36s-1.17-.58-1.63-1.02-.82-.96-1.08-1.55c-.26-.59-.39-1.24-.39-1.95s.13-1.36.39-1.95c.26-.59.62-1.11,1.09-1.55.46-.44,1.01-.78,1.64-1.02.63-.24,1.31-.36,2.06-.36s1.45.12,2.08.38,1.18.62,1.62,1.11l-.91.86c-.37-.38-.79-.67-1.25-.85-.46-.19-.96-.28-1.49-.28s-1.06.09-1.53.27c-.47.18-.88.44-1.22.76s-.61.72-.8,1.17c-.19.45-.29.94-.29,1.47s.1,1.02.29,1.47.46.84.8,1.17.75.58,1.22.76c.47.18.98.27,1.53.27s1.03-.09,1.49-.28c.46-.19.88-.47,1.25-.87l.91.86c-.45.49-.99.86-1.62,1.12-.64.25-1.34.38-2.1.38Z" fill="#4a17a1"/>
        <path d="M325.98,153.72v-9.54h1.39v9.54h-1.39Z" fill="#4a17a1"/>
        <path d="M331.7,152.54h5.69v1.19h-7.08v-9.54h6.88v1.19h-5.49v7.17ZM331.57,148.3h5.02v1.16h-5.02v-1.16Z" fill="#4a17a1"/>
        <path d="M339.64,153.72v-9.54h1.14l6.45,7.84h-.6v-7.84h1.39v9.54h-1.14l-6.45-7.84h.6v7.84h-1.39Z" fill="#4a17a1"/>
        <path d="M352.9,153.72v-8.36h-3.35v-1.19h8.07v1.19h-3.34v8.36h-1.38Z" fill="#4a17a1"/>
        <path d="M360.54,152.54h5.69v1.19h-7.08v-9.54h6.88v1.19h-5.49v7.17ZM360.41,148.3h5.02v1.16h-5.02v-1.16Z" fill="#4a17a1"/>
        <path d="M371.32,153.83c-.74,0-1.45-.11-2.13-.33-.68-.22-1.21-.51-1.6-.87l.52-1.06c.37.32.85.58,1.42.79s1.18.31,1.8.31c.57,0,1.03-.06,1.38-.19.35-.13.61-.3.78-.53.17-.22.25-.47.25-.76,0-.33-.11-.59-.33-.79s-.5-.36-.85-.48c-.35-.12-.73-.23-1.15-.32s-.84-.2-1.26-.32-.81-.28-1.16-.47c-.35-.19-.63-.45-.84-.77-.21-.32-.32-.74-.32-1.25s.13-.94.4-1.36c.26-.41.67-.75,1.23-1,.55-.25,1.26-.38,2.11-.38.57,0,1.13.07,1.69.22s1.04.35,1.45.63l-.46,1.09c-.42-.27-.86-.47-1.32-.59-.46-.12-.92-.18-1.35-.18-.55,0-1,.07-1.35.2-.35.14-.61.32-.77.55-.16.23-.24.48-.24.76,0,.34.11.61.33.8.22.2.5.36.85.48.35.12.73.22,1.15.32s.84.2,1.26.32.81.27,1.16.46c.35.19.63.45.84.76.21.32.32.73.32,1.23s-.13.93-.4,1.34c-.27.41-.68.75-1.25,1s-1.27.38-2.13.38Z" fill="#4a17a1"/>
      </g>
      <g>
        <rect x="252.06" y="151.67" width="4.46" height=".94" fill="#4a17a1"/>
        <rect x="257.84" y="149.97" width="7.33" height=".94" fill="#5c2eaa"/>
        <path d="M256.1,158.68c-9.67,0-17.55-7.7-17.55-17.17s7.87-17.17,17.55-17.17,17.55,7.7,17.55,17.17-7.87,17.17-17.55,17.17ZM256.1,124.82c-9.42,0-17.08,7.49-17.08,16.7s7.66,16.7,17.08,16.7,17.08-7.49,17.08-16.7-7.66-16.7-17.08-16.7Z" fill="#4a17a1"/>
        <rect x="253.82" y="130.35" width=".94" height="22.25" fill="#5c2eaa"/>
        <rect x="255.58" y="130.35" width=".94" height="22.25" fill="#5c2eaa"/>
        <rect x="252.06" y="130.35" width=".94" height="22.25" fill="#5c2eaa"/>
        <rect x="252.06" y="130.34" width="4.46" height=".94" fill="#5c2eaa"/>
        <polygon points="264.29 135.75 263.37 135.12 264.47 133.51 263.37 131.89 264.29 131.27 265.82 133.51 264.29 135.75" fill="#5c2eaa"/>
        <polygon points="264.29 144.18 263.37 143.55 264.47 141.94 263.37 140.32 264.29 139.7 265.82 141.94 264.29 144.18" fill="#5c2eaa"/>
        <polygon points="264.29 152.68 263.37 152.05 264.47 150.44 263.37 148.83 264.29 148.2 265.82 150.44 264.29 152.68" fill="#5c2eaa"/>
        <rect x="257.84" y="132.97" width="7.33" height=".94" fill="#5c2eaa"/>
        <rect x="257.84" y="141.47" width="7.33" height=".94" fill="#5c2eaa"/>
        <g>
          <path d="M248.85,133.81c-.41,0-.74.32-.74.73s.33.73.74.73.74-.32.74-.73-.33-.73-.74-.73" fill="#5c2eaa"/>
          <path d="M248.93,140.89c-.41,0-.74.32-.74.73s.33.73.74.73.74-.32.74-.73-.33-.73-.74-.73" fill="#5c2eaa"/>
          <path d="M248.38,144.95c-.41,0-.74.32-.74.73s.33.73.74.73.74-.32.74-.73-.33-.73-.74-.73" fill="#5c2eaa"/>
          <path d="M248.66,147.41c-.41,0-.74.32-.74.73s.33.73.74.73.74-.32.74-.73-.33-.73-.74-.73" fill="#5c2eaa"/>
          <path d="M250.24,135.72c-.41,0-.74.32-.74.73s.33.73.74.73.74-.32.74-.73-.33-.73-.74-.73" fill="#5c2eaa"/>
          <path d="M250.41,144.11c-.41,0-.74.32-.74.73s.33.73.74.73.74-.32.74-.73-.33-.73-.74-.73" fill="#5c2eaa"/>
          <path d="M247.13,139.72c-.41,0-.74.32-.74.73s.33.73.74.73.74-.32.74-.73-.33-.73-.74-.73" fill="#5c2eaa"/>
          <path d="M248.1,142.72c-.41,0-.74.32-.74.73s.33.73.74.73.74-.32.74-.73-.33-.73-.74-.73" fill="#5c2eaa"/>
          <path d="M247.78,137.27c-.41,0-.74.32-.74.73s.33.73.74.73.74-.32.74-.73-.33-.73-.74-.73" fill="#5c2eaa"/>
          <path d="M250.41,138.24c-.41,0-.74.32-.74.73s.33.73.74.73.74-.32.74-.73-.33-.73-.74-.73" fill="#5c2eaa"/>
        </g>
      </g>
    </g>
    <g>
      <g>
        <path d="M286.38,76.88c-.74,0-1.43-.12-2.06-.36-.63-.24-1.17-.58-1.63-1.02-.46-.44-.82-.96-1.08-1.55-.26-.59-.39-1.24-.39-1.95s.13-1.36.39-1.95c.26-.59.62-1.11,1.09-1.55.46-.44,1.01-.78,1.64-1.02.63-.24,1.31-.36,2.06-.36s1.45.12,2.08.38,1.18.62,1.62,1.11l-.91.86c-.37-.38-.79-.67-1.25-.85-.46-.19-.96-.28-1.49-.28s-1.06.09-1.53.27c-.47.18-.88.44-1.22.76s-.61.72-.8,1.17-.29.94-.29,1.47.1,1.02.29,1.46c.19.45.46.84.8,1.17s.75.58,1.22.76c.47.18.98.27,1.53.27s1.03-.09,1.49-.28c.46-.19.88-.47,1.25-.87l.91.86c-.45.49-.99.86-1.62,1.12-.64.25-1.34.38-2.1.38Z" fill="#4a17a1"/>
        <path d="M296.5,76.88c-.74,0-1.43-.12-2.07-.37-.64-.25-1.19-.59-1.65-1.03-.46-.44-.83-.96-1.09-1.55-.26-.59-.39-1.24-.39-1.94s.13-1.35.39-1.94c.26-.59.62-1.11,1.09-1.55.46-.44,1.01-.78,1.64-1.03.63-.25,1.32-.37,2.08-.37s1.43.12,2.06.36c.63.24,1.18.58,1.64,1.02.46.44.83.96,1.08,1.55.25.6.38,1.24.38,1.94s-.13,1.36-.38,1.95c-.26.59-.62,1.11-1.08,1.55-.46.44-1.01.78-1.64,1.02-.63.24-1.32.36-2.06.36ZM296.48,75.67c.55,0,1.05-.09,1.51-.27s.86-.44,1.2-.77c.34-.33.6-.72.79-1.17s.29-.93.29-1.46-.1-1.01-.29-1.45c-.19-.44-.46-.83-.79-1.17-.34-.34-.74-.59-1.2-.78-.46-.18-.96-.27-1.51-.27s-1.04.09-1.5.27c-.46.18-.86.44-1.21.78-.34.34-.61.72-.8,1.17-.19.44-.29.92-.29,1.45s.1,1.01.29,1.46.46.83.8,1.17.75.59,1.21.77.96.27,1.5.27Z" fill="#4a17a1"/>
        <path d="M303.8,76.77v-9.54h1.14l4.38,7.21h-.61l4.32-7.21h1.14v9.54s-1.32,0-1.32,0v-7.49s.31,0,.31,0l-3.85,6.33h-.64l-3.88-6.33h.35v7.49h-1.34Z" fill="#4a17a1"/>
        <path d="M315.63,76.77l4.42-9.54h1.38l4.43,9.54h-1.46l-3.94-8.78h.56l-3.94,8.78h-1.44ZM317.51,74.39l.38-1.09h5.49l.4,1.09h-6.27Z" fill="#4a17a1"/>
        <path d="M327.31,76.77v-9.54h1.14l6.45,7.84h-.6v-7.84h1.39v9.54h-1.14l-6.45-7.84h.6v7.84h-1.39Z" fill="#4a17a1"/>
        <path d="M338.63,76.77v-9.54h4.11c1.04,0,1.96.2,2.75.6.79.4,1.41.96,1.85,1.68s.66,1.55.66,2.5-.22,1.78-.66,2.49c-.44.72-1.06,1.28-1.85,1.68-.79.4-1.71.6-2.75.6h-4.11ZM340.02,75.59h2.63c.81,0,1.51-.15,2.1-.45.59-.3,1.05-.72,1.37-1.26.33-.54.49-1.17.49-1.87s-.16-1.35-.49-1.88-.78-.95-1.37-1.25c-.59-.3-1.29-.45-2.1-.45h-2.63v7.17Z" fill="#4a17a1"/>
        <path d="M354.55,76.88c-.74,0-1.43-.12-2.07-.37-.64-.25-1.19-.59-1.65-1.03-.46-.44-.83-.96-1.09-1.55-.26-.59-.39-1.24-.39-1.94s.13-1.35.39-1.94c.26-.59.62-1.11,1.09-1.55.46-.44,1.01-.78,1.64-1.03.63-.25,1.32-.37,2.08-.37s1.43.12,2.06.36c.63.24,1.18.58,1.64,1.02.46.44.83.96,1.08,1.55.25.6.38,1.24.38,1.94s-.13,1.36-.38,1.95c-.26.59-.62,1.11-1.08,1.55-.46.44-1.01.78-1.64,1.02-.63.24-1.32.36-2.06.36ZM354.53,75.67c.55,0,1.05-.09,1.51-.27s.86-.44,1.2-.77c.34-.33.6-.72.79-1.17s.29-.93.29-1.46-.1-1.01-.29-1.45c-.19-.44-.46-.83-.79-1.17-.34-.34-.74-.59-1.2-.78-.46-.18-.96-.27-1.51-.27s-1.04.09-1.5.27c-.46.18-.86.44-1.21.78-.34.34-.61.72-.8,1.17-.19.44-.29.92-.29,1.45s.1,1.01.29,1.46.46.83.8,1.17.75.59,1.21.77.96.27,1.5.27Z" fill="#4a17a1"/>
      </g>
      <g>
        <path d="M282.01,92.68v-9.54h1.14l4.38,7.21h-.61l4.32-7.21h1.14v9.54s-1.32,0-1.32,0v-7.48s.31,0,.31,0l-3.85,6.33h-.64l-3.88-6.33h.35v7.48h-1.34Z" fill="#4a17a1"/>
        <path d="M299.37,92.79c-1.28,0-2.29-.36-3.02-1.08-.73-.72-1.1-1.77-1.1-3.15v-5.43h1.39v5.37c0,1.06.24,1.84.72,2.33.48.49,1.16.74,2.03.74s1.56-.25,2.04-.74c.48-.49.72-1.27.72-2.33v-5.37h1.35v5.43c0,1.38-.37,2.43-1.09,3.15s-1.74,1.08-3.03,1.08Z" fill="#4a17a1"/>
        <path d="M306.35,92.68v-9.54h1.39v8.36h5.28v1.19h-6.68Z" fill="#4a17a1"/>
        <path d="M316.57,92.68v-8.36h-3.35v-1.19h8.07v1.19h-3.34v8.36h-1.38Z" fill="#4a17a1"/>
        <path d="M322.81,92.68v-9.54h1.39v9.54h-1.39Z" fill="#4a17a1"/>
        <path d="M328.52,92.68h-1.39v-9.54h6.88v1.19h-5.49v8.36ZM328.38,87.65h5.03v1.17h-5.03v-1.17Z" fill="#4a17a1"/>
        <path d="M340.02,92.79c-1.28,0-2.29-.36-3.02-1.08-.73-.72-1.1-1.77-1.1-3.15v-5.43h1.39v5.37c0,1.06.24,1.84.72,2.33.48.49,1.16.74,2.03.74s1.56-.25,2.04-.74c.48-.49.72-1.27.72-2.33v-5.37h1.35v5.43c0,1.38-.37,2.43-1.09,3.15s-1.74,1.08-3.03,1.08Z" fill="#4a17a1"/>
        <path d="M347.01,92.68v-9.54h1.14l6.45,7.84h-.6v-7.84h1.39v9.54h-1.14l-6.45-7.84h.6v7.84h-1.39Z" fill="#4a17a1"/>
        <path d="M362.69,92.79c-.74,0-1.43-.12-2.06-.36s-1.17-.58-1.63-1.02-.82-.96-1.08-1.55c-.26-.59-.39-1.24-.39-1.95s.13-1.36.39-1.95c.26-.59.62-1.11,1.09-1.55.46-.44,1.01-.78,1.64-1.02.63-.24,1.31-.36,2.06-.36s1.45.12,2.08.38,1.18.62,1.62,1.11l-.91.86c-.37-.38-.79-.67-1.25-.85-.46-.19-.96-.28-1.49-.28s-1.06.09-1.53.27c-.47.18-.88.44-1.22.76s-.61.72-.8,1.17c-.19.45-.29.94-.29,1.47s.1,1.02.29,1.47.46.84.8,1.17.75.58,1.22.76c.47.18.98.27,1.53.27s1.03-.09,1.49-.28c.46-.19.88-.47,1.25-.87l.91.86c-.45.49-.99.86-1.62,1.12-.64.25-1.34.38-2.1.38ZM362.12,95.74c-.24,0-.46-.02-.67-.07-.21-.05-.4-.12-.57-.23l.29-.67c.15.08.3.14.45.18.15.04.32.05.5.05.27,0,.47-.05.59-.14.13-.1.19-.23.19-.4,0-.16-.06-.29-.19-.39-.12-.09-.33-.14-.61-.14h-.38l.35-1.34h.77l-.21.78c.4.04.7.16.91.37.2.21.31.46.31.76,0,.38-.16.68-.47.91-.32.22-.73.33-1.25.33Z" fill="#4a17a1"/>
        <path d="M372.81,92.79c-.74,0-1.43-.12-2.07-.37s-1.19-.59-1.65-1.03c-.46-.44-.83-.96-1.09-1.55-.26-.59-.39-1.24-.39-1.94s.13-1.34.39-1.94c.26-.59.62-1.11,1.09-1.55.46-.44,1.01-.78,1.64-1.03s1.32-.37,2.08-.37,1.43.12,2.06.36c.63.24,1.18.58,1.64,1.02.46.44.83.96,1.08,1.55.25.59.38,1.24.38,1.94s-.13,1.36-.38,1.95c-.26.59-.62,1.11-1.08,1.55-.46.44-1.01.78-1.64,1.02s-1.32.36-2.06.36ZM372.79,91.58c.55,0,1.05-.09,1.51-.27.46-.18.86-.44,1.2-.77.34-.33.6-.72.79-1.17s.29-.93.29-1.46-.1-1.01-.29-1.45c-.19-.44-.46-.83-.79-1.17-.34-.34-.74-.6-1.2-.78s-.96-.27-1.51-.27-1.04.09-1.5.27-.86.44-1.21.78c-.34.34-.61.72-.8,1.17-.19.44-.29.92-.29,1.45s.1,1.01.29,1.46.46.83.8,1.17c.34.33.75.59,1.21.77.46.18.96.27,1.5.27ZM373.78,82.32c-.22,0-.42-.04-.59-.14s-.33-.2-.47-.32c-.14-.12-.27-.23-.4-.32-.13-.09-.26-.14-.39-.14-.21,0-.37.08-.5.22-.12.15-.2.36-.22.62h-.75c.02-.51.15-.91.39-1.21.24-.3.57-.45.98-.45.22,0,.42.05.6.14.18.1.33.2.47.33.14.12.27.23.4.32.12.09.25.14.38.14.2,0,.37-.07.5-.22s.2-.34.21-.6h.75c0,.48-.14.87-.38,1.17-.25.3-.57.45-.98.45Z" fill="#4a17a1"/>
        <path d="M381.5,91.5h5.69v1.19h-7.08v-9.54h6.88v1.19h-5.49v7.17ZM381.38,87.26h5.02v1.16h-5.02v-1.16Z" fill="#4a17a1"/>
        <path d="M392.29,92.79c-.74,0-1.45-.11-2.13-.33-.68-.22-1.21-.51-1.6-.87l.52-1.06c.37.32.85.58,1.42.79s1.18.31,1.8.31c.57,0,1.03-.06,1.38-.19.35-.13.61-.3.78-.53.17-.22.25-.47.25-.76,0-.33-.11-.59-.33-.79s-.5-.36-.85-.48c-.35-.12-.73-.23-1.15-.32s-.84-.2-1.26-.32-.81-.28-1.16-.47c-.35-.19-.63-.45-.84-.77-.21-.32-.32-.74-.32-1.25s.13-.94.4-1.36c.26-.41.67-.75,1.23-1,.55-.25,1.26-.38,2.11-.38.57,0,1.13.07,1.69.22s1.04.35,1.45.63l-.46,1.09c-.42-.27-.86-.47-1.32-.59-.46-.12-.92-.18-1.35-.18-.55,0-1,.07-1.35.2-.35.14-.61.32-.77.55-.16.23-.24.48-.24.76,0,.34.11.61.33.8.22.2.5.36.85.48.35.12.73.22,1.15.32s.84.2,1.26.32.81.27,1.16.46c.35.19.63.45.84.76.21.32.32.73.32,1.23s-.13.93-.4,1.34c-.27.41-.68.75-1.25,1s-1.27.38-2.13.38Z" fill="#4a17a1"/>
      </g>
      <g>
        <path d="M257.01,83.96c.29,0,.53-.23.53-.52s-.24-.52-.53-.52-.53.23-.53.52.24.52.53.52" fill="#4a17a1"/>
        <path d="M263.21,83.96c.29,0,.53-.23.53-.52s-.24-.52-.53-.52-.53.23-.53.52.24.52.53.52" fill="#4a17a1"/>
        <path d="M257.01,97.31c-10.18,0-18.47-8.11-18.47-18.07s8.29-18.07,18.47-18.07,18.47,8.11,18.47,18.07-8.29,18.07-18.47,18.07ZM257.01,61.67c-9.91,0-17.98,7.89-17.98,17.58s8.06,17.58,17.98,17.58,17.98-7.89,17.98-17.58-8.06-17.58-17.98-17.58Z" fill="#4a17a1"/>
      </g>
      <path d="M267.45,88.5h-20.87v-18.51h20.87v18.51ZM247.37,87.71h19.29v-16.93h-19.29v16.93Z" fill="#4a17a1"/>
      <path d="M264.01,81.08h-14.23v-8.41h14.23v8.41ZM250.3,80.55h13.17v-7.35h-13.17v7.35Z" fill="#4a17a1"/>
    </g>
    <g>
      <g>
        <path d="M523.92,84.58v-9.54h1.39v8.36h5.28v1.19h-6.68Z" fill="#4a17a1"/>
        <path d="M532.2,84.58v-9.54h1.39v9.54h-1.39Z" fill="#4a17a1"/>
        <path d="M540.93,84.69c-.75,0-1.45-.12-2.08-.36-.63-.24-1.18-.58-1.64-1.02-.46-.44-.83-.96-1.09-1.55-.26-.59-.39-1.24-.39-1.95s.13-1.36.39-1.95c.26-.59.62-1.11,1.09-1.55.47-.44,1.02-.78,1.65-1.02.63-.24,1.33-.36,2.09-.36s1.48.12,2.12.37c.64.25,1.18.61,1.63,1.1l-.86.85c-.4-.38-.83-.66-1.3-.84-.47-.18-.98-.27-1.53-.27s-1.08.09-1.55.27c-.48.18-.89.44-1.24.76s-.62.72-.81,1.17-.29.94-.29,1.47.1,1,.29,1.45c.19.45.46.84.81,1.17s.76.59,1.23.77.99.27,1.55.27c.52,0,1.02-.08,1.5-.24.48-.16.92-.42,1.33-.8l.79,1.04c-.48.4-1.05.7-1.69.91-.65.21-1.31.31-2,.31ZM543.28,83.29v-3.54h1.34v3.72l-1.34-.18Z" fill="#4a17a1"/>
        <path d="M545.8,84.58l4.42-9.54h1.38l4.43,9.54h-1.46l-3.94-8.78h.56l-3.94,8.78h-1.44ZM547.69,82.19l.38-1.09h5.49l.4,1.09h-6.27Z" fill="#4a17a1"/>
        <path d="M557.49,84.58v-9.54h3.8c.85,0,1.58.13,2.19.4.6.26,1.07.65,1.39,1.15s.49,1.1.49,1.79-.16,1.28-.49,1.78c-.33.5-.79.87-1.39,1.14-.6.26-1.33.4-2.19.4h-3.04l.63-.63v3.53h-1.39ZM558.88,81.18l-.63-.67h3c.89,0,1.57-.19,2.03-.57s.69-.91.69-1.59-.23-1.21-.69-1.58c-.46-.37-1.14-.56-2.03-.56h-3l.63-.68v5.64ZM564.01,84.58l-2.48-3.46h1.49l2.51,3.46h-1.52Z" fill="#4a17a1"/>
        <path d="M569.51,85.94l4.6-12.84h1.21l-4.6,12.84h-1.21Z" fill="#4a17a1"/>
        <path d="M580.02,84.58v-9.54h4.11c1.04,0,1.96.2,2.75.6.79.4,1.41.96,1.85,1.68s.66,1.55.66,2.5-.22,1.78-.66,2.49c-.44.72-1.06,1.28-1.85,1.68-.79.4-1.71.6-2.75.6h-4.11ZM581.42,83.39h2.63c.81,0,1.51-.15,2.1-.45.59-.3,1.05-.72,1.37-1.26.33-.54.49-1.17.49-1.87s-.16-1.35-.49-1.88-.78-.95-1.37-1.25c-.59-.3-1.29-.45-2.1-.45h-2.63v7.17Z" fill="#4a17a1"/>
        <path d="M592.93,83.39h5.69v1.19h-7.08v-9.54h6.88v1.19h-5.49v7.17ZM592.8,79.15h5.02v1.16h-5.02v-1.16Z" fill="#4a17a1"/>
        <path d="M603.72,84.69c-.74,0-1.45-.11-2.13-.33-.68-.22-1.21-.51-1.6-.87l.52-1.06c.37.32.85.58,1.42.79s1.18.31,1.8.31c.57,0,1.03-.06,1.38-.19.35-.13.61-.3.78-.52.17-.22.25-.47.25-.76,0-.33-.11-.59-.33-.79-.22-.2-.5-.36-.85-.48-.35-.12-.73-.23-1.15-.32s-.84-.2-1.26-.32c-.42-.12-.81-.28-1.16-.47-.35-.19-.63-.45-.84-.77-.21-.32-.32-.74-.32-1.25s.13-.94.4-1.36c.26-.41.67-.75,1.23-1,.55-.25,1.26-.38,2.11-.38.57,0,1.13.07,1.69.22s1.04.35,1.45.63l-.46,1.09c-.42-.27-.86-.47-1.32-.59-.46-.12-.92-.18-1.35-.18-.55,0-1,.07-1.35.21-.35.14-.61.32-.77.54-.16.23-.24.48-.24.76,0,.34.11.6.33.8.22.2.5.36.85.48.35.12.73.23,1.15.32.42.1.84.2,1.26.32.42.12.81.27,1.16.46.35.19.63.45.84.76s.32.73.32,1.23-.13.93-.4,1.34c-.27.41-.68.75-1.25,1s-1.27.37-2.13.37Z" fill="#4a17a1"/>
        <path d="M609.53,84.58v-9.54h1.39v8.36h5.28v1.19h-6.68Z" fill="#4a17a1"/>
        <path d="M617.81,84.58v-9.54h1.39v9.54h-1.39Z" fill="#4a17a1"/>
        <path d="M626.53,84.69c-.75,0-1.45-.12-2.08-.36-.63-.24-1.18-.58-1.64-1.02-.46-.44-.83-.96-1.09-1.55-.26-.59-.39-1.24-.39-1.95s.13-1.36.39-1.95c.26-.59.62-1.11,1.09-1.55.47-.44,1.02-.78,1.65-1.02.63-.24,1.33-.36,2.09-.36s1.48.12,2.12.37c.64.25,1.18.61,1.63,1.1l-.86.85c-.4-.38-.83-.66-1.3-.84-.47-.18-.98-.27-1.53-.27s-1.08.09-1.55.27c-.48.18-.89.44-1.24.76s-.62.72-.81,1.17-.29.94-.29,1.47.1,1,.29,1.45c.19.45.46.84.81,1.17s.76.59,1.23.77.99.27,1.55.27c.52,0,1.02-.08,1.5-.24.48-.16.92-.42,1.33-.8l.79,1.04c-.48.4-1.05.7-1.69.91-.65.21-1.31.31-2,.31ZM628.89,83.29v-3.54h1.34v3.72l-1.34-.18Z" fill="#4a17a1"/>
        <path d="M631.41,84.58l4.42-9.54h1.38l4.43,9.54h-1.46l-3.94-8.78h.56l-3.94,8.78h-1.44ZM633.29,82.19l.38-1.09h5.49l.4,1.09h-6.27Z" fill="#4a17a1"/>
        <path d="M643.09,84.58v-9.54h3.8c.85,0,1.58.13,2.19.4.6.26,1.07.65,1.39,1.15s.49,1.1.49,1.79-.16,1.28-.49,1.78c-.33.5-.79.87-1.39,1.14-.6.26-1.33.4-2.19.4h-3.04l.63-.63v3.53h-1.39ZM644.49,81.18l-.63-.67h3c.89,0,1.57-.19,2.03-.57s.69-.91.69-1.59-.23-1.21-.69-1.58c-.46-.37-1.14-.56-2.03-.56h-3l.63-.68v5.64ZM649.62,84.58l-2.48-3.46h1.49l2.51,3.46h-1.52Z" fill="#4a17a1"/>
      </g>
      <g>
        <path d="M497.84,96.92c-9.96,0-18.07-7.93-18.07-17.68s8.1-17.68,18.07-17.68,18.07,7.93,18.07,17.68-8.1,17.68-18.07,17.68ZM497.84,62.05c-9.7,0-17.58,7.71-17.58,17.19s7.89,17.19,17.58,17.19,17.58-7.71,17.58-17.19-7.89-17.19-17.58-17.19Z" fill="#4a17a1"/>
        <path d="M497.84,90.64c-6.34,0-11.5-5.05-11.5-11.26,0-3.07,1.24-5.94,3.5-8.08l.68.72c-2.06,1.95-3.19,4.57-3.19,7.36,0,5.66,4.71,10.27,10.51,10.27s10.51-4.61,10.51-10.27c0-2.83-1.16-5.47-3.28-7.44l.68-.73c2.32,2.15,3.59,5.05,3.59,8.16,0,6.21-5.16,11.26-11.5,11.26Z" fill="#5c2eaa"/>
      </g>
      <rect x="497.42" y="72.18" width="1.01" height="11.22" fill="#5c2eaa"/>
    </g>
    <g>
      <g>
        <path d="M521.24,14.93V5.39h4.38c1.12,0,1.99.22,2.59.66.6.44.91,1.04.91,1.81,0,.52-.12.95-.36,1.31-.24.35-.56.63-.96.82-.4.19-.83.29-1.3.29l.25-.41c.56,0,1.05.1,1.48.29.43.19.77.47,1.02.84s.38.83.38,1.37c0,.82-.31,1.45-.94,1.9-.63.45-1.56.67-2.79.67h-4.65ZM522.64,13.83h3.21c.77,0,1.36-.13,1.77-.38.41-.25.61-.65.61-1.2s-.21-.96-.61-1.21c-.41-.25-1-.38-1.77-.38h-3.33v-1.1h2.98c.71,0,1.25-.13,1.64-.38.39-.25.59-.64.59-1.14s-.2-.89-.59-1.15c-.39-.25-.94-.38-1.64-.38h-2.86v7.33Z" fill="#4a17a1"/>
        <path d="M536.2,15.04c-.74,0-1.43-.12-2.07-.37-.64-.25-1.19-.59-1.65-1.03-.46-.44-.83-.96-1.09-1.55-.26-.59-.39-1.24-.39-1.94s.13-1.35.39-1.94c.26-.59.62-1.11,1.09-1.55.46-.44,1.01-.78,1.64-1.03.63-.25,1.32-.37,2.08-.37s1.43.12,2.06.36c.63.24,1.18.58,1.64,1.02.46.44.82.96,1.08,1.55.26.6.38,1.24.38,1.94s-.13,1.36-.38,1.95-.62,1.11-1.08,1.55c-.46.44-1.01.78-1.64,1.02-.63.24-1.32.36-2.06.36ZM536.18,13.83c.55,0,1.05-.09,1.51-.27.46-.18.86-.44,1.2-.77.34-.33.6-.72.79-1.17.19-.45.29-.93.29-1.46s-.1-1.01-.29-1.45c-.19-.44-.46-.83-.79-1.17-.34-.34-.74-.59-1.2-.78-.46-.18-.96-.27-1.51-.27s-1.04.09-1.5.27c-.46.18-.86.44-1.21.78-.34.34-.61.72-.8,1.17-.19.44-.29.92-.29,1.45s.1,1.01.29,1.46c.19.45.46.83.8,1.17s.75.59,1.21.77c.46.18.96.27,1.5.27Z" fill="#4a17a1"/>
        <path d="M547.86,15.04c-.74,0-1.43-.12-2.06-.36-.63-.24-1.17-.58-1.63-1.02-.46-.44-.82-.96-1.08-1.55s-.39-1.24-.39-1.95.13-1.36.39-1.95.62-1.11,1.09-1.55c.46-.44,1.01-.78,1.64-1.02.63-.24,1.31-.36,2.06-.36s1.45.12,2.08.38,1.18.62,1.62,1.11l-.91.86c-.37-.38-.79-.67-1.25-.85-.46-.19-.96-.28-1.49-.28s-1.06.09-1.53.27c-.47.18-.88.44-1.22.76s-.61.72-.8,1.17c-.19.45-.29.94-.29,1.47s.1,1.02.29,1.46c.19.45.46.84.8,1.17s.75.58,1.22.76.98.27,1.53.27,1.03-.09,1.49-.28.88-.47,1.25-.87l.91.86c-.45.49-.99.86-1.62,1.12-.64.25-1.34.38-2.1.38Z" fill="#4a17a1"/>
        <path d="M552.1,14.93l4.42-9.54h1.38l4.43,9.54h-1.46l-3.94-8.78h.56l-3.94,8.78h-1.44ZM553.98,12.54l.38-1.09h5.49l.4,1.09h-6.27Z" fill="#4a17a1"/>
        <path d="M566.62,15.04c-.74,0-1.45-.11-2.13-.33-.68-.22-1.21-.51-1.6-.87l.52-1.06c.37.32.85.58,1.42.79s1.18.31,1.8.31c.57,0,1.03-.06,1.38-.19.35-.13.61-.3.78-.52.17-.22.25-.47.25-.76,0-.33-.11-.59-.33-.79-.22-.2-.5-.36-.85-.48-.35-.12-.73-.23-1.15-.32s-.84-.2-1.26-.32c-.42-.12-.81-.28-1.16-.47s-.63-.45-.84-.77c-.21-.32-.32-.74-.32-1.25s.13-.94.4-1.36c.26-.41.67-.75,1.23-1,.55-.25,1.26-.38,2.11-.38.57,0,1.13.07,1.69.22.56.15,1.04.35,1.45.63l-.46,1.09c-.42-.27-.86-.47-1.32-.59-.46-.12-.92-.18-1.35-.18-.55,0-1,.07-1.35.21-.35.14-.61.32-.77.54-.16.23-.24.48-.24.76,0,.34.11.6.33.8.22.2.5.36.85.48.35.12.73.23,1.15.32.42.1.84.2,1.26.32.42.12.81.27,1.16.46.35.19.63.45.84.76.21.32.32.73.32,1.23s-.13.93-.4,1.34c-.27.41-.68.75-1.25,1s-1.27.37-2.13.37Z" fill="#4a17a1"/>
        <path d="M576.19,14.93V5.39h1.14l4.38,7.21h-.61l4.32-7.21h1.14v9.54s-1.32,0-1.32,0l-.02-7.49h.32l-3.85,6.33h-.64l-3.88-6.33h.35v7.49h-1.34Z" fill="#4a17a1"/>
        <path d="M593.54,15.04c-1.28,0-2.29-.36-3.03-1.08-.73-.72-1.1-1.77-1.1-3.15v-5.43h1.39v5.37c0,1.06.24,1.84.72,2.33s1.16.74,2.03.74,1.56-.25,2.04-.74.72-1.27.72-2.33v-5.37h1.35v5.43c0,1.38-.37,2.43-1.09,3.15-.73.72-1.74,1.08-3.03,1.08Z" fill="#4a17a1"/>
        <path d="M600.52,14.93V5.39h1.39v8.36h5.28v1.19h-6.68Z" fill="#4a17a1"/>
        <path d="M610.74,14.93V6.57h-3.35v-1.19h8.07v1.19h-3.34v8.36h-1.38Z" fill="#4a17a1"/>
        <path d="M616.98,14.93V5.39h1.39v9.54h-1.39Z" fill="#4a17a1"/>
        <path d="M622.7,13.74h5.69v1.19h-7.08V5.39h6.88v1.19h-5.49v7.17ZM622.57,9.5h5.02v1.16h-5.02v-1.16Z" fill="#4a17a1"/>
        <path d="M630.64,14.93V5.39h1.14l6.45,7.84h-.6v-7.84h1.39v9.54h-1.14l-6.46-7.84h.6v7.84h-1.39Z" fill="#4a17a1"/>
        <path d="M643.9,14.93V6.57h-3.35v-1.19h8.07v1.19h-3.35v8.36h-1.38Z" fill="#4a17a1"/>
        <path d="M650.14,14.93V5.39h3.8c.85,0,1.58.13,2.19.4s1.07.65,1.39,1.15c.32.5.49,1.1.49,1.79s-.16,1.28-.49,1.78c-.33.5-.79.87-1.39,1.14s-1.33.4-2.19.4h-3.04l.63-.63v3.53h-1.39ZM651.54,11.54l-.63-.67h3c.89,0,1.57-.19,2.03-.57.46-.38.69-.91.69-1.59s-.23-1.21-.69-1.58c-.46-.37-1.14-.56-2.03-.56h-3l.63-.68v5.64ZM656.67,14.93l-2.48-3.46h1.49l2.51,3.46h-1.52Z" fill="#4a17a1"/>
        <path d="M658.8,14.93l4.42-9.54h1.38l4.43,9.54h-1.46l-3.95-8.78h.56l-3.95,8.78h-1.44ZM660.68,12.54l.38-1.09h5.49l.4,1.09h-6.27Z" fill="#4a17a1"/>
        <path d="M670.48,14.93V5.39h4.11c1.04,0,1.96.2,2.75.6.79.4,1.41.96,1.85,1.68s.66,1.55.66,2.5-.22,1.78-.66,2.49c-.44.72-1.06,1.28-1.85,1.68-.79.4-1.71.6-2.75.6h-4.11ZM671.87,13.74h2.63c.81,0,1.51-.15,2.1-.45.59-.3,1.05-.72,1.37-1.26.33-.54.49-1.17.49-1.87s-.16-1.35-.49-1.88c-.32-.54-.78-.95-1.37-1.25-.59-.3-1.29-.45-2.1-.45h-2.63v7.17Z" fill="#4a17a1"/>
        <path d="M680.51,14.93l4.42-9.54h1.38l4.43,9.54h-1.46l-3.95-8.78h.56l-3.95,8.78h-1.44ZM682.4,12.54l.38-1.09h5.49l.4,1.09h-6.27Z" fill="#4a17a1"/>
      </g>
      <g>
        <path d="M519.76,30.49l4.42-9.54h1.38l4.43,9.54h-1.46l-3.95-8.78h.56l-3.95,8.78h-1.44ZM521.65,28.11l.38-1.09h5.49l.4,1.09h-6.27Z" fill="#4a17a1"/>
        <path d="M533.38,30.49v-8.36h-3.35v-1.19h8.07v1.19h-3.35v8.36h-1.38Z" fill="#4a17a1"/>
        <path d="M541.02,29.31h5.69v1.19h-7.08v-9.54h6.88v1.19h-5.49v7.17ZM540.9,25.07h5.02v1.16h-5.02v-1.16ZM542.04,20.17l1.9-1.77h1.7l-2.34,1.77h-1.25Z" fill="#4a17a1"/>
        <path d="M553.57,30.49v-9l.6.64h-2.8v-1.19h3.58v9.54h-1.38Z" fill="#4a17a1"/>
        <path d="M556.93,30.49v-.93l3.97-3.75c.35-.33.62-.62.79-.87s.29-.48.35-.7.09-.42.09-.62c0-.49-.18-.88-.53-1.16-.35-.28-.87-.42-1.55-.42-.52,0-.99.08-1.41.25-.42.17-.78.43-1.09.78l-.95-.8c.37-.46.87-.82,1.5-1.07s1.32-.38,2.07-.38c.68,0,1.27.11,1.77.32s.89.52,1.16.92c.27.4.41.87.41,1.42,0,.31-.04.61-.12.91s-.24.62-.47.96c-.23.34-.57.71-1,1.13l-3.54,3.34-.33-.53h5.89v1.19h-7.01Z" fill="#4a17a1"/>
        <path d="M573.98,30.6c-.74,0-1.43-.12-2.05-.36-.63-.24-1.17-.58-1.63-1.02-.46-.44-.82-.96-1.08-1.55-.26-.59-.39-1.24-.39-1.95s.13-1.36.39-1.95c.26-.59.62-1.11,1.09-1.55.46-.44,1.01-.78,1.64-1.02.63-.24,1.31-.36,2.05-.36s1.45.12,2.08.38,1.18.62,1.62,1.11l-.91.86c-.37-.38-.79-.67-1.25-.85-.46-.19-.96-.28-1.49-.28s-1.06.09-1.53.27c-.47.18-.88.44-1.22.76s-.61.72-.8,1.17c-.19.45-.29.94-.29,1.47s.1,1.02.29,1.46c.19.45.46.84.8,1.17s.75.58,1.22.76c.47.18.98.27,1.53.27s1.03-.09,1.49-.28c.46-.19.88-.47,1.25-.87l.91.86c-.45.49-.99.86-1.62,1.12-.64.25-1.34.38-2.1.38Z" fill="#4a17a1"/>
        <path d="M584.1,30.6c-.74,0-1.43-.12-2.07-.37-.64-.25-1.19-.59-1.65-1.03-.46-.44-.83-.96-1.09-1.55-.26-.59-.39-1.24-.39-1.94s.13-1.35.39-1.94c.26-.59.62-1.11,1.09-1.55.46-.44,1.01-.78,1.64-1.03.63-.25,1.32-.37,2.08-.37s1.43.12,2.06.36c.63.24,1.18.58,1.64,1.02.46.44.82.96,1.08,1.55.26.6.38,1.24.38,1.94s-.13,1.36-.38,1.95-.62,1.11-1.08,1.55c-.46.44-1.01.78-1.64,1.02-.63.24-1.32.36-2.06.36ZM584.09,29.39c.55,0,1.05-.09,1.51-.27.46-.18.86-.44,1.2-.77.34-.33.6-.72.79-1.17.19-.45.29-.93.29-1.46s-.1-1.01-.29-1.45c-.19-.44-.46-.83-.79-1.17-.34-.34-.74-.59-1.2-.78-.46-.18-.96-.27-1.51-.27s-1.04.09-1.5.27c-.46.18-.86.44-1.21.78-.34.34-.61.72-.8,1.17-.19.44-.29.92-.29,1.45s.1,1.01.29,1.46c.19.45.46.83.8,1.17s.75.59,1.21.77c.46.18.96.27,1.5.27Z" fill="#4a17a1"/>
        <path d="M591.41,30.49v-9.54h1.14l6.45,7.84h-.6v-7.84h1.39v9.54h-1.14l-6.45-7.84h.6v7.84h-1.39Z" fill="#4a17a1"/>
        <path d="M602.73,30.49v-9.54h4.11c1.04,0,1.96.2,2.75.6.79.4,1.41.96,1.85,1.68s.66,1.55.66,2.5-.22,1.78-.66,2.49c-.44.72-1.06,1.28-1.85,1.68-.79.4-1.71.6-2.75.6h-4.11ZM604.12,29.31h2.63c.81,0,1.51-.15,2.1-.45.59-.3,1.05-.72,1.37-1.26.32-.54.49-1.17.49-1.87s-.16-1.35-.49-1.88c-.33-.54-.78-.95-1.37-1.25s-1.29-.45-2.1-.45h-2.63v7.17Z" fill="#4a17a1"/>
        <path d="M618.28,30.6c-1.28,0-2.29-.36-3.03-1.08-.73-.72-1.1-1.77-1.1-3.15v-5.43h1.39v5.37c0,1.06.24,1.84.72,2.33s1.16.74,2.03.74,1.56-.25,2.04-.74.72-1.27.72-2.33v-5.37h1.35v5.43c0,1.38-.37,2.43-1.09,3.15-.73.72-1.74,1.08-3.03,1.08Z" fill="#4a17a1"/>
        <path d="M627.2,30.49v-8.36h-3.35v-1.19h8.07v1.19h-3.34v8.36h-1.38Z" fill="#4a17a1"/>
        <path d="M631.97,30.49l4.42-9.54h1.38l4.43,9.54h-1.46l-3.94-8.78h.56l-3.94,8.78h-1.44ZM633.85,28.11l.38-1.09h5.49l.4,1.09h-6.27Z" fill="#4a17a1"/>
        <path d="M646.49,30.6c-.74,0-1.46-.11-2.13-.33-.68-.22-1.21-.51-1.6-.87l.52-1.06c.37.32.85.58,1.42.79s1.18.31,1.8.31c.57,0,1.03-.06,1.38-.19.35-.13.61-.3.78-.52s.25-.47.25-.76c0-.33-.11-.59-.33-.79-.22-.2-.5-.36-.85-.48-.35-.12-.73-.23-1.15-.32s-.84-.2-1.26-.32c-.42-.12-.81-.28-1.16-.47-.35-.19-.63-.45-.84-.77-.21-.32-.32-.74-.32-1.25s.13-.94.4-1.36c.27-.41.67-.75,1.23-1s1.26-.38,2.11-.38c.57,0,1.13.07,1.69.22.56.15,1.04.35,1.45.63l-.46,1.09c-.42-.27-.86-.47-1.32-.59-.46-.12-.91-.18-1.35-.18-.55,0-1,.07-1.35.21-.35.14-.61.32-.77.54-.16.23-.24.48-.24.76,0,.34.11.6.33.8.22.2.5.36.85.48s.73.23,1.15.32c.42.1.84.2,1.26.32.42.12.81.27,1.16.46s.63.45.84.76c.21.32.32.73.32,1.23s-.13.93-.4,1.34c-.27.41-.69.75-1.25,1s-1.27.37-2.12.37Z" fill="#4a17a1"/>
      </g>
      <g>
        <path d="M497.15,34.06c-9.58,0-17.37-7.62-17.37-16.99S487.58.08,497.15.08s17.37,7.62,17.37,16.99-7.79,16.99-17.37,16.99ZM497.15.54c-9.32,0-16.9,7.41-16.9,16.53s7.58,16.53,16.9,16.53,16.9-7.41,16.9-16.53-7.58-16.53-16.9-16.53Z" fill="#4a17a1"/>
        <g>
          <path d="M502.19,14.48c-2.41,0-4.37-1.92-4.37-4.28s1.96-4.28,4.37-4.28,4.37,1.92,4.37,4.28-1.96,4.28-4.37,4.28ZM502.19,6.9c-1.86,0-3.38,1.48-3.38,3.29s1.52,3.29,3.38,3.29,3.38-1.48,3.38-3.29-1.52-3.29-3.38-3.29Z" fill="#4a17a1"/>
          <path d="M502.19,28.23c-2.41,0-4.37-1.92-4.37-4.28s1.96-4.28,4.37-4.28,4.37,1.92,4.37,4.28-1.96,4.28-4.37,4.28ZM502.19,20.65c-1.86,0-3.38,1.48-3.38,3.29s1.52,3.29,3.38,3.29,3.38-1.48,3.38-3.29-1.52-3.29-3.38-3.29Z" fill="#4a17a1"/>
          <path d="M490.12,21.42c-2.41,0-4.37-1.92-4.37-4.28s1.96-4.28,4.37-4.28,4.37,1.92,4.37,4.28-1.96,4.28-4.37,4.28ZM490.12,13.85c-1.86,0-3.38,1.48-3.38,3.29s1.52,3.29,3.38,3.29,3.38-1.48,3.38-3.29-1.52-3.29-3.38-3.29Z" fill="#4a17a1"/>
          <rect x="492.55" y="12.63" width="6.9" height=".99" transform="translate(33.83 193.64) rotate(-22.85)" fill="#4a17a1"/>
          <rect x="494.76" y="17.92" width=".99" height="6.9" transform="translate(295.6 475.1) rotate(-68.72)" fill="#4a17a1"/>
        </g>
      </g>
    </g>
    <g>
      <g>
        <path d="M41.56,146.37v-9.54h1.14l4.38,7.21h-.61l4.32-7.21h1.14v9.54s-1.32,0-1.32,0v-7.48s.31,0,.31,0l-3.85,6.33h-.64l-3.88-6.33h.35v7.48h-1.34Z" fill="#4a17a1"/>
        <path d="M58.92,146.48c-1.28,0-2.29-.36-3.02-1.08-.73-.72-1.1-1.77-1.1-3.15v-5.43h1.39v5.37c0,1.06.24,1.84.72,2.33.48.49,1.16.74,2.03.74s1.56-.25,2.04-.74c.48-.49.72-1.27.72-2.33v-5.37h1.35v5.43c0,1.38-.37,2.43-1.09,3.15s-1.74,1.08-3.03,1.08Z" fill="#4a17a1"/>
        <path d="M65.9,146.37v-9.54h1.39v8.36h5.28v1.19h-6.68Z" fill="#4a17a1"/>
        <path d="M76.12,146.37v-8.36h-3.35v-1.19h8.07v1.19h-3.34v8.36h-1.38Z" fill="#4a17a1"/>
        <path d="M82.36,146.37v-9.54h1.39v9.54h-1.39Z" fill="#4a17a1"/>
        <path d="M86.68,146.37v-9.54h3.8c.85,0,1.58.13,2.19.4.6.26,1.07.65,1.39,1.14.33.5.49,1.1.49,1.79s-.16,1.28-.49,1.78-.79.88-1.39,1.15c-.6.27-1.33.4-2.19.4h-3.04l.63-.64v3.53h-1.39ZM88.07,142.98l-.63-.68h3c.89,0,1.57-.19,2.03-.56.46-.37.69-.9.69-1.58s-.23-1.21-.69-1.58-1.14-.56-2.03-.56h-3l.63-.68v5.64Z" fill="#4a17a1"/>
        <path d="M101.15,146.48c-.74,0-1.43-.12-2.07-.37s-1.19-.59-1.65-1.03c-.46-.44-.83-.96-1.09-1.55-.26-.59-.39-1.24-.39-1.94s.13-1.34.39-1.94c.26-.59.62-1.11,1.09-1.55.46-.44,1.01-.78,1.64-1.03s1.32-.37,2.08-.37,1.43.12,2.06.36c.63.24,1.18.58,1.64,1.02.46.44.83.96,1.08,1.55.25.59.38,1.24.38,1.94s-.13,1.36-.38,1.95c-.26.59-.62,1.11-1.08,1.55-.46.44-1.01.78-1.64,1.02s-1.32.36-2.06.36ZM101.13,145.27c.55,0,1.05-.09,1.51-.27.46-.18.86-.44,1.2-.77.34-.33.6-.72.79-1.17s.29-.93.29-1.46-.1-1.01-.29-1.45c-.19-.44-.46-.83-.79-1.17-.34-.34-.74-.6-1.2-.78s-.96-.27-1.51-.27-1.04.09-1.5.27-.86.44-1.21.78c-.34.34-.61.72-.8,1.17-.19.44-.29.92-.29,1.45s.1,1.01.29,1.46.46.83.8,1.17c.34.33.75.59,1.21.77.46.18.96.27,1.5.27Z" fill="#4a17a1"/>
        <path d="M111.29,146.48c-.74,0-1.45-.11-2.13-.33-.68-.22-1.21-.51-1.6-.87l.52-1.06c.37.32.85.58,1.42.79s1.18.31,1.8.31c.57,0,1.03-.06,1.38-.19.35-.13.61-.3.78-.53.17-.22.25-.47.25-.76,0-.33-.11-.59-.33-.79s-.5-.36-.85-.48c-.35-.12-.73-.23-1.15-.32s-.84-.2-1.26-.32-.81-.28-1.16-.47c-.35-.19-.63-.45-.84-.77-.21-.32-.32-.74-.32-1.25s.13-.94.4-1.36c.26-.41.67-.75,1.23-1,.55-.25,1.26-.38,2.11-.38.57,0,1.13.07,1.69.22s1.04.35,1.45.63l-.46,1.09c-.42-.27-.86-.47-1.32-.59-.46-.12-.92-.18-1.35-.18-.55,0-1,.07-1.35.2-.35.14-.61.32-.77.55-.16.23-.24.48-.24.76,0,.34.11.61.33.8.22.2.5.36.85.48.35.12.73.22,1.15.32s.84.2,1.26.32.81.27,1.16.46c.35.19.63.45.84.76.21.32.32.73.32,1.23s-.13.93-.4,1.34c-.27.41-.68.75-1.25,1s-1.27.38-2.13.38Z" fill="#4a17a1"/>
        <path d="M117.11,146.37v-9.54h1.39v9.54h-1.39Z" fill="#4a17a1"/>
        <path d="M125.79,146.48c-.74,0-1.43-.12-2.06-.36s-1.17-.58-1.63-1.02-.82-.96-1.08-1.55c-.26-.59-.39-1.24-.39-1.95s.13-1.36.39-1.95c.26-.59.62-1.11,1.09-1.55.46-.44,1.01-.78,1.64-1.02.63-.24,1.31-.36,2.06-.36s1.45.12,2.08.38,1.18.62,1.62,1.11l-.91.86c-.37-.38-.79-.67-1.25-.85-.46-.19-.96-.28-1.49-.28s-1.06.09-1.53.27c-.47.18-.88.44-1.22.76s-.61.72-.8,1.17c-.19.45-.29.94-.29,1.47s.1,1.02.29,1.47.46.84.8,1.17.75.58,1.22.76c.47.18.98.27,1.53.27s1.03-.09,1.49-.28c.46-.19.88-.47,1.25-.87l.91.86c-.45.49-.99.86-1.62,1.12-.64.25-1.34.38-2.1.38ZM125.22,149.43c-.24,0-.46-.02-.67-.07-.21-.05-.4-.12-.57-.23l.29-.67c.15.08.3.14.45.18.15.04.32.05.5.05.27,0,.47-.05.59-.14.13-.1.19-.23.19-.4,0-.16-.06-.29-.19-.39-.12-.09-.33-.14-.61-.14h-.38l.35-1.34h.77l-.21.78c.4.04.7.16.91.37.2.21.31.46.31.76,0,.38-.16.68-.47.91-.32.22-.73.33-1.25.33Z" fill="#4a17a1"/>
        <path d="M130.03,146.37l4.42-9.54h1.38l4.43,9.54h-1.46l-3.94-8.78h.56l-3.94,8.78h-1.44ZM131.91,143.99l.38-1.09h5.49l.4,1.09h-6.27ZM136.12,136.01c-.22,0-.42-.04-.59-.14s-.33-.2-.47-.32c-.14-.12-.27-.23-.4-.32-.13-.09-.26-.14-.39-.14-.21,0-.37.08-.5.22-.12.15-.2.36-.22.62h-.75c.02-.51.15-.91.39-1.21.24-.3.57-.45.98-.45.22,0,.42.05.6.14.18.1.33.2.47.33.14.12.27.23.4.32.12.09.25.14.38.14.2,0,.37-.07.5-.22s.2-.34.21-.6h.75c0,.48-.14.87-.38,1.17-.25.3-.57.45-.98.45Z" fill="#4a17a1"/>
        <path d="M146.11,146.48c-.74,0-1.43-.12-2.07-.37s-1.19-.59-1.65-1.03c-.46-.44-.83-.96-1.09-1.55-.26-.59-.39-1.24-.39-1.94s.13-1.34.39-1.94c.26-.59.62-1.11,1.09-1.55.46-.44,1.01-.78,1.64-1.03s1.32-.37,2.08-.37,1.43.12,2.06.36c.63.24,1.18.58,1.64,1.02.46.44.83.96,1.08,1.55.25.59.38,1.24.38,1.94s-.13,1.36-.38,1.95c-.26.59-.62,1.11-1.08,1.55-.46.44-1.01.78-1.64,1.02s-1.32.36-2.06.36ZM146.1,145.27c.55,0,1.05-.09,1.51-.27.46-.18.86-.44,1.2-.77.34-.33.6-.72.79-1.17s.29-.93.29-1.46-.1-1.01-.29-1.45c-.19-.44-.46-.83-.79-1.17-.34-.34-.74-.6-1.2-.78s-.96-.27-1.51-.27-1.04.09-1.5.27-.86.44-1.21.78c-.34.34-.61.72-.8,1.17-.19.44-.29.92-.29,1.45s.1,1.01.29,1.46.46.83.8,1.17c.34.33.75.59,1.21.77.46.18.96.27,1.5.27Z" fill="#4a17a1"/>
      </g>
      <g>
        <path d="M17.55,158.68C7.87,158.68,0,150.98,0,141.51s7.87-17.17,17.55-17.17,17.55,7.7,17.55,17.17-7.87,17.17-17.55,17.17ZM17.55,124.82c-9.42,0-17.08,7.49-17.08,16.7s7.66,16.7,17.08,16.7,17.08-7.49,17.08-16.7-7.66-16.7-17.08-16.7Z" fill="#4a17a1"/>
        <path d="M14.02,150.22c.35,0,.7-.25.81-.61.13-.4-.03-.71-.32-.98-2.28-2.23-4.56-4.46-6.84-6.69-.35-.34-.35-.52,0-.86,1.62-1.59,3.25-3.17,4.87-4.76.68-.66,1.35-1.32,2.03-1.98.24-.23.36-.5.3-.83-.07-.33-.27-.57-.61-.67-.38-.12-.69,0-.97.28-2.6,2.55-5.21,5.1-7.82,7.65-.53.52-.53.97,0,1.49,1.7,1.66,3.39,3.32,5.09,4.98.9.88,1.81,1.76,2.71,2.65.2.2.42.32.74.33M4.2,141.2c.15-.54.51-.92.9-1.31,2.52-2.45,5.03-4.91,7.54-7.37.61-.6,1.36-.75,2.07-.45,1.02.44,1.38,1.71.72,2.6-.1.13-.21.25-.33.36-2.13,2.08-4.25,4.16-6.38,6.24-.07.07-.17.12-.26.17v.12c.09.06.18.1.26.17,2.15,2.1,4.3,4.2,6.45,6.31.76.75.79,1.82.06,2.53-.64.63-1.67.68-2.37.12-.11-.08-.2-.18-.3-.28-2.48-2.43-4.96-4.86-7.45-7.28-.4-.39-.78-.77-.92-1.32v-.61Z" fill="#4a17a1"/>
        <path d="M21.1,132.8c-.4,0-.74.27-.84.64-.11.38.05.67.32.94,2.27,2.22,4.54,4.43,6.8,6.65.42.41.42.55,0,.96-2.25,2.2-4.5,4.4-6.75,6.6-.08.07-.15.14-.21.22-.4.51-.12,1.24.53,1.38.37.08.65-.08.91-.32,2.6-2.55,5.2-5.09,7.8-7.63.52-.51.51-.97,0-1.48-1.08-1.06-2.16-2.12-3.25-3.17-1.52-1.48-3.04-2.97-4.55-4.45-.2-.2-.43-.34-.73-.34M30.9,141.82c-.15.55-.52.94-.92,1.32-2.51,2.45-5.02,4.9-7.52,7.35-.6.58-1.32.75-2.02.46-1.12-.46-1.46-1.83-.68-2.74.08-.09.17-.17.25-.26,2.12-2.08,4.25-4.16,6.38-6.24.07-.06.13-.13.2-.21-.08-.08-.14-.14-.2-.21-2.16-2.11-4.32-4.22-6.47-6.33-.67-.66-.78-1.55-.28-2.27.63-.91,1.92-1.03,2.74-.24.91.87,1.81,1.76,2.71,2.65,1.63,1.59,3.26,3.19,4.89,4.77.4.38.78.77.92,1.32v.61Z" fill="#4a17a1"/>
      </g>
    </g>
    <g>
      <g>
        <path d="M17.55,96.41C7.87,96.41,0,88.71,0,79.24s7.87-17.17,17.55-17.17,17.55,7.7,17.55,17.17-7.87,17.17-17.55,17.17ZM17.55,62.55c-9.42,0-17.08,7.49-17.08,16.7s7.66,16.7,17.08,16.7,17.08-7.49,17.08-16.7-7.66-16.7-17.08-16.7Z" fill="#4a17a1"/>
        <path d="M13.48,88.55c.12.06.24.12.36.17.94.36,1.92.59,2.93.7,1.82.21,3.62.2,5.42-.16.56-.12,1.12-.26,1.62-.56.18-.11.19-.16,0-.28-.14-.09-.29-.17-.45-.23-.86-.35-1.78-.51-2.7-.57-1.44-.09-2.89-.13-4.33.11-.98.16-1.93.42-2.86.83M13.46,83.89c.05.04.07.06.09.07.08.04.15.07.23.1,1.2.46,2.45.7,3.73.8,1.47.12,2.93.07,4.39-.19.65-.12,1.3-.26,1.87-.6.07-.04.13-.1.21-.16-.2-.24-.46-.34-.72-.42-.99-.34-2.01-.5-3.06-.55-1.6-.09-3.18-.04-4.75.32-.68.16-1.34.34-2,.64M13.46,79.2s0,.05,0,.08c.08.03.15.07.23.1,1.16.43,2.35.7,3.58.81,1.5.14,2.99.1,4.47-.14.65-.1,1.29-.24,1.88-.53.13-.06.25-.16.38-.24-.24-.25-.51-.35-.79-.45-1.15-.4-2.35-.52-3.56-.57-1.53-.07-3.04.05-4.52.43-.57.14-1.12.34-1.68.52M24.02,69.99c-.12-.09-.17-.16-.23-.19-.3-.13-.59-.28-.9-.38-.73-.22-1.48-.33-2.24-.4-1.45-.15-2.89-.1-4.33.12-.91.14-1.8.39-2.66.71-.06.02-.11.07-.19.12.1.05.16.09.23.11,1.27.5,2.59.78,3.95.84.86.04,1.73.03,2.59,0,1.09-.04,2.15-.21,3.16-.61.2-.08.38-.19.61-.32M13.41,74.6c.14.06.23.11.33.15.93.36,1.89.6,2.88.73,1.65.22,3.31.22,4.96-.04.69-.11,1.36-.24,2-.54.14-.07.27-.17.42-.27-.26-.24-.54-.35-.82-.45-.99-.35-2.02-.47-3.06-.54-1.4-.09-2.79-.02-4.17.23-.85.15-1.67.4-2.53.75M11.14,90.83h-1.16c.09-.32.14-.62.25-.9.19-.49.51-.9.92-1.23.13-.11.12-.16,0-.27-.4-.36-.73-.77-.94-1.27-.38-.92-.17-1.76.39-2.54.16-.22.37-.4.56-.59.04-.04.11-.05.17-.08-1.88-1.64-1.56-3.42-.03-4.69-.72-.61-1.26-1.34-1.27-2.31,0-.97.54-1.7,1.27-2.34-.73-.61-1.26-1.34-1.27-2.31,0-.97.52-1.7,1.26-2.34-.71-.59-1.2-1.31-1.28-2.29.3,0,.58.01.85,0,.19-.01.28.02.32.24.12.6.55.99,1,1.36.04.03.14.02.19-.01,1.43-.75,2.98-1.11,4.58-1.29,1.11-.12,2.22-.16,3.34-.06,1.16.1,2.31.22,3.4.66.32.13.65.29.91.51.66.54.71,1.21.04,1.78-.27.23-.6.4-.92.53-.75.31-1.54.44-2.34.55-1.44.2-2.89.23-4.34.07-1.63-.18-3.23-.54-4.69-1.33-.04-.02-.12-.03-.15,0-.46.34-.83.74-1.01,1.29-.12.4-.03.77.19,1.08.22.31.52.57.79.84.04.04.15.04.2.01,1.51-.79,3.14-1.17,4.83-1.31.69-.06,1.38-.13,2.06-.1,1.44.05,2.88.16,4.25.65.37.13.74.32,1.05.55.73.55.71,1.31,0,1.88-.4.32-.88.51-1.38.64-1.77.48-3.58.61-5.41.49-1.15-.08-2.28-.25-3.38-.56-.75-.21-1.47-.49-2.18-.89-.24.25-.5.49-.71.76-.48.61-.49,1.22-.02,1.84.19.26.45.47.68.69.04.04.15.04.2.02,1.59-.82,3.3-1.17,5.07-1.35,1.31-.12,2.62-.07,3.92.09.79.1,1.58.24,2.33.54.39.16.76.34,1.07.64.47.47.5,1.09.02,1.55-.25.23-.55.42-.85.57-.68.33-1.42.5-2.17.58-.99.1-1.99.24-2.98.22-1.93-.03-3.83-.29-5.62-1.05-.26-.11-.5-.24-.76-.36-.05-.02-.14-.04-.17-.02-.45.34-.83.72-1.01,1.27-.13.36-.04.7.13,1.02.2.39.5.69.85.94.04.03.14.03.19,0,1.09-.57,2.26-.92,3.47-1.14,1.59-.29,3.19-.34,4.8-.19,1.02.09,2.03.25,2.99.6.38.14.75.32,1.05.59.58.53.58,1.17.01,1.71-.38.35-.84.54-1.32.69-.92.3-1.87.42-2.83.51-2.15.2-4.26.03-6.32-.6-.62-.19-1.21-.48-1.81-.73-.11-.05-.18-.06-.27.02-.35.31-.69.63-.88,1.07-.18.43-.12.83.1,1.22.2.35.47.63.79.87.05.04.17.06.22.03,1.04-.55,2.16-.89,3.31-1.11,1.52-.29,3.05-.37,4.6-.25.99.08,1.97.19,2.92.49.44.14.87.35,1.28.58.19.1.34.3.47.48.27.38.21.77-.05,1.15-.2.28-.48.47-.79.63-.65.34-1.36.5-2.07.62-1.54.27-3.1.33-4.66.19-1.51-.13-2.98-.43-4.37-1.03-.19-.08-.38-.17-.56-.27-.13-.07-.24-.06-.35.03-.49.39-.86.86-.95,1.5" fill="#4a17a1"/>
      </g>
      <g>
        <path d="M40.45,82.31v-.93l6.56-7.96.15.53h-6.62v-1.19h7.88v.93l-6.54,7.96-.17-.53h6.88v1.19h-8.15Z" fill="#4a17a1"/>
        <path d="M51.87,81.13h5.69v1.19h-7.08v-9.54h6.88v1.19h-5.49v7.17ZM51.74,76.89h5.02v1.16h-5.02v-1.16Z" fill="#4a17a1"/>
        <path d="M59.81,82.31v-9.54h3.8c.85,0,1.58.13,2.19.4.6.26,1.07.65,1.39,1.14.33.5.49,1.1.49,1.79s-.16,1.28-.49,1.78-.79.88-1.39,1.14c-.6.26-1.33.4-2.19.4h-3.04l.63-.63v3.53h-1.39ZM61.2,78.92l-.63-.67h3c.89,0,1.57-.19,2.03-.57s.69-.91.69-1.59-.23-1.21-.69-1.58-1.14-.56-2.03-.56h-3l.63-.68v5.64ZM66.33,82.31l-2.48-3.46h1.49l2.51,3.46h-1.52Z" fill="#4a17a1"/>
        <path d="M74.35,82.42c-.74,0-1.43-.12-2.07-.37s-1.19-.59-1.65-1.03c-.46-.44-.83-.96-1.09-1.55-.26-.59-.39-1.24-.39-1.94s.13-1.34.39-1.94c.26-.59.62-1.11,1.09-1.55.46-.44,1.01-.78,1.64-1.03s1.32-.37,2.08-.37,1.43.12,2.06.36c.63.24,1.18.58,1.64,1.02.46.44.83.96,1.08,1.55.25.59.38,1.24.38,1.94s-.13,1.36-.38,1.95c-.26.59-.62,1.11-1.08,1.55-.46.44-1.01.78-1.64,1.02s-1.32.36-2.06.36ZM74.33,81.21c.55,0,1.05-.09,1.51-.27.46-.18.86-.44,1.2-.77.34-.33.6-.72.79-1.17s.29-.93.29-1.46-.1-1.01-.29-1.45c-.19-.44-.46-.83-.79-1.17-.34-.34-.74-.6-1.2-.78s-.96-.27-1.51-.27-1.04.09-1.5.27-.86.44-1.21.78c-.34.34-.61.72-.8,1.17-.19.44-.29.92-.29,1.45s.1,1.01.29,1.46.46.83.8,1.17c.34.33.75.59,1.21.77.46.18.96.27,1.5.27Z" fill="#4a17a1"/>
        <path d="M88.22,82.31l-4.29-9.54h1.5l3.94,8.81h-.86l3.97-8.81h1.39l-4.28,9.54h-1.38Z" fill="#4a17a1"/>
        <path d="M95.33,82.31v-9.54h1.39v9.54h-1.39Z" fill="#4a17a1"/>
        <path d="M99.65,82.31v-9.54h4.38c1.12,0,1.99.22,2.59.66.6.44.91,1.04.91,1.81,0,.52-.12.95-.36,1.31-.24.35-.56.63-.96.82-.4.19-.83.29-1.3.29l.25-.41c.56,0,1.05.1,1.48.29.43.19.77.47,1.02.84.25.37.38.82.38,1.37,0,.82-.31,1.45-.94,1.9-.63.45-1.56.67-2.79.67h-4.66ZM101.04,81.21h3.21c.77,0,1.36-.13,1.77-.38.41-.25.61-.66.61-1.2s-.2-.96-.61-1.21c-.41-.25-1-.38-1.77-.38h-3.33v-1.1h2.98c.71,0,1.25-.13,1.64-.38s.59-.64.59-1.15-.2-.89-.59-1.14c-.39-.25-.94-.38-1.64-.38h-2.86v7.33Z" fill="#4a17a1"/>
        <path d="M110.2,82.31v-9.54h3.8c.85,0,1.58.13,2.19.4.6.26,1.07.65,1.39,1.14.33.5.49,1.1.49,1.79s-.16,1.28-.49,1.78-.79.88-1.39,1.14c-.6.26-1.33.4-2.19.4h-3.04l.63-.63v3.53h-1.39ZM111.59,78.92l-.63-.67h3c.89,0,1.57-.19,2.03-.57s.69-.91.69-1.59-.23-1.21-.69-1.58-1.14-.56-2.03-.56h-3l.63-.68v5.64ZM116.72,82.31l-2.48-3.46h1.49l2.51,3.46h-1.52Z" fill="#4a17a1"/>
        <path d="M118.85,82.31l4.42-9.54h1.38l4.43,9.54h-1.46l-3.94-8.78h.56l-3.94,8.78h-1.44ZM120.73,79.93l.38-1.09h5.49l.4,1.09h-6.27Z" fill="#4a17a1"/>
        <path d="M134.89,82.42c-.74,0-1.43-.12-2.06-.36s-1.17-.58-1.63-1.02-.82-.96-1.08-1.55c-.26-.59-.39-1.24-.39-1.95s.13-1.36.39-1.95c.26-.59.62-1.11,1.09-1.55.46-.44,1.01-.78,1.64-1.02.63-.24,1.31-.36,2.06-.36s1.45.12,2.08.38,1.18.62,1.62,1.11l-.91.86c-.37-.38-.79-.67-1.25-.85-.46-.19-.96-.28-1.49-.28s-1.06.09-1.53.27c-.47.18-.88.44-1.22.76s-.61.72-.8,1.17c-.19.45-.29.94-.29,1.47s.1,1.02.29,1.47.46.84.8,1.17.75.58,1.22.76c.47.18.98.27,1.53.27s1.03-.09,1.49-.28c.46-.19.88-.47,1.25-.87l.91.86c-.45.49-.99.86-1.62,1.12-.64.25-1.34.38-2.1.38ZM134.32,85.36c-.24,0-.46-.02-.67-.07-.21-.05-.4-.12-.57-.23l.29-.67c.15.08.3.14.45.18.15.04.32.05.5.05.27,0,.47-.05.59-.14.13-.1.19-.23.19-.4,0-.16-.06-.29-.19-.39-.12-.09-.33-.14-.61-.14h-.38l.35-1.34h.77l-.21.78c.4.04.7.16.91.37.2.21.31.46.31.76,0,.38-.16.68-.47.91-.32.22-.73.33-1.25.33Z" fill="#4a17a1"/>
        <path d="M145.01,82.42c-.74,0-1.43-.12-2.07-.37s-1.19-.59-1.65-1.03c-.46-.44-.83-.96-1.09-1.55-.26-.59-.39-1.24-.39-1.94s.13-1.34.39-1.94c.26-.59.62-1.11,1.09-1.55.46-.44,1.01-.78,1.64-1.03s1.32-.37,2.08-.37,1.43.12,2.06.36c.63.24,1.18.58,1.64,1.02.46.44.83.96,1.08,1.55.25.59.38,1.24.38,1.94s-.13,1.36-.38,1.95c-.26.59-.62,1.11-1.08,1.55-.46.44-1.01.78-1.64,1.02s-1.32.36-2.06.36ZM145,81.21c.55,0,1.05-.09,1.51-.27.46-.18.86-.44,1.2-.77.34-.33.6-.72.79-1.17s.29-.93.29-1.46-.1-1.01-.29-1.45c-.19-.44-.46-.83-.79-1.17-.34-.34-.74-.6-1.2-.78s-.96-.27-1.51-.27-1.04.09-1.5.27-.86.44-1.21.78c-.34.34-.61.72-.8,1.17-.19.44-.29.92-.29,1.45s.1,1.01.29,1.46.46.83.8,1.17c.34.33.75.59,1.21.77.46.18.96.27,1.5.27ZM145.99,71.95c-.22,0-.42-.04-.59-.14s-.33-.2-.47-.32c-.14-.12-.27-.23-.4-.32-.13-.09-.26-.14-.39-.14-.21,0-.37.08-.5.22-.12.15-.2.36-.22.62h-.75c.02-.51.15-.91.39-1.21.24-.3.57-.45.98-.45.22,0,.42.05.6.14.18.1.33.2.47.33.14.12.27.23.4.32.12.09.25.14.38.14.2,0,.37-.07.5-.22s.2-.34.21-.6h.75c0,.48-.14.87-.38,1.17-.25.3-.57.45-.98.45Z" fill="#4a17a1"/>
        <path d="M153.71,81.13h5.69v1.19h-7.08v-9.54h6.88v1.19h-5.49v7.17ZM153.59,76.89h5.02v1.16h-5.02v-1.16Z" fill="#4a17a1"/>
        <path d="M164.5,82.42c-.74,0-1.45-.11-2.13-.33-.68-.22-1.21-.51-1.6-.87l.52-1.06c.37.32.85.58,1.42.79s1.18.31,1.8.31c.57,0,1.03-.06,1.38-.19.35-.13.61-.3.78-.53.17-.22.25-.47.25-.76,0-.33-.11-.59-.33-.79s-.5-.36-.85-.48c-.35-.12-.73-.23-1.15-.32s-.84-.2-1.26-.32-.81-.28-1.16-.47c-.35-.19-.63-.45-.84-.77-.21-.32-.32-.74-.32-1.25s.13-.94.4-1.36c.26-.41.67-.75,1.23-1,.55-.25,1.26-.38,2.11-.38.57,0,1.13.07,1.69.22s1.04.35,1.45.63l-.46,1.09c-.42-.27-.86-.47-1.32-.59-.46-.12-.92-.18-1.35-.18-.55,0-1,.07-1.35.2-.35.14-.61.32-.77.55-.16.23-.24.48-.24.76,0,.34.11.61.33.8.22.2.5.36.85.48.35.12.73.22,1.15.32s.84.2,1.26.32.81.27,1.16.46c.35.19.63.45.84.76.21.32.32.73.32,1.23s-.13.93-.4,1.34c-.27.41-.68.75-1.25,1s-1.27.38-2.13.38Z" fill="#4a17a1"/>
      </g>
    </g>
    <g>
      <g>
        <path d="M41.52,21.66v-9.54h4.38c1.12,0,1.99.22,2.59.66.6.44.91,1.04.91,1.81,0,.52-.12.95-.36,1.31-.24.35-.56.63-.96.82s-.83.29-1.3.29l.25-.41c.56,0,1.05.1,1.48.29.43.19.77.47,1.02.84.25.37.38.82.38,1.37,0,.82-.31,1.45-.94,1.9-.63.45-1.56.67-2.79.67h-4.66ZM42.91,20.56h3.21c.77,0,1.36-.13,1.77-.38.41-.25.61-.65.61-1.2s-.2-.96-.61-1.21c-.41-.25-1-.38-1.77-.38h-3.33v-1.1h2.98c.71,0,1.25-.13,1.64-.38.39-.25.59-.64.59-1.15s-.2-.89-.59-1.15-.94-.38-1.64-.38h-2.86v7.33Z" fill="#4a17a1"/>
        <path d="M56.48,21.77c-.74,0-1.43-.12-2.07-.37-.64-.25-1.19-.59-1.65-1.03-.46-.44-.83-.96-1.09-1.55-.26-.59-.39-1.24-.39-1.94s.13-1.35.39-1.94c.26-.59.62-1.11,1.09-1.55s1.01-.78,1.64-1.03c.63-.25,1.32-.37,2.08-.37s1.43.12,2.06.36,1.18.58,1.64,1.02c.46.44.83.96,1.08,1.55.25.6.38,1.24.38,1.94s-.13,1.36-.38,1.95c-.26.59-.62,1.11-1.08,1.55-.46.44-1.01.78-1.64,1.02-.63.24-1.32.36-2.06.36ZM56.46,20.56c.55,0,1.05-.09,1.51-.27.46-.18.86-.44,1.2-.77.34-.33.6-.72.79-1.17s.29-.93.29-1.46-.1-1.01-.29-1.45-.46-.83-.79-1.17c-.34-.34-.74-.6-1.2-.78-.46-.18-.96-.27-1.51-.27s-1.04.09-1.5.27c-.46.18-.86.44-1.21.78s-.61.72-.8,1.17-.29.92-.29,1.45.1,1.01.29,1.46.46.83.8,1.17c.34.33.75.59,1.21.77.46.18.96.27,1.5.27Z" fill="#4a17a1"/>
        <path d="M68.14,21.77c-.74,0-1.43-.12-2.06-.36-.63-.24-1.17-.58-1.63-1.02-.46-.44-.82-.96-1.08-1.55-.26-.59-.39-1.24-.39-1.95s.13-1.36.39-1.95c.26-.59.62-1.11,1.09-1.55s1.01-.78,1.64-1.02,1.31-.36,2.06-.36,1.45.12,2.08.38,1.18.62,1.62,1.11l-.91.86c-.37-.38-.79-.67-1.25-.85-.46-.19-.96-.28-1.49-.28s-1.06.09-1.53.27c-.47.18-.88.44-1.22.76s-.61.72-.8,1.17c-.19.45-.29.94-.29,1.47s.1,1.02.29,1.47c.19.45.46.84.8,1.17s.75.58,1.22.76c.47.18.98.27,1.53.27s1.03-.09,1.49-.28c.46-.19.88-.47,1.25-.87l.91.86c-.45.49-.99.86-1.62,1.12s-1.34.38-2.1.38Z" fill="#4a17a1"/>
        <path d="M72.38,21.66l4.42-9.54h1.38l4.43,9.54h-1.46l-3.94-8.78h.56l-3.94,8.78h-1.44ZM74.26,19.28l.38-1.09h5.49l.4,1.09h-6.27Z" fill="#4a17a1"/>
        <path d="M86.9,21.77c-.74,0-1.45-.11-2.13-.33-.68-.22-1.21-.51-1.6-.87l.52-1.06c.37.32.85.58,1.42.79s1.18.31,1.8.31c.57,0,1.03-.06,1.38-.19.35-.13.61-.3.78-.52.17-.22.25-.47.25-.76,0-.33-.11-.59-.33-.79-.22-.2-.5-.36-.85-.48-.35-.12-.73-.23-1.15-.32s-.84-.2-1.26-.32c-.42-.12-.81-.28-1.16-.47-.35-.19-.63-.45-.84-.77s-.32-.74-.32-1.25.13-.94.4-1.36c.26-.41.67-.75,1.23-1,.55-.25,1.26-.38,2.11-.38.57,0,1.13.07,1.69.22s1.04.35,1.45.63l-.46,1.09c-.42-.27-.86-.47-1.32-.59s-.92-.18-1.35-.18c-.55,0-1,.07-1.35.2-.35.14-.61.32-.77.55-.16.23-.24.48-.24.76,0,.34.11.6.33.8.22.2.5.36.85.48.35.12.73.23,1.15.32.42.1.84.2,1.26.32.42.12.81.27,1.16.46.35.19.63.45.84.76.21.32.32.73.32,1.23s-.13.93-.4,1.34c-.27.41-.68.75-1.25,1s-1.27.37-2.13.37Z" fill="#4a17a1"/>
        <path d="M100.87,21.77c-.74,0-1.43-.12-2.07-.37-.64-.25-1.19-.59-1.65-1.03-.46-.44-.83-.96-1.09-1.55-.26-.59-.39-1.24-.39-1.94s.13-1.35.39-1.94c.26-.59.62-1.11,1.09-1.55s1.01-.78,1.64-1.03c.63-.25,1.32-.37,2.08-.37s1.43.12,2.06.36,1.18.58,1.64,1.02c.46.44.83.96,1.08,1.55.25.6.38,1.24.38,1.94s-.13,1.36-.38,1.95c-.26.59-.62,1.11-1.08,1.55-.46.44-1.01.78-1.64,1.02-.63.24-1.32.36-2.06.36ZM100.86,20.56c.55,0,1.05-.09,1.51-.27.46-.18.86-.44,1.2-.77.34-.33.6-.72.79-1.17s.29-.93.29-1.46-.1-1.01-.29-1.45-.46-.83-.79-1.17c-.34-.34-.74-.6-1.2-.78-.46-.18-.96-.27-1.51-.27s-1.04.09-1.5.27c-.46.18-.86.44-1.21.78s-.61.72-.8,1.17-.29.92-.29,1.45.1,1.01.29,1.46.46.83.8,1.17c.34.33.75.59,1.21.77.46.18.96.27,1.5.27Z" fill="#4a17a1"/>
        <path d="M108.17,21.66v-9.54h3.8c.85,0,1.58.13,2.19.4.6.26,1.07.65,1.39,1.15.33.5.49,1.1.49,1.79s-.16,1.28-.49,1.78c-.33.5-.79.87-1.39,1.14-.6.26-1.33.4-2.19.4h-3.04l.63-.63v3.53h-1.39ZM109.57,18.27l-.63-.67h3c.89,0,1.57-.19,2.03-.57s.69-.91.69-1.59-.23-1.21-.69-1.58c-.46-.37-1.14-.56-2.03-.56h-3l.63-.68v5.64ZM114.7,21.66l-2.48-3.46h1.49l2.51,3.46h-1.52Z" fill="#4a17a1"/>
        <path d="M118.31,21.66v-9.54h1.39v9.54h-1.39Z" fill="#4a17a1"/>
        <path d="M124.02,20.47h5.69v1.19h-7.08v-9.54h6.88v1.19h-5.49v7.17ZM123.89,16.23h5.02v1.16h-5.02v-1.16Z" fill="#4a17a1"/>
        <path d="M131.97,21.66v-9.54h1.14l6.45,7.84h-.6v-7.84h1.39v9.54h-1.14l-6.45-7.84h.6v7.84h-1.39Z" fill="#4a17a1"/>
        <path d="M145.22,21.66v-8.36h-3.35v-1.19h8.07v1.19h-3.34v8.36h-1.38Z" fill="#4a17a1"/>
        <path d="M149.99,21.66l4.42-9.54h1.38l4.43,9.54h-1.46l-3.94-8.78h.56l-3.94,8.78h-1.44ZM151.87,19.28l.38-1.09h5.49l.4,1.09h-6.27ZM154.06,11.34l1.9-1.77h1.7l-2.34,1.77h-1.25Z" fill="#4a17a1"/>
        <path d="M164.48,21.66l-4.29-9.54h1.5l3.94,8.81h-.86l3.97-8.81h1.39l-4.28,9.54h-1.38Z" fill="#4a17a1"/>
        <path d="M172.99,20.47h5.69v1.19h-7.08v-9.54h6.88v1.19h-5.49v7.17ZM172.86,16.23h5.02v1.16h-5.02v-1.16Z" fill="#4a17a1"/>
        <path d="M180.93,21.66v-9.54h1.39v9.54h-1.39Z" fill="#4a17a1"/>
        <path d="M188.09,21.77c-.74,0-1.45-.11-2.13-.33-.68-.22-1.21-.51-1.6-.87l.52-1.06c.37.32.85.58,1.42.79s1.18.31,1.8.31c.57,0,1.03-.06,1.38-.19.35-.13.61-.3.78-.52.17-.22.25-.47.25-.76,0-.33-.11-.59-.33-.79-.22-.2-.5-.36-.85-.48-.35-.12-.73-.23-1.15-.32s-.84-.2-1.26-.32c-.42-.12-.81-.28-1.16-.47-.35-.19-.63-.45-.84-.77s-.32-.74-.32-1.25.13-.94.4-1.36c.26-.41.67-.75,1.23-1,.55-.25,1.26-.38,2.11-.38.57,0,1.13.07,1.69.22s1.04.35,1.45.63l-.46,1.09c-.42-.27-.86-.47-1.32-.59s-.92-.18-1.35-.18c-.55,0-1,.07-1.35.2-.35.14-.61.32-.77.55-.16.23-.24.48-.24.76,0,.34.11.6.33.8.22.2.5.36.85.48.35.12.73.23,1.15.32.42.1.84.2,1.26.32.42.12.81.27,1.16.46.35.19.63.45.84.76.21.32.32.73.32,1.23s-.13.93-.4,1.34c-.27.41-.68.75-1.25,1s-1.27.37-2.13.37Z" fill="#4a17a1"/>
      </g>
      <g>
        <path d="M17.55,34.33C7.87,34.33,0,26.63,0,17.17S7.87,0,17.55,0s17.55,7.7,17.55,17.17-7.87,17.17-17.55,17.17ZM17.55.47C8.13.47.47,7.96.47,17.17s7.66,16.7,17.08,16.7,17.08-7.49,17.08-16.7S26.96.47,17.55.47Z" fill="#4a17a1"/>
        <path d="M17.48,5.61c3.12,0,6.06,1.18,8.28,3.32,1.81,1.74,2.97,3.95,3.38,6.35l-.98-.96-1.04,1.02,2.92,2.85,2.92-2.85-1.04-1.02-1.24,1.22c-.37-2.89-1.71-5.56-3.86-7.63-2.5-2.41-5.81-3.73-9.32-3.73-5.67,0-10.72,3.52-12.57,8.77l1.39.47c1.64-4.66,6.13-7.79,11.17-7.79" fill="#4a17a1"/>
        <path d="M4.3,18.8c.37,2.89,1.71,5.56,3.87,7.63,2.5,2.4,5.81,3.73,9.31,3.73,5.67,0,10.72-3.52,12.57-8.77l-1.39-.47c-1.64,4.66-6.13,7.79-11.18,7.79-3.12,0-6.06-1.18-8.28-3.32-1.8-1.74-2.97-3.95-3.37-6.35l.86.84,1.04-1.02-2.79-2.73-2.79,2.73,1.04,1.02,1.12-1.09Z" fill="#4a17a1"/>
      </g>
    </g>
    <g>
      <g>
        <path d="M523.48,145.77v-9.54h4.38c1.12,0,1.99.22,2.59.66.6.44.91,1.04.91,1.81,0,.52-.12.96-.36,1.31-.24.36-.56.63-.96.82-.4.19-.83.29-1.3.29l.25-.41c.56,0,1.05.1,1.48.29.43.19.77.47,1.02.84.25.37.38.83.38,1.37,0,.82-.31,1.45-.94,1.9-.63.45-1.56.67-2.79.67h-4.66ZM524.88,144.67h3.21c.77,0,1.36-.13,1.77-.38.41-.25.61-.65.61-1.2s-.2-.96-.61-1.21c-.41-.25-1-.38-1.77-.38h-3.33v-1.1h2.98c.71,0,1.25-.13,1.64-.38.39-.25.59-.63.59-1.14s-.2-.89-.59-1.14c-.39-.25-.94-.38-1.64-.38h-2.86v7.33Z" fill="#4a17a1"/>
        <path d="M536.39,145.77v-3.65l.32.85-4.2-6.73h1.49l3.53,5.68h-.81l3.54-5.68h1.38l-4.18,6.73.31-.85v3.65h-1.38Z" fill="#4a17a1"/>
        <path d="M543.05,145.77v-9.54h3.8c.85,0,1.58.13,2.19.39.6.26,1.07.65,1.39,1.15.33.5.49,1.1.49,1.79s-.16,1.28-.49,1.78c-.33.5-.79.88-1.39,1.14-.6.27-1.33.4-2.19.4h-3.04l.63-.64v3.53h-1.39ZM544.45,142.38l-.63-.68h3c.89,0,1.57-.19,2.03-.56.46-.37.69-.9.69-1.58s-.23-1.21-.69-1.58c-.46-.37-1.14-.56-2.03-.56h-3l.63-.68v5.64Z" fill="#4a17a1"/>
        <path d="M551.64,145.77l4.42-9.54h1.38l4.43,9.54h-1.46l-3.94-8.78h.56l-3.94,8.78h-1.44ZM553.52,143.39l.38-1.09h5.49l.4,1.09h-6.27Z" fill="#4a17a1"/>
        <path d="M566.16,145.88c-.74,0-1.45-.11-2.13-.33-.68-.22-1.21-.51-1.6-.87l.52-1.06c.37.32.85.58,1.42.79s1.18.31,1.8.31c.57,0,1.03-.06,1.38-.19.35-.13.61-.3.78-.53.17-.22.25-.47.25-.76,0-.33-.11-.59-.33-.79-.22-.2-.5-.36-.85-.48-.35-.12-.73-.23-1.15-.32s-.84-.2-1.26-.32-.81-.28-1.16-.47c-.35-.19-.63-.45-.84-.77-.21-.32-.32-.74-.32-1.25s.13-.94.4-1.36c.26-.41.67-.75,1.23-1,.55-.25,1.26-.38,2.11-.38.57,0,1.13.07,1.69.22.56.14,1.04.35,1.45.63l-.46,1.09c-.42-.27-.86-.47-1.32-.59s-.92-.18-1.35-.18c-.55,0-1,.07-1.35.21-.35.14-.61.32-.77.54-.16.23-.24.48-.24.76,0,.34.11.61.33.8.22.2.5.36.85.48.35.12.73.23,1.15.32.42.1.84.2,1.26.32.42.12.81.27,1.16.46.35.19.63.45.84.76.21.32.32.73.32,1.23s-.13.93-.4,1.34c-.27.41-.68.75-1.25,1s-1.27.38-2.13.38Z" fill="#4a17a1"/>
        <path d="M574.82,145.88c-.74,0-1.45-.11-2.13-.33-.68-.22-1.21-.51-1.6-.87l.52-1.06c.37.32.85.58,1.42.79s1.18.31,1.8.31c.57,0,1.03-.06,1.38-.19.35-.13.61-.3.78-.53.17-.22.25-.47.25-.76,0-.33-.11-.59-.33-.79-.22-.2-.5-.36-.85-.48-.35-.12-.73-.23-1.15-.32s-.84-.2-1.26-.32-.81-.28-1.16-.47c-.35-.19-.63-.45-.84-.77-.21-.32-.32-.74-.32-1.25s.13-.94.4-1.36c.26-.41.67-.75,1.23-1,.55-.25,1.26-.38,2.11-.38.57,0,1.13.07,1.69.22.56.14,1.04.35,1.45.63l-.46,1.09c-.42-.27-.86-.47-1.32-.59s-.92-.18-1.35-.18c-.55,0-1,.07-1.35.21-.35.14-.61.32-.77.54-.16.23-.24.48-.24.76,0,.34.11.61.33.8.22.2.5.36.85.48.35.12.73.23,1.15.32.42.1.84.2,1.26.32.42.12.81.27,1.16.46.35.19.63.45.84.76.21.32.32.73.32,1.23s-.13.93-.4,1.34c-.27.41-.68.75-1.25,1s-1.27.38-2.13.38Z" fill="#4a17a1"/>
        <path d="M584.38,145.77v-9.54h1.14l4.38,7.21h-.61l4.32-7.21h1.14v9.54s-1.32,0-1.32,0v-7.48s.31,0,.31,0l-3.85,6.33h-.64l-3.88-6.33h.35v7.48h-1.34Z" fill="#4a17a1"/>
        <path d="M599.08,144.59h5.69v1.19h-7.08v-9.54h6.88v1.19h-5.49v7.17ZM598.96,140.35h5.02v1.16h-5.02v-1.16Z" fill="#4a17a1"/>
        <path d="M611.39,145.88c-.74,0-1.43-.12-2.06-.36-.63-.24-1.17-.58-1.63-1.02-.46-.44-.82-.96-1.08-1.55-.26-.59-.39-1.24-.39-1.95s.13-1.36.39-1.95c.26-.59.62-1.11,1.09-1.55s1.01-.78,1.64-1.02,1.31-.36,2.06-.36,1.45.12,2.08.38,1.18.62,1.62,1.11l-.91.86c-.37-.38-.79-.67-1.25-.85-.46-.19-.96-.28-1.49-.28s-1.06.09-1.53.27c-.47.18-.88.44-1.22.76-.34.33-.61.71-.8,1.17s-.29.94-.29,1.47.1,1.02.29,1.46c.19.45.46.84.8,1.17s.75.58,1.22.76c.47.18.98.27,1.53.27s1.03-.09,1.49-.28c.46-.19.88-.47,1.25-.87l.91.86c-.45.49-.99.86-1.62,1.12s-1.34.38-2.1.38Z" fill="#4a17a1"/>
        <path d="M615.63,145.77l4.42-9.54h1.38l4.43,9.54h-1.46l-3.94-8.78h.56l-3.94,8.78h-1.44ZM617.51,143.39l.38-1.09h5.49l.4,1.09h-6.27ZM618.25,135.45l1.85-1.77h1.28l1.85,1.77h-1.21l-1.84-1.5h1.12l-1.84,1.5h-1.21Z" fill="#4a17a1"/>
        <path d="M627.31,145.77v-9.54h1.14l6.45,7.84h-.6v-7.84h1.39v9.54h-1.14l-6.45-7.84h.6v7.84h-1.39Z" fill="#4a17a1"/>
        <path d="M638.63,145.77v-9.54h1.39v9.54h-1.39Z" fill="#4a17a1"/>
        <path d="M647.31,145.88c-.74,0-1.43-.12-2.06-.36-.63-.24-1.17-.58-1.63-1.02-.46-.44-.82-.96-1.08-1.55-.26-.59-.39-1.24-.39-1.95s.13-1.36.39-1.95c.26-.59.62-1.11,1.09-1.55s1.01-.78,1.64-1.02,1.31-.36,2.06-.36,1.45.12,2.08.38,1.18.62,1.62,1.11l-.91.86c-.37-.38-.79-.67-1.25-.85-.46-.19-.96-.28-1.49-.28s-1.06.09-1.53.27c-.47.18-.88.44-1.22.76-.34.33-.61.71-.8,1.17s-.29.94-.29,1.47.1,1.02.29,1.46c.19.45.46.84.8,1.17s.75.58,1.22.76c.47.18.98.27,1.53.27s1.03-.09,1.49-.28c.46-.19.88-.47,1.25-.87l.91.86c-.45.49-.99.86-1.62,1.12s-1.34.38-2.1.38Z" fill="#4a17a1"/>
        <path d="M657.43,145.88c-.74,0-1.43-.12-2.07-.37-.64-.24-1.19-.59-1.65-1.03-.46-.44-.83-.96-1.09-1.55-.26-.59-.39-1.24-.39-1.94s.13-1.35.39-1.94c.26-.59.62-1.11,1.09-1.55s1.01-.78,1.64-1.03,1.32-.37,2.08-.37,1.43.12,2.06.36,1.18.58,1.64,1.02c.46.44.83.96,1.08,1.55.25.6.38,1.24.38,1.94s-.13,1.36-.38,1.95c-.26.59-.62,1.11-1.08,1.55-.46.44-1.01.78-1.64,1.02-.63.24-1.32.36-2.06.36ZM657.41,144.67c.55,0,1.05-.09,1.51-.27s.86-.44,1.2-.77c.34-.33.6-.72.79-1.17s.29-.93.29-1.46-.1-1.01-.29-1.45-.46-.83-.79-1.17c-.34-.34-.74-.6-1.2-.78s-.96-.27-1.51-.27-1.04.09-1.5.27-.86.44-1.21.78c-.34.34-.61.72-.8,1.17s-.29.92-.29,1.45.1,1.01.29,1.46.46.83.8,1.17c.34.33.75.59,1.21.77s.96.27,1.5.27Z" fill="#4a17a1"/>
      </g>
      <path d="M497.44,159.19c-9.96,0-18.07-7.93-18.07-17.68s8.1-17.68,18.07-17.68,18.07,7.93,18.07,17.68-8.1,17.68-18.07,17.68ZM497.44,124.32c-9.7,0-17.58,7.71-17.58,17.19s7.89,17.19,17.58,17.19,17.58-7.71,17.58-17.19-7.89-17.19-17.58-17.19Z" fill="#4a17a1"/>
    </g>
  </g>
  <g>
    <path d="M496.76,136.36l4.53-6.32,4.45,6.32h-2.33v2.45c0,1.87-1.86,4.23-3.44,5.13s-2.48.75-4.15,1c-.95.14-2.22,1.27-2.22,2.26v5.11h-4.32v-5.36c0-2.06,1.85-4.43,3.6-5.38,1.52-.83,2.38-.69,3.98-.92.91-.13,2.22-1.21,2.22-2.18v-2.12h-2.33Z" fill="none" stroke="#4b18a1" stroke-miterlimit="10"/>
    <path d="M490,131.56c4.13-.5,5.96,4.76,2.54,6.86-2.62,1.61-5.93-.47-5.68-3.51.14-1.61,1.52-3.15,3.14-3.34ZM490.34,132.98c-3,.32-2.49,4.98.63,4.54,2.79-.39,2.36-4.86-.63-4.54Z" fill="#4b18a1"/>
    <polygon points="502.03 145.92 504.12 147.99 506.27 145.92 507.31 146.96 505.24 149.05 507.31 151.2 506.27 152.24 504.18 150.17 502.03 152.24 501 151.2 503.07 149.11 501 146.96 502.03 145.92" fill="#4b18a1"/>
  </g>
</svg>