<?xml version="1.0" encoding="UTF-8"?>
<svg id="uuid-9d555908-0a74-42e9-86f9-2c2e15b4ce0d" data-name="Layer 1" xmlns="http://www.w3.org/2000/svg" viewBox="0 0 255.15 101.19">
  <g opacity=".9">
    <path d="M223.82,62.83h0s0,0,0,0h-.29s-.29-.04-.29-.04l-.29-.04-.28-.06-.27-.08-.26-.1-.25-.11-.23-.13-.22-.14s0,0,0,0l-8.38-5.92h0s-.02-.03-.03-.04c0-.01,0-.02-.01-.04h0s0,0,0,0c0,0,0,0,0,0v-2.4l-.76-.54-1.03.73s0,0-.01,0l-.05.03s-.01,0-.02,0l-.06.02s-.01,0-.02,0h-.06s0,.01-.01.02h-.06s0,0-.01,0h-.06s0,0-.01,0h-.06s-.01-.02-.02-.02l-.06-.02s0,0-.01,0l-.05-.03s0,0-.01,0l-1.39-.99s0,0,0,0h0s0,0,0,0l-.04-.04s-.01-.01-.01-.02l-.03-.04s0-.01-.01-.02l-.02-.04s0-.02,0-.03v-.04s0,0,0-.01h0s0,0,0,0v-1.4s0-.01,0-.02v-.04s.01-.02.01-.03l.02-.04s0-.02.01-.02l.03-.04s0-.01.01-.02l.03-.03-16.99-12.01-1.03.73s0,0-.01,0l-.05.03s-.01,0-.02,0l-.06.02s0,0-.01,0h-.06s0,.02-.01.02h-.06s0,0-.01,0h-.06s-.01,0-.01,0h-.06s0-.02-.01-.02l-.06-.02s-.01,0-.02,0l-.05-.03s0,0-.01,0l-1.39-.99s0,0,0,0c0,0,0,0,0,0l-.04-.03s-.01-.01-.02-.02l-.03-.04s0-.01-.01-.02l-.02-.04s0-.02,0-.03v-.04s0,0,0-.01c0,0,0,0,0,0v-1.4s0-.01,0-.02v-.04s0-.02.01-.03l.02-.04s0-.02.01-.02l.03-.04s0-.01.02-.02l.03-.03-9.64-6.82s0,0,0,0c0,0,0,0,0,0,0,0,0,0,0,0l-.03-.02-.12-.1s0,0,0,0l-.09-.1s0,0,0-.01l-.07-.11s0,0,0-.01l-.06-.12s0-.01,0-.02l-.04-.12s0-.01,0-.02v-.08s-.01-.01-.01-.02v-.03s0-.01,0-.02h0s0-.02,0-.02c0,0,0,0,0,0h0v-.79h0s0-3.52,0-3.52l-.04-.02-.16-.09s0,0-.01,0l-.02-.02s-.01,0-.02,0l-.33-.23s0,0,0,0c0,0,0,0,0,0,0,0,0,0,0,0l-.1-.07s0,0,0,0l-.13-.12s0,0,0,0l-.11-.14s0,0,0,0l-.1-.16s0,0,0-.01l-.09-.17-.08-.2-.06-.21-.04-.22-.03-.23v-.24s0-.25,0-.25l.02-.26.04-.27.05-.27.07-.28.08-.28.1-.29.11-.29.12-.29.13-.29.15-.29.16-.29.17-.28.18-.28.19-.27.2-.27.2-.26.21-.25.22-.24.22-.23.23-.22.23-.21.23-.2.36-.27s0,0,0,0l.22-.15.24-.15.24-.13.24-.11.24-.1.23-.08.23-.06.22-.04.22-.02h.21s.25.02.25.02l7.51-5.31-.13-.14s0,0,0,0h0s-.01-.02-.02-.03h0s-.16-.12-.16-.12h0s0,0,0,0h-.01s-.02-.03-.02-.04l-.03-.05s-.01-.02-.01-.04v-.06s-.01,0-.01-.01c0,0,0-.01,0-.02v-.08s.01-.01.01-.02l.03-.09s0-.01,0-.01l.04-.09s0,0,0-.01l.06-.09s0,0,0-.01l.07-.08s0,0,.01-.01l.07-.06s0,0,.02-.01l.07-.04s.01,0,.02,0l.07-.02s.02,0,.04,0h.06s.03,0,.04.01h.03s0,.02,0,.02c0,0,0,0,.01,0l.16.12h.02s.02,0,.03.01l.2.09s0,0,0,0c0,0,.01,0,.02,0h.01s0,0,0,0c0,0,0,0,0,0,0,0,0,0,0,0l.26.18,5.12-3.62h0s.18-.29.18-.29l.19-.27.2-.27.2-.26.21-.25.22-.24.22-.23.23-.22.23-.21.23-.2.36-.27s0,0,0,0l.22-.15.24-.15.24-.13.24-.11.24-.1.23-.08.23-.06.22-.04.22-.02h.21s.2.01.2.01c0,0,0,0,.01,0h.04s3.05-2.15,3.05-2.15c0,0,0,0,0,0l.05-.03.14-.08s0,0,.01,0l.15-.06s0,0,.01,0l.15-.05.17-.03.18-.02h.18s.17.01.17.01l.17.03.16.05s0,0,.01,0l.15.06s0,0,.01,0l.14.07.08.05s0,0,0,0l36.9,26.09,1.18-.83s.01,0,.02-.01c.01,0,.03,0,.04,0h0s.03,0,.04.01c0,0,.01,0,.02.01l8.38,5.92h0s0,0,0,0c0,0,0,0,0,0l.19.15.18.17.16.18.14.19s0,0,0,0l.11.19s0,0,0,.01l.09.19s0,0,0,.01l.06.2s0,0,0,.01l.04.2s0,0,0,.01v.2s.01,0,.01,0h0v7.45h0s0,0,0,0v.2s-.01,0-.01.01l-.04.2s0,0,0,.01l-.06.2s0,0,0,.01l-.09.19s0,0,0,.01l-.11.19s0,0,0,0l-.13.18s0,0,0,0l-.15.17-.18.17-.2.15s0,0,0,0l-8.38,5.92s0,0-.01,0c0,0,0,0-.01,0,0,0,0,0,0,0h0s-.02,0-.04,0h0s-.03,0-.04,0h0s0,0,0,0h0s0,0,0,0c0,0-.01,0-.02,0l-1.67-1.18-.42.3.03.03s.01,0,.01.02l.03.04s0,.01.01.02l.02.04s0,.02,0,.03v.04s0,.01,0,.02v1.4s0,0,0,0c0,0,0,0,0,0v.04s-.01.02-.01.03l-.02.04s0,.02-.01.02l-.03.04s0,.01-.01.02l-.04.03s0,0,0,0h0s0,0,0,0c0,0,0,0,0,0l-1.39.99s0,0-.01,0l-.05.03s0,0-.02,0l-.06.02s-.01,0-.02,0h-.06s0,.01-.01.02h-.06s0,0-.01,0h-.06s0,0-.01,0h-.06s-.01-.02-.02-.02l-.06-.02s0,0-.01,0l-.05-.03s0,0,0,0c0,0,0,0,0,0l-.38-.27-.03.08s0,0,0,.01l-.05.09s0,0,0,.01l-.06.08s0,0,0,.01l-.07.07s0,0-.01.01l-.07.05s-.01,0-.02.01l-.07.03s-.02,0-.03,0h-.06s-.01.01-.02.01c0,0,0,0,0,0,0,0,0,0,0,0h-.12s0,0,0,0c0,0,0,0-.01,0h-.04s0,0,0-.01c0,.01-.02.02-.04.03h-.02s-.09.04-.09.04c0,0-.01,0-.02,0h-.08s-.02.02-.02.02h-.07s-.02,0-.03,0l-.06-.02s-.02,0-.03-.02h0s-.01,0-.02-.01c0,0,0,0,0,0l-.14-.1s0,0,0,0c0,0,0,0,0,0l-.03-.03h-.03s-.01-.02-.02-.02c0,0,0,0,0,0l-.17-.12-3.47,2.45.03.03s.01.01.02.02l.03.04s0,.01.01.02l.02.04s0,.02,0,.03v.04s0,0,0,0h0s0,0,0,0v1.39s0,0,0,.01c0,0,0,0,0,0,0,0,0,0,0,0v.04s-.01.02-.01.03l-.02.04s0,.02-.01.02l-.03.04s0,.01-.01.02l-.04.03s0,0,0,0h0s0,0,0,0c0,0,0,0,0,0l-1.39.99s0,0-.01,0l-.04.02v.53s0,0,0,0c0,0,0,0,0,0,0,.01,0,.03-.01.04,0,.01-.02.03-.03.04h0s-8.38,5.93-8.38,5.93c0,0,0,0,0,0l-.21.14-.23.13-.25.11-.26.1-.27.08-.28.06-.29.04-.29.03h-.29s0,0,0,0ZM221.59,61.99l.16.11.22.12.24.11.25.09.26.08.27.06.27.04.28.03h.17s0-7.23,0-7.23h-.19s-.29-.03-.29-.03l-.29-.04-.28-.06-.27-.08-.26-.1-.25-.11-.29-.16v7.2ZM223.92,55.38v7.24h.18s.28-.03.28-.03l.27-.04.27-.06.26-.08.25-.09.24-.11.22-.12.16-.1v-7.2l-.05.03-.23.13-.25.11-.26.1-.27.08-.28.06-.29.05-.29.03h-.19ZM226.25,54.65v7.19l2.13-1.51-.04.02-.17.06s0,0-.01,0l-.16.04s0,0-.01,0l-.15.02s-.01,0-.01,0h-.14s-.01,0-.02,0l-.13-.03s-.01,0-.02,0l-.12-.05s-.01,0-.02,0l-.1-.07s-.01,0-.02-.01l-.09-.09s0,0-.01-.01l-.08-.11s0-.01,0-.02l-.06-.12s0,0,0-.01l-.04-.14s0,0,0-.01l-.03-.16s0,0,0-.01v-.17s0,0,0,0,0,0,0,0v-.18s.04-.2.04-.2l.04-.21.06-.21.08-.22.09-.22.11-.22.12-.22.13-.21.14-.21.15-.2.16-.19.17-.18.17-.17.18-.15.18-.14.18-.12.18-.1.18-.08.18-.06s0,0,.01,0l.16-.04s0,0,.01,0l.15-.02s0,0,.01,0h.14s.01,0,.02,0l.13.03s.01,0,.02,0l.12.05s.01,0,.02,0l.1.07s.01,0,.02.01l.09.09s0,0,.01.01l.08.11s0,0,0,.02l.06.12s0,0,0,.02l.03.11v-.1s.06-.21.06-.21l.06-.21.08-.22.09-.22.11-.22.12-.22.13-.21.14-.21.09-.12-.04.05-.17.17-.18.15-.18.14-.18.12-.18.1-.18.08-.17.06s0,0-.01,0l-.16.04s0,0-.01,0l-.15.02s-.01,0-.01,0h-.14s-.01,0-.02,0l-.13-.03s-.01,0-.02,0l-.12-.05s-.01,0-.02,0l-.1-.07s-.01,0-.02-.01l-.09-.09s0,0-.01-.02l-.08-.11s0-.01,0-.02l-.06-.12s0,0,0-.01l-.04-.14s0,0,0-.01l-.03-.16s0,0,0-.01v-.17s0,0,0,0,0,0,0,0v-.18s.04-.2.04-.2l.04-.21.06-.21.08-.22.09-.22.11-.22.12-.22.13-.21.14-.21.15-.2.16-.19.21-.22-4.11,2.91ZM217.15,58.85l4.23,2.99v-7.19l-2.01-1.42.03.03.17.18.16.19.15.2.14.21.13.21.12.22.11.22.09.22.08.22.06.21.04.21.03.2v.19s0,0,0,0h0s0,0,0,0v.17s0,0-.01.01l-.03.16s0,0,0,.01l-.04.14s0,0,0,.01l-.06.12s0,.01,0,.02l-.08.11s0,.01-.01.01l-.09.09s-.01,0-.02.01l-.1.07s-.01,0-.02,0l-.12.05s-.01,0-.02,0l-.13.03s-.01,0-.02,0h-.14s0,0-.01,0l-.15-.02s0,0-.01,0l-.16-.04s0,0-.01,0l-.17-.06-.18-.08-.18-.1-.18-.12-.18-.14-.18-.15-.17-.17-.17-.18-.16-.19-.15-.2-.14-.21-.13-.21-.12-.22-.11-.22-.09-.22-.08-.22-.06-.21-.04-.21v-.11s-.05.11-.05.11c0,0,0,0,0,.01l-.06.12s0,.01,0,.02l-.08.11s0,.01-.01.02l-.09.09s-.01,0-.02.01l-.1.07s-.01,0-.02,0l-.12.05s-.01,0-.02,0l-.13.03s-.01,0-.02,0h-.14s0,0-.01,0l-.15-.02s0,0-.01,0l-.16-.04s0,0-.01,0l-.17-.06-.18-.08-.18-.1-.18-.12-.18-.14-.18-.15-.17-.17-.17-.18-.16-.19-.15-.2-.14-.21-.13-.21-.12-.22-.11-.22-.09-.22-.08-.22-.06-.21-.04-.21v-.1s-.01,2.54-.01,2.54h0v.04h0v2.4l2.95,2.08-.03-.03-.17-.18-.16-.19-.15-.2-.14-.21-.13-.21-.12-.22-.11-.22-.09-.22-.08-.22-.06-.21-.04-.21-.03-.2v-.19s0,0,0-.01v-.17s0,0,.01-.01l.03-.16s0,0,0-.01l.04-.14s0-.01,0-.02l.06-.12s0-.01,0-.02l.08-.11s0-.01.01-.01l.09-.09s.01,0,.02-.01l.1-.07s.01,0,.02,0l.12-.05s.01,0,.02,0l.13-.03s.01,0,.02,0h.14s0,0,.01,0l.15.02s0,0,.01,0l.16.04s0,0,.01,0l.17.06.18.08.18.1.18.12.18.14.18.15.18.17.17.18.16.19.15.2.14.21.13.21.12.22.11.22.09.22.08.22.06.21.04.21.03.2v.19s0,0,0,0c0,0,0,0,0,0,0,0,0,0,0,0h0s0,.17,0,.17c0,0,0,0,0,.01l-.03.16s0,0,0,.01l-.04.14s0,0,0,.01l-.06.12s0,.01,0,.02l-.08.11s0,0-.01.01l-.09.09s-.01,0-.02.01l-.1.07s-.01,0-.02,0l-.12.05s-.01,0-.02,0l-.13.03s-.01,0-.02,0h-.14s-.01,0-.01,0l-.15-.02s0,0-.01,0l-.16-.04s0,0-.01,0l-.21-.08ZM227.68,60.17h.12s.13-.01.13-.01l.14-.03.16-.05.16-.07.16-.09.16-.11.17-.13.16-.14.16-.16.16-.17.15-.18.14-.19.13-.2.12-.2.11-.2.1-.21.09-.2.07-.2.06-.2.04-.19.02-.18v-.11s-1.05-.74-1.05-.74h-.01s-.14.07-.14.07l-.15.08-.15.1-.15.11-.15.13-.15.14-.15.15-.15.16-.14.17-.13.18-.12.18-.11.19-.1.19-.09.19-.08.19-.07.19-.05.18-.04.18-.03.17-.02.23v.13s.02.12.02.12l.03.12.04.1.03.04s0,.01.01.02l.03.04.07.07.08.05.12.05h.08ZM230.7,57.19v.1s-.06.21-.06.21l-.06.21-.08.22-.09.22-.11.22-.12.22-.13.22-.14.21-.15.2-.16.19-.21.22,2.73-1.93-.04.02-.17.06s0,0-.01,0l-.16.04s0,0-.01,0l-.15.02s0,0-.01,0h-.14s-.01,0-.02,0l-.13-.03s-.01,0-.02,0l-.12-.05s-.01,0-.02,0l-.1-.07s-.01,0-.02-.01l-.09-.09s0,0-.01-.01l-.08-.11s0-.01,0-.02l-.06-.12s0,0,0-.01l-.03-.11ZM217.6,58.68h.13s.12.01.12.01l.1-.02.1-.04.09-.05.07-.07.03-.04s0,0,0-.01l.05-.09.04-.1.03-.12v-.14s.01-.07.01-.07v-.14s-.02-.16-.02-.16l-.03-.17-.05-.18-.06-.18-.07-.19-.09-.19-.1-.19-.11-.19-.12-.19-.13-.18-.13-.18-.14-.17-.15-.16-.15-.15-.15-.14-.15-.12-.15-.11-.15-.09-.15-.08-.1-.04-1.05.74v.12s.03.18.03.18l.04.19.06.2.07.2.09.2.1.2.11.2.12.2.13.2.14.19.15.18.16.17.16.15.17.14.17.13.17.11.16.09.16.07.15.05.14.03ZM231.4,57.54h.12s.13-.01.13-.01l.14-.03.16-.05.16-.07.16-.09.16-.11.16-.13.16-.14.16-.16.16-.17.15-.18.14-.19.13-.2.12-.2.11-.2.1-.2.09-.2.07-.2.06-.2.04-.19.02-.18v-.11s-1.05-.74-1.05-.74h-.01s-.14.07-.14.07l-.15.08-.15.1-.15.11-.15.13-.15.14-.15.15-.14.16-.14.17-.13.18-.12.18-.11.19-.1.19-.09.19-.08.19-.07.19-.05.18-.04.18-.03.17-.02.23v.13s.02.12.02.12l.03.12.04.1.03.04s0,.01.01.02l.03.05.07.07.08.05.12.05h.08ZM234.42,54.57v.09s-.06.21-.06.21l-.06.21-.08.22-.09.22-.11.22-.12.22-.13.21-.14.21-.15.2-.16.19-.21.22,1.32-.93v-.55h0v-.95ZM229.61,56.14l.78.55v-.08s-.05-.12-.05-.12l-.05-.11-.06-.08-.07-.07-.09-.05-.09-.03s-.02,0-.03,0h0s-.1-.02-.1-.02h-.11s-.13.02-.13.02ZM219.7,56.67h.13s.12.01.12.01l.11-.02.1-.04.09-.05.07-.07.03-.04s0,0,0-.01l.05-.09.04-.1.03-.12v-.14s.02-.07.02-.07v-.14s-.02-.16-.02-.16l-.03-.17-.05-.18-.06-.18-.07-.19-.09-.19-.1-.19-.11-.19-.12-.19-.13-.18-.13-.18-.14-.17-.15-.16-.15-.15-.15-.14-.15-.12-.15-.11-.15-.09-.15-.08-.1-.04-1.05.74v.12s.03.18.03.18l.04.19.06.2.07.2.09.2.1.2.11.2.12.2.13.19.14.19.15.18.16.17.16.16.17.14.17.13.17.11.16.09.16.07.15.05.14.03ZM234.72,54.13v1.14l1.19-.84v-1.14l-1.19.84ZM215.15,55.13v.08s.77-.55.77-.55h-.05s-.12-.02-.12-.02h-.11s-.05.02-.05.02c-.01,0-.02,0-.03,0h0s-.1.04-.1.04l-.09.05-.07.07-.06.09-.05.1-.04.12ZM229.77,55.2h.12s.13,0,.13,0l.14-.03.16-.05.16-.07.16-.09.16-.11.17-.13.16-.14.16-.16.16-.17.15-.18.14-.19.13-.19.12-.2.11-.2.1-.2.09-.2.07-.2.06-.2.04-.19.02-.18v-.11s-1.05-.74-1.05-.74h-.01s-.14.07-.14.07l-.15.08-.15.1-.15.11-.15.13-.15.14-.15.15-.14.16-.14.17-.13.18-.12.18-.11.19-.1.19-.09.19-.08.19-.07.19-.05.18-.04.18-.03.17v.23s0,.13,0,.13l.02.12.03.11.04.1.03.04s0,.01.01.02l.03.04.07.07.09.05.12.05h.08ZM221.55,54.51l.21.14.22.12.24.11.25.09.26.08.27.06.27.04.28.03h.17s0-2.02,0-2.02l-.39.28s-.01,0-.02.01c-.01,0-.03,0-.04,0h0s-.03,0-.04,0c0,0-.01,0-.02-.01l-.14-.1s-.01,0-.02-.01c0,0-.02-.02-.02-.03,0-.01,0-.02,0-.04,0-.02,0-.03.01-.05,0-.01.01-.02.02-.03,0,0,.01,0,.02-.01l.65-.46v-.03l-.19-.02s0,0-.01,0l-.18-.04s0,0-.01,0l-.17-.06s0,0-.01,0l-.16-.07s0,0-.01,0l-.14-.09s0,0,0,0l-7.39-5.22-2.15,1.52,8.26,5.84ZM223.92,53.15v2.02h.18s.28-.03.28-.03l.27-.04.27-.06.26-.08.25-.09.24-.11.22-.12.2-.13,8.26-5.84-2.15-1.52-7.39,5.22s0,0,0,0l-.14.09s0,0-.01,0l-.16.07s0,0-.01,0l-.17.06s0,0-.01,0l-.18.04s0,0-.01,0l-.19.02v.03l.65.46s.01,0,.02.01c0,0,.01.02.02.03,0,.02.01.03.01.05,0,.01,0,.03,0,.04,0,.01-.01.02-.02.03,0,0,0,0-.01.01l-.14.1s-.01,0-.02.01c-.01,0-.03,0-.04,0h0s-.03,0-.04,0c0,0-.01,0-.02-.01l-.39-.28ZM232.81,51.94v.18s-.04.2-.04.2l-.04.21-.06.21-.08.22-.09.22-.11.22-.12.22-.13.21-.14.21-.09.12.04-.05.17-.17.18-.15.18-.14.18-.12.18-.1.18-.08.17-.06s0,0,.01,0l.16-.04s0,0,.01,0l.15-.02s0,0,.01,0h.14s.01,0,.02,0l.13.03s.01,0,.02,0l.12.05s.01,0,.02,0l.1.07s.01,0,.02.01l.09.09s0,0,.01.01l.08.11s0,.01,0,.02l.06.12s0,0,0,.01l.04.14s0,0,0,.01v.08s.01-.37.01-.37h0v-.26h0v-.45h0v-.33h0v-.07h0v-.17h0v-3.49l-3.06,2.17.04-.02.17-.06s0,0,.01,0l.16-.04s0,0,.01,0l.15-.02s0,0,.01,0h.14s.01,0,.02,0l.13.03s.01,0,.02,0l.12.05s.01,0,.02,0l.1.07s.01,0,.02.01l.09.09s0,0,.01.01l.08.11s0,.01,0,.02l.06.12s0,0,0,.01l.04.14s0,0,0,.01l.03.16s0,0,0,.01v.17s0,0,0,.01c0,0,0,0,0,0ZM233.34,53.5l.78.55v-.08s-.05-.12-.05-.12l-.05-.11-.06-.08-.07-.07-.08-.05-.09-.03s-.02,0-.03,0h0s-.1-.02-.1-.02h-.11s-.13.02-.13.02ZM215.97,54.03h.13s.12.01.12.01l.11-.02.1-.04.08-.05.07-.07.03-.04s0,0,0-.01l.05-.09.04-.1.03-.12.02-.21v-.14s-.02-.16-.02-.16l-.03-.17-.05-.18-.06-.18-.07-.19-.09-.19-.1-.19-.11-.19-.12-.19-.13-.18-.13-.18-.14-.17-.15-.16-.15-.15-.15-.14-.15-.12-.15-.11-.15-.09-.15-.08-.1-.04-1.05.74v.12s.03.18.03.18l.04.19.06.2.07.2.09.2.1.2.11.2.12.2.13.2.14.19.15.18.16.17.16.16.17.14.17.13.17.11.16.09.16.07.15.05.14.03ZM234.63,53.75v.19l.34-.24-.12.03s0,0-.01,0l-.14.02s0,0-.01,0h-.06ZM210.87,53.78h.05s.05,0,.05,0l.08-.02v-1.18h-.04s0,.01-.01.01h-.06s0,0-.01,0h-.06s0,0-.01,0h-.04s0,1.17,0,1.17h.03s.05.02.05.02ZM211.26,52.48v1.14l.83-.59h0s0-.03,0-.04v-.02s0,0,0,0h0v-1.06l-.82.58ZM209.4,52.78l1.19.84v-1.14l-1.19-.84v1.14ZM234.63,53.49v.05h.05s.12-.02.12-.02l.12-.03.11-.04.09-.05.07-.06.06-.07.04-.07.02-.07-.02-.07-.04-.07-.06-.07-.07-.06-.09-.05-.11-.04-.12-.03-.12-.02h-.05v.12h.06s.01,0,.02,0l.09.02s.01,0,.02,0l.07.04s0,0,.01,0c0,0,0,0,.01.01l.05.05s.02.02.02.03l.03.06s.01.02.01.04v.07s0,.03,0,.04l-.02.06s0,.02-.02.03l-.04.06s-.01.02-.02.02h-.01s-.02.03-.04.04h-.02s-.01.02-.02.02l-.08.03s-.01,0-.02,0h-.09s-.01.02-.02.02h0ZM212.28,52.91l.72.51v-4.74h0s0-.03,0-.04c0,0,0,0,0-.01h0s0,0,0,0c0,0,.01-.02.02-.03,0,0,.01,0,.02-.01l2.21-1.56-8.45-5.97v4.86h0v.07h0v.04s0,.02,0,.03c0,.01,0,.03-.02.04,0,.01-.02.02-.04.03,0,0-.01,0-.02,0l-.49.14s-.01,0-.02,0c0,0-.02,0-.03,0h0s-.02,0-.03,0c0,0-.01,0-.02-.01l-6.32-4.47s0,0,0,0c0,0,0,0,0,0,0,0,0,0,0,0,0,0,0,0-.01-.01,0,0,0-.01-.01-.02l-.49-.84s0-.02-.01-.03c0,0,0,0,0,0,0,0,0,0,0,0,0,0,0,0,0,0,0,0,0,0,0,0,0,0,0-.02,0-.02v-5.12l-12.15-8.59v7.2h0v.05s0,.03,0,.04c0,0,0,.02-.01.03,0,0,0,0,0,0h0s-.02.02-.03.03c0,0,0,0,0,0h0s-.03.01-.04.01c-.01,0-.03,0-.04,0-.01,0-.02,0-.03-.01l-7.28-5.15v.53l9.71,6.87.83-.58s.01,0,.02-.01c.01,0,.03-.01.04-.01h0s.03,0,.04,0h0s.01,0,.02.01l.93.66h0s.93.66.93.66c0,0,.01,0,.02.01,0,0,.01.02.02.03,0,0,0,.01,0,.02,0,0,0,.02,0,.03h0v1.2l17.16,12.14.83-.58s.01,0,.02-.01c.01,0,.03,0,.04,0h0s.03,0,.04,0c0,0,.01,0,.02.01l.93.66s0,0,0,0l.93.66s.01,0,.02.01c0,0,.02.02.02.03,0,0,0,0,0,0,0,.01,0,.03,0,.04h0v1.2ZM235.51,53.14s0,.02,0,.02l-.02.1s0,.02,0,.02l-.05.09s0,0,0,0l.56-.4.02-.04v-.02s0-.02,0-.02v-.02s-.02-.02-.02-.02l-.03-.02-.96-.68-.36.26h0s.06,0,.06,0c0,0,0,0,.01,0l.14.02s0,0,.01,0l.13.03s0,0,.01,0l.12.05s0,0,.01,0l.1.06s0,0,0,0c0,0,0,0,0,0l.09.07s0,0,.01.01l.07.08s0,.01.01.02l.05.09s0,.01,0,.02l.02.1s0,.02,0,.03v.07s0,.02,0,.03ZM234.63,53.28h0s.07-.01.07-.01l.04-.02v-.2h0s-.07-.02-.07-.02h-.04s0,.25,0,.25ZM217.25,53.12v.08s.77-.55.77-.55h-.05s-.12-.02-.12-.02h-.11s-.06.02-.06.02c0,0-.02,0-.03,0l-.1.04-.08.05-.07.07-.06.09-.05.1-.04.12ZM215.65,50.59l.03.03.17.18.16.19.15.2.14.21.13.21.12.22.11.22.09.22.08.22.06.21.04.21v.11s.05-.11.05-.11c0,0,0-.01,0-.01l.06-.12s0-.01,0-.02l.08-.11s0-.01.01-.02l.09-.09s.01,0,.02-.01l.1-.07s.01,0,.02,0l.12-.05s.01,0,.02,0l.13-.03s.01,0,.02,0h.14s0,0,.01,0l.15.02s0,0,.01,0l.16.04s0,0,.01,0l.21.08-2.73-1.93ZM235.05,51.95l.83.58,3.39-2.4s0,0,0,0c-.02,0-.03,0-.04-.02,0,0,0,0,0,0,0,0,0,0,0,0l-.33-.24h0s0,0,0,0c0,0,0,0-.01,0h0s-.01-.02-.02-.03c0,0,0-.02-.01-.03,0,0,0,0,0,0l-.23-.17s0,0,0,0c0,0,0,0,0,0l-.02-.02s-.01-.01-.02-.02l-.04-.06s-.01-.02-.01-.03l-.03-.07s0-.01,0-.02v-.09s-.01-.01-.01-.02v-.1s0-.01,0-.02l.02-.11s0,0,0-.01l.04-.12s0,0,0-.01l.05-.12.07-.13.08-.12.09-.11.1-.1.1-.09s0,0,0,0h0s.02-.17.02-.17c0,0,0,0,0-.01h0s0-.02,0-.02v-.03s.02,0,.02-.01h0s0-.02,0-.02l.02-.02s0,0,.01,0h0s0-.01,0-.01h0s0,0,.01-.01l.09-.05s0,0,0,0h0s.02-.01.02-.01c0,0,.02,0,.03,0,.01,0,.04,0,.05,0,0,0,0,0,0,0,0,0,.01,0,.02.01l.34.24s.04.04.04.07l.23.16s0,0,.01.01c0,0,.01,0,.02.01,0,0,.01.01.02.02l.03.03s.01.02.02.02c0,0,.01.02.01.03l.02.04.36.26v-.69h0s0-.02,0-.03c0,0,0-.01,0-.02h0s0,0,0,0c0,0,.01-.02.02-.03,0,0,0,0,0,0h0s0,0,.01-.01l.93-.66h0s.93-.66.93-.66c0,0,.01,0,.02-.01.01,0,.03-.01.04-.01h0s.03,0,.04,0c0,0,0,0,0,0,0,0,0,0,0,0,0,0,.01,0,.02.01l.83.58.42-.3-.44-.31s0,0,0,0c-.01,0-.02-.02-.03-.04,0-.01-.01-.03-.01-.04,0,0,0,0,0,0v-7.25l-4.41,3.12.03.02s.01,0,.02.01h0s0,0,0,0c0,0,0,0,0,0l.15.16s0,0,0,0c0,0,.01.01.02.02h0s.16.13.16.13c0,0,.01,0,.02.01.01,0,.02.02.03.03l.03.05s.01.02.01.04v.06s.01,0,.01.01c0,0,0,.01,0,.02v.08s-.01.01-.01.02l-.03.09s0,0,0,.01l-.04.09s0,0,0,.01l-.06.09s0,0,0,.01l-.07.08s0,0-.01.01l-.07.06s0,0-.02.01l-.07.04s-.02,0-.02,0l-.07.02s-.02,0-.04,0h-.06s-.03,0-.05-.02h0s-.02-.01-.03-.02l-.16-.12h-.02s-.02,0-.02-.01l-.21-.09s0,0,0,0h0s-.01-.01-.02-.01c0,0,0,0,0,0l-.35-.25-.31.22s-.01,0-.02,0l-5.17,3.66,2.2,1.56s.01,0,.02.01c0,0,.01.02.02.03h0s0,0,0,0c0,0,0,.01,0,.02,0,0,0,.02,0,.03h0v3.49l.3-.21s0,0,.01,0c.02,0,.03-.01.05-.01.01,0,.03,0,.04,0,0,0,.01,0,.02.01ZM223.73,52.46h.18l.18-.02.17-.03.16-.05.15-.07.09-.05v-1.25l-.15.07s0,0-.01,0l-.17.06s0,0-.01,0l-.18.04s0,0-.01,0l-.19.02s0,0-.01,0h-.19s0,0-.01,0l-.19-.02s0,0-.01,0l-.18-.04s0,0-.01,0l-.17-.06s0,0-.01,0l-.15-.07v1.25l.09.05.15.07.16.05.17.03.18.02ZM210.87,52.39h.05s.05,0,.05,0h.05s.04-.03.04-.03l.04-.02.9-.64-.42-.29v.06s0,.02,0,.03c0,0,0,.01,0,.02l-.02.1s0,.02,0,.02l-.05.09s0,.01-.01.02l-.07.08s0,0-.01.01l-.09.07s0,0-.01,0l-.11.06s0,0-.01,0l-.12.05s0,0-.01,0l-.13.03s0,0-.01,0l-.14.02s0,0-.01,0h-.14s0,0-.01,0l-.14-.02s0,0-.01,0l-.12-.03.45.31.04.02h.05ZM224.85,50.86v1.23l12.55-8.87v-.44s0,0,0-.01v-.02s-.01,0-.01,0l-.02-.04s0,0,0-.01v-.07s0,0,0,0c0,0,0,0,0,0v-.08s.05-.14.05-.14c0,0,0-.02,0-.03l.05-.09s0,0,0-.01l.06-.09s0,0,0,0l.07-.08s0,0,0,0l.07-.07s0,0,.01,0l.07-.05s.01,0,.02,0l.07-.03s.02,0,.02,0h.07s.02-.02.03-.02h.06s.02.01.03.02l.03.02s0,0,0,0c0,0,0,0,0,0h0s0,0,0,0l.57.4,4.63-3.28s0,0,0,0l7.4-5.23v-1.23l-25.86,18.29ZM199.55,35.66l23.23,16.43v-1.23l-43.09-30.47v1.23l19.85,14.03s0,0,0,0ZM210.62,51.89h.13l.12-.02.12-.03.11-.04.09-.05.07-.06.06-.07.04-.07.02-.07-.02-.07-.04-.07-.06-.07-.07-.06-.09-.05-.11-.04-.12-.03-.12-.02h-.12l-.12.02-.12.03-.11.04-.09.05-.07.06-.06.07-.04.07-.02.07.02.07.04.07.06.07.07.06.09.05.11.04.12.03.12.02ZM209.35,51.36l.53.37s0,0,0,0l-.05-.09s0-.01,0-.02l-.02-.1s0-.01,0-.02c0,0,0-.02,0-.03h0v-.07s0-.02,0-.03l.02-.1s0-.02,0-.02l.05-.09s0-.01.01-.02l.07-.08s0,0,.01-.01l.09-.07s0,0,.01,0l.11-.06s0,0,.01,0l.12-.05s0,0,.01,0l.13-.03s0,0,.01,0l.14-.02s0,0,.01,0h.07l-.37-.26-.82.58s0,0-.01.01l-.02.02s0,0,0,0l-.13.09-.02.04v.02s0,.02,0,.02v.02s.02.02.02.02l.03.02ZM231.71,51.16l.78.55v-.08s-.05-.12-.05-.12l-.05-.11-.06-.08-.07-.07-.09-.05-.09-.04s-.02,0-.02,0h-.01s-.1-.02-.1-.02h-.11s-.13.02-.13.02ZM223.73,50.97h.18l.18-.02.17-.03.16-.05.15-.07.07-.04v-.03s-.04-.03-.04-.03l-.06.04s0,0-.01,0l-.15.07s0,0-.01,0l-.16.05s0,0-.01,0l-.17.03s0,0-.01,0h-.18s0,0-.01,0h-.18s0-.01-.01-.01l-.17-.03s0,0-.01,0l-.16-.05s0,0-.01,0l-.15-.07s0,0-.01,0l-.07-.04-.02.03v.03s.06.04.06.04l.15.07.16.05.17.03.18.02ZM223.65,50.68h.16s.16,0,.16,0l.16-.03.15-.04.14-.06.12-.07,26.07-18.43.1-.09.08-.09.06-.1.03-.1v-.1s0-.1,0-.1l-.03-.1-.06-.1-.08-.09-.1-.09L207.32.48l-.07-.04,43.29,30.61s.01,0,.02.01c0,0,.02.02.02.03,0,.01.01.03.01.05,0,.01,0,.03-.01.04,0,0,0,0,0,0,0,.01-.01.02-.02.03,0,0,0,0-.02.01l-.03.02.06.08s0,.01.01.02l.04.09s0,.02,0,.03v.09s.01,0,.01.01,0,0,0,.01v.09s-.02.02-.02.03l-.04.09s0,.02-.01.02l-.06.08.03.02s.01,0,.02.01c0,0,.02.02.02.03,0,0,0,0,0,0,0,.01.01.03.01.04s0,.03,0,.04c0,.01-.01.02-.02.03,0,0,0,0,0,0h0s0,0-.01.01l-.03.02s0,0,0,0l-26.03,18.4s-.01,0-.02.01c-.01,0-.03.01-.04,0-.02,0-.03,0-.05-.01,0,0-.01,0-.02-.01l-.08-.06-.04.02s-.01,0-.02,0l-.11.04s0,0-.02,0l-.12.03s0,0-.01,0h-.13s0,0-.01,0h-.13s0,0-.01-.01l-.12-.03s-.01,0-.02,0l-.11-.04s-.01,0-.02,0l-.04-.02-.08.06s-.01,0-.02.01c-.01,0-.03,0-.04,0h0s-.03,0-.04,0c0,0-.01,0-.02-.01l-43.29-30.61s-.01,0-.02-.01c0,0-.01-.02-.02-.03,0-.02-.01-.03-.01-.05,0-.01,0-.03,0-.04,0-.01.01-.02.02-.03,0,0,0,0,.02-.01l.03-.02-.06-.08s0-.01-.01-.02l-.04-.09s0-.02,0-.03v-.09s-.01,0-.01-.01,0,0,0-.01v-.09s.02-.02.02-.03l.04-.09s0-.01.01-.02l.06-.08-.03-.02s-.01,0-.02-.01c0,0-.01-.02-.02-.03,0-.01,0-.03,0-.04,0-.02,0-.03.01-.05,0,0,.01-.02.02-.03,0,0,.01-.01.02-.01L205.92.44l-.07.04-26.06,18.43-.1.09-.08.09-.06.1-.03.1v.1s0,.1,0,.1l.03.1.06.1.08.09.1.09,43.29,30.61.12.07.14.06.15.04.16.03ZM179.7,20.14l43.12,30.49h0s0-.01,0-.02l.03-.04-43.13-30.5-.03.06ZM224.77,50.58s0,0,0,0l.02.03s0,0,0,0h0s25.9-18.31,25.9-18.31l-.02-.03-.02-.02-25.9,18.31ZM213.52,50.49v.08s.77-.55.77-.55h-.05s-.12-.02-.12-.02h-.11s-.05.02-.05.02c-.01,0-.02,0-.03,0l-.1.04-.08.05-.07.07-.06.08-.05.11-.04.12ZM213.21,48.87v1.64-.08s.01,0,.02-.01l.04-.14s0,0,0-.01l.06-.12s0-.01,0-.02l.08-.11s0-.01.01-.01l.09-.09s.01,0,.02-.01l.1-.07s.01,0,.02,0l.12-.05s.01,0,.02,0l.13-.03s.01,0,.02,0h.14s.01,0,.01,0l.15.02s0,0,.01,0l.16.04s0,0,.01,0l.21.08-1.44-1.02ZM223.7,50.35h.11s.11,0,.11,0l.11-.02.1-.04.09-.05,26.06-18.43.07-.06.05-.06.03-.06v-.06s0-.06,0-.06l-.03-.06-.05-.06-.07-.06L207,.71l-.09-.05-.1-.04-.11-.02h-.11s-.11,0-.11,0l-.11.02-.1.04-.09.05-26.06,18.43-.07.06-.05.06-.03.06v.06s0,.06,0,.06l.03.06.05.06.07.06,43.28,30.61.09.05.1.04.11.02ZM240.64,50.29h0s.03,0,.03,0l.05-.02.06-.04.06-.06.05-.07.04-.08.03-.07v-.06s0-.05,0-.05h0s-.03,0-.03,0l-.05.02-.06.04-.06.06-.05.07-.04.08-.03.07v.06s0,.05,0,.05ZM241.78,50.16h.05s.05,0,.05,0l.08-.02v-1.18h-.04s0,.01-.01.01h-.06s0,0-.01,0h-.06s0,0-.01,0h-.04s0,1.17,0,1.17h.03s.05.02.05.02ZM240.17,50.05l.11.08.02-.07s0,0,0-.01l.03-.09s0,0,0-.01l.05-.09s0,0,0,0l.06-.08s0,0,0,0l.07-.08s0,0,0,0l.07-.06s0,0,.01,0l.04-.03-.12-.08s0,0-.01,0l-.07.05-.06.06-.06.06-.05.07-.05.08-.04.08-.03.07-.02.08s0,0,0,.01ZM241.17,49.77l.32.23v-1.14l-.81-.58v.63l.04.03s.02.01.02.02l.02.02h.02s.01.01.02.02h0s0,0,0,0l.14.1s.01.01.02.02h.01s.02.02.02.03l.04.06s.01.02.01.03l.03.07s0,.01,0,.02v.09s.01.01.01.02v.05s0,.04-.02.05c0,.01,0,.03,0,.04l.02.03s0,0,0,0c0,0,0,0,0,0l.05.11s0,.02,0,.03h0ZM242.17,48.86v1.14l1.19-.84v-1.14l-1.19.84ZM239.16,49.39l.48.34.03-.09.06-.12.07-.12.08-.11.09-.1.09-.08-.48-.34-.03.02-.09.08-.08.09-.07.1-.06.1-.05.1-.05.14ZM238.71,49.46l.05.04v-.02s0,0,0-.01c0,0,0,0,0-.01v-.03s0,0,0,0h0s0,0,0,0c0,0,0,0,0,0v-.03s0-.02,0-.02v-.06s.01,0,.02-.01l.04-.12s0,0,0,0l.09-.19.08-.13.07-.1.08-.1.08-.08-.15-.11-.03.03-.08.09-.08.1-.07.11-.06.11-.05.11-.03.11-.02.1v.08s0,.07,0,.07l.02.05.04.05ZM241.78,48.77h.05s.05,0,.05,0h.05s.04-.03.04-.03l.04-.02.41-.29-.12.03s0,0-.01,0l-.14.02s0,0-.01,0h-.14s0,0-.01,0l-.14-.02s0,0-.01,0l-.13-.03s0,0-.01,0l-.12-.05s0,0-.01,0l-.1-.06s0,0-.01,0c0,0,0,0,0,0l-.09-.07s0,0-.01-.01l-.07-.08s0-.01-.01-.02l-.05-.09s0-.02,0-.02l-.02-.1s0-.01,0-.02c0,0,0-.02,0-.03v-.06s-.42.29-.42.29l.94.66.04.02h.05ZM242,48.27h.12l.12-.02.12-.03.11-.04.09-.05.07-.06.06-.07.04-.07.02-.07-.02-.07-.04-.07-.06-.07-.07-.06-.09-.05-.11-.04-.12-.03-.12-.02h-.13l-.12.02-.12.03-.11.04-.09.05-.07.06-.06.07-.04.07-.02.07.02.07.04.07.06.07.07.06.09.05.11.04.12.03.12.02ZM242.96,47.87s0,.02,0,.02l-.02.1s0,.02,0,.02l-.05.09s0,0,0,0l.55-.4.02-.04v-.02s0-.02,0-.02v-.02s-.02-.02-.02-.02l-.03-.02-.1-.07s0,0,0,0l-.02-.02s0,0,0,0l-.82-.58-.37.26h.07s0,0,.01,0l.14.02s0,0,.01,0l.13.03s0,0,.01,0l.12.05s0,0,.01,0l.1.06s0,0,0,0h0s0,0,0,0c0,0,0,0,0,0h0s0,0,0,0l.09.07s0,0,.01.01l.07.08s0,.01.01.02l.05.09s0,.01,0,.02l.02.1s0,.02,0,.03v.07s0,.02,0,.03ZM244.03,46.91l1.56,1.11v-7.19l-2.12-1.5v7.19l.51.36s0,0,.01,0h.02s0,.02.01.02ZM245.8,46.37v1.64l1.43-1.01-.04.02-.17.06s0,0-.01,0l-.16.04s0,0-.01,0l-.15.02s0,0-.01,0h-.14s-.01,0-.02,0l-.13-.03s-.01,0-.02,0l-.12-.05s-.01,0-.02,0l-.1-.07s-.01,0-.02-.01l-.09-.09s0,0-.01-.01l-.08-.11s0,0,0-.02l-.06-.12s0,0,0-.01l-.04-.14s0,0,0-.01v-.08ZM246.53,46.84h.12s.13-.01.13-.01l.14-.03.16-.05.16-.07.16-.09.16-.11.17-.13.16-.14.16-.16.16-.17.15-.18.14-.19.13-.2.12-.2.11-.2.1-.2.09-.2.07-.2.06-.2.04-.19.02-.18v-.11s-1.05-.74-1.05-.74h-.01s-.14.07-.14.07l-.15.08-.15.1-.15.11-.15.13-.15.14-.15.15-.14.16-.14.17-.13.18-.12.18-.11.19-.1.19-.09.19-.08.19-.07.19-.06.18-.04.18-.03.17-.02.23v.13s.02.12.02.12l.03.12.04.1.03.05s0,.01,0,.02l.03.04.07.07.09.05.1.04h.04s.06.02.06.02ZM249.55,43.86v.1s-.06.21-.06.21l-.06.21-.08.22-.09.22-.11.22-.12.22-.13.21-.14.21-.15.2-.16.19-.21.22,2.73-1.93-.04.02-.17.06s0,0-.01,0l-.16.04s0,0-.01,0l-.15.02s-.01,0-.02,0h-.14s-.01,0-.02,0l-.13-.03s-.01,0-.02,0l-.12-.05s-.01,0-.02,0l-.1-.07s-.01,0-.02-.01l-.09-.09s0,0-.01-.02l-.08-.11s0,0,0-.02l-.06-.12s0,0,0-.01l-.03-.11ZM200.09,41.52l6.22,4.4.29-.08v-2.15s0,0,0,0c-.01,0-.03.01-.04.02h-.05s-.03,0-.04,0l-.06-.02s-.02,0-.03-.01l-.06-.04s0,0-.01,0c0,0,0,0,0,0l-.06-.05s0,0,0,0l-.04-.05s0,0-.01-.02v-.02s-.02,0-.02-.01l-.02-.04s0,0,0-.01l-.02-.03-.04-.09s0-.01,0-.02l-.02-.08s0-.02,0-.02v-.07s0-.02,0-.04l.02-.05s.02-.03.03-.04h0s.01-.02.02-.03l.05-.04s0,0,0,0c0,0,0,0,0,0h.01s.02-.02.03-.02h.05s.03,0,.04,0l.06.02s.02,0,.03.01l.06.04s0,0,0,0c0,0,0,0,0,0h0s.01,0,.02.01l.06.05s0,0,.01.01l.04.05v-2.2l-1.81-1.28s0,.02,0,.03v.65s0,0,0,0h0s0,.03-.01.04c0,.01-.02.02-.03.03,0,0,0,0,0,0l-.09.06s0,0-.02,0h0s0,0,0,0h0s0,0,0,0c-.01,0-.03,0-.04,0,0,0-.02,0-.03,0h0s0,0,0,0c0,0-.01,0-.02,0h0s0,0-.01,0l-.23-.16-.23.08s-.01,0-.02,0c-.01,0-.02,0-.04,0,0,0,0,0-.01,0l.07.05s0,0,.01,0l.1.09.11.11.1.12.09.13.08.13.07.13.05.13s0,0,0,.01l.03.12s0,0,0,.01l.02.11s0,0,0,.01v.1s0,.01,0,.02l-.02.09s0,.02,0,.02l-.03.08s0,.02-.01.02l-.05.06s-.01.01-.02.02l-.03.02s0,0,0,0c0,0,0,0,0,0l-.05.03s-.01,0-.02.01h-.02s-.01.02-.02.02l-.05.02s-.01,0-.02,0h-.05s-.01,0-.02,0h-.02s-.16.11-.16.11l.08.07.1.11.09.12s0,0,0,0c0,0,0,0,0,0,0,0,0,0,0,0l.07.12.06.13.05.13s0,0,0,.01l.03.12s0,0,0,.01v.11s.01.01.01.02v.1s0,.02-.01.02l-.02.08s0,.02-.01.03l-.04.06s-.01.02-.02.02l-.04.03s0,0,0,0c0,0,0,0,0,0,0,0,0,0,0,0,0,0,0,0,0,0l-.12.08s-.01,0-.02,0c0,0-.02.01-.03.02l-.07.02s-.02,0-.03,0h-.08s-.02,0-.03,0l-.09-.02s0,0,0,0c-.02,0-.03,0-.05,0l-.07-.03s0,0-.01,0l-.09-.05s0,0-.01,0l-.09-.07s0,0,0,0l-.09-.08-.09-.1-.13-.17s0,0,0,0v-.02s-.08-.11-.08-.11l-.06-.12-.05-.12s0,0,0-.01h0s0-.01-.01-.01h-.04s0,0,0,0c0,0,0,0,0,0,0,0,0,0,0,0h-.02s-.01,0-.02-.01l-.04-.02s-.01,0-.02-.01l-.04-.03s-.01-.01-.02-.02l-.02-.03-.1-.06s0,0-.01,0l-.1-.08s0,0,0,0l-.09-.09-.06-.07s-.07-.01-.09-.04l-.04-.05s-.02-.06-.01-.1l-.03-.05-.06-.13s0,0,0-.01l-.04-.12s0,0,0-.01l-.03-.12s0,0,0-.01v-.02s-.02-.03-.02-.03c0,0,0-.01-.01-.02l-.02-.04s0-.02,0-.03v-.04s0,0,0-.01h0v-.02h0s0,0,0,0v-.04s0-.01,0-.02v-.02s0-.02,0-.03l.02-.04s0-.02.01-.02l.03-.04s.01-.01.02-.02l.04-.03s0,0,0,0c0,0,0,0,0,0l.02-.02v-.02s.02-.01.03-.02l.06-.07s.01-.01.02-.01h.01s.02-.02.02-.03l.2-.14s0,0,0,0l.14-.11s0,0,0,0l.23-.16s0,0,0,0h0s0,0,0,0c0,0,0,0,0,0h0s.02,0,.03-.01h0s0,0,0,0h0s0,0,0,0l.05-.05s0,0,0-.01l.02-.05s0-.01,0-.02l.03-.04s0-.01.01-.02l.04-.03s.01,0,.02-.01c0,0,0,0,0,0l.05-.03h0s0,0,0,0l.03-.02s.02,0,.02-.01l.07-.02s.02,0,.03,0h.08s.02,0,.02,0l.09.02s.01,0,.02,0l.1.04s0,0,.01,0l.09.05s0,0,0,0l-.69-.78-.21-.15s0,0,0,0c0,0,0,0,0,0,0,0,0,0,0,0-.01,0-.02-.02-.03-.03,0-.01-.01-.03-.01-.04,0,0,0,0,0,0v-.65h0s0-.02,0-.03c0,0,0-.01,0-.02,0,0,.01-.02.02-.03,0,0,0,0,.01-.01l.09-.06s.01,0,.02-.01c.01,0,.02,0,.04,0l-3.54-2.5v2.34s0,0,0,0h.01s.02-.02.03-.02h.05s.03,0,.04,0l.06.02s.02,0,.03.01l.06.04s.01,0,.02.01l.06.05s0,0,.01.01l.06.07s0,0,0,.01l.05.08s0,0,0,.01l.04.08s0,.01,0,.02l.02.07.17-.12s0,0,0,0c0,0,0,0,0,0,0,0,0,0,0,0,0,0,0,0,0,0,0,0,0,0,0,0,0,0,0,0,0,0t0,0s0,0,0,0c0,0,0,0,0,0,0,0,0,0,0,0,0,0,0,0,0,0s0,0,0,0h0s.01,0,.02,0h0s0,0,0,0c0,0,0,0,0,0,0,0,0,0,0,0,0,0,0,0,0,0,0,0,0,0,0,0l.05-.05s0,0,0-.01l.02-.05s0-.01,0-.02l.03-.04s0-.01.01-.01l.04-.03s0,0,.01-.01c0,0,0,0,0,0l.05-.03h0s0,0,0,0c0,0,0,0,0,0l.03-.02s.01,0,.02,0l.07-.02s.02,0,.03,0h.08s.02,0,.02,0l.09.02s.01,0,.02,0l.1.04s0,0,.01,0l.1.06s0,0,0,0l.1.07s0,0,.01,0l.1.09.11.11.1.12.09.13.08.13.07.13.05.13s0,0,0,.01l.03.12s0,0,0,.01l.02.11s0,0,0,.01v.1s0,.01,0,.02l-.02.09s0,.01,0,.02l-.03.08s0,.02-.01.03l-.05.06s0,.01-.02.02l-.02.02s0,0,0,0l-.04.03s0,0,0,0h0s0,0-.01.01l-.03.02s-.01,0-.02,0l-.05.02s-.01,0-.02,0h-.05s-.01,0-.02,0h-.02s-.2.14-.2.14c-.01,0-.02.01-.03.02l.64.46s0,0,0,0l.02.02s0,0,0,0l.02.03s0,0,0,0v.03s.02,0,.02.01h0s0,.02,0,.03c0,0,0,0,0,0,0,0,0,.01,0,.02v1.11h0s0,0,0,0c0,0,0,0,0,0h0s0,.03,0,.04c0,.01-.01.03-.02.04,0,0-.01.02-.02.02l-.1.07s0,0,0,0c0,0,0,0,0,0,0,0,0,0,0,0,0,0,0,0,0,0-.01,0-.02,0-.03.01,0,0-.03,0-.04,0,0,0-.02,0-.03,0,0,0-.02,0-.02-.01h0s0,0,0-.01l-.95-.67-.37-.17s0,0,0,0c0,0,0,0,0,0,0,0-.02,0-.02-.01,0,0-.01,0-.01-.01,0,0-.02-.01-.02-.02,0,0-.01-.02-.01-.02,0,0,0-.02,0-.02,0,0,0-.02,0-.03,0,0,0-.02,0-.02,0,0,0,0,0,0,0,0,0,0,0,0,0,0,0,0,0,0,0,0,0,0,0-.01v-.2s0,0,0,0c0,0,0-.01,0-.02,0,0,0-.02,0-.03,0,0,0-.01,0-.01,0,0,0-.02,0-.02,0,0,0,0,0,0v-.15s0,0,0,0c0,0,0-.01,0-.02h-.01s-.01-.02-.02-.02l-.04-.03s-.01-.01-.02-.02l-.02-.03-.1-.06s0,0-.01,0l-.1-.08s0,0,0,0l-.09-.09-.07-.07s-.07-.01-.09-.04l-.04-.05s-.02-.06-.01-.09c0,0,0,0,0,0h0s-.03-.05-.03-.05l-.06-.13s0,0,0-.01h0s0,.78,0,.78l.44.75ZM245.8,40.82v4.99-.09s.06-.21.06-.21l.06-.21.08-.22.09-.22.11-.22.12-.22.13-.22.14-.21.15-.2.16-.19.17-.18.17-.17.18-.15.18-.14.18-.12.18-.1.18-.08.18-.06s0,0,.01,0l.16-.04s0,0,.01,0l.15-.02s0,0,.02,0h.14s.01,0,.02,0l.13.03s.01,0,.02,0l.12.05s.01,0,.02,0l.1.07s.01,0,.02.01l.09.09s0,0,.01.01l.08.11s0,.01,0,.02l.06.12s0,0,0,.01l.03.11v-.1s.06-.21.06-.21l.06-.21.08-.22.09-.22.11-.22.12-.22.13-.22.14-.21.15-.2.16-.19.17-.18.17-.17.18-.15.18-.14.18-.12.18-.1.18-.08.17-.06s0,0,.01,0l.16-.04s0,0,.01,0l.15-.02s.01,0,.01,0h.14s.01,0,.02,0l.13.03s.01,0,.02,0l.12.05s.01,0,.02,0l.1.07s.01,0,.02.01l.09.09s0,0,.01.02l.07.11s0,0,0,.01l.06.12s0,0,0,.02l.04.14s0,0,0,.01l.03.16s0,0,0,.01v.17s0,0,0,.01h0s0,.18,0,.18l-.03.2-.04.21-.06.21-.08.22-.09.22-.11.22-.12.22-.13.21-.14.21-.15.2-.16.19-.21.22,2.01-1.42v-7.19l-4.23,2.99.04-.02.17-.06s0,0,.01,0l.16-.04s0,0,.01,0l.15-.02s.01,0,.01,0h.14s.01,0,.02,0l.13.03s.01,0,.02,0l.12.05s.01,0,.02,0l.1.07s.01,0,.02.01l.09.09s0,0,.01.02l.07.11s0,0,0,.01l.06.12s0,.01,0,.02l.04.14s0,0,0,.01l.03.16s0,0,0,.01v.17s0,0,0,.01v.18s-.04.2-.04.2l-.04.21-.06.21-.08.22-.09.22-.11.22-.12.22-.13.21-.14.21-.15.2-.16.19-.17.18-.17.17-.18.15-.18.14-.18.12-.18.1-.18.08-.17.06s0,0-.01,0l-.16.04s0,0-.01,0l-.15.02s-.01,0-.01,0h-.14s-.01,0-.02,0l-.13-.03s-.01,0-.02,0l-.12-.05s-.01,0-.02,0l-.1-.07s-.01,0-.02-.01l-.09-.09s0,0-.01-.01l-.08-.11s0-.01,0-.02l-.06-.12s0,0,0-.01l-.04-.14s0,0,0-.01l-.03-.16s0,0,0-.01v-.17s0,0,0,0c0,0,0,0,0,0v-.18s.04-.2.04-.2l.04-.21.06-.21.08-.22.09-.22.11-.22.12-.22.13-.22.14-.21.15-.2.16-.19.21-.22-2.95,2.08ZM250.26,44.2h.12s.13-.01.13-.01l.14-.03.16-.05.16-.07.16-.09.16-.11.17-.13.16-.14.16-.16.16-.17.15-.18.14-.19.13-.2.12-.2.11-.2.1-.21.09-.2.07-.2.06-.2.04-.19.02-.18v-.11s-1.05-.74-1.05-.74h-.01s-.14.07-.14.07l-.15.08-.15.1-.15.11-.15.13-.15.14-.15.15-.14.16-.14.17-.13.18-.12.18-.11.19-.1.19-.09.19-.08.19-.07.19-.05.18-.04.18-.03.17-.02.23v.13s.02.12.02.12l.03.12.04.1.03.05s0,.01,0,.02l.03.04.07.07.09.05.1.04h.04s.06.02.06.02ZM238.81,43.45h.01s.04-.01.04-.01l.05-.03.06-.05.06-.06.05-.07.04-.08.02-.07v-.06s0-.04,0-.04h-.01s-.04.01-.04.01l-.05.03-.06.05-.06.06-.05.07-.04.08-.02.07v.06s0,.04,0,.04ZM248.47,42.8l.78.55v-.08s-.05-.12-.05-.12l-.05-.11-.06-.08-.07-.07-.08-.05-.1-.04s-.01,0-.02,0h-.1s-.11-.01-.11-.01l-.13.02ZM204.04,43.28l.04.04v-.03s-.04-.06-.04-.06l-.04-.05-.04-.04v.03s.04.06.04.06l.04.05ZM204.23,43.16l.02.04s0,0,0,.01l.02.04h0s-.01-.1-.01-.1c0,0-.01,0-.02,0h-.02ZM238.58,43.2l.05.04v-.02s.01-.01.01-.02l.04-.09s0,0,0-.01l.06-.09s0,0,0-.01l.07-.08s0,0,.01-.01l.07-.06s0,0,.02-.01h.02s-.03-.03-.03-.03h-.02s-.04.01-.04.01l-.05.03-.06.05-.06.06-.05.07-.04.08-.02.08ZM203.63,43.09h0s.04.06.04.06v-.02s0-.02,0-.03v-.03s-.03.02-.04.02ZM238.34,43.09h.03s.01-.02.01-.02c0,0,0,0,0-.01l.04-.09s0,0,0-.01l.05-.08s0,0,0-.01l.06-.08s0,0,0,0l.07-.07s0,0,.01,0l.07-.05s.01,0,.02,0h.02s0-.01,0-.01h-.03s-.05.02-.05.02l-.06.03-.06.05-.06.06-.05.07-.05.08-.03.08-.02.07ZM237.61,42.95v.12l.09-.06-.09-.06ZM237.57,42.56l.59.42h0s0-.02,0-.03l.04-.09s0,0,0-.01l.05-.09s0,0,0-.01l.06-.08s0,0,0,0l.07-.07s0,0,0,0l.07-.06s0,0,.01,0l.04-.03-.56-.4h-.02s-.04,0-.04,0l-.05.03-.06.04-.06.06-.06.07-.05.08-.03.07s0,0,0,.01c0,0,0,0,0,0l-.03.1ZM203.69,42.77l.03.05s0,.01,0,.02v.05s.02.02.02.04h0s.01,0,.02-.01l.03-.02s0,0,.01,0c.01,0,.03,0,.04,0h.05s.02,0,.03,0h0s0-.02,0-.02c0-.01,0-.02,0-.03v-.04s.01-.04.03-.06h.01s-.02,0-.04,0h-.03s-.03,0-.05,0l-.04-.02s-.02,0-.03-.02l-.05-.04s-.01,0-.02-.02l-.02-.02s0,.01-.01.02l-.02.03s-.02.02-.03.02l.04.05s0,0,0,.01c0,0,0,0,0,.01ZM204.03,42.65s0,.01-.01.02h-.01s.02,0,.03,0h0s-.01-.02-.01-.02ZM203.25,42.45h.07s.03,0,.03,0c0,0,0,0,0,0l-.05-.02s0,0-.01,0c0,0,0,0,0,.01l-.02.02ZM203.07,42.21h.02s.02,0,.02,0h0s0-.04,0-.04l-.05.04ZM248.16,42.19h.12s.13-.01.13-.01l.14-.03.16-.05.16-.07.16-.09.16-.11.17-.13.16-.14.16-.15.16-.17.15-.18.14-.19.13-.2.12-.2.11-.2.1-.2.09-.2.07-.2.06-.2.04-.19.02-.18v-.11s-1.05-.74-1.05-.74h-.02s-.14.07-.14.07l-.15.08-.15.1-.15.11-.15.13-.15.14-.15.15-.14.16-.14.17-.13.18-.12.18-.11.19-.1.19-.09.19-.08.19-.07.19-.05.18-.04.18-.03.17-.02.23v.13s.02.12.02.12l.03.12.04.1.03.05s0,.01,0,.02l.03.04.07.07.08.05.1.04.11.02ZM203.37,42.16l.08.02h.08s.02-.02.02-.02v-.07s-.03-.07-.03-.07l-.03-.08-.03-.08-.08-.16-.16.12v.02s.07.14.07.14l.02.07.02.11.03.02ZM202.86,42.08h0s.18-.12.18-.12l-.04-.08-.05-.08-.05-.07-.09-.09-.04-.03-.05-.03-.06-.02h0s0,.05,0,.05v.06s.02.07.02.07l.03.08.04.08.06.08.06.07ZM254.18,34.89v7.18l.03-.02.17-.16.14-.16.13-.17.1-.18.08-.18.06-.19.04-.19v-.19s.01-6.6.01-6.6c0,0,0,0,0,0l-.11.19s0,0,0,0l-.13.18-.16.18-.18.17-.16.12ZM203.56,41.57h0s.05.1.05.1l.05.1.04.1.03.09.02.08h.02s-.01-.1-.01-.1l-.03-.12-.07-.16-.06-.12-.04.03ZM201.75,41.96l.04.03v-.05s-.03.02-.04.02ZM203.91,41.71l.07.2.06-.04-.16-.45-.06.04.09.25s0,0,0,0ZM204.24,41.16l.16.45.06-.04-.16-.45-.06.04ZM202.99,41.51l.07.07.16-.12-.12-.13-.04.05-.05.08-.02.04ZM201.68,41.42l.1.11v-.13s-.03.02-.04.02c-.01,0-.03,0-.04,0h-.01s0,0,0,0ZM202.79,41.37h.03s0,0,0,0l.03-.06.08-.1-.09-.05h-.01s-.04.09-.04.09v.04s-.01.04-.01.04v.03ZM202.49,41.36h0s.01,0,.01,0c0,0,.01,0,.02,0h0s0-.02,0-.02v-.03s-.03.06-.03.06ZM203.27,41.21l.13.13.04-.03-.13-.13-.03.02ZM203.38,40.97l.21.16.05-.04-.11-.09s0,0-.01,0l-.25-.19-.05.04.16.12s0,0,0,0ZM203.03,41.03l.08.05.02-.02-.08-.04h-.01ZM203.63,40.55l.37.29.05-.04-.37-.29-.05.04ZM252.19,40.17l.78.55v-.08s-.05-.12-.05-.12l-.06-.12-.06-.08-.07-.07-.08-.05-.1-.04s-.01,0-.02,0h-.1s-.11-.01-.11-.01l-.13.02ZM243.55,39.12l2.15,1.52,8.32-5.88.19-.15.17-.16.15-.16.12-.17.1-.18.08-.18.06-.19.04-.19v-.09s-2.85,0-2.85,0l.29.2s.01,0,.02.01c0,0,.02.02.02.03,0,.01.01.03,0,.04,0,.01,0,.03,0,.04,0,0,0,0,0,0,0,.01-.01.02-.02.03,0,0,0,0-.02.01l-.14.1s-.01,0-.02.01c-.01,0-.03,0-.04,0-.02,0-.03,0-.05-.01,0,0-.01,0-.02-.01l-.67-.47h-.13l-.02.11s0,.01,0,.02l-.05.13s0,.01,0,.02l-.08.12s0,0-.01.01l-.1.11s0,0-.01.01l-.12.1s0,0,0,0c0,0,0,0,0,0l-7.33,5.18ZM200.55,40.54h.07s.03,0,.03,0c0,0,0,0,0,0l-.05-.02s0,0-.01,0c0,0,0,0,0,.01l-.02.02ZM200.37,40.3h.02s.02,0,.02,0h0s0-.04,0-.04l-.05.04ZM200.67,40.25l.08.02h.08s.02-.02.02-.02v-.07s-.03-.07-.03-.07l-.03-.08-.03-.08-.04-.08-.04-.07-.16.12.04.09.03.07.02.07.02.07s0,0,0,.01v.03s.03.02.03.02ZM200.16,40.17h0s.18-.12.18-.12l-.04-.08-.05-.07-.06-.07-.09-.08-.04-.03-.05-.03-.06-.02h0s0,.05,0,.05v.06s.02.07.02.07l.03.08.04.08.06.08.06.07ZM200.86,39.66l.05.1.05.1.04.1.03.1.02.08h.02s-.01-.1-.01-.1l-.04-.15-.07-.17-.04-.07-.04.03ZM204.13,39.97v.15l.21-.07v-.15l-.21.07ZM201.21,39.8l.07.2.06-.04-.16-.45-.06.04.09.25s0,0,0,0ZM203.67,39.33l.39.44.16-.05-.55-.39ZM201.54,39.25l.16.45.06-.04-.16-.45-.06.04ZM200.29,39.6l.07.07.16-.12-.12-.13-.04.05-.05.08-.02.05ZM203.54,39.55l.08.09s.01-.02.02-.03h0s0,0,0,0l-.08-.09s-.01.02-.02.03ZM190.85,39.63h.05s.05,0,.05,0l.08-.02v-1.18h-.04s0,.01-.01.01h-.06s0,0-.01,0h-.06s-.01,0-.01,0h-.04s0,1.17,0,1.17h.03s.05.02.05.02ZM200.09,39.46h.03s0,0,0,0c0,0,0,0,0,0l.03-.05.08-.1-.09-.05h-.01s-.04.09-.04.09v.04s-.01.04-.01.04v.03ZM191.24,38.33v1.14l.83-.59h0s0-.03,0-.04v-.02s0,0,0,0c0,0,0,0,0,0v-1.05l-.81.58ZM189.38,38.63l1.19.84v-1.14l-1.19-.84v1.14ZM199.79,39.45h0s.01,0,.01,0c0,0,.01,0,.02,0h0s0-.01,0-.02v-.03s-.03.06-.03.06ZM200.57,39.3l.09.09.04.05.04-.03-.13-.13-.03.02ZM199.64,38.91v.33h.02s.01-.03.01-.03c0,0,0-.01.01-.02l.06-.07s.01-.01.02-.02h.02s0-.01,0-.01c0,0,0,0,.01-.01h.02s-.04-.03-.04-.03c0,0,0,0-.01,0,0,0,0,0,0,0,0,0,0,0,0,0l-.06-.05s0,0-.01,0l-.04-.05s0,0,0-.01ZM200.68,39.06l.21.16.05-.04-.37-.29-.05.04.16.12s0,0,0,0ZM200.33,39.12l.07.05.02-.02-.08-.04h-.01ZM200.93,38.64l.37.29.05-.04-.37-.29-.05.04ZM250.1,38.16l.78.55v-.08s-.05-.12-.05-.12l-.05-.11s0,0,0,0l-.06-.08-.07-.07-.09-.05-.1-.04s-.01,0-.02,0h-.1s-.11-.01-.11-.01l-.13.02ZM190.85,38.23h.05s.05,0,.05,0h.05s.04-.03.04-.03l.04-.02.9-.64-.42-.29v.05s0,.02,0,.03c0,0,0,.01,0,.02l-.02.1s0,.02,0,.02l-.05.09s0,.01-.01.02l-.07.08s0,0-.01.01l-.09.07s0,0-.01.01l-.11.06s0,0-.01,0l-.12.05s0,0-.01,0l-.13.03s0,0-.01,0l-.14.02s0,0-.01,0h-.14s0,0-.01,0l-.14-.02s0,0-.01,0l-.12-.03.45.31.04.02h.05ZM190.61,37.74h.12l.12-.02.12-.03.11-.04.09-.05.07-.06.06-.07.04-.07.02-.07-.02-.07-.04-.07-.06-.07-.07-.06-.09-.05-.11-.04-.12-.03-.12-.02h-.12l-.12.02-.12.03-.11.04-.09.05-.07.06-.06.07-.04.07-.02.07.02.07.04.07.06.07.07.06.09.05.11.04.12.03.12.02ZM189.34,37.2l.53.37s0,0,0,0l-.05-.09s0-.02,0-.02l-.02-.1s0-.01,0-.02c0-.01,0-.02,0-.03h0v-.07s0-.02,0-.02l.02-.1s0-.02,0-.02l.05-.09s0-.01.01-.02l.07-.08s0,0,.01-.01l.09-.07s0,0,.01,0l.11-.06s0,0,.01,0l.12-.05s0,0,.01,0l.13-.03s0,0,.01,0l.14-.02s0,0,.01,0h.07l-.37-.26-.99.7-.02.04v.02s0,.02,0,.02v.02s.02.02.02.02l.03.02ZM179.69,29.07l7.24,5.12v-7.19h0s-7.24-5.12-7.24-5.12v7.19ZM250.92,32.42v1.2l.04-.04.07-.11.05-.11.02-.11v-.06s0-.95,0-.95l-.08.09s0,0-.01.01l-.08.07ZM252.07,33.09h2.86v-.09s-.04-.19-.04-.19l-.06-.19-.08-.18-.1-.18-.13-.18-.15-.16-.17-.15-.19-.14-8.32-5.88-1.06.75,6.22,4.4s0,0,0,0l.03.02.12.1s0,0,0,0l.09.1s0,0,0,.01l.07.11s0,0,0,.01l.06.12s0,.01,0,.02l.04.12s0,.01,0,.02l.02.12s0,.01,0,.02h0s0,.02,0,.03v1.39h.12l.67-.47s.01,0,.02,0h0s0,0,0,0h0s.03,0,.04,0h0s.03,0,.04,0h0s0,0,0,0c0,0,0,0,0,0,0,0,0,0,0,0h0s.01,0,.02,0l.14.1s.01,0,.01.01c0,0,.02.02.02.03,0,.01.01.03,0,.05,0,.01,0,.03,0,.04,0,.01-.01.02-.02.03,0,0,0,0-.02.01l-.13.09s0,0-.01,0l-.14.1ZM250.83,32.14l.04.05.09-.1.07-.11.05-.11.02-.11v-.04s0-.01,0-.02h0s0,0,0,0c0,0,0,.02,0,.02l-.04.12s0,.01,0,.02l-.07.11s0,.01-.01.02l-.09.11s0,0-.01.01l-.03.02ZM179.45,29.64l.04.04v-.51l-.08-.07s0,0-.01-.01l-.08-.09v.23s0,.02,0,.03v.02s0,.05,0,.05l.02.1.05.11.07.11ZM179.45,28.85l.04.04v-7.16l-.08-.07s0,0-.01-.01l-.08-.09v6.96s.03.11.03.11l.05.11.07.11ZM179.03,24.5l.06.1v-2.84l-.06.17-.08.29-.06.28-.05.27-.03.26-.02.25v.24s.02.23.02.23l.03.21.05.2.06.18.08.17ZM178.69,24.28l.05.06-.04-.13-.05-.22-.03-.23-.02-.24v-.25s.02-.26.02-.26l.03-.27.05-.28.07-.29.08-.29.1-.3.16-.42v-.14h0v-.65l-.03.05-.14.3-.12.29-.11.29-.09.29-.08.28-.06.28-.05.27-.03.26-.02.25v.24s.02.22.02.22l.03.21.05.2.06.18.08.16.09.15ZM178.24,23.94l.02.02-.03-.08-.05-.22-.03-.23-.02-.24v-.25s.02-.26.02-.26l.03-.27.05-.28.07-.29.08-.29.1-.3.11-.3.13-.3.14-.31.24-.47v-.33h0s0-.02,0-.03v-.02s-.07.12-.07.12l-.16.3-.15.3-.14.3-.12.3-.11.29-.09.29-.08.29-.06.28-.05.27-.03.26-.02.25v.24s.02.23.02.23l.03.21.05.2.06.18.08.17ZM179.45,21.4l.04.04v-1.2l-.08-.07s0,0-.01-.01l-.08-.09v1s.03.11.03.11l.05.11.07.11ZM179.45,19.91l.09.1s0,0,0,0l.03-.05-.03-.02s0,0-.01-.01l-.09-.11s0-.01-.01-.02l-.07-.11s0-.01,0-.02l-.04-.12s0-.01,0-.02h0s0,.01,0,.01c0,0,0,0,0,.01v.04s.03.11.03.11l.05.11.07.11ZM181.59,16.68l-.19.14-.24.2-.24.21-.24.22-.23.24-.23.25-.22.26-.21.27-.15.2.53-.38.22-.26.23-.25.24-.24.24-.23.25-.22.25-.2.13-.1-.15-.1ZM181.92,16.94l-.18.14-.24.19-.24.21-.16.15.89-.63-.08-.05ZM182.1,16.81l.08.05.68-.48-.16.08-.23.13-.24.14-.11.08ZM181.77,16.55l.14.1.19-.13.25-.15.25-.13.24-.11.24-.1.24-.08.22-.05.1-.07h-.17s-.21.05-.21.05l-.22.05-.22.07-.23.09-.23.11-.24.13-.24.15-.12.08ZM191.63,10.08l.07.05.54-.38-.19-.13h-.02s-.03,0-.03,0l-.05.02-.06.03-.06.05-.06.06-.05.07-.05.08-.03.08-.02.08ZM191.26,9.75l.04.03s0,0,0,0l.04-.09s0,0,0-.01l.05-.08s0,0,0,0l.06-.08s0,0,0-.01l.07-.07s0,0,.01,0l.05-.04h-.02s-.02-.01-.02-.01h-.04s-.05.04-.05.04l-.06.05-.06.06-.05.07-.04.08-.02.08ZM200.21,3.51l-.19.14-.24.2-.24.21-.24.22-.23.24-.23.25-.22.26-.21.27-.15.2.53-.38.22-.26.23-.25.24-.24.24-.23.25-.22.25-.2.13-.1-.15-.1ZM200.54,3.77l-.18.14-.24.19-.24.21-.16.15.89-.63-.08-.05ZM200.72,3.65l.07.05.68-.48-.16.08-.24.13-.24.14-.11.08ZM200.4,3.38l.14.1.19-.13.25-.15.25-.13.24-.11.24-.1.24-.08.22-.05.1-.07h-.17s-.21.05-.21.05l-.21.05-.22.07-.23.09-.23.11-.24.13-.24.15-.12.08ZM206.59.38s0,0,0,0h.13s0,0,.01.01l.12.03s.01,0,.02,0l.11.04s.01,0,.02,0l.04.02.08-.06s0,0,.01,0c0,0,.02,0,.03-.01h0s0,0,0,0c0,0,0,0,0,0,0,0,.02,0,.03,0,0,0,.01,0,.02,0h0s0,0,0,0c0,0,.02,0,.02,0l-.04-.02-.14-.06-.15-.04-.16-.03h-.16s-.16,0-.16,0l-.16.03-.15.04-.14.06-.04.02s.02,0,.03,0t0,0s.01,0,.02,0h0s0,0,0,0c.01,0,.02,0,.03,0h0s0,0,0,0h0s.01,0,.02,0c0,0,0,0,.01,0l.08.06.04-.02s.01,0,.02,0l.11-.04s0,0,.02,0l.12-.03s0,0,.01,0h.13s0,0,0,0ZM210.7,51.85s0,0,0,0h-.09s-.01,0-.02-.01l-.08-.02s-.01,0-.02,0l-.07-.04s-.02,0-.02-.02l-.05-.05s-.01-.02-.02-.03l-.03-.06s-.01-.02-.01-.04v-.06s-.01-.03,0-.04l.02-.06s0-.02.01-.03l.04-.06s.01-.02.02-.02l.06-.05s.01-.01.02-.01l.07-.03s.01,0,.02,0l.09-.02s.01,0,.02,0h.09s.01,0,.02,0l.09.02s.01,0,.02,0l.08.03s.01,0,.02.01l.06.04s.02.01.02.02l.04.06s.01.02.02.03l.02.06s0,.03,0,.04v.06s0,.03-.01.04l-.03.06s-.01.02-.02.03l-.05.05s-.01.01-.02.02l-.07.04s-.01,0-.02,0l-.08.03s-.01,0-.02,0h-.09s0,.01-.01.01ZM210.63,51.63h.07s.07,0,.07,0l.06-.02.05-.03.03-.03v-.03s.01-.02.01-.02v-.03s-.03-.03-.03-.03l-.04-.03-.06-.02h-.07s-.07,0-.07,0h-.06s-.05.04-.05.04l-.04.03-.02.03v.02s0,.02,0,.02l.02.03.03.03.05.03.06.02ZM242.09,48.23s0,0,0,0h-.09s-.01,0-.02,0l-.09-.02s-.02,0-.02,0l-.07-.04s0,0-.01,0h0s0,0,0,0c0,0-.01,0-.01-.01l-.05-.05s-.02-.02-.02-.03l-.03-.06s-.01-.02-.01-.04v-.07s0-.03,0-.04l.02-.06s0-.02.02-.03l.05-.06s.01-.02.02-.02l.07-.05s.01,0,.02-.01l.08-.03s.01,0,.02,0h.09s.01-.02.02-.02h.09s.01,0,.02,0l.09.02s.02,0,.02,0l.07.04s0,0,.01,0c0,0,0,0,.01.01l.05.05s.02.02.02.03l.03.06s.01.03.01.04v.07s0,.03,0,.04l-.02.06s0,.02-.02.03l-.04.06s-.01.02-.02.02h-.01s-.02.03-.04.04h-.01s-.01.02-.02.02l-.08.03s-.01,0-.02,0h-.09s-.01.02-.02.02ZM242.01,48.01h.07s.07,0,.07,0l.04-.02v-.2h0s-.07-.02-.07-.02h-.07s-.07,0-.07,0l-.06.02-.04.03-.02.03v.03s0,.02,0,.02l.02.03.03.03.05.03.07.02ZM230.55,44.51s-.01,0-.02,0h-.08s-.02-.02-.03-.02h0s-.03-.01-.04-.02h-.03s-.01-.02-.02-.02c0,0,0,0-.01-.01h-.01s-.02-.03-.03-.05c0,0-.02-.02-.02-.03,0-.01-.01-.02-.02-.04,0,0,0-.01,0-.02,0-.01,0-.03,0-.04,0,0,0,0,0-.01l-.05-.06s-.01-.02-.02-.03l-.02-.07s0-.02,0-.03v-.02s0,0,0,0v-.04h0s0-.02,0-.02v-.06s.02-.02.02-.03l.03-.06s.01-.02.02-.02l.05-.05s.01-.01.02-.02l.07-.04s.01,0,.02,0l.08-.02s.01,0,.02,0h.08s.01,0,.02,0h.08s.01,0,.02,0l.08.02s.01,0,.01,0l.04.02s0,0,.01,0c0,0,0,0,0,0l.05.03s.01,0,.02.02l.05.05s.01.02.02.02l.03.06s0,.02.01.03v.02s.01.02.01.03h0s0,.02,0,.02v.04s0,0,0,.01c0,0,0,0,0,0v.05s-.01.02-.02.03l-.03.06s-.01.02-.02.03l-.03.03v.02s0,.03-.01.05c0,0,0,0,0,0,0,.01-.01.02-.02.03h0s-.01.03-.02.04c0,0-.01.01-.02.02l-.06.04s-.02.01-.03.01l-.07.02s-.02,0-.03,0h-.08s0,0,0,0ZM190.68,37.69s0,0,0,0h-.09s-.01,0-.02,0l-.08-.02s-.01,0-.02,0l-.07-.04s-.02,0-.02-.02l-.05-.05s-.01-.02-.02-.02l-.03-.06s-.01-.02-.01-.04v-.06s-.01-.03,0-.04l.02-.06s0-.02.02-.03l.04-.06s.01-.02.02-.02l.06-.05s.01-.01.02-.01l.08-.03s.01,0,.02,0l.09-.02s.01,0,.02,0h.09s.01,0,.02,0l.09.02s.01,0,.02,0l.08.03s.02,0,.02.01l.06.05s.01.01.02.02l.04.05s.01.02.02.03l.02.06s0,.03,0,.04v.06s0,.03-.01.04l-.03.06s-.01.02-.02.03l-.05.05s-.01.01-.02.02l-.07.04s-.01,0-.02.01l-.08.03s-.01,0-.02,0h-.09s0,.01-.01.01ZM190.61,37.48h.07s.07,0,.07,0l.06-.02.05-.03.03-.03v-.03s.01-.02.01-.02v-.03s-.03-.03-.03-.03l-.04-.03-.06-.02h-.07s-.07,0-.07,0h-.06s-.05.04-.05.04l-.04.03-.02.03v.02s0,.02,0,.02l.02.03.03.03.05.03.06.02ZM241.86,37.35h-4.08s-.03,0-.04,0c0,0,0,0,0,0,0,0,0,0,0,0h0s-.01,0-.02-.01l-.33-.23s0,0,0,0c-.01,0-.02-.02-.03-.03,0-.01-.01-.03-.01-.04,0,0,0,0,0,0h0v-10.89h0s0,0,0,0c0-.02,0-.03.01-.04,0,0,0,0,0,0,0-.01.02-.02.03-.03h0s0,0,0,0c0,0,0,0,0,0l.33-.23s.02-.01.03-.01c0,0,0,0,0,0h0s.02,0,.03,0h4.08s.02,0,.04,0c0,0,0,0,0,0,0,0,0,0,0,0,0,0,.02,0,.03.01l.33.23s0,0,0,0c0,0,0,0,0,0h0s.02.02.03.03h0s0,0,0,0c0,.01.01.03.01.04,0,0,0,0,0,0h0v10.89h0s0,0,0,0c0,.02,0,.03-.01.04,0,.01-.02.02-.03.03,0,0,0,0,0,0l-.33.23s-.01,0-.02.01c0,0,0,0,0,0-.01,0-.03,0-.04,0ZM237.91,36.91h3.84v-10.68h-.03s-3.84,0-3.84,0v10.67h.03ZM232.6,32.63s0,0,0,0h-.09s-.01,0-.02,0l-.09-.02s-.01,0-.02,0l-.08-.04s-.02,0-.02-.02l-.06-.05s-.02-.02-.02-.03l-.03-.06s0,0,0-.01c0,0,0,0,0-.01,0,0,0,0,0-.01v-.05s-.01,0-.01,0h0s0,0,0-.01v-.04s0,0,0,0c0,0,0-.02,0-.03l.02-.07s0-.02.02-.03l.04-.06s.01-.02.02-.02l.06-.05s.01,0,.02-.01l.08-.03s.01,0,.02,0l.09-.02s.01,0,.02,0c0,0,0,0,0,0h.08s0,0,0,0c0,0,.01,0,.02,0l.09.02s.01,0,.02,0l.08.04s.02,0,.02.02l.06.05s.02.02.02.03l.02.04s.01.02.02.03c0,.01,0,.03.01.04,0,0,0,0,0,0h0s0,.04,0,.04c0,.01,0,.02,0,.03h0v.06s0,.02,0,.03l-.02.07s0,.02-.02.03l-.04.06s-.01.02-.02.02l-.06.05s-.01,0-.02.01l-.08.03s-.01,0-.02,0l-.09.02s-.01,0-.02,0ZM213.51,32.42s0,0,0,0h-.09s-.01,0-.02-.01l-.09-.03s-.02,0-.02,0l-.07-.04s-.02-.01-.02-.02l-.05-.05s0,0-.01-.02c0,0,0-.01,0-.02l-.03-.06s0-.02,0-.03v-.04s0,0,0-.01c0,0,0,0,0,0h0v-.05s0-.01,0-.02h0s0-.03,0-.04l.02-.06s.01-.02.02-.03l.05-.06s.01-.01.02-.02l.07-.05s.02,0,.02-.01l.08-.03s.01,0,.02,0h0s0,0,0,0h.08s0-.01.01-.01c0,0,0,0,0,0h.08s0,0,0,0h0s.01,0,.02,0l.09.03s.02,0,.02,0l.07.04s.02.01.02.02l.02.03s.02.01.03.02c0,0,.01.02.02.02,0,0,0,.01,0,.02l.02.05s0,.03,0,.04h0s0,.03,0,.05v.05h0s0,0,0,.01v.02s0,.02,0,.03l-.02.06s-.01.02-.02.03l-.05.06s-.01.01-.02.02l-.07.04s-.01,0-.02.01l-.08.03s-.01,0-.02,0h-.09s0,.01-.01.01ZM245.25,31.91s0,0,0,0h-.09s-.01,0-.02-.01l-.09-.02s-.02,0-.02,0l-.07-.04s-.02-.01-.02-.02l-.05-.05s-.01-.02-.02-.03l-.03-.06s0,0,0,0c0,0,0-.01,0-.02,0,0,0,0,0-.01v-.04s0,0,0-.01h0v-.05s0-.01,0-.02c0-.01,0-.03,0-.04l.02-.06s.01-.02.02-.03l.05-.06s.01-.02.02-.02l.07-.05s.01,0,.02-.01l.08-.03s.01,0,.02,0h.09s.01-.01.01-.01c0,0,0,0,0,0h.09s.01,0,.02.01l.09.03s.02,0,.02,0l.07.04s.02.01.02.02l.05.05s.02.02.02.03l.02.04s0,.01.01.02c0,0,0,.02,0,.02,0,0,0,0,0,0,0,0,0,.01,0,.02v.02s0,.02,0,.03v.05s0,0,0,0v.02s0,.02,0,.03l-.02.06s-.01.02-.02.03l-.05.06s-.01.01-.02.02l-.07.05s-.01,0-.02.01l-.08.03s-.01,0-.02,0h-.09s0,.01-.01.01ZM232.07,19.3s0,0,0,0h-.09s0,0-.01,0h0s0,0,0,0c0,0,0,0-.01,0h0s0,0,0,0c0,0,0,0,0,0h0l-.09-.02s-.02,0-.02,0l-.08-.04s-.02,0-.02-.02l-.06-.05s-.02-.02-.02-.03l-.03-.06s0-.02-.01-.03v-.05s0,0,0-.01c0,0,0,0,0,0v-.04s0-.01,0-.02h0s0-.02,0-.04l.02-.06s0-.02.02-.03l.04-.06s.01-.01.02-.02l.06-.05s.01,0,.02-.01l.07-.03s.01,0,.02,0l.08-.02s.01,0,.02,0h.08s0,0,.01,0h.04s0,0,0,0c0,0,0,0,.01,0l.07.02s.01,0,.02,0l.07.03s.01,0,.02.01l.06.04s.01.01.02.02l.04.05s.01.02.02.03l.02.06s0,.02,0,.03h0s0,.02,0,.02h0s0,.01,0,.01h0s0,0,0,0c0,0,0,0,0,0h0v.05s0,0,0,0h0s0,.03,0,.04l-.02.06s0,.02-.02.03l-.04.06s-.01.02-.02.02l-.07.05s-.01,0-.02.01l-.08.03s-.01,0-.02,0h-.09s-.01.02-.02.02ZM213.17,18.93s-.01,0-.02,0l-.09-.02s-.01,0-.02,0l-.08-.03s-.02,0-.02-.01l-.06-.05s-.01,0-.01-.01c0,0,0,0,0,0,0,0,0,0-.01-.01l-.04-.06s-.01-.02-.02-.03l-.02-.07s0-.02,0-.02h0s0-.01,0-.02h0v-.05s0-.02,0-.03v-.03s.01-.03.02-.04l.03-.06s.01-.02.02-.03l.06-.05s.01-.01.02-.02l.08-.04s.01,0,.02,0l.09-.02s.01,0,.02,0h.09s0,0,0,0c0,0,.01,0,.02,0l.09.02s.01,0,.02,0l.08.03s.02,0,.02.01l.03.02s0,0,.01,0c.01,0,.02.01.03.02.01,0,.02.02.03.04l.03.04s.01.02.02.03l.02.06s0,.02,0,.03c0,0,0,0,0,.01v.04s0,0,0,.01t0,0s0,0,0,0v.05s-.02.02-.02.03l-.03.06s-.01.02-.02.03l-.06.05s-.01.01-.02.02l-.08.04s-.01,0-.02,0l-.09.02s-.01,0-.02,0h-.09s0,0,0,0ZM188.68,14.95s0,0,0,0h-.09s-.01,0-.02,0l-.09-.02s-.02,0-.02,0l-.07-.04s0,0-.01,0c0,0,0,0,0,0h0s0,0-.01-.01l-.05-.05s-.02-.02-.02-.03l-.03-.06s0-.02-.01-.03v-.04s0,0,0-.01h0v-.05h0s0-.02,0-.03v-.02s0-.02,0-.03l.03-.06s.01-.02.02-.03l.05-.05s.01-.01.02-.02l.06-.04s.01,0,.02-.01l.07-.03s.01,0,.02,0h.08s.01-.02.02-.02h.08s.01,0,.02,0l.08.02s.01,0,.02,0l.07.03s.01,0,.02,0l.03.02s0,0,0,0c0,0,0,0,0,0l.04.04s.01.01.02.02l.04.05s.01.02.01.03l.02.06s0,.02,0,.03c0,0,0,0,0,.01h0v.05s0,0,0,0v.02s0,.02,0,.03l-.02.06s-.01.02-.02.03l-.05.06s-.01.01-.02.02l-.07.05s-.01,0-.02.01l-.08.03s-.01,0-.02,0h-.09s0,.01-.01.01ZM198.89,9.77s-.02,0-.03,0c0,0,0,0,0,0,0,0,0,0,0,0t0,0s-.02,0-.03-.02l-.33-.23s0,0,0,0c-.01,0-.02-.02-.03-.03,0-.01-.01-.03-.01-.04,0,0,0,0,0,0h0v-2.89h0s0,0,0,0c0-.02,0-.03.01-.04,0-.01.01-.02.02-.03h0s0,0,0,0c0,0,0,0,0,0l.33-.23s.02-.01.03-.01c0,0,0,0,0,0h0s.02,0,.04,0h15.4s.02,0,.04,0h0s0,0,0,0h0s.02,0,.03.01l.33.23s0,0,0,0c0,0,0,0,0,0h0s.02.02.02.03c0,.01.01.03.01.04,0,0,0,0,0,0h0v2.89h0s0,0,0,0c0,.02,0,.03-.01.04,0,0,0,0,0,0,0,.01-.02.02-.03.03,0,0,0,0,0,0,0,0,0,0,0,0l-.33.23s-.02.01-.04.02c0,0,0,0,0,0h0s-.02,0-.02,0h-15.41ZM199.02,9.33h15.17v-2.67h-.03s-15.14,0-15.14,0h-.03v2.67h.03ZM206.56,4.58s-.01,0-.02,0l-.09-.02s-.01,0-.02,0l-.08-.03s0,0,0,0c0,0,0,0,0,0,0,0,0,0,0,0,0,0,0,0-.01,0,0,0,0,0-.01,0l-.06-.05s-.02-.01-.02-.02l-.04-.06s-.01-.02-.02-.03l-.02-.06s0-.02,0-.02h0s0-.02,0-.02v-.04s0,0,0,0c0,0,0-.02,0-.03v-.06s.02-.02.03-.03l.04-.06s.01-.02.02-.02l.05-.05s.01-.01.02-.01l.07-.04s.01,0,.02,0l.08-.02s.01,0,.02,0h.08s.01,0,.02,0h.08s.01,0,.02.01l.08.02s.01,0,.02,0l.04.02s0,0,0,0c0,0,0,0,0,0l.05.03s.01.01.02.02l.05.05s.01.02.02.03l.03.06s0,.02,0,.03v.02s0,.02,0,.03h0s0,.01,0,.02v.04s0,0,0,.01c0,0,0,0,0,.01v.05s-.01.02-.02.03l-.03.06s-.01.02-.02.03l-.06.05s-.01.01-.02.02l-.08.04s-.01,0-.02,0l-.09.02s-.01,0-.02,0h-.09s0,0,0,0Z" fill="#4b18a1"/>
  </g>
  <g>
    <path d="M70.73,76.44c-4.48,0-7.59,3.54-7.59,7.88v.07c0,4.34,3.18,7.95,7.66,7.95s7.59-3.54,7.59-7.88v-.07c0-4.34-3.18-7.95-7.66-7.95Z" fill="#b7a3d9"/>
    <path d="M107.22,73.48h-7.15v12.39h6.94c4.7,0,7.88-2.42,7.88-6.21v-.07c0-4.01-3.14-6.11-7.66-6.11Z" fill="#b7a3d9"/>
    <path d="M15.27,76.77h-4.3v15.25h4.3c4.52,0,7.62-3.07,7.62-7.55v-.07c0-4.48-3.11-7.62-7.62-7.62Z" fill="#b7a3d9"/>
    <path d="M0,68.46v32.73h189v-32.73H0ZM28.71,84.39c0,7.12-5.49,12.65-13.44,12.65H5.41v-25.29h9.86c7.95,0,13.44,5.46,13.44,12.57v.07ZM54.04,86.02c0,7.66-4.3,11.42-11.09,11.42s-10.95-3.76-10.95-11.24v-14.45h5.56v14.31c0,4.16,2.02,6.25,5.46,6.25s5.46-2.02,5.46-6.07v-14.49h5.56v14.27ZM84.21,84.39c0,7.19-5.67,13.08-13.48,13.08s-13.41-5.82-13.41-13.01v-.07c0-7.19,5.67-13.08,13.48-13.08s13.4,5.82,13.4,13.01v.07ZM116.76,79.55c0,5.35-4.55,8.06-9.86,8.06h-6.83v9.43h-1.88v-25.29h9.18c5.56,0,9.39,2.86,9.39,7.73v.07ZM137.78,97.04h-16.73v-25.29h1.88v23.56h14.85v1.73ZM161.77,86.31c0,7.23-4.23,11.13-10.37,11.13s-10.37-3.83-10.37-10.91v-14.78h1.88v14.6c0,6.04,3.18,9.39,8.56,9.39,5.1,0,8.42-3.11,8.42-9.21v-14.78h1.88v14.56ZM184.57,90.5c0,4.08-3.5,6.9-8.38,6.9-4.05,0-7.15-1.34-10.19-4.05l1.23-1.41c2.78,2.6,5.35,3.76,9.07,3.76s6.39-2.13,6.39-5.02v-.07c0-2.67-1.41-4.23-7.15-5.38-6.11-1.27-8.53-3.25-8.53-7.12v-.07c0-3.76,3.43-6.65,8.13-6.65,3.65,0,6.11,1.01,8.67,3.07l-1.19,1.48c-2.42-2.06-4.77-2.85-7.55-2.85-3.76,0-6.18,2.17-6.18,4.77v.07c0,2.71,1.37,4.26,7.37,5.53,5.89,1.19,8.31,3.25,8.31,6.97v.07Z" fill="#b7a3d9"/>
  </g>
</svg>