<?xml version="1.0" encoding="UTF-8"?>
<svg id="uuid-93c34ff2-53d1-4d59-915a-0e540ad145d7" data-name="Layer 1" xmlns="http://www.w3.org/2000/svg" viewBox="0 0 323.18 55.96">
  <path d="M0,0v55.96h323.18V0H0ZM49.1,27.24c0,12.17-9.39,21.62-22.98,21.62H9.25V5.62h16.87c13.59,0,22.98,9.33,22.98,21.5v.12ZM92.4,30.02c0,13.1-7.35,19.52-18.97,19.52s-18.72-6.42-18.72-19.21V5.62h9.51v24.47c0,7.11,3.46,10.69,9.33,10.69s9.33-3.46,9.33-10.38V5.62h9.51v24.4ZM143.99,27.24c0,12.29-9.7,22.37-23.04,22.37s-22.92-9.95-22.92-22.24v-.12c0-12.29,9.7-22.37,23.04-22.37s22.92,9.95,22.92,22.24v.12ZM199.65,18.97c0,9.14-7.78,13.78-16.87,13.78h-11.68v16.13h-3.21V5.62h15.69c9.51,0,16.06,4.88,16.06,13.22v.12ZM235.6,48.87h-28.61V5.62h3.21v40.28h25.39v2.96ZM276.62,30.52c0,12.36-7.23,19.03-17.73,19.03s-17.73-6.55-17.73-18.66V5.62h3.21v24.96c0,10.32,5.44,16.06,14.64,16.06,8.71,0,14.4-5.31,14.4-15.75V5.62h3.21v24.9ZM315.6,37.69c0,6.98-5.99,11.8-14.33,11.8-6.92,0-12.23-2.29-17.42-6.92l2.1-2.41c4.76,4.45,9.14,6.43,15.51,6.43s10.94-3.65,10.94-8.59v-.12c0-4.57-2.41-7.23-12.23-9.21-10.44-2.16-14.58-5.56-14.58-12.17v-.12c0-6.43,5.87-11.37,13.9-11.37,6.24,0,10.44,1.73,14.83,5.25l-2.04,2.53c-4.14-3.52-8.16-4.88-12.91-4.88-6.42,0-10.56,3.71-10.56,8.15v.12c0,4.63,2.35,7.29,12.6,9.45,10.07,2.04,14.21,5.56,14.21,11.92v.12Z" fill="#b7a3d9"/>
  <path d="M120.94,13.65c-7.66,0-12.97,6.05-12.97,13.47v.12c0,7.41,5.44,13.59,13.1,13.59s12.97-6.05,12.97-13.47v-.12c0-7.41-5.44-13.59-13.1-13.59Z" fill="#b7a3d9"/>
  <path d="M183.34,8.59h-12.23v21.19h11.86c8.03,0,13.47-4.14,13.47-10.63v-.12c0-6.86-5.38-10.44-13.1-10.44Z" fill="#b7a3d9"/>
  <path d="M26.12,14.21h-7.35v26.07h7.35c7.72,0,13.04-5.25,13.04-12.91v-.12c0-7.66-5.31-13.04-13.04-13.04Z" fill="#b7a3d9"/>
</svg>