<?xml version="1.0" encoding="UTF-8"?>
<svg id="uuid-6eeb2adf-e63e-468f-bc28-01ab3c78ca60" data-name="Layer 1" xmlns="http://www.w3.org/2000/svg" viewBox="0 0 196.29 159.33">
  <g opacity=".9">
    <path d="M116.84,159.33h0s0,0-.01,0l-.73-.02-.74-.07-.73-.11-.71-.16-.69-.2-.66-.24-.63-.28-.6-.32-.55-.36s-.01,0-.02-.01l-21.25-15.02h0s-.06-.06-.08-.1c-.01-.03-.02-.06-.03-.1h0s0,0,0,0c0,0,0-.01,0-.02v-6.09l-1.92-1.36-2.61,1.85s-.02.01-.03.02l-.12.07s-.03.01-.04.02l-.14.06s-.03,0-.04.01l-.16.03s-.02,0-.04,0h-.16s-.02.01-.04.01h-.16s-.02-.01-.04-.02l-.16-.03s-.03,0-.04-.01l-.14-.06s-.03-.01-.04-.02l-.12-.07s-.02-.01-.03-.02l-3.54-2.5s-.02-.01-.02-.02h0s0,0,0,0l-.1-.09s-.03-.03-.04-.04l-.08-.1s-.02-.04-.03-.06l-.05-.11s-.02-.04-.02-.07l-.02-.11s0-.02,0-.03h0s0,0,0-.01v-3.54s0-.03,0-.04l.02-.11s0-.04.02-.07l.05-.11s.02-.04.03-.06l.08-.1s.02-.03.04-.04l.08-.07-43.08-30.46-2.61,1.85s-.02.01-.03.02l-.12.07s-.03.01-.04.02l-.14.05s-.02,0-.04.01l-.16.03s-.02,0-.04,0h-.16s-.02.01-.04.01h-.16s-.03-.01-.04-.02l-.16-.03s-.02,0-.04-.01l-.14-.05s-.03-.01-.04-.02l-.12-.07s-.02-.01-.03-.02l-3.54-2.5s0,0-.01-.01c0,0,0,0,0,0l-.1-.09s-.03-.03-.04-.04l-.08-.1s-.02-.04-.03-.06l-.05-.11s-.02-.04-.02-.07l-.02-.11s0-.02,0-.03c0,0,0,0,0-.01v-3.54s0-.03,0-.04l.02-.11s0-.05.02-.07l.05-.11s.02-.04.03-.06l.08-.1s.03-.03.04-.04l.08-.07-24.45-17.29s0,0,0,0c0,0,0,0,0,0,0,0,0,0,0,0l-.07-.05-.29-.25s-.02-.02-.02-.02l-.23-.26s-.02-.02-.02-.03l-.19-.28s-.01-.02-.02-.03l-.14-.3s-.01-.03-.01-.04l-.09-.31s0-.03,0-.04l-.03-.2s0-.03,0-.04v-.07s0-.03,0-.04h0s0-.05,0-.05c0,0,0,0,0-.01h0v-2.01h0s0-8.94,0-8.94l-.09-.04-.41-.23s-.02-.01-.03-.02l-.06-.04s-.03-.01-.04-.02l-.83-.58s0,0,0,0c0,0,0,0,0,0,0,0,0,0,0,0l-.24-.19s-.02-.01-.03-.02l-.32-.31s-.01-.01-.02-.02l-.29-.35s-.01-.02-.02-.02l-.26-.39s-.01-.02-.01-.03l-.22-.43-.19-.5-.15-.53-.11-.56-.07-.59-.02-.61v-.64s.07-.66.07-.66l.09-.67.13-.69.17-.7.21-.71.24-.72.27-.73.31-.73.34-.73.37-.73.4-.73.43-.72.45-.71.48-.69.5-.68.52-.66.54-.64.55-.62.57-.59.58-.56.59-.53.6-.5.92-.69s0,0,.01,0l.57-.38.61-.37.61-.33.6-.29.6-.25.59-.2.58-.16.57-.11.55-.06h.53s.64.05.64.05l19.05-13.47-.33-.35s0,0,0,0h0s-.03-.05-.04-.07v-.02s-.43-.29-.43-.29h0s-.01-.01-.02-.02l-.03-.03s-.04-.04-.06-.07l-.07-.12s-.03-.06-.03-.1l-.02-.16s0-.02,0-.04c0-.02,0-.03,0-.04l.02-.19s0-.03.01-.05l.07-.22s0-.03.02-.04l.11-.23s.01-.02.02-.03l.15-.22s.01-.02.02-.03l.17-.19s.02-.02.03-.03l.18-.15s.02-.02.04-.03l.18-.1s.04-.02.06-.02l.17-.05s.06-.01.09-.01h.15s.07.02.1.03l.07.04s.01,0,.02,0c0,0,.02.01.03.02l.41.29h.04s.05.02.08.03l.52.23s.01,0,.02,0c.01,0,.03.01.04.02l.03.02s0,0,0,0c0,0,0,0,0,0,0,0,0,0,.01,0l.65.46,13-9.19v-.02s.46-.7.46-.7l.48-.69.5-.68.52-.66.54-.64.55-.62.57-.59.58-.56.59-.53.6-.5.92-.69s0,0,.02-.01l.56-.38.61-.37.6-.33.6-.29.6-.25.59-.2.58-.15.56-.11.55-.06h.53s.51.03.51.03c0,0,.02,0,.03,0l.1.02,7.74-5.47s0,0,.01,0l.12-.08.36-.2s.02,0,.03-.01l.37-.16s.02,0,.03,0l.39-.12.43-.09.44-.05h.45s.44.03.44.03l.44.08.42.12s.02,0,.03,0l.37.15s.02,0,.03.01l.34.19.19.12s.01,0,.02.01l93.57,66.16,2.99-2.12s.03-.02.05-.03c.04-.02.07-.03.11-.03h0s.08,0,.11.03c.02,0,.03.02.04.03l21.25,15.02h0s0,0,0,0c0,0,0,0,0,0l.49.38.46.42.41.45.35.48s.01.02.02.02l.28.48s0,.02.01.03l.22.49s0,.02.01.03l.16.5s0,.02,0,.03l.1.51s0,.02,0,.03l.03.51s0,.01,0,.02h0v18.89h0s0,.01,0,.02l-.03.51s0,.02,0,.03l-.1.51s0,.02,0,.03l-.16.5s0,.02-.01.03l-.22.49s0,.02-.01.03l-.28.48s0,.02-.02.02l-.34.46s-.01.01-.02.02l-.39.43-.46.43-.51.39s0,0-.01.01l-21.24,15.02s-.02.02-.03.02c-.01,0-.02.01-.03.01,0,0,0,0,0,0h0s-.06.02-.09.02h0s-.07,0-.1-.02h0s0,0,0,0h0s-.01,0-.02,0c-.01,0-.03-.02-.04-.02l-4.25-3-1.07.76.08.07s.03.03.04.04l.08.1s.02.04.03.06l.05.11s.02.04.02.07l.02.11s0,.03,0,.04v3.54s0,.02,0,.03c0,0,0,.02,0,.02l-.02.11s0,.04-.02.07l-.05.11s-.02.04-.03.06l-.08.1s-.02.03-.04.04l-.1.09s0,0-.01,0h0s0,0,0,0c0,0-.01,0-.02.01l-3.54,2.5s-.02.01-.03.02l-.12.07s-.03.01-.04.02l-.14.06s-.03,0-.04.01l-.16.03s-.02,0-.04,0h-.16s-.02.01-.04.01h-.16s-.02-.01-.04-.02l-.16-.03s-.03,0-.04-.01l-.14-.06s-.03-.01-.04-.02l-.12-.07s-.01,0-.02-.01c0,0,0,0,0,0l-.96-.68-.07.2s0,.02-.02.03l-.12.23s-.01.02-.02.03l-.16.21s-.01.02-.02.03l-.18.18s-.02.02-.03.03l-.18.14s-.03.02-.04.03l-.18.09s-.04.02-.07.02l-.16.03s-.03,0-.05,0c0,0-.02,0-.02,0,0,0-.02,0-.02,0l-.3-.02s-.01,0-.02,0c0,0-.02,0-.03,0l-.1-.02s-.01,0-.02,0c-.02.03-.06.06-.1.08l-.04.02-.23.09s-.03,0-.05.01l-.2.03s-.04,0-.06,0h-.18s-.05-.02-.07-.02l-.16-.06s-.05-.02-.07-.04h0s-.03-.02-.04-.03c0,0,0,0-.01,0l-.35-.25s-.01,0-.02-.02c0,0-.01-.01-.02-.02l-.07-.07-.06-.03s-.03-.02-.05-.03c0,0-.01,0-.02-.01l-.42-.3-8.79,6.21.08.07s.03.03.04.04l.08.1s.02.04.03.06l.05.11s.02.04.02.07l.02.11s0,.02,0,.02h0s0,.01,0,.02v3.53s0,.02,0,.03c0,0,0,0,0,0,0,0,0,0,0,.01l-.02.11s0,.05-.02.07l-.05.11s-.02.04-.03.06l-.08.1s-.02.03-.04.04l-.1.09s0,0-.01.01h0s0,0,0,0c0,0,0,0-.01,0l-3.54,2.5s-.02.01-.03.02l-.1.06v1.35s0,.01,0,.02c0,0,0,0,0,0,0,.04-.01.07-.03.1-.02.04-.04.07-.08.1h0s-21.25,15.03-21.25,15.03c0,0-.01,0-.02.01l-.53.35-.6.32-.63.28-.66.24-.69.2-.71.16-.73.11-.74.07-.74.02s0,0-.01,0ZM111.2,157.19l.42.27.56.3.6.27.63.23.66.19.68.15.69.11.71.07h.44s0-18.35,0-18.35h-.47s-.74-.08-.74-.08l-.73-.11-.71-.16-.69-.2-.66-.24-.63-.28-.74-.42v18.26ZM117.1,140.43v18.36h.45s.71-.08.71-.08l.69-.11.68-.15.65-.19.63-.23.6-.27.56-.31.4-.26v-18.26l-.13.08-.6.32-.63.28-.66.24-.69.2-.71.16-.73.11-.74.07-.49.02ZM123,138.58v18.24l5.41-3.82-.09.04-.44.16s-.02,0-.03,0l-.4.09s-.02,0-.03,0l-.38.04s-.03,0-.04,0h-.36s-.03-.01-.04-.02l-.33-.07s-.03,0-.05-.01l-.3-.12s-.03-.01-.04-.02l-.27-.17s-.03-.02-.04-.03l-.23-.22s-.02-.02-.03-.04l-.19-.27s-.02-.03-.02-.04l-.15-.31s-.01-.02-.01-.04l-.11-.36s0-.02,0-.03l-.07-.39s0-.02,0-.03l-.02-.43s0-.01,0-.02,0-.01,0-.02l.02-.46.07-.51.11-.53.15-.54.2-.56.23-.56.27-.56.31-.55.34-.54.36-.53.39-.51.41-.49.43-.46.44-.42.45-.39.46-.35.46-.3.46-.26.45-.21.44-.15s.02,0,.03,0l.4-.1s.02,0,.03,0l.38-.04s.02,0,.04,0h.36s.03.01.04.02l.33.07s.03,0,.05.01l.3.12s.03.01.05.02l.27.17s.03.02.04.03l.23.22s.02.02.03.04l.19.27s.02.03.02.04l.15.31s.01.03.01.04l.09.28.03-.26.11-.53.15-.54.2-.55.23-.56.27-.56.31-.56.34-.54.36-.53.24-.31-.11.12-.44.42-.45.39-.46.35-.46.3-.46.26-.45.21-.44.16s-.02,0-.03,0l-.4.09s-.02,0-.03,0l-.38.04s-.03,0-.04,0h-.36s-.03-.01-.04-.02l-.33-.07s-.03,0-.05-.01l-.3-.12s-.03-.01-.05-.02l-.27-.17s-.03-.02-.04-.03l-.23-.22s-.02-.02-.03-.04l-.19-.27s-.02-.03-.02-.04l-.15-.31s-.01-.02-.01-.04l-.11-.36s0-.02,0-.03l-.07-.4s0-.02,0-.03l-.02-.43s0-.01,0-.02,0-.01,0-.02l.02-.46.07-.51.11-.53.15-.54.2-.55.24-.56.27-.56.31-.55.34-.55.37-.53.39-.51.41-.49.53-.55-10.42,7.37ZM99.94,149.24l10.73,7.58v-18.24l-5.11-3.61.09.08.43.46.41.48.39.51.37.53.34.54.31.55.27.56.23.56.2.55.16.54.11.53.07.51.02.48s0,0,0,.01h0s0,.01,0,.02l-.02.43s0,.02,0,.03l-.07.39s0,.02,0,.03l-.11.36s0,.03-.01.04l-.15.31s-.01.03-.02.04l-.19.27s-.02.03-.03.04l-.23.22s-.03.02-.04.03l-.27.17s-.03.02-.05.02l-.3.12s-.03.01-.05.01l-.33.07s-.03,0-.04,0h-.36s-.03.01-.04.01l-.38-.04s-.02,0-.03,0l-.4-.09s-.02,0-.03,0l-.42-.15-.46-.21-.46-.26-.46-.3-.46-.35-.45-.39-.44-.42-.43-.46-.41-.49-.39-.51-.37-.53-.34-.54-.31-.55-.27-.56-.24-.56-.2-.55-.16-.54-.11-.53-.04-.28-.09.28s0,.03-.01.04l-.15.31s-.01.03-.02.04l-.19.27s-.02.03-.03.04l-.23.22s-.03.02-.04.03l-.26.17s-.03.02-.05.02l-.3.12s-.03.01-.05.01l-.33.07s-.03,0-.04,0h-.36s-.02.01-.04.01l-.38-.04s-.02,0-.03,0l-.4-.09s-.02,0-.03,0l-.42-.15-.46-.21-.46-.26-.46-.3-.46-.35-.45-.39-.44-.42-.43-.46-.41-.49-.39-.51-.37-.53-.34-.54-.31-.55-.27-.56-.24-.56-.2-.55-.16-.54-.11-.53-.04-.26v6.45h0v.11h0v6.09l7.47,5.28-.09-.08-.43-.46-.41-.49-.39-.51-.37-.53-.34-.54-.31-.55-.27-.56-.24-.56-.2-.55-.16-.54-.11-.53-.07-.51-.02-.48s0-.02,0-.04l.02-.42s0-.02,0-.03l.07-.4s0-.02,0-.03l.11-.36s0-.03.01-.04l.15-.31s.01-.03.02-.04l.19-.27s.02-.03.03-.04l.23-.22s.03-.02.04-.03l.26-.17s.03-.02.05-.02l.3-.12s.03-.01.05-.01l.33-.07s.03,0,.04,0h.36s.02-.01.04-.01l.38.04s.02,0,.03,0l.4.09s.02,0,.03,0l.42.15.46.21.46.26.46.3.46.35.45.39.44.42.43.46.41.49.39.51.37.53.34.54.31.55.27.56.23.56.2.55.15.54.11.53.07.51.02.48s0,0,0,.01c0,0,0,0,0,0,0,0,0,.01,0,.02h0s-.02.43-.02.43c0,0,0,.02,0,.03l-.07.39s0,.02,0,.03l-.11.36s0,.02-.01.04l-.15.31s-.01.03-.02.04l-.19.27s-.02.03-.03.04l-.23.22s-.03.02-.04.03l-.27.17s-.03.02-.05.02l-.3.12s-.03.01-.05.01l-.33.07s-.03,0-.04,0h-.36s-.03.01-.04.01l-.38-.04s-.02,0-.03,0l-.4-.09s-.02,0-.03,0l-.54-.2ZM126.63,152.58h.31s.34-.03.34-.03l.36-.09.4-.14.4-.18.41-.23.42-.28.42-.32.42-.36.41-.39.4-.43.38-.45.36-.48.34-.5.32-.51.29-.52.25-.52.22-.52.18-.51.14-.5.1-.48.06-.46v-.28s-2.65-1.89-2.65-1.89h-.04s-.37.18-.37.18l-.38.21-.39.25-.39.29-.39.32-.38.36-.38.38-.37.41-.35.43-.33.45-.31.47-.29.48-.26.48-.24.49-.2.48-.17.48-.14.46-.1.45-.07.43-.04.59v.33s.06.32.06.32l.08.29.1.25.06.11s.02.04.03.06l.08.11.19.18.22.14.31.12.21.04ZM134.28,145.03l-.03.26-.11.53-.15.54-.2.55-.23.56-.27.56-.31.55-.34.55-.36.53-.39.51-.41.49-.52.55,6.91-4.89-.1.04-.44.16s-.02,0-.03,0l-.4.09s-.02,0-.03,0l-.38.04s-.02,0-.04,0h-.36s-.03-.01-.04-.02l-.33-.07s-.03,0-.05-.01l-.3-.12s-.03-.01-.05-.02l-.27-.17s-.03-.02-.04-.03l-.23-.22s-.02-.02-.03-.04l-.19-.27s-.02-.03-.02-.04l-.15-.31s-.01-.02-.01-.04l-.09-.28ZM101.08,148.8l.34.04h.31s.27-.06.27-.06l.25-.1.22-.14.19-.18.07-.1s.01-.03.02-.04l.12-.23.09-.26.07-.3.03-.35v-.18s-.01-.34-.01-.34l-.05-.41-.08-.43-.12-.45-.15-.47-.18-.48-.22-.48-.25-.49-.27-.48-.3-.48-.32-.46-.34-.45-.36-.43-.37-.4-.38-.37-.39-.35-.39-.31-.39-.27-.39-.24-.38-.2-.26-.11-2.67,1.88v.3s.08.45.08.45l.1.48.14.49.18.51.22.52.25.52.29.52.32.51.34.5.36.47.38.45.4.42.41.39.42.36.42.32.42.27.41.23.4.18.37.13.36.09ZM136.07,145.9h.31s.34-.03.34-.03l.36-.08.39-.14.4-.18.41-.23.42-.28.42-.32.42-.36.41-.39.4-.43.38-.45.37-.48.34-.5.32-.51.29-.52.25-.52.22-.52.18-.51.14-.5.1-.48.06-.45v-.28s-2.65-1.89-2.65-1.89h-.04s-.37.18-.37.18l-.38.21-.39.25-.39.29-.39.32-.39.36-.38.38-.37.41-.35.43-.33.45-.31.47-.29.48-.26.48-.24.49-.21.48-.17.48-.14.46-.1.45-.07.43-.04.59v.32s.06.32.06.32l.08.29.1.25.06.1s.02.04.03.06l.08.11.19.18.21.14.31.12.21.04ZM143.73,138.37l-.03.24-.11.53-.15.54-.2.56-.23.56-.27.56-.31.55-.34.54-.37.53-.39.51-.41.49-.53.55,3.34-2.36v-1.38h0v-2.42ZM131.54,142.36l1.99,1.4-.03-.2-.09-.31-.13-.28-.15-.21-.19-.18-.22-.14-.22-.09s-.05,0-.07-.01h-.02s-.25-.04-.25-.04h-.28s-.32.05-.32.05ZM106.39,143.7l.34.04h.31s.27-.06.27-.06l.25-.1.22-.14.19-.18.07-.1s.01-.02.02-.04l.12-.23.09-.26.06-.3.04-.35v-.17s-.01-.35-.01-.35l-.05-.41-.08-.43-.12-.45-.15-.47-.18-.48-.22-.48-.25-.48-.27-.48-.3-.47-.32-.46-.34-.45-.36-.43-.37-.4-.38-.38-.39-.34-.39-.31-.39-.27-.39-.24-.38-.2-.26-.11-2.67,1.88v.3s.08.45.08.45l.1.48.14.49.18.51.22.52.25.52.29.52.32.51.34.49.36.48.38.45.4.43.41.39.42.36.42.32.42.28.41.23.4.18.37.13.36.09ZM144.49,137.26v2.89l3.01-2.13v-2.89l-3.01,2.13ZM94.87,139.81l-.03.2,1.98-1.4-.12-.03-.3-.03h-.28s-.14.04-.14.04c-.03,0-.05,0-.08,0h0s-.25.1-.25.1l-.22.14-.19.18-.16.22-.13.26-.09.31ZM131.94,139.97h.31s.34-.02.34-.02l.36-.09.39-.14.4-.18.41-.23.42-.28.42-.32.42-.36.41-.39.4-.43.38-.45.36-.48.34-.49.31-.51.29-.52.25-.52.22-.52.18-.51.14-.5.1-.48.06-.46v-.28s-2.65-1.88-2.65-1.88h-.04s-.37.18-.37.18l-.38.21-.39.25-.39.29-.39.32-.39.36-.38.38-.37.41-.35.43-.34.45-.31.47-.29.48-.26.48-.24.49-.2.48-.17.48-.14.46-.1.45-.07.43-.04.59v.32s.06.32.06.32l.08.29.1.25.06.11s.02.04.03.06l.08.11.19.18.22.14.31.12.21.04ZM111.08,138.23l.53.34.56.3.6.27.63.23.66.19.68.15.69.11.71.07h.44s0-5.12,0-5.12l-.99.7s-.03.02-.05.03c-.04.02-.07.02-.11.02h0s-.07,0-.11-.02c-.02,0-.03-.02-.05-.03l-.34-.24s-.03-.02-.04-.03c-.03-.02-.04-.05-.06-.08-.01-.03-.02-.06-.02-.09,0-.04,0-.09.03-.13.01-.03.03-.05.05-.07.01-.01.03-.02.04-.03l1.65-1.17v-.07l-.47-.05s-.02,0-.03,0l-.46-.09s-.02,0-.03,0l-.43-.14s-.02,0-.03-.01l-.4-.18s-.02,0-.03-.02l-.35-.22s-.01,0-.02-.01l-18.73-13.25-5.44,3.85,20.94,14.81ZM117.1,134.77v5.13h.45s.71-.08.71-.08l.69-.11.68-.15.65-.19.63-.23.6-.27.56-.31.51-.33,20.94-14.81-5.44-3.85-18.73,13.25s-.01,0-.02.01l-.36.22s-.02.01-.03.02l-.4.18s-.02,0-.03.01l-.43.14s-.02,0-.03,0l-.46.09s-.02,0-.03,0l-.47.05v.07l1.65,1.17s.03.02.04.03c.02.02.04.04.05.07.02.04.03.08.03.12,0,.04,0,.07-.02.1-.01.03-.03.06-.06.08-.01.01-.02.02-.04.03l-.34.24s-.03.02-.05.03c-.03.02-.07.02-.11.02h0s-.07,0-.11-.02c-.02,0-.03-.02-.05-.03l-.99-.7ZM139.65,131.71l-.02.46-.07.51-.11.53-.15.54-.2.55-.24.56-.27.56-.31.56-.34.54-.37.53-.24.31.11-.12.44-.42.45-.39.46-.35.46-.3.46-.26.45-.21.44-.16s.02,0,.03,0l.4-.09s.02,0,.03,0l.38-.04s.02,0,.04,0h.36s.03.01.04.02l.33.06s.03,0,.05.01l.3.12s.03.01.05.02l.27.17s.03.02.04.03l.23.22s.02.02.03.04l.19.27s.02.03.02.04l.15.31s.01.02.01.04l.11.36s0,.02,0,.03l.03.2v-.93h0v-.66h0v-1.13h0v-.84h0v-.18h0v-.43h0v-8.85l-7.77,5.49.1-.04.44-.16s.02,0,.03,0l.4-.09s.02,0,.03,0l.38-.04s.02,0,.04,0h.36s.03.01.04.02l.33.07s.03,0,.05.01l.3.12s.03.01.05.02l.26.17s.03.02.04.03l.23.22s.02.02.03.04l.19.27s.02.03.02.04l.15.31s.01.02.01.04l.11.36s0,.02,0,.03l.07.39s0,.02,0,.03l.02.42s0,.02,0,.03c0,0,0,0,0,0ZM140.98,135.68l1.99,1.41-.03-.2-.1-.31-.13-.28-.15-.21-.19-.18-.21-.14-.22-.09s-.05,0-.07-.01h-.02s-.25-.04-.25-.04h-.28s-.32.05-.32.05ZM96.95,137.02l.34.04h.31s.27-.06.27-.06l.25-.1.21-.14.19-.18.07-.1s.01-.02.02-.04l.12-.23.09-.26.07-.3.04-.53v-.34s-.06-.41-.06-.41l-.08-.43-.12-.45-.15-.47-.18-.48-.22-.48-.25-.48-.27-.48-.3-.47-.32-.46-.34-.45-.36-.43-.37-.4-.38-.38-.39-.34-.39-.31-.39-.27-.39-.24-.38-.2-.26-.11-2.66,1.88v.3s.08.45.08.45l.1.48.14.5.18.51.22.52.25.52.29.52.32.51.34.5.37.48.38.45.4.42.41.39.42.36.42.32.42.28.41.23.4.18.37.13.36.09ZM144.26,136.29v.48l.87-.61-.31.08s-.02,0-.03,0l-.34.04s-.02,0-.03,0h-.15ZM84.01,136.39h.13s.13,0,.13,0l.2-.06v-2.99l-.11.02s-.02,0-.04,0h-.16s-.02.01-.04.01h-.16s-.03-.01-.04-.02l-.11-.02v2.98l.08.03.12.03ZM84.99,133.09v2.89l2.1-1.49v-.03s-.03-.05-.03-.07v-.06s0-.01,0-.02h0v-2.68l-2.07,1.46ZM80.27,133.85l3.01,2.13v-2.89l-3.01-2.13v2.89ZM144.26,135.65v.12h.13s.31-.04.31-.04l.29-.08.27-.11.23-.14.19-.16.14-.17.09-.18.05-.19-.05-.18-.09-.18-.14-.17-.19-.16-.23-.14-.27-.11-.3-.08-.31-.04h-.13v.3h.16s.04.01.06.02l.22.06s.04.01.06.02l.18.1s.02.01.04.02c.01,0,.02.02.03.03l.14.13s.04.04.05.07l.08.16s.03.06.03.1l.02.17s0,.07-.01.1l-.05.16s-.02.06-.04.08l-.11.15s-.04.04-.06.06l-.03.02s-.06.05-.1.07l-.04.03s-.04.02-.06.03l-.21.08s-.04.01-.06.01l-.23.04s-.04,0-.05,0h-.02ZM87.59,134.16l1.83,1.3v-12.03h0s0-.07.02-.1c0,0,0-.02.01-.03h0s0,0,0,0c.01-.02.03-.04.05-.06.01-.01.03-.02.04-.03l5.59-3.95-21.43-15.15v12.34h0v.18h0v.1s0,.05,0,.07c0,.04-.02.07-.04.1-.02.03-.06.06-.09.08-.02,0-.03.02-.05.02l-1.24.36s-.04,0-.06.01c-.02,0-.04,0-.06,0h0s-.05-.01-.07-.02c-.02,0-.03-.02-.05-.03l-16.03-11.33s0,0-.01-.01c0,0,0,0,0,0,0,0,0,0,0,0-.01,0-.02-.02-.03-.03-.01-.01-.02-.03-.03-.05l-1.24-2.12s-.02-.04-.03-.07c0,0,0,0,0,0,0,0,0,0,0,0,0,0,0,0,0-.01,0,0,0,0,0,0,0-.02,0-.04,0-.06v-12.99l-30.8-21.78v18.26h0v.04h0v.08s0,.07-.02.1c0,.02-.02.05-.04.07,0,0,0,0,0,0h0s-.05.05-.09.07c0,0,0,0,0,0h0s-.07.03-.1.03c-.03,0-.07,0-.1-.01-.03,0-.05-.02-.07-.04l-18.47-13.06v1.36l24.64,17.42,2.1-1.48s.03-.02.04-.03c.04-.02.08-.03.11-.03h0s.08,0,.11.02h0s.03.02.05.03l2.36,1.67h0s2.36,1.67,2.36,1.67c.01,0,.03.02.04.03.02.02.04.04.05.07,0,.01.01.03.02.05,0,.02.01.05.01.07h0v3.05l43.52,30.78,2.1-1.48s.03-.02.05-.03c.03-.02.07-.02.11-.02h0s.07,0,.11.02c.02,0,.03.02.05.03l2.36,1.67s0,0,0,0l2.35,1.66s.03.02.04.03c.02.02.04.05.05.07,0,0,0,0,0,.01.01.03.02.07.02.1h0v3.05ZM146.49,134.75s0,.04,0,.06l-.06.24s-.01.04-.02.06l-.12.23s0,.01,0,.01l1.41-1.01.06-.1v-.04s0-.04,0-.04l-.02-.05-.04-.05-.07-.06-2.43-1.72-.92.65v.02h.15s.02,0,.03,0l.34.04s.02,0,.03,0l.33.08s.02,0,.03.01l.3.12s.02.01.03.02l.26.16s.02.01.03.02c0,0,.01,0,.02.01l.22.19s.02.02.04.04l.17.21s.02.03.03.05l.12.23s.02.04.02.06l.06.24s0,.04,0,.06v.19s0,.04,0,.07ZM144.26,135.12h.02s.18-.03.18-.03l.1-.04v-.51h-.02s-.17-.06-.17-.06h-.11s0,.63,0,.63ZM100.18,134.71l-.03.2,1.98-1.4-.12-.03-.3-.03h-.28s-.14.04-.14.04c-.03,0-.05,0-.08,0l-.25.1-.22.14-.19.18-.16.22-.13.26-.09.31ZM96.12,128.29l.09.08.43.46.41.49.39.51.37.53.34.54.31.55.27.56.24.56.2.55.16.54.11.53.04.28.09-.28s0-.03.01-.04l.15-.31s.01-.03.02-.04l.19-.27s.02-.03.03-.04l.23-.22s.03-.02.04-.03l.26-.17s.03-.02.05-.02l.3-.12s.03-.01.05-.01l.33-.07s.03,0,.04,0h.36s.02-.01.04-.01l.38.04s.02,0,.03,0l.4.09s.02,0,.03,0l.54.2-6.92-4.89ZM145.33,131.73l2.1,1.48,8.6-6.08s-.02,0-.02,0c-.04,0-.08-.02-.11-.05,0,0,0,0,0,0,0,0,0,0-.01,0l-.85-.6h0s0,0-.01,0c-.01,0-.02-.02-.03-.03h0s-.04-.05-.05-.08c0-.02-.02-.05-.03-.07,0,0,0,0,0-.01l-.59-.42s-.01,0-.02-.01c0,0,0,0,0,0l-.06-.05s-.03-.03-.04-.04l-.11-.15s-.03-.04-.04-.07l-.07-.19s-.01-.04-.01-.06l-.03-.23s0-.03,0-.05v-.26s.01-.03.02-.04l.05-.28s0-.02,0-.03l.09-.3s0-.02,0-.03l.13-.3.18-.32.21-.31.23-.29.25-.27.26-.23s0,0,0,0l.02-.02.05-.41s0-.02,0-.03v-.02s.01-.03.02-.04l.03-.07s0-.02.01-.03l.02-.03s.01-.02.02-.03l.05-.06s.02-.02.03-.03l.02-.02s.01-.01.02-.02h.02s.02-.02.03-.03l.22-.13s.01,0,.02-.01h.02s.04-.03.06-.03c.02,0,.06-.01.08-.01.04,0,.09,0,.12.02,0,0,0,0,.01,0,.02,0,.04.02.05.03l.86.61c.06.05.1.11.11.19l.58.41s.02.02.03.03c.02.01.03.02.04.04.02.01.03.03.05.05l.07.09s.03.04.04.06c.02.02.03.04.04.07l.04.1.92.65v-1.74h0s0-.05.01-.08c0-.02.01-.03.02-.05h0s0,0,0,0c.01-.02.03-.05.05-.07,0,0,0,0,0,0h0s.02-.02.04-.03l2.35-1.66h0s2.35-1.67,2.35-1.67c.01-.01.03-.02.04-.03.04-.02.08-.03.11-.03h0s.08,0,.11.03c0,0,0,0,0,0,0,0,0,0,0,0,.02,0,.03.02.04.03l2.1,1.48,1.07-.75-1.11-.79s0,0,0,0c-.03-.03-.06-.06-.08-.09-.02-.03-.03-.07-.03-.1,0,0,0-.01,0-.02v-18.37l-11.18,7.9.07.05s.03.02.04.04h0s.01.02.02.02c0,0,.01.01.02.02l.39.42s0,0,0,0c.02.02.03.03.04.05l.02.03.41.29s.03.02.04.03c.03.02.05.05.07.08l.07.12s.03.06.03.1l.02.16s0,.02,0,.04c0,.01,0,.03,0,.04l-.02.19s0,.03-.01.05l-.07.22s0,.03-.01.04l-.11.23s-.01.02-.02.03l-.15.22s-.01.02-.02.03l-.17.19s-.02.02-.03.03l-.18.15s-.02.02-.04.03l-.18.11s-.04.02-.06.03l-.17.05s-.06.01-.09,0h-.15s-.08-.02-.12-.04h-.02s-.05-.03-.08-.05l-.41-.29h-.06s-.04-.02-.06-.03l-.52-.23s0,0-.01,0h-.02s-.03-.03-.04-.04c0,0-.02,0-.02-.01l-.89-.63-.79.56s-.03.02-.04.02l-13.12,9.28,5.59,3.95s.03.02.04.03c.02.02.03.04.05.06h0s0,0,0,0c0,.02.02.03.02.05,0,.02,0,.05,0,.07h0v8.85l.76-.54s.02-.02.04-.02c.04-.02.07-.03.12-.03.04,0,.07,0,.11.02.02,0,.03.02.05.03ZM116.61,133.02h.45l.45-.05.43-.09.4-.13.37-.17.22-.13v-3.16l-.39.17s-.02,0-.03.01l-.43.14s-.02,0-.03,0l-.46.09s-.02,0-.03,0l-.47.05s-.02,0-.03,0h-.48s-.02,0-.03,0l-.47-.05s-.02,0-.03,0l-.46-.09s-.02,0-.03,0l-.43-.14s-.02,0-.03-.01l-.39-.17v3.16l.22.13.37.17.41.13.43.09.45.05ZM84.01,132.85h.13s.13,0,.13,0l.12-.03.1-.04.1-.06,2.28-1.61-1.06-.75v.14s0,.05,0,.07c0,.02,0,.04,0,.06l-.06.24s-.01.04-.02.06l-.12.23s-.02.03-.03.05l-.17.21s-.02.03-.04.04l-.22.19s-.02.02-.04.03l-.27.16s-.02.01-.04.02l-.3.12s-.02,0-.03.01l-.33.08s-.02,0-.03,0l-.34.04s-.02,0-.03,0h-.35s-.02,0-.03,0l-.34-.04s-.02,0-.03,0l-.31-.08,1.14.79.1.04.12.03ZM119.46,128.96v3.13l31.82-22.5v-1.12s-.01-.02-.02-.03l-.02-.04s0-.02-.01-.02l-.04-.11s0-.02,0-.03l-.02-.18s0,0,0,0c0,0,0-.01,0-.02l.02-.2.1-.35s.01-.04.02-.07l.11-.23s.01-.02.02-.03l.15-.22s.01-.02.02-.02l.17-.2s.01-.02.02-.02l.18-.17s.02-.02.03-.02l.19-.13s.03-.02.04-.02l.18-.09s.04-.02.06-.02l.17-.04s.06,0,.09,0l.15.02s.06.01.09.03l.08.04s.01,0,.02.01c0,0,0,0,0,0h0s.01,0,.02.01l1.43,1.01,11.74-8.31s.02-.01.02-.02l18.76-13.27v-3.13l-65.58,46.37ZM55.3,90.43l58.91,41.66v-3.13L4.94,51.7v3.13l50.33,35.59s.01,0,.02.01ZM83.38,131.59h.32l.31-.04.29-.08.27-.11.23-.14.19-.16.14-.17.09-.18.05-.19-.05-.18-.09-.18-.14-.17-.19-.16-.23-.14-.27-.11-.29-.08-.31-.04h-.32l-.31.04-.3.08-.27.11-.23.14-.19.16-.14.17-.09.18-.05.19.05.18.09.18.14.17.19.16.23.14.27.11.29.08.31.04ZM80.16,130.23l1.34.94s0,0,0-.01l-.12-.23s-.02-.04-.02-.06l-.06-.24s0-.04,0-.06c0-.02,0-.05,0-.07v-.02s0-.16,0-.16c0-.02,0-.04,0-.06l.06-.24s.01-.04.02-.06l.12-.23s.02-.03.03-.05l.17-.21s.02-.03.04-.04l.22-.19s.02-.02.03-.02l.27-.16s.02-.01.03-.02l.3-.12s.02,0,.03-.01l.33-.08s.02,0,.03,0l.34-.04s.02,0,.03,0h.18l-.95-.67-2.08,1.47s-.02.02-.04.03l-.06.04s0,0,0,0l-.32.24-.06.1v.04s0,.04,0,.04l.02.05.04.05.07.06ZM136.85,129.74l1.99,1.4-.03-.2-.09-.31-.14-.28-.15-.21-.19-.18-.22-.14-.22-.09s-.04,0-.06,0h-.03s-.26-.04-.26-.04h-.28s-.32.05-.32.05ZM116.61,129.25h.45l.45-.05.43-.09.41-.13.37-.17.18-.11-.03-.06-.06-.08-.16.1s-.02.01-.03.02l-.38.17s-.02,0-.03.01l-.41.12s-.02,0-.03,0l-.43.07s-.02,0-.03,0l-.44.02s-.02,0-.03,0l-.44-.02s-.02,0-.03,0l-.43-.07s-.02,0-.03,0l-.41-.12s-.02,0-.03-.01l-.38-.17s-.02,0-.03-.02l-.17-.1-.06.08-.03.07.18.11.37.17.41.13.43.09.45.05ZM116.42,128.52l.41.02.41-.02.4-.07.38-.11.35-.15.32-.19,66.1-46.74.26-.22.2-.23.14-.25.09-.25.03-.26-.03-.26-.09-.25-.14-.25-.2-.23-.26-.22L75.02,1.22l-.17-.1,109.77,77.62s.03.02.04.03c.02.02.04.05.05.07.02.04.03.08.03.12,0,.04,0,.08-.03.11,0,0,0,0,0,0-.01.03-.03.05-.05.07-.01.01-.02.02-.04.03l-.08.06.15.2s.02.04.03.06l.09.22s.02.04.02.07l.03.23s0,.02,0,.04,0,.03,0,.04l-.03.23s0,.05-.02.07l-.09.22s-.02.04-.03.06l-.15.2.08.06s.03.02.04.03c.02.02.04.05.05.07,0,0,0,0,0,0,.02.04.03.08.03.11s0,.08-.02.11c-.01.03-.03.05-.05.08,0,0,0,0,0,0h0s-.02.02-.04.03l-.08.06s-.02.01-.02.02l-66,46.67s-.03.02-.05.03c-.04.02-.08.03-.11.02-.04,0-.08,0-.12-.03-.01,0-.03-.02-.04-.03l-.21-.15-.11.06s-.03.01-.04.02l-.29.11s-.03,0-.04.01l-.31.07s-.02,0-.04,0l-.33.02s-.02,0-.04,0l-.33-.02s-.03,0-.04,0l-.31-.07s-.03,0-.04-.01l-.29-.11s-.03-.01-.04-.02l-.11-.06-.21.15s-.03.02-.05.03c-.04.02-.07.03-.11.03h0s-.08,0-.11-.03c-.02,0-.03-.02-.05-.03L5.36,50.47s-.03-.02-.04-.04c-.02-.02-.04-.04-.05-.07-.02-.04-.03-.08-.03-.12,0-.03,0-.07.02-.1.01-.03.03-.06.06-.08.01-.01.02-.02.04-.03l.08-.06-.15-.2s-.02-.03-.03-.05l-.1-.22s-.02-.04-.02-.07l-.03-.23s0-.02,0-.04,0-.02,0-.04l.03-.23s0-.05.02-.07l.1-.22s.02-.04.03-.05l.15-.2-.08-.06s-.03-.02-.04-.04c-.02-.02-.04-.05-.05-.07-.02-.03-.02-.07-.02-.11,0-.04,0-.08.03-.12.01-.02.03-.05.05-.07.01-.01.03-.03.04-.04L71.46,1.12l-.17.1L5.2,47.96l-.27.22-.2.23-.14.25-.09.25-.03.26.03.26.09.26.14.25.2.23.27.22,109.78,77.63.32.19.35.15.38.11.4.07ZM4.98,51.07l109.36,77.33v-.02s.02-.02.02-.02l.07-.1L5.06,50.93l-.09.15ZM119.25,128.26s0,.01.01.02l.05.08s.01.02.01.02v.02s65.68-46.44,65.68-46.44l-.04-.09-.04-.06-65.68,46.44ZM90.74,128.03l-.03.2,1.98-1.4-.12-.03-.3-.03h-.28s-.14.04-.14.04c-.03,0-.05,0-.08,0l-.25.1-.21.14-.19.18-.15.21-.13.27-.09.31ZM89.95,123.93v4.17l.03-.2s0-.02,0-.03l.11-.36s0-.03.01-.04l.15-.31s.01-.03.02-.04l.19-.27s.02-.03.03-.04l.23-.22s.03-.02.04-.03l.27-.17s.03-.02.04-.02l.3-.12s.03-.01.05-.01l.33-.07s.03,0,.04,0h.36s.03-.01.04-.01l.38.04s.02,0,.03,0l.4.09s.02,0,.03,0l.54.2-3.64-2.57ZM116.53,127.69l.29.02.29-.02.27-.06.25-.09.22-.13,66.09-46.74.18-.15.12-.15.07-.16.02-.16-.02-.16-.07-.16-.12-.16-.18-.15L74.19,1.8l-.22-.13-.25-.09-.28-.06-.29-.02-.29.02-.28.06-.25.09-.22.13L6.02,48.54l-.18.15-.12.16-.07.16-.02.16.02.16.07.16.12.16.18.15,109.76,77.61.22.13.25.09.28.06ZM159.49,127.54h.02s.08-.01.08-.01l.13-.06.15-.11.15-.15.13-.18.11-.19.07-.19.03-.16-.02-.14h-.02s-.08.01-.08.01l-.12.06-.15.11-.15.15-.13.18-.11.19-.07.19-.03.16.02.14ZM162.4,127.21h.13s.13,0,.13,0l.2-.06v-2.99l-.11.02s-.02,0-.04,0h-.16s-.02.01-.04.01h-.16s-.02-.01-.04-.02l-.11-.02v2.99l.08.03.12.03ZM158.32,126.93l.29.21.04-.18s0-.02.01-.04l.09-.23s0-.02.01-.03l.12-.23s0-.02.02-.02l.15-.21s.01-.02.02-.03l.17-.19s.01-.01.02-.02l.18-.16s.02-.02.03-.02l.11-.07-.29-.21s-.02.02-.03.02l-.17.13-.15.14-.14.16-.13.18-.12.19-.1.19-.07.18-.05.19s0,.03-.01.04ZM160.85,126.22l.82.58v-2.89l-2.07-1.46v1.61l.09.07s.04.03.06.05l.05.05.05.02s.03.01.05.02l.02.02s0,0,0,0l.35.25s.03.03.05.04l.03.02s.04.04.06.06l.11.15s.03.04.03.06l.07.19s.01.04.01.06l.03.22s0,.03,0,.04v.12c0,.05-.02.1-.05.14,0,.03.01.07.01.11l.05.07s0,.02.01.02c0,0,0,.01.01.02l.12.28s.02.05.02.07h0ZM163.38,123.9v2.89l3.01-2.13v-2.89l-3.01,2.13ZM155.75,125.25l1.21.85.09-.23.15-.31.19-.31.21-.29.23-.26.22-.2-1.21-.86-.07.05-.22.2-.2.23-.19.25-.16.26-.13.26-.12.35ZM154.62,125.43l.13.09v-.04s0-.02,0-.04c0-.01,0-.02,0-.03v-.07s0-.02,0-.02h0s0,0,0,0c0,0,0-.02,0-.02v-.07s.02-.04.02-.06l.03-.14s0-.02,0-.03l.09-.3s0-.02,0-.02l.22-.47.2-.32.19-.26.21-.25.19-.2-.38-.27-.09.08-.21.23-.2.26-.18.27-.15.28-.12.27-.09.27-.05.25v.21s.01.17.01.17l.05.13.1.12ZM162.4,123.66h.13s.13,0,.13,0l.12-.03.1-.04.1-.06,1.04-.74-.31.08s-.02,0-.03,0l-.34.04s-.02,0-.03,0h-.35s-.02,0-.03,0l-.34-.04s-.02,0-.03,0l-.33-.08s-.02,0-.03-.01l-.3-.12s-.02-.01-.03-.02l-.26-.16s-.02-.01-.03-.02c0,0-.01,0-.02-.01l-.22-.19s-.02-.02-.03-.03l-.17-.21s-.02-.03-.03-.05l-.12-.23s-.02-.04-.02-.06l-.06-.24s0-.04,0-.06c0-.02,0-.05,0-.07v-.14s-1.05.75-1.05.75l2.38,1.67.1.04.12.03ZM162.96,122.41h.32l.31-.04.29-.08.27-.11.23-.14.19-.16.14-.17.09-.18.05-.19-.05-.18-.09-.18-.14-.17-.19-.16-.23-.14-.27-.11-.29-.08-.31-.04h-.32l-.31.04-.29.08-.27.11-.23.14-.19.16-.14.17-.09.18-.05.19.05.18.09.18.14.17.19.16.23.14.27.11.29.08.31.04ZM165.38,121.39s0,.04,0,.06l-.06.24s-.01.04-.02.06l-.12.23s0,0,0,.01l1.41-1,.06-.1v-.04s0-.04,0-.04l-.02-.05-.04-.05-.07-.06-.24-.17s-.01,0-.02-.01l-.06-.04s-.02-.01-.02-.02l-2.09-1.48-.95.67h.18s.02,0,.03,0l.34.04s.02,0,.03,0l.33.09s.02,0,.03.01l.3.12s.02.01.03.02l.26.16s.01,0,.02.01h0s0,0,0,0c0,0,0,0,0,0h0s.01.01.02.02l.22.19s.02.02.03.03l.18.21s.02.03.03.05l.12.23s.02.04.02.06l.06.24s0,.04,0,.06v.19s0,.04,0,.07ZM168.09,118.96l3.97,2.81v-18.24l-5.37-3.8v18.24l1.29.91s.02.01.03.02l.05.03s.02.02.03.02ZM172.59,117.59v4.17l3.64-2.57-.1.04-.44.16s-.02,0-.03,0l-.4.1s-.02,0-.03,0l-.38.04s-.02,0-.04,0h-.36s-.03-.01-.04-.02l-.33-.07s-.03,0-.05-.01l-.3-.12s-.03-.01-.05-.02l-.27-.17s-.03-.02-.04-.03l-.23-.22s-.02-.02-.03-.04l-.19-.27s-.02-.03-.02-.04l-.15-.31s-.01-.02-.01-.04l-.11-.36s0-.02,0-.03l-.03-.2ZM174.44,118.77h.31s.34-.03.34-.03l.36-.09.4-.14.4-.18.41-.23.42-.28.42-.32.42-.36.41-.39.4-.43.38-.45.36-.48.34-.5.32-.51.29-.52.25-.52.22-.52.18-.51.14-.5.1-.48.06-.46v-.28s-2.65-1.89-2.65-1.89h-.04s-.37.18-.37.18l-.38.21-.39.25-.39.29-.39.32-.39.36-.38.38-.37.41-.35.43-.33.45-.31.47-.29.48-.26.48-.24.49-.2.48-.17.48-.14.46-.1.45-.07.43-.04.59v.32s.06.32.06.32l.07.29.11.25.07.12s.02.04.02.05l.07.1.19.18.22.14.25.1.1.03.16.03ZM182.1,111.22l-.03.26-.11.53-.15.54-.2.55-.23.56-.27.56-.31.56-.34.54-.37.53-.39.51-.41.49-.53.55,6.91-4.89-.09.04-.44.16s-.02,0-.03,0l-.4.09s-.02,0-.03,0l-.38.04s-.03,0-.04,0h-.36s-.03-.01-.04-.02l-.33-.07s-.03,0-.05-.01l-.3-.12s-.03-.01-.05-.02l-.27-.17s-.03-.02-.04-.03l-.23-.22s-.02-.02-.03-.04l-.19-.27s-.02-.03-.02-.04l-.15-.31s-.01-.02-.01-.04l-.09-.28ZM56.66,105.29l15.79,11.16.73-.21v-5.45s0,0-.01,0c-.03.02-.07.04-.11.04l-.13.02s-.07,0-.11,0l-.15-.04s-.05-.01-.07-.03l-.16-.09s-.02-.01-.03-.02c0,0-.02-.01-.02-.02l-.16-.14s-.02-.02-.02-.02l-.1-.12s-.02-.03-.03-.04l-.03-.04s-.02-.02-.02-.03l-.06-.09s-.02-.02-.02-.03l-.04-.07-.1-.23s-.01-.03-.02-.04l-.05-.19s0-.04,0-.06v-.17s0-.06.02-.09l.05-.13s.04-.08.08-.11h.01s.04-.05.06-.07l.13-.09s.01,0,.02-.01c0,0,0,0,.01,0l.03-.02s.06-.03.09-.03l.13-.02s.07,0,.11,0l.15.04s.04.01.07.03l.16.09s0,0,0,0c0,0,0,0,0,0h0s.03.02.04.03l.16.14s.02.02.03.03l.11.13v-5.57l-4.6-3.25s0,.05,0,.07v1.65s0,.02,0,.02h0s-.01.07-.03.1c-.02.03-.04.06-.07.08,0,0-.01,0-.02.01l-.23.16s-.03.02-.04.02h0s0,0-.01,0h0s0,0,0,0c-.03.02-.07.02-.11.02-.02,0-.05,0-.07-.01h0s0,0,0,0c-.01,0-.03-.01-.04-.02h0s-.02-.01-.04-.02l-.58-.41-.59.2s-.03,0-.05.01c-.03,0-.06,0-.09,0-.01,0-.02,0-.03,0l.19.13s.02.02.03.02l.26.22.27.27.25.3.23.32.2.34.17.34.13.34s0,.02,0,.03l.08.31s0,.02,0,.03l.04.29s0,.02,0,.04v.26s0,.03,0,.05l-.04.23s0,.04-.02.06l-.08.19s-.02.04-.04.06l-.12.15s-.03.03-.04.04l-.07.05s0,0,0,0c0,0,0,0-.01.01l-.12.08s-.03.02-.05.03l-.06.04s-.03.02-.05.02l-.12.04s-.03.01-.05.01l-.13.02s-.03,0-.04,0h-.06s-.39.28-.39.28l.2.19.25.29.23.31s0,0,.01.01c0,0,0,0,0,0,0,0,0,0,0,0l.18.31.16.34.13.33s0,.02,0,.03l.07.3s0,.02,0,.04l.03.28s0,.03,0,.04l-.02.25s0,.04-.01.06l-.06.21s-.02.05-.03.07l-.1.16s-.03.04-.05.06l-.09.08s0,0-.01.01c0,0,0,0,0,0,0,0,0,0,0,0,0,0-.01,0-.02.01l-.29.21s-.03.02-.04.02c-.02.02-.05.03-.08.04l-.18.06s-.05.01-.08.01h-.21s-.04,0-.06,0l-.23-.05s0,0,0,0c-.04,0-.08,0-.12-.02l-.18-.07s-.02,0-.03-.02l-.24-.13s-.02-.01-.03-.02l-.24-.17s-.01-.01-.02-.02l-.23-.21-.24-.25-.33-.43s0,0,0,0l-.03-.05-.17-.28-.15-.31-.12-.31s0-.02,0-.03v-.03s-.03,0-.04,0l-.11-.02s0,0,0,0c0,0,0,0,0,0,0,0,0,0-.01,0h-.05s-.03-.02-.05-.03l-.1-.05s-.04-.02-.05-.03l-.09-.08s-.03-.03-.04-.05l-.05-.07-.26-.14s-.02-.01-.03-.02l-.26-.19s-.02-.01-.02-.02l-.24-.22-.16-.19c-.09,0-.17-.04-.22-.11l-.1-.14c-.05-.07-.06-.16-.03-.24l-.07-.12-.16-.32s0-.02-.01-.03l-.11-.31s0-.02,0-.03l-.07-.3s0-.02,0-.04v-.05s-.06-.08-.06-.08c-.01-.02-.02-.03-.03-.05l-.04-.11s-.01-.04-.02-.07v-.11s-.02-.02-.02-.03v-.03h0s0-.02,0-.03v-.11s.01-.04.02-.05v-.04s.01-.05.02-.07l.04-.1s.02-.04.03-.06l.07-.09s.03-.03.04-.04l.09-.08s0,0,.01-.01c0,0,0,0,0,0l.06-.04.04-.06s.02-.03.03-.04l.16-.17s.03-.03.04-.04l.03-.02s.04-.04.06-.05l.51-.36s0,0,0,0l.35-.27s0,0,.01,0l.59-.42s0,0,.01,0h0s0,0,0,0c0,0,0,0,0,0h0s.04-.02.06-.03h0s0,0,0,0h0s0,0,0,0l.14-.12s0-.03.01-.04l.06-.13s.01-.03.02-.04l.08-.11s.02-.03.03-.04l.09-.09s.03-.02.04-.03c0,0,0,0,0,0l.12-.08h0s.01-.01.02-.01l.09-.05s.04-.02.06-.03l.19-.06s.05-.01.07-.01h.21s.04,0,.06,0l.23.04s.03,0,.04.01l.25.09s.02,0,.03.02l.24.13s0,0,0,0l-1.76-1.99-.54-.38s-.01,0-.02-.01c0,0,0,0,0,0,0,0,0,0,0,0-.03-.02-.05-.05-.07-.08-.02-.03-.03-.07-.03-.11,0,0,0,0,0-.01v-1.65h0s0-.05.01-.08c0-.02.01-.03.02-.05.01-.03.03-.05.05-.07.01-.01.02-.02.04-.03l.23-.16s.03-.02.05-.03c.03-.01.06-.02.09-.02l-8.97-6.34v5.93s0,0,.01,0l.03-.02s.06-.03.09-.03l.13-.02s.07,0,.11,0l.15.04s.05.01.07.03l.16.09s.03.02.05.03l.16.14s.02.02.03.03l.15.18s.02.02.02.03l.13.2s.01.02.02.04l.09.21s.01.03.02.04l.04.17.43-.31s0,0,0,0c0,0,0,0,0,0,0,0,0,0,0,0,0,0,0,0,0,0,0,0,0,0,0,0,0,0,0,0,0,0t0,0s0,0,0,0c0,0,0,0,0,0,0,0,0,0,0,0,0,0,0,0,0,0s0,0,0,0h0s.03-.02.05-.02h0s0,0,0,0c0,0,0,0,0,0,0,0,0,0,0,0,0,0,0,0,0,0,0,0,0,0,.01,0l.14-.12s0-.03.01-.04l.06-.13s.02-.03.03-.04l.08-.11s.02-.03.03-.04l.09-.09s.02-.02.03-.03c0,0,0,0,.01-.01l.12-.08h0s0,0,0,0c0,0,.01,0,.02-.01l.09-.05s.04-.02.06-.02l.19-.06s.05-.01.07-.01h.21s.04,0,.06,0l.24.04s.03,0,.04.01l.25.09s.02,0,.03.02l.26.14s.02,0,.02.02l.26.18s.02.01.03.02l.26.22.27.27.25.3.23.32.2.34.17.34.13.34s0,.02,0,.03l.08.31s0,.02,0,.03l.04.29s0,.03,0,.04v.26s0,.03,0,.05l-.04.23s0,.04-.02.05l-.08.2s-.02.04-.04.06l-.12.15s-.02.03-.04.04l-.06.05s-.01.01-.02.02l-.09.06s-.01,0-.02.01h0s-.02.02-.04.03l-.07.04s-.03.02-.05.02l-.12.04s-.03,0-.05.01l-.13.02s-.03,0-.05,0h-.06s-.52.36-.52.36c-.03.02-.05.03-.08.04l1.63,1.16s.02.01.02.02l.06.05s.02.02.02.03l.05.07s.01.02.01.02l.04.08s0,.02.01.04v.03s.01.03.01.04c0,0,0,0,0,.01,0,.01,0,.03,0,.04v2.83h0s0,.02,0,.02c0,0,0,0,0,.01v.02s-.01.05-.02.07c-.01.03-.03.07-.06.1-.02.02-.03.04-.06.05l-.26.18s-.01,0-.02.01c0,0,0,0,0,0,0,0,0,0,0,0,0,0-.01,0-.02,0-.03.01-.06.02-.08.03-.03,0-.07,0-.09,0-.02,0-.06-.01-.08-.02-.01,0-.05-.02-.06-.03h-.02s-.01-.02-.02-.03l-2.4-1.7-.94-.43s-.02,0-.02-.01c0,0,0,0,0,0-.01,0-.04-.02-.05-.03,0,0-.03-.02-.04-.03-.01-.01-.04-.04-.05-.05,0-.01-.03-.04-.04-.06,0,0-.02-.04-.02-.05,0-.01-.02-.05-.02-.07,0,0,0-.04,0-.05,0,0,0,0,0,0,0,0,0,0,0,0,0,0,0,0,0,0,0-.01,0-.02,0-.03v-.52s0-.01,0-.02c0,0,0-.04,0-.05,0-.02,0-.05.02-.07,0,0,.01-.03.01-.04,0-.01.02-.04.02-.05,0,0,0-.01.02-.02v-.38s-.01-.02-.01-.02c0,0-.02-.03-.02-.05l-.04-.02s-.04-.02-.05-.04l-.09-.08s-.03-.03-.04-.05l-.05-.07-.26-.14s-.02-.01-.03-.02l-.26-.19s-.02-.01-.02-.02l-.24-.22-.17-.19c-.08,0-.17-.04-.22-.11l-.1-.13c-.05-.07-.06-.16-.04-.24,0,0,0,0,0,0h0s-.07-.12-.07-.12l-.16-.32s0-.02-.01-.03v-.02s0,2.01,0,2.01l1.12,1.9ZM172.59,103.52v12.66l.03-.24.11-.53.15-.54.2-.55.23-.56.27-.56.31-.55.34-.55.37-.53.39-.51.41-.49.43-.46.44-.43.45-.39.46-.35.46-.3.46-.26.45-.21.44-.16s.02,0,.03,0l.4-.09s.02,0,.03,0l.38-.04s.02,0,.04,0h.36s.03.01.04.02l.33.07s.03,0,.05.01l.3.12s.03.01.05.02l.27.17s.03.02.04.03l.23.22s.02.02.03.04l.19.27s.02.03.02.04l.15.31s.01.02.01.04l.09.28.03-.26.11-.53.15-.54.2-.55.24-.56.27-.56.3-.55.34-.55.36-.53.39-.51.41-.49.43-.46.44-.42.45-.39.46-.35.46-.3.46-.26.45-.21.44-.15s.02,0,.03,0l.4-.09s.02,0,.03,0l.38-.04s.03,0,.04,0h.36s.03.01.04.02l.33.07s.03,0,.04.01l.3.12s.03.01.05.02l.27.17s.03.02.04.03l.23.22s.02.02.03.04l.19.27s.02.02.02.04l.15.31s.01.03.02.04l.11.36s0,.02,0,.03l.07.4s0,.02,0,.03l.02.42s0,.02,0,.03h0s-.02.46-.02.46l-.07.51-.11.53-.16.54-.19.55-.24.56-.27.56-.31.55-.34.54-.37.53-.39.51-.41.49-.52.55,5.1-3.61v-18.24l-10.72,7.58.1-.04.44-.16s.02,0,.03,0l.4-.09s.02,0,.03,0l.38-.04s.03,0,.04,0h.36s.03.01.04.02l.33.07s.03,0,.05.01l.3.12s.03.01.05.02l.27.17s.03.02.04.03l.23.22s.02.03.03.04l.19.27s.02.02.02.04l.15.31s.01.03.02.04l.11.36s0,.02,0,.03l.07.4s0,.02,0,.03l.02.42s0,.02,0,.04l-.02.46-.07.51-.11.53-.16.54-.19.55-.24.56-.27.56-.31.55-.34.54-.37.53-.39.51-.41.49-.43.46-.44.42-.45.39-.46.35-.46.3-.46.26-.45.21-.44.16s-.02,0-.03,0l-.4.09s-.02,0-.03,0l-.38.04s-.03,0-.04,0h-.36s-.03-.01-.04-.02l-.33-.07s-.03,0-.05-.01l-.3-.12s-.03-.01-.05-.02l-.27-.17s-.03-.02-.04-.03l-.23-.22s-.02-.02-.03-.04l-.19-.27s-.02-.03-.02-.04l-.15-.31s-.01-.02-.01-.04l-.11-.36s0-.02,0-.03l-.07-.39s0-.02,0-.03l-.02-.43s0-.02,0-.02c0,0,0,0,0,0l.02-.46.07-.51.11-.53.15-.54.2-.55.24-.56.27-.56.3-.55.34-.55.36-.53.39-.51.41-.49.53-.55-7.47,5.28ZM183.89,112.09h.31s.34-.03.34-.03l.36-.09.39-.14.4-.18.41-.23.42-.28.42-.32.42-.36.41-.39.4-.43.38-.45.36-.48.34-.5.32-.51.29-.52.25-.52.22-.52.18-.51.14-.5.1-.48.06-.46v-.28s-2.65-1.89-2.65-1.89h-.04s-.37.18-.37.18l-.38.21-.39.25-.39.29-.39.32-.39.36-.38.38-.37.41-.35.43-.33.45-.32.47-.29.48-.26.48-.24.49-.2.48-.17.48-.14.46-.1.45-.07.43-.04.59v.32s.06.32.06.32l.08.29.1.25.07.12s.02.04.03.05l.07.1.19.18.22.14.25.1.1.03.16.03ZM154.86,110.19h.04s.1-.03.1-.03l.13-.08.15-.13.15-.16.13-.19.1-.19.06-.18.02-.14-.02-.1h-.03s-.1.03-.1.03l-.14.08-.15.13-.15.16-.13.19-.1.19-.06.18-.02.14.02.1ZM179.35,108.55l1.99,1.4-.03-.2-.09-.31-.14-.29-.15-.2-.19-.18-.22-.14-.26-.1s-.03,0-.05,0l-.26-.03h-.28s-.32.05-.32.05ZM66.68,109.75l.1.1-.03-.07-.08-.15-.11-.14-.11-.1.03.08.08.15.11.14ZM67.17,109.44l.06.1s.01.02.02.04l.04.11v-.02s-.02-.23-.02-.23c-.01,0-.03,0-.04,0h-.05ZM154.26,109.56l.13.09.02-.05s0-.03.02-.04l.11-.23s.01-.02.02-.03l.15-.22s.01-.02.02-.03l.17-.19s.02-.02.03-.03l.18-.15s.02-.02.04-.03l.05-.03-.07-.05h-.05s-.1.03-.1.03l-.14.08-.15.13-.15.16-.13.19-.1.19-.06.2ZM65.66,109.27l.02.02.1.12v-.06s-.02-.05-.01-.07v-.07s-.07.05-.11.06ZM153.68,109.28l.07.04.03-.09s0-.02.01-.04l.1-.22s0-.02.02-.03l.13-.21s.01-.02.02-.03l.16-.2s.01-.02.02-.02l.17-.17s.02-.02.03-.02l.18-.13s.03-.02.04-.02l.06-.03h-.02s-.07,0-.07,0l-.12.04-.14.09-.15.13-.15.16-.14.19-.11.2-.09.2-.05.17ZM151.82,108.9v.32l.22-.16-.22-.16ZM151.71,107.92l1.5,1.06v-.03s.02-.02.02-.03l.1-.23s0-.02.01-.03l.13-.22s.01-.02.02-.03l.16-.21s.01-.02.02-.02l.17-.18s.02-.02.02-.02l.18-.15s.02-.02.03-.02l.11-.07-1.43-1.01h-.06s-.1.01-.1.01l-.13.06-.16.11-.16.15-.15.18-.13.2-.09.17s0,.02,0,.03c0,0,0,.01,0,.02l-.08.26ZM65.79,108.45l.07.14s.02.04.02.06l.04.13s.01.06,0,.09h0s.03-.02.05-.03l.08-.04s.02-.01.03-.02c.04-.02.08-.02.11-.02h.12s.06,0,.09.02h.01s-.02-.06-.02-.06c0-.03,0-.06,0-.09v-.11c.01-.05.03-.1.07-.14l.03-.03s-.06.02-.09.03h-.09s-.09.01-.13,0l-.11-.04s-.05-.02-.07-.04l-.11-.09s-.03-.03-.04-.04l-.04-.05s-.02.04-.03.05l-.05.07s-.04.04-.07.06l.1.12s.01.02.02.03c0,0,.01.02.02.03ZM66.66,108.16s-.02.03-.03.05l-.03.03s.06-.02.09-.03h0s-.04-.05-.04-.05ZM64.68,107.64h.17s.08-.01.08-.01c0,0,0,0,0,0l-.13-.06s-.02-.01-.03-.02c0,.01-.02.02-.02.03l-.06.06ZM64.22,107.03h.06s.05,0,.05,0v-.03s.01-.06.01-.06l-.13.09ZM178.57,106.99h.31s.34-.03.34-.03l.36-.08.39-.14.4-.18.41-.23.42-.28.42-.32.42-.36.41-.39.4-.43.38-.45.36-.48.34-.5.31-.51.29-.52.25-.52.22-.52.18-.51.14-.5.1-.48.06-.46v-.28s-2.65-1.89-2.65-1.89h-.04s-.37.18-.37.18l-.38.21-.39.25-.39.29-.39.32-.39.36-.38.38-.37.41-.35.43-.33.45-.31.47-.29.48-.26.48-.24.49-.2.48-.17.48-.14.46-.1.45-.07.43-.04.59v.32s.06.32.06.32l.08.29.1.25.07.12s.02.03.02.05l.07.1.19.18.22.14.25.1.27.05ZM64.99,106.91l.21.04.21-.02.05-.02-.03-.19-.04-.19-.06-.2-.08-.21-.21-.4-.41.3.02.04.16.35.06.18.05.28.08.04ZM63.71,106.7l.03.02.47-.33-.11-.2-.13-.19-.14-.17-.23-.22-.1-.07-.13-.07-.15-.04-.02.04-.02.09v.14s.05.19.05.19l.08.21.11.21.14.21.16.19ZM193.84,88.49v18.22l.07-.05.43-.39.37-.41.32-.44.26-.45.21-.46.15-.47.09-.48.03-.49v-16.74s0,.01,0,.02l-.28.48s0,.02-.02.02l-.34.46-.41.46-.46.43-.41.31ZM65.46,105.41h0s.14.25.14.25l.12.24.1.24.08.24.05.21.04-.03-.03-.21-.07-.29-.17-.42-.16-.29-.1.07ZM60.87,106.4l.1.07v-.12s-.07.04-.1.05ZM66.35,105.78l.18.5.14-.1-.41-1.15-.14.1.23.64s0,0,0,0ZM67.18,104.38l.41,1.15.14-.1-.41-1.15-.14.1ZM64.03,105.26l.19.19.41-.3-.31-.32-.1.12-.13.2-.05.11ZM60.71,105.03l.26.28v-.33s-.07.04-.1.05c-.03,0-.08.01-.11.01h-.03s-.01,0-.02,0ZM63.51,104.91l.07.04.02-.04.08-.14.19-.25-.23-.12-.03.04-.09.2-.02.11v.1s.01.08.01.08ZM62.75,104.88v.02s.03-.02.03-.02c.01,0,.03-.01.04-.02h0s0-.04,0-.05v-.07s-.06.15-.06.15ZM64.73,104.5l.32.34.1-.07-.33-.33-.09.06ZM65,103.9l.53.41.14-.1-.28-.22s-.02-.02-.03-.02l-.62-.49-.14.1.4.31s0,0,0,0ZM64.11,104.04l.19.12.06-.04-.22-.1-.04.03ZM65.65,102.83l.94.73.14-.1-.94-.73-.14.1ZM188.8,101.87l1.99,1.4-.03-.2-.09-.31-.14-.29-.14-.2-.19-.18-.21-.14-.27-.1s-.03,0-.04,0l-.26-.03h-.28s-.32.05-.32.05ZM166.88,99.21l5.44,3.85,21.09-14.92.49-.38.43-.39.37-.42.31-.42.27-.45.21-.46.15-.47.09-.48v-.22s-7.24,0-7.24,0l.73.52s.03.02.04.03c.02.02.04.05.05.08.02.04.03.08.03.11,0,.04,0,.07-.02.11,0,0,0,0,0,0-.01.03-.03.05-.05.08-.01.01-.02.02-.04.03l-.34.24s-.03.02-.05.03c-.04.02-.08.02-.11.03-.04,0-.08,0-.11-.03-.02,0-.03-.02-.04-.03l-1.7-1.2h-.33l-.06.29s0,.03-.01.05l-.13.32s-.01.03-.02.04l-.2.31s-.02.02-.03.03l-.26.28s-.02.02-.03.03l-.31.25s0,0,0,0c0,0,0,0-.01,0l-18.58,13.14ZM57.83,102.8h.17s.08-.01.08-.01c0,0,0,0,0,0l-.13-.06s-.02-.01-.03-.02c0,0-.02.02-.02.03l-.06.06ZM57.37,102.19h.06s.05,0,.05,0v-.03s.01-.06.01-.06l-.13.09ZM58.15,102.07l.21.04.21-.02.05-.02-.03-.19-.05-.19-.06-.2-.08-.21-.1-.21-.1-.18-.41.29.11.22.07.18.06.17.04.17s0,.02,0,.03v.08s.09.04.09.04ZM56.86,101.86l.02.02.46-.33-.11-.2-.12-.18-.15-.19-.22-.21-.1-.07-.13-.08-.15-.04-.02.04-.02.09v.15s.05.18.05.18l.08.21.11.21.14.21.16.18ZM58.62,100.57l.14.25.12.24.1.24.08.24.05.21.04-.03-.03-.22-.11-.39-.19-.43-.11-.19-.1.07ZM66.92,101.35v.38l.54-.18v-.38l-.54.18ZM59.51,100.94l.18.5.14-.1-.41-1.15-.14.1.23.64s0,0,0,0ZM65.75,99.74l.99,1.12.4-.13-1.39-.99ZM60.34,99.54l.41,1.15.14-.1-.41-1.15-.14.1ZM57.18,100.42l.19.19.41-.3-.31-.32-.1.12-.12.19-.05.12ZM65.41,100.3l.19.22s.03-.05.05-.07h0s0,0,0,0l-.2-.23s-.03.06-.05.09ZM33.24,100.49h.13s.13,0,.13,0l.2-.06v-2.99l-.11.02s-.02,0-.04,0h-.16s-.02.01-.04.01h-.16s-.03-.01-.04-.02l-.11-.02v2.99l.08.03.12.03ZM56.66,100.07l.07.03.02-.04s0-.02.01-.02l.07-.12.19-.25-.24-.12-.03.04-.09.2-.02.11v.1s.01.08.01.08ZM34.22,97.19v2.89l2.1-1.49v-.04s-.03-.04-.03-.06v-.06s0,0,0-.01c0,0,0-.01,0-.02v-2.67l-2.07,1.46ZM29.5,97.95l3.01,2.13v-2.89l-3.01-2.13v2.89ZM55.9,100.04v.02s.03-.02.03-.02c.01,0,.03-.01.04-.02h0s0-.04,0-.05v-.08s-.07.15-.07.15ZM57.88,99.66l.22.22.1.12.1-.07-.33-.33-.09.06ZM55.54,98.67v.84l.04-.03.04-.06s.02-.03.03-.04l.16-.17s.03-.03.05-.04l.04-.03s0,0,.01-.01c.01-.01.02-.02.04-.03l.05-.04-.09-.05s-.02-.01-.03-.02c0,0,0,0,0,0,0,0-.01-.01-.02-.02l-.16-.14s-.02-.02-.03-.03l-.1-.12s-.02-.02-.02-.03ZM58.15,99.06l.53.41.14-.1-.94-.73-.14.1.4.31s0,0,0,0ZM57.27,99.19l.19.12.06-.04-.21-.1-.04.03ZM58.81,97.99l.94.73.14-.1-.94-.73-.14.1ZM183.49,96.77l1.99,1.41-.03-.2-.09-.31-.14-.29s0,0,0,0l-.15-.2-.19-.18-.22-.14-.27-.1s-.03,0-.04,0l-.26-.03h-.28s-.32.05-.32.05ZM33.24,96.95h.13s.13,0,.13,0l.12-.03.11-.04.1-.06,2.28-1.61-1.06-.75v.14s0,.06,0,.08c0,.02,0,.03,0,.05l-.06.24s-.01.04-.02.06l-.12.23s-.02.03-.03.05l-.17.21s-.02.02-.03.03l-.22.19s-.02.02-.04.03l-.27.16s-.02.01-.03.02l-.3.12s-.02,0-.03.01l-.33.08s-.02,0-.03,0l-.34.04s-.02,0-.03,0h-.35s-.02,0-.03,0l-.34-.04s-.02,0-.03,0l-.31-.08,1.14.79.11.04.12.03ZM32.62,95.69h.32l.31-.04.29-.08.27-.11.23-.14.19-.16.14-.17.09-.18.05-.19-.05-.18-.09-.18-.14-.17-.19-.16-.23-.14-.27-.11-.29-.08-.31-.04h-.32l-.31.04-.29.08-.27.11-.23.14-.19.16-.14.17-.09.18-.04.19.04.18.09.18.14.17.19.16.23.14.27.11.29.08.31.04ZM29.4,94.34l1.33.94s0,0,0-.01l-.12-.23s-.02-.04-.02-.06l-.06-.24s0-.03,0-.04c0-.03,0-.06,0-.09v-.02s0-.16,0-.16c0-.02,0-.04,0-.06l.06-.24s.01-.04.02-.06l.12-.23s.02-.03.03-.05l.17-.21s.02-.02.03-.03l.22-.19s.02-.02.04-.03l.27-.16s.02-.01.04-.02l.3-.12s.02,0,.03-.01l.33-.08s.02,0,.03,0l.34-.04s.02,0,.03,0h.18l-.95-.67-2.51,1.78-.06.1v.04s0,.04,0,.04l.02.05.04.05.07.06ZM4.94,73.72l18.36,12.98v-18.23h0s-18.35-12.99-18.35-12.99v18.24ZM185.58,82.2v3.05l.09-.1.17-.27.11-.28.06-.29v-.14s0-2.4,0-2.4l-.2.22s-.02.02-.03.03l-.21.17ZM188.49,83.92h7.25v-.22s-.1-.48-.1-.48l-.15-.47-.21-.46-.26-.45-.33-.44-.38-.42-.43-.39-.47-.36-21.09-14.92-2.69,1.9,15.76,11.15s0,0,0,0l.07.05.29.25s.02.02.03.02l.23.26s.02.02.02.03l.19.28s.01.02.02.03l.14.3s.01.03.02.04l.09.31s0,.03,0,.04l.04.32s0,.03,0,.04v.03s0,.03,0,.04v3.51h.3l1.7-1.2s.03-.02.04-.02h0s0,0,0,0h0s.07-.02.11-.02h0s.06,0,.1.02h0s0,0,0,0c0,0,0,0,0,0,0,0,.02,0,.02.01h0s.03.02.04.02l.34.24s.03.02.04.03c.02.02.04.05.06.08.02.04.03.08.03.12,0,.03,0,.07-.02.1-.01.03-.03.06-.06.08-.01.01-.02.02-.04.03l-.34.24s-.02.01-.03.02l-.37.26ZM185.35,81.49l.09.14.23-.25.17-.27.11-.28.06-.29v-.1s0-.03,0-.05v-.02s0,.03,0,.03c0,.02,0,.04-.01.06l-.1.31s-.01.03-.02.05l-.17.29s-.02.03-.03.04l-.23.27s-.02.02-.03.03l-.07.05ZM4.32,75.16l.09.1v-1.28l-.21-.18s-.02-.02-.03-.03l-.2-.23v.58s0,.04,0,.07v.05s.01.12.01.12l.05.25.12.28.17.27ZM4.32,73.16l.09.1v-18.17l-.21-.18s-.02-.02-.03-.03l-.2-.22v17.66s.07.29.07.29l.12.28.17.27ZM3.28,62.12l.16.26v-7.2l-.14.43-.2.72-.16.71-.12.69-.08.66-.04.64v.61s.04.58.04.58l.08.54.12.5.15.45.19.42ZM2.4,61.57l.13.16-.11-.33-.13-.55-.09-.58-.04-.61v-.64s.04-.67.04-.67l.08-.69.13-.71.17-.73.21-.75.25-.76.4-1.05v-.35h0v-1.65l-.07.13-.35.75-.31.75-.28.74-.24.73-.2.72-.16.7-.12.68-.08.66-.04.63v.6s.04.57.04.57l.08.53.12.5.15.44.19.42.22.37ZM1.27,60.7l.04.06-.07-.2-.13-.55-.09-.58-.04-.61v-.64s.04-.67.04-.67l.08-.69.13-.71.17-.73.21-.75.25-.76.29-.77.32-.77.36-.77.62-1.19v-.84h0s0-.05,0-.07v-.06s-.18.3-.18.3l-.41.75-.38.76-.35.76-.31.75-.28.75-.24.74-.2.72-.16.71-.12.69-.08.66-.04.64v.61s.04.57.04.57l.08.54.12.5.15.45.19.42ZM4.32,54.27l.09.1v-3.05l-.21-.18s-.02-.02-.03-.03l-.2-.22v2.55s.07.29.07.29l.12.28.17.27ZM4.32,50.49l.23.25s0-.01.01-.02l.08-.12-.07-.05s-.02-.02-.03-.03l-.23-.27s-.02-.03-.03-.04l-.17-.29s-.02-.03-.02-.05l-.1-.31s-.01-.04-.01-.06h0s0,.03,0,.03c0,.01,0,.02,0,.03v.09s.06.29.06.29l.12.28.17.27ZM9.76,42.29l-.47.35-.61.49-.61.53-.6.57-.59.6-.58.63-.56.66-.54.68-.38.52,1.35-.95.57-.67.59-.64.6-.61.61-.58.62-.55.63-.51.34-.25-.37-.26ZM10.59,42.96l-.46.34-.61.49-.6.53-.4.38,2.27-1.6-.19-.14ZM11.05,42.64l.19.13,1.71-1.21-.41.19-.6.32-.6.37-.29.2ZM10.22,41.96l.36.26.47-.32.63-.38.63-.34.62-.29.61-.24.6-.19.57-.14.26-.19-.44.03-.52.08-.55.13-.57.18-.58.23-.59.28-.6.32-.61.37-.29.2ZM35.23,25.55l.18.13,1.38-.98-.48-.34h-.05s-.07,0-.07,0l-.12.04-.14.09-.16.13-.15.16-.14.18-.12.2-.09.19-.05.2ZM34.29,24.72l.11.08s0-.02.01-.03l.1-.22s.01-.02.02-.03l.13-.21s.01-.02.02-.02l.16-.2s.02-.02.02-.03l.17-.17s.02-.02.03-.02l.13-.09-.04-.03h-.05s-.1.03-.1.03l-.14.08-.15.13-.15.16-.13.19-.1.19-.06.2ZM56.98,8.89l-.47.35-.61.49-.61.53-.6.57-.59.6-.58.63-.56.66-.54.68-.38.52,1.35-.95.57-.67.59-.64.6-.61.61-.58.62-.55.63-.51.34-.25-.37-.26ZM57.81,9.57l-.46.34-.61.49-.6.53-.4.38,2.27-1.6-.19-.14ZM58.27,9.25l.19.13,1.72-1.21-.42.2-.6.32-.6.37-.29.19ZM57.45,8.57l.36.26.47-.32.63-.38.63-.34.62-.29.61-.24.6-.19.57-.14.26-.19-.44.03-.53.08-.54.13-.57.18-.58.23-.59.28-.6.32-.61.37-.3.2ZM73.15.97s.01,0,.02,0l.33.02s.03,0,.04,0l.31.07s.03,0,.04.01l.29.11s.03.01.04.02l.11.06.21-.15s.02-.01.03-.02c.02-.01.04-.02.07-.03h0s0,0,0,0c0,0,0,0,0,0,.02,0,.04,0,.06,0,.02,0,.04,0,.05,0h0s0,0,0,0c.02,0,.04.01.06.02l-.1-.06-.35-.15-.38-.11-.4-.07-.41-.02-.41.02-.4.07-.38.11-.35.15-.1.06s.04-.02.06-.02t0,0s.03,0,.04,0h0s0,0,0,0c.03,0,.05,0,.08.01h0s0,0,0,0h0s.03.01.04.02c.01,0,.02.01.03.02l.21.15.1-.06s.03-.01.04-.02l.29-.11s.03,0,.04-.01l.31-.07s.02,0,.04,0l.33-.02s.01,0,.02,0ZM83.57,131.48s-.01,0-.02,0l-.23-.02s-.03,0-.05,0l-.21-.06s-.04-.01-.06-.02l-.18-.1s-.04-.02-.05-.04l-.14-.13s-.04-.04-.05-.07l-.08-.15s-.03-.06-.03-.09l-.02-.16s0-.07,0-.1l.04-.16s.02-.06.04-.08l.1-.14s.03-.04.05-.06l.15-.12s.04-.03.06-.03l.19-.09s.04-.01.05-.02l.22-.05s.03,0,.05,0h.23s.03,0,.05,0l.22.04s.04,0,.05.01l.2.08s.04.02.05.03l.16.11s.04.03.06.05l.11.14s.03.05.04.08l.05.16s.02.07.01.1v.16s-.02.07-.03.1l-.07.15s-.03.05-.05.07l-.12.13s-.03.03-.06.05l-.17.11s-.03.02-.05.03l-.21.07s-.04.01-.05.01l-.22.03s-.02,0-.03,0ZM83.39,130.93h.17s.17,0,.17,0l.15-.05.12-.07.07-.08.03-.07v-.06s-.02-.06-.02-.06l-.06-.07-.1-.07-.14-.06-.17-.03h-.17s-.16.04-.16.04l-.13.06-.09.08-.05.07-.02.06v.06s.05.07.05.07l.08.08.12.07.16.04ZM163.17,122.29s0,0-.01,0h-.24s-.04-.02-.05-.02l-.22-.06s-.04-.01-.06-.02l-.19-.1s-.02-.01-.03-.02h0s0,0,0,0c-.01,0-.03-.02-.04-.03l-.14-.13s-.04-.04-.05-.07l-.08-.16s-.03-.06-.03-.1l-.02-.17s0-.07.01-.1l.05-.16s.02-.06.04-.09l.11-.15s.03-.04.06-.05l.17-.12s.04-.02.06-.03l.21-.08s.04-.01.06-.01l.23-.04s.04,0,.05,0h.24s.04.02.05.02l.22.06s.04.01.06.02l.18.1s.02.01.04.02c.01,0,.02.02.03.03l.14.13s.04.04.05.07l.08.16s.03.06.03.1l.02.17s0,.07-.01.11l-.05.16s-.02.06-.04.08l-.11.15s-.04.04-.06.06l-.03.02s-.06.05-.1.07l-.04.03s-.04.02-.06.03l-.21.08s-.04.01-.06.01l-.23.04s-.03,0-.04,0ZM162.98,121.75h.18s.18-.02.18-.02l.1-.04v-.51h-.02s-.17-.06-.17-.06h-.18s-.18.02-.18.02l-.15.06-.11.08-.06.08-.02.07v.06s.04.07.04.07l.08.08.13.07.17.04ZM133.9,112.87s-.03,0-.05,0l-.2-.04s-.05-.01-.07-.02h0s-.07-.03-.09-.05l-.07-.03s-.03-.02-.05-.03c-.01,0-.02-.02-.03-.03l-.04-.04s-.06-.05-.08-.08c-.02-.02-.04-.05-.05-.08-.02-.03-.03-.06-.04-.09,0-.02-.01-.04-.01-.05-.01-.03-.02-.06-.01-.1,0,0-.02-.02-.02-.03l-.12-.15s-.03-.05-.04-.08l-.05-.16s-.01-.05-.01-.07v-.05s0-.01,0-.02v-.11h0s0-.04,0-.05l.03-.16s.02-.06.03-.08l.08-.15s.03-.04.05-.06l.13-.13s.03-.03.05-.04l.17-.1s.03-.02.05-.02l.19-.06s.03,0,.05-.01l.21-.02s.03,0,.05,0h.21s.03.02.05.02l.2.05s.03,0,.04.01l.09.04s.02,0,.03.01c0,0,.01,0,.02.01l.13.08s.03.02.05.04l.12.12s.03.04.04.06l.07.14s.02.05.03.08v.06s.03.05.03.08v.04s0,.02,0,.02v.11s0,.02,0,.03c0,0,0,.01,0,.02l-.02.12s-.01.06-.03.08l-.08.16s-.03.05-.05.07l-.08.08v.05s-.01.08-.03.12c0,0,0,.01,0,.02-.01.03-.03.06-.05.08v.02s-.05.07-.07.09c-.02.02-.03.04-.05.05l-.14.1s-.05.03-.07.04l-.18.06s-.04.01-.07.01h-.2s-.01.01-.02.01ZM32.81,95.58s-.01,0-.02,0l-.23-.02s-.04,0-.05,0l-.21-.06s-.04-.01-.05-.02l-.18-.1s-.04-.02-.06-.04l-.14-.13s-.04-.04-.05-.06l-.08-.15s-.03-.06-.03-.09l-.02-.16s0-.07,0-.1l.04-.16s.02-.06.04-.09l.1-.14s.03-.04.05-.06l.15-.12s.04-.03.06-.03l.19-.09s.04-.01.05-.02l.22-.05s.03,0,.05,0h.23s.03,0,.05,0l.22.04s.04,0,.05.01l.2.08s.04.02.06.03l.16.11s.04.03.05.05l.11.14s.03.05.04.08l.05.16s.02.06.01.1v.16s-.02.07-.03.1l-.07.15s-.03.05-.05.07l-.12.13s-.03.03-.05.04l-.17.11s-.04.02-.05.03l-.21.07s-.03,0-.05.01l-.22.03s-.02,0-.03,0ZM32.63,95.04h.17s.17,0,.17,0l.15-.05.12-.07.07-.07.03-.07v-.06s-.02-.06-.02-.06l-.06-.07-.1-.07-.14-.06-.17-.03h-.17s-.16.04-.16.04l-.13.06-.09.08-.05.07-.02.06v.06s.05.07.05.07l.08.08.13.07.16.04ZM162.59,94.72h-10.35s-.07,0-.11-.02c0,0,0,0,0,0,0,0,0,0,0,0h0s-.03-.02-.05-.03l-.83-.59s0,0-.01,0c-.03-.02-.06-.05-.07-.09-.02-.03-.03-.07-.03-.11,0,0,0,0,0-.01h0v-27.62h0s0-.01,0-.02c0-.04.01-.08.03-.11,0,0,0,0,0,0,.02-.03.04-.06.07-.08h0s0,0,0,0c0,0,.01,0,.02-.01l.83-.59s.05-.03.07-.04c0,0,0,0,0,0h0s.05-.01.09-.01h10.35s.06,0,.09.01c0,0,0,0,0,0,0,0,0,0,0,0,.02,0,.05.02.07.03l.83.59s.01,0,.02.01c0,0,0,0,0,0h0s.05.05.07.08h0s0,0,0,0c.02.03.03.07.03.11,0,0,0,0,0,.01h0v27.62h0s0,.01,0,.02c0,.04-.01.07-.03.11-.02.03-.04.06-.07.09,0,0,0,0-.01,0l-.83.59s-.03.02-.05.03c0,0,0,0,0,0-.03.01-.07.02-.1.02ZM152.58,93.6h9.74v-27.08h-.08s-9.74,0-9.74,0v27.07h.08ZM139.11,82.74s0,0,0,0h-.24s-.04-.01-.05-.02l-.22-.05s-.04-.01-.05-.02l-.19-.1s-.04-.02-.06-.04l-.15-.13s-.04-.04-.05-.07l-.09-.15s-.01-.02-.02-.03c0,0,0-.02-.01-.03,0-.01,0-.02,0-.04l-.02-.13s0-.02,0-.02h0s0-.02,0-.03v-.11s0-.02,0-.02c0-.02,0-.05,0-.07l.04-.16s.02-.06.04-.09l.11-.15s.03-.04.06-.06l.16-.12s.04-.02.06-.03l.21-.08s.04-.01.06-.02l.23-.04s.03,0,.05,0c0,0,0,0,.01,0h.21s.01,0,.02,0c.02,0,.04,0,.05,0l.22.05s.04.01.06.02l.19.1s.04.02.06.04l.15.13s.04.04.05.07l.05.09s.03.05.04.07c.01.03.02.06.03.09,0,0,0,0,0,0h0s.01.09.01.09c0,.03.01.05.01.08v.02h0v.12s0,.05,0,.07l-.05.16s-.02.06-.04.09l-.11.15s-.03.04-.06.06l-.16.12s-.04.02-.06.03l-.21.08s-.04.01-.05.02l-.23.04s-.03,0-.05,0ZM90.71,82.2s-.01,0-.02,0l-.24-.02s-.04,0-.05-.01l-.22-.07s-.04-.01-.06-.02l-.18-.11s-.04-.03-.06-.04l-.13-.13s-.02-.03-.03-.04c0-.01-.02-.03-.02-.04l-.07-.15s-.02-.05-.02-.08v-.1s-.01-.02-.01-.03c0,0,0,0,0,0h0v-.13s0-.03,0-.05h0s0-.07.02-.11l.06-.16s.03-.06.05-.08l.12-.14s.04-.04.06-.05l.17-.11s.04-.02.06-.03l.21-.07s.03-.01.05-.01h.02s0,0,0,0l.21-.03s.01,0,.04,0c0,0,.02,0,.02,0l.21.02s.01,0,.02,0h0s.04,0,.05.01l.22.07s.04.01.06.02l.19.11s.04.03.06.05l.06.06s.05.04.07.06c.01.02.03.04.04.06,0,.02.01.03.02.05l.06.13s.02.06.02.1v.04s.01.05.01.08v.12h0s0,.02,0,.03v.06s-.01.05-.02.07l-.06.16s-.03.06-.05.08l-.12.14s-.04.04-.06.05l-.17.11s-.04.02-.06.03l-.21.08s-.04.01-.06.01l-.23.03s-.02,0-.03,0ZM171.18,80.91s-.01,0-.02,0l-.24-.02s-.04,0-.05,0l-.22-.06s-.04-.01-.06-.02l-.19-.1s-.04-.03-.06-.04l-.14-.14s-.04-.05-.05-.07l-.07-.15s0-.01,0-.02c0-.01-.01-.03-.01-.04,0-.01,0-.02,0-.03v-.1s-.02-.02-.02-.03h0v-.13s0-.03,0-.05c0-.03,0-.07.01-.1l.06-.16s.03-.06.05-.08l.12-.14s.04-.04.06-.05l.17-.12s.04-.02.06-.03l.21-.08s.04-.01.06-.01l.23-.03s.03,0,.04,0c.01,0,.01,0,.02,0l.23.02s.04,0,.06,0l.22.06s.04.01.06.02l.19.1s.04.03.06.04l.14.14s.04.05.05.07l.05.1s.02.03.03.05c0,.02.02.04.02.06,0,0,0,0,0,0,0,.02,0,.03,0,.05v.04s.01.05.01.08v.11s0,.01,0,.02v.06s0,.05-.02.07l-.06.16s-.03.06-.05.08l-.12.14s-.04.04-.06.05l-.17.12s-.04.02-.06.03l-.21.08s-.04.01-.05.01l-.23.03s-.02,0-.04,0ZM137.77,48.95s0,0-.01,0h-.23s-.02-.01-.03-.01h0s0,0,0,0c-.01,0-.02,0-.03,0h0s0,0,0,0c0,0,0,0,0,0h0l-.22-.06s-.04-.01-.06-.02l-.19-.1s-.04-.03-.06-.04l-.14-.13s-.04-.04-.05-.07l-.08-.16s-.02-.05-.03-.08l-.02-.12s0-.02,0-.03c0,0,0-.02,0-.02v-.11s0-.04,0-.05h0s0-.06.01-.09l.05-.16s.02-.05.04-.08l.1-.14s.03-.04.05-.05l.15-.12s.03-.02.05-.03l.18-.08s.03-.01.05-.02l.2-.05s.03,0,.05,0h.21s.03,0,.04,0h.11s0,.01.01.01c.01,0,.02,0,.03,0l.17.04s.03,0,.05.02l.18.08s.04.02.05.03l.14.11s.03.03.05.05l.1.13s.03.04.04.07l.06.15s.02.06.02.09h0s0,.04,0,.06v.03s0,0,0,0h0s0,0,0,0c0,0,0,0,0,0h0v.12s0,.01,0,.02v.04s0,.04-.01.06l-.05.16s-.02.06-.04.08l-.11.15s-.03.04-.06.05l-.17.12s-.04.02-.06.03l-.21.08s-.04.01-.05.01l-.23.04s-.03,0-.04,0ZM89.84,48.01s-.03,0-.04,0l-.23-.04s-.04,0-.06-.02l-.21-.08s-.04-.02-.06-.03l-.16-.12s-.03-.02-.04-.03c0,0,0,0,0,0-.01-.01-.02-.02-.03-.03l-.11-.14s-.03-.06-.04-.09l-.04-.16s0-.04,0-.06v-.03s0,0,0-.01h0v-.12s0-.06.01-.09v-.09s.03-.06.04-.09l.09-.16s.03-.05.05-.07l.15-.13s.04-.03.06-.04l.19-.1s.04-.02.06-.02l.22-.06s.04,0,.06,0h.23s0,0,.01,0c.02,0,.03,0,.05,0l.23.04s.04,0,.06.02l.21.08s.04.02.06.03l.07.05s.02,0,.03.01c.03.01.06.03.08.05.03.03.05.06.07.1l.08.11s.03.06.04.09l.04.16s0,.05,0,.07c0,0,0,.02,0,.03v.11s0,.02,0,.03t0,0s0,.02,0,.02l-.02.13s-.02.06-.03.09l-.09.16s-.03.05-.05.07l-.15.13s-.04.03-.06.04l-.19.1s-.04.02-.06.02l-.22.05s-.04,0-.05,0h-.24s0,0,0,0ZM27.74,37.91s-.01,0-.02,0l-.24-.02s-.04,0-.05,0l-.22-.06s-.04-.01-.06-.02l-.18-.1s-.02-.01-.03-.02c0,0,0,0,0,0h0s-.02-.02-.03-.03l-.13-.13s-.04-.04-.05-.07l-.08-.16s-.02-.05-.03-.08v-.11s-.02-.02-.02-.03h0v-.12h0s0-.05.01-.08v-.06s.01-.06.03-.09l.07-.15s.03-.05.04-.07l.12-.13s.03-.03.05-.05l.16-.11s.03-.02.05-.03l.19-.07s.03-.01.05-.01l.21-.04s.04,0,.05,0h.21s.03,0,.05,0l.2.04s.03,0,.05.02l.18.08s.03.01.04.02l.08.05s.02.01.02.02c0,0,.02.01.02.02l.1.1s.03.03.04.05l.09.14s.03.05.03.07l.04.15s.01.05,0,.08c0,.01,0,.02,0,.04h0v.12s0,.01,0,.02v.05s0,.05-.02.07l-.06.16s-.03.06-.05.08l-.12.15s-.03.04-.06.05l-.17.12s-.04.02-.06.03l-.21.08s-.04.01-.05.01l-.23.03s-.02,0-.04,0ZM53.62,24.78s-.05,0-.07,0c0,0,0,0,0,0,0,0,0,0,0,0t0,0s-.06-.02-.08-.04l-.83-.59s-.01,0-.02-.01c-.03-.02-.05-.05-.07-.08-.02-.03-.03-.07-.03-.11,0,0,0,0,0-.01h0v-7.32h0s0-.01,0-.02c0-.04.01-.08.03-.11.01-.03.03-.05.06-.07h0s0,0,0,0c0,0,.02-.01.03-.02l.83-.59s.04-.03.06-.03c0,0,0,0,0,0h0s.06-.02.09-.02h39.06s.06,0,.09.01h0s0,0,0,0h0s.05.02.07.03l.83.59s.02.01.02.02c0,0,0,0,0,0h0s.05.05.06.08c.02.03.03.07.03.11,0,0,0,0,0,.01h0v7.32h0s0,.01,0,.02c0,.04-.01.08-.03.11,0,0,0,0,0,0-.02.03-.04.06-.07.08,0,0,0,0,0,0,0,0-.01,0-.02.01l-.83.59s-.06.04-.1.04c0,0,0,0,0,0h0s-.05,0-.06,0h-39.07ZM53.96,23.66h38.46v-6.78h-.08s-38.38-.01-38.38-.01h-.08v6.78h.08ZM73.08,11.62s-.03,0-.04,0l-.23-.04s-.04,0-.06-.02l-.2-.08s0,0,0,0c0,0,0,0,0,0,0,0,0,0,0,0-.01,0-.02-.01-.03-.02-.01,0-.02-.01-.03-.02l-.16-.12s-.04-.03-.06-.06l-.11-.15s-.03-.06-.04-.09l-.04-.16s0-.04,0-.06v-.03s0,0,0-.01v-.11s0,0,0-.01c0-.02,0-.05,0-.07l.04-.16s.02-.06.03-.08l.09-.15s.03-.04.05-.06l.14-.12s.03-.03.05-.04l.17-.09s.03-.02.05-.02l.2-.06s.03,0,.05,0l.21-.02s.03,0,.05,0l.21.02s.03,0,.05,0l.2.06s.03,0,.04.02l.09.04s.01,0,.02.01c0,0,.02,0,.02.01l.13.09s.03.03.05.04l.11.13s.03.04.04.06l.07.14s.02.05.02.08v.05s.02.05.02.08v.02s0,.01,0,.02v.11s0,.02,0,.03c0,0,0,.02,0,.03l-.02.13s-.02.06-.03.09l-.09.16s-.03.05-.05.07l-.15.13s-.04.03-.06.04l-.19.1s-.04.02-.06.02l-.22.06s-.04,0-.05,0h-.24s0,0-.01,0Z" fill="#4b18a1"/>
  </g>
</svg>