<?xml version="1.0" encoding="UTF-8"?>
<svg id="uuid-ad1e7e43-9386-4a0f-91f1-054998076117" data-name="Layer 1" xmlns="http://www.w3.org/2000/svg" viewBox="0 0 157.73 60.66">
  <path d="M25.01,15.4h-7.97v28.26h7.97c8.37,0,14.13-5.69,14.13-14v-.13c0-8.3-5.76-14.13-14.13-14.13Z" fill="#b7a3d9"/>
  <path d="M127.8,14.8c-8.3,0-14.06,6.56-14.06,14.6v.13c0,8.04,5.89,14.73,14.2,14.73s14.06-6.56,14.06-14.6v-.13c0-8.04-5.89-14.73-14.2-14.73Z" fill="#b7a3d9"/>
  <path d="M0,0v60.66h157.73V0H0ZM49.92,29.53c0,13.19-10.18,23.44-24.91,23.44H6.72V6.09h18.28c14.73,0,24.91,10.11,24.91,23.31v.13ZM96.86,32.55c0,14.2-7.97,21.16-20.56,21.16s-20.29-6.96-20.29-20.83V6.09h10.31v26.52c0,7.7,3.75,11.59,10.11,11.59s10.11-3.75,10.11-11.25V6.09h10.31v26.45ZM152.78,29.53c0,13.33-10.51,24.24-24.98,24.24s-24.85-10.78-24.85-24.11v-.13c0-13.33,10.51-24.24,24.98-24.24s24.85,10.78,24.85,24.11v.13Z" fill="#b7a3d9"/>
</svg>