<?xml version="1.0" encoding="UTF-8"?>
<svg id="uuid-33a6f9a6-8c1f-434f-843a-0372abed633e" data-name="Layer 1" xmlns="http://www.w3.org/2000/svg" viewBox="0 0 163.74 101.91">
  <g opacity=".9">
    <path d="M132.74,62.17s0,0,0,0t0,0h-.28s-.29-.04-.29-.04l-.28-.04-.28-.06-.27-.08-.26-.09-.25-.11-.23-.13-.22-.14s0,0,0,0l-8.29-5.86s0,0,0,0c-.01,0-.02-.02-.03-.03,0-.01,0-.02-.01-.04,0,0,0,0,0,0,0,0,0,0,0,0v-2.38l-.76-.54-1.02.72h0s0,0,0,0l-.05.03s0,0-.01,0l-.06.02s0,0-.01,0h-.06s0,.01-.01.02h-.06s0,0-.01,0h-.06s0,0-.01,0h-.06s0-.02-.01-.02l-.06-.02s0,0-.01,0l-.05-.03s0,0,0,0t0,0l-1.38-.98s0,0,0,0c0,0,0,0,0,0,0,0,0,0,0,0,0,0,0,0,0,0l-.04-.03s0,0-.01-.01l-.03-.04s0-.01-.01-.02l-.02-.04s0-.02,0-.02v-.04s0,0,0,0c0,0,0,0,0,0v-1.38s0-.01,0-.02v-.04s0-.02.01-.02l.02-.04s0-.01.01-.02l.03-.04s0-.01.01-.01l.04-.03s0,0,0,0l-16.83-11.9-1.02.72s0,0,0,0c0,0,0,0,0,0l-.05.03s0,0-.02,0l-.06.02s0,0-.01,0h-.06s0,.01-.01.02h-.06s0,0-.01,0h-.06s0,0-.01,0h-.06s0-.02-.01-.02l-.06-.02s-.01,0-.02,0l-.05-.03s0,0,0,0h0s-1.38-.98-1.38-.98c0,0,0,0,0,0,0,0,0,0,0,0,0,0,0,0,0,0l-.04-.03s-.01,0-.01-.02l-.03-.04s0-.01-.01-.02l-.02-.04s0-.02,0-.02v-.04s0,0,0,0c0,0,0,0,0-.01v-1.38s0,0,0,0h0s0,0,0,0h0s0,0,0,0v-.04s0-.02.01-.02l.02-.04s0-.01.01-.02l.03-.04s0-.01.01-.02l.04-.03-9.55-6.75h0s0,0,0,0l-.03-.02-.11-.1s0,0,0,0l-.09-.1s0,0,0-.01l-.07-.11s0,0,0-.01l-.05-.12s0,0,0-.01l-.04-.12s0-.01,0-.02v-.08s-.01,0-.01-.01v-.03s0-.01,0-.02h0s0-.02,0-.02c0,0,0,0,0,0,0,0,0,0,0,0,0,0,0,0,0,0v-.78h0v-3.49h0s-.04-.02-.04-.02l-.16-.09s0,0-.01,0l-.02-.02s-.01,0-.02,0l-.32-.23s0,0,0,0l-.1-.07s0,0,0,0l-.13-.12s0,0,0,0l-.11-.14s0,0,0,0l-.1-.15s0,0,0,0l-.09-.17-.08-.19-.06-.21-.04-.22-.03-.23v-.24s0-.25,0-.25l.02-.26.04-.26.05-.27.07-.27.08-.28.09-.28.11-.28.12-.29.13-.29.14-.28.16-.28.17-.28.18-.28.19-.27.19-.26.2-.26.21-.25.22-.24.22-.23.23-.22.23-.21.23-.19.23-.18.12-.09s0,0,0,0l.22-.15.24-.15.24-.13.23-.11.23-.1.23-.08.22-.06.22-.04.21-.02h.21s.2.01.2.01c0,0,0,0,0,0h.04s7.44-5.26,7.44-5.26l-.13-.14s0,0,0,0h0s-.01-.02-.01-.03h0s-.16-.13-.16-.13c0,0,0,0,0,0,0,0,0,0,0,0h-.01s-.02-.03-.02-.04l-.03-.05s-.01-.02-.01-.03v-.06s-.01,0-.01-.01c0,0,0-.01,0-.02v-.08s.01-.01.01-.02l.03-.09s0,0,0-.01l.04-.09s0,0,0-.01l.06-.08s0,0,0-.01l.07-.07s0,0,.01,0l.07-.06s0,0,.01,0l.07-.04s.01,0,.02,0l.07-.02s.02,0,.03,0h.06s.02,0,.04.01h.03s0,.02,0,.02c0,0,0,0,0,0l.16.12h.02s.02,0,.03.01l.2.09s0,0,0,0c0,0,.01,0,.02,0h.01s0,0,0,0h0s0,0,0,0h0s0,0,0,0l.26.18,5.08-3.59h0s.18-.28.18-.28l.19-.27.19-.26.2-.26.21-.25.22-.24.22-.23.23-.22.23-.21.23-.19.36-.27s0,0,0,0l.22-.15.24-.15.24-.13.24-.11.23-.1.23-.08.22-.06.22-.04.21-.02h.21s.2.01.2.01c0,0,0,0,0,0h.04s3.02-2.13,3.02-2.13c0,0,0,0,0,0l.05-.03.14-.08s0,0,0,0l.14-.06s0,0,0,0l.15-.05.17-.03.17-.02h.17s.17.01.17.01l.17.03.16.05s0,0,0,0l.14.06s0,0,0,0l.13.07.07.05s0,0,0,0l36.52,25.82,1.17-.83s.01,0,.02,0h0s.03,0,.04,0h0s.03,0,.04,0c0,0,.01,0,.02.01l8.29,5.86s0,0,0,0c0,0,0,0,0,0,0,0,0,0,0,0l.19.15.18.16.16.18.14.19s0,0,0,0l.11.19s0,0,0,0l.09.19s0,0,0,.01l.06.2s0,0,0,.01l.04.2s0,0,0,.01v.2s.01,0,.01,0h0v7.37s0,0,0,0v.2s-.01,0-.01.01l-.04.2s0,0,0,.01l-.06.2s0,0,0,.01l-.09.19s0,0,0,0l-.11.19s0,0,0,0l-.13.18-.16.18-.18.17-.2.15s0,0,0,0l-8.29,5.86s0,0-.01,0c0,0,0,0-.01,0,0,0,0,0,0,0h0s-.02,0-.03,0h0s-.02,0-.03,0c0,0,0,0,0,0,0,0,0,0,0,0t0,0s0,0-.01,0c0,0,0,0,0,0,0,0,0,0-.01,0l-1.66-1.17-.43.3h0l.04.03s0,0,.01.01l.03.04s0,.01.01.02l.02.04s0,.02,0,.02v.04s0,.01,0,.02v1.38s0,0,0,0c0,0,0,0,0,0v.04s0,.02-.01.02l-.02.04s0,.01-.01.02l-.03.04s0,.01-.01.01l-.04.03s0,0,0,0c0,0,0,0,0,0,0,0,0,0,0,0l-1.38.98s0,0,0,0l-.05.03s0,0-.01,0l-.06.02s0,0-.01,0h-.06s0,.01-.01.02h-.06s0,0-.01,0h-.06s0,0-.01,0h-.06s0-.02-.01-.02l-.06-.02s0,0-.01,0l-.05-.03s0,0-.01,0l-.38-.27-.03.08s0,0,0,.01l-.05.09s0,0,0,.01l-.06.08s0,0,0,0l-.07.07s0,0-.01,0l-.07.05s-.01,0-.02,0l-.07.03s-.02,0-.02,0h-.06s-.02.01-.02.01c0,0,0,0,0,0,0,0,0,0,0,0h-.12s0,0,0,0c0,0,0,0-.01,0h-.04s0-.01-.01-.01c0,.01-.02.02-.04.03h-.02s-.09.04-.09.04c0,0-.01,0-.02,0h-.08s-.01.02-.02.01h-.07s-.02,0-.03,0l-.06-.02s-.02,0-.03-.01h0s-.01,0-.02-.01c0,0,0,0,0,0l-.14-.1s0,0,0,0c0,0,0,0,0,0l-.03-.03h-.03s-.01-.02-.02-.02c0,0,0,0,0,0l-.17-.12-3.44,2.43.04.03s0,0,.01.01l.03.04s0,.01.01.02l.02.04s0,.02,0,.02v.04s0,.01,0,.02v1.38s0,0,0,0c0,0,0,0,0,0v.04s0,.02-.01.02l-.02.04s0,.01-.01.02l-.03.04s0,.01-.01.01l-.04.03s0,0,0,0c0,0,0,0,0,0h0s0,0,0,0c0,0,0,0,0,0h0s0,0,0,0l-1.38.98s0,0,0,0c0,0,0,0,0,0l-.04.02v.53s0,0,0,0c0,0,0,0,0,0,0,.01,0,.02-.01.04,0,.01-.02.02-.03.03,0,0,0,0,0,0l-8.29,5.86s0,0,0,0l-.21.13-.23.13-.25.11-.26.1-.27.08-.28.06-.28.04-.29.03h-.29s0,0,0,0h0s0,0,0,0ZM130.53,61.35l.17.11.22.12.23.1.25.09.26.08.26.06.27.04.28.03h.18s0-7.17,0-7.17h-.19s-.29-.03-.29-.03l-.28-.04-.28-.06-.27-.08-.26-.09-.25-.11-.23-.13-.07-.04v7.14ZM132.84,54.8v7.18h.18s.28-.03.28-.03l.27-.04.27-.06.26-.08.25-.09.23-.11.22-.12.16-.1v-7.14l-.06.04-.23.13-.25.11-.26.1-.27.08-.28.06-.28.04-.29.03h-.2ZM135.14,54.08v7.14l2.18-1.54-.1.05-.17.06s0,0,0,0l-.16.04s0,0-.01,0l-.15.02s0,0-.01,0h-.14s-.01,0-.02,0l-.13-.03s-.01,0-.02,0l-.12-.05s-.01,0-.02,0l-.1-.07s-.01,0-.02-.01l-.09-.09s0,0-.01-.01l-.07-.1s0,0,0-.01l-.06-.12s0,0,0-.01l-.04-.14s0,0,0-.01l-.03-.15s0,0,0-.01v-.17s0,0,0,0h0s0,0,0,0v-.18s.03-.2.03-.2l.04-.21.06-.21.08-.22.09-.22.11-.22.12-.22.13-.21.14-.21.15-.2.16-.19.17-.18.17-.17.18-.15.18-.14.18-.12.18-.1.18-.08.17-.06s0,0,0,0l.16-.04s0,0,.01,0l.15-.02s0,0,.01,0h.14s.01,0,.02,0l.13.03s.01,0,.02,0l.12.05s.01,0,.02,0l.1.07s.01,0,.01.01l.09.09s0,0,.01.01l.07.11s0,0,0,.01l.06.12s0,0,0,.01l.04.14s0,0,0,0l.02-.13.04-.21.06-.21.08-.22.09-.22.11-.22.12-.22.13-.21.14-.21.2-.25-.16.17-.17.17-.18.15-.18.14-.18.12-.18.1-.18.08-.17.06s0,0-.01,0l-.16.04s0,0-.01,0l-.15.02s0,0-.01,0h-.14s-.01,0-.02,0l-.13-.03s-.01,0-.02,0l-.12-.05s-.01,0-.02,0l-.1-.07s-.01,0-.01-.01l-.09-.09s0,0-.01-.01l-.07-.11s0,0,0-.01l-.06-.12s0,0,0-.01l-.04-.14s0,0,0-.01l-.03-.15s0,0,0-.01v-.17s0,0,0,0c0,0,0,0,0,0v-.18s.03-.2.03-.2l.04-.21.06-.21.08-.22.09-.22.11-.22.12-.22.13-.21.14-.21.15-.2.16-.19.17-.18.1-.1-4.14,2.93ZM126.08,58.2l4.25,3.01v-7.14l-2.07-1.46.1.1.17.18.16.19.15.2.14.21.13.21.12.22.11.22.09.22.08.21.06.21.04.21.03.2v.19s0,0,0,0h0s0,0,0,0v.17s0,0,0,.01l-.03.15s0,0,0,.01l-.04.14s0,0,0,.01l-.06.12s0,0,0,.01l-.07.1s0,0-.01.01l-.09.09s0,0-.01.01l-.1.07s-.01,0-.02,0l-.12.05s-.01,0-.02,0l-.13.03s-.01,0-.02,0h-.14s0,0-.01,0l-.15-.02s0,0-.01,0l-.16-.04s0,0,0,0l-.16-.06-.18-.08-.18-.1-.18-.12-.18-.14-.18-.15-.17-.17-.17-.18-.16-.19-.15-.2-.14-.21-.13-.21-.12-.22-.11-.22-.09-.22-.08-.22-.06-.21-.04-.21-.02-.14h0l-.04.14s0,0,0,.01l-.06.12s0,0,0,.01l-.07.11s0,0-.01.01l-.09.09s0,0-.01.01l-.1.07s-.01,0-.02,0l-.12.05s-.01,0-.02,0l-.13.03s-.01,0-.02,0h-.14s0,0-.01,0l-.15-.02s0,0-.01,0l-.16-.04s0,0-.01,0l-.16-.06-.18-.08-.18-.1-.18-.12-.18-.14-.18-.15-.17-.17-.17-.18-.16-.19-.15-.2-.14-.21-.13-.21-.12-.22-.11-.22-.09-.22-.08-.21-.06-.21-.04-.21-.03-.2v2.62h0v.04h0v2.38l2.99,2.12-.1-.1-.17-.18-.16-.19-.15-.2-.14-.21-.13-.21-.12-.22-.11-.22-.09-.22-.08-.22-.06-.21-.04-.21-.03-.2v-.19s0,0,0-.01v-.17s0,0,0-.01l.03-.15s0,0,0-.01l.04-.14s0,0,0-.01l.06-.12s0,0,0-.01l.07-.1s0,0,.01-.01l.09-.09s0,0,.01-.01l.1-.07s.01,0,.02,0l.12-.05s.01,0,.02,0l.13-.03s.01,0,.02,0h.14s0,0,.01,0l.15.02s0,0,.01,0l.16.04s0,0,.01,0l.16.06.18.08.18.1.18.12.18.14.18.15.17.17.17.18.16.19.15.2.14.21.13.21.12.22.11.22.09.22.08.21.06.21.04.21.03.2v.19s0,0,0,0h0s0,0,0,0v.17s0,0-.01.01l-.03.15s0,0,0,.01l-.04.14s0,0,0,.01l-.06.12s0,.01,0,.01l-.07.1s0,0-.01.01l-.09.09s0,0-.02.01l-.1.07s-.01,0-.02,0l-.12.05s-.01,0-.02,0l-.13.03s-.01,0-.02,0h-.14s0,0-.01,0l-.15-.02s0,0-.01,0l-.16-.04s0,0,0,0l-.16-.06-.11-.05ZM136.56,59.55h.12s.13-.01.13-.01l.14-.03.16-.05.16-.07.16-.09.16-.11.16-.12.16-.14.16-.15.16-.17.15-.18.14-.19.13-.19.12-.2.11-.2.1-.2.08-.2.07-.2.06-.19.04-.19.02-.18v-.11s-1.04-.74-1.04-.74h-.02s-.14.07-.14.07l-.15.08-.15.1-.15.11-.15.13-.15.14-.15.15-.14.16-.14.17-.13.18-.12.18-.11.19-.1.19-.09.19-.08.19-.07.19-.05.18-.04.18-.03.17v.23s0,.13,0,.13l.02.12.03.11.04.1.03.04s0,.01,0,.02l.03.05.07.07.09.05.12.05h.08ZM139.55,56.57l-.02.13-.04.21-.06.21-.08.22-.09.22-.11.22-.12.22-.13.21-.14.21-.15.2-.16.19-.17.18-.1.1,2.83-2-.1.05-.17.06s0,0,0,0l-.16.04s0,0-.01,0l-.15.02s0,0-.01,0h-.14s-.01,0-.02,0l-.13-.03s-.01,0-.02,0l-.12-.05s-.01,0-.02,0l-.1-.07s-.01,0-.02-.01l-.09-.09s0,0-.01-.01l-.07-.1s0,0,0-.01l-.06-.12s0,0,0-.01l-.04-.14s0,0,0,0ZM126.59,58.07h.13s.12.01.12.01l.11-.02.1-.04.09-.05.07-.07.03-.04s0,0,0-.01l.05-.09.04-.1.03-.12v-.14s.01-.07.01-.07v-.13s-.02-.16-.02-.16l-.03-.17-.05-.18-.06-.18-.07-.19-.08-.19-.1-.19-.11-.19-.12-.19-.13-.18-.13-.17-.14-.17-.15-.16-.15-.15-.15-.14-.15-.12-.15-.11-.15-.09-.15-.08-.11-.05-1.05.74v.12s.03.18.03.18l.04.19.06.19.07.2.09.2.1.2.11.2.12.2.13.19.14.19.15.18.16.17.16.15.16.14.16.12.16.11.16.09.16.07.15.05.14.03ZM140.25,56.94h.12s.13-.01.13-.01l.14-.03.15-.05.16-.07.16-.09.16-.11.16-.12.16-.14.16-.15.16-.17.15-.18.14-.19.13-.19.12-.2.11-.2.1-.2.08-.2.07-.2.06-.19.04-.19.02-.18v-.11s-1.04-.74-1.04-.74h-.02s-.14.07-.14.07l-.15.08-.15.1-.15.11-.15.13-.15.14-.15.15-.14.16-.14.17-.13.18-.12.18-.11.19-.1.19-.09.19-.08.19-.07.19-.05.18-.04.18-.03.17-.02.23v.13s.02.12.02.12l.03.11.04.1.03.04s0,.01.01.02l.03.05.07.07.09.05.12.05h.08ZM143.24,53.9l-.03.2-.04.21-.06.21-.08.22-.09.22-.11.22-.12.22-.13.21-.14.21-.15.2-.16.19-.17.18-.1.1,1.38-.98v-.54h0v-1.05ZM138.46,55.55l.8.57-.02-.09-.04-.12-.05-.11-.06-.08-.07-.07-.09-.05-.09-.03s-.02,0-.03,0h0s-.1-.02-.1-.02h-.11s-.14.02-.14.02ZM128.66,56.08h.13s.12.01.12.01l.11-.02.1-.04.09-.06.07-.07.03-.04s0,0,0-.01l.05-.09.04-.1.03-.12v-.14s.02-.07.02-.07v-.13s-.02-.16-.02-.16l-.03-.17-.05-.18-.06-.18-.07-.19-.08-.19-.1-.19-.11-.19-.12-.19-.13-.18-.13-.17-.14-.17-.15-.16-.15-.15-.15-.13-.15-.12-.15-.11-.15-.09-.15-.08-.11-.04-1.05.74v.12s.03.18.03.18l.04.19.06.19.07.2.09.2.1.2.11.2.12.2.13.19.14.19.15.18.16.17.16.15.16.14.16.12.16.11.16.09.16.07.15.05.14.03ZM143.53,53.56v1.15l1.19-.84v-1.14l-1.19.84ZM124.16,54.56l-.02.09.8-.57h-.06s-.12-.03-.12-.03h-.11s-.05.02-.05.02c0,0-.02,0-.03,0h0s-.1.04-.1.04l-.09.05-.07.07-.06.09-.05.1-.04.12ZM138.63,54.63h.12s.13,0,.13,0l.14-.03.15-.05.16-.07.16-.09.16-.11.16-.12.16-.14.16-.15.16-.17.15-.18.14-.19.13-.19.12-.2.11-.2.1-.2.08-.2.07-.2.06-.19.04-.19.02-.18v-.11s-1.04-.74-1.04-.74h-.02s-.14.07-.14.07l-.15.08-.15.1-.15.11-.15.13-.15.14-.15.15-.14.16-.14.17-.13.18-.12.18-.11.19-.1.19-.09.19-.08.19-.07.19-.05.18-.04.18-.03.17v.16s-.01.07-.01.07v.13s.02.12.02.12l.03.11.04.1.03.04s0,.01,0,.02l.03.05.07.07.09.05.12.05h.08ZM130.49,53.95l.21.13.22.12.23.1.25.09.26.08.26.06.27.04.28.03h.18s0-2.02,0-2.02l-.4.28s-.01,0-.02,0c-.01,0-.03.01-.04,0-.01,0-.03,0-.04,0h0s0,0,0,0c0,0-.01,0-.02-.01l-.13-.1s0,0-.01-.01c0,0-.02-.02-.02-.03,0-.01,0-.03,0-.04h0s0-.03,0-.04c0-.01.01-.02.02-.03,0,0,0,0,.01-.01l.65-.46v-.04s0,0,0,0l-.18-.02s0,0,0,0l-.18-.04s0,0-.01,0l-.17-.05s0,0-.01,0l-.16-.07s0,0-.01,0l-.14-.09s0,0,0,0c0,0,0,0,0,0t0,0s0,0,0,0l-7.32-5.17-2.14,1.51,8.18,5.78ZM132.84,52.58v2.02h.18s.28-.03.28-.03l.27-.04.27-.06.26-.08.25-.09.23-.11.22-.12.2-.13,8.18-5.78-2.14-1.51-7.32,5.17s0,0,0,0l-.14.09s0,0-.01,0l-.16.07s0,0-.01,0l-.17.05s0,0-.01,0l-.18.04s0,0,0,0l-.18.02s0,0,0,0v.04l.65.46s.01,0,.02.01c0,0,.01.02.02.03,0,.01,0,.03,0,.04h0s0,.03,0,.04c0,.01-.01.02-.02.03,0,0,0,0-.01.01l-.13.1s-.01,0-.02.01c-.01,0-.02,0-.04,0-.01,0-.03,0-.04,0,0,0-.01,0-.02-.01l-.4-.28ZM141.64,51.4v.18s-.03.2-.03.2l-.04.21-.06.21-.08.22-.09.22-.11.22-.12.22-.13.21-.14.21-.2.25.16-.17.17-.17.18-.15.18-.14.18-.12.18-.1.18-.08.17-.06s0,0,.01,0l.16-.04s0,0,.01,0l.15-.02s0,0,.01,0h.14s.01,0,.02,0l.13.03s.01,0,.02,0l.12.05s.01,0,.02,0l.1.07s.01,0,.01.01l.09.09s0,0,.01.01l.07.11s0,0,0,.01l.06.12s0,0,0,.01l.04.14s0,0,0,.01l.03.15s0,0,0,0v-.45h0v-.26h0v-.44h0v-.33h0v-.07h0v-.17h0v-3.47l-3.1,2.19.1-.05.17-.06s0,0,.01,0l.16-.04s0,0,.01,0l.15-.02s0,0,.01,0h.14s.01,0,.02,0l.13.03s.01,0,.02,0l.12.05s.01,0,.02,0l.1.07s.01,0,.01.01l.09.09s0,0,.01.01l.07.1s0,0,0,.01l.06.12s0,0,0,.01l.04.14s0,0,0,.01l.03.15s0,0,0,.01v.17s0,0,0,.01ZM142.15,52.94l.8.57-.02-.09-.04-.12-.05-.11-.06-.08-.07-.07-.09-.05-.09-.03s-.02,0-.03,0h0s-.1-.02-.1-.02h-.11s-.14.02-.14.02ZM124.98,53.48h.13s.12.01.12.01l.11-.02.1-.04.08-.05.07-.07.03-.04s0,0,0-.01l.05-.09.04-.1.03-.12v-.14s.02-.07.02-.07v-.13s-.02-.16-.02-.16l-.03-.17-.05-.18-.06-.18-.07-.19-.08-.19-.1-.19-.11-.19-.12-.19-.13-.18-.13-.17-.14-.17-.15-.16-.15-.15-.15-.13-.15-.12-.15-.11-.15-.09-.15-.08-.11-.04-1.05.74v.12s.03.18.03.18l.04.19.06.19.07.2.09.2.1.2.11.2.12.2.13.19.14.19.15.18.16.17.16.15.16.14.16.12.16.11.16.09.16.07.15.05.14.03ZM143.43,53.18v.21l.39-.28h-.03s0,.01-.01.02l-.13.03s0,0-.01,0l-.13.02s0,0-.01,0h-.06ZM119.93,53.23h.05s.05,0,.05,0h.05s.04-.02.04-.02v-1.18h-.05s0,.01-.01.01h-.06s0,0-.01,0h-.06s0,0-.01,0h-.05s0,1.17,0,1.17h.04s.05.02.05.02ZM120.3,51.93v1.15l.84-.59v-.02s-.01-.02-.01-.03v-.02s0,0,0,0h0s0,0,0,0v-1.06l-.82.58ZM118.46,52.24l1.19.84v-1.15l-1.19-.84v1.15ZM143.43,52.93v.06h.06s.12-.02.12-.02l.12-.03.1-.04.09-.05.07-.06.06-.07.04-.07.02-.08-.02-.07-.04-.07-.06-.07-.07-.06-.09-.05-.11-.04-.12-.03-.12-.02h-.06v.13h.07s.01,0,.02,0l.09.02s.01,0,.02,0l.07.04s0,0,.01,0c0,0,0,0,.01,0l.05.05s.01.02.02.03l.03.06s0,.02.01.04v.07s0,.03,0,.04l-.02.06s0,.02-.02.03l-.04.06s-.01.01-.02.02h-.01s-.02.03-.04.04h-.02s-.01.02-.02.02l-.08.03s-.01,0-.02,0h-.09s-.01.02-.02.01h-.01ZM121.32,52.36l.73.52v-4.71h0s0-.02,0-.03c0,0,0,0,0,0,0,0,.01-.02.02-.03,0,0,0,0,0,0h0s0,0,.01-.01l2.19-1.55-8.38-5.93v4.83h0v.07h0v.04s0,.01,0,.02c0,.02,0,.03-.02.04,0,.01-.02.02-.03.03,0,0,0,0,0,0,0,0-.01,0-.02,0l-.48.14s-.01,0-.02,0h0s0,0,0,0c0,0-.02,0-.02,0,0,0-.02,0-.03,0,0,0-.01,0-.02,0l-6.26-4.42s0,0,0,0c0,0,0,0,0,0,0,0,0,0-.01-.01,0,0,0-.01-.01-.02l-.49-.83s0-.02-.01-.03c0,0,0,0,0,0,0,0,0-.02,0-.02v-5.07l-12.03-8.51v7.14h0v.05s0,.02,0,.03c0,.01-.01.03-.02.04,0,0-.02.02-.03.02h0s0,0,0,0c-.01,0-.03.01-.05.01,0,0-.01,0-.02,0,0,0,0,0,0,0h0s-.03,0-.04-.02l-7.22-5.1v.55l9.62,6.8.82-.58s.01,0,.02-.01c.01,0,.03,0,.04,0h0s.03,0,.04,0c0,0,.01,0,.02,0l.92.65s0,0,0,0l.92.65s0,0,.01.01c0,0,.01.02.02.02,0,0,0,0,0,0,0,0,0,.02,0,.02,0,0,0,0,0,0,0,0,0,.01,0,.02h0v1.19l16.99,12.02.82-.58s.01,0,.02,0c.01,0,.03,0,.04,0h0s.03,0,.04,0c0,0,.01,0,.02,0l.92.65s0,0,0,0l.92.65s0,0,.01.01c0,0,.01.01.02.02,0,0,0,.01,0,.02,0,0,0,.02,0,.03h0v1.19ZM144.31,52.58s0,.01,0,.02l-.02.09s0,.01,0,.02l-.05.09s0,.01-.01.02l-.02.02.59-.42.02-.02v-.04s0-.02,0-.02v-.02s-.03-.02-.03-.02l-.03-.02-.95-.67-.36.26v.02h.06s0,0,.01,0l.13.02s0,0,.01,0l.13.03s0,0,.01,0l.12.05s0,0,.01,0l.1.06s0,0,0,0c0,0,0,0,0,0h0s0,0,0,0l.09.07s0,0,.01.01l.07.08s0,.01.01.02l.05.09s0,.01,0,.02l.02.09s0,.02,0,.02v.07s0,.02,0,.03ZM143.43,52.73h.01s.07-.01.07-.01l.04-.02v-.21h-.01s-.07-.02-.07-.02h-.05s0,.26,0,.26ZM126.23,52.57l-.02.09.8-.57h-.06s-.12-.03-.12-.03h-.11s-.06.02-.06.02c0,0-.02,0-.03,0h0s-.1.04-.1.04l-.09.05-.07.07-.06.09-.05.1-.04.12ZM124.58,50.01l.1.1.17.18.16.19.15.2.14.21.13.21.12.22.11.22.09.22.08.22.06.21.04.21.02.14s0,0,0,0l.04-.14s0,0,0-.01l.06-.12s0,0,0-.01l.07-.1s0,0,.01-.01l.09-.09s0,0,.01-.01l.1-.07s.01,0,.02,0l.12-.05s.01,0,.02,0l.13-.03s.01,0,.02,0h.14s0,0,.01,0l.15.02s0,0,.01,0l.16.04s0,0,0,0l.16.06.11.05-2.83-2ZM143.86,51.41l.82.58,3.38-2.39s-.02,0-.03,0c0,0,0,0,0,0-.01,0-.03,0-.04-.02,0,0,0,0,0,0l-.33-.23s0,0-.01-.01h0s-.01-.02-.02-.03c0,0,0-.02-.01-.03,0,0,0,0,0,0l-.23-.17s0,0,0,0c0,0,0,0,0,0l-.02-.02s-.01-.01-.02-.02l-.04-.06s-.01-.02-.01-.02l-.03-.07s0-.01,0-.02v-.09s-.01-.01-.01-.02v-.1s0,0,0-.01l.02-.11s0,0,0-.01l.04-.12s0,0,0,0l.05-.12.07-.13.08-.12.09-.11.1-.1.1-.09s0,0,0,0h0s.02-.17.02-.17c0,0,0,0,0-.01h0s0-.02,0-.02v-.03s.02,0,.02,0h0s0-.02,0-.02l.02-.02s0,0,.01,0h0s0-.01,0-.01h0s0,0,.01-.01l.09-.05s0,0,0,0h0s.02-.01.02-.01c0,0,.02,0,.03,0,.01,0,.03,0,.05,0,0,0,0,0,0,0,0,0,.01,0,.02.01l.34.24s.04.04.04.07l.23.16s0,0,.01,0c0,0,.01,0,.02.01,0,0,.01.01.02.02l.03.03s.01.01.01.02h0s.01.02.01.02l.02.04.37.26v-.69s0,0,0,0c0,0,0-.01,0-.02,0,0,0,0,0,0,0-.01,0-.02.01-.03,0,0,0-.01.02-.02h0s0,0,.01-.01l.92-.65s0,0,0,0c0,0,0,0,0,0l.92-.65s.01,0,.02-.01c.01,0,.03,0,.04,0h0s.03,0,.04,0c0,0,.01,0,.02,0l.82.58.43-.3-.44-.31s0,0,0,0c-.01,0-.02-.02-.03-.03,0-.01,0-.02-.01-.04,0,0,0,0,0,0,0,0,0,0,0,0v-7.18l-4.38,3.1.04.03s.01,0,.02.01h0s0,0,0,0c0,0,0,0,0,0l.15.16s0,0,0,0c0,0,.01.01.01.02h0s.16.13.16.13c0,0,.01,0,.01.01.01,0,.02.02.03.03l.03.05s.01.02.01.04v.06s.01.01.01.02c0,0,0,0,0,.01v.08s-.01.01-.01.02l-.03.09s0,0,0,.01l-.04.09s0,0,0,.01l-.06.08s0,0,0,.01l-.07.07s0,0,0,0l-.07.06s0,0-.01,0l-.07.04s-.01,0-.02,0l-.07.02s-.02,0-.03,0h-.06s-.03,0-.04-.02h0s-.02-.01-.03-.02l-.16-.11h-.02s-.02,0-.02-.01l-.2-.09s0,0,0,0c0,0,0,0,0,0,0,0,0,0,0,0h0s-.01,0-.02-.01c0,0,0,0,0,0l-.35-.25-.31.22s-.01,0-.02,0l-5.13,3.63,2.19,1.55s.01,0,.02.01c0,0,.01.02.02.02,0,.01.01.03.01.04h0v3.47l.31-.22s.01,0,.02-.01c.01,0,.03,0,.04,0h0s.03,0,.04,0c0,0,.01,0,.02,0ZM132.65,51.92h.18l.17-.02.17-.03.16-.05.15-.07.09-.05v-1.25s0,0,0,0l-.16.07s0,0-.01,0l-.17.05s0,0-.01,0l-.18.04s0,0,0,0l-.18.02s0,0,0,0h-.19s0,0,0,0l-.18-.02s0,0,0,0l-.18-.04s0,0-.01,0l-.17-.05s0,0-.01,0l-.16-.07s0,0,0,0v1.25l.09.05.15.07.16.05.17.03.17.02ZM119.93,51.85h.05s.05,0,.05,0h.05s.04-.03.04-.03l.04-.02.9-.64-.43-.3v.07s0,.02,0,.02c0,0,0,.01,0,.02l-.02.1s0,.01,0,.02l-.05.09s0,.01-.01.02l-.07.08s0,0-.01.01l-.09.07s0,0-.01,0l-.1.06s0,0-.01,0l-.12.05s0,0-.01,0l-.13.03s0,0-.01,0l-.13.02s0,0-.01,0h-.14s0,0-.01,0l-.13-.02s0,0-.01,0l-.13-.03s0,0-.01,0h-.03s.49.33.49.33l.04.02h.05ZM133.76,50.32v1.24l12.43-8.79v-.44s0,0,0-.01l-.03-.07s0,0,0,0v-.07s0,0,0,0c0,0,0,0,0,0v-.08s.05-.13.05-.13c0,0,0-.02,0-.03l.04-.09s0,0,0-.01l.06-.09s0,0,0,0l.07-.08s0,0,0,0l.07-.07s0,0,.01,0l.07-.05s0,0,.01,0l.07-.03s.01,0,.02,0h.07s.02-.02.03-.02h.06s.02.01.03.02h.03s0,.02,0,.02c0,0,0,0,0,0l.56.4,4.59-3.24s0,0,0,0l7.33-5.18v-1.24l-25.61,18.11ZM108.72,35.29l23,16.27v-1.24l-42.66-30.16v1.24l19.65,13.89s0,0,0,0ZM119.68,51.36h.12l.12-.02.12-.03.1-.04.09-.05.07-.06.06-.07.04-.07.02-.08-.02-.07-.04-.07-.06-.07-.07-.06-.09-.05-.11-.04-.12-.03-.12-.02h-.12l-.12.02-.12.03-.11.04-.09.05-.07.06-.06.07-.04.07-.02.08.02.07.04.07.06.07.07.06.09.05.1.04.12.03.12.02ZM118.42,50.83l.56.39-.02-.02s0-.01-.01-.02l-.05-.09s0-.01,0-.02l-.02-.1s0-.01,0-.02c0,0,0-.02,0-.03h0v-.07s0-.02,0-.02l.02-.09s0-.01,0-.02l.05-.09s0-.01.01-.02l.07-.08s0,0,.01-.01l.09-.07s0,0,.01,0l.1-.06s0,0,.01,0l.12-.05s0,0,.01,0l.13-.03s0,0,.01,0l.13-.02s0,0,.01,0h.09l-.39-.28-.82.58s0,0-.01,0l-.02.02s0,0,0,0l-.13.09-.02.02v.04s0,.02,0,.02v.02s.03.02.03.02l.03.02ZM140.54,50.63l.8.57-.02-.09-.04-.12-.05-.11-.06-.08-.07-.07-.09-.05-.09-.04s-.02,0-.02,0h-.01s-.1-.02-.1-.02h-.11s-.14.02-.14.02ZM132.65,50.44h.18l.17-.02.17-.03.16-.05.15-.07.08-.05-.02-.03-.03-.04-.07.04s0,0-.01,0l-.15.06s0,0-.01,0l-.16.05s0,0-.01,0l-.17.03s0,0-.01,0h-.17s0,0-.01,0h-.17s0-.01-.01-.01l-.17-.03s0,0-.01,0l-.16-.05s0,0-.01,0l-.15-.06s0,0-.01,0l-.07-.04-.03.04-.02.03.08.05.15.07.16.05.17.03.17.02ZM132.58,50.16h.16s.16,0,.16,0l.16-.03.15-.04.14-.06.12-.07,25.8-18.24.1-.09.08-.09.06-.1.03-.1v-.1s0-.1,0-.1l-.03-.1-.06-.1-.08-.09-.1-.09L116.42.46l-.12-.07-.14-.06-.15-.04-.16-.03h-.16s-.16,0-.16,0l-.16.03-.15.04-.14.06-.12.07-25.8,18.24-.1.09-.08.09-.06.1-.03.1v.1s0,.1,0,.1l.03.1.06.1.08.09.1.09,42.85,30.3.12.07.14.06.15.04.16.03ZM133.67,50.05h0s0,0,0,.01l.02.03s0,0,0,0h0s25.64-18.12,25.64-18.12l-.04-.07-25.65,18.13ZM89.07,19.93l42.69,30.19h0s0-.02,0-.02l.03-.04-42.69-30.19-.02.03-.02.04ZM122.24,48.35v1.72s0,0,0,0l.03-.15s0,0,0-.01l.04-.14s0,0,0-.01l.06-.12s0,0,0-.01l.07-.1s0,0,.01-.01l.09-.09s0,0,.02-.01l.1-.07s.01,0,.02,0l.12-.05s.01,0,.02,0l.13-.03s.01,0,.02,0h.14s0,0,.01,0l.15.02s0,0,.01,0l.16.04s0,0,0,0l.16.06.11.05-1.49-1.05ZM122.55,49.96l-.02.09.8-.57h-.06s-.12-.03-.12-.03h-.11s-.05.02-.05.02c-.01,0-.02,0-.03,0h0s-.1.04-.1.04l-.08.05-.07.07-.06.08-.05.11-.04.12ZM149.39,49.78h0s.03,0,.03,0l.05-.02.06-.04.06-.06.05-.07.04-.08.03-.07v-.06s.01-.04.01-.04v-.02s-.02,0-.02,0h-.03s-.05.03-.05.03l-.06.04-.06.06-.05.07-.04.08-.03.07v.06s-.01.04-.01.04v.02ZM150.52,49.65h.05s.05,0,.05,0h.05s.04-.02.04-.02v-1.18h-.05s0,.01-.01.01h-.06s0,0-.01,0h-.06s0,0-.01,0h-.05s0,1.17,0,1.17h.04s.05.02.05.02ZM148.92,49.53l.13.09.02-.08s0,0,0-.01l.03-.09s0,0,0-.01l.05-.09s0,0,0,0l.06-.08s0,0,0,0l.07-.07s0,0,0,0l.07-.06s0,0,.01,0l.05-.03-.13-.09s0,0,0,0c0,0,0,0,0,0,0,0,0,0,0,0l-.07.05-.06.06-.06.06-.05.07-.05.07-.04.08-.03.07-.02.08s0,0,0,0c0,0,0,0,0,0ZM150.9,48.35v1.15l1.19-.84v-1.15l-1.19.84ZM149.91,49.26l.33.23v-1.15l-.82-.58v.64l.04.03s.02.01.02.02l.02.02h.02s.01.01.02.02h0s0,0,0,0c0,0,0,0,0,0l.14.1s.01.01.02.02h.01s.02.02.02.03l.04.06s0,.02.01.02l.03.07s0,.01,0,.02v.08s.01,0,.01.01v.05s0,.04-.02.05c0,.01,0,.03,0,.05l.02.03s0,0,0,0c0,0,0,0,0,.01l.05.11s0,.02,0,.03h0ZM147.92,48.88l.48.34.04-.1.06-.12.07-.12.08-.11.09-.1.09-.08-.48-.34-.03.02-.09.08-.08.09-.07.1-.06.1-.05.1-.05.14ZM147.48,48.95l.06.04h0s0-.03,0-.03c0,0,0,0,0-.01,0,0,0-.01,0-.02v-.03s0,0,0,0c0,0,0,0,0-.01v-.03s0,0,0-.01h0s0,0,0,0,0,0,0,0h0s0,0,0,0c0,0,0,0,0,0v-.05s.01,0,.01-.01l.07-.19.06-.12.05-.09.1-.14.08-.1.08-.08-.16-.11-.04.03-.08.09-.08.1-.07.11-.06.11-.05.11-.03.11-.02.1v.08s0,.07,0,.07l.02.05.04.05ZM150.52,48.26h.05s.05,0,.05,0h.05s.04-.03.04-.03l.04-.02.45-.32h-.03s0,.01-.01.02l-.13.03s0,0-.01,0l-.13.02s0,0-.01,0h-.14s0,0-.01,0l-.13-.02s0,0-.01,0l-.13-.03s0,0-.01,0l-.12-.05s0,0-.01,0l-.1-.06s0,0,0,0c0,0,0,0,0,0l-.09-.07s0,0-.01-.01l-.07-.08s0-.01-.01-.02l-.05-.09s0-.01,0-.02l-.02-.1s0-.01,0-.02c0,0,0-.02,0-.03h0v-.07l-.43.3.94.66.04.02h.05ZM150.74,47.77h.12l.12-.02.12-.03.11-.04.09-.05.07-.06.06-.07.04-.07.02-.08-.02-.07-.04-.07-.06-.07-.07-.06-.09-.05-.11-.04-.12-.03-.12-.02h-.12l-.12.02-.12.03-.11.04-.09.05-.07.06-.06.07-.04.07-.02.08.02.07.04.07.06.07.07.06.09.05.11.04.12.03.12.02ZM151.68,47.37s0,.01,0,.02l-.02.1s0,.01,0,.02l-.05.09s0,.01-.01.02l-.02.02.59-.42.02-.02v-.04s0-.02,0-.02v-.02s-.03-.02-.03-.02l-.03-.03-.09-.07s0,0,0,0l-.02-.02s0,0,0,0l-.82-.58-.39.28h.09s0,0,.01,0l.13.02s0,0,.01,0l.13.03s0,0,.01,0l.12.05s0,0,.01,0l.1.06s0,0,0,0c0,0,0,0,0,0l.09.07s0,0,.01.01l.07.08s0,.01.01.02l.05.09s0,.01,0,.02l.02.1s0,.02,0,.02v.07s0,.02,0,.03ZM154.49,45.81v1.72l1.49-1.05-.1.05-.17.06s0,0,0,0l-.16.04s0,0-.01,0l-.15.02s0,0-.01,0h-.14s-.01,0-.02,0l-.13-.03s-.01,0-.02,0l-.12-.05s-.01,0-.02,0l-.1-.07s-.01,0-.01-.01l-.09-.09s0,0-.01-.01l-.07-.1s0,0,0-.01l-.06-.12s0,0,0-.01l-.04-.14s0,0,0-.01l-.03-.15s0,0,0,0ZM152.74,46.43l1.56,1.1v-7.14l-2.11-1.49v7.14l.51.36s0,0,0,0h.02s0,.02.01.02ZM155.22,46.35h.12s.13-.01.13-.01l.14-.03.16-.05.16-.07.16-.09.16-.11.16-.12.16-.14.16-.15.16-.17.15-.18.14-.19.13-.19.12-.2.11-.2.1-.2.09-.2.07-.2.06-.19.04-.19.02-.18v-.11s-1.04-.74-1.04-.74h-.02s-.14.07-.14.07l-.15.08-.15.1-.15.11-.15.13-.15.14-.15.15-.14.16-.14.17-.13.18-.12.18-.11.19-.1.19-.09.19-.08.19-.07.19-.05.18-.04.18-.03.17v.16s-.02.07-.02.07v.13s.02.12.02.12l.03.12.04.1.03.05s0,.01,0,.02l.03.04.07.07.09.05.1.04h.04s.06.02.06.02ZM158.21,43.37l-.02.13-.04.21-.06.21-.08.22-.09.22-.11.22-.12.22-.13.21-.14.21-.15.2-.16.19-.17.18-.1.1,2.83-2-.1.05-.17.06s0,0,0,0l-.16.04s0,0-.01,0l-.15.02s0,0-.01,0h-.14s-.01,0-.02,0l-.13-.03s-.01,0-.02,0l-.12-.05s-.01,0-.02,0l-.1-.07s-.01,0-.01-.01l-.09-.09s0,0-.01-.01l-.07-.11s0,0,0-.01l-.06-.12s0,0,0-.01l-.04-.14s0,0,0,0ZM109.25,41.09l6.16,4.36.29-.09v-2.15h0s-.01,0-.02,0c-.01,0-.03.01-.04.02h-.05s-.03,0-.04,0h-.06s-.02-.02-.02-.02l-.06-.04s0,0,0,0c0,0,0,0,0,0l-.06-.05s0,0,0,0l-.04-.05s0,0-.01-.01v-.02s-.02,0-.02-.01l-.02-.04s0,0,0-.01l-.02-.03s0,0,0,0l-.04-.08s0-.01,0-.02l-.02-.08s0-.02,0-.02v-.07s0-.02,0-.03l.02-.05s.02-.03.03-.04h0s.01-.02.02-.03l.05-.04s0,0,0,0c0,0,0,0,0,0,0,0,0,0,0,0h.01s.02-.02.03-.02h.05s.03,0,.04,0h.06s.02.02.02.02l.06.04s0,0,0,0c0,0,.01,0,.02.01l.06.05s0,0,.01.01l.06.06v-2.19l-1.82-1.29s0,0,0,0h0s0,.01,0,.02c0,0,0,0,0,0,0,0,0,0,0,0,0,0,0,.02,0,.03h0v.64s0,0,0,0c0,.01,0,.03-.01.04,0,0,0,0,0,0,0,.01-.01.02-.02.03,0,0,0,0,0,0l-.09.06s0,0-.01,0c0,0,0,0,0,0h0s-.02,0-.02,0c0,0,0,0,0,0,0,0,0,0,0,0,0,0,0,0,0,0,0,0-.01,0-.02,0-.01,0-.03,0-.04,0,0,0,0,0,0,0,0,0,0,0,0,0,0,0-.01,0-.01,0l-.23-.16-.24.08s-.01,0-.02,0t0,0h0s-.02,0-.04,0c0,0-.01,0-.02,0,0,0-.02,0-.02-.01,0,0,0,0,0,0,0,0,0,0,0,0,0,0,0,0-.01-.01l-.69-.78-.21-.15s0,0,0,0c-.01,0-.02-.02-.03-.03,0-.01,0-.02,0-.03,0,0,0,0,0,0,0,0,0,0,0,0v-.64h0s0-.02,0-.03c0,0,0,0,0-.01,0,0,0,0,0,0,0,0,.01-.02.02-.02,0,0,0,0,0,0,0,0,0,0,.01-.01l.09-.06s.01,0,.02-.01c.01,0,.03,0,.04,0h0s0,0,0,0c0,0,0,0,.01,0l-3.53-2.5v2.34h0s0,0,0,0h0s0,0,0,0h.01s.02-.02.03-.02h.05s.03,0,.04,0h.06s.02.02.02.02l.06.04s.01,0,.02.01c0,0,0,0,0,0,0,0,0,0,0,0l.06.05s0,0,.01.01l.06.07s0,0,0,.01l.05.08s0,0,0,.01l.04.08s0,.01,0,.02l.02.07.18-.12s.02-.01.03-.02l.05-.04h0s0-.02,0-.02l.02-.05s0-.01,0-.02l.03-.04s0,0,.01-.01l.04-.03s0,0,.01-.01c0,0,0,0,0,0l.05-.03s0,0,0,0l.03-.02s.01,0,.02,0l.07-.02s.02,0,.02,0h.08s.01,0,.02,0l.09.02s.01,0,.02,0l.1.04s0,0,.01,0l.1.06s0,0,0,0l.1.07s0,0,.01,0l.1.09.1.11.1.12.09.12.08.13.06.13.05.13s0,0,0,0l.03.12s0,0,0,.01l.02.11s0,0,0,.01v.1s0,.01,0,.02l-.02.09s0,.01,0,.02l-.03.08s0,.02-.01.02l-.05.06s0,.01-.01.01l-.02.02s0,0,0,0c0,0,0,0,0,0h0s0,0,0,0l-.04.03s0,0,0,0h0s0,0-.01.01l-.03.02s-.01,0-.02,0l-.05.02s-.01,0-.02,0h-.05s-.01,0-.02,0h-.03s-.2.14-.2.14c-.01,0-.02.01-.03.02h0s0,0,0,0h0s.65.46.65.46c0,0,0,0,0,0h0s0,0,0,.01h0s0,.01,0,.02l.03.05v.02s.01,0,.01.01h0s0,.02,0,.02c0,0,0,0,0,0,0,0,0,0,0,.01v1.1s0,0,0,0h0s0,0,0,0h0s0,.03,0,.03c0,.01-.01.03-.02.04h0s-.01.01-.02.02l-.1.07s-.01,0-.02.01c0,0-.02,0-.03,0,0,0-.03,0-.04,0,0,0-.02,0-.03,0,0,0-.02,0-.02-.01h0s0,0,0,0h0s0,0,0,0c0,0,0,0,0,0l-.94-.66-.37-.17s0,0,0,0h0s0,0,0,0c0,0,0,0,0,0,0,0-.01,0-.02-.01,0,0-.01,0-.01-.01,0,0-.01-.01-.02-.02,0,0-.01-.02-.02-.02,0,0,0-.01,0-.02,0,0,0-.02,0-.03,0,0,0-.02,0-.02h0s0,0,0,0c0,0,0,0,0,0,0,0,0,0,0-.01v-.2s0,0,0,0c0,0,0-.01,0-.02,0,0,0-.02,0-.02,0,0,0-.01,0-.01,0,0,0-.01,0-.02,0,0,0,0,0-.01v-.15s0,0,0-.01c0,0,0-.01,0-.02,0,0,0,0,0,0h-.02s-.01-.02-.02-.02l-.03-.03s-.01-.01-.02-.02l-.02-.03-.1-.06s0,0-.01,0l-.1-.08s0,0,0,0l-.09-.09-.07-.07s0,0,0,0c-.03,0-.06-.01-.08-.04l-.04-.05s-.02-.06-.01-.09c0,0,0,0,0,0h0s0,0,0,0c0,0,0,0,0,0h0s-.03-.05-.03-.05l-.06-.12s0,0,0,0l-.02-.04v.82l.44.75ZM154.49,40.39v5.05l.03-.19.04-.21.06-.21.08-.22.09-.22.11-.22.12-.22.13-.21.14-.21.15-.2.16-.19.17-.18.17-.17.18-.15.18-.14.18-.12.18-.1.18-.08.17-.06s0,0,0,0l.16-.04s0,0,.01,0l.15-.02s0,0,.01,0h.14s.01,0,.02,0l.13.03s.01,0,.02,0l.12.05s.01,0,.02,0l.1.07s.01,0,.01.01l.09.09s0,0,.01.01l.07.1s0,0,0,.01l.06.12s0,0,0,.01l.04.14s0,0,0,0l.02-.13.04-.21.06-.21.08-.22.09-.22.11-.22.12-.22.13-.21.14-.21.15-.2.16-.19.17-.18.17-.17.18-.15.18-.14.18-.12.18-.1.18-.08.17-.06s0,0,0,0l.16-.04s0,0,.01,0l.15-.02s0,0,.01,0h.14s.01,0,.02,0l.13.03s.01,0,.02,0l.12.05s.01,0,.02,0l.1.07s.01,0,.01.01l.09.09s0,0,.01.01l.07.1s0,0,0,.01l.06.12s0,0,0,.01l.04.14s0,0,0,.01l.03.15s0,0,0,.01v.17s0,0,0,.01v.18s-.03.2-.03.2l-.04.21-.06.21-.08.22-.09.22-.11.22-.12.22-.13.21-.14.21-.15.2-.16.19-.17.18-.1.1,2.07-1.46v-7.14l-4.25,3.01.1-.05.17-.06s0,0,.01,0l.16-.04s0,0,.01,0l.15-.02s0,0,.01,0h.14s.01,0,.02,0l.13.03s.01,0,.02,0l.12.05s.01,0,.02,0l.1.07s.01,0,.01.01l.09.09s0,0,.01.01l.07.11s0,0,0,.01l.06.12s0,0,0,.01l.04.14s0,0,0,.01l.03.15s0,0,0,.01v.17s0,0,0,.01v.18s-.03.2-.03.2l-.04.21-.06.21-.08.22-.09.22-.11.22-.12.22-.13.21-.14.21-.15.2-.16.19-.17.18-.17.17-.18.15-.18.14-.18.12-.18.1-.18.08-.17.06s0,0-.01,0l-.16.04s0,0-.01,0l-.15.02s0,0-.01,0h-.14s-.01,0-.02,0l-.13-.03s-.01,0-.02,0l-.12-.05s-.01,0-.02,0l-.1-.07s-.01,0-.01-.01l-.09-.09s0,0-.01-.01l-.07-.1s0,0,0-.01l-.06-.12s0,0,0-.01l-.04-.14s0,0,0-.01l-.03-.15s0,0,0-.01v-.17s0,0,0,0c0,0,0,0,0,0h0s0,0,0,0v-.18s.03-.2.03-.2l.04-.21.06-.21.08-.22.09-.22.11-.22.12-.22.13-.21.14-.21.15-.2.16-.19.17-.18.1-.1-2.99,2.12ZM158.91,43.75h.12s.13-.01.13-.01l.14-.03.15-.05.16-.07.16-.09.16-.11.16-.12.16-.14.16-.15.16-.17.15-.18.14-.19.13-.19.12-.2.11-.2.1-.2.09-.2.07-.2.06-.19.04-.19.02-.18v-.11s-1.04-.74-1.04-.74h-.02s-.14.07-.14.07l-.15.08-.15.1-.15.11-.15.13-.15.14-.15.15-.14.16-.14.17-.13.18-.12.18-.11.19-.1.19-.09.19-.08.19-.07.19-.05.18-.04.18-.03.17v.16s-.01.07-.01.07v.13s.02.12.02.12l.03.11.04.1.03.05s0,.01,0,.02l.03.04.07.07.09.05.1.04h.04s.06.02.06.02ZM147.58,43.01h.02s.04-.01.04-.01l.05-.03.06-.05.06-.06.05-.07.04-.08.02-.07v-.06s0-.04,0-.04h-.02s-.04.01-.04.01l-.05.03-.06.05-.06.06-.05.07-.04.08-.02.07v.06s0,.04,0,.04ZM157.12,42.35l.8.57-.02-.09-.04-.12-.06-.12-.06-.08-.07-.07-.09-.05-.1-.04s-.01,0-.02,0h-.1s-.11-.01-.11-.01l-.14.02ZM115.5,42.87h.02s0,0,0,0l-.02-.02s0,0,0,0h0ZM147.34,42.76l.06.04v-.03s.01,0,.02-.01l.04-.09s0,0,0-.01l.06-.08s0,0,0-.01l.07-.07s0,0,0,0l.07-.06s0,0,.01,0l.03-.02-.04-.03h-.02s-.04.01-.04.01l-.05.03-.06.05-.06.06-.05.07-.04.08-.02.08ZM147.11,42.65l.04.02v-.04s.02,0,.02-.01l.04-.09s0,0,0-.01l.05-.08s0,0,0,0l.06-.08s0,0,0,0l.07-.06s0,0,.01,0l.07-.05s0,0,.02,0l.04-.02h0s-.02,0-.02,0h-.03s-.05.02-.05.02l-.06.03-.06.05-.06.06-.05.07-.05.08-.03.08-.02.07ZM146.39,42.48v.15l.11-.07-.11-.07ZM146.34,42.11l.6.42v-.02s0,0,.01-.01l.04-.09s0,0,0-.01l.05-.09s0,0,0,0l.06-.08s0,0,0,0l.07-.07s0,0,0,0l.07-.06s0,0,.01,0l.05-.03-.57-.4h-.02s-.04,0-.04,0l-.05.03-.06.04-.06.06-.06.07-.05.08-.03.07s0,0,0,.01c0,0,0,0,0,0l-.03.11ZM156.84,41.76h.12s.13,0,.13,0l.14-.03.15-.05.16-.07.16-.09.16-.11.16-.12.16-.14.16-.15.16-.17.15-.18.14-.19.13-.19.12-.2.11-.2.1-.2.09-.2.07-.2.06-.19.04-.19.02-.18v-.11s-1.04-.74-1.04-.74h-.02s-.14.07-.14.07l-.15.08-.15.1-.15.11-.15.13-.15.14-.15.15-.14.16-.14.17-.13.18-.12.18-.11.19-.1.19-.09.19-.08.19-.07.19-.05.18-.04.18-.03.17-.02.23v.13s.02.12.02.12l.03.11.04.1.03.05s0,.01,0,.02l.03.04.07.07.09.05.1.04h.04s.06.02.06.02ZM162.79,34.53v7.13l.04-.03.17-.15.15-.16.12-.17.1-.18.08-.18.06-.19.04-.19v-.19s.01-6.57.01-6.57v.02s-.01,0-.02,0l-.11.19s0,0,0,0l-.13.18-.16.18-.18.17-.16.12ZM110.88,41.52l.06.04v-.07s0,0,0,0c-.01,0-.03.02-.04.02,0,0,0,0-.02,0ZM110.81,40.97h0s.12.14.12.14c0,0,0,0,0,0v-.16s0,0,0,0c-.01,0-.03.02-.04.02-.01,0-.03,0-.04,0h-.01s-.01,0-.02,0h-.01ZM160.81,39.75l.8.57-.02-.09-.04-.12-.06-.12-.06-.08-.07-.07-.08-.05-.11-.04s-.01,0-.02,0h-.1s-.11-.01-.11-.01l-.14.02ZM152.26,38.71l2.14,1.51,8.24-5.82.19-.15.17-.15.15-.16.12-.17.1-.18.08-.18.06-.19.04-.19v-.09s-2.85,0-2.85,0l.3.21s0,0,.01.01c0,0,0,0,0,0,0,0,.02.02.02.03,0,0,0,0,0,0,0,.01,0,.02,0,.03,0,.02,0,.03,0,.04,0,0-.01.02-.02.03,0,0,0,0-.02.01l-.13.1s-.01,0-.02,0c-.01,0-.03,0-.04,0h0s0,0,0,0c-.01,0-.03,0-.04,0,0,0-.01,0-.02,0l-.66-.47h-.14l-.02.12s0,.01,0,.02l-.05.13s0,.01,0,.02l-.08.12s0,0,0,.01l-.1.11s0,0-.01,0l-.12.1s0,0,0,0c0,0,0,0,0,0l-7.26,5.13ZM109.7,40.12h.08s.06-.01.06-.01h-.01s0,0-.01,0l-.05-.02s0,0-.01,0h0s0,0-.01.01l-.03.03s0,0,0,0c0,0,0,0,0,0h0ZM109.51,39.88h.04s.03,0,.03,0v-.02s0-.04,0-.04h0s-.07.05-.07.05h0ZM109.83,39.84l.08.02h.08s.02-.02.02-.02h0s0-.08,0-.08l-.02-.07-.03-.08-.03-.08-.04-.08-.04-.08-.17.12v.02s.05.07.05.07l.03.07.02.07.02.07s0,0,0,.01v.03s.04.02.04.02ZM109.33,39.75h.01s.19-.12.19-.12h0s-.04-.08-.04-.08l-.05-.08-.05-.06-.09-.09-.04-.03-.05-.03h-.04s-.02-.02-.02-.02h0s-.01.02-.01.02v.04s0,.06,0,.06l.02.07.03.08.04.08.06.08.06.07ZM110.01,39.24h0s.05.1.05.1l.05.09.04.09.03.09.02.09.03-.02v-.09s-.05-.15-.05-.15l-.07-.17-.05-.08-.05.03ZM113.25,39.55v.16l.22-.07v-.16l-.22.07ZM110.36,39.39l.07.2.07-.05-.17-.46-.07.05.09.25s0,0,0,0ZM112.76,38.88l.43.48.17-.06-.6-.43ZM110.68,38.84l.17.46.07-.05-.17-.46-.07.05ZM109.45,39.19l.08.08.17-.12-.13-.14-.05.05-.05.08-.02.05ZM112.66,39.14l.09.1s0,0,0,0c0-.01.01-.02.02-.03,0,0,0,0,0,0l-.09-.1s-.01.03-.03.05ZM100.11,39.22h.05s.05,0,.05,0h.05s.04-.02.04-.02v-1.18h-.05s0,.01-.01.01h-.06s0,0-.01,0h-.06s0,0-.01,0h-.05s0,1.17,0,1.17h.04s.05.02.05.02ZM109.25,39.06l.04.02v-.02s.04-.06.04-.06l.04-.05.04-.05-.07-.04-.04-.02-.02.02-.04.08v.04s-.01.04-.01.04v.04ZM100.49,37.92v1.14l.84-.59v-.02s-.01-.01-.01-.02v-.02s0,0,0,0c0,0,0,0,0,0v-1.06l-.82.58ZM98.65,38.23l1.19.84v-1.14l-1.19-.84v1.14ZM108.95,39.04v.02s.02-.02.02-.02c0,0,.01,0,.02,0h0s0-.02,0-.03v-.05s-.01.01-.01.01l-.03.07ZM109.72,38.89l.09.09.04.05.05-.03-.14-.14-.05.03ZM108.81,38.48v.36s0,0,0,0l.02-.02v-.02s.02-.01.03-.02l.06-.07s.01,0,.02-.01h.02s0-.01,0-.02c0,0,0,0,.01-.01l.03-.02-.04-.03s0,0,0,0c0,0,0,0,0,0l-.06-.05s0,0,0,0l-.04-.05s0,0-.01-.01h0ZM109.83,38.66l.21.16.07-.05-.38-.29-.07.05.16.13s0,0,0,0ZM109.48,38.71l.09.05.04-.03-.1-.05-.03.02ZM110.08,38.24l.38.29.07-.05-.38-.29-.07.05ZM158.74,37.76l.8.57-.02-.09-.04-.12-.06-.11-.06-.08-.07-.07-.09-.05-.11-.04s-.01,0-.02,0h-.1s-.11-.01-.11-.01l-.14.02ZM109.05,38.31h.02s0,0,0,0l-.02-.02s0,0,0,0h0ZM100.11,37.84h.05s.05,0,.05,0h.05s.04-.03.04-.03l.04-.02.9-.64-.43-.3v.07s0,.02,0,.03c0,0,0,.01,0,.02l-.02.1s0,.01,0,.02l-.05.09s0,.01-.01.02l-.07.08s0,0-.01.01l-.09.07s0,0-.01,0l-.1.06s0,0-.01,0l-.12.05s0,0-.01,0l-.13.03s0,0-.01,0l-.13.02s0,0-.01,0h-.14s0,0-.01,0l-.13-.02s0,0-.01,0l-.13-.03s0,0-.01,0h-.03s.49.33.49.33l.04.02h.05ZM99.87,37.35h.12l.12-.02.12-.03.11-.04.09-.05.07-.06.06-.07.04-.07.02-.08-.02-.07-.04-.07-.06-.07-.07-.06-.09-.05-.1-.04-.12-.03-.12-.02h-.12l-.12.02-.12.03-.11.04-.09.05-.07.06-.06.07-.04.07-.02.08.02.07.04.07.06.07.07.06.09.05.11.04.12.03.12.02ZM98.61,36.82l.56.39-.02-.02s0-.01-.01-.02l-.05-.09s0-.01,0-.02l-.02-.1s0-.01,0-.02c0-.01,0-.02,0-.03h0v-.07s0-.02,0-.02l.02-.09s0-.01,0-.02l.05-.09s0-.01.01-.02l.07-.08s0,0,.01-.01l.09-.07s0,0,.01,0l.1-.06s0,0,.01,0l.12-.05s0,0,.01,0l.13-.03s0,0,.01,0l.13-.02s0,0,.01,0h.09l-.39-.28-.98.7-.02.02v.02s-.01.02-.01.02v.02s.01.02.01.02l.02.02.03.03ZM89.06,28.77l7.18,5.08v-7.13h0s-7.17-5.08-7.17-5.08v7.14ZM159.56,32.07v1.21l.05-.05.07-.11.05-.11.02-.11v-.06s0-.96,0-.96l-.09.1s0,0-.01.01l-.09.07ZM160.27,32.85h.01s0,0,0,0h0s0,0,0-.01h-.01ZM160.68,32.75h2.86v-.09s-.04-.19-.04-.19l-.06-.19-.08-.18-.1-.18-.13-.17-.15-.16-.17-.15-.18-.14-8.24-5.82-1.06.75,6.16,4.36s0,0,0,0l.03.02.11.1s0,0,0,0l.09.1s0,0,0,.01l.07.11s0,0,0,.01l.05.12s0,0,0,.01l.04.12s0,.01,0,.02l.02.12s0,.01,0,.02h0s0,.02,0,.02h0v1.38h.13l.66-.47s0,0,.01,0c0,0,0,0,0,0,0,0,0,0,0,0,.01,0,.02,0,.04,0,.01,0,.03,0,.04,0,0,0,0,0,0,0,0,0,0,0,0,0,0,0,0,0,0,0h0s.01,0,.02,0l.13.09s.01,0,.02.01c0,0,.01.02.02.03,0,.01,0,.03,0,.04,0,.01,0,.03,0,.04h0s0,0,0,0c0,.01-.01.02-.02.03,0,0,0,0-.01.01l-.13.09s0,0,0,0l-.16.11ZM159.47,31.8h0s0,.02,0,.02l.03.05h0s.09-.11.09-.11l.07-.11.05-.11.02-.11v-.04s0-.01,0-.02v-.02s0-.05,0-.05v.08s-.01.01-.01.02l-.04.12s0,.01,0,.02l-.07.11s0,0-.01.01l-.09.11s0,0-.01.01l-.03.03ZM88.82,29.33l.05.05v-.52l-.09-.07s0,0-.01,0l-.09-.1v.25s0,.02,0,.02v.02s0,.05,0,.05l.02.1.05.11.07.11ZM88.82,28.55l.05.05v-7.11l-.09-.07s0,0-.01,0l-.09-.1v6.91s.03.11.03.11l.05.11.07.11ZM88.41,24.24l.07.12v-2.88l-.07.21-.08.28-.06.28-.05.27-.03.26-.02.25v.24s.02.22.02.22l.03.21.05.2.06.18.08.16ZM88.07,24.03l.08.1-.06-.17-.05-.21-.03-.23-.02-.24v-.25s.02-.26.02-.26l.03-.27.05-.28.07-.29.08-.29.1-.3.16-.41v-.14h0v-.67l-.04.08-.14.29-.12.29-.11.29-.09.29-.08.28-.06.27-.05.27-.03.26-.02.25v.24s.02.22.02.22l.03.21.05.19.06.17.07.16.09.15ZM87.63,23.69l.05.08-.05-.14-.05-.21-.03-.23-.02-.24v-.25s.02-.26.02-.26l.03-.27.05-.28.07-.29.08-.29.1-.3.11-.3.13-.3.14-.3.15-.3.09-.16v-.33s0-.02,0-.02v-.05s-.08.14-.08.14l-.16.29-.15.3-.14.3-.12.29-.11.29-.09.29-.08.28-.06.28-.05.27-.03.26-.02.25v.24s.02.22.02.22l.03.21.05.2.06.18.08.16ZM88.82,21.18l.05.05v-1.21l-.09-.07s0,0-.01,0l-.09-.1v1.01s.03.11.03.11l.05.11.07.11ZM88.91,19.8h0s0,0,0,0c0,0,0,0,0,0l.04-.05-.03-.03s0,0-.01-.01l-.09-.1s0,0-.01-.01l-.07-.11s0-.01,0-.02l-.04-.12s0-.01,0-.02v-.08s-.01,0-.01,0v.09s0,0,0,.01v.04s.03.11.03.11l.05.11.07.11.09.1ZM90.95,16.49l-.19.14-.24.19-.24.21-.23.22-.23.23-.23.25-.22.26-.21.27-.17.24.56-.4.22-.26.23-.25.24-.24.24-.23.24-.21.25-.2.14-.1-.16-.11ZM91.27,16.75l-.19.14-.24.19-.23.21-.22.21.97-.68-.09-.06ZM91.44,16.63l.09.06.73-.52h0s-.23.11-.23.11l-.23.13-.24.14-.12.08ZM91.12,16.37l.15.11.19-.13.25-.15.24-.13.24-.11.24-.09.23-.08.22-.05.12-.09h-.2s-.21.05-.21.05l-.21.05-.22.07-.23.09-.23.11-.24.13-.24.14-.12.08ZM100.88,9.97l.08.06.55-.39-.2-.14h-.02s-.03,0-.03,0l-.05.02-.06.03-.06.05-.06.06-.05.07-.05.08-.03.08-.02.08ZM100.75,9.74v.02s0-.03,0-.03c0,0,0,0,0-.01l.05-.09s0,0,0,0l.06-.08s0,0,0,0l.06-.07h0s-.06.06-.06.06l-.05.07-.05.07-.03.07ZM100.51,9.64l.05.04h0s0-.01,0-.02l.04-.09s0,0,0-.01l.05-.08s0,0,0,0l.06-.08s0,0,0,0l.07-.06s0,0,.01,0l.06-.04-.03-.02h-.02s-.04.01-.04.01l-.05.03-.06.05-.06.06-.05.07-.04.08-.02.08ZM109.38,3.46l-.19.14-.24.19-.24.21-.23.22-.23.23-.23.25-.22.26-.21.27-.18.24.56-.4.22-.26.23-.25.24-.24.24-.23.24-.21.25-.2.14-.1-.16-.11ZM109.7,3.72l-.19.14-.24.19-.24.21-.22.21.97-.69-.09-.06ZM109.87,3.6l.09.06.74-.52h0s-.23.11-.23.11l-.23.13-.24.14-.12.08ZM109.55,3.34l.15.11.19-.13.25-.15.24-.13.24-.11.24-.09.23-.08.22-.05.12-.09h-.2s-.21.05-.21.05l-.21.05-.22.07-.23.09-.23.11-.24.13-.24.14-.12.08ZM119.76,51.3s0,0,0,0h-.09s-.01,0-.02,0l-.08-.02s-.01,0-.02,0l-.07-.04s-.01,0-.02-.01l-.05-.05s-.01-.01-.02-.02l-.03-.06s0-.02-.01-.03v-.06s-.01-.03,0-.04l.02-.06s0-.02.01-.03l.04-.06s.01-.01.02-.02l.06-.05s.01,0,.02-.01l.07-.03s.01,0,.02,0l.08-.02s.01,0,.02,0h.09s.01,0,.02,0h.09s.01.02.02.02l.08.03s.01,0,.02.01l.06.04s.01.01.02.02l.04.05s.01.02.02.03l.02.06s0,.02,0,.04v.06s0,.02-.01.03l-.03.06s-.01.02-.02.03l-.05.05s-.01.01-.02.02l-.07.04s-.01,0-.02,0l-.08.03s-.01,0-.02,0h-.09s0,.01-.01.01ZM119.69,51.1h.07s.07,0,.07,0l.06-.02.05-.03.03-.03v-.03s.01-.03.01-.03v-.03s-.03-.03-.03-.03l-.04-.03-.06-.02h-.07s-.07,0-.07,0h-.07s-.05.04-.05.04l-.04.03-.02.03v.03s0,.03,0,.03l.02.03.03.03.05.03.06.02ZM132.73,50.04s0,0,0,0h-.13s0,0-.01-.01l-.12-.03s0,0-.01,0l-.11-.04s0,0-.01,0l-.04-.03-.09.06s-.01,0-.02,0c-.01,0-.03.01-.04,0h0s-.03,0-.04,0c0,0-.01,0-.02-.01l-42.84-30.29s-.01,0-.01-.01c0,0-.01-.02-.02-.03,0-.01,0-.03,0-.04,0-.01,0-.03,0-.04h0s0,0,0,0c0-.01.01-.02.02-.03,0,0,0,0,.01-.01l.04-.03s0,0,0,0l-.06-.08s0-.01-.01-.02l-.04-.09s0-.02,0-.02v-.09s-.01,0-.01-.01,0,0,0-.01v-.09s.02-.02.02-.02l.04-.09s0-.01.01-.02l.06-.08s0,0,0,0l-.04-.03s0,0-.01-.01c0,0-.01-.02-.02-.03,0-.01,0-.03,0-.04,0-.01,0-.03,0-.04,0,0,0,0,0,0,0,0,.01-.02.02-.03,0,0,0,0,.01-.01L115.03.43s0,0,.01,0h0s0,0,0,0c0,0,.01,0,.02,0h0s0,0,0,0c0,0,0,0,0,0,0,0,0,0,0,0,0,0,.02,0,.02,0,0,0,.02,0,.03,0,0,0,0,0,0,0,0,0,0,0,0,0,0,0,.01,0,.02,0,0,0,0,0,.01,0l.09.06.04-.03s0,0,.01,0l.11-.04s0,0,.01,0l.12-.03s0,0,.01,0h.13s0,0,.01,0h.13s0,0,.01.01l.12.03s0,0,.01,0l.11.04s0,0,.01,0l.05.03.09-.06s0,0,.01,0c0,0,0,0,.01,0h0s0,0,0,0c0,0,0,0,0,0t0,0s.02,0,.03,0c0,0,.02,0,.02,0,0,0,0,0,0,0,0,0,0,0,0,0,0,0,0,0,0,0h0s.01,0,.01,0c0,0,.01,0,.01,0l42.84,30.3s0,0,.01.01c0,0,0,0,0,0,0,0,.02.02.02.03,0,0,0,0,0,0,0,.01,0,.02,0,.04,0,.01,0,.03,0,.04,0,0-.01.02-.02.03,0,0,0,0-.01.01l-.04.03s0,0,0,0l.06.08s0,.01.01.02l.04.09s0,.02,0,.02v.09s.01,0,.01.01,0,0,0,.01v.09s-.02.02-.02.02l-.04.09s0,.01-.01.02l-.06.08s0,0,0,0l.04.03s0,0,.01.01c0,0,0,0,0,0,0,0,.02.02.02.03,0,.01,0,.03,0,.04,0,.01,0,.03,0,.04,0,.01-.01.02-.02.03,0,0,0,0-.01.01l-.03.02s0,0,0,0l-25.76,18.21s-.01,0-.02.01c-.01,0-.03,0-.04,0h0s-.03,0-.04,0c0,0-.01,0-.02-.01l-.09-.06-.05.03s0,0-.01,0l-.11.04s0,0-.01,0l-.12.03s0,0-.01,0h-.13s0,0,0,0ZM132.62,49.83h.11s.11,0,.11,0l.11-.02.1-.04.09-.05,25.8-18.24.07-.06.05-.06.03-.06v-.06s0-.06,0-.06l-.03-.06-.05-.06-.07-.06L116.1.69l-.09-.05-.1-.04-.11-.02h-.11s-.11,0-.11,0l-.11.02-.1.04-.09.05-25.8,18.24-.07.06-.05.06-.03.06v.06s0,.06,0,.06l.03.06.05.06.07.06,42.84,30.29.09.05.1.04.11.02ZM150.83,47.72s0,0,0,0h-.09s-.01,0-.02,0l-.09-.02s-.01,0-.02,0l-.07-.04s-.01,0-.02,0c0,0,0,0,0,0l-.05-.05s-.01-.02-.02-.03l-.03-.06s0-.02-.01-.04v-.07s0-.03,0-.04l.02-.06s0-.02.02-.03l.04-.06s.01-.01.02-.02l.07-.05s.01,0,.02-.01l.08-.03s.01,0,.02,0h.09s.01-.02.02-.02h.09s.01,0,.02,0l.09.02s.01,0,.02,0l.07.04s0,0,.01,0c0,0,0,0,.01,0l.05.05s.01.02.02.03l.03.06s0,.02.01.04v.07s0,.03,0,.04l-.02.06s0,.02-.02.03l-.04.06s-.01.01-.02.02h-.01s-.02.03-.04.04h-.01s-.01.02-.02.02l-.08.03s-.01,0-.02,0h-.09s0,.02-.01.02ZM150.75,47.52h.07s.07,0,.07,0l.04-.02v-.21h-.01s-.07-.02-.07-.02h-.07s-.07,0-.07,0l-.06.02-.04.03-.02.03v.03s0,.03,0,.03l.02.03.03.03.05.03.07.02ZM139.4,44.04s-.01,0-.02,0h-.08s-.02-.02-.03-.02h0s-.02,0-.03-.02h-.03s-.01-.02-.02-.02c0,0,0,0-.01-.01l-.02-.02s-.02-.02-.03-.03c0,0-.02-.02-.02-.03h0s-.01-.02-.02-.04c0,0,0-.01,0-.02,0-.01,0-.03,0-.04,0,0,0,0-.01-.01l-.05-.06s-.01-.02-.02-.03l-.02-.06s0-.02,0-.03v-.02s0,0,0,0v-.05h0s0-.01,0-.02v-.06s.02-.02.02-.03l.03-.06s.01-.02.02-.02l.05-.05s.01-.01.02-.01l.07-.04s.01,0,.02,0l.08-.02s.01,0,.02,0h.08s.01,0,.02,0h.08s.01,0,.02,0l.08.02s0,0,.01,0l.04.02s0,0,0,0c0,0,0,0,0,0,0,0,0,0,0,0,0,0,0,0,0,0l.05.03s.01,0,.02.01l.05.05s.01.01.02.02l.03.06s0,.02,0,.03v.02s0,.02.01.03h0s0,.02,0,.02v.04s0,0,0,.01c0,0,0,0,0,0v.05s-.01.02-.02.03l-.03.06s-.01.02-.02.03l-.03.03v.02s0,.03-.01.04c0,0,0,0,0,0,0,.01-.01.02-.02.03h0s-.01.03-.02.04c0,0-.01.01-.02.02l-.06.04s-.02.01-.03.01l-.07.02s-.02,0-.02,0h-.08s0,0,0,0ZM113.28,43.2s-.01,0-.02,0l-.09-.02s0,0,0,0c-.01,0-.03,0-.04,0l-.07-.03s0,0-.01,0l-.09-.05s0,0,0,0l-.09-.07s0,0,0,0l-.09-.08-.09-.1-.13-.17s0,0,0,0v-.02s-.08-.11-.08-.11l-.06-.12-.05-.12s0,0,0,0v-.02s-.01,0-.02,0h-.04s0,0,0,0c0,0,0,0,0,0,0,0,0,0,0,0h-.02s-.01,0-.02-.01l-.04-.02s-.01,0-.02-.01l-.04-.03s-.01-.01-.02-.02l-.02-.03-.1-.06s0,0-.01,0l-.1-.08s0,0,0,0l-.09-.09-.07-.07s-.06-.01-.08-.04l-.04-.05s-.02-.06-.01-.09l-.03-.05-.06-.12s0,0,0,0l-.04-.12s0,0,0-.01l-.03-.12s0,0,0-.01v-.02s-.03-.03-.03-.03c0,0,0-.01-.01-.02l-.02-.04s0-.02,0-.02v-.04s0,0,0-.01h0v-.02h0s0,0,0,0v-.04s0-.01,0-.02h0s0-.03,0-.04l.02-.04s0-.01.01-.02l.03-.04s0-.01.01-.02l.04-.03s0,0,0,0c0,0,0,0,0,0l.02-.02v-.02s.02-.01.03-.02l.06-.07s.01,0,.02-.01h.01s.01-.02.02-.03l.2-.14s0,0,0,0l.14-.11s0,0,0,0l.23-.16s0,0,.01,0h0s0,0,0,0c0,0,0,0,0,0,0,0,0,0,0,0,0,0,0,0,.01,0h0s0,0,0,0h0s0,0,0,0c0,0,0,0,0,0,0,0,0,0,0,0h0s0,0,0,0l.05-.04h0s0-.02,0-.02l.02-.05s0-.01,0-.02l.03-.04s0-.01.01-.01l.04-.03s0,0,.01-.01c0,0,0,0,0,0l.05-.03s0,0,0,0c0,0,0,0,0,0l.03-.02s.01,0,.02,0l.07-.02s.02,0,.03,0h.08s.01,0,.02,0l.09.02s.01,0,.02,0l.1.04s0,0,.01,0l.1.06s0,0,0,0l.1.07s0,0,.01,0l.1.09.1.11.1.12.09.12.08.13.06.13.05.13s0,0,0,0l.03.12s0,0,0,.01l.02.11s0,0,0,.01v.1s0,.01,0,.02l-.02.09s0,.01,0,.02l-.03.08s0,.02-.01.02l-.05.06s0,.01-.02.02l-.03.02s0,0,0,0l-.04.03s-.01,0-.02.01h-.02s-.01.02-.02.02l-.05.02s-.01,0-.02,0h-.05s-.01,0-.02,0h-.03s-.16.11-.16.11l.08.08.1.11.09.12s0,0,0,0h0s0,0,0,0l.07.12.06.13.05.13s0,0,0,.01l.03.12s0,0,0,.01v.11s.01.01.01.02v.1s0,.01,0,.02l-.02.08s0,.02-.01.02l-.04.06s-.01.01-.02.02l-.03.03s0,0,0,0h0s-.11.08-.11.08c0,0,0,0-.02,0,0,0-.02.01-.03.02l-.07.02s-.02,0-.03,0h-.08s0,0,0,0ZM113.21,42.88h.01s-.02-.04-.02-.04l-.03-.06-.04-.05-.06-.05.02.05.03.06.04.05.05.04ZM113.35,42.7l.03.05s0,0,0,.01l.03.07v-.04s0-.1,0-.1c0,0-.01,0-.02,0h-.03ZM112.75,42.64v.02s.07.06.07.06v-.05s0-.02,0-.03v-.05s0,0,0,0c-.02.02-.04.03-.06.03h0ZM112.81,42.32l.03.05s0,.01,0,.02v.05s.02.02.02.03v.02s.02-.02.03-.03l.03-.02s0,0,.01,0c.01,0,.03,0,.04,0h.05s.02,0,.03,0h.02s0-.03,0-.03c0-.01,0-.02,0-.03v-.04s.01-.04.02-.05l.02-.03s.04-.03.06-.03h0s0,0,0,0l-.03-.04s0,0,0,0c0,0,0,.01-.01.02l-.02.03s-.04.03-.06.03h-.03s-.03,0-.05,0l-.04-.02s-.02,0-.03-.01l-.04-.04s-.01,0-.01-.01l-.02-.03s0,.02-.02.03l-.02.03s-.02.02-.03.03c0,0,0,0,0,0l.04.05s0,0,0,.01h0s0,0,0,0ZM112.37,42.01h.08s.06,0,.06,0h-.01s-.01,0-.02,0l-.05-.02s0,0-.01,0h0s0,0-.01.01l-.03.03s0,0,0,0c0,0,0,0,0,0h0ZM112.19,41.77h.04s.03,0,.03,0c0,0,0,0,0,0v-.02s0-.04,0-.04h0s-.07.05-.07.05ZM112.5,41.73l.08.02h.08s.02-.02.02-.02h0s0-.08,0-.08l-.02-.07-.03-.08-.03-.08-.04-.08-.04-.08-.17.12v.02s.05.07.05.07l.03.07.02.07.02.11.03.02ZM112,41.64h.01s.19-.12.19-.12h0s-.04-.08-.04-.08l-.05-.08-.05-.07-.09-.09-.04-.03-.05-.03-.06-.02h0s-.01.02-.01.02v.04s0,.06,0,.06l.02.07.03.08.04.08.06.08.06.07ZM112.68,41.13h0s.05.1.05.1l.05.09.04.09.03.09.02.09.03-.02v-.09s-.04-.11-.04-.11l-.07-.16-.07-.12-.05.03ZM113.03,41.28h0s.07.21.07.21l.07-.05-.17-.46-.07.05.09.25s0,0,0,0ZM113.35,40.73l.17.46.07-.05-.17-.46-.07.05ZM112.12,41.08l.08.08.17-.12-.13-.14-.05.05-.05.08-.02.05ZM111.92,40.95l.04.02v-.02s.04-.06.04-.06l.04-.05.04-.05-.07-.04h-.04s-.02,0-.02,0l-.04.08v.04s-.01.04-.01.04v.04ZM111.62,40.93v.02s.02-.01.02-.01c0,0,.01,0,.02,0h0s0-.02,0-.03v-.05s-.01.01-.01.01l-.03.07ZM112.39,40.78l.09.09.04.05.05-.03-.14-.14-.05.03ZM112.51,40.55l.21.16.07-.05-.12-.09s0,0-.01,0l-.25-.19-.07.05.16.13s0,0,0,0ZM112.15,40.6l.09.05.04-.03-.1-.05-.03.02ZM112.75,40.13l.38.29.07-.05-.38-.29-.07.05ZM99.94,37.29s0,0,0,0h-.09s-.01,0-.02,0l-.08-.02s-.01,0-.02,0l-.07-.04s-.01,0-.02-.01l-.05-.05s-.01-.01-.02-.02l-.03-.06s0-.02-.01-.03v-.06s0-.02,0-.04v-.06s.02-.02.03-.03l.04-.06s.01-.02.02-.02l.06-.05s.01,0,.02-.01l.07-.03s.01,0,.02,0l.08-.02s.01,0,.02,0h.09s.01,0,.02,0h.09s.01.02.02.02l.08.03s.01,0,.02.01l.06.04s.01.01.02.02l.04.05s.01.02.02.03l.02.06s0,.02,0,.04v.06s0,.02-.01.03l-.03.06s-.01.02-.02.03l-.05.05s-.01.01-.02.02l-.07.04s-.01,0-.02,0l-.08.03s-.01,0-.02,0h-.09s0,.01-.01.01ZM99.87,37.09h.07s.07,0,.07,0l.06-.02.05-.03.03-.03v-.03s.01-.03.01-.03v-.03s-.03-.03-.03-.03l-.04-.03-.06-.02h-.07s-.07,0-.07,0h-.07s-.05.04-.05.04l-.04.03-.02.03v.03s0,.03,0,.03l.02.03.03.03.05.03.06.02ZM150.6,36.96h-4.04s-.02,0-.03,0c0,0,0,0,0,0,0,0,0,0,0,0h0s-.02,0-.03-.01l-.32-.23s0,0,0,0c0,0-.02-.02-.02-.03,0-.01-.01-.03-.01-.04,0,0,0,0,0,0h0v-10.78h0s0,0,0,0c0-.01,0-.03.01-.04,0-.01.01-.02.03-.03,0,0,0,0,0,0l.32-.23s.02,0,.02-.01c0,0,0,0,0,0,0,0,0,0,0,0,0,0,0,0,0,0,.01,0,.02,0,.03,0h4.04s.02,0,.03,0c0,0,0,0,0,0h0s.02,0,.02.01l.32.23s0,0,0,0c.01,0,.02.02.03.03,0,.01,0,.02.01.04,0,0,0,0,0,0h0v10.78h0s0,0,0,.01h0s0,.02,0,.03c0,0,0,0,0,0,0,.01-.02.02-.03.03,0,0,0,0,0,0l-.32.23s-.02.01-.03.02h0s0,0,0,0c0,0,0,0,0,0,0,0-.02,0-.02,0ZM150.82,36.55v.03s0,0,0,0v-10.68h0s0,.03,0,.03c0,0,0,0,0,0,0,0,0,0,0,0v10.59h0s0,.01,0,.02ZM146.33,36.58h0s0,0,0,0c0,0,0,0,0-.01v-.02s0,0,0,0h0v-10.6s0,0,0-.01c0,0,0,0,0,0v-.03s0,0,0,0v10.68ZM146.69,36.53h3.8s.01,0,.01,0v-10.57h-.02s-.02,0-.02,0h-3.8s-.01,0-.01,0v10.57h.02s.02,0,.02,0ZM141.43,32.28s0,0,0,0h-.09s-.01,0-.02,0l-.09-.02s-.01,0-.02,0l-.08-.04s-.02,0-.02-.01l-.06-.05s-.01-.02-.02-.02l-.03-.06s0,0,0-.01c0,0,0,0,0,0h0s0,0,0-.01c0,0,0,0,0-.01v-.05s0,0-.01,0h0s0,0,0-.01v-.04s0,0,0,0c0,0,0-.02,0-.03l.02-.06s0-.02.01-.03l.04-.06s.01-.02.02-.02l.06-.05s.01,0,.02-.01l.08-.03s.01,0,.02,0l.09-.02s.01,0,.02,0c0,0,0,0,0,0h.08s0,0,0,0c0,0,.01,0,.02,0l.09.02s.01,0,.02,0l.08.04s.01,0,.02.01l.06.05s.01.02.02.02l.02.04s.01.02.02.02c0,.01,0,.02.01.04,0,0,0,0,0,0v.04s0,.02,0,.03h0v.06s0,.02,0,.03l-.02.06s0,.02-.02.03l-.04.06s-.01.01-.02.02l-.06.05s-.01,0-.02.01l-.08.03s-.01,0-.02,0l-.09.02s-.01,0-.02,0ZM122.54,32.07s0,0,0,0h-.09s-.01,0-.02-.01l-.09-.03s-.01,0-.02,0l-.07-.04s-.01,0-.02-.02l-.05-.05s0,0-.01-.01c0,0,0,0,0-.01,0,0,0,0,0,0,0,0,0,0,0,0l-.03-.06s0-.02,0-.03v-.04s0,0,0,0c0,0,0,0,0,0v-.05s0-.01,0-.02h0s0-.03,0-.04l.02-.06s0-.02.02-.03l.05-.06s.01-.01.02-.02l.07-.04s.01,0,.02-.01l.08-.03s.01,0,.02,0h0s0,0,0,0h.08s.01-.01.01-.01c0,0,0,0,0,0h.08s0,0,0,0h0s.01,0,.02,0l.09.03s.01,0,.02,0l.07.04s.01,0,.02.02l.03.03s.02.01.03.02c0,0,.01.02.02.02,0,0,0,.01,0,.02l.02.05s0,.02,0,.04v.02s0,.02,0,.03v.05s0,0,0,0h0s0,0,0,0v.02s0,.02,0,.02l-.02.06s0,.02-.02.03l-.05.06s-.01.01-.02.02l-.07.04s-.01,0-.02,0l-.08.03s-.01,0-.02,0h-.09s0,.01-.01.01ZM153.95,31.56s0,0,0,0h-.09s-.01,0-.02-.01l-.09-.02s-.01,0-.02,0l-.07-.04s-.02,0-.02-.02l-.05-.05s-.01-.02-.02-.03l-.03-.06s0,0,0,0c0,0,0,0,0,0h0s0,0,0-.01c0,0,0,0,0-.01v-.04s0,0,0,0c0,0,0,0,0,0v-.04s0-.01,0-.02c0-.01,0-.02,0-.04l.02-.06s0-.02.02-.03l.05-.06s.01-.01.02-.02l.07-.05s.01,0,.02-.01l.08-.03s.01,0,.02,0h.09s.01-.01.01-.01c0,0,0,0,0,0h.09s.01,0,.02.01l.09.02s.01,0,.02,0l.07.04s.01,0,.02.02l.05.05s.01.02.02.03l.02.04s0,.01.01.02c0,0,0,.02,0,.02,0,0,0,0,0,0,0,0,0,.01,0,.02v.02s0,.02,0,.03v.04s0,0,0,0c0,0,0,0,0,0v.02s0,.02,0,.03l-.02.06s0,.02-.02.03l-.05.06s-.01.01-.02.02l-.07.05s-.01,0-.02.01l-.08.03s-.01,0-.02,0h-.09s0,.01-.01.01ZM140.91,19.09s0,0,0,0h-.09s0,0,0,0c0,0-.01,0-.02,0l-.09-.02s-.01,0-.02,0l-.07-.04s-.01,0-.02-.02l-.06-.05s-.01-.02-.02-.03l-.03-.06s0-.02-.01-.03v-.05s0,0,0,0c0,0,0,0,0-.01v-.04s0-.01,0-.02h0s0-.02,0-.03l.02-.06s0-.02.01-.03l.04-.05s.01-.01.02-.02l.06-.05s.01,0,.02-.01l.07-.03s.01,0,.02,0l.08-.02s.01,0,.02,0h.08s0,0,.01,0h.04s0,0,0,0c0,0,0,0,.01,0l.07.02s.01,0,.02,0l.07.03s.01,0,.02.01l.06.04s.01.01.02.02l.04.05s.01.02.01.02l.02.06s0,.02,0,.03h0s0,.02,0,.02h0s0,.02,0,.02v.04h0s0,0,0,0h0s0,.03,0,.04l-.02.06s0,.02-.02.03l-.04.06s-.01.01-.02.02l-.07.05s-.01,0-.02.01l-.08.03s-.01,0-.02,0h-.09s-.01.02-.02.02ZM122.2,18.73s-.01,0-.02,0l-.09-.02s-.01,0-.02,0l-.08-.03s-.01,0-.02-.01l-.06-.05s0,0-.01-.01c0,0,0,0-.01-.01l-.04-.06s-.01-.02-.02-.03l-.02-.06s0-.01,0-.02h0s0-.01,0-.02v-.04s0-.02,0-.03v-.03s.01-.02.02-.03l.03-.06s.01-.02.02-.02l.06-.05s.01-.01.02-.01l.08-.04s.01,0,.02,0l.09-.02s.01,0,.02,0h.09s0,0,0,0c0,0,.01,0,.02,0l.09.02s.01,0,.02,0l.08.03s.01,0,.02.01l.03.02s0,0,.01,0c0,0,.02.01.03.02,0,0,.02.02.02.04l.03.04s.01.02.02.03l.02.06s0,.02,0,.03c0,0,0,0,0,0v.04s0,0,0,.01c0,0,0,0,0,0v.05s-.01.02-.02.03l-.03.06s-.01.02-.02.02l-.06.05s-.01.01-.02.01l-.08.04s-.01,0-.02,0l-.09.02s-.01,0-.02,0h-.09s0,0,0,0ZM97.97,14.78s0,0,0,0h-.09s-.01,0-.02,0l-.09-.02s-.01,0-.02,0l-.07-.04s0,0-.01,0c0,0,0,0-.01-.01l-.05-.05s-.01-.02-.02-.03l-.03-.06s0-.02,0-.03v-.04s0,0,0,0c0,0,0,0,0,0v-.04s0,0,0,0c0,0,0-.02,0-.02v-.02s0-.02,0-.03l.03-.06s0-.02.02-.02l.05-.05s.01-.01.02-.02l.06-.04s.01,0,.02,0l.07-.03s.01,0,.02,0h.08s.01-.02.02-.02h.08s.01,0,.02,0l.08.02s.01,0,.02,0l.07.03s0,0,.01,0l.03.02s0,0,0,0c0,0,0,0,.01,0l.04.04s.01.01.02.02l.03.05s0,.02.01.03l.02.06s0,.02,0,.03c0,0,0,0,0,.01v.05h0s0,0,0,0v.02s0,.02,0,.02l-.02.06s0,.02-.02.03l-.05.06s-.01.01-.02.02l-.07.05s-.01,0-.02.01l-.08.03s-.01,0-.02,0h-.09s0,.01-.01.01ZM108.07,9.66s-.02,0-.03,0c0,0,0,0,0,0,0,0,0,0,0,0,0,0-.02,0-.02-.01l-.32-.23s0,0,0,0h0s0,0,0,0c0,0-.02-.02-.02-.03,0-.01-.01-.03-.01-.04,0,0,0,0,0,0h0v-2.86h0s0,0,0,0c0-.02,0-.03.01-.04,0,0,.01-.02.02-.03h0s0,0,0,0c0,0,0,0,0,0l.32-.23s.02-.01.03-.02c0,0,0,0,0,0,0,0,0,0,0,0,0,0,0,0,0,0,0,0,.02,0,.02,0h15.25s.01,0,.02,0c0,0,0,0,0,0,.01,0,.03,0,.04.02l.32.23s0,0,0,0c.01,0,.02.02.03.03,0,0,0,0,0,0h0s0,.02,0,.03c0,0,0,0,0,0h0v2.86h0s0,0,0,.01c0,0,0,0,0,0,0,.01,0,.02,0,.03,0,.01-.02.03-.03.04,0,0,0,0,0,0l-.32.23s-.02.01-.03.01c0,0,0,0,0,0,0,0,0,0,0,0,0,0,0,0,0,0h0s-.02,0-.03,0h-15.25ZM123.54,9.25v.03s0,0,0,0v-2.76h0s0,.03,0,.03c0,0,0,0,0,.01,0,0,0,0,0,0v2.67s0,0,0,0c0,0,0,0,0,.01ZM107.84,9.28h0s0,0,0,0c0,0,0,0,0-.01v-.02s0,0,0,0h0v-2.67s0,0,0,0c0,0,0,0,0,0v-.03s0,0,0,0v2.76ZM108.2,9.23h15.02s0-2.66,0-2.66h-.03s-14.98,0-14.98,0h-.04s0,2.66,0,2.66h.03ZM115.66,4.52s-.01,0-.02,0l-.09-.02s-.01,0-.02,0l-.08-.03s-.01,0-.02,0c0,0,0,0,0,0l-.06-.05s-.01-.01-.02-.02l-.04-.06s-.01-.02-.02-.03l-.02-.06s0-.01,0-.02h0v-.06h0s0,0,0,0c0,0,0-.02,0-.03v-.06s.02-.02.03-.03l.04-.06s.01-.01.02-.02l.05-.05s.01,0,.02-.01l.07-.04s.01,0,.02,0l.08-.02s.01,0,.02,0h.08s.01,0,.02,0h.08s.01,0,.02.01l.08.02s0,0,.01,0l.04.02s0,0,0,0c0,0,0,0,0,0,0,0,0,0,0,0l.05.03s.01,0,.02.01l.04.05s.01.01.02.02l.03.06s0,.02,0,.03v.02s0,.02,0,.03h0s0,.01,0,.02v.04s0,0,0,.01c0,0,0,0,0,0v.05s-.01.02-.02.03l-.03.06s-.01.02-.02.02l-.06.05s-.01.01-.02.01l-.08.04s-.01,0-.02,0l-.09.02s-.01,0-.02,0h-.09s0,0,0,0Z" fill="#4b18a1"/>
  </g>
  <g>
    <path d="M70.95,76.46c-4.61,0-7.81,3.64-7.81,8.1v.07c0,4.46,3.27,8.18,7.88,8.18s7.81-3.64,7.81-8.1v-.07c0-4.46-3.27-8.18-7.88-8.18Z" fill="#b7a3d9"/>
    <path d="M13.88,76.79h-4.42v15.69h4.42c4.65,0,7.84-3.16,7.84-7.77v-.07c0-4.61-3.2-7.84-7.84-7.84Z" fill="#b7a3d9"/>
    <path d="M0,68.24v33.68h87.56v-33.68H0ZM27.71,84.63c0,7.32-5.65,13.01-13.83,13.01H3.73v-26.02h10.15c8.18,0,13.83,5.61,13.83,12.94v.07ZM53.77,86.31c0,7.88-4.42,11.75-11.41,11.75s-11.26-3.87-11.26-11.56v-14.87h5.72v14.72c0,4.27,2.08,6.43,5.61,6.43s5.61-2.08,5.61-6.24v-14.91h5.72v14.68ZM84.81,84.63c0,7.4-5.84,13.46-13.86,13.46s-13.79-5.98-13.79-13.38v-.07c0-7.4,5.84-13.46,13.87-13.46s13.79,5.98,13.79,13.38v.07Z" fill="#b7a3d9"/>
  </g>
</svg>