<?xml version="1.0" encoding="UTF-8"?>
<svg id="Layer_1" data-name="Layer 1" xmlns="http://www.w3.org/2000/svg" viewBox="0 0 1918.54 339.49">
  <g>
    <path d="M444.07,272.3v52.51h-7.53v-23.56h-30.37v23.56h-7.59v-52.51h7.59v22.64h30.37v-22.64h7.53Z"/>
    <path d="M465.05,272.3h8.09l18.24,43.21,18.09-43.21h8.09l-22.71,52.51h-7.09l-22.71-52.51Z"/>
    <path d="M567.07,312.6h-26.11l-5.18,12.21h-8.09l22.78-52.51h7.02l22.71,52.51h-8.02l-5.11-12.21ZM564.44,306.35l-10.43-24.76-10.43,24.76h20.87Z"/>
    <path d="M596.35,298.41c0-16.11,10.86-26.83,27.11-26.83,8.58,0,15.26,3.05,20.22,8.52l-4.75,4.83c-3.34-4.12-8.52-7.1-15.26-7.1-11.71,0-19.44,8.23-19.44,20.58s7.8,20.86,19.37,20.86c7.52,0,12.98-3.48,16.53-8.8l5.18,4.68c-4.89,6.53-12.41,10.36-21.78,10.36-16.25,0-27.18-10.86-27.18-27.11Z"/>
    <path d="M698,319.2l2.98-5.18c4.19,3.76,9.22,5.25,14.41,5.25,7.52,0,12.13-3.05,12.13-7.95,0-5.18-5.11-7.45-12.42-9.58l-3.26-.92c-7.95-2.2-14.34-5.68-14.34-14.12,0-9.08,7.45-15.11,18.66-15.11,6.89,0,12.49,2.06,16.96,6.03l-3.41,5.25c-3.76-3.34-8.09-5.04-13.55-5.04-6.53,0-10.79,3.12-10.79,7.73,0,5.04,4.61,6.89,10.01,8.45l3.4.92c7.81,2.27,16.6,6.24,16.6,15.68,0,8.94-7.87,14.9-19.58,14.9-6.95,0-13.48-2.06-17.81-6.32Z"/>
    <path d="M756.31,298.55c0-16.18,10.79-26.97,26.89-26.97s26.82,10.79,26.82,26.97-10.79,26.96-26.82,26.96-26.89-10.79-26.89-26.96ZM802.22,298.55c0-12.42-7.66-20.72-19.01-20.72s-19.01,8.3-19.01,20.72,7.59,20.72,19.01,20.72,19.01-8.3,19.01-20.72Z"/>
    <path d="M865.92,318.56v6.24h-31.58v-52.51h7.59v46.26h23.98Z"/>
    <path d="M885.27,305.5v-33.21h7.52v32.92c0,8.38,5.89,14.05,14.76,14.05s14.62-5.68,14.62-14.05v-32.92h7.59v33.21c0,12.06-8.87,20.01-22.21,20.01s-22.28-7.95-22.28-20.01Z"/>
    <path d="M991.55,278.54h-16.47v46.26h-7.59v-46.26h-16.46v-6.24h40.52v6.24Z"/>
    <path d="M1013.46,272.3h7.59v52.51h-7.59v-52.51Z"/>
    <path d="M1045.37,298.55c0-16.18,10.79-26.97,26.89-26.97s26.82,10.79,26.82,26.97-10.79,26.96-26.82,26.96-26.89-10.79-26.89-26.96ZM1091.28,298.55c0-12.42-7.66-20.72-19.01-20.72s-19.01,8.3-19.01,20.72,7.59,20.72,19.01,20.72,19.01-8.3,19.01-20.72Z"/>
    <path d="M1123.41,272.3h4.75l34.91,39.6-.21-39.6h7.59v52.51h-4.75l-34.84-39.6.14,39.6h-7.59v-52.51Z"/>
    <path d="M1195.69,319.2l2.98-5.18c4.19,3.76,9.22,5.25,14.41,5.25,7.52,0,12.13-3.05,12.13-7.95,0-5.18-5.11-7.45-12.42-9.58l-3.26-.92c-7.95-2.2-14.34-5.68-14.34-14.12,0-9.08,7.45-15.11,18.66-15.11,6.89,0,12.49,2.06,16.96,6.03l-3.41,5.25c-3.76-3.34-8.09-5.04-13.55-5.04-6.53,0-10.79,3.12-10.79,7.73,0,5.04,4.61,6.89,10.01,8.45l3.4.92c7.81,2.27,16.6,6.24,16.6,15.68,0,8.94-7.87,14.9-19.58,14.9-6.95,0-13.48-2.06-17.81-6.32Z"/>
  </g>
  <path d="M388.53,106c1.45-11.4,4.85-22.04,10.24-31.92,5.38-9.88,12.17-18.43,20.36-25.66,8.19-7.23,17.55-12.92,28.07-17.1,10.52-4.18,21.72-6.26,33.61-6.26,18.95,0,36.13,5.14,51.55,15.42l-15.9,23.85c-5.14-3.69-10.72-6.46-16.74-8.31-6.02-1.85-12.33-2.77-18.91-2.77-7.87,0-15.34,1.36-22.4,4.09-7.07,2.74-13.41,6.47-19.04,11.2-5.62,4.74-10.36,10.32-14.21,16.74-3.86,6.43-6.42,13.33-7.71,20.72h-28.9ZM480.8,182.85c13.32,0,25.21-3.61,35.65-10.84l15.9,23.5c-7.71,5.09-15.9,8.96-24.57,11.59-8.67,2.63-17.67,3.94-26.98,3.94-11.41,0-22.25-1.95-32.52-5.85-10.28-3.9-19.47-9.28-27.58-16.14-8.11-6.86-14.93-14.99-20.48-24.38-5.54-9.4-9.19-19.55-10.96-30.48h28.9c1.93,7.07,4.86,13.58,8.79,19.51,3.93,5.95,8.63,11.08,14.09,15.42,5.46,4.33,11.57,7.71,18.31,10.12,6.74,2.41,13.89,3.61,21.44,3.61Z"/>
  <path d="M630.64,26.5c12.69,0,24.61,2.41,35.78,7.23,11.16,4.81,20.91,11.4,29.27,19.75,8.35,8.35,14.93,18.15,19.75,29.39,4.82,11.24,7.22,23.21,7.22,35.9,0,11.72-2.04,22.77-6.14,33.12-4.1,10.36-9.68,19.6-16.75,27.71-7.06,8.11-15.45,14.86-25.17,20.24-9.72,5.38-20.2,8.79-31.44,10.24v-27.46c7.38-1.45,14.29-4.1,20.72-7.95,6.42-3.86,11.96-8.63,16.62-14.33,4.66-5.7,8.35-12.08,11.08-19.15,2.73-7.06,4.1-14.53,4.1-22.4,0-8.99-1.69-17.43-5.06-25.3-3.37-7.87-8.03-14.78-13.98-20.72-5.94-5.94-12.85-10.6-20.72-13.98-7.87-3.37-16.3-5.06-25.3-5.06s-17.43,1.69-25.29,5.06c-7.87,3.37-14.78,8.03-20.72,13.98-5.95,5.94-10.6,12.85-13.98,20.72-3.37,7.87-5.06,16.3-5.06,25.3,0,7.71,1.33,15.1,3.98,22.16,2.65,7.07,6.26,13.41,10.84,19.03,4.58,5.62,9.99,10.36,16.26,14.21,6.26,3.86,13.09,6.59,20.48,8.19v27.46c-11.08-1.6-21.44-5.1-31.08-10.48-9.63-5.38-17.95-12.08-24.93-20.11-6.99-8.03-12.49-17.22-16.51-27.58-4.01-10.36-6.02-21.32-6.02-32.88,0-12.69,2.4-24.65,7.22-35.9,4.82-11.24,11.4-21.04,19.75-29.39,8.35-8.35,18.11-14.94,29.27-19.75,11.16-4.82,23.08-7.23,35.77-7.23Z"/>
  <path d="M851.06,151.53v45.53l-83.11-104.79v116.12h-28.19V28.43h13.73l97.56,123.1ZM879.97,149.84h-28.19V28.43h28.19v121.41Z"/>
  <path d="M998.49,103.83c7.23,0,14.01,1.37,20.36,4.11,6.34,2.73,11.88,6.48,16.62,11.23,4.73,4.75,8.47,10.3,11.2,16.66,2.73,6.36,4.1,13.16,4.1,20.4s-1.37,14.05-4.1,20.4c-2.74,6.36-6.48,11.95-11.22,16.78-4.75,4.83-10.29,8.62-16.65,11.35-6.36,2.74-13.15,4.11-20.39,4.11h-42.95c-7.24,0-14.03-1.36-20.39-4.1-6.35-2.73-11.9-6.51-16.65-11.32-4.74-4.81-8.49-10.39-11.22-16.74-2.74-6.34-4.1-13.13-4.1-20.36h28.18c0,3.34.64,6.48,1.92,9.43,1.28,2.94,3.05,5.53,5.29,7.75,2.25,2.23,4.81,3.98,7.69,5.25,2.88,1.27,6,1.91,9.37,1.91h42.77c3.36,0,6.49-.64,9.37-1.92,2.88-1.28,5.45-3.04,7.69-5.27,2.24-2.24,4-4.83,5.28-7.79,1.28-2.95,1.92-6.11,1.92-9.47s-.64-6.51-1.93-9.46c-1.29-2.96-3.05-5.52-5.3-7.67-2.25-2.16-4.82-3.87-7.71-5.15-2.89-1.28-6.02-1.92-9.4-1.92l-42.88-.24c-7.07,0-13.77-1.36-20.11-4.1-6.35-2.73-11.85-6.42-16.5-11.08-4.66-4.66-8.39-10.12-11.2-16.38-2.81-6.26-4.3-12.93-4.45-20h28.18c.16,3.18.88,6.21,2.17,9.06,1.29,2.86,3.05,5.36,5.3,7.51,2.25,2.14,4.82,3.82,7.71,5.01,2.89,1.2,5.94,1.79,9.15,1.79l42.88.24ZM952,26.99h41.92c7.22,0,14.01,1.36,20.38,4.1,6.36,2.73,11.97,6.47,16.83,11.2,4.86,4.74,8.66,10.28,11.42,16.62,2.75,6.35,4.13,13.13,4.13,20.36h-28.18c0-3.33-.65-6.48-1.93-9.42-1.29-2.94-3.06-5.48-5.3-7.63-2.25-2.14-4.86-3.86-7.83-5.13-2.97-1.27-6.14-1.91-9.51-1.91h-41.92v-28.19Z"/>
  <path d="M1212.41,143.83c-.64,8.99-2.89,17.43-6.74,25.3-3.86,7.87-8.88,14.69-15.06,20.48-6.18,5.78-13.33,10.36-21.44,13.73-8.11,3.37-16.74,5.06-25.9,5.06-9.63,0-18.67-1.81-27.1-5.42-8.43-3.61-15.78-8.55-22.04-14.81-6.26-6.26-11.2-13.61-14.82-22.04-3.61-8.43-5.42-17.38-5.42-26.86V28.91h27.46v110.33c0,5.78,1.08,11.2,3.25,16.26,2.17,5.06,5.18,9.48,9.04,13.25,3.86,3.77,8.31,6.74,13.37,8.91,5.06,2.17,10.48,3.25,16.26,3.25,5.3,0,10.36-.96,15.18-2.89,4.81-1.93,9.07-4.53,12.77-7.83,3.69-3.29,6.7-7.19,9.04-11.68,2.32-4.5,3.81-9.4,4.46-14.69h27.7ZM1184.95,114.19V29.16h27.46v85.04h-27.46Z"/>
  <path d="M1665.07,208.87h-30.83l-16.87-38.79-37.58-88.17-26.02,59.99-28.91,66.97h-30.35l77.57-179.71h15.66l77.33,179.71Z"/>
  <path d="M1713.01,208.87h-28.19V28.91h28.19v179.95Z"/>
  <path d="M1877.06,85.16c0,6.93-1.2,13.48-3.62,19.68-2.41,6.19-5.75,11.75-10.01,16.66-4.26,4.91-9.29,8.97-15.08,12.19-5.79,3.22-12.07,5.31-18.82,6.27l47.3,68.42h-33.72l-46.98-67.69-29.39-.24v68.42h-28.19V66.98h28.19v45.53h54.76c3.85,0,7.41-.72,10.69-2.16,3.29-1.44,6.16-3.4,8.65-5.87,2.48-2.48,4.44-5.35,5.88-8.64,1.45-3.28,2.17-6.83,2.17-10.67s-.72-7.47-2.17-10.92c-1.45-3.44-3.42-6.39-5.9-8.87-2.49-2.48-5.42-4.48-8.79-5.99-3.37-1.52-6.91-2.28-10.6-2.28l-40.95-.24v-27.94h40.95c7.71,0,14.9,1.49,21.58,4.47,6.68,2.98,12.56,7,17.67,12.07,5.11,5.07,9.11,11.03,12.03,17.86,2.91,6.84,4.37,14.12,4.37,21.84Z"/>
  <path d="M1502.21,0v23.5c0,7.22-1.36,14.01-4.1,20.38-2.73,6.36-6.47,11.97-11.2,16.83-4.74,4.86-10.28,8.66-16.62,11.42-6.35,2.75-13.13,4.13-20.36,4.13v-28.18c3.33,0,6.48-.65,9.42-1.93,2.94-1.29,5.48-3.06,7.63-5.3,2.14-2.25,3.86-4.86,5.13-7.83,1.27-2.97,1.91-6.14,1.91-9.51V0s28.19,0,28.19,0Z"/>
  <polygon points="1423.92 28.43 1409.71 28.43 1329.25 108.41 1263.48 42.64 1263.48 82.63 1329.25 148.16 1395.74 82.15 1398.35 79.59 1423.92 56.2 1423.92 28.43"/>
  <rect x="1395.74" y="105.27" width="28.19" height="103.11"/>
  <polygon points="1395.01 42.64 1329.24 108.41 1248.78 28.43 1234.57 28.43 1234.57 208.39 1262.76 208.39 1262.76 82.15 1329.24 148.16 1395.01 82.63 1395.01 42.64"/>
  <g>
    <path d="M10.58,237.65c12.62-9.18,22.58-16.42,44.19-16.42s31.58,7.25,44.2,16.42c14.49,10.54,30.9,22.49,62.79,22.49s48.3-11.94,62.8-22.49c12.62-9.18,22.58-16.42,44.18-16.42s31.57,7.25,44.21,16.44c3.35,2.44,6.83,4.94,10.55,7.36v-38.63c-12.83-8.73-28.54-16.81-54.76-16.81-31.89,0-48.3,11.94-62.8,22.49-12.62,9.17-22.58,16.41-44.18,16.41s-31.57-7.25-44.19-16.42c-14.49-10.54-30.91-22.48-62.8-22.48-26.23,0-41.94,8.08-54.77,16.82v38.62c3.73-2.43,7.22-4.94,10.58-7.38Z"/>
    <path d="M323.51,285.75c-12.83-8.73-28.54-16.81-54.76-16.81-31.89,0-48.3,11.94-62.8,22.49-12.62,9.17-22.58,16.41-44.18,16.41s-31.57-7.25-44.19-16.42c-14.49-10.54-30.91-22.48-62.8-22.48-26.23,0-41.94,8.08-54.77,16.82v38.63c3.73-2.43,7.22-4.94,10.58-7.38,12.62-9.18,22.58-16.42,44.19-16.42s31.58,7.25,44.2,16.42c14.48,10.54,30.89,22.48,62.79,22.48s48.32-11.94,62.8-22.48c12.62-9.18,22.58-16.42,44.18-16.42s31.57,7.25,44.2,16.43c3.35,2.44,6.84,4.95,10.57,7.37v-38.64Z"/>
    <path d="M323.51,127.04c-12.83-8.73-28.54-16.81-54.76-16.81-31.89,0-48.3,11.94-62.8,22.49-12.62,9.17-22.58,16.41-44.18,16.41s-31.57-7.25-44.19-16.42c-14.49-10.54-30.91-22.48-62.8-22.48-26.23,0-41.94,8.08-54.77,16.82v38.63c3.73-2.43,7.22-4.94,10.58-7.38,12.62-9.18,22.58-16.42,44.19-16.42s31.58,7.25,44.2,16.42c14.48,10.54,30.89,22.48,62.79,22.48s48.32-11.94,62.8-22.48c12.62-9.18,22.58-16.42,44.18-16.42s31.57,7.25,44.2,16.43c3.35,2.44,6.84,4.95,10.57,7.37v-38.64Z"/>
    <path d="M0,86.32c3.73-2.43,7.22-4.94,10.58-7.38,12.62-9.18,22.58-16.42,44.19-16.42s31.58,7.25,44.2,16.42c14.48,10.54,30.89,22.48,62.79,22.48s48.32-11.94,62.8-22.48c12.62-9.18,22.58-16.42,44.18-16.42s31.57,7.25,44.2,16.43c3.35,2.44,6.84,4.95,10.57,7.37v-38.63c-12.83-8.73-28.53-16.82-54.76-16.82-31.89,0-48.31,11.94-62.84,22.52-12.6,9.16-22.56,16.39-44.14,16.39s-31.54-7.24-44.19-16.42c-14.49-10.54-30.9-22.49-62.8-22.49-26.22,0-41.93,8.08-54.77,16.82v38.63Z"/>
  </g>
  <path d="M1900.75,17.92h-3.94v7.69h3.94c2.38,0,4.22-1.63,4.22-3.82s-1.84-3.87-4.22-3.87h0ZM1900.14,27.64h-3.32v8.4h-2.29V15.82h6.45c3.39,0,6.28,2.53,6.28,5.97,0,3.03-1.94,4.88-4.59,5.62l5.08,8.64h-2.61l-5-8.4ZM1900.31,9.89c-8.76,0-15.92,7.35-15.92,16.07.02,8.73,7.16,16.11,15.92,16.11s15.82-7.38,15.82-16.11-7.13-16.07-15.82-16.07h0ZM1900.31,44.21c-10.12,0-18.27-8.17-18.27-18.25s8.16-18.25,18.27-18.25,18.22,8.18,18.22,18.25-8.16,18.25-18.22,18.25h0Z" style="fill-rule: evenodd;"/>
</svg>