<?xml version="1.0" encoding="UTF-8"?>
<svg id="Layer_1" data-name="Layer 1" xmlns="http://www.w3.org/2000/svg" viewBox="0 0 334.58 59.2">
  <defs>
    <style>
      .cls-1, .cls-2 {
        fill: #512f91;
      }

      .cls-2 {
        fill-rule: evenodd;
      }
    </style>
  </defs>
  <g>
    <path class="cls-1" d="M77.44,47.49v9.16h-1.31v-4.11h-5.3v4.11h-1.32v-9.16h1.32v3.95h5.3v-3.95h1.31Z"/>
    <path class="cls-1" d="M81.1,47.49h1.41l3.18,7.54,3.16-7.54h1.41l-3.96,9.16h-1.24l-3.96-9.16Z"/>
    <path class="cls-1" d="M98.89,54.52h-4.55l-.9,2.13h-1.41l3.97-9.16h1.22l3.96,9.16h-1.4l-.89-2.13ZM98.44,53.43l-1.82-4.32-1.82,4.32h3.64Z"/>
    <path class="cls-1" d="M104,52.04c0-2.81,1.89-4.68,4.73-4.68,1.5,0,2.66.53,3.53,1.49l-.83.84c-.58-.72-1.49-1.24-2.66-1.24-2.04,0-3.39,1.44-3.39,3.59s1.36,3.64,3.38,3.64c1.31,0,2.26-.61,2.88-1.53l.9.82c-.85,1.14-2.16,1.81-3.8,1.81-2.83,0-4.74-1.89-4.74-4.73Z"/>
    <path class="cls-1" d="M121.73,55.67l.52-.9c.73.66,1.61.92,2.51.92,1.31,0,2.12-.53,2.12-1.39,0-.9-.89-1.3-2.17-1.67l-.57-.16c-1.39-.38-2.5-.99-2.5-2.46,0-1.58,1.3-2.64,3.25-2.64,1.2,0,2.18.36,2.96,1.05l-.59.92c-.66-.58-1.41-.88-2.36-.88-1.14,0-1.88.54-1.88,1.35,0,.88.8,1.2,1.75,1.47l.59.16c1.36.4,2.9,1.09,2.9,2.74,0,1.56-1.37,2.6-3.42,2.6-1.21,0-2.35-.36-3.11-1.1Z"/>
    <path class="cls-1" d="M131.9,52.07c0-2.82,1.88-4.7,4.69-4.7s4.68,1.88,4.68,4.7-1.88,4.7-4.68,4.7-4.69-1.88-4.69-4.7ZM139.9,52.07c0-2.17-1.34-3.61-3.32-3.61s-3.32,1.45-3.32,3.61,1.32,3.61,3.32,3.61,3.32-1.45,3.32-3.61Z"/>
    <path class="cls-1" d="M151.01,55.55v1.09h-5.51v-9.16h1.32v8.07h4.18Z"/>
    <path class="cls-1" d="M154.39,53.28v-5.79h1.31v5.74c0,1.46,1.03,2.45,2.57,2.45s2.55-.99,2.55-2.45v-5.74h1.32v5.79c0,2.1-1.55,3.49-3.87,3.49s-3.89-1.39-3.89-3.49Z"/>
    <path class="cls-1" d="M172.92,48.58h-2.87v8.07h-1.32v-8.07h-2.87v-1.09h7.07v1.09Z"/>
    <path class="cls-1" d="M176.74,47.49h1.32v9.16h-1.32v-9.16Z"/>
    <path class="cls-1" d="M182.31,52.07c0-2.82,1.88-4.7,4.69-4.7s4.68,1.88,4.68,4.7-1.88,4.7-4.68,4.7-4.69-1.88-4.69-4.7ZM190.31,52.07c0-2.17-1.34-3.61-3.32-3.61s-3.32,1.45-3.32,3.61,1.32,3.61,3.32,3.61,3.32-1.45,3.32-3.61Z"/>
    <path class="cls-1" d="M195.92,47.49h.83l6.09,6.91-.04-6.91h1.32v9.16h-.83l-6.08-6.91.02,6.91h-1.32v-9.16Z"/>
    <path class="cls-1" d="M208.52,55.67l.52-.9c.73.66,1.61.92,2.51.92,1.31,0,2.12-.53,2.12-1.39,0-.9-.89-1.3-2.17-1.67l-.57-.16c-1.39-.38-2.5-.99-2.5-2.46,0-1.58,1.3-2.64,3.25-2.64,1.2,0,2.18.36,2.96,1.05l-.59.92c-.66-.58-1.41-.88-2.36-.88-1.14,0-1.88.54-1.88,1.35,0,.88.8,1.2,1.75,1.47l.59.16c1.36.4,2.9,1.09,2.9,2.74,0,1.56-1.37,2.6-3.42,2.6-1.21,0-2.35-.36-3.11-1.1Z"/>
  </g>
  <path class="cls-1" d="M67.76,18.49c.25-1.99.85-3.84,1.79-5.57.94-1.72,2.12-3.21,3.55-4.47,1.43-1.26,3.06-2.25,4.89-2.98,1.83-.73,3.79-1.09,5.86-1.09,3.3,0,6.3.9,8.99,2.69l-2.77,4.16c-.9-.64-1.87-1.13-2.92-1.45-1.05-.32-2.15-.48-3.3-.48-1.37,0-2.68.24-3.91.71-1.23.48-2.34,1.13-3.32,1.95-.98.83-1.81,1.8-2.48,2.92-.67,1.12-1.12,2.33-1.34,3.61h-5.04ZM83.85,31.89c2.32,0,4.4-.63,6.22-1.89l2.77,4.1c-1.34.89-2.77,1.56-4.29,2.02-1.51.46-3.08.69-4.7.69-1.99,0-3.88-.34-5.67-1.02-1.79-.68-3.4-1.62-4.81-2.81-1.41-1.2-2.6-2.61-3.57-4.25-.97-1.64-1.6-3.41-1.91-5.31h5.04c.34,1.23.85,2.37,1.53,3.4.69,1.04,1.51,1.93,2.46,2.69.95.76,2.02,1.34,3.19,1.76,1.18.42,2.42.63,3.74.63Z"/>
  <path class="cls-1" d="M109.98,4.62c2.21,0,4.29.42,6.24,1.26,1.95.84,3.65,1.99,5.1,3.44,1.46,1.46,2.6,3.17,3.44,5.12.84,1.96,1.26,4.05,1.26,6.26,0,2.04-.36,3.97-1.07,5.78-.71,1.81-1.69,3.42-2.92,4.83-1.23,1.41-2.7,2.59-4.39,3.53-1.7.94-3.52,1.53-5.48,1.79v-4.79c1.29-.25,2.49-.71,3.61-1.39,1.12-.67,2.09-1.51,2.9-2.5.81-.99,1.46-2.11,1.93-3.34.48-1.23.71-2.53.71-3.91,0-1.57-.29-3.04-.88-4.41s-1.4-2.58-2.44-3.61c-1.04-1.04-2.24-1.85-3.61-2.44-1.37-.59-2.84-.88-4.41-.88s-3.04.29-4.41.88c-1.37.59-2.58,1.4-3.61,2.44-1.04,1.04-1.85,2.24-2.44,3.61s-.88,2.84-.88,4.41c0,1.34.23,2.63.69,3.87.46,1.23,1.09,2.34,1.89,3.32.8.98,1.74,1.81,2.84,2.48,1.09.67,2.28,1.15,3.57,1.43v4.79c-1.93-.28-3.74-.89-5.42-1.83-1.68-.94-3.13-2.11-4.35-3.51-1.22-1.4-2.18-3-2.88-4.81-.7-1.81-1.05-3.72-1.05-5.73,0-2.21.42-4.3,1.26-6.26.84-1.96,1.99-3.67,3.44-5.12,1.46-1.46,3.16-2.61,5.1-3.44,1.95-.84,4.03-1.26,6.24-1.26Z"/>
  <path class="cls-1" d="M148.42,26.43v7.94l-14.49-18.28v20.25h-4.92V4.96h2.4l17.01,21.47ZM153.46,26.13h-4.92V4.96h4.92v21.17Z"/>
  <path class="cls-1" d="M174.13,18.11c1.26,0,2.44.24,3.55.72,1.11.48,2.07,1.13,2.9,1.96.83.83,1.48,1.8,1.95,2.91.48,1.11.71,2.29.71,3.56s-.24,2.45-.72,3.56c-.48,1.11-1.13,2.08-1.96,2.93-.83.84-1.8,1.5-2.9,1.98-1.11.48-2.29.72-3.56.72h-7.49c-1.26,0-2.45-.24-3.56-.71-1.11-.48-2.08-1.13-2.9-1.97-.83-.84-1.48-1.81-1.96-2.92-.48-1.11-.72-2.29-.72-3.55h4.91c0,.58.11,1.13.34,1.64.22.51.53.96.92,1.35.39.39.84.69,1.34.92s1.05.33,1.63.33h7.46c.59,0,1.13-.11,1.63-.33.5-.22.95-.53,1.34-.92.39-.39.7-.84.92-1.36.22-.52.34-1.07.34-1.65s-.11-1.13-.34-1.65-.53-.96-.92-1.34c-.39-.38-.84-.68-1.34-.9-.5-.22-1.05-.34-1.64-.34l-7.48-.04c-1.23,0-2.4-.24-3.51-.71-1.11-.48-2.07-1.12-2.88-1.93-.81-.81-1.46-1.76-1.95-2.86-.49-1.09-.75-2.25-.78-3.49h4.91c.03.55.15,1.08.38,1.58.22.5.53.94.92,1.31.39.37.84.67,1.34.87.5.21,1.04.31,1.6.31l7.48.04ZM166.02,4.71h7.31c1.26,0,2.44.24,3.55.71,1.11.48,2.09,1.13,2.93,1.95.85.83,1.51,1.79,1.99,2.9.48,1.11.72,2.29.72,3.55h-4.91c0-.58-.11-1.13-.34-1.64-.22-.51-.53-.96-.92-1.33-.39-.37-.85-.67-1.37-.89s-1.07-.33-1.66-.33h-7.31v-4.92Z"/>
  <path class="cls-1" d="M211.44,25.08c-.11,1.57-.5,3.04-1.18,4.41-.67,1.37-1.55,2.56-2.63,3.57-1.08,1.01-2.32,1.81-3.74,2.39-1.41.59-2.92.88-4.52.88-1.68,0-3.26-.32-4.73-.95-1.47-.63-2.75-1.49-3.84-2.58-1.09-1.09-1.95-2.37-2.58-3.84-.63-1.47-.95-3.03-.95-4.68V5.04h4.79v19.24c0,1.01.19,1.95.57,2.84s.9,1.65,1.58,2.31,1.45,1.18,2.33,1.55,1.83.57,2.84.57c.92,0,1.81-.17,2.65-.5.84-.34,1.58-.79,2.23-1.37.64-.57,1.17-1.25,1.58-2.04.41-.78.66-1.64.78-2.56h4.83ZM206.65,19.91V5.08h4.79v14.83h-4.79Z"/>
  <path class="cls-1" d="M290.38,36.43h-5.38l-2.94-6.76-6.55-15.38-4.54,10.46-5.04,11.68h-5.29l13.53-31.34h2.73l13.49,31.34Z"/>
  <path class="cls-1" d="M298.74,36.43h-4.92V5.04h4.92v31.38Z"/>
  <path class="cls-1" d="M327.35,14.85c0,1.21-.21,2.35-.63,3.43-.42,1.08-1,2.05-1.75,2.91-.74.86-1.62,1.56-2.63,2.13s-2.1.93-3.28,1.09l8.25,11.93h-5.88l-8.19-11.81-5.13-.04v11.93h-4.92V11.68h4.92v7.94h9.55c.67,0,1.29-.13,1.86-.38.57-.25,1.07-.59,1.51-1.02.43-.43.77-.93,1.03-1.51.25-.57.38-1.19.38-1.86s-.13-1.3-.38-1.9c-.25-.6-.6-1.12-1.03-1.55-.43-.43-.95-.78-1.53-1.05-.59-.27-1.2-.4-1.85-.4l-7.14-.04v-4.87h7.14c1.34,0,2.6.26,3.76.78s2.19,1.22,3.08,2.11c.89.88,1.59,1.92,2.1,3.12.51,1.19.76,2.46.76,3.81Z"/>
  <path class="cls-1" d="M261.98,0v4.1c0,1.26-.24,2.44-.71,3.55-.48,1.11-1.13,2.09-1.95,2.93-.83.85-1.79,1.51-2.9,1.99-1.11.48-2.29.72-3.55.72v-4.91c.58,0,1.13-.11,1.64-.34.51-.22.96-.53,1.33-.92.37-.39.67-.85.89-1.37s.33-1.07.33-1.66V0s4.92,0,4.92,0Z"/>
  <polygon class="cls-1" points="248.32 4.96 245.85 4.96 231.81 18.91 220.34 7.44 220.34 14.41 231.81 25.84 243.41 14.33 243.86 13.88 248.32 9.8 248.32 4.96"/>
  <rect class="cls-1" x="243.41" y="18.36" width="4.92" height="17.98"/>
  <polygon class="cls-1" points="243.28 7.44 231.81 18.91 217.78 4.96 215.3 4.96 215.3 36.34 220.22 36.34 220.22 14.33 231.81 25.84 243.28 14.41 243.28 7.44"/>
  <g>
    <path class="cls-1" d="M1.84,41.44c2.2-1.6,3.94-2.86,7.71-2.86s5.51,1.26,7.71,2.86c2.53,1.84,5.39,3.92,10.95,3.92s8.42-2.08,10.95-3.92c2.2-1.6,3.94-2.86,7.7-2.86s5.5,1.26,7.71,2.87c.58.42,1.19.86,1.84,1.28v-6.74c-2.24-1.52-4.98-2.93-9.55-2.93-5.56,0-8.42,2.08-10.95,3.92-2.2,1.6-3.94,2.86-7.7,2.86s-5.51-1.26-7.71-2.86c-2.53-1.84-5.39-3.92-10.95-3.92-4.57,0-7.31,1.41-9.55,2.93v6.74c.65-.42,1.26-.86,1.84-1.29Z"/>
    <path class="cls-1" d="M56.42,49.83c-2.24-1.52-4.98-2.93-9.55-2.93-5.56,0-8.42,2.08-10.95,3.92-2.2,1.6-3.94,2.86-7.7,2.86s-5.51-1.26-7.71-2.86c-2.53-1.84-5.39-3.92-10.95-3.92-4.57,0-7.31,1.41-9.55,2.93v6.74c.65-.42,1.26-.86,1.84-1.29,2.2-1.6,3.94-2.86,7.71-2.86s5.51,1.26,7.71,2.86c2.52,1.84,5.39,3.92,10.95,3.92s8.43-2.08,10.95-3.92c2.2-1.6,3.94-2.86,7.7-2.86s5.5,1.26,7.71,2.87c.58.43,1.19.86,1.84,1.29v-6.74Z"/>
    <path class="cls-1" d="M56.42,22.15c-2.24-1.52-4.98-2.93-9.55-2.93-5.56,0-8.42,2.08-10.95,3.92-2.2,1.6-3.94,2.86-7.7,2.86s-5.51-1.26-7.71-2.86c-2.53-1.84-5.39-3.92-10.95-3.92-4.57,0-7.31,1.41-9.55,2.93v6.74c.65-.42,1.26-.86,1.84-1.29,2.2-1.6,3.94-2.86,7.71-2.86s5.51,1.26,7.71,2.86c2.52,1.84,5.39,3.92,10.95,3.92s8.43-2.08,10.95-3.92c2.2-1.6,3.94-2.86,7.7-2.86s5.5,1.26,7.71,2.87c.58.43,1.19.86,1.84,1.29v-6.74Z"/>
    <path class="cls-1" d="M0,15.05c.65-.42,1.26-.86,1.84-1.29,2.2-1.6,3.94-2.86,7.71-2.86s5.51,1.26,7.71,2.86c2.52,1.84,5.39,3.92,10.95,3.92s8.43-2.08,10.95-3.92c2.2-1.6,3.94-2.86,7.7-2.86s5.5,1.26,7.71,2.87c.58.43,1.19.86,1.84,1.29v-6.74c-2.24-1.52-4.98-2.93-9.55-2.93-5.56,0-8.42,2.08-10.96,3.93-2.2,1.6-3.93,2.86-7.7,2.86s-5.5-1.26-7.71-2.86c-2.53-1.84-5.39-3.92-10.95-3.92-4.57,0-7.31,1.41-9.55,2.93v6.74Z"/>
  </g>
  <path class="cls-2" d="M331.48,3.12h-.69v1.34h.69c.41,0,.74-.28.74-.67s-.32-.68-.74-.68h0ZM331.37,4.82h-.58v1.47h-.4v-3.53h1.12c.59,0,1.1.44,1.1,1.04,0,.53-.34.85-.8.98l.89,1.51h-.46l-.87-1.47ZM331.4,1.72c-1.53,0-2.78,1.28-2.78,2.8,0,1.52,1.25,2.81,2.78,2.81s2.76-1.29,2.76-2.81-1.24-2.8-2.76-2.8h0ZM331.4,7.71c-1.76,0-3.19-1.42-3.19-3.18s1.42-3.18,3.19-3.18,3.18,1.43,3.18,3.18-1.42,3.18-3.18,3.18h0Z"/>
</svg>