<?xml version="1.0" encoding="UTF-8"?>
<svg id="uuid-a248e02c-384c-4be0-a36a-c030b11cd650" data-name="Layer 1" xmlns="http://www.w3.org/2000/svg" viewBox="0 0 156.21 60.66">
  <path d="M30.59,14.8c-8.3,0-14.06,6.56-14.06,14.6v.13c0,8.04,5.89,14.73,14.2,14.73s14.06-6.56,14.06-14.6v-.13c0-8.04-5.89-14.73-14.2-14.73Z" fill="#b7a3d9"/>
  <path d="M0,0v60.66h156.21V0H0ZM55.57,29.53c0,13.33-10.51,24.24-24.98,24.24S5.74,42.99,5.74,29.67v-.13c0-13.33,10.51-24.24,24.98-24.24s24.85,10.78,24.85,24.11v.13ZM104.05,52.97h-8.77l-22.7-29.8v29.8h-10.18V6.09h9.51l21.97,28.86V6.09h10.18v46.88ZM148.65,52.97h-35.7V6.09h35.36v9.18h-25.11v9.51h22.1v9.18h-22.1v9.84h25.45v9.18Z" fill="#b7a3d9"/>
</svg>