<?xml version="1.0" encoding="UTF-8"?>
<svg id="uuid-a5f9bf0e-2f11-4d15-b600-d8a5f22b8736" data-name="Layer 1" xmlns="http://www.w3.org/2000/svg" viewBox="0 0 694.74 158.39">
  <g>
    <g>
      <path d="M22.17,45.51C9.94,45.51,0,35.57,0,23.35S9.94,1.18,22.17,1.18s22.17,9.94,22.17,22.17-9.94,22.17-22.17,22.17ZM22.17,1.87C10.33,1.87.7,11.51.7,23.35s9.63,21.47,21.47,21.47,21.47-9.63,21.47-21.47S34.01,1.87,22.17,1.87Z" fill="#4a17a1"/>
      <g>
        <path d="M27.89,19.96c-3.08,0-5.58-2.5-5.58-5.58s2.5-5.58,5.58-5.58,5.58,2.5,5.58,5.58-2.5,5.58-5.58,5.58ZM27.89,10.28c-2.26,0-4.1,1.84-4.1,4.1s1.84,4.1,4.1,4.1,4.1-1.84,4.1-4.1-1.84-4.1-4.1-4.1Z" fill="#4a17a1"/>
        <path d="M27.89,37.9c-3.08,0-5.58-2.5-5.58-5.58s2.5-5.58,5.58-5.58,5.58,2.5,5.58,5.58-2.5,5.58-5.58,5.58ZM27.89,28.21c-2.26,0-4.1,1.84-4.1,4.1s1.84,4.1,4.1,4.1,4.1-1.84,4.1-4.1-1.84-4.1-4.1-4.1Z" fill="#4a17a1"/>
        <path d="M12.49,29.02c-3.08,0-5.58-2.5-5.58-5.58s2.5-5.58,5.58-5.58,5.58,2.5,5.58,5.58-2.5,5.58-5.58,5.58ZM12.49,19.34c-2.26,0-4.1,1.84-4.1,4.1s1.84,4.1,4.1,4.1,4.1-1.84,4.1-4.1-1.84-4.1-4.1-4.1Z" fill="#4a17a1"/>
        <rect x="15.64" y="17.45" width="8.71" height="1.48" transform="translate(-5.4 8.93) rotate(-22.27)" fill="#4a17a1"/>
        <rect x="18.3" y="24.6" width="1.48" height="8.72" transform="translate(-14.77 36.59) rotate(-69.4)" fill="#4a17a1"/>
      </g>
    </g>
    <g>
      <path d="M50.44,26.75v-9.44h4.33c1.11,0,1.97.22,2.56.65.6.44.9,1.03.9,1.79,0,.51-.12.94-.35,1.29-.23.35-.55.62-.95.81-.39.19-.82.28-1.28.28l.25-.41c.55,0,1.04.1,1.46.28.42.19.76.47,1.01.83s.37.82.37,1.36c0,.81-.31,1.44-.93,1.88s-1.54.67-2.76.67h-4.61ZM51.82,25.66h3.17c.76,0,1.35-.13,1.75-.38.4-.25.61-.65.61-1.19s-.2-.95-.61-1.2c-.41-.25-.99-.38-1.75-.38h-3.29v-1.09h2.95c.7,0,1.24-.13,1.63-.38s.58-.63.58-1.13-.19-.88-.58-1.13-.93-.38-1.63-.38h-2.83v7.26Z" fill="#4a17a1"/>
      <path d="M65.24,26.86c-.74,0-1.42-.12-2.05-.36-.63-.24-1.17-.58-1.63-1.02-.46-.44-.82-.95-1.08-1.53-.26-.58-.39-1.22-.39-1.92s.13-1.33.39-1.91c.26-.58.62-1.1,1.08-1.53.46-.44,1-.78,1.63-1.02.62-.24,1.31-.37,2.05-.37s1.42.12,2.04.36,1.17.58,1.63,1.01c.46.44.82.95,1.07,1.54.25.59.38,1.23.38,1.92s-.13,1.34-.38,1.93c-.25.58-.61,1.09-1.07,1.53-.46.44-1,.77-1.63,1.01s-1.31.36-2.04.36ZM65.23,25.66c.54,0,1.04-.09,1.5-.27.46-.18.85-.43,1.19-.76s.6-.71.79-1.15c.19-.44.28-.92.28-1.44s-.09-1-.28-1.44c-.19-.44-.45-.82-.79-1.15s-.73-.59-1.19-.77-.95-.27-1.5-.27-1.03.09-1.48.27-.85.44-1.19.77c-.34.33-.6.72-.79,1.15-.19.44-.28.91-.28,1.44s.09,1,.28,1.44c.19.44.45.83.79,1.15.34.33.74.58,1.19.76.46.18.95.27,1.48.27Z" fill="#4a17a1"/>
      <path d="M76.78,26.86c-.74,0-1.41-.12-2.03-.36-.62-.24-1.16-.57-1.61-1.01-.46-.44-.81-.95-1.07-1.53-.26-.58-.39-1.23-.39-1.93s.13-1.34.39-1.93c.26-.58.62-1.09,1.08-1.53.46-.44,1-.77,1.62-1.01.62-.24,1.3-.36,2.03-.36s1.43.12,2.06.37c.63.25,1.17.61,1.61,1.1l-.9.85c-.37-.38-.78-.66-1.24-.84-.46-.18-.95-.28-1.48-.28s-1.04.09-1.51.27c-.46.18-.87.43-1.21.75s-.6.71-.79,1.15-.28.93-.28,1.45.09,1.01.28,1.45c.19.45.45.83.79,1.15.34.32.74.58,1.21.75.46.18.97.27,1.51.27s1.02-.09,1.48-.28c.46-.18.87-.47,1.24-.86l.9.85c-.44.48-.98.85-1.61,1.11-.63.25-1.32.38-2.08.38Z" fill="#4a17a1"/>
      <path d="M80.97,26.75l4.37-9.44h1.36l4.38,9.44h-1.45l-3.9-8.69h.55l-3.9,8.69h-1.42ZM82.83,24.39l.37-1.08h5.43l.4,1.08h-6.21Z" fill="#4a17a1"/>
      <path d="M96.24,26.75v-9.44h1.13l4.33,7.13h-.61l4.27-7.13h1.13v9.44s-1.31,0-1.31,0v-7.4s.3,0,.3,0l-3.8,6.26h-.63l-3.83-6.26h.34v7.4h-1.32Z" fill="#4a17a1"/>
      <path d="M113.4,26.86c-1.27,0-2.27-.35-2.99-1.06-.73-.71-1.09-1.75-1.09-3.12v-5.37h1.38v5.31c0,1.05.24,1.82.71,2.31.47.49,1.14.73,2.01.73s1.55-.24,2.02-.73c.47-.49.71-1.25.71-2.31v-5.31h1.34v5.37c0,1.37-.36,2.4-1.08,3.12-.72.71-1.72,1.06-3,1.06Z" fill="#4a17a1"/>
      <path d="M120.31,26.75v-9.44h1.38v8.27h5.23v1.17h-6.6Z" fill="#4a17a1"/>
      <path d="M130.42,26.75v-8.27h-3.31v-1.17h7.98v1.17h-3.31v8.27h-1.37Z" fill="#4a17a1"/>
      <path d="M136.59,26.75v-9.44h1.38v9.44h-1.38Z" fill="#4a17a1"/>
      <path d="M145.18,26.86c-.74,0-1.41-.12-2.03-.36-.62-.24-1.16-.57-1.61-1.01-.46-.44-.81-.95-1.07-1.53-.26-.58-.39-1.23-.39-1.93s.13-1.34.39-1.93c.26-.58.62-1.09,1.08-1.53.46-.44,1-.77,1.62-1.01.62-.24,1.3-.36,2.03-.36s1.43.12,2.06.37c.63.25,1.17.61,1.61,1.1l-.9.85c-.37-.38-.78-.66-1.24-.84-.46-.18-.95-.28-1.48-.28s-1.04.09-1.51.27c-.46.18-.87.43-1.21.75s-.6.71-.79,1.15-.28.93-.28,1.45.09,1.01.28,1.45c.19.45.45.83.79,1.15.34.32.74.58,1.21.75.46.18.97.27,1.51.27s1.02-.09,1.48-.28c.46-.18.87-.47,1.24-.86l.9.85c-.44.48-.98.85-1.61,1.11-.63.25-1.32.38-2.08.38Z" fill="#4a17a1"/>
      <path d="M155.19,26.86c-.74,0-1.42-.12-2.05-.36-.63-.24-1.17-.58-1.63-1.02-.46-.44-.82-.95-1.08-1.53-.26-.58-.39-1.22-.39-1.92s.13-1.33.39-1.91c.26-.58.62-1.1,1.08-1.53.46-.44,1-.78,1.63-1.02.62-.24,1.31-.37,2.05-.37s1.42.12,2.04.36,1.17.58,1.63,1.01c.46.44.82.95,1.07,1.54.25.59.38,1.23.38,1.92s-.13,1.34-.38,1.93c-.25.58-.61,1.09-1.07,1.53-.46.44-1,.77-1.63,1.01s-1.31.36-2.04.36ZM155.18,25.66c.54,0,1.04-.09,1.5-.27.46-.18.85-.43,1.19-.76s.6-.71.79-1.15c.19-.44.28-.92.28-1.44s-.09-1-.28-1.44c-.19-.44-.45-.82-.79-1.15s-.73-.59-1.19-.77-.95-.27-1.5-.27-1.03.09-1.48.27-.85.44-1.19.77-.6.72-.79,1.15c-.19.44-.28.91-.28,1.44s.09,1,.28,1.44c.19.44.45.83.79,1.15s.74.58,1.19.76c.46.18.95.27,1.48.27Z" fill="#4a17a1"/>
      <path d="M162.42,26.75v-9.44h1.13l6.38,7.75h-.59v-7.75h1.38v9.44h-1.13l-6.38-7.75h.59v7.75h-1.38Z" fill="#4a17a1"/>
      <path d="M174.99,25.58h5.63v1.17h-7v-9.44h6.81v1.17h-5.43v7.09ZM174.87,21.39h4.96v1.15h-4.96v-1.15Z" fill="#4a17a1"/>
      <path d="M181.58,26.75l4.01-5.35v1.04l-3.79-5.12h1.57l3.01,4.03h-.62s2.99-4.03,2.99-4.03h1.5l-3.76,5.04v-.97l4.01,5.37h-1.59l-3.2-4.3h.61l-3.16,4.3h-1.58Z" fill="#4a17a1"/>
      <path d="M190.67,26.75l4.37-9.44h1.36l4.38,9.44h-1.45l-3.9-8.69h.55l-3.9,8.69h-1.42ZM192.53,24.39l.37-1.08h5.43l.4,1.08h-6.21ZM196.69,16.5c-.22,0-.42-.04-.59-.13s-.32-.2-.46-.32-.27-.23-.4-.32c-.13-.09-.26-.13-.39-.13-.2,0-.37.07-.49.22s-.2.35-.21.61h-.74c.02-.5.15-.9.39-1.2s.56-.45.96-.45c.22,0,.42.05.59.14.17.09.33.2.47.32.14.12.27.23.39.32s.25.13.38.13c.2,0,.37-.07.5-.22.13-.14.2-.34.21-.59h.75c0,.48-.14.86-.38,1.16-.24.3-.57.45-.97.45Z" fill="#4a17a1"/>
      <path d="M206.58,26.86c-.74,0-1.42-.12-2.05-.36-.63-.24-1.17-.58-1.63-1.02-.46-.44-.82-.95-1.08-1.53-.26-.58-.39-1.22-.39-1.92s.13-1.33.39-1.91c.26-.58.62-1.1,1.08-1.53.46-.44,1-.78,1.63-1.02.62-.24,1.31-.37,2.05-.37s1.42.12,2.04.36,1.17.58,1.63,1.01c.46.44.82.95,1.07,1.54.25.59.38,1.23.38,1.92s-.13,1.34-.38,1.93c-.25.58-.61,1.09-1.07,1.53-.46.44-1,.77-1.63,1.01s-1.31.36-2.04.36ZM206.57,25.66c.54,0,1.04-.09,1.5-.27.46-.18.85-.43,1.19-.76s.6-.71.79-1.15c.19-.44.28-.92.28-1.44s-.09-1-.28-1.44c-.19-.44-.45-.82-.79-1.15s-.73-.59-1.19-.77-.95-.27-1.5-.27-1.03.09-1.48.27-.85.44-1.19.77-.6.72-.79,1.15c-.19.44-.28.91-.28,1.44s.09,1,.28,1.44c.19.44.45.83.79,1.15s.74.58,1.19.76c.46.18.95.27,1.48.27Z" fill="#4a17a1"/>
    </g>
  </g>
  <g>
    <g>
      <path d="M276.4,45.51c-12.22,0-22.17-9.94-22.17-22.17s9.94-22.17,22.17-22.17,22.17,9.94,22.17,22.17-9.94,22.17-22.17,22.17ZM276.4,1.87c-11.84,0-21.47,9.63-21.47,21.47s9.63,21.47,21.47,21.47,21.47-9.63,21.47-21.47-9.63-21.47-21.47-21.47Z" fill="#4a17a1"/>
      <path d="M282.12,19.96c-3.08,0-5.58-2.5-5.58-5.58s2.5-5.58,5.58-5.58,5.58,2.5,5.58,5.58-2.5,5.58-5.58,5.58ZM282.12,10.28c-2.26,0-4.1,1.84-4.1,4.1s1.84,4.1,4.1,4.1,4.1-1.84,4.1-4.1-1.84-4.1-4.1-4.1Z" fill="#4a17a1"/>
      <path d="M282.26,37.9c-3.08.08-5.64-2.37-5.72-5.44-.08-3.08,2.37-5.64,5.44-5.72s5.64,2.37,5.72,5.44c.08,3.08-2.37,5.64-5.44,5.72ZM282.02,28.22c-2.26.06-4.06,1.94-4,4.2s1.94,4.06,4.2,4,4.05-1.94,4-4.2-1.94-4.05-4.2-4Z" fill="#4a17a1"/>
      <path d="M266.72,29.02c-3.08,0-5.58-2.51-5.58-5.59s2.5-5.58,5.58-5.58,5.58,2.5,5.58,5.58-2.5,5.59-5.58,5.59ZM266.72,19.34c-2.26,0-4.1,1.84-4.1,4.1s1.84,4.1,4.1,4.1,4.1-1.84,4.1-4.1-1.84-4.1-4.1-4.1Z" fill="#4a17a1"/>
      <rect x="269.87" y="17.46" width="8.71" height="1.48" transform="translate(13.55 105.26) rotate(-22.27)" fill="#4a17a1"/>
      <rect x="272.53" y="24.6" width="1.48" height="8.72" transform="translate(149.93 274.53) rotate(-69.38)" fill="#4a17a1"/>
    </g>
    <g>
      <path d="M306.66,26.76v-9.44h4.33c1.11,0,1.97.22,2.56.65.6.44.9,1.03.9,1.79,0,.51-.12.94-.35,1.29-.23.35-.55.62-.94.81-.4.19-.82.28-1.28.28l.25-.4c.55,0,1.04.09,1.46.28.42.19.76.46,1.01.83s.37.82.37,1.36c0,.81-.31,1.44-.93,1.88-.62.44-1.54.67-2.76.67h-4.6ZM308.03,25.66h3.17c.76,0,1.35-.12,1.75-.38s.61-.65.61-1.19-.2-.95-.61-1.2c-.4-.25-.99-.38-1.75-.38h-3.3v-1.09h2.95c.7,0,1.24-.13,1.63-.38.39-.25.58-.63.58-1.13s-.19-.88-.58-1.13c-.39-.25-.93-.38-1.63-.38h-2.83v7.26Z" fill="#4a17a1"/>
      <path d="M321.45,26.87c-.74,0-1.42-.12-2.05-.37-.63-.24-1.17-.58-1.63-1.02-.46-.44-.82-.95-1.08-1.53-.26-.58-.39-1.22-.39-1.91s.13-1.33.39-1.92c.26-.58.62-1.09,1.08-1.53.46-.44,1-.78,1.63-1.02.62-.24,1.31-.36,2.05-.36s1.42.12,2.04.36,1.17.57,1.63,1.01c.46.44.82.95,1.07,1.54.25.59.38,1.23.38,1.92s-.13,1.34-.38,1.93c-.25.58-.61,1.1-1.07,1.53-.46.44-1,.77-1.63,1.01s-1.31.36-2.04.36ZM321.44,25.66c.54,0,1.04-.09,1.5-.27s.85-.43,1.19-.76.6-.71.79-1.15.28-.92.28-1.44-.09-1-.28-1.44c-.19-.44-.45-.82-.79-1.15s-.73-.59-1.19-.77c-.46-.18-.95-.27-1.5-.27s-1.03.09-1.48.27c-.46.18-.85.44-1.19.77s-.6.72-.79,1.15c-.19.44-.28.92-.28,1.44s.09,1,.28,1.44.45.83.79,1.15.74.58,1.19.76.95.27,1.48.27Z" fill="#4a17a1"/>
      <path d="M332.99,26.87c-.74,0-1.41-.12-2.03-.36-.62-.24-1.16-.58-1.61-1.01s-.81-.95-1.07-1.53c-.26-.58-.39-1.23-.39-1.93s.13-1.34.39-1.93c.26-.58.62-1.09,1.08-1.53.46-.44,1-.77,1.62-1.01.62-.24,1.3-.36,2.03-.36s1.43.12,2.06.37c.63.25,1.17.61,1.61,1.1l-.9.85c-.37-.38-.78-.66-1.24-.84-.46-.18-.95-.28-1.48-.28s-1.04.09-1.51.27c-.46.18-.87.43-1.21.76s-.6.71-.79,1.15c-.19.44-.28.93-.28,1.45s.09,1,.28,1.45.45.83.79,1.15.74.58,1.21.75c.46.18.97.27,1.51.27s1.02-.09,1.48-.28c.46-.19.87-.47,1.24-.86l.9.85c-.44.49-.98.85-1.61,1.11-.63.25-1.32.38-2.08.38Z" fill="#4a17a1"/>
      <path d="M337.18,26.76l4.37-9.44h1.36l4.38,9.44h-1.45l-3.9-8.69h.55l-3.9,8.69h-1.42ZM339.04,24.4l.37-1.08h5.43l.4,1.08h-6.21Z" fill="#4a17a1"/>
      <path d="M352.45,26.76v-9.44h1.13l4.33,7.13h-.61l4.27-7.13h1.13v9.44s-1.31,0-1.31,0v-7.4s.3,0,.3,0l-3.8,6.26h-.63l-3.83-6.26h.34v7.4h-1.32Z" fill="#4a17a1"/>
      <path d="M369.61,26.87c-1.27,0-2.27-.36-2.99-1.07-.73-.71-1.09-1.75-1.09-3.12v-5.37h1.38v5.31c0,1.05.24,1.82.71,2.31.47.49,1.14.73,2.01.73s1.55-.24,2.02-.73c.47-.48.71-1.25.71-2.31v-5.31h1.34v5.37c0,1.37-.36,2.41-1.08,3.12-.72.71-1.72,1.07-3,1.07Z" fill="#4a17a1"/>
      <path d="M376.52,26.76v-9.44h1.38v8.27h5.23v1.17h-6.6Z" fill="#4a17a1"/>
      <path d="M386.63,26.76v-8.27h-3.31v-1.17h7.98v1.17h-3.31v8.27h-1.37Z" fill="#4a17a1"/>
      <path d="M392.8,26.76v-9.44h1.38v9.44h-1.38Z" fill="#4a17a1"/>
      <path d="M398.46,25.58h5.63v1.17h-7v-9.44h6.81v1.17h-5.43v7.09ZM398.33,21.39h4.96v1.15h-4.96v-1.15Z" fill="#4a17a1"/>
      <path d="M406.32,26.76v-9.44h1.13l6.38,7.75h-.59v-7.75h1.38v9.44h-1.13l-6.38-7.75h.59v7.75h-1.38Z" fill="#4a17a1"/>
      <path d="M419.43,26.76v-8.27h-3.31v-1.17h7.98v1.17h-3.31v8.27h-1.37Z" fill="#4a17a1"/>
      <path d="M425.61,26.76v-9.44h3.76c.85,0,1.57.13,2.17.39.6.26,1.06.64,1.38,1.13.32.5.48,1.08.48,1.77s-.16,1.27-.48,1.76c-.32.49-.78.87-1.38,1.13-.6.26-1.32.39-2.17.39h-3.01l.62-.62v3.49h-1.38ZM426.98,23.4l-.62-.66h2.96c.88,0,1.55-.19,2.01-.56s.68-.9.68-1.57-.23-1.2-.68-1.56c-.46-.37-1.12-.55-2.01-.55h-2.96l.62-.67v5.58ZM432.06,26.76l-2.45-3.43h1.48l2.48,3.43h-1.5Z" fill="#4a17a1"/>
      <path d="M434.17,26.76l4.37-9.44h1.36l4.38,9.44h-1.45l-3.9-8.69h.55l-3.9,8.69h-1.42ZM436.03,24.4l.37-1.08h5.43l.4,1.08h-6.21Z" fill="#4a17a1"/>
      <path d="M445.72,26.76v-9.44h4.07c1.03,0,1.94.2,2.72.59.79.4,1.4.95,1.83,1.66.44.71.66,1.53.66,2.47s-.22,1.76-.66,2.47c-.44.71-1.05,1.26-1.83,1.66-.79.39-1.69.59-2.72.59h-4.07ZM447.1,25.58h2.61c.8,0,1.49-.15,2.08-.45.58-.3,1.04-.71,1.36-1.25.32-.54.48-1.15.48-1.85s-.16-1.33-.48-1.86c-.32-.53-.78-.94-1.36-1.24-.58-.3-1.28-.44-2.08-.44h-2.61v7.09Z" fill="#4a17a1"/>
      <path d="M455.65,26.76l4.37-9.44h1.36l4.38,9.44h-1.45l-3.9-8.69h.55l-3.9,8.69h-1.42ZM457.51,24.4l.37-1.08h5.43l.4,1.08h-6.21Z" fill="#4a17a1"/>
    </g>
  </g>
  <g>
    <g>
      <path d="M276.4,113.58c-12.22,0-22.17-9.94-22.17-22.17s9.94-22.17,22.17-22.17,22.17,9.94,22.17,22.17-9.94,22.17-22.17,22.17ZM276.4,69.94c-11.84,0-21.47,9.63-21.47,21.47s9.63,21.47,21.47,21.47,21.47-9.63,21.47-21.47-9.63-21.47-21.47-21.47Z" fill="#4a17a1"/>
      <path d="M276.45,109.24h.1s.02-.03.03-.05c.07-.1.14-.19.19-.29,1.33-2.79,2.67-5.62,3.97-8.37l.06-.12c.04-.09.07-.18.09-.25.02-.08.02-.14,0-.19-.03-.05-.09-.07-.14-.08-.09-.02-.19-.02-.3-.02h-.05c-.43,0-.85,0-1.28,0h-.73s0-16.37,0-16.37h2.08c.26,0,.39-.06.42-.11.02-.03.05-.13-.08-.4-.63-1.32-1.25-2.64-1.88-3.96-.73-1.53-1.45-3.06-2.18-4.59-.12-.25-.18-.29-.3-.29h0c-.1,0-.15.05-.26.29l-1.29,2.72c-.92,1.94-1.84,3.87-2.76,5.81-.11.24-.12.38-.09.43.03.05.16.1.44.11h2.13v16.37h-2.14c-.26,0-.39.05-.42.11-.03.05-.03.18.08.41,1.3,2.74,2.68,5.65,4.06,8.54.04.08.11.16.19.24.02.02.04.04.05.06M276.82,109.74h-.6l-.08-.09s-.07-.08-.11-.12c-.1-.1-.21-.22-.29-.37-1.38-2.89-2.77-5.81-4.07-8.55-.18-.37-.19-.68-.05-.9.14-.23.43-.34.85-.34.43,0,.86,0,1.3,0h.34s0-15.35,0-15.35h-1.62c-.44,0-.72-.11-.87-.34-.14-.23-.13-.53.06-.92.92-1.94,1.84-3.88,2.76-5.81l1.29-2.72c.11-.23.28-.58.73-.58.48,0,.66.4.75.58.73,1.53,1.45,3.06,2.18,4.59.63,1.32,1.25,2.64,1.88,3.96.18.37.19.67.05.89-.14.23-.43.35-.85.35-.42,0-.83,0-1.26,0h-.32v15.35h.22c.43,0,.85,0,1.28,0h.05c.13,0,.28,0,.42.03.2.05.36.16.45.32.1.16.12.36.06.57-.03.1-.07.21-.13.34l-.05.12c-1.3,2.75-2.64,5.58-3.97,8.37-.07.14-.15.26-.24.37-.03.05-.07.09-.1.14l-.08.11Z" fill="#4a17a1"/>
      <path d="M280.72,93.58h3.94v2.1c0,.26.06.39.11.42.05.03.18.03.41-.08,2.72-1.29,5.63-2.67,8.54-4.07.08-.04.16-.11.24-.19.02-.02.04-.04.06-.05v-.05s-.04-.04-.07-.06c-.09-.09-.18-.17-.26-.21-2.58-1.24-5.21-2.48-7.76-3.69l-.73-.34c-.11-.05-.2-.09-.28-.11-.13-.03-.19,0-.24.13-.03.09-.03.21-.04.33,0,.45,0,.9,0,1.37v.78h-3.94v3.72ZM284.85,96.64c-.13,0-.25-.03-.35-.09-.23-.14-.34-.43-.35-.85v-1.6h-3.94v-4.74h3.94v-.27c0-.47,0-.92,0-1.37,0-.16,0-.33.06-.49.13-.38.46-.56.85-.46.11.03.23.07.37.14l.73.35c2.54,1.21,5.17,2.46,7.76,3.69.16.08.28.19.39.3.04.04.09.09.13.12l.09.08v.51l-.09.08s-.08.07-.13.12c-.1.1-.22.21-.37.29-2.91,1.4-5.82,2.77-8.55,4.07-.2.09-.38.14-.55.14" fill="#4a17a1"/>
      <path d="M268.11,87.25c-.07,0-.19.03-.34.1-1.21.57-2.41,1.14-3.62,1.72-1.64.78-3.28,1.56-4.93,2.34-.24.12-.29.18-.28.3,0,.1.04.14.28.26,1.42.68,2.84,1.35,4.26,2.03,1.43.68,2.86,1.36,4.28,2.03.24.11.37.12.42.09.05-.03.1-.15.1-.41,0-.42,0-.85,0-1.28v-.84h3.96v-3.72h-3.96v-.86c0-.45,0-.88,0-1.31,0-.26-.05-.38-.1-.41-.02-.01-.04-.02-.08-.02M268.11,96.63c-.16,0-.35-.05-.57-.15-1.43-.68-2.86-1.36-4.28-2.04-1.42-.68-2.84-1.35-4.26-2.02-.23-.11-.57-.27-.58-.71,0-.49.39-.67.57-.76,1.64-.78,3.28-1.56,4.93-2.34,1.21-.57,2.41-1.14,3.62-1.72.38-.18.68-.2.91-.06.23.14.34.42.34.84,0,.43,0,.87,0,1.31v.35h3.95v4.74h-3.95v.33c0,.43,0,.86,0,1.28,0,.41-.12.69-.34.83-.1.07-.21.1-.35.1" fill="#4a17a1"/>
    </g>
    <g>
      <path d="M306.66,87.16v-9.44h1.38v9.44h-1.38Z" fill="#4a17a1"/>
      <path d="M310.93,87.16v-9.44h1.13l6.38,7.75h-.59v-7.75h1.38v9.44h-1.13l-6.38-7.75h.59v7.75h-1.38Z" fill="#4a17a1"/>
      <path d="M324.94,87.27c-.74,0-1.44-.11-2.11-.33-.67-.22-1.2-.51-1.59-.86l.51-1.05c.37.31.84.58,1.41.78.57.21,1.16.31,1.78.31.56,0,1.02-.06,1.37-.19.35-.13.61-.3.77-.52.17-.22.25-.47.25-.75,0-.32-.11-.58-.32-.78-.22-.2-.5-.36-.84-.48s-.72-.23-1.14-.32c-.41-.09-.83-.2-1.25-.32-.42-.12-.8-.28-1.14-.47-.34-.19-.62-.44-.83-.76-.21-.32-.32-.73-.32-1.23s.13-.93.39-1.34c.26-.41.67-.74,1.21-.98.55-.25,1.24-.37,2.09-.37.56,0,1.12.07,1.67.22.55.14,1.03.35,1.43.62l-.46,1.08c-.41-.27-.85-.46-1.31-.59-.46-.12-.91-.18-1.34-.18-.54,0-.99.07-1.34.2-.35.14-.6.32-.76.54-.16.22-.24.48-.24.75,0,.33.11.6.32.8.22.2.5.36.84.47.34.12.72.22,1.14.32.41.09.83.2,1.25.32.42.12.8.27,1.14.46s.62.44.83.75c.21.32.32.72.32,1.21s-.13.92-.4,1.33-.68.74-1.23.98c-.56.25-1.26.37-2.1.37Z" fill="#4a17a1"/>
      <path d="M332.6,87.16v-8.27h-3.31v-1.17h7.98v1.17h-3.31v8.27h-1.37Z" fill="#4a17a1"/>
      <path d="M337.32,87.16l4.37-9.44h1.36l4.38,9.44h-1.45l-3.9-8.69h.55l-3.9,8.69h-1.42ZM339.18,84.8l.37-1.08h5.43l.4,1.08h-6.21Z" fill="#4a17a1"/>
      <path d="M348.88,87.16v-9.44h1.38v8.27h5.23v1.17h-6.6Z" fill="#4a17a1"/>
      <path d="M355.6,87.16l4.37-9.44h1.36l4.38,9.44h-1.45l-3.9-8.69h.55l-3.9,8.69h-1.42ZM357.47,84.8l.37-1.08h5.43l.4,1.08h-6.21Z" fill="#4a17a1"/>
      <path d="M371.47,87.27c-.74,0-1.41-.12-2.03-.36-.62-.24-1.16-.58-1.61-1.01-.46-.44-.81-.95-1.07-1.53-.26-.58-.39-1.23-.39-1.93s.13-1.34.39-1.93c.26-.58.62-1.09,1.08-1.53.46-.44,1-.77,1.62-1.01.62-.24,1.3-.36,2.03-.36s1.43.12,2.06.37c.63.25,1.17.61,1.61,1.1l-.9.85c-.37-.38-.78-.66-1.24-.84-.46-.18-.95-.28-1.48-.28s-1.04.09-1.51.27c-.46.18-.87.43-1.21.75-.34.32-.6.71-.79,1.15s-.28.93-.28,1.45.09,1,.28,1.45.45.83.79,1.15c.34.32.74.58,1.21.75.46.18.97.27,1.51.27s1.02-.09,1.48-.28c.46-.18.87-.47,1.24-.86l.9.85c-.44.49-.98.85-1.61,1.11-.63.25-1.32.38-2.08.38ZM370.91,90.18c-.24,0-.46-.02-.66-.07-.2-.05-.39-.12-.57-.22l.29-.66c.15.08.3.14.45.17.15.04.31.05.49.05.27,0,.46-.05.59-.14.12-.09.19-.23.19-.4,0-.16-.06-.29-.19-.38-.12-.09-.32-.14-.6-.14h-.37l.34-1.32h.76l-.21.77c.4.04.69.16.9.36s.3.46.3.76c0,.38-.16.68-.47.9s-.73.33-1.24.33Z" fill="#4a17a1"/>
      <path d="M375.67,87.16l4.37-9.44h1.36l4.38,9.44h-1.45l-3.9-8.69h.55l-3.9,8.69h-1.42ZM377.53,84.8l.37-1.08h5.43l.4,1.08h-6.21ZM381.69,76.91c-.22,0-.42-.04-.59-.13s-.32-.2-.46-.32c-.14-.12-.27-.23-.4-.32-.13-.09-.26-.13-.39-.13-.2,0-.37.07-.49.22s-.2.35-.21.61h-.74c.02-.5.15-.9.39-1.2s.56-.45.96-.45c.22,0,.42.05.59.14.17.09.33.2.47.32.14.12.27.23.39.32s.25.13.38.13c.2,0,.37-.07.5-.22.13-.14.2-.34.21-.59h.75c0,.48-.14.86-.38,1.16-.24.3-.57.44-.97.44Z" fill="#4a17a1"/>
      <path d="M391.58,87.27c-.74,0-1.42-.12-2.05-.36-.63-.24-1.17-.58-1.63-1.02-.46-.44-.82-.95-1.08-1.53-.26-.58-.39-1.22-.39-1.92s.13-1.33.39-1.92c.26-.58.62-1.09,1.08-1.53.46-.44,1-.78,1.63-1.02.62-.24,1.31-.36,2.05-.36s1.42.12,2.04.36c.62.24,1.17.58,1.63,1.01.46.44.82.95,1.07,1.54.25.59.38,1.23.38,1.92s-.13,1.34-.38,1.93c-.25.58-.61,1.09-1.07,1.53-.46.44-1,.77-1.63,1.01s-1.31.36-2.04.36ZM391.56,86.07c.54,0,1.04-.09,1.5-.27s.85-.43,1.19-.76.6-.71.79-1.15.28-.92.28-1.44-.09-1-.28-1.44c-.19-.44-.45-.82-.79-1.15s-.73-.59-1.19-.77-.95-.27-1.5-.27-1.03.09-1.48.27-.85.44-1.19.77-.6.72-.79,1.15c-.19.44-.28.92-.28,1.44s.09,1,.28,1.44.45.83.79,1.15.74.58,1.19.76.95.27,1.48.27Z" fill="#4a17a1"/>
      <path d="M405.3,87.16l-4.25-9.44h1.49l3.9,8.71h-.85l3.93-8.71h1.38l-4.23,9.44h-1.36Z" fill="#4a17a1"/>
      <path d="M413.71,85.99h5.63v1.17h-7v-9.44h6.81v1.17h-5.43v7.09ZM413.58,81.79h4.96v1.15h-4.96v-1.15Z" fill="#4a17a1"/>
      <path d="M421.57,87.16v-9.44h3.76c.85,0,1.57.13,2.17.39.6.26,1.06.64,1.38,1.13.32.5.48,1.08.48,1.77s-.16,1.27-.48,1.76c-.32.49-.78.87-1.38,1.13-.6.26-1.32.39-2.17.39h-3.01l.62-.62v3.49h-1.38ZM422.94,83.8l-.62-.66h2.96c.88,0,1.55-.19,2.01-.56.46-.37.68-.9.68-1.57s-.23-1.2-.68-1.56c-.46-.37-1.12-.55-2.01-.55h-2.96l.62-.67v5.58ZM428.02,87.16l-2.45-3.43h1.48l2.48,3.43h-1.5Z" fill="#4a17a1"/>
      <path d="M433.51,87.16v-8.27h-3.31v-1.17h7.98v1.17h-3.31v8.27h-1.37Z" fill="#4a17a1"/>
      <path d="M439.68,87.16v-9.44h1.38v9.44h-1.38Z" fill="#4a17a1"/>
      <path d="M448.27,87.27c-.74,0-1.41-.12-2.03-.36-.62-.24-1.16-.58-1.61-1.01-.46-.44-.81-.95-1.07-1.53-.26-.58-.39-1.23-.39-1.93s.13-1.34.39-1.93c.26-.58.62-1.09,1.08-1.53.46-.44,1-.77,1.62-1.01.62-.24,1.3-.36,2.03-.36s1.43.12,2.06.37c.63.25,1.17.61,1.61,1.1l-.9.85c-.37-.38-.78-.66-1.24-.84-.46-.18-.95-.28-1.48-.28s-1.04.09-1.51.27c-.46.18-.87.43-1.21.75-.34.32-.6.71-.79,1.15s-.28.93-.28,1.45.09,1,.28,1.45.45.83.79,1.15c.34.32.74.58,1.21.75.46.18.97.27,1.51.27s1.02-.09,1.48-.28c.46-.18.87-.47,1.24-.86l.9.85c-.44.49-.98.85-1.61,1.11-.63.25-1.32.38-2.08.38Z" fill="#4a17a1"/>
      <path d="M452.47,87.16l4.37-9.44h1.36l4.38,9.44h-1.45l-3.9-8.69h.55l-3.9,8.69h-1.42ZM454.33,84.8l.37-1.08h5.43l.4,1.08h-6.21Z" fill="#4a17a1"/>
      <path d="M464.02,87.16v-9.44h1.38v8.27h5.23v1.17h-6.6Z" fill="#4a17a1"/>
      <path d="M311.01,103.45c-.74,0-1.42-.12-2.05-.36-.63-.24-1.17-.58-1.63-1.02-.46-.44-.82-.95-1.08-1.53-.26-.58-.39-1.22-.39-1.92s.13-1.33.39-1.92c.26-.58.62-1.09,1.08-1.53.46-.44,1-.78,1.63-1.02.62-.24,1.31-.36,2.05-.36s1.42.12,2.04.36c.62.24,1.17.58,1.63,1.01.46.44.82.95,1.07,1.54.25.59.38,1.23.38,1.92s-.13,1.34-.38,1.93c-.25.58-.61,1.09-1.07,1.53-.46.44-1,.77-1.63,1.01s-1.31.36-2.04.36ZM311,102.25c.54,0,1.04-.09,1.5-.27s.85-.43,1.19-.76.6-.71.79-1.15.28-.92.28-1.44-.09-1-.28-1.44c-.19-.44-.45-.82-.79-1.15s-.73-.59-1.19-.77-.95-.27-1.5-.27-1.03.09-1.48.27-.85.44-1.19.77-.6.72-.79,1.15c-.19.44-.28.92-.28,1.44s.09,1,.28,1.44.45.83.79,1.15.74.58,1.19.76.95.27,1.48.27Z" fill="#4a17a1"/>
      <path d="M322.24,103.45c-1.27,0-2.27-.35-2.99-1.07-.73-.71-1.09-1.75-1.09-3.12v-5.37h1.38v5.31c0,1.05.24,1.82.71,2.31.47.49,1.14.73,2.01.73s1.55-.24,2.02-.73c.47-.49.71-1.25.71-2.31v-5.31h1.34v5.37c0,1.37-.36,2.41-1.08,3.12-.72.71-1.72,1.07-3,1.07Z" fill="#4a17a1"/>
      <path d="M334.23,103.34h-1.38v-9.44h1.38v9.44ZM339.9,99.14h-5.8v-1.17h5.8v1.17ZM339.77,93.9h1.38v9.44h-1.38v-9.44Z" fill="#4a17a1"/>
      <path d="M348.41,103.45c-.74,0-1.42-.12-2.05-.36-.63-.24-1.17-.58-1.63-1.02-.46-.44-.82-.95-1.08-1.53-.26-.58-.39-1.22-.39-1.92s.13-1.33.39-1.92c.26-.58.62-1.09,1.08-1.53.46-.44,1-.78,1.63-1.02.62-.24,1.31-.36,2.05-.36s1.42.12,2.04.36c.62.24,1.17.58,1.63,1.01.46.44.82.95,1.07,1.54.25.59.38,1.23.38,1.92s-.13,1.34-.38,1.93c-.25.58-.61,1.09-1.07,1.53-.46.44-1,.77-1.63,1.01s-1.31.36-2.04.36ZM348.39,102.25c.54,0,1.04-.09,1.5-.27s.85-.43,1.19-.76.6-.71.79-1.15.28-.92.28-1.44-.09-1-.28-1.44c-.19-.44-.45-.82-.79-1.15s-.73-.59-1.19-.77-.95-.27-1.5-.27-1.03.09-1.48.27-.85.44-1.19.77-.6.72-.79,1.15c-.19.44-.28.92-.28,1.44s.09,1,.28,1.44.45.83.79,1.15.74.58,1.19.76.95.27,1.48.27Z" fill="#4a17a1"/>
      <path d="M355.63,103.34v-9.44h3.76c.85,0,1.57.13,2.17.39.6.26,1.06.64,1.38,1.13.32.5.48,1.08.48,1.77s-.16,1.27-.48,1.76c-.32.49-.78.87-1.38,1.13-.6.26-1.32.39-2.17.39h-3.01l.62-.62v3.49h-1.38ZM357.01,99.99l-.62-.66h2.96c.88,0,1.55-.19,2.01-.56.46-.37.68-.9.68-1.57s-.23-1.2-.68-1.56c-.46-.37-1.12-.55-2.01-.55h-2.96l.62-.67v5.58ZM362.08,103.34l-2.45-3.43h1.48l2.48,3.43h-1.5Z" fill="#4a17a1"/>
      <path d="M365.66,103.34v-9.44h1.38v9.44h-1.38Z" fill="#4a17a1"/>
      <path d="M369.07,103.34v-.92l6.49-7.88.15.53h-6.55v-1.17h7.79v.92l-6.47,7.88-.17-.53h6.81v1.17h-8.07Z" fill="#4a17a1"/>
      <path d="M383.34,103.45c-.74,0-1.42-.12-2.05-.36-.63-.24-1.17-.58-1.63-1.02-.46-.44-.82-.95-1.08-1.53-.26-.58-.39-1.22-.39-1.92s.13-1.33.39-1.92c.26-.58.62-1.09,1.08-1.53.46-.44,1-.78,1.63-1.02.62-.24,1.31-.36,2.05-.36s1.42.12,2.04.36c.62.24,1.17.58,1.63,1.01.46.44.82.95,1.07,1.54.25.59.38,1.23.38,1.92s-.13,1.34-.38,1.93c-.25.58-.61,1.09-1.07,1.53-.46.44-1,.77-1.63,1.01s-1.31.36-2.04.36ZM383.33,102.25c.54,0,1.04-.09,1.5-.27s.85-.43,1.19-.76.6-.71.79-1.15.28-.92.28-1.44-.09-1-.28-1.44c-.19-.44-.45-.82-.79-1.15s-.73-.59-1.19-.77-.95-.27-1.5-.27-1.03.09-1.48.27-.85.44-1.19.77-.6.72-.79,1.15c-.19.44-.28.92-.28,1.44s.09,1,.28,1.44.45.83.79,1.15.74.58,1.19.76.95.27,1.48.27Z" fill="#4a17a1"/>
      <path d="M390.57,103.34v-9.44h1.13l6.38,7.75h-.59v-7.75h1.38v9.44h-1.13l-6.38-7.75h.59v7.75h-1.38Z" fill="#4a17a1"/>
      <path d="M403.68,103.34v-8.27h-3.31v-1.17h7.98v1.17h-3.31v8.27h-1.37Z" fill="#4a17a1"/>
      <path d="M408.4,103.34l4.37-9.44h1.36l4.38,9.44h-1.45l-3.9-8.69h.55l-3.9,8.69h-1.42ZM410.26,100.98l.37-1.08h5.43l.4,1.08h-6.21Z" fill="#4a17a1"/>
      <path d="M419.95,103.34v-9.44h1.38v8.27h5.23v1.17h-6.6Z" fill="#4a17a1"/>
    </g>
  </g>
  <g>
    <g>
      <path d="M22.17,113.58c-12.22,0-22.17-9.94-22.17-22.17s9.94-22.17,22.17-22.17,22.17,9.94,22.17,22.17-9.94,22.17-22.17,22.17ZM22.17,69.85c-11.89,0-21.57,9.68-21.57,21.57s9.68,21.57,21.57,21.57,21.57-9.68,21.57-21.57-9.68-21.57-21.57-21.57Z" fill="#4a17a1"/>
      <path d="M17.03,103.44c.15.07.3.15.46.21,1.19.47,2.43.76,3.7.91,2.29.27,4.58.25,6.84-.21.71-.15,1.42-.33,2.05-.72.23-.14.24-.21.01-.37-.18-.12-.37-.22-.57-.3-1.09-.46-2.24-.66-3.41-.74-1.82-.12-3.65-.16-5.47.14-1.24.21-2.43.54-3.61,1.07M17,97.42c.06.05.09.08.12.09.1.04.2.09.3.13,1.51.6,3.1.9,4.71,1.04,1.86.16,3.71.09,5.54-.25.82-.15,1.64-.33,2.37-.77.09-.05.16-.12.26-.2-.26-.31-.58-.43-.91-.55-1.25-.44-2.54-.64-3.87-.71-2.02-.11-4.02-.06-6,.41-.85.2-1.69.44-2.52.83M17,91.36v.1c.1.04.19.09.29.12,1.46.56,2.97.91,4.53,1.05,1.89.18,3.77.13,5.65-.18.82-.14,1.62-.32,2.37-.69.16-.08.31-.2.48-.31-.3-.32-.65-.46-.99-.58-1.45-.52-2.97-.67-4.49-.74-1.93-.09-3.84.07-5.72.55-.71.19-1.41.45-2.12.67M30.35,79.47c-.15-.12-.21-.2-.3-.24-.37-.17-.74-.36-1.14-.49-.92-.29-1.87-.42-2.82-.52-1.83-.19-3.66-.13-5.47.15-1.15.18-2.27.5-3.37.92-.07.03-.14.09-.24.15.13.07.21.11.29.15,1.6.64,3.27,1,5,1.08,1.09.05,2.19.04,3.27,0,1.37-.05,2.72-.27,4-.79.25-.1.48-.25.77-.41M16.95,85.42c.18.08.29.14.41.19,1.18.47,2.39.77,3.64.94,2.09.28,4.17.28,6.26-.05.87-.14,1.72-.32,2.53-.7.18-.08.34-.22.53-.35-.32-.31-.68-.45-1.03-.58-1.25-.45-2.56-.61-3.87-.7-1.76-.12-3.52-.03-5.27.29-1.08.2-2.11.52-3.2.96M14.07,106.38h-1.47c.11-.41.17-.8.31-1.17.24-.63.64-1.16,1.16-1.59.16-.14.15-.21.01-.35-.5-.47-.92-1-1.18-1.64-.49-1.19-.22-2.27.49-3.28.2-.28.46-.52.7-.77.05-.05.14-.07.21-.1-2.37-2.11-1.97-4.41-.04-6.06-.92-.79-1.59-1.73-1.6-2.99-.01-1.26.68-2.2,1.6-3.02-.92-.79-1.59-1.74-1.6-2.98,0-1.26.66-2.2,1.6-3.02-.89-.76-1.52-1.69-1.62-2.96.37,0,.73.02,1.08,0,.25-.02.35.03.41.31.15.77.69,1.28,1.27,1.75.05.04.18.02.24-.02,1.81-.97,3.76-1.43,5.78-1.67,1.41-.16,2.81-.21,4.22-.08,1.46.13,2.92.28,4.29.85.41.17.82.38,1.16.66.83.7.89,1.57.04,2.31-.34.29-.75.52-1.16.69-.94.39-1.95.57-2.96.71-1.82.26-3.65.29-5.48.09-2.07-.23-4.08-.7-5.92-1.71-.05-.03-.15-.04-.2,0-.58.43-1.05.96-1.27,1.67-.15.51-.04.99.25,1.4.28.4.65.74,1,1.09.04.05.19.05.26.01,1.91-1.03,3.96-1.51,6.1-1.69.87-.08,1.74-.16,2.6-.13,1.82.07,3.64.2,5.38.84.47.17.93.41,1.32.71.92.71.9,1.69,0,2.42-.51.41-1.11.66-1.74.83-2.24.62-4.52.79-6.84.63-1.45-.1-2.88-.32-4.27-.73-.94-.28-1.86-.63-2.76-1.15-.3.32-.63.63-.9.98-.6.79-.62,1.57-.03,2.38.24.33.57.6.86.88.05.05.19.06.25.02,2-1.06,4.16-1.52,6.4-1.74,1.66-.16,3.31-.09,4.95.12,1,.13,2,.31,2.94.69.49.2.97.43,1.35.82.6.61.64,1.41.02,2-.31.3-.69.54-1.08.73-.86.43-1.79.65-2.74.75-1.25.14-2.51.31-3.76.29-2.43-.04-4.83-.38-7.1-1.36-.33-.14-.64-.32-.96-.47-.07-.03-.18-.05-.22-.02-.57.43-1.05.93-1.29,1.63-.16.47-.05.9.16,1.32.25.5.63.89,1.08,1.22.05.04.18.04.24,0,1.38-.74,2.85-1.19,4.38-1.47,2-.37,4.03-.43,6.06-.25,1.29.12,2.56.32,3.78.77.49.18.94.41,1.33.76.73.68.74,1.52.01,2.2-.47.45-1.06.7-1.67.9-1.16.38-2.37.54-3.58.66-2.71.26-5.38.03-7.98-.77-.79-.24-1.53-.62-2.29-.95-.14-.06-.23-.08-.35.03-.44.4-.87.81-1.11,1.38-.23.55-.15,1.07.13,1.57.25.45.59.82,1,1.12.07.05.21.08.28.04,1.32-.72,2.72-1.15,4.19-1.44,1.92-.37,3.86-.48,5.81-.33,1.25.1,2.49.25,3.69.63.56.18,1.1.45,1.61.74.24.13.43.38.59.62.34.5.27,1-.06,1.48-.25.37-.61.6-.99.81-.82.43-1.72.64-2.62.81-1.95.35-3.92.42-5.89.25-1.91-.16-3.76-.56-5.52-1.34-.24-.11-.48-.22-.71-.35-.17-.09-.3-.08-.45.04-.62.51-1.08,1.11-1.2,1.94" fill="#4a17a1"/>
    </g>
    <g>
      <path d="M49.59,94.95v-.92l6.49-7.88.15.53h-6.55v-1.17h7.79v.92l-6.47,7.88-.17-.53h6.81v1.17h-8.07Z" fill="#4a17a1"/>
      <path d="M60.88,93.78h5.63v1.17h-7v-9.44h6.81v1.17h-5.43v7.09ZM60.76,89.58h4.96v1.15h-4.96v-1.15Z" fill="#4a17a1"/>
      <path d="M68.74,94.95v-9.44h3.76c.85,0,1.57.13,2.17.39.6.26,1.06.64,1.38,1.13.32.5.48,1.08.48,1.77s-.16,1.27-.48,1.76c-.32.49-.78.87-1.38,1.13-.6.26-1.32.39-2.17.39h-3.01l.62-.62v3.49h-1.38ZM70.12,91.59l-.62-.66h2.96c.88,0,1.55-.19,2.01-.56.46-.37.68-.9.68-1.57s-.23-1.2-.68-1.56c-.46-.37-1.12-.55-2.01-.55h-2.96l.62-.67v5.58ZM75.19,94.95l-2.45-3.43h1.48l2.48,3.43h-1.5Z" fill="#4a17a1"/>
      <path d="M83.12,95.06c-.74,0-1.42-.12-2.05-.36-.63-.24-1.17-.58-1.63-1.02-.46-.44-.82-.95-1.08-1.53-.26-.58-.39-1.22-.39-1.92s.13-1.33.39-1.92c.26-.58.62-1.09,1.08-1.53.46-.44,1-.78,1.63-1.02.62-.24,1.31-.36,2.05-.36s1.42.12,2.04.36c.62.24,1.17.58,1.63,1.01.46.44.82.95,1.07,1.54.25.59.38,1.23.38,1.92s-.13,1.34-.38,1.93c-.25.58-.61,1.09-1.07,1.53-.46.44-1,.77-1.63,1.01s-1.31.36-2.04.36ZM83.11,93.86c.54,0,1.04-.09,1.5-.27s.85-.43,1.19-.76.6-.71.79-1.15.28-.92.28-1.44-.09-1-.28-1.44c-.19-.44-.45-.82-.79-1.15s-.73-.59-1.19-.77-.95-.27-1.5-.27-1.03.09-1.48.27-.85.44-1.19.77-.6.72-.79,1.15c-.19.44-.28.92-.28,1.44s.09,1,.28,1.44.45.83.79,1.15.74.58,1.19.76.95.27,1.48.27Z" fill="#4a17a1"/>
      <path d="M96.84,94.95l-4.25-9.44h1.49l3.9,8.71h-.85l3.93-8.71h1.38l-4.23,9.44h-1.36Z" fill="#4a17a1"/>
      <path d="M103.87,94.95v-9.44h1.38v9.44h-1.38Z" fill="#4a17a1"/>
      <path d="M108.15,94.95v-9.44h4.33c1.11,0,1.97.22,2.56.65.6.44.9,1.03.9,1.79,0,.51-.12.94-.35,1.29s-.55.62-.94.81c-.4.19-.82.28-1.28.28l.25-.4c.55,0,1.04.09,1.46.28.42.19.76.46,1.01.83s.37.82.37,1.36c0,.81-.31,1.44-.93,1.88-.62.45-1.54.67-2.76.67h-4.6ZM109.53,93.86h3.17c.76,0,1.35-.12,1.75-.38s.61-.65.61-1.19-.2-.95-.61-1.2c-.4-.25-.99-.38-1.75-.38h-3.3v-1.09h2.95c.7,0,1.24-.13,1.63-.38.39-.25.58-.63.58-1.13s-.19-.88-.58-1.13c-.39-.25-.93-.38-1.63-.38h-2.83v7.26Z" fill="#4a17a1"/>
      <path d="M118.59,94.95v-9.44h3.76c.85,0,1.57.13,2.17.39.6.26,1.06.64,1.38,1.13.32.5.48,1.08.48,1.77s-.16,1.27-.48,1.76c-.32.49-.78.87-1.38,1.13-.6.26-1.32.39-2.17.39h-3.01l.62-.62v3.49h-1.38ZM119.96,91.59l-.62-.66h2.96c.88,0,1.55-.19,2.01-.56.46-.37.68-.9.68-1.57s-.23-1.2-.68-1.56c-.46-.37-1.12-.55-2.01-.55h-2.96l.62-.67v5.58ZM125.04,94.95l-2.45-3.43h1.48l2.48,3.43h-1.5Z" fill="#4a17a1"/>
      <path d="M127.15,94.95l4.37-9.44h1.36l4.38,9.44h-1.45l-3.9-8.69h.55l-3.9,8.69h-1.42ZM129.01,92.59l.37-1.08h5.43l.4,1.08h-6.21Z" fill="#4a17a1"/>
      <path d="M143.02,95.06c-.74,0-1.41-.12-2.03-.36-.62-.24-1.16-.58-1.61-1.01-.46-.44-.81-.95-1.07-1.53-.26-.58-.39-1.23-.39-1.93s.13-1.34.39-1.93c.26-.58.62-1.09,1.08-1.53.46-.44,1-.77,1.62-1.01.62-.24,1.3-.36,2.03-.36s1.43.12,2.06.37c.63.25,1.17.61,1.61,1.1l-.9.85c-.37-.38-.78-.66-1.24-.84-.46-.18-.95-.28-1.48-.28s-1.04.09-1.51.27c-.46.18-.87.43-1.21.75-.34.32-.6.71-.79,1.15s-.28.93-.28,1.45.09,1,.28,1.45.45.83.79,1.15c.34.32.74.58,1.21.75.46.18.97.27,1.51.27s1.02-.09,1.48-.28c.46-.18.87-.47,1.24-.86l.9.85c-.44.49-.98.85-1.61,1.11-.63.25-1.32.38-2.08.38ZM142.45,97.97c-.24,0-.46-.02-.66-.07-.2-.05-.39-.12-.57-.22l.29-.66c.15.08.3.14.45.17.15.04.31.05.49.05.27,0,.46-.05.59-.14.12-.09.19-.23.19-.4,0-.16-.06-.29-.19-.38-.12-.09-.32-.14-.6-.14h-.37l.34-1.32h.76l-.21.77c.4.04.69.16.9.36s.3.46.3.76c0,.38-.16.68-.47.9s-.73.33-1.24.33Z" fill="#4a17a1"/>
      <path d="M153.03,95.06c-.74,0-1.42-.12-2.05-.36-.63-.24-1.17-.58-1.63-1.02-.46-.44-.82-.95-1.08-1.53-.26-.58-.39-1.22-.39-1.92s.13-1.33.39-1.92c.26-.58.62-1.09,1.08-1.53.46-.44,1-.78,1.63-1.02.62-.24,1.31-.36,2.05-.36s1.42.12,2.04.36c.62.24,1.17.58,1.63,1.01.46.44.82.95,1.07,1.54.25.59.38,1.23.38,1.92s-.13,1.34-.38,1.93c-.25.58-.61,1.09-1.07,1.53-.46.44-1,.77-1.63,1.01s-1.31.36-2.04.36ZM153.01,93.86c.54,0,1.04-.09,1.5-.27s.85-.43,1.19-.76.6-.71.79-1.15.28-.92.28-1.44-.09-1-.28-1.44c-.19-.44-.45-.82-.79-1.15s-.73-.59-1.19-.77-.95-.27-1.5-.27-1.03.09-1.48.27-.85.44-1.19.77-.6.72-.79,1.15c-.19.44-.28.92-.28,1.44s.09,1,.28,1.44.45.83.79,1.15.74.58,1.19.76.95.27,1.48.27ZM153.99,84.7c-.22,0-.42-.04-.59-.13s-.32-.2-.46-.32c-.14-.12-.27-.23-.4-.32s-.26-.13-.39-.13c-.2,0-.37.07-.49.22s-.2.35-.21.61h-.75c.02-.5.15-.9.39-1.2.24-.3.56-.45.97-.45.22,0,.42.05.59.14.17.09.33.2.47.32s.27.23.39.32.25.13.38.13c.2,0,.37-.07.5-.22.13-.14.2-.34.21-.59h.74c0,.48-.14.86-.38,1.16-.24.3-.57.44-.97.44Z" fill="#4a17a1"/>
      <path d="M161.63,93.78h5.63v1.17h-7v-9.44h6.81v1.17h-5.43v7.09ZM161.51,89.58h4.96v1.15h-4.96v-1.15Z" fill="#4a17a1"/>
      <path d="M172.3,95.06c-.74,0-1.44-.11-2.11-.33-.67-.22-1.2-.51-1.59-.86l.51-1.05c.37.31.84.58,1.41.78.57.21,1.16.31,1.78.31.56,0,1.02-.06,1.37-.19.35-.13.61-.3.77-.52.17-.22.25-.47.25-.75,0-.32-.11-.58-.32-.78-.22-.2-.5-.36-.84-.48s-.72-.23-1.14-.32c-.41-.09-.83-.2-1.25-.32-.42-.12-.8-.28-1.14-.47-.34-.19-.62-.44-.83-.76-.21-.32-.32-.73-.32-1.23s.13-.93.39-1.34c.26-.41.67-.74,1.21-.98.55-.25,1.24-.37,2.09-.37.56,0,1.12.07,1.67.22.55.14,1.03.35,1.43.62l-.46,1.08c-.41-.27-.85-.46-1.31-.59-.46-.12-.91-.18-1.34-.18-.54,0-.99.07-1.34.2-.35.14-.6.32-.76.54-.16.22-.24.48-.24.75,0,.33.11.6.32.8.22.2.5.36.84.47.34.12.72.22,1.14.32.41.09.83.2,1.25.32.42.12.8.27,1.14.46s.62.44.83.75c.21.32.32.72.32,1.21s-.13.92-.4,1.33-.68.74-1.23.98c-.56.25-1.26.37-2.1.37Z" fill="#4a17a1"/>
    </g>
  </g>
  <g>
    <g>
      <path d="M546.46,112.59c-12.22,0-22.17-9.94-22.17-22.17s9.94-22.17,22.17-22.17,22.17,9.94,22.17,22.17-9.94,22.17-22.17,22.17ZM546.46,68.95c-11.84,0-21.47,9.63-21.47,21.47s9.63,21.47,21.47,21.47,21.47-9.63,21.47-21.47-9.63-21.47-21.47-21.47Z" fill="#4a17a1"/>
      <path d="M531.35,90.76c.94.05,1.79-.19,2.56-.71.5-.35.99-.71,1.51-1.04,1.22-.79,2.58-1.03,4.01-.95,1.31.08,2.47.54,3.52,1.31.41.3.84.6,1.27.87.68.42,1.45.51,2.24.53,1.08.03,2.02-.3,2.88-.92.55-.41,1.13-.8,1.72-1.12,1.04-.57,2.19-.73,3.36-.67,1.31.06,2.5.48,3.56,1.27.31.23.63.44.95.66.79.57,1.68.82,2.65.77v2.05c-.58-.02-1.16-.07-1.72-.21-.81-.2-1.53-.57-2.2-1.05-.36-.25-.71-.51-1.08-.75-.62-.41-1.29-.68-2.05-.71-.82-.03-1.65-.05-2.4.34-.47.25-.92.55-1.36.85-.57.39-1.12.8-1.77,1.05-.96.37-1.95.51-2.98.45-1.11-.07-2.15-.35-3.08-.97-.43-.28-.85-.58-1.27-.88-.55-.4-1.15-.71-1.83-.8-.48-.06-.98-.04-1.47-.04-.83,0-1.53.35-2.2.81-.57.4-1.14.8-1.74,1.14-.82.48-1.72.68-2.66.73-.15,0-.29.02-.44.02v-2.05Z" fill="#4a17a1"/>
      <path d="M561.57,85.93c-1.37.03-2.62-.33-3.74-1.12-.37-.26-.74-.52-1.11-.78-.78-.56-1.65-.81-2.61-.83-1.11-.02-2.1.29-2.99.95-.49.37-1,.72-1.53,1.02-1.01.57-2.11.77-3.26.76-1.41-.01-2.68-.44-3.82-1.26-.29-.21-.58-.4-.86-.61-.74-.54-1.56-.81-2.48-.85-1.15-.05-2.17.23-3.1.9-.58.42-1.17.82-1.8,1.17-.9.5-1.9.66-2.93.65v-2.02c1.04.04,1.96-.29,2.8-.89.55-.4,1.12-.78,1.71-1.12.97-.55,2.04-.73,3.15-.73,1.58,0,2.95.56,4.19,1.51.34.26.7.5,1.07.72.74.44,1.56.51,2.41.5.94-.01,1.77-.31,2.53-.85.48-.34.96-.68,1.46-.99,1.06-.67,2.24-.9,3.47-.88.93.01,1.83.19,2.68.59.61.29,1.14.68,1.69,1.07.54.38,1.08.75,1.73.93.44.12.88.14,1.33.15v2.02Z" fill="#4a17a1"/>
      <path d="M531.35,97.65c.93.03,1.79-.2,2.57-.73.59-.41,1.17-.83,1.78-1.2.89-.54,1.88-.76,2.91-.8,1.02-.04,2,.1,2.95.51.68.29,1.26.74,1.86,1.15.23.16.46.32.7.47.55.34,1.15.54,1.8.57.75.03,1.51.06,2.21-.24.31-.13.62-.29.9-.47.41-.26.79-.54,1.19-.82,1.06-.75,2.25-1.12,3.55-1.16,1.22-.04,2.4.17,3.46.8.55.32,1.07.71,1.6,1.07.52.36,1.06.66,1.68.76.35.06.71.06,1.07.09v2.02c-1.44.03-2.74-.38-3.91-1.23-.28-.2-.57-.39-.85-.6-.95-.72-2.03-.95-3.21-.88-.85.05-1.61.34-2.3.82-.51.36-1.01.73-1.54,1.05-1.22.74-2.55.93-3.95.83-1.17-.09-2.22-.48-3.17-1.15-.4-.28-.8-.57-1.21-.84-.61-.41-1.28-.65-2.02-.69-.89-.05-1.76,0-2.56.42-.29.15-.55.34-.82.51-.49.32-.96.68-1.47.97-.99.58-2.07.82-3.21.79v-2.02Z" fill="#4a17a1"/>
    </g>
    <g>
      <path d="M574.74,96.87v-9.44h1.13l4.33,7.13h-.61l4.27-7.13h1.13v9.44s-1.31,0-1.31,0v-7.4s.3,0,.3,0l-3.8,6.26h-.63l-3.83-6.26h.34v7.4h-1.32Z" fill="#4a17a1"/>
      <path d="M591.9,96.97c-1.27,0-2.27-.35-2.99-1.07-.73-.71-1.09-1.75-1.09-3.12v-5.37h1.38v5.31c0,1.05.24,1.82.71,2.31.47.49,1.14.73,2.01.73s1.55-.24,2.02-.73c.47-.49.71-1.25.71-2.31v-5.31h1.34v5.37c0,1.37-.36,2.41-1.08,3.12-.72.71-1.72,1.07-3,1.07Z" fill="#4a17a1"/>
      <path d="M598.81,96.87v-9.44h1.38v8.27h5.23v1.17h-6.6Z" fill="#4a17a1"/>
      <path d="M608.92,96.87v-8.27h-3.31v-1.17h7.98v1.17h-3.31v8.27h-1.37Z" fill="#4a17a1"/>
      <path d="M615.09,96.87v-9.44h1.38v9.44h-1.38Z" fill="#4a17a1"/>
      <path d="M623.68,96.97c-.74,0-1.41-.12-2.03-.36-.62-.24-1.16-.58-1.61-1.01-.46-.44-.81-.95-1.07-1.53-.26-.58-.39-1.23-.39-1.93s.13-1.34.39-1.93c.26-.58.62-1.09,1.08-1.53.46-.44,1-.77,1.62-1.01.62-.24,1.3-.36,2.03-.36s1.43.12,2.06.37c.63.25,1.17.61,1.61,1.1l-.9.85c-.37-.38-.78-.66-1.24-.84-.46-.18-.95-.28-1.48-.28s-1.04.09-1.51.27c-.46.18-.87.43-1.21.75-.34.32-.6.71-.79,1.15s-.28.93-.28,1.45.09,1,.28,1.45.45.83.79,1.15c.34.32.74.58,1.21.75.46.18.97.27,1.51.27s1.02-.09,1.48-.28c.46-.18.87-.47,1.24-.86l.9.85c-.44.49-.98.85-1.61,1.11-.63.25-1.32.38-2.08.38Z" fill="#4a17a1"/>
      <path d="M627.88,96.87l4.37-9.44h1.36l4.38,9.44h-1.45l-3.9-8.69h.55l-3.9,8.69h-1.42ZM629.74,94.51l.37-1.08h5.43l.4,1.08h-6.21Z" fill="#4a17a1"/>
      <path d="M643.43,96.97c-1.27,0-2.27-.35-2.99-1.07-.73-.71-1.09-1.75-1.09-3.12v-5.37h1.38v5.31c0,1.05.24,1.82.71,2.31.47.49,1.14.73,2.01.73s1.55-.24,2.02-.73c.47-.49.71-1.25.71-2.31v-5.31h1.34v5.37c0,1.37-.36,2.41-1.08,3.12-.72.71-1.72,1.07-3,1.07Z" fill="#4a17a1"/>
      <path d="M650.34,96.87v-9.44h4.07c1.03,0,1.94.2,2.72.59.79.4,1.4.95,1.83,1.66.44.71.66,1.53.66,2.47s-.22,1.76-.66,2.47-1.05,1.26-1.83,1.66c-.79.4-1.69.59-2.72.59h-4.07ZM651.72,95.69h2.61c.8,0,1.49-.15,2.08-.45.58-.3,1.04-.71,1.36-1.25.32-.53.48-1.15.48-1.85s-.16-1.33-.48-1.86c-.32-.53-.78-.94-1.36-1.24-.58-.3-1.28-.45-2.08-.45h-2.61v7.09Z" fill="#4a17a1"/>
      <path d="M660.26,96.87l4.37-9.44h1.36l4.38,9.44h-1.45l-3.9-8.69h.55l-3.9,8.69h-1.42ZM662.13,94.51l.37-1.08h5.43l.4,1.08h-6.21Z" fill="#4a17a1"/>
      <path d="M671.82,96.87v-9.44h1.38v8.27h5.23v1.17h-6.6Z" fill="#4a17a1"/>
    </g>
  </g>
  <g>
    <path d="M546.46,44.34c-12.22,0-22.17-9.94-22.17-22.17s9.94-22.17,22.17-22.17,22.17,9.94,22.17,22.17-9.94,22.17-22.17,22.17ZM546.46.7c-11.84,0-21.47,9.63-21.47,21.47s9.63,21.47,21.47,21.47,21.47-9.63,21.47-21.47-9.63-21.47-21.47-21.47Z" fill="#4a17a1"/>
    <path d="M538.24,15.5c3.11-.3,5.6,1.33,7.59,3.55,2.02,2.26,3.17,5.48,6.21,6.76,4.63,1.96,7.98-3.94,4.27-6.85-2.47-1.94-5.55-.21-7.24,1.88l-1.55-2.27c2.31-2.42,5.61-3.99,8.92-2.59,5.4,2.29,5.46,9.96.09,12.33-3.59,1.58-6.99-.31-9.38-2.97-2.06-2.28-3.27-5.62-6.37-6.86-4.59-1.84-7.85,4-4.18,6.89,2.49,1.95,5.53.19,7.24-1.88l1.55,2.27c-2.58,2.78-6.55,4.27-10,2.01-5.2-3.4-3.21-11.69,2.85-12.27" fill="#4a17a1"/>
    <g>
      <path d="M575.47,27.41v-9.44h1.13l4.33,7.13h-.61l4.27-7.13h1.13v9.44s-1.31,0-1.31,0v-7.4s.3,0,.3,0l-3.8,6.26h-.63l-3.83-6.26h.34v7.4h-1.32Z" fill="#4a17a1"/>
      <path d="M592.99,27.51c-.74,0-1.42-.12-2.05-.36-.63-.24-1.17-.58-1.63-1.02-.46-.44-.82-.95-1.08-1.53-.26-.58-.39-1.22-.39-1.92s.13-1.33.39-1.92c.26-.58.62-1.09,1.08-1.53.46-.44,1-.78,1.63-1.02s1.31-.36,2.05-.36,1.42.12,2.04.36,1.17.58,1.63,1.01c.46.44.82.95,1.07,1.54s.38,1.23.38,1.92-.13,1.34-.38,1.93-.61,1.09-1.07,1.53c-.46.44-1,.77-1.63,1.01s-1.31.36-2.04.36ZM592.98,26.31c.54,0,1.04-.09,1.5-.27.46-.18.85-.43,1.19-.76s.6-.71.79-1.15c.19-.44.28-.92.28-1.44s-.09-1-.28-1.44-.45-.82-.79-1.15c-.34-.33-.73-.59-1.19-.77-.46-.18-.95-.27-1.5-.27s-1.03.09-1.48.27c-.46.18-.85.44-1.19.77-.34.33-.6.72-.79,1.15s-.28.92-.28,1.44.09,1,.28,1.44c.19.44.45.82.79,1.15s.74.58,1.19.76c.46.18.95.27,1.48.27Z" fill="#4a17a1"/>
      <path d="M602.13,27.41v-8.27h-3.31v-1.17h7.98v1.17h-3.31v8.27h-1.37Z" fill="#4a17a1"/>
      <path d="M612.66,27.51c-.74,0-1.42-.12-2.05-.36-.63-.24-1.17-.58-1.63-1.02-.46-.44-.82-.95-1.08-1.53-.26-.58-.39-1.22-.39-1.92s.13-1.33.39-1.92c.26-.58.62-1.09,1.08-1.53.46-.44,1-.78,1.63-1.02s1.31-.36,2.05-.36,1.42.12,2.04.36,1.17.58,1.63,1.01c.46.44.82.95,1.07,1.54s.38,1.23.38,1.92-.13,1.34-.38,1.93-.61,1.09-1.07,1.53c-.46.44-1,.77-1.63,1.01s-1.31.36-2.04.36ZM612.65,26.31c.54,0,1.04-.09,1.5-.27.46-.18.85-.43,1.19-.76s.6-.71.79-1.15c.19-.44.28-.92.28-1.44s-.09-1-.28-1.44-.45-.82-.79-1.15c-.34-.33-.73-.59-1.19-.77-.46-.18-.95-.27-1.5-.27s-1.03.09-1.48.27c-.46.18-.85.44-1.19.77-.34.33-.6.72-.79,1.15s-.28.92-.28,1.44.09,1,.28,1.44c.19.44.45.82.79,1.15s.74.58,1.19.76c.46.18.95.27,1.48.27Z" fill="#4a17a1"/>
      <path d="M619.89,27.41v-9.44h3.76c.85,0,1.57.13,2.17.39.6.26,1.06.64,1.38,1.13.32.5.48,1.08.48,1.77s-.16,1.27-.48,1.76c-.32.49-.78.87-1.38,1.13-.6.26-1.32.39-2.17.39h-3.01l.62-.62v3.49h-1.38ZM621.27,24.05l-.62-.66h2.96c.88,0,1.55-.19,2.01-.56s.68-.9.68-1.57-.23-1.2-.68-1.56-1.12-.55-2.01-.55h-2.96l.62-.67v5.58ZM626.34,27.41l-2.45-3.43h1.48l2.48,3.43h-1.5Z" fill="#4a17a1"/>
      <path d="M635,26.23h5.63v1.17h-7v-9.44h6.81v1.17h-5.43v7.09ZM634.88,22.04h4.96v1.15h-4.96v-1.15Z" fill="#4a17a1"/>
      <path d="M647.18,27.51c-.74,0-1.41-.12-2.03-.36-.62-.24-1.16-.58-1.61-1.01-.46-.44-.81-.95-1.07-1.53-.26-.58-.39-1.23-.39-1.93s.13-1.34.39-1.93c.26-.58.62-1.09,1.08-1.53.46-.44,1-.77,1.62-1.01.62-.24,1.3-.36,2.03-.36s1.43.12,2.06.37c.63.25,1.17.61,1.61,1.1l-.9.85c-.37-.38-.78-.66-1.24-.84-.46-.18-.95-.28-1.48-.28s-1.04.09-1.51.27c-.46.18-.87.43-1.21.75-.34.32-.6.71-.79,1.15-.19.44-.28.93-.28,1.45s.09,1,.28,1.45c.19.45.45.83.79,1.15.34.32.74.57,1.21.75.46.18.97.27,1.51.27s1.02-.09,1.48-.28c.46-.18.87-.47,1.24-.86l.9.85c-.44.49-.98.85-1.61,1.11-.63.25-1.32.38-2.08.38Z" fill="#4a17a1"/>
    </g>
  </g>
</svg>