<?xml version="1.0" encoding="UTF-8"?>
<svg id="uuid-548f0f10-f1e1-4505-b5be-2b1fc372dc21" data-name="Layer 1" xmlns="http://www.w3.org/2000/svg" viewBox="0 0 177.79 138">
  <path d="M66.75,138s-.02,0-.03,0l-.52-.06s-.03,0-.05-.01l-.51-.16s-.03-.01-.05-.02l-.47-.25s-.03-.02-.04-.03l-.42-.34s-.02-.02-.03-.03l-.35-.4s-.02-.03-.03-.05l-.25-.46s0-.02-.01-.02l-.3-.63-.61-1.16-.69-1.14-.77-1.13-.84-1.11-.92-1.1-1-1.08-.54-.54h0s-9.44-9.27-9.44-9.27l-.15.04s-.03,0-.04,0l-.52.05s-.03,0-.05,0l-.54-.04s-.03,0-.04,0l-.56-.14-.61-.24-.61-.32-.6-.41-.6-.49-.58-.57-.58-.62-.57-.7-.55-.75-.53-.8-.51-.86-.5-.9-.47-.94-.59-1.36-7.91-7.76-.14.04s-.03,0-.05,0l-.52.05s-.03,0-.04,0l-.54-.04s-.03,0-.04,0l-.56-.14-.61-.24-.6-.32-.61-.41-.6-.49-.59-.57-.58-.63-.57-.7-.55-.75-.53-.8-.52-.86-.49-.9-.47-.94-.59-1.35-11.32-11.11-.72-.69-1.16-1.03-1.24-1.01-1.32-.98-1.38-.97-1.45-.92-1.52-.91-.81-.45s-.05-.03-.06-.04h0s-.27-.18-.27-.18l-.31-.26s-.02-.02-.03-.03l-.25-.28-.24-.34-.19-.36s-.01-.03-.02-.04l-.12-.36-.09-.39s0-.03,0-.04v-.28S0,72.47,0,72.45v-8.28H0v-.02s0-.05,0-.07v-.12s0-.05.01-.08l.09-.31s.01-.03.02-.05l.16-.31s.02-.04.03-.05l.24-.28s.03-.03.04-.04l.35-.27s.03-.02.04-.03l.41-.21.26-.1s.06-.02.09-.03l.35-.1.28-.05s0,0,.01,0l2.24-.37v-.05s.02-.04.03-.07l.04-.09s.02-.03.03-.05l.1-.14s.03-.03.04-.05l.25-.21s.02-.02.03-.02c0,0,.02-.01.03-.02l.17-.09s.05-.03.08-.04c0,0,0,0,0,0l.59-.23.42-.25.34-.28.21-.25.28-.97s0-.02,0-.03v-20.34s0-.05.01-.08v-.32s.1-.8.1-.8l.18-.8.3-.8.39-.78.48-.75.58-.72.67-.68.74-.63.82-.57.88-.52.93-.47.98-.4.53-.19s0,0,.01,0l12.06-4.13v-.05s.38-1.25.38-1.25l.44-1.25.52-1.24.58-1.24.66-1.21.72-1.2.78-1.17.84-1.14.89-1.1.95-1.07.99-1.02,1.04-.98,1.08-.93,1.11-.87,1.15-.82,1.18-.75,1.19-.69,1.22-.63,1.23-.56,1.24-.48,1.24-.41,1.24-.33,1.24-.26,1.22-.18,1.22-.1,1.19-.02,1.17.05,1.14.14,1.11.22,1.06.29,1.02.37.97.44.92.51.87.6.81.66.32.3s0,0,0,0h0s0,0,0,0c0,0,0,0,0,0l.09.09,3.99,3.91L99.52,1.07s0,0,.01,0l.72-.24,1.06-.27,1.08-.22,1.1-.17,1.11-.11L105.74,0h1.12s1.12.06,1.12.06l1.11.12,1.1.17,1.08.23,1.05.29,1.01.34.98.39.93.45.86.51.81.54.73.59.4.37s0,0,0,0h0s30.14,29.58,30.14,29.58l.15-.04s.03,0,.05,0l.51-.05s.03,0,.05,0l.54.04s.03,0,.04,0l.56.14.61.24.6.32.61.41.6.49.59.57.58.63.57.7.55.75.53.8.52.86.49.9.47.94.6,1.35,7.91,7.76.14-.04s.03,0,.05,0l.52-.05s.03,0,.05,0l.54.04s.03,0,.04,0l.56.14.61.24.61.32.6.42.6.47.59.57.58.63.57.7.55.75.53.8.51.86.5.9.47.94.44.98.41,1,.38,1.02.35,1.04.3,1.04.27,1.05.23,1.04.18,1.02.14,1.01.1.98.05,1.44h0v.02s0,0,0,.01v.66s-.07.86-.07.86l-.11.82-.16.75-.21.7-.26.63-.31.56-.34.48s-.02.02-.03.04l-.38.37-.44.32s-.03.02-.04.02l-.04.02s0,0-.01,0l-.44.22s-.04.02-.07.02h-.03s-2.64.91-2.64.91c-.02,0-.04.01-.06.01h0s-.02,0-.03,0l-.3.09s-.03,0-.05,0l-.27.03v2.09h0s0,.4,0,.4l.08.78.27,1.07.33.84.34.66.31.49.57.73.14.16.94.87.74.52s.02.01.03.02c0,0,0,0,0,0l.06.04s.04.02.06.04l.08.07s.04.04.05.06l.11.11s.04.04.05.07l.13.18s.01.02.02.03l.07.14.07.18s.02.06.02.09v.15l.84.49.83.46s.02.01.03.02l.33.22s.02.02.03.03l.28.26s.03.03.04.04l.2.29s.02.03.03.05l.13.32s.01.04.02.06l.05.34s0,.03,0,.04h0v8.25h0v.02s0,.03,0,.05h0s-.04.45-.04.45c0,.02,0,.04,0,.05l-.14.49s0,.03-.01.04l-.21.45s-.02.03-.02.04l-.29.41s-.02.03-.03.04l-.37.35s-.02.02-.03.03l-.41.28s-.03.02-.04.02l-.46.21s-.03.01-.05.02l-.48.12s-.02,0-.03,0l-1.41.22-2.13.39-2.09.42-2.07.47-2.03.52-1.98.56-1.95.61-1,.33s0,0,0,0l-13.63,4.66-.53,1.11-.65,1.21-.72,1.19-.78,1.16-.84,1.14-.89,1.1-.95,1.07-.99,1.02-1.03.98-1.08.93-1.11.88-1.14.81-1.17.76-1.2.7-1.2.63-1.23.56-1.23.49-1.23.42-1.23.34-1.23.27-1.21.19-1.21.11-1.17.04-1.16-.05-1.13-.12-1.09-.2-1.06-.28-1.01-.35-.96-.42-.72-.4s-.03-.02-.05-.03c0,0-.01,0-.02-.01l-.61-.38-.89-.67-.7-.64s-.03-.02-.05-.04l-1.57-1.53-31.13,10.64-1.25.44-1.85.7-1.8.74-1.74.77-1.69.82-1.63.85-1.56.88-.79.47s-.02,0-.03.01l-.47.24s-.03.01-.05.02l-.51.14s-.03,0-.05,0l-.53.04s-.01,0-.02,0ZM66.28,137.41l.47.05.47-.04.45-.12.43-.21.18-.14.14-.23.06-.22-.17.07s-.03.01-.04.01l-.52.14-.6.08h-.6s-.6-.05-.6-.05l-.57-.13-.51-.2s-.03-.01-.04-.02l-.19-.11.05.09.31.36.38.31.42.22.46.14ZM69.09,136.2l-.03.29s0,.03,0,.05l1.44-.81,1.64-.86,1.7-.83,1.75-.78,1.81-.75,1.86-.71,1.25-.45s0,0,0,0l.05-.02.1-.1.11-.2.06-.28-1.29.46-1.63.63-1.6.66-1.56.69-1.51.72-1.47.76-1.42.78-1.26.74ZM65.11,135.92l.46.18.5.12.53.05h.54s.54-.08.54-.08l.29-.08v-7.69l-.19.05-.6.08h-.6s-.6-.05-.6-.05l-.57-.13-.51-.2s-.03-.01-.04-.02l-.4-.24s-.03-.02-.05-.03l-.06-.06v7.43l.14.21.26.25.35.21ZM68.5,128.27v7.65l.07-.04v-7.65l-.07.03ZM69.1,127.95v7.62l.98-.58,1.43-.79,1.48-.77,1.52-.73,1.57-.7,1.61-.67,1.64-.64,1.51-.53v-8.58l-1.22.44-1.22.47-1.9.8-1.84.85-1.77.9-1.66.92-.13.21v.44s0,.02,0,.03c0,.04-.02.08-.04.11-.02.03-.04.06-.07.08,0,0-.02.01-.03.02l-1.86,1.08ZM58.31,126.81l.9.91.92,1.03.85,1.03.8,1.06.73,1.07.67,1.09.62,1.14v-7l-.74-1.51s0,0,0,0c0,0,0,0,0,0-.01-.02-.02-.04-.02-.06,0-.02,0-.04,0-.07l-.02-.56-.06-.25-.83-1.45-.95-1.43-1.72-2.17-.77-.86-.36-.37v8.38ZM81.38,130.57l-.02.24s0,.03,0,.04l-.06.25,30.11-10.3s0,0-.01-.01l-.39-.36-29.63,10.14ZM81.39,121.22v8.77l29.18-9.99-2.91-2.86-.52-.28-.96-.6-.87-.67-.39.78-.54.94-.61.9-.66.87-.71.84-.78.8-.81.74-.84.69-.88.64-.9.58-.94.51-.95.44-.96.38-.97.3-.96.22-.95.15-.93.07h-.91s-.89-.1-.89-.1l-.85-.17-.81-.24-.77-.33-.58-.32s-.02-.01-.03-.02c-.02-.01-.05-.03-.07-.05l-.65-.45-.52-.46s-.04-.03-.06-.04l-1.63-1.59s-.02-.02-.03-.03l-.29-.34s-.01-.01-.02-.02l-.4-.37s-.03-.02-.05-.04l-.3-.29-.14-.05-.78-.4-.73-.48-.67-.55-.59-.64-.51-.72-.25-.45v3.47l2.16.15s.02,0,.04,0c.02,0,.03,0,.05.01.02,0,.05.02.07.04h0s.05.05.07.08h0s.02.03.02.05c0,.02,0,.03.01.05,0,.01,0,.03,0,.04ZM65.11,127.68l.46.18.5.12.53.05h.54s.54-.08.54-.08l.26-.07-.1-.24-.3.08s-.03,0-.04,0l-.51.05h-.56s-.53-.09-.53-.09c-.01,0-.03,0-.04,0l-.46-.15s-.03-.01-.04-.02l-.38-.2s-.03-.02-.05-.03l-.3-.25s-.04-.04-.05-.06l-.07-.11-.08.06-.07.1.13.19.26.25.35.21ZM68.34,127.47l.09.24.1-.05-.13-.22-.06.03ZM68.87,127.16l.13.23,1.39-.81-.17-.19-1.34.78ZM66,127.17l.47.08h.49s.45-.04.45-.04l.45-.12s0,0,0,0l.08-.03s.03-.01.05-.02l.28-.13s0,0,.01,0l1.83-1.07.11-.39s0,0,0,0l.06-.37-.08-.22-.19-.28-.28-.26-.38-.23-.47-.2-.51-.15-.55-.09-.59-.04-.57.03-.57.09-.77.24-.24.11-.21.13-.36.28-.14.15-.18.29-.04.1.7,1.42.16.24.24.2.33.17.41.14ZM63.63,125.56l.48.94.15-.11-.46-.94s0,0-.01,0l-.16.1ZM50.01,118.66l7.76,7.62v-8.51s0-.03,0-.04c0-.03.01-.05.02-.08h0s0,0,0,0h0s0,0,0,0c0,0,0,0,0,0,0,0,0,0,0,0,0,0,0,0,0,0h0s0-.02.01-.02c.02-.03.04-.05.06-.07.02-.01.04-.03.06-.04,0,0,0,0,0,0,.02,0,.04-.02.07-.02.03,0,.05,0,.08,0,0,0,0,0,0,0,.02,0,.03,0,.05.01l1.09.31v-2.99l-.24.46-.35.51s-.02.03-.03.04l-.39.39s-.02.02-.03.03l-.42.3s-.03.02-.05.03l-.47.2s-.03.01-.05.02l-.49.1s-.04,0-.05,0h-.53s-.03,0-.05,0l-.58-.11-2.19.75s-.05.02-.07.02c-.02,0-.03,0-.05.01l-.34.09s-.03,0-.04,0l-.32.03-.08.06s-.02.02-.04.02l-.45.23s-.04.02-.06.02h0s-.03.01-.05.02h-.03s-1.76.61-1.76.61ZM111,113.26l.05,1.2.13,1.15.21,1.1.3,1.06.38,1.01.47.95.54.89.61.83.69.75.76.7.83.6.88.54.95.45,1.01.38,1.06.29,1.1.21,1.14.12,1.18.04,1.21-.05,1.24-.14,1.25-.23,1.26-.31,1.27-.39,1.27-.47,1.26-.56,1.25-.64,1.25-.71,1.22-.78,1.19-.85,1.15-.91,1.11-.97,1.07-1.02,1.02-1.08.96-1.12.89-1.17.85-1.2.76-1.23.71-1.25.62-1.26.55-1.28.47-1.28.38-1.28.3-1.27.21-1.26.13-1.24.05-1.2-.05-1.2-.13-1.15-.21-1.1-.3-1.06-.38-1.01-.47-.95-.54-.89-.61-.83-.69-.75-.76-.69-.83-.62-.88-.54-.95-.45-1.01-.38-1.06-.29-1.1-.21-1.14-.12-1.18-.04-1.21.05-1.24.14-1.25.23-1.26.31-1.27.39-1.27.48-1.27.55-1.25.64-1.25.72-1.22.78-1.19.85-1.15.91-1.11.97-1.07,1.02-1.02,1.08-.96,1.13-.89,1.16-.85,1.2-.76,1.23-.71,1.25-.62,1.26-.55,1.29-.47,1.28-.38,1.28-.3,1.27-.21,1.26-.13,1.24-.05,1.2ZM70.83,125.11h.11s.02,0,.02,0l.05-.5-.02-.63-.2-1.32-.36-1.4.12.58.15.88.12,1.09.02.63s0,0,0,.01l-.02.54s0,.02,0,.03c0,.02,0,.05,0,.07ZM70.58,119.96l.42,1.29.33,1.33.2,1.37.02.69-.02.21,3.03-1.41,3.53-1.44.27-.81-.26-.13-.5-.32-2.3-1.68-.87-.6-.93-.59-1-.58-1.06-.52-.82-.31-.85-.23-1.18-.22.53.88.76,1.48.68,1.57s0,.01,0,.02h0ZM84.46,117.62l.04.89.13.83.2.8.29.74.36.7.43.63.5.57.57.49.63.43.69.35.75.29.79.19.84.11.87.04.9-.05.92-.14.94-.21.95-.3.94-.37.94-.46.92-.53.91-.59.86-.66.84-.71.8-.77.74-.82.69-.86.63-.89.55-.92.5-.94.42-.95.33-.99s0-.02,0-.02l.08-2.08h0s0-1.14,0-1.14c0-.01,0-.03,0-.04,0-.02,0-.04.02-.06l-.05-1.68-.06-1.39s0-.02,0-.02v-.05l-.33-.69-.41-.65-.48-.58-.53-.51-.63-.45-.68-.38-.72-.29-.79-.23-.82-.13-.86-.06-.9.02-.92.11-.94.19-.94.27-.95.35-.94.44-.93.5-.92.58-.88.64-.85.69-.81.76-.76.8-.71.85-.64.89-.59.91-.52.94-.44.94-.37.96-.29.95-.2.94-.12.93-.04.89ZM63.53,124.02l.2.05s.03,0,.04.01l.04.02.04-.14.36-1.06.76-1.92.3-.68s0,0,0-.01l.21-.48-.43.77-.59,1.18-.55,1.22-.24.61-.14.44ZM67.24,123.04l.64.04.61.1.58.17.52.22s.02.01.04.02l.42.26s.03.02.04.03l.23.21v-.22s-.13-1.05-.13-1.05l-.15-.86-.19-.86-.23-.91-.28-.92-.32-.9-.38-.93-.4-.88-.2-.38-.31.49-.55.93-.54.99-.5,1.03-.36.82v2.77l.2-.06.63-.1.63-.03ZM65.24,121.72l-.53,1.36-.25.72.12-.09.26-.15.4-.17v-1.67ZM59.91,119.31l1.87,2.24,1.35,1.95.03-.1.25-.64.56-1.24.6-1.2.63-1.14s0,0,0-.01c0,0,0,0,0,0l.86-1.34.89-1.23.6-.76-.31-.04-.73-.08-.9-.03-.78.08-1.19.32-1.01.42-.89.49-.66.43-1.09.79s-.03.02-.04.03l-.18.08.11.74.02.24ZM84.83,121.76l.35.5.52.59.31.28-.53-.59-.47-.68-.39-.75-.31-.8-.22-.85-.13-.89-.03-.63h-.04s-.03,0-.05,0h-.11s-.02-.01-.03-.01l.03.51.13.87.21.82.29.78.47.87ZM112.14,120.37l.2.31.64.86.71.77.84.75-.54-.49-.73-.79-.64-.88-.57-.93-.49-.99-.4-1.05-.31-1.1-.22-1.14-.13-1.19-.04-.92-.23-.02.03.81.14,1.18.22,1.14.31,1.09.39,1.03.48.98.34.59ZM78.88,121.33l-.15.45,1.09-.38-.94-.06ZM83.24,120.21l.36.52.21.24-.26-.69-.23-.88-.13-.92-.05-.85-1-.99v.25s.14.87.14.87l.21.82.3.76.45.86ZM71.68,116.27l1.09.53,1.03.59.95.6,1.5,1.06,1.68,1.23.52.33v-4.51l-.35-1.43s0-.03,0-.04l-.09-1.25-.79.23-1.17.25-1.2.2-1.22.14-1.24.07h-1.25s-1.24-.05-1.24-.05l-1.23-.12-1.2-.18-1.18-.24-1.13-.3-1.08-.35-1.04-.41-.97-.46-.89-.51-.82-.56-.32-.26-.05,1.01-.21,1.38v4.52l1.38-.98.35-.22.92-.51,1.07-.45,1.24-.34s.02,0,.03,0h0s0,0,0,0c0,0,.02,0,.03,0l.84-.08.96.03.76.08.78.11s.01,0,.02,0l.9.15.89.17.89.24.85.32s.01,0,.01,0c0,0,0,0,0,0h0s0,0,.01,0ZM110.58,118.83l.2.32.32.43-.27-.56-.41-1.07-.32-1.13-.22-1.18-.14-1.22-.05-1.14-1.01-1,.02.57.14,1.18.22,1.13.3,1.09.4,1.04.48.97.34.59ZM79.06,116.22l.23.55.4.71.47.67.54.59.24.2s0,0,0,0l-.38-.41-.66-.9s0-.01-.01-.02h0s-.32-.59-.32-.59l-.34-.78-.11-.02h-.06ZM59.06,118.43l.23.24-.04-.27-.3-.08.11.12ZM81.33,118.57l.08.08-.28-.75-.23-.88-.13-.93-.05-.85-1.45-1.42.04.41.06.4.14.68.19.66.34.81.41.72.51.68.36.39ZM50.98,113.03v.51s-.09.87-.09.87l-.13.8-.18.73-.25.66-.28.57s-.01.02-.02.04l-.33.47s-.02.02-.02.03l-.36.38s-.03.03-.04.04l-.41.28s-.03.02-.04.02l-.27.12h.04s.35-.1.35-.1c.02,0,.03-.01.05-.02h.02s.35-.18.35-.18l.36-.28.33-.36.31-.47.26-.54.22-.63.17-.71.12-.78.07-.84.02-.59h-.04s-.2-.02-.2-.02ZM47.34,118.18l.45.02.42-.08.38-.17.36-.25.32-.34.3-.43.26-.53.23-.61.17-.68.12-.76.08-.83.02-.89-.02-.96-.08-.98-.13-1.03-.18-1.05-.24-1.08-.27-1.08-.32-1.09-.35-1.07-.4-1.06-.43-1.04-.47-1-.5-.96-.52-.91-.54-.85-.55-.79-.56-.72-.57-.64-.57-.55-.56-.47-.55-.38-.54-.29-.49-.19-.48-.1h-.45s-.41.07-.41.07l-.39.16-.35.26-.33.33-.3.44-.26.52-.22.6-.17.69-.13.76-.07.83-.03.88.03.95.07.99.14,1.02.18,1.06.23,1.07.27,1.09.31,1.08.36,1.08.39,1.06.44,1.03.46,1.01.5.96.52.9.54.86.56.78.57.72.56.64.57.56.57.47.56.38.53.28.49.19.48.1ZM81.28,115.54l.03.51.13.88.21.82.11.29-.16-.83-.08-.9v-.43s-.01-.02-.01-.03v-.3s-.22-.02-.22-.02ZM51.76,112.94l-.02.74-.07.87-.13.82-.18.75-.24.68-.29.6-.33.52,1.02-.35s.06-.03.09-.04h.06s.36-.19.36-.19l.36-.28.34-.36.29-.45.26-.56.22-.63.17-.71.12-.78.08-.84.02-.52-2.12.73ZM105.78,114.54l3.08,3.03-.46-.93-.41-1.08-.32-1.13-.22-1.17-.14-1.22-.05-1.15-.99-.98v.07s0,.08-.02.11h0s0,1.05,0,1.05c0,0,0,.02,0,.03l-.08,2.1s0,.02,0,.03v.16s0,0,0,0c0,.05,0,.09-.03.14l-.34.96ZM83.81,117.4h.06s.06,0,.06,0l.03-.72.13-.98.21-.98.3-.99.38-1,.45-.98.53-.97.6-.94.66-.91.73-.88.78-.82.83-.78.88-.72.9-.66.95-.6.96-.51.97-.45.99-.36.98-.28.98-.2.96-.11.95-.02.91.06.88.14.84.24.78.32.73.41.67.48s.02.02.03.02l.26.25s-.02-.04-.02-.07l-.52-.49-.8-.57-.56-.3-.78-.31-.83-.23-.87-.14-.92-.06-.94.04-.98.12-1,.21-.99.31-.99.37-.98.46-.95.54-.95.6-.9.67-.88.73-.83.78-.79.84-.72.88-.66.92-.61.95-.52.97-.46.99-.38.98-.29.99-.21.98-.12.96-.04.78.12.04ZM53.59,116.54v.02s-.29.38-.29.38l.18-.09.36-.28.33-.36.31-.47.26-.54.22-.63.17-.71.12-.78.07-.84.02-.59h-.04s-.2-.02-.2-.02v.51s-.09.87-.09.87l-.13.8-.18.73-.25.66-.28.57s-.01.02-.02.04l-.33.47-.22.26ZM82.12,115.86l1.05,1.04.02-.37.13-1,.22-1.02.3-1.03.39-1.02.47-1.02.54-1,.62-.98.68-.94.74-.9.81-.87.85-.8.9-.75.93-.69.98-.62.98-.55,1.02-.47.62-.24-1.15-1.13-.84.32-.98.45-.96.54-.94.6-.92.67-.88.73-.83.79-.78.84-.73.88-.66.92-.61.95-.53.96-.46.99-.37.99-.3.99-.21.98-.12.97v.23c.05.03.11.07.14.14.06.14,0,.29-.14.36h-.03s0,.09,0,.09ZM55.87,111.53l-.02.74-.07.87-.13.82-.18.75-.24.68-.29.6-.33.52.75-.26s.05-.02.07-.02l.97-.33s.01,0,.02,0h.02s.35-.16.35-.16l.36-.26.34-.34.3-.42.27-.54.23-.6.18-.67.14-.7.12-1.12.02-.53-2.85.97ZM58.93,113.21l-.14.54-.25.65-.29.58s-.01.02-.02.04l-.33.46s-.02.02-.03.03l-.37.38s-.02.02-.04.03l-.41.29s-.03.02-.05.03l-.24.11.27-.06.41-.18.37-.27.35-.35.32-.47.28-.55.23-.63.15-.55-.07-.04-.18-.04ZM78.62,114.57l.28,1.14h.05s.03-.02.04-.02h.07s-.11-.43-.11-.43l-.1-.54-.1-.84-.02-.58-.19-.03h0s.1,1.3.1,1.3ZM107.81,111.19l.03.81.14,1.18.22,1.13.38,1.27-.04-.13-.24-1.09-.16-1.12-.08-1.15v-.61s-.01,0-.01,0v-.26s-.03,0-.03,0c-.02,0-.03,0-.05,0h-.11s-.02-.01-.04-.02ZM105.54,115.08l.12.11-.12-.12h0ZM81.26,114.98l.12.03h.08s.04,0,.04,0l.04-.77.14-1.02.23-1.03.33-1.05.41-1.04.5-1.03.58-1,.66-.99.72-.94.79-.9.85-.85.89-.78.95-.72.99-.64.99-.57,1.03-.49.84-.32-.04-.13-.05-.11-.81.31-.98.46-.95.53-.95.61-.91.67-.88.72-.83.79-.79.84-.72.88-.66.92-.61.95-.53.96-.46.99-.38.99-.29.99-.21.98-.12.96-.04.78ZM79.26,113.06l1.49,1.46.02-.37.13-1,.22-1.02.3-1.03.39-1.03.47-1.02.54-1,.62-.98.68-.94.74-.9.81-.87.85-.81.91-.75.93-.69.98-.62.99-.54,1.02-.47,1.01-.39s.02,0,.03-.01l1.01-.31,1.04-.22,1.02-.13,1-.03.97.05.93.15.89.25.47.19-.25-.24-.66-.53-.73-.45-.79-.35-.84-.27-.9-.16-.95-.08-.98.02-1.01.13-1.03.21-1.04.31-1.04.4-1.03.49-1,.57-.98.65-.96.72-.91.78-.86.85-.8.9-.74.95-.66.98-.59,1.02-.51,1.02-.43,1.04-.34,1.03-.22.91-.19,1.29-.04.84ZM60.02,110.15l.62.51.78.53.86.49.93.45,1,.4,1.05.34,1.11.29,1.15.23,1.18.18,1.2.12,1.22.06h1.22s1.22-.08,1.22-.08l1.19-.14,1.18-.2,1.14-.25.91-.26.11-1.46.36-1.7v-14.73l-.73.22-1.14.28-1.18.23-1.2.16-1.23.1-1.23.04-1.24-.03-1.22-.08-1.21-.15-1.19-.21-1.14-.27-1.11-.32-1.06-.38-.99-.43-.93-.48-.86-.54-.77-.57-.24-.21v14.5l.21,1.77.07,1.57ZM110.28,113.02l.16.02h.03s.04-1.02.04-1.02l.13-1.27.22-1.3.31-1.31.39-1.31.48-1.3.56-1.31.63-1.29.72-1.27.78-1.25.86-1.22.91-1.18.98-1.15,1.04-1.1,1.09-1.04,1.13-.99,1.17-.93,1.21-.87,1.24-.79,1.27-.73,1.28-.65,1.29-.56,1.3-.49,1.3-.4,1.29-.32,1.29-.23,1.28-.14,1.25-.05,1.22.04,1.18.12,1.14.22,1.1.3,1.05.39.99.47.93.57.87.65.79.72.27.29-.39-.45-.75-.71-.82-.63-.87-.56-.94-.49-1-.4-1.04-.33-1.08-.23-1.14-.16-1.17-.07-1.2.02-1.23.1-1.25.19-1.26.27-1.28.35-1.27.44-1.27.52-1.28.59-1.25.68-1.23.74-1.22.81-1.18.87-1.14.94-1.11.99-1.05,1.05-1.01,1.1-.94,1.14-.9,1.17-.82,1.22-.77,1.24-.69,1.26-.62,1.27-.54,1.28-.46,1.29-.37,1.28-.29,1.27-.21,1.27-.13,1.24-.04,1.06.05.02ZM78.55,112.74l.19.02.03-.6.2-1.33.18-.76-.22-.08-.31,1.46-.09,1.29h.03ZM59.05,112.68h.01s.03,0,.05,0l.17.05.14-.95.06-1.35-.11-.03h-.08s-.02,0-.02,0l-.02.73-.12,1.16-.07.39ZM108.66,111.5l1.05,1.04.03-.63.13-1.27.22-1.31.3-1.3.38-1.31.47-1.32.55-1.31.63-1.29.7-1.28.78-1.26.84-1.24.91-1.19.96-1.16,1.03-1.12,1.07-1.07,1.13-1.01,1.16-.96,1.2-.89,1.24-.83,1.25-.75,1.28-.69,1.3-.6,1.3-.53,1.3-.45,1.31-.36,1.29-.28,1.29-.19,1.27-.1,1.24-.02,1.21.07,1.18.16,1.13.24,1.09.34,1.13.46-.27-.21-.91-.55-.97-.46-1.03-.39-1.09-.3-1.13-.21-1.17-.13-1.21-.04-1.25.05-1.26.15-1.28.23-1.3.32-1.3.4-1.32.49-1.29.57-1.29.66-1.27.73-1.25.8-1.22.87-1.19.94-1.14.99-1.09,1.05-1.05,1.11-.98,1.15-.92,1.2-.87,1.23-.79,1.26-.72,1.28-.64,1.3-.56,1.31-.48,1.31-.4,1.31-.3,1.3-.22,1.29-.14,1.28-.03,1.12ZM50.99,112.48l.21.04h.02s-.02-.73-.02-.73l-.07-1.01-.13-1.04-.18-1.07-.23-1.09-.27-1.1-.31-1.1-.35-1.1-.39-1.08-.43-1.06-.47-1.03-.49-.98-.52-.95-.54-.88-.56-.83-.58-.76-.58-.69-.58-.6-.57-.54-.56-.43-.56-.35-.52-.24-.51-.16-.48-.07-.44.02-.35.08s-.04.02-.06.03h-.05s-.23.12-.23.12l.43-.08s.04,0,.06,0h.51s.03.01.05.02l.52.11s.03,0,.04.01l.54.21.6.32.6.41.6.5.6.58.6.67.59.75.56.82.55.87.53.93.51.98.48,1.02.44,1.06.41,1.08.36,1.09.33,1.11.27,1.1.24,1.1.18,1.07.13,1.05.08,1.01.02.84ZM42.01,93.2l.46.14s.02,0,.04.01l.56.27.61.38.6.46.6.56.6.62.6.72.59.78.57.85.55.9.53.97.5,1,.48,1.05.44,1.08.4,1.1.36,1.12.32,1.12.28,1.12.23,1.11.18,1.09.13,1.06.07,1.03.02.62,2.13-.73-.02-.77-.08-1.01-.13-1.04-.18-1.07-.23-1.09-.27-1.1-.31-1.1-.36-1.1-.39-1.08-.43-1.06-.46-1.02-.5-.99-.52-.94-.54-.89-.56-.83-.57-.76-.57-.68-.58-.61-.58-.53-.57-.43-.56-.35-.52-.24-.51-.16-.48-.07-.45.02-.32.09s-.06.01-.09.01l-.36.12s-.06.03-.1.03l-.63.22ZM55.1,111.08l.21.04h.02s-.02-.73-.02-.73l-.07-1.01-.13-1.04-.18-1.07-.23-1.09-.27-1.1-.31-1.1-.35-1.1-.39-1.08-.44-1.06-.46-1.03-.49-.98-.52-.95-.54-.88-.56-.83-.58-.76-.58-.69-.58-.6-.57-.54-.56-.43-.56-.35-.52-.24-.51-.16-.48-.07-.44.02-.12.03.28.07.19.07s.06,0,.1,0l.44.1.58.22.6.32.6.41.6.5.6.59.59.65.59.75.56.82.55.87.53.93.51.98.47,1.02.45,1.06.4,1.08.37,1.1.33,1.1.27,1.1.24,1.1.18,1.07.13,1.05.08,1.01.02.84ZM46.12,91.79l.46.14s.02,0,.04.01l.56.27.61.38.6.46.6.56.6.62.6.72.59.78.57.85.55.9.53.97.5,1,.47,1.05.45,1.08.4,1.1.36,1.12.32,1.12.28,1.12.23,1.11.18,1.09.13,1.06.07,1.04.02.62,2.87-.98-.03-.95-.13-1.28-.12-.87h0s-.19-1.08-.19-1.08l-.24-1.08-.28-1.09-.32-1.09-.36-1.09-.4-1.07-.44-1.04-.46-1.01-.5-.97-.52-.93-.54-.87-.56-.81-.57-.74-.57-.67-.58-.59-.57-.5-.56-.42-.55-.34-.52-.23-.49-.15-.47-.05-.45.03-.35.08-1.84.63ZM107.92,110.66h.06s.06,0,.06,0l.04-1.01.13-1.27.22-1.3.31-1.31.39-1.31.48-1.31.56-1.3.63-1.29.72-1.27.78-1.25.86-1.22.91-1.19.98-1.14,1.04-1.1,1.09-1.05,1.13-.99,1.17-.93,1.21-.86,1.24-.8,1.27-.72,1.28-.65,1.29-.57,1.1-.41-.09-.24-1.12.42-1.3.57-1.28.66-1.28.73-1.25.8-1.22.87-1.18.94-1.14.99-1.1,1.06-1.04,1.1-.99,1.16-.92,1.19-.86,1.23-.78,1.26-.72,1.29-.65,1.3-.56,1.31-.48,1.31-.39,1.31-.31,1.3-.21,1.3-.14,1.27-.04,1.09.12.04ZM106.24,109.13l1.04,1.02.03-.65.14-1.31.22-1.33.32-1.34.4-1.34.49-1.34.57-1.34.66-1.32.73-1.31.8-1.28.88-1.25.94-1.21,1.01-1.18,1.06-1.12,1.12-1.08,1.16-1.01,1.2-.96,1.24-.88,1.27-.82,1.3-.74,1.31-.67,1.33-.58,1.32-.5s.02,0,.03,0l1.31-.4,1.33-.33,1.32-.23,1.3-.15,1.28-.05,1.25.04,1.22.13,1.17.22,1.12.31,1.07.4.79.38-.86-.84s-.01-.01-.02-.02l-2.24-2.2-.54-.5-.83-.64-.52-.35-.36-.21-.96-.49-1.02-.41-1.07-.32-1.12-.23-1.16-.15-1.2-.06-1.24.03-1.24.12-1.05.16-1.06.22-1.07.27-1.07.33-.82.3-.82.33-.85.39-1.66.86-1.26.75-1.24.82-1.21.88-1.18.95-1.13,1.01-1.08,1.06-1.02,1.12-.97,1.16-.91,1.2-.84,1.23-.77,1.27-.7,1.29-.63,1.3-.54,1.3-.46,1.31-.37,1.31-.26,1.16,1.89,1.85s.01.01.01.02c.02.02.03.04.04.07,0,0,0,0,0,0,0,.02.01.04.02.05,0,0,0,0,0,0l.11.52.51.61.25.36s.02.04.03.06l.15.21.38.76.1.25s.05.1.05.15v.16s0,.02,0,.03l.08,2.38ZM59.26,109.86l.21.02-.05-1.26-.18-1.58h-.02s-.19.02-.19.02l.11.85.1,1.1.03.85ZM79.06,109.46l.24.08.24-.74.44-1.08.52-1.06.61-1.05.68-1.01.76-.98.82-.92.88-.87.93-.8.98-.74,1.01-.67,1.04-.58,1.07-.5.76-.29-.09-.24-.72.27-1,.47-.99.54-.97.61-.94.68-.9.74-.86.8-.81.85-.75.89-.69.94-.64.97-.56.98-.48,1-.41,1.02-.22.7ZM147.4,107.98l-.25.6,13.2-4.52.11-.11.1-.19.07-.29-13.23,4.52ZM78.98,94.77v13.32l.22-.56.49-1.04.57-1.02.65-1,.71-.96.77-.92.83-.87.88-.82.92-.76.96-.7,1-.63,1.02-.55,1.04-.48,1.03-.39s.02,0,.03,0l1.04-.32,1.06-.23,1.04-.13,1.01-.05,1,.05.95.14.91.23.86.33.79.42.74.5.66.59s.01,0,.02.01c0,0,0,0,0,0h0s0,0,0,0l.48.53.44.61.2.32.16.29.12-.58.4-1.38.48-1.37.57-1.37.65-1.36.73-1.34.81-1.31.88-1.29.95-1.25,1.01-1.21,1.08-1.17,1.13-1.11,1.17-1.05,1.23-.99,1.26-.92.54-.36-35.49,12.14ZM32.88,101.85l5.91,5.8-.12-.35-.31-1.04-.27-1.05-.23-1.03-.18-1.03-.14-1-.1-.98-.04-.86-1.3.45s-.05.01-.08.02c0,0-.02,0-.02,0l-.3.09s-.03,0-.05,0l-.32.03-.07.05s-.03.02-.04.02l-.05.02s0,0-.01,0l-.44.22s-.04.02-.07.02h-.03s-1.75.61-1.75.61ZM148.69,103.41l-.13.75-.3,1.23-.37,1.25-.25.69,13.02-4.45v-1.12l-.17.12-.92.56-.95.49-.95.42-.96.36-.97.28-.95.2-.95.12-.92.05-.91-.03-.88-.11-.85-.19-.8-.28-.8-.37ZM48.77,90.52s.02,0,.03,0l.52.06s.03,0,.05.01l.54.17.59.26.61.37.6.45.6.53.61.62.59.7.58.76.57.83.55.89.53.95.51.99.47,1.03.45,1.06.41,1.09.37,1.11.33,1.11.28,1.11.24,1.1.14.81.22-.02-.13-.75-.25-1.13-.3-1.14-.33-1.14-.38-1.13-.41-1.11-.46-1.09-.48-1.06-.52-1.01-.54-.96-.57-.91-.58-.84-.59-.78-.59-.69-.6-.62-.6-.53-.59-.44-.57-.34-.56-.25-.5-.15-.5-.06-.46.03-.42.11-.23.11.23-.05s.03,0,.04,0l.5-.03s.01,0,.02,0ZM104.33,104.57l.09.09-.06-.08s-.02,0-.03-.01ZM49.11,89.81s.02,0,.03,0l.54.07s.03,0,.04,0l.55.17.62.28.62.37.63.47.63.56.63.65.62.72.61.81.59.86.58.93.55.98.53,1.03.49,1.08.47,1.11.42,1.13.39,1.15.34,1.16.22.84v-12.36L25.98,59.21v.5s0,.02,0,.02c0,0,0,.01,0,.02l-.02.15s-.01.06-.03.08l-.03.06s-.03.05-.05.07l-.03.03s-.06.05-.09.06l-.05.02s-.1.02-.15.01h-.05s-.06-.03-.09-.04l-.11-.07s-.03-.02-.04-.03h0s-.49-.5-.49-.5c0,0,0,0,0,0l-.06-.06s-.03-.03-.04-.05l-.16-.29s-.01-.03-.02-.05l-.08-.34s0-.03,0-.05v-.09h0v-1.04l-1.18-1.16v.5s0,.02,0,.02c0,0,0,.01,0,.02l-.02.15s-.02.07-.04.1l-.03.05s-.03.04-.04.05l-.03.03s-.06.05-.09.06l-.05.02s-.1.02-.15.01h-.05s-.03-.02-.05-.02l-.05-.02s-.05-.03-.07-.04l-.06-.05s-.02-.01-.02-.02c0,0,0,0,0,0l-.49-.49h0s-.06-.06-.06-.06c-.01-.01-.03-.03-.04-.05l-.16-.29s-.01-.03-.02-.05l-.08-.34s0-.03,0-.05v-1.13l-11.82-11.59v17.55l15.21,14.92.86-.29s.02,0,.03,0h.04s0-.01,0-.01l.32-.09s.03,0,.04,0l.31-.03.08-.06s.02-.02.04-.02l.54-.25s.02-.01.03-.01h0s0,0,0,0c0,0,0,0,.01,0l2.26-.77.3-.36s.02-.02.04-.04l.4-.33s.02-.02.04-.03l.44-.25s.04-.02.06-.02l.47-.14s.03,0,.04,0l.5-.06s.04,0,.06,0l.52.05s.03,0,.04,0l.54.14s.02,0,.04.01l.57.24.6.34.62.43.61.52.62.6.61.69.6.75.58.82.57.88.56.94.53,1,.5,1.03.47,1.07.44,1.1.4,1.13.36,1.13.31,1.14.28,1.13.22,1.12.18,1.11.13,1.07.06.91.11-.04s.01,0,.02,0c0,0,0,0,0,0h.04s0,0,0,0c0,0,0,0,0,0h0s0,0,0,0l.33-.08s.03,0,.05-.01l.3-.03.1-.07.48-.24s.03-.01.04-.02h0s.04-.02.06-.03h.03s0,0,0-.01l2.27-.79.35-.4s.02-.02.03-.03l.41-.33s.03-.02.05-.03l.46-.23s.03-.01.05-.02l.48-.13s.04,0,.05,0l.51-.03s.01,0,.02,0ZM161.18,103.27l-.02.24s0,.03,0,.04l-.06.27.23-.08,1.97-.62,2-.57,2.05-.53,2.09-.48,2.11-.43,2.15-.39,1.35-.21.03-.05.05-.2.04-.38-1.57.26-1.88.35-1.85.39-1.83.41-1.81.45-1.77.49-1.74.52-1.54.51ZM148.85,102.32l.22.15.68.38.73.29.78.23.82.13.86.06.9-.02.92-.11.94-.19.94-.27.95-.35.94-.44.94-.5.9-.57.89-.64.85-.69.81-.76.76-.8.7-.85.64-.89.59-.91.52-.94.45-.95.36-.95.29-.96.2-.94.13-.93.04-.89-.04-.89-.13-.83-.2-.8-.29-.74-.36-.7-.44-.62-.51-.57-.57-.49-.63-.43-.68-.35-.75-.29-.79-.19-.84-.11-.88-.04-.89.05-.93.14-.94.21-.95.3-.94.37-.94.46-.93.53-.91.59-.86.66-.84.71-.79.77-.75.82-.69.86-.62.89-.57.93-.5.94-.52,1.23.03.04s.02.04.03.06c0,0,0,0,0,0l.35.57.47.95.39,1,.31,1.04.24,1.09.16,1.12.08,1.15v.63s.01,0,.01,0v.02s0,.01,0,.02v.39s-.07,1.19-.07,1.19l-.08.62ZM161.19,101.38v1.31l1.36-.45,1.75-.53,1.78-.5,1.82-.46,1.84-.42,1.86-.39,1.89-.35,1.67-.27v-7.69l-2.39.4s-.02,0-.03,0c0,0,0,0,0,0h0s-.04,0-.06,0h0s0,0,0,0c-.01,0-.03,0-.04-.01h0s0,0,0,0c-.03-.01-.06-.02-.08-.04-.02-.02-.04-.04-.06-.06,0,0,0,0,0,0,0,0-.01-.02-.02-.03-.02-.03-.02-.07-.03-.1,0,0,0-.01,0-.02v-.39l-.05-.02-2.39.43-2.16.46-.12.42-.35.97-.43.96-.5.94-.56.92-.62.9-.67.86-.73.83-.78.78-.82.73-1.04.81ZM93.84,101.29l1.14,1.11.87-.27,1.04-.22,1.02-.12.99-.04.98.06.93.15.89.24.41.16h0s-.66-.49-.66-.49l-.23-.14s-.03-.01-.04-.02h0s-.43-.23-.43-.23l-.78-.33-.83-.23-.87-.14-.91-.05-.96.03-.97.13-.99.21-.57.17ZM33.85,96.22l-.02.52-.08.86-.13.81-.18.73-.23.67-.29.58-.33.49s-.02.03-.03.04l-.37.38s-.03.02-.04.03l-.41.28s-.03.02-.04.02l-.27.12h.04s.38-.12.38-.12c0,0,.02,0,.03,0l.36-.17.36-.28.34-.36.3-.48.25-.53.22-.63.17-.71.12-.78.08-.84.02-.59-.24-.02ZM30.21,101.36h.45s.42-.06.42-.06l.38-.17.36-.25.33-.34.3-.45.26-.52.21-.61.17-.68.12-.77.08-.82.03-.89-.03-.95-.08-.99-.13-1.03-.18-1.05-.23-1.08-.27-1.08-.31-1.09-.36-1.07-.4-1.06-.43-1.04-.47-1-.49-.96-.52-.91-.54-.85-.56-.79-.57-.72-.56-.64-.57-.55-.57-.47-.56-.38-.51-.28-.52-.19-.48-.1h-.44s-.42.07-.42.07l-.38.16-.36.25-.32.34-.3.43-.27.54-.22.6-.17.69-.12.76-.08.83-.03.88.03.95.08.99.13,1.03.18,1.06.23,1.07.27,1.08.32,1.09.35,1.08.4,1.06.43,1.03.47,1,.49.96.52.91.55.86.55.78.57.72.57.64.57.56.56.47.55.38.54.28.49.19.48.1ZM101.89,101.24l.13.02s.03,0,.04.01l.07.03.22-.97.38-1.34.47-1.34.55-1.33.64-1.32.71-1.31.79-1.29.86-1.25.93-1.22.99-1.18,1.04-1.14,1.1-1.08,1.15-1.03,1.2-.97,1.23-.9,1.26-.83,1.02-.61-.12-.22-1.04.61-1.26.84-1.24.9-1.21.97-1.15,1.03-1.11,1.09-1.06,1.15-.99,1.19-.93,1.23-.86,1.27-.8,1.29-.72,1.31-.64,1.33-.56,1.34-.47,1.34-.39,1.34-.22,1.01ZM34.63,96.13l-.02.74-.08.88-.13.82-.18.75-.24.68-.28.59-.33.52,1.03-.35s.04-.02.06-.03l.12-.04.33-.16.36-.28.33-.36.31-.47.26-.54.22-.63.17-.71.12-.78.07-.84.02-.52-2.11.72ZM92.89,100.48l.07.18s.01.03.01.05h0s.69-.2.69-.2l.99-.21.98-.13.4-.02c.06,0,.1.01.15.03l.79-.04.91.03.88.11.45.1-.11-.04-.83-.24-.87-.14-.92-.05-.95.03-.97.13-1,.21-.66.2ZM175.69,99.8v.19s-.05.36-.05.36c0,0,0,0,0,0l.3-.14.37-.25.33-.31.2-.28-.08.05s-.03.02-.04.02l-.46.2s-.04.01-.06.02h0s0,0,0,0c0,0,0,0,0,0l-.22.07s-.02,0-.04.01l-.26.06ZM36.45,99.73v.02s-.27.37-.27.37l.17-.08.36-.28.33-.36.38-.61.04-.61.04-.29-.18.51-.29.58-.33.49s-.02.02-.02.03l-.21.23ZM94.64,97.41l1.01.08.96.17.91.29.85.38.78.48.6.48v-.05s-.56-.51-.56-.51l-.68-.46-.74-.39-.8-.3-.85-.22-.89-.13-.94-.05-.96.05-1,.13-1.02.22-.8.24.09.23.89-.26,1.07-.22,1.06-.13,1.04-.02ZM175.69,91.56v7.69l.19-.05v-7.68l-.19.04ZM176.42,91.34v7.66l.07-.03.33-.22.24-.25.15-.25.05-.26v-7.16l-.08.08s-.03.02-.04.03l-.38.25s-.03.02-.04.02l-.3.13ZM37.96,94.81l-.02.52-.08.82.08-.25.24-.59.02-.48-.24-.02ZM33.86,95.67l.13.03h.09s.02,0,.02,0l-.02-.73-.08-1.01-.13-1.04-.18-1.07-.23-1.09-.27-1.1-.31-1.1-.36-1.1-.39-1.08-.43-1.06-.46-1.03-.5-.99-.52-.94-.54-.89-.56-.82-.57-.76-.58-.69-.58-.6-.58-.53-.57-.43-.56-.35-.54-.25-.49-.16-.48-.06-.46.02-.37.09s-.01,0-.02,0l-.08.03-.23.11.44-.08s.04,0,.05,0h.5s.03.01.05.02l.53.11s.03,0,.04.01l.55.21s.02.01.04.02l.55.31.6.41.6.5.6.58.59.67.58.74.57.81.55.87.53.93.5.98.48,1.02.44,1.06.41,1.08.37,1.09.32,1.11.28,1.1.23,1.1.18,1.07.13,1.05.08,1.01.03.84ZM24.9,76.38l.45.15.6.28.6.38.6.46.61.56.61.63.6.72.58.78.57.84.55.91.53.96.51,1.01.47,1.05.44,1.08.4,1.1.37,1.12.32,1.12.27,1.12.23,1.11.18,1.09.13,1.06.08,1.03.02.62,2.12-.73-.02-.77-.07-1.01-.13-1.04-.18-1.07-.23-1.09-.27-1.1-.31-1.1-.35-1.1-.39-1.08-.43-1.06-.47-1.03-.49-.98-.52-.95-.54-.88-.56-.83-.58-.76-.58-.69-.58-.6-.57-.54-.56-.43-.56-.35-.52-.24-.51-.16-.48-.07-.44.02-.34.08s-.03,0-.04,0h0s-1.11.38-1.11.38ZM59.76,91.59l.57.51.73.54.82.51.89.47.95.42,1.02.37,1.08.31,1.12.26,1.16.2,1.19.15,1.19.08,1.22.03,1.2-.04,1.21-.1,1.18-.16,1.15-.23,1.12-.27.86-.26v-.21s-.07-.43-.07-.43l-.1-.44-.13-.45-.17-.42-.19-.42-.33-.52-.78.23-1.01.25-1.05.19-1.08.13-1.1.07-1.09.02-1.09-.04-1.08-.1-1.07-.16-1.04-.22-.99-.26-.95-.32-.9-.37-.84-.42-.76-.47-.7-.5-.46-.41-.22.13-.37.3-.32.33-.26.34-.23.4-.16.37-.1.38-.02.25ZM37.97,94.26l.13.03h.09s.02,0,.02,0l-.02-.73-.08-1.01-.13-1.04-.18-1.07-.23-1.09-.27-1.1-.31-1.1-.36-1.1-.39-1.08-.43-1.06-.46-1.03-.5-.99-.52-.94-.54-.88-.56-.83-.57-.76-.58-.69-.58-.6-.58-.53-.57-.43-.56-.35-.54-.25-.49-.16-.48-.06-.46.02-.12.03.28.07.19.07s.06,0,.09,0l.44.1.58.22.6.32.6.41.6.5.6.58.59.67.58.74.57.81.55.87.53.93.5.98.48,1.02.44,1.06.41,1.08.37,1.09.32,1.11.28,1.1.23,1.1.18,1.07.13,1.05.08,1.01.03.84ZM77.96,91.31l.03.04.24.4.21.46.18.46.15.49.11.48.07.57,37.62-12.87,2.13-1.03,2.19-.86,2.22-.65,2.19-.45,37.75-12.92v-.21s-.08-.42-.08-.42l-.1-.45-.14-.44-.16-.44-.2-.4-.33-.53-84.1,28.78ZM29.01,74.98l.45.15.6.28.6.38.6.46.61.56.61.63.6.72.58.78.57.85.55.9.53.96.51,1.01.47,1.05.44,1.08.4,1.1.37,1.12.32,1.12.27,1.12.23,1.11.18,1.09.13,1.06.08,1.03.02.62.31-.11.22-.21.43-.32s.03-.02.04-.02l.45-.22s.03-.01.04-.02h.02s0-.01,0-.01h.01s.02-.02.04-.02c0,0,0,0,0,0l1.26-.43v-.37s-.09-1.01-.09-1.01l-.13-1.04-.18-1.07-.23-1.09-.27-1.1-.32-1.1-.35-1.1-.39-1.08-.43-1.06-.47-1.03-.49-.98-.52-.95-.54-.88-.56-.83-.57-.76-.58-.69-.57-.6-.58-.53-.57-.43-.56-.35-.51-.24-.52-.16-.48-.07-.45.02-.37.09-1.84.63ZM31.68,73.7s.03,0,.04,0l.53.08s.03,0,.04,0l.55.17s.03,0,.04.02l.55.27.61.38.6.46.61.56.6.63.6.71.58.79.57.85.55.9.53.97.5,1,.48,1.05.44,1.08.4,1.1.36,1.12.33,1.12.27,1.12.23,1.11.18,1.09.13,1.06.09,1.25.22-.08-.07-1.04-.13-1.05-.18-1.09-.22-1.1-.27-1.11-.31-1.12-.35-1.11-.39-1.11-.43-1.08-.46-1.05-.49-1.01-.52-.98-.55-.92-.56-.86-.57-.8-.58-.73-.59-.66-.59-.57-.58-.49-.57-.4-.55-.31-.53-.22-.51-.13-.48-.04-.44.05-.41.12-.16.09.29-.06s.03,0,.05,0l.5-.02s0,0,.01,0ZM146.37,91.64l.18.24.41-.94.51-.97.58-.96.64-.92.71-.89.77-.84.81-.79.87-.74.89-.68.94-.61.95-.54.98-.47.98-.38.99-.31.98-.22.97-.14.95-.05.93.04.89.12.85.2.81.31.74.38.68.46.66.58-.27-.31-.59-.52-.61-.42s-.01,0-.02-.01l-.73-.39-.76-.29-.81-.21-.86-.13-.89-.04-.94.04-.96.13-.97.21-.97.29-1.01.39-1,.47-.98.55-.96.62-.93.69-.89.76-.85.81-.79.87-.73.91-.67.95-.59.97-.52.99-.35.78ZM62.13,88.4l.6.53.67.48.75.44.83.39.89.35.94.3,1,.24,1.03.18,1.06.13,1.08.07h1.08s1.09-.06,1.09-.06l1.06-.12,1.04-.18,1-.24.96-.29s0,0,0,0l84.37-28.86h0s.92-.35.92-.35l.84-.4.76-.44.68-.48.59-.51.51-.55.4-.56.3-.56.2-.59.11-.59v-.6s-.09-.59-.09-.59l-.2-.59-.29-.58-.4-.58-.49-.53L115.73,4.48s-.02-.02-.03-.03l-.04-.04-.6-.53-.67-.48-.75-.44-.83-.41-.89-.35-.95-.29-1-.25-1.03-.18-1.06-.13-1.08-.06h-1.09s-1.08.05-1.08.05l-1.06.12-1.04.19-1.01.23-.96.29L16.17,31.03l-.92.35-.85.39-.76.44-.69.47-.6.51-.55.61s-.02.02-.03.04l-.33.47-.3.56-.2.58-.11.59v.6s.08.59.08.59l.19.58.31.6.4.56.49.53,49.82,48.89ZM168.39,88.73v.17l-.05.89-.13.95-.16.73,3.42-.82-.11-.09s-.02-.02-.03-.03l-.42-.53s-.02-.03-.03-.05l-.59-1.2s-.01-.03-.02-.04l-.41-1.31-.25-1.32-.45-.63-.41-.69-.32-.71-.67,1.28.12.29.25.83.16.87.08.9v.5s.01,0,.01,0h0ZM173.18,91.32s0,.04,0,.06v.06s1.97-.33,1.97-.33l-.04-.24-1.92.31v.11s0,.03,0,.04ZM145.26,90.36l.17.17.56.64.24-.53.53-1.02.61-1.01.69-.98.75-.93.81-.89.88-.84.91-.78.96-.71,1-.64,1.02-.56,1.04-.48.65-.25-1.15-1.12-.86.33-1,.48-.99.55-.95.62-.93.69-.9.75-.84.82-.8.86-.73.91-.66.95-.6.98-.53,1.01-.28.63.36.35s.03.03.04.05ZM25.99,58.47l33.29,32.66.08-.32s0-.03.01-.04l.18-.42.25-.44s.01-.02.02-.03l.3-.38.37-.37.41-.33s.02-.02.03-.02l.1-.06L27.66,55.97l-.23.14-.35.28-.32.33-.27.36-.22.38-.15.37-.1.39-.02.26ZM175.63,90.76l.05.25.38-.1.44-.19.33-.22.24-.24.15-.25.05-.26-.05-.29-.06.23s-.02.06-.04.08l-.17.26s-.03.04-.04.05l-.26.24s-.03.03-.05.04l-.34.19-.43.17s-.03.01-.05.01l-.16.03ZM11.2,80.58l10.45,10.26-.12-.35-.31-1.04-.26-1.05-.23-1.03-.19-1.03-.14-1.01-.09-.98-.05-.94v-.45s0,0,0,0v-.05h0s.01-.68.01-.68l.06-.86.11-.82.16-.75.2-.69.27-.64.3-.55.36-.49s.02-.02.03-.03l.37-.37s.02-.02.03-.03l.41-.3s.03-.02.04-.02l.54-.25s.02-.01.03-.01h0s0,0,0,0c0,0,0,0,.01,0l1.23-.42-14.64-14.37v7.45l1.39,2.33s.01.02.02.04c0,.01.01.03.01.04,0,.02,0,.05,0,.07v9.04ZM172.8,90.54l.15.13,2.28-.38h0s.42-.08.42-.08l.37-.15.28-.16.21-.19.13-.19.05-.19-.02-.17-.09-.19-.18-.2-.27-.18-1.93-1.11-.65-.08-.64-.03-.31.02-.61.09-.56.16-.46.19-.16.1v.03s.36.85.36.85l.23.41.42.58.29.3.39.28.26.15s.02.01.03.02c0,0,.02.01.02.02ZM144.01,89.11l.2.19.3-.71.53-.98.58-.96.66-.94.72-.9.78-.85.82-.8.89-.75.91-.68.95-.62.97-.54,1-.47.8-.31-.09-.23-.83.31-1,.48-.99.55-.96.62-.93.69-.89.75-.85.82-.79.86-.73.92-.67.95-.59.97-.52.99-.28.63ZM143.27,88.43l.32.29.21-.47.53-1.02.61-1.01.69-.98.75-.94.81-.89.87-.84.91-.77.95-.71,1-.64,1.02-.56,1.04-.49,1.03-.39s.02,0,.03,0l1-.31,1.01-.22,1-.13.98-.04.95.05.92.13.87.23.59.22-.31-.29-.66-.52-.41-.27-.3-.15-.8-.35-.84-.26-.89-.15-.94-.08-.97.03-1,.13-1.02.21-1.03.31-1.05.4-1.04.5-1.02.58-.99.66-.97.73-.92.8-.86.86-.81.92-.74.96-.66,1-.58,1.02h0s-.57,1.19-.57,1.19l.79.78s.02.02.03.03l.04.03.37.37s.04.05.05.07ZM170.26,85.84s0,0,0,0l.28,1.22.1.33.07-.04s.03-.01.04-.02l.33-.13v-2.94l-.32-.55s0-.01-.01-.02l-.59-1.14-.19-.41v.79s0,.01,0,.02c0,0,0,0,0,0l.07,1.35.22,1.52ZM171.61,85.07v1.95l.27-.07.67-.1.35-.02h.39s-.43-.35-.43-.35l-.48-.46-.23-.26-.54-.69ZM141.4,86.56l.19.19.43-.89s0-.01,0-.02l-.07-.15s-.01-.03-.02-.04l-.03-.11-.3.59-.2.44ZM172.16,84.9l.05.07.57.68.44.42.6.49.11-.19-.03-.02s-.04-.02-.05-.03l-.03-.02s-.02-.01-.03-.02l-.13-.09s-.06-.04-.08-.07l-.16-.11-.39-.31s0,0,0,0l-.38-.33-.47-.48ZM127.29,85.99l.03.06s.01.03.02.04l.04.13.99-.31,1.3-.31,1.28-.23,1.28-.14.51-.03s.09,0,.13.03h.16s1.18-.06,1.18-.06l1.16.05,1.13.12,1.09.2.49.13-.13-.05-1.08-.3-1.13-.21-1.18-.13-1.21-.04-1.24.05-1.27.15-1.28.23-1.3.32-.97.3ZM139.5,84.69l1.49,1.46.34-.71.48-.86s0,0,0-.01l.63-1,.71-.98.78-.95.83-.89.89-.84.94-.78.97-.72,1.02-.65,1.03-.57,1.05-.48,1.05-.41s.02,0,.03-.01l1.03-.31,1.03-.23,1.04-.13,1-.05.97.04.95.13.9.22.84.31.8.4.73.48.66.55.59.64.52.72.26.47v-13.5l-35.65,12.2h.54s1.27.05,1.27.05l1.23.16,1.19.25,1.14.33,1.09.43,1.03.53.96.61.89.69.81.78.74.85.67.92.52.9ZM142.33,84.78l.05.45.32-.57.68-1.04.76-.99.83-.94.88-.88.94-.82,1-.75,1.02-.68,1.06-.6,1.08-.51.77-.3-.08-.2s0-.02-.01-.04l-.73.29-1.02.47-1,.56-.99.63-.94.7-.92.76-.87.82-.81.87-.76.92-.69.96-.57.91ZM168.79,83.37l.16.52.28.62.25.44-.07-.67-.03-1.74.03-.38-.63,1.21ZM167.11,84.03s0,0,0,0l.05.07.33.6v-.03s.76-1.46.76-1.46c0,0,0,0,0,0l1.08-2.04.21-.44.2-.49.13-.4.07-.3-.02-.17c0-.06,0-.12.04-.17v-.03l-.1.23-.53.85-.53.65-.62.61-.75.61-.75.52-.45.26.48.55.37.53s.02.03.02.04ZM137.23,82.46l.1.1-.14-.17-.78-.75-.85-.65-.92-.58-.99-.5-1.04-.42-1.09-.32-1.15-.24-1.19-.16-1.23-.06-1.26.03-1.06.11.05.24,1.12-.1,1.28-.03,1.24.06,1.2.15,1.16.24,1.11.33,1.06.42,1,.51.38.23s0,0,0,0c0,0,0,0,0,0,0,0,0,0,0,0l.54.37.87.66.56.52s0,0,0,0ZM164.53,81.23l1.32,1.29.57-.34.73-.51.72-.59.58-.59.5-.62.37-.58.31-.64.22-.71.06-.3.06-.41.02-.31v-4.79h0v-10.12h0v-.88h0v-.24l-.3.56-.47.69-.58.65-.67.62-.75.58-.84.55-.91.5-.99.44-.86.33v14.52l.06.06s.02.02.03.03l.03.03.36.39s.02.02.02.03l.41.36s0,0,0,0c0,0,0,0,.01.01ZM117.01,81.72l.12.21,1.49-.77.87-.4.84-.34.84-.31,1.09-.34,1.09-.28,1.08-.22.69-.1-.02-.05s0-.03-.01-.05v-.12s-1.87.38-1.87.38l-2.18.64-2.15.84-1.91.92ZM155.5,80.2l1.14,1.11.85-.25,1.01-.22,1-.13.98-.04.94.04.92.14.87.22.54.21-.14-.12-.62-.43s-.01,0-.02-.01l-.72-.39-.77-.29-.81-.21-.86-.12-.9-.05-.93.04-.96.13-.97.21-.56.17ZM1.86,74.62l.81.45,1.53.92,1.46.94,1.4.98,1.33,1,1.26,1.03,1.01.9h0s-.96-.91-.96-.91l-1.08-.94-1.13-.93-1.19-.89-1.25-.88-1.3-.85-1.35-.83-.92-.53.05.18.14.22.19.16ZM1.41,73.41l1.27.72,1.36.84,1.31.86,1.27.89,1.21.91,1.15.94,1.1.96.58.55v-8.41l-.88-.82-.78-.7-1.34-1.08-1.41-1.02-1.48-.99-1.35-.82v.26s0,.02,0,.04c0,.02,0,.03,0,.05,0,0,0,0,0,0h0s-.02.06-.04.08c0,0,0,0,0,0-.02.03-.04.05-.07.07,0,0,0,0,0,0t0,0s0,0-.01,0c-.03.02-.06.03-.09.03-.03,0-.05,0-.08,0,0,0,0,0,0,0,0,0-.02,0-.02,0-.03,0-.06-.02-.08-.04l-1.59-.92v7.63ZM154.55,79.39l.09.24.72-.21,1.03-.22,1.01-.12.86-.02s.04,0,.06,0h.06s.91,0,.91,0l.89.09.64.12-.18-.07-.82-.22-.86-.12-.9-.05-.94.04-.96.13-.97.21-.64.2ZM161.67,78.43l.06.05-.38-.41-.61-.51-.68-.45-.74-.37-.78-.29-.84-.21-.89-.12-.92-.04-.96.05-.99.13-.99.22-.79.24.04.12.05.12.88-.26,1.06-.22,1.05-.13,1.03-.03.99.08.94.16.91.28.84.37.32.16h0s.02.01.02.02l.44.29.7.55.23.21s0,0,0,0c0,0,0,0,0,0,0,0,0,0,0,0ZM170.51,72.31v4.25l.2-.22.31-.47.26-.54.22-.63.17-.71.12-.78.08-.84v-.52s-1.36.47-1.36.47ZM171.57,76.2l-.26.36.17-.08.36-.28.34-.36.3-.48.26-.54.2-.62.17-.71.12-.78.08-.84.02-.59-.24-.02-.02.52-.08.87-.13.8-.18.73-.24.66-.29.58-.33.49-.24.27s-.01.01-.02.02ZM173.88,71.17l-.02.74-.08.88-.13.82-.18.75-.22.68-.29.6-.33.52,1.03-.35s.04-.02.06-.03l.12-.04.33-.16.35-.28.33-.36.31-.47.26-.54.22-.63.17-.71.12-.78.08-.84v-.52s-2.1.73-2.1.73ZM.73,72.9l.14.14v-7.56l-.26-.18s-.03-.02-.04-.04l-.03-.03v7.2s.05.23.05.23l.14.23ZM170.51,63.62v8.13l1.37-.47-.02-.77-.08-1.01-.13-1.04-.18-1.07-.23-1.09-.27-1.1-.47-1.59ZM173.14,70.72l.17.02h.02s-.02-.73-.02-.73l-.08-1.01-.13-1.04-.18-1.07-.22-1.09-.27-1.1-.31-1.1-.36-1.1-.39-1.08-.43-1.06-.42-.94v.49l.56,1.35.41,1.08.37,1.09.32,1.11.28,1.1.23,1.1.18,1.07.13,1.05.08,1.01.03.84h.04ZM170.49,58.16l.47.94.47,1.05.44,1.08.4,1.1.37,1.12.32,1.12.28,1.12.22,1.11.18,1.09.13,1.06.08,1.03.02.62,2.12-.73-.02-.77-.08-1-.13-1.04-.18-1.07-.23-1.09-.27-1.1-.31-1.1-.35-1.1-.39-1.08-.43-1.06-.47-1.02-.49-.99-.52-.95-.54-.88-.56-.83-.58-.76-.58-.69-.57-.6-.58-.53-.57-.43-.56-.35-.52-.24-.51-.16-.48-.07h-.26s2.2,2.17,2.2,2.17c0,0,0,0,0,0,0,0,0,0,.01.01l.61.66.51.69.44.7.35.73.27.75.19.77.08.75ZM9.5,69.83l.23.21-.18-.3-.05.09ZM4.21,65.72l2.5,1.79,2.37,1.96.14-.32-.23-.58-.44-1.38-.27-1.02-.43-1.86-.22-1.26-.18-1.25-.07-.75-.08.16-.39.56-.51,1.2-.65,1.16s-.02.02-.02.04l-.79,1s-.02.03-.04.04l-.48.4s-.03.02-.05.03l-.16.08ZM7.84,59.86l.03.66.11,1.22.18,1.22.22,1.24.42,1.84.27,1,.17.57v-6.53l-.5-.55-.5-.68-.41-.73v.2l.02.53ZM1.44,65.19l1.36.78v-.05h0s0-.07.01-.09v-.08s.02-.04.03-.06l-1.28-.72-.06.1-.06.12ZM1.67,64.41l1.53.87s.02-.01.03-.01h.02s.05-.04.08-.04l.21-.05.38-.16.31-.21s-.03,0-.04-.01h-.04c-.07-.01-.13-.04-.17-.08l-.09-.03s-.04-.02-.05-.03l-.23-.15s-.06-.04-.08-.07l-.13-.19s-.04-.08-.05-.13l-.02-.21s0-.09.02-.14l.09-.2s.04-.06.07-.09l.19-.17s.04-.03.06-.04l.26-.13h0s.04-.02.06-.02l.32-.08s.04,0,.06,0h.35s.03,0,.05,0l.35.05s.04,0,.05.01l.29.11h0s.42-.79.42-.79l-.46-.1-.35-.05-2.62.44s-.01,0-.02,0l-.1.02s-.03,0-.04,0l-.37.1-.37.16-.28.2-.18.21-.08.2v.2l.08.2.19.21.29.21ZM162.58,62.34l.04.05.24.42.22.44.18.48.15.48.11.49.08.54.68-.26.96-.43.87-.48.8-.52.72-.55.64-.59.54-.61.43-.64.33-.63.24-.68.14-.67.04-.5s-.01-.05-.01-.08v-.37l-.08-.73-.17-.71-.25-.7-.33-.68-.41-.66-.48-.65-.67-.71-.25-.15-.29-.09h-.14s.11.11.11.11l.44.6s.01.02.02.03l.32.6.24.63s0,.03.01.04l.13.62s0,.03,0,.04l.03.63s0,.03,0,.05l-.08.62-.18.66s0,.03-.01.04l-.27.6-.38.63-.48.59-.58.57-.64.52-.73.49-.8.45-.86.4-.6.23ZM.94,64.87l.04.03.09-.18s.01-.02.02-.03v-.02s-.05-.05-.05-.05c-.02-.01-.03-.02-.04-.04l-.24-.27s-.04-.05-.05-.08l-.12-.29s-.01-.04-.02-.06l-.03.11v.17s0,.02,0,.03l.03.18.13.25.23.24ZM4.43,64.28l.21.04h.1s.11-.11.11-.11l.42-.55-.15-.06-.3-.04h-.3s-.09.03-.09.03v.69ZM3.89,63.92v.02s0-.02,0-.02h0ZM6.11,61.89l.11.03.04-.1-.15.07ZM5.72,61.42v.05s.26-.12.26-.12l.47-.34-.17.1s-.03.01-.04.02l-.47.18s-.03.02-.05.03v.07ZM8.04,58.25l.27.68.37.64.55.72v-17.52l-.5-.55-.5-.68-.41-.73v16.11l.07.68.16.65ZM25.29,57.59v.75l.12-.04.04-.31s0-.03,0-.04l.12-.44s0-.03.01-.04l.2-.44s.01-.02.02-.03l.27-.42.34-.41.47-.42-.02-.02s-.04-.04-.05-.06l-.04-.06s-.02-.04-.03-.06l-.03-.08s-.01-.04-.02-.06v-.09s-.01,0-.01,0c0,0,0,0,0-.01l-.1.06-.32.26-.28.29-.24.32-.2.34-.13.32-.09.35-.03.33ZM23.21,55.73l1.24,1.22.08-.33s0-.03.01-.04l.18-.42.25-.44s.01-.02.02-.03l.3-.38.37-.37.4-.32.14-.09-1.32-1.3-.23.14-.35.28-.32.33-.27.36-.22.38-.16.39-.09.36-.03.26ZM166.77,54.02s.03.03.04.05l.22.34.33.64s.01.03.02.04l.21.62s0,.03.01.04l.05.31v-.15s-.13-.58-.13-.58l-.22-.58-.29-.56-.4-.56-.36-.39-.04.04.2.21.38.53ZM22.51,54.85v.76l.12-.04.04-.3.13-.48s0-.03.01-.04l.2-.44s.01-.02.02-.03l.27-.42.34-.41.46-.42s-.06-.05-.07-.08l-.04-.07s-.01-.03-.02-.04l-.03-.08s-.01-.04-.01-.06v-.07s-.01-.02-.01-.03l-.1.06-.32.25-.28.28-.24.32-.19.32-.15.37-.08.32-.03.33ZM9.78,42.57l11.88,11.65.08-.32.18-.46s.01-.03.02-.04l.25-.41.31-.41.36-.37s.02-.02.03-.03l.52-.38-11.96-11.73-.21.12-.36.29-.33.33-.26.34-.23.4-.16.37-.1.39-.03.26ZM116.24,4.22l49.6,48.66.02-.02L116.26,4.19l-.03.02ZM116.97,4.13l49.43,48.5.28-.03s.04,0,.05,0h.01s-1.64-1.61-1.64-1.61c-.04-.02-.07-.05-.09-.09l-8-7.85s0,0,0,0l-.56-.55s-.06-.05-.08-.08l-8.4-8.24s-.06-.05-.08-.08l-30.2-29.64-.09-.08-.25-.15-.28-.09h-.09ZM8.04,39.94l.27.68.37.64.46.63.17.18.08-.3s0-.03.01-.04l.18-.42.25-.44s.01-.02.02-.03l.3-.38.37-.37.4-.33s.02-.02.03-.02l.12-.07-.28-.31-.44-.61-.34-.62s-.01-.03-.02-.04l-.22-.61-.14-.66s0-.03,0-.04l-.03-.62s0-.03,0-.04l.07-.63s0-.03,0-.05l.18-.61.28-.64.38-.63.48-.59.56-.57.65-.53.25-.17-.62.37-.79.55-.7.6-.64.65-.55.67-.45.7-.36.73-.28.74-.17.74-.08.74v.37s-.01.05-.02.07h0s.07.68.07.68l.16.65ZM148.69,34.13l7,6.87-.19-.37-.52-.95-.54-.88-.56-.83-.57-.76-.58-.69-.58-.6-.58-.53-.57-.43-.56-.35-.52-.24-.51-.16-.48-.07h-.26ZM10.2,35.56l-.05.48.08-.46s0-.03.01-.05l.23-.63s.01-.03.02-.04l.33-.6.44-.62.73-.82.65-.55.72-.5.33-.19-.46.25-.69.46-.61.5-.52.53-.44.54-.35.57-.25.57-.16.56ZM53.01,5.66h-1.21s-1.23.12-1.23.12l-1.25.19-1.26.27-1.27.35-1.28.44-1.28.51-1.26.6-1.26.68-1.24.74-1.21.81-1.18.87-1.15.94-1.1.99-1.06,1.05-1,1.09-.95,1.14-.89,1.18-.82,1.21-.76,1.24-.69,1.26-.62,1.28-.54,1.28-.46,1.28-.11.37,22.83-7.81.11-.06,1.62-.73,1.62-.64,1.53-.56,1.5-.48,1.47-.42,1.57-.34,5.24-1.79-3.8-3.72s0,0,0,0l-.04-.04s-.05-.03-.07-.05l-.16-.16-.27-.24-.82-.64-.88-.55-.94-.48-.99-.41-1.05-.32-1.09-.23-1.13-.16-1.17-.07ZM113.98,2.53l.71.42.71.51.44.39s0,0,0,0h.01s-.31-.29-.31-.29l-.65-.48-.72-.44-.2-.1ZM115.35,2.74l.54.4.53.46.23-.02-.04-.03-.77-.52-.48-.28ZM67.12,126.18s-.03,0-.05,0l-.34-.06s-.03,0-.05-.01h-.04c-.07-.01-.13-.04-.17-.08l-.09-.03s-.04-.02-.05-.03l-.23-.15s-.06-.05-.08-.08l-.13-.2s-.04-.08-.04-.12l-.02-.2s0-.09.02-.14l.09-.2s.04-.06.07-.09l.19-.17s.04-.03.06-.04l.26-.13h0s0,0,0,0h0s.04-.02.06-.02l.32-.08s.04,0,.06,0h.36s.03,0,.05,0l.34.05s.04,0,.05.01l.3.11s.05.02.07.04l.22.16s.05.04.06.07l.13.19s.04.07.04.11l.03.2c0,.05,0,.1-.02.15l-.09.2s-.03.06-.06.08l-.19.18s-.05.04-.07.05l-.27.13s-.02.01-.04.02c-.01,0-.02,0-.03,0l-.32.07s-.03,0-.04,0l-.35.02s-.01,0-.02,0ZM66.92,125.61l.21.04.29-.02.28-.06.21-.1.12-.11.04-.08v-.06s-.08-.1-.08-.1l-.15-.11-.24-.09-.29-.04h-.3s-.09.03-.09.03v.69ZM66.38,125.24h0s0,0,0,0h0ZM172.95,89.97s-.03,0-.04,0l-.34-.05s-.04,0-.05-.01l-.08-.03s-.06-.02-.08-.03l-.14-.05s-.05-.02-.07-.03l-.22-.16s-.04-.04-.06-.06l-.14-.19s-.05-.09-.05-.13l-.02-.21s0-.09.02-.14l.09-.2s.04-.07.07-.09l.19-.17s.04-.03.07-.04l.27-.13s.04-.02.06-.02l.31-.08s.04,0,.06,0h.36s.03,0,.05,0l.34.05s.04,0,.05.01l.3.11s.04.02.06.03l.23.16s.05.04.07.07l.13.19s.04.08.05.13l.02.21s0,.1-.02.14l-.09.19s-.03.06-.06.08l-.19.18s-.04.03-.07.05l-.26.13s-.02.01-.03.01c-.01,0-.03,0-.04.01l-.32.07s-.03,0-.04,0l-.36.02s0,0-.01,0ZM172.76,89.41l.2.03.31-.02.28-.06.2-.1.12-.11.04-.08v-.07s-.07-.09-.07-.09l-.16-.11-.24-.09-.29-.04-.39.03v.7ZM172.22,89.1h0s0-.09,0-.09v.03s0,.06,0,.06ZM19.64,69.82s-.01,0-.02,0h0s-.05,0-.08-.02c-.03-.01-.06-.03-.09-.05,0,0,0,0,0,0,0,0,0,0,0,0,0,0,0,0,0,0h0s0,0,0,0c0,0,0,0,0,0h0l-9.27-9.1s-.02-.02-.03-.04c0,0,0,0,0,0h0s-.02-.03-.03-.04h0s0,0,0,0c0-.02-.02-.04-.02-.06,0-.02,0-.04,0-.06v-9.16s0-.08.02-.11c0,0,0,0,0,0,.01-.03.03-.05.05-.07h0s0,0,0,0c0,0,0,0,0,0,0,0,0,0,0,0,0,0,0,0,0,0,0,0,0,0,0,0h0s0,0,0,0h0s0,0,0,0h0s.05-.04.08-.06c0,0,0,0,0,0,.06-.03.15-.03.21,0,.03.01.05.03.07.05h0s0,0,0,0t0,0s0,0,0,0l9.27,9.11s0,0,.01.01c.02.02.03.04.05.07.02.03.02.07.02.11v9.15s0,.08-.02.11c0,0,0,0,0,0-.01.03-.03.05-.05.07h0s0,0,0,0h0s0,0,0,0h0s-.06.05-.09.06c0,0,0,0,0,0-.03.01-.05.02-.08.02h0s0,0-.01,0ZM11.02,60.16l8.35,8.2v-7.85l-8.35-8.21v7.85ZM43.71,64.28l-.63-.02-.61-.07-.58-.13-.53-.19-.49-.24-.41-.27s-.03-.02-.04-.03l-.31-.31s-.02-.03-.03-.04l-.21-.32s-.02-.03-.03-.05l-.13-.34s-.02-.05-.02-.08l-.02-.35s0-.05,0-.08l.08-.35s.01-.04.02-.06l.17-.33s.02-.03.03-.05l.27-.32s.02-.03.04-.04l.35-.28s.02-.02.04-.02l.43-.24.5-.22s.03-.01.05-.02l.53-.15.6-.11.62-.04.62.02.61.07.58.13.54.19.48.23s.03.01.04.02l.39.27s.03.02.04.03l.3.3s.02.03.03.04l.22.33s.02.04.03.06l.12.34s.01.05.01.07l.02.35s0,.05,0,.07l-.07.35s-.01.05-.03.08l-.18.33s-.02.03-.03.05l-.27.31s-.02.02-.03.03l-.35.29s-.03.02-.04.03l-.43.24-.51.21s-.02,0-.03.01h0l-.53.16-.61.1-.61.05ZM41.48,62.95l.06.04-.05-.09s-.02-.06-.03-.09l-.03-.26s0-.08.01-.12l.09-.26s.02-.06.04-.08l.19-.24s.03-.04.05-.05l.28-.2s.03-.02.05-.03l.04-.02-.17-.31s0,0,0,0l-.16.07-.32.2-.24.23-.15.23-.06.22v.22s.11.23.11.23l.27.31ZM43.44,61.25l.49.02.46.08s.03,0,.04.01l.38.14s.03.01.04.02l.32.18s.04.03.06.04l.23.23s.04.04.05.07l.13.25s.03.07.03.1l.02.26s0,.07-.01.1l-.07.22.04-.03.17-.17.14-.23.06-.22-.02-.22-.09-.23-.18-.22-.28-.22-.35-.19-.44-.15-.47-.1-.5-.04h-.5s-.65.13-.65.13l.17.3.26-.07s.03,0,.04,0l.44-.04ZM40.51,62.65l.2.2-.11-.27s-.02-.06-.02-.09l-.02-.31s0-.06,0-.08l.08-.31s.02-.06.04-.08l.19-.29s.02-.03.04-.05l.28-.27s.03-.02.04-.03l.36-.23s.03-.01.04-.02l.2-.09-.18-.31-.3.13-.38.21-.31.25-.23.27-.14.27-.06.28.02.27.1.27.18.27ZM43.7,60.4l.56.05.54.11.49.17s.03,0,.04.02l.4.21s.03.02.04.03l.32.26s.03.02.04.04l.23.28s.03.05.04.07l.12.31s.01.05.02.07l.03.31s0,.07,0,.1l-.09.31s-.02.05-.03.07l-.03.05.06-.05.23-.27.14-.27.05-.27-.02-.27-.09-.27-.18-.28-.26-.26-.35-.24-.44-.21-.49-.17-.53-.12-.56-.06-.57-.02-.57.04-.68.13.09.15s.01.02.02.03l.05.13.25-.07.55-.09h.57ZM43.11,62.75l.42.05.42-.04.34-.12.2-.19-.22-.12c-.05.02-.11.03-.17.02l-.15-.03s0,.02,0,.03v.04s-.02.05-.03.07c-.02.04-.04.07-.07.09-.03.02-.06.04-.1.05h0s0,0,0,0c-.02,0-.05.01-.07,0h-.27c-.15,0-.27-.12-.27-.27v-.04l-.1.02s-.05.01-.08.01c-.04,0-.09,0-.12-.03l-.22.12v.03s.18.16.18.16l.33.14ZM134.39,33.25h-.62s-.62-.09-.62-.09l-.58-.13-.54-.19-.48-.23s-.03-.01-.04-.02l-.39-.27s-.03-.02-.04-.03l-.3-.3s-.02-.03-.03-.04l-.22-.33s-.02-.04-.03-.06l-.12-.34s-.01-.05-.02-.07l-.02-.35s0-.05,0-.07l.07-.34s.01-.05.03-.07l.18-.34s.02-.03.03-.05l.26-.31s.03-.03.04-.04l.36-.28.44-.27s.02-.01.04-.02l.49-.2s.03,0,.04-.01l.53-.15.6-.11.62-.04h.62s.62.09.62.09l.57.12.54.19.49.24s.02.01.03.02l.39.27s.02.02.03.03l.31.3s.03.03.04.05l.21.32s.02.04.03.06l.12.35s.01.04.01.06l.03.34s0,.06,0,.08l-.08.35s-.01.04-.02.06l-.17.34s-.02.04-.04.06l-.27.31s-.02.02-.03.03l-.35.28s-.02.02-.03.02l-.43.25-.51.21s-.02,0-.03.01c0,0,0,0,0,0l-.54.15-.59.1-.62.04ZM134.15,30.22s0,0,.01,0l.45.02.46.08s.03,0,.04.01l.39.14s.03.01.05.02l.31.19s.03.02.05.04l.23.23s.04.04.05.07l.13.25s.02.06.03.09l.03.26s0,.08-.01.12l-.07.21.05-.04s.02-.02.03-.03l.13-.13.15-.24.06-.22v-.22s-.11-.22-.11-.22l-.19-.23-.27-.21-.37-.2-.41-.15-.49-.11-.49-.03h-.52s-.46.08-.46.08l-.18.05.17.3.25-.06.48-.06s.02,0,.03,0ZM132.12,31.89s.02.01.03.02l.05.04-.03-.06s-.03-.07-.03-.1l-.02-.26s0-.07.01-.1l.08-.26s.03-.06.05-.09l.19-.24s.03-.04.05-.05l.29-.21s.03-.02.05-.03l.04-.02-.17-.32-.16.07-.32.2-.23.23-.15.23-.06.22v.22s.11.23.11.23l.24.27ZM134.39,29.38l.55.04.54.11s.02,0,.04.01l.46.17.43.22s.03.02.04.03l.32.25s.03.03.05.04l.23.29s.03.04.04.06l.13.3s.02.06.02.09l.02.31s0,.06,0,.08l-.08.31s-.02.05-.03.08l-.04.07.08-.06.23-.26.14-.28.06-.27-.02-.26-.1-.28-.17-.26-.27-.26-.35-.24-.44-.22-.47-.17-.52-.11-.56-.08h-.56s-.57.03-.57.03l-.67.13.02.03s.01.02.02.04l.11.24.26-.07s.03,0,.04,0l.52-.07h.58ZM131.19,31.63l.19.19-.11-.26s-.02-.06-.02-.09l-.02-.31s0-.06,0-.08l.08-.31s.02-.05.03-.08l.19-.3s.03-.03.04-.05l.28-.27s.03-.02.04-.03l.37-.23s.03-.01.04-.02l.19-.08-.18-.31-.29.12-.4.24-.31.24-.22.26-.15.28-.05.26.02.27.09.27.18.28ZM133.96,31.76l.43.02.4-.08.29-.15.13-.15v-.12s-.08-.14-.08-.14l-.15-.06s-.04.02-.07.03c0,.02.02.04.02.07,0,.04,0,.08,0,.12t0,0h0s-.03.08-.06.11c-.02.02-.04.04-.07.05-.01,0-.03.01-.04.02l-.18.07s-.09.03-.14.04c-.03,0-.07,0-.1-.02-.04-.01-.07-.03-.1-.06h0s0,0,0,0c-.02-.02-.03-.04-.05-.06l-.03-.04s-.04-.04-.05-.06l-.19.1s-.04.02-.06.02c-.04.01-.08.01-.11,0,0,0-.02,0-.03,0l-.18.16.04.02.37.1Z" fill="#4b18a1"/>
</svg>