<?xml version="1.0" encoding="UTF-8"?>
<svg id="uuid-28b3d15e-2102-441c-b729-a95fa0784b1d" data-name="Layer 1" xmlns="http://www.w3.org/2000/svg" viewBox="0 0 255 101.73">
  <path d="M204.79,62.4s0,0-.01,0l-.24-.03s-.02,0-.02,0l-.23-.07s-.01,0-.02,0l-.21-.11s-.01,0-.02-.01l-.19-.15s-.01,0-.01-.01l-.16-.18s-.01-.01-.01-.02l-.12-.21s0,0,0-.01h0l-.13-.29-.28-.52-.31-.51-.35-.51-.38-.5-.42-.5-.45-.49-.25-.25s0,0,0,0l-4.27-4.19-.07.02s-.01,0-.02,0l-.23.02s-.01,0-.02,0l-.25-.02s-.01,0-.02,0l-.26-.06-.28-.11-.28-.14-.27-.19-.27-.22-.26-.26-.26-.28-.26-.32-.25-.34-.24-.36-.23-.39-.23-.41-.21-.43-.27-.61-3.58-3.51-.06.02s-.01,0-.02,0l-.23.02s-.01,0-.02,0l-.25-.02s-.01,0-.02,0l-.26-.06-.28-.11-.27-.14-.28-.19-.27-.22-.27-.26-.26-.28-.26-.31-.25-.34-.24-.36-.24-.39-.22-.41-.21-.42-.27-.61-5.12-5.02-.33-.31-.53-.47-.56-.46-.6-.44-.62-.44-.65-.42-.69-.41-.37-.2s-.02-.01-.03-.02h0s-.12-.08-.12-.08l-.14-.12s0,0-.01-.01l-.11-.13-.11-.16-.08-.16s0-.01,0-.02l-.05-.16-.04-.18s0-.01,0-.02v-.12s0-.02,0-.02v-.03h0v-3.72h0s0-.03,0-.04v-.05s0-.02,0-.03l.04-.14s0-.01,0-.02l.07-.14s0-.02.02-.02l.11-.13s.01-.01.02-.02l.16-.12s.01,0,.02-.01l.18-.09.12-.05s.03-.01.04-.01l.16-.05.13-.02s0,0,0,0l1.01-.17v-.03s0-.02.01-.03l.02-.04s0-.01.01-.02l.04-.06s.01-.02.02-.02l.11-.1s0,0,.01,0c0,0,0,0,.01,0l.08-.04s.02-.01.03-.02c0,0,0,0,0,0l.27-.1.19-.11.15-.13.1-.11.12-.43s0,0,0-.01v-9.2s0-.02,0-.04v-.15s.04-.36.04-.36l.08-.36.13-.36.18-.35.22-.34.26-.32.3-.31.33-.29.37-.26.4-.24.42-.21.44-.18.24-.09s0,0,0,0l5.45-1.87v-.02s.17-.56.17-.56l.2-.57.24-.56.26-.56.3-.55.32-.54.35-.53.38-.52.4-.5.43-.48.45-.46.47-.44.49-.42.5-.39.52-.37.53-.34.54-.31.55-.29.56-.25.56-.22.56-.19.56-.15.56-.12.55-.08.55-.05h.54s.53.01.53.01l.52.06.5.1.48.13.46.17.44.2.42.23.39.27.37.3.15.14s0,0,0,0c0,0,0,0,0,0l.04.04,1.8,1.77,15.17-5.19s0,0,0,0l.32-.11.48-.12.49-.1.5-.08.5-.05.51-.02h.51s.51.03.51.03l.5.05.5.08.49.1.47.13.46.15.44.18.42.21.39.23.36.25.33.27.18.17s0,0,0,0h0s13.63,13.38,13.63,13.38l.07-.02s.01,0,.02,0l.23-.02s.01,0,.02,0l.25.02s.01,0,.02,0l.26.06.28.11.27.14.28.19.27.22.27.26.26.28.26.31.25.34.24.36.24.39.22.41.21.42.27.61,3.58,3.51.06-.02s.01,0,.02,0l.23-.02s.01,0,.02,0l.25.02s.01,0,.02,0l.26.06.28.11.28.14.27.19.27.21.27.26.26.28.26.31.25.34.24.36.23.39.23.41.21.43.2.44.19.45.17.46.16.47.14.47.12.47.1.47.08.46.06.46.05.44.02.65s0,0,0,0h0s0,0,0,.01v.3s-.03.39-.03.39l-.05.37-.07.34-.1.32-.12.28-.14.25-.16.22s0,.01-.01.02l-.17.17-.2.15s-.01,0-.02.01h-.02s0,.01,0,.01l-.2.1s-.02,0-.03.01h-.01s-1.19.41-1.19.41c0,0-.02,0-.03,0h0s0,0-.01,0l-.14.04s-.01,0-.02,0h-.12v.96h0s0,.18,0,.18l.04.35.12.48.15.38.16.3.14.22.26.33.07.07.42.39.34.24s0,0,.01,0c0,0,0,0,0,0l.03.02s.02.01.03.02l.04.03s.02.02.02.03l.05.05s.02.02.02.03l.06.08s0,.01,0,.02l.06.15s0,.03,0,.04v.07l.38.22.38.21s0,0,.01,0l.15.1s0,0,.01.01l.13.12s.01.01.02.02l.09.13s0,.02.01.02l.06.14s0,.02,0,.03l.02.15s0,.01,0,.02h0v3.73h0s0,.03,0,.03h0s-.02.2-.02.2c0,0,0,.02,0,.02l-.06.22s0,.01,0,.02l-.09.2s0,.01-.01.02l-.13.18s-.01.01-.02.02l-.17.16s0,0-.02.01l-.18.13s-.01,0-.02.01l-.21.09s-.01,0-.02,0l-.22.05s-.01,0-.02,0l-.64.1-.96.17-.95.19-.94.21-.92.24-.9.25-.88.28-.45.15s0,0,0,0l-6.16,2.11-.24.5-.29.55-.33.54-.35.52-.38.51-.4.5-.43.48-.45.46-.46.44-.49.42-.5.4-.52.37-.53.34-.54.32-.54.28-.56.25-.56.22-.56.19-.56.15-.56.12-.55.09-.55.05-.53.02-.52-.02-.51-.05-.49-.09-.48-.13-.46-.16-.43-.19-.32-.18s-.01,0-.02-.01c0,0,0,0,0,0l-.28-.17-.4-.3-.32-.29s-.01-.01-.02-.02l-.71-.69-14.07,4.81s0,0,0,0l-.56.2-.84.32-.81.33-.79.35-.76.37-.74.38-.7.4-.36.21s0,0-.01,0l-.21.11s-.01,0-.02,0l-.23.06s-.02,0-.02,0l-.24.02s0,0,0,0ZM204.58,62.13l.21.02.21-.02.21-.06.19-.1.08-.06.06-.1.03-.1-.08.03s-.01,0-.02,0l-.24.06-.27.03h-.27s-.27-.02-.27-.02l-.26-.06-.23-.09s-.01,0-.02,0l-.08-.05.02.04.14.16.17.14.19.1.21.06ZM205.84,61.59v.13s-.01.01-.02.02l.65-.37.74-.39.77-.37.79-.35.82-.34.84-.32.57-.2h.02s.04-.06.04-.06l.05-.09.03-.13-.59.21-.74.29-.72.3-.71.31-.68.33-.66.34-.64.35-.57.33ZM204.05,61.46l.21.08.23.05.24.02h.25s.24-.04.24-.04l.13-.04v-3.48l-.08.02-.27.03h-.27s-.27-.02-.27-.02l-.26-.06-.23-.09s-.01,0-.02,0l-.18-.11s-.01,0-.02-.02l-.03-.03v3.36l.07.1.12.11.16.1ZM205.58,58v3.46l.03-.02v-3.46l-.03.02ZM205.85,57.86v3.44l.44-.26.65-.36.67-.35.69-.33.71-.31.73-.3.74-.29.68-.24v-3.88l-.55.2-.55.21-.86.36-.83.38-.8.41-.75.41-.06.09v.2s0,.01,0,.02c0,.02,0,.03-.02.05,0,.01-.02.03-.03.04,0,0,0,0-.01,0l-.84.49ZM200.97,57.34l.41.41.42.47.38.46.36.48.33.48.3.49.28.52v-3.16l-.34-.68s0,0,0,0c0,0,0-.02-.01-.03,0,0,0-.02,0-.03v-.25s-.04-.11-.04-.11l-.38-.65-.43-.65-.78-.98-.35-.39-.16-.17v3.79ZM211.4,59.04v.11s0,.01-.01.02l-.03.11,13.61-4.66s0,0,0,0l-.18-.16-13.4,4.59ZM211.41,54.81v3.97l13.19-4.52-1.32-1.29-.24-.13-.43-.27-.39-.3-.18.35-.25.42-.28.41-.3.39-.32.38-.35.36-.37.34-.38.31-.4.29-.41.26-.42.23-.43.2-.43.17-.44.14-.43.1-.43.07-.42.03h-.41s-.4-.05-.4-.05l-.38-.08-.36-.11-.35-.15-.26-.14s-.01,0-.01,0c-.01,0-.02-.01-.03-.02l-.3-.2-.24-.21s-.02-.01-.03-.02l-.74-.72s0,0-.01-.01l-.13-.15s0,0-.01,0l-.18-.17s-.02-.01-.02-.02l-.14-.13-.06-.02-.35-.18-.33-.22-.3-.25-.27-.29-.23-.33-.11-.2v1.57l.98.07s.01,0,.01,0c0,0,.02,0,.03,0,0,0,.02,0,.03.01,0,0,0,0,0,0h0s.01,0,.02.02h0s0,0,0,0c0,0,0,0,0,0,0,0,0,0,0,0,0,0,0,0,0,0,0,0,0,0,0,0,0,0,0,0,0,0,0,0,0,0,0,0,0,0,0,0,0,0,0,0,0,0,0,0,0,0,0,0,0,0h0s0,.01.01.02c0,0,0,.01,0,.02h0s0,0,0,0c0,0,0,.02,0,.03h0s0,0,0,0h0s0,0,0,0h0s0,0,0,0h0s0,0,0,0c0,0,0,0,0,0,0,0,0,0,0,0h0s0,0,0,0h0s0,0,0,0h0ZM204.05,57.74l.21.08.23.05.24.02h.25s.24-.04.24-.04l.12-.03-.04-.11-.13.04s-.01,0-.02,0l-.23.02h-.25s-.24-.04-.24-.04c0,0-.01,0-.02,0l-.21-.07s-.01,0-.02,0l-.17-.09s-.01,0-.02-.01l-.13-.11s-.02-.02-.02-.03l-.03-.05-.04.03-.03.04.06.09.12.11.16.1ZM205.51,57.64l.04.11.04-.02-.06-.1h-.03ZM205.75,57.5l.06.1.63-.37-.08-.09-.61.35ZM204.45,57.5l.21.03h.22s.2-.02.2-.02l.2-.05s0,0,0,0h.04s.01-.02.02-.02l.13-.06s0,0,0,0l.83-.48.05-.18s0,0,0,0l.03-.17-.04-.1-.09-.13-.13-.12-.17-.11-.21-.09-.23-.07-.25-.04-.27-.02h-.26s-.26.05-.26.05l-.35.11-.11.05-.1.06-.16.13-.06.07-.08.13-.02.05.32.64.07.11.11.09.15.08.19.06ZM203.38,56.78l.22.43.07-.05-.21-.43s0,0,0,0l-.07.04ZM197.22,53.65l3.51,3.45v-3.85s0-.01,0-.02h0s0,0,0,0c0,0,0-.02,0-.02,0,0,0,0,0,0h0s0-.01,0-.02h0s0,0,0,0c0-.01.02-.02.03-.03,0,0,.01,0,.02-.01h0s0,0,0,0h0s0,0,0,0h0s0,0,0,0c0,0,0,0,0,0t0,0s0,0,0,0h0s0,0,0,0h0s0,0,0,0h0s0,0,0,0c0,0,0,0,0,0,0,0,0,0,0,0,0,0,0,0,0,0h0s0,0,0,0h0s0,0,0,0h0s0,0,0,0h0s0,0,0,0h0s0,0,0,0h0s0,0,0,0h0s0,0,0,0c0,0,.01,0,.02,0,.01,0,.03,0,.04,0,0,0,.01,0,.02,0l.49.14v-1.35l-.11.21-.16.23s0,.01-.01.02l-.17.17s0,0-.02.01l-.19.13s-.01,0-.02.01l-.21.09s-.02,0-.02,0l-.22.04s-.02,0-.02,0h-.24s-.01,0-.02,0l-.26-.05-.99.34s-.02,0-.03.01c0,0-.01,0-.02,0l-.16.04s-.01,0-.02,0h-.14s-.03.04-.03.04c0,0-.01,0-.02.01l-.2.1s-.02,0-.03.01h0s-.01,0-.02,0h-.01s-.79.27-.79.27ZM224.79,51.21l.02.54.06.52.1.5.14.48.17.46.21.43.25.4.28.38.31.34.34.32.37.27.4.25.43.2.46.17.48.13.5.1.51.05.53.02.55-.02.56-.06.57-.1.57-.14.58-.18.58-.21.57-.25.57-.29.56-.32.55-.35.54-.39.52-.41.5-.44.48-.46.46-.49.44-.51.4-.53.38-.54.35-.55.32-.56.28-.57.25-.58.21-.58.17-.58.14-.58.1-.57.06-.56.02-.54-.02-.54-.06-.52-.1-.5-.14-.48-.17-.46-.21-.43-.25-.4-.28-.38-.31-.34-.34-.31-.38-.28-.4-.24-.43-.2-.46-.17-.48-.13-.5-.1-.51-.05-.53-.02-.55.02-.56.06-.57.1-.57.14-.58.18-.58.22-.57.25-.57.29-.56.32-.55.35-.54.39-.52.41-.5.44-.48.46-.46.49-.43.51-.4.52-.38.54-.35.55-.32.56-.28.57-.25.58-.21.58-.17.58-.14.58-.1.57-.06.56-.02.54ZM206.64,56.57h.05s0,0,0,0l.02-.23v-.28s-.1-.6-.1-.6l-.16-.63.06.26.07.4.05.49v.28s0,0,0,0h0s0,.25,0,.25c0,0,0,0,0,.01,0,.01,0,.02,0,.03ZM206.52,54.24l.19.58.15.6.09.62v.31s0,.09,0,.09l1.37-.64,1.6-.65.12-.37-.12-.06-.22-.15-1.04-.76-.39-.27-.42-.27-.45-.26-.48-.24-.37-.14-.38-.1-.53-.1.24.4.34.67.31.71s0,0,0,0c0,0,0,0,0,0ZM212.79,53.19l.02.4.06.38.09.36.13.34.16.31.19.28.23.26.26.22.28.19.31.16.34.13.36.08.38.05.39.02.41-.02.41-.06.43-.1.43-.14.43-.17.43-.21.42-.24.41-.27.39-.3.38-.32.36-.35.33-.37.31-.39.29-.4.25-.42.23-.42.19-.43.15-.45s0,0,0-.01l.04-.94h0s0-.51,0-.51c0,0,0-.01,0-.02,0,0,0-.02,0-.03l-.02-.76-.03-.63s0,0,0-.01v-.02l-.15-.31-.19-.29-.22-.26-.25-.24-.28-.2-.31-.17-.33-.13-.36-.1-.37-.06-.39-.03h-.41s-.41.06-.41.06l-.42.09-.43.12-.43.16-.43.2-.42.23-.41.26-.4.29-.38.31-.37.34-.34.36-.32.38-.29.4-.26.41-.23.42-.2.43-.17.44-.13.43-.09.42-.06.42-.02.4ZM203.33,56.08l.09.02s.01,0,.02,0h.02s.02-.06.02-.06l.16-.48.34-.87.13-.31s0,0,0,0l.1-.22-.19.35-.27.53-.25.55-.11.28-.06.2ZM205.01,55.64l.29.02.28.05.26.07.23.1s.01,0,.02,0l.19.12s.01,0,.02.01l.11.1v-.1s-.06-.47-.06-.47l-.07-.39-.08-.39-.11-.41-.12-.41-.15-.41-.17-.42-.18-.4-.09-.17-.14.22-.25.42-.24.45-.22.47-.16.37v1.25l.09-.03.28-.04h.29ZM204.11,55.04l-.24.62-.11.33.05-.04.12-.07.18-.08v-.76ZM201.7,53.95l.85,1.01.61.88v-.04s.13-.29.13-.29l.25-.56.27-.54.28-.51s0,0,0,0l.39-.6.4-.56.27-.34-.14-.02-.33-.04h-.41s-.35.02-.35.02l-.54.15-.46.19-.4.22-.3.2-.5.36s-.01,0-.02.01l-.08.04.05.33v.11ZM213.36,55.55l.14.12-.24-.27-.21-.31-.18-.34-.14-.36-.1-.39-.06-.4v-.28s-.03,0-.03,0c0,0-.01,0-.02,0h-.05s0,0-.01,0v.23s.07.39.07.39l.1.37.13.35.21.39.16.23.24.27ZM225.31,54.43l.09.14.29.39.32.35.38.34-.24-.22-.33-.36-.29-.4-.26-.42-.22-.45-.18-.48-.14-.5-.1-.52-.06-.54-.02-.42h-.1s.01.36.01.36l.06.53.1.52.14.49.18.47.22.44.16.27ZM210.27,54.86l-.07.2.49-.17-.42-.03ZM212.25,54.35l.16.24.09.11-.12-.31-.1-.4-.06-.42-.02-.39-.45-.45v.11s.06.4.06.4l.1.37.13.34.2.39ZM207.02,52.58l.49.24.46.27.43.27.68.48.76.56.24.15v-2.04l-.16-.65s0-.01,0-.02l-.04-.56-.36.1-.53.11-.54.09-.55.06-.56.03h-.57s-.56-.02-.56-.02l-.56-.05-.54-.08-.53-.11-.51-.14-.49-.16-.47-.19-.44-.21-.4-.23-.37-.25-.14-.12-.02.46-.09.63v2.05l.63-.44.16-.1.42-.23.48-.2.56-.15s.01,0,.02,0c0,0,0,0,0,0l.38-.04h.43s.35.05.35.05l.35.05s0,0,0,0l.4.07.4.08.4.11.39.15s0,0,0,0h0s0,0,0,0ZM224.61,53.73l.09.15.14.19-.12-.25-.18-.48-.15-.51-.1-.54-.06-.55-.02-.52-.46-.45v.26s.07.53.07.53l.1.51.14.49.18.47.22.44.16.27ZM210.35,52.55l.1.25.18.32.21.3.25.27.11.09s0,0,0,0l-.17-.19-.3-.41s0,0,0,0c0,0,0,0,0,0h0s0,0,0,0l-.14-.26-.15-.35h-.05s-.03,0-.03,0ZM201.31,53.55l.1.11-.02-.12-.13-.04.05.05ZM211.38,53.62l.04.04-.13-.34-.1-.4-.06-.42-.02-.38-.66-.64.02.18.03.18.06.31.09.3.15.37.19.32.23.31.16.18ZM197.66,51.11v.23s-.04.39-.04.39l-.06.36-.08.33-.11.3-.13.26s0,.01,0,.02l-.15.21s0,0-.01.01l-.16.17s-.01.01-.02.02l-.18.13s-.01,0-.02.01l-.12.05h.02s.16-.04.16-.04c0,0,.02,0,.02,0h0s.16-.08.16-.08l.16-.12.15-.16.14-.21.12-.25.1-.28.08-.32.06-.35.03-.38v-.27s0,0,0,0h-.09ZM196.01,53.44h.2s.19-.03.19-.03l.17-.08.16-.11.15-.15.14-.2.12-.24.1-.28.08-.31.06-.34.03-.38v-.4s0-.43,0-.43l-.04-.45-.06-.47-.08-.47-.11-.49-.12-.49-.15-.49-.16-.48-.18-.48-.2-.47-.21-.45-.23-.43-.24-.41-.24-.38-.25-.36-.26-.33-.26-.29-.26-.25-.25-.21-.25-.17-.24-.13-.22-.08-.22-.05h-.2s-.19.03-.19.03l-.18.07-.16.12-.15.15-.14.2-.12.24-.1.27-.08.31-.06.35-.03.37v.4s0,.43,0,.43l.03.45.06.46.08.48.1.48.12.49.14.49.16.49.18.48.2.46.21.46.23.43.24.41.24.39.25.35.26.33.26.29.26.25.26.21.25.17.24.13.22.08.22.05ZM211.36,52.24v.23s.07.4.07.4l.1.37.05.13-.07-.37-.04-.41v-.19s0,0,0-.01v-.13s-.1,0-.1,0ZM198.01,51.07v.33s-.04.4-.04.4l-.06.37-.08.34-.11.31-.13.27-.15.23.46-.16s.03-.01.04-.02h.03s.16-.09.16-.09l.16-.13.15-.16.13-.2.12-.25.1-.28.08-.32.06-.35.03-.38v-.23s-.95.33-.95.33ZM222.44,51.79l1.39,1.37-.21-.42-.18-.49-.15-.51-.1-.53-.06-.55-.02-.52-.45-.44v.03s0,.03,0,.05c0,0,0,0,0,0v.47s0,0,0,.01l-.04.95s0,0,0,.01v.07s0,0,0,0c0,.02,0,.04-.01.06l-.16.44ZM212.5,53.08h.03s.03,0,.03,0v-.32s.07-.44.07-.44l.1-.44.14-.45.17-.45.2-.44.24-.44.27-.42.3-.41.33-.4.35-.37.38-.35.4-.32.41-.3.43-.27.43-.23.44-.2.45-.16.44-.13.44-.09.44-.05h.43s.41.02.41.02l.4.06.38.11.35.14.33.19.3.22.13.13s0-.02-.01-.03l-.23-.22-.36-.26-.25-.14-.35-.14-.38-.1-.4-.06-.42-.03-.43.02-.44.05-.45.1-.45.14-.45.17-.44.21-.43.24-.43.27-.41.3-.4.33-.38.35-.36.38-.33.4-.3.42-.27.43-.24.44-.21.45-.17.44-.13.45-.1.44-.06.43-.02.35.05.02ZM198.84,52.69h0s-.13.18-.13.18l.08-.04.16-.12.15-.16.14-.21.12-.25.1-.28.08-.32.06-.35.03-.38v-.27s0,0,0,0h-.09s0,.22,0,.22l-.04.39-.06.36-.08.33-.11.3-.13.26s0,.01,0,.02l-.15.21-.1.12ZM211.74,52.39l.48.47v-.17s.07-.45.07-.45l.1-.46.14-.47.18-.46.21-.46.25-.45.28-.44.31-.43.34-.41.37-.39.39-.36.41-.34.42-.31.44-.28.44-.25.46-.21.28-.11-.52-.51-.38.15-.44.2-.44.24-.42.27-.42.3-.4.33-.37.36-.35.38-.33.4-.3.41-.27.43-.24.44-.21.45-.17.45-.14.45-.1.44-.06.44v.1s.05.03.06.06c.03.06,0,.13-.06.16h-.01s0,.04,0,.04ZM199.87,50.43v.33s-.04.4-.04.4l-.06.37-.08.34-.11.31-.13.27-.15.23.34-.12s.02,0,.03-.01l.44-.15s0,0,0,0h0s.16-.07.16-.07l.16-.12.15-.16.14-.19.12-.24.1-.27.08-.3.06-.32.05-.5v-.24s-1.28.44-1.28.44ZM201.25,51.19l-.07.24-.11.29-.13.26s0,.01,0,.02l-.15.21s0,0-.01.01l-.17.17s-.01.01-.02.01l-.18.13s-.01,0-.02.01l-.11.05.12-.03.19-.08.17-.12.16-.16.15-.21.13-.25.11-.28.07-.25-.03-.02-.08-.02ZM210.15,51.8l.13.52h.02s.01,0,.02,0h.03s-.05-.19-.05-.19l-.05-.25-.05-.38v-.26s-.1-.02-.1-.02l.04.59ZM223.36,50.28v.36s.08.53.08.53l.1.51.17.57-.02-.06-.11-.49-.07-.51-.04-.52v-.28s0,0,0,0v-.12s-.02,0-.02,0c0,0-.01,0-.02,0h-.05s-.01,0-.02,0ZM222.33,52.04l.06.05-.05-.05h0ZM211.36,52h.08s.02.01.02.01l.02-.35.06-.46.1-.47.15-.48.19-.47.23-.47.26-.45.3-.45.33-.42.36-.41.39-.38.4-.35.43-.32.45-.29.45-.26.47-.22.38-.14-.02-.06-.02-.05-.36.14-.44.21-.43.24-.43.27-.41.3-.4.33-.37.36-.36.38-.33.4-.3.42-.27.43-.24.44-.21.45-.17.45-.13.45-.1.44-.06.43-.02.35h.01ZM210.44,51.12l.67.66v-.17s.07-.45.07-.45l.1-.46.14-.47.18-.47.21-.46.25-.45.28-.44.31-.43.34-.41.37-.39.39-.37.41-.34.42-.31.44-.28.45-.25.46-.21.46-.18s0,0,.01,0l.46-.14.47-.1.46-.06h.45s.44,0,.44,0l.42.07.4.12.21.09-.11-.11-.3-.24-.33-.2-.36-.16-.38-.12-.41-.07-.43-.03h-.44s-.46.07-.46.07l-.46.1-.47.14-.47.18-.47.22-.45.26-.44.3-.43.33-.41.35-.39.38-.36.41-.34.43-.3.44-.27.46-.23.46-.19.47-.15.47-.1.41-.09.58-.02.38ZM201.75,49.81l.28.23.35.24.39.22.42.2.45.18.48.15.5.13.52.11.53.08.54.05.55.03h.55s.55-.04.55-.04l.54-.06.53-.09.51-.11.41-.12.05-.66.16-.77v-6.66l-.33.1-.52.13-.53.1-.54.07-.56.05-.56.02h-.56s-.55-.05-.55-.05l-.55-.07-.54-.09-.52-.12-.5-.14-.48-.17-.45-.2-.42-.22-.39-.24-.35-.26-.11-.1v6.56l.09.8.03.71ZM224.47,51.11h.07s.01,0,.01,0l.02-.46.06-.58.1-.59.14-.59.18-.59.22-.59.25-.59.28-.58.33-.58.35-.56.39-.55.41-.53.44-.52.47-.5.49-.47.51-.45.53-.42.55-.39.56-.36.57-.33.58-.29.58-.25.59-.22.59-.18.58-.15.58-.1.58-.06.56-.02.55.02.53.05.52.1.5.14.48.18.45.21.42.26.39.29.36.33.12.13-.18-.2-.34-.32-.37-.28-.39-.25-.43-.22-.45-.18-.47-.15-.49-.1-.52-.07-.53-.03h-.54s-.56.05-.56.05l-.56.08-.57.12-.58.16-.57.2-.58.24-.58.27-.57.31-.56.33-.55.37-.53.4-.51.43-.5.45-.47.47-.46.5-.43.51-.4.53-.37.55-.35.56-.31.57-.28.57-.24.58-.21.59-.17.58-.13.58-.1.58-.06.56-.02.48h.02ZM210.12,50.98h.08s.01-.26.01-.26l.09-.6.08-.35-.1-.04-.14.66-.04.58h.01ZM201.31,50.95h0s.01,0,.02,0l.08.02.06-.43.03-.61h-.05s-.04-.01-.04-.01h0s-.01.33-.01.33l-.05.52-.03.17ZM223.74,50.42l.47.47v-.28s.07-.58.07-.58l.1-.59.14-.59.17-.59.21-.6.25-.59.29-.58.32-.58.35-.57.38-.56.41-.54.43-.52.47-.51.48-.48.51-.46.52-.43.54-.4.56-.38.57-.34.58-.31.59-.27.59-.24.59-.2.59-.16.58-.13.58-.09.57-.05h.56s.55.02.55.02l.53.07.51.11.49.16.51.21-.12-.09-.41-.25-.44-.21-.46-.18-.49-.14-.51-.1-.53-.06-.55-.02-.56.02-.57.07-.58.1-.59.15-.59.18-.6.22-.58.26-.59.3-.57.33-.56.36-.55.39-.54.43-.52.45-.49.48-.48.5-.44.52-.42.54-.39.56-.36.57-.32.58-.29.59-.25.59-.22.59-.18.59-.14.59-.1.58-.06.58-.02.51ZM197.66,50.86l.1.02h0s-.01-.33-.01-.33l-.03-.46-.06-.47-.08-.48-.1-.49-.12-.5-.14-.5-.16-.5-.18-.49-.2-.48-.21-.47-.22-.44-.24-.43-.24-.4-.25-.38-.26-.34-.26-.31-.26-.27-.26-.24-.26-.19-.26-.16-.23-.11-.23-.07-.22-.03h-.2s-.16.05-.16.05c0,0-.02,0-.03.01h-.02s-.1.06-.1.06l.19-.04s.02,0,.03,0h.23s.02,0,.02,0l.24.05s.01,0,.02,0l.25.09.27.15.27.19.27.23.27.26.27.3.26.34.26.37.25.39.24.42.23.44.22.46.2.48.18.49.16.49.15.5.12.5.11.5.08.49.06.48.04.46v.38ZM193.6,42.14l.21.06s.01,0,.02,0l.26.12.28.17.27.21.27.25.27.28.27.32.27.35.26.39.25.41.24.44.23.45.22.47.2.49.18.5.16.51.14.51.13.51.1.5.08.49.06.48.03.47v.28s.97-.33.97-.33v-.35s-.05-.46-.05-.46l-.06-.47-.08-.48-.1-.49-.12-.5-.14-.5-.16-.5-.18-.49-.2-.48-.21-.46-.23-.45-.24-.43-.24-.4-.25-.38-.26-.34-.26-.31-.26-.28-.26-.24-.26-.19-.25-.16-.23-.11-.23-.07-.22-.03h-.21s-.15.05-.15.05c-.01,0-.03,0-.04,0l-.16.06s-.03.01-.04.02l-.29.1ZM199.52,50.23l.1.02h0s-.01-.33-.01-.33l-.03-.46-.06-.47-.08-.48-.1-.49-.12-.5-.14-.5-.16-.5-.18-.49-.2-.48-.21-.47-.22-.44-.24-.43-.24-.4-.25-.38-.26-.34-.26-.31-.26-.27-.26-.24-.25-.19-.26-.16-.23-.11-.23-.07-.22-.03h-.2s-.05.02-.05.02l.12.03.09.03s.03,0,.04,0l.2.04.26.1.27.15.27.19.27.23.27.27.27.3.27.34.26.37.25.39.24.42.23.44.21.46.2.48.18.49.17.5.15.5.12.5.11.5.08.49.06.48.04.46v.38ZM195.46,41.51l.21.06s.01,0,.02,0l.26.12.28.17.27.21.27.25.27.28.27.32.27.35.26.39.25.41.24.44.23.45.21.48.2.49.18.5.16.51.14.51.13.51.1.5.08.49.06.48.03.47v.28s1.3-.44,1.3-.44l-.02-.43-.06-.58-.05-.39h0s-.08-.49-.08-.49l-.11-.49-.12-.49-.15-.49-.16-.49-.18-.48-.2-.47-.21-.46-.23-.44-.24-.42-.24-.39-.25-.37-.26-.34-.26-.3-.26-.27-.26-.23-.25-.19-.25-.15-.24-.1-.22-.07-.21-.02h-.2s-.16.05-.16.05l-.83.29ZM223.41,50.04h.03s.03,0,.03,0l.02-.46.06-.58.1-.59.14-.59.18-.59.22-.59.25-.59.28-.58.33-.58.35-.56.39-.55.41-.54.44-.52.47-.5.49-.47.51-.45.53-.42.55-.39.56-.36.57-.33.58-.29.58-.26.5-.18-.04-.11-.51.19-.59.26-.58.3-.58.33-.56.36-.55.39-.53.43-.52.45-.5.48-.47.5-.45.52-.42.54-.39.56-.35.57-.32.58-.29.59-.25.59-.22.59-.18.59-.14.59-.1.59-.06.58-.02.49.06.02ZM222.64,49.35l.47.46v-.29s.07-.59.07-.59l.1-.6.15-.6.18-.61.22-.61.26-.61.3-.6.33-.59.36-.58.4-.57.42-.55.46-.53.48-.51.51-.49.52-.46.54-.43.56-.4.57-.37.59-.34.59-.3.6-.26.6-.23s0,0,.01,0l.59-.18.6-.15.6-.1.59-.07.58-.02.56.02.55.06.53.1.51.14.49.18.36.17-.39-.38s0,0,0,0l-1.01-.99-.25-.23-.38-.29-.24-.16-.16-.1-.44-.22-.46-.18-.48-.14-.51-.1-.52-.07-.54-.03h-.56s-.56.07-.56.07l-.48.07-.48.1-.48.12-.48.15-.37.14-.37.15-.38.18-.75.39-.57.34-.56.37-.55.4-.53.43-.51.46-.49.48-.46.51-.44.52-.41.54-.38.56-.35.57-.31.58-.28.59-.24.59-.21.59-.17.59-.12.52.85.84s0,0,0,0h0s.01.02.02.02c0,0,0,0,0,0h0s0,.02.01.03c0,0,0,0,0,0l.05.24.23.28.11.17s.01.02.01.03l.07.1.17.34.05.11s.02.04.02.07v.07s0,0,0,.01l.04,1.08ZM201.4,49.68h.09s-.02-.56-.02-.56l-.08-.71h-.01s-.09,0-.09,0l.05.38.05.5v.39ZM210.36,49.5l.11.04.11-.33.2-.49.24-.48.28-.47.31-.45.35-.44.37-.42.4-.4.42-.36.45-.34.46-.3.47-.26.48-.23.34-.13-.04-.11-.32.12-.45.21-.45.24-.44.28-.42.31-.41.34-.39.36-.37.38-.34.4-.31.42-.29.44-.25.45-.22.45-.19.46-.1.31ZM241.25,48.83l-.11.27,5.97-2.04.05-.05.05-.09.03-.13-5.98,2.05ZM210.32,42.85v6.02l.1-.25.22-.47.26-.46.3-.45.32-.44.35-.41.38-.4.4-.37.42-.35.44-.32.45-.29.46-.25.47-.22.47-.18s0,0,.01,0l.47-.14.48-.11.47-.06.46-.02.45.02.43.06.41.11.39.15.36.19.33.23.3.27s0,0,0,0c0,0,0,0,0,0,0,0,0,0,0,0h0s0,0,0,0l.22.24.2.28.09.15.07.13.06-.26.18-.62.22-.62.26-.62.29-.61.33-.61.37-.59.4-.58.43-.56.46-.55.49-.53.51-.5.53-.47.56-.45.57-.42.24-.16-16.05,5.49ZM189.47,46.05l2.67,2.62-.05-.16-.14-.47-.12-.47-.1-.47-.08-.47-.06-.45-.05-.44-.02-.39-.59.2s-.02,0-.03,0t0,0h0s0,0-.01,0l-.14.04s-.01,0-.02,0l-.15.02-.03.02s-.01,0-.02.01h-.02s0,.01,0,.01l-.2.1s-.02,0-.03.01h-.01s-.79.27-.79.27ZM241.84,46.76l-.06.34-.14.56-.17.57-.11.31,5.89-2.01v-.5l-.08.05-.41.25-.43.22-.43.19-.43.16-.44.13-.43.09-.43.06-.42.02h-.41s-.4-.06-.4-.06l-.38-.09-.36-.12-.36-.17ZM196.66,40.93s0,0,.01,0l.23.03s.01,0,.02,0l.25.08.26.12.27.17.27.2.27.24.27.28.27.32.26.34.26.38.25.4.24.43.23.45.21.47.2.48.19.49.17.5.15.5.13.5.11.5.06.37h.1s-.06-.35-.06-.35l-.11-.51-.13-.51-.15-.52-.17-.51-.19-.5-.21-.49-.22-.48-.23-.46-.24-.44-.26-.41-.26-.38-.27-.35-.27-.31-.27-.28-.27-.24-.27-.2-.26-.15-.25-.11-.23-.07-.23-.03h-.21s-.19.06-.19.06l-.1.05.1-.02s.01,0,.02,0h.22s0-.01,0-.01ZM221.78,47.28l.04.04-.03-.04s0,0-.01,0ZM196.81,40.61s.01,0,.02,0l.25.03s.01,0,.02,0l.25.08.28.13.28.17.28.21.29.25.28.29.28.32.27.36.27.39.26.42.25.44.24.47.22.49.21.5.19.51.18.52.15.52.1.38v-5.59l-15.03-14.75v.23s0,0,0,0h0s0,0,0,.01v.07s-.01.03-.02.04v.03s-.03.02-.04.03h-.01s-.03.03-.04.04h-.02s-.05.02-.07.02h-.02s-.03-.01-.04-.02l-.05-.03s-.01,0-.02-.01c0,0,0,0,0,0l-.22-.22h0s-.03-.03-.03-.03c0,0-.01-.01-.02-.02l-.07-.13s0-.01,0-.02l-.04-.15s0-.01,0-.02v-.04h0v-.47l-.53-.52v.23s0,0,0,0c0,0,0,0,0,0v.07s-.02.03-.03.05v.02s-.02.02-.03.02h-.01s-.03.03-.04.04h-.02s-.05.02-.07.02h-.02s-.01,0-.02-.01h-.02s-.02-.02-.03-.03l-.03-.02s0,0-.01,0c0,0,0,0,0,0l-.25-.25s-.01-.01-.02-.02l-.07-.13s0-.01,0-.02l-.04-.15s0-.01,0-.02v-.51l-5.34-5.24v7.94l6.88,6.75.39-.13s0,0,0,0c0,0,0,0,0,0h.02s0,0,0,0l.15-.04s.01,0,.02,0h.14s.04-.04.04-.04c0,0,.01,0,.02-.01l.24-.12s.01,0,.02,0h0s0,0,0,0c0,0,0,0,0,0l1.02-.35.14-.16s.01-.01.02-.02l.18-.15s.01,0,.02-.01l.2-.11s.02,0,.03-.01l.21-.06s.01,0,.02,0l.22-.03s.02,0,.03,0l.24.02s.01,0,.02,0l.25.06s.01,0,.02,0l.26.11.27.15.28.19.28.24.28.27.28.31.27.34.26.37.26.4.25.42.24.45.23.47.21.48.2.5.18.51.16.51.14.52.13.51.1.51.08.5.06.48.03.41.05-.02s0,0,0,0h0s.02,0,.02,0c0,0,0,0,0,0l.15-.04s.02,0,.02,0h.14s.04-.04.04-.04l.22-.11s.01,0,.02,0h0s.02,0,.02-.01h.01s0,0,0,0l1.03-.36.16-.18s0,0,.01-.01l.18-.15s.01-.01.02-.01l.21-.1s.01,0,.02,0l.21-.06s.02,0,.02,0h.23s0-.01,0-.01ZM247.49,46.7v.11s0,.01-.01.02l-.03.12.1-.03.89-.28.9-.26.93-.24.94-.22.95-.19.97-.18.61-.09v-.02s.04-.09.04-.09l.02-.17-.71.12-.85.16-.83.17-.83.19-.82.21-.8.22-.79.24-.69.23ZM241.91,46.27l.1.07.31.17.33.13.35.1.37.06.39.03h.41s.41-.06.41-.06l.42-.09.43-.12.43-.16.43-.2.42-.23.41-.26.4-.29.38-.31.37-.34.34-.36.32-.38.29-.4.26-.41.23-.42.2-.43.16-.43.13-.44.09-.42.06-.42.02-.4-.02-.4-.06-.38-.09-.36-.13-.34-.16-.32-.2-.28-.23-.26-.26-.22-.28-.19-.31-.16-.34-.13-.36-.08-.38-.05-.4-.02-.4.02-.42.06-.43.1-.43.14-.43.17-.43.21-.42.24-.41.27-.39.3-.38.32-.36.35-.34.37-.31.39-.28.4-.26.42-.22.42-.24.56v.02s.02.02.02.03c0,0,0,0,0,0l.16.26.21.43.18.45.14.47.11.49.07.51.04.52v.28s0,0,0,0h0s0,.01,0,.02v.18s-.03.54-.03.54l-.03.28ZM247.49,45.84v.59l.62-.2.79-.24.8-.22.82-.21.83-.19.84-.18.85-.16.76-.12v-3.48l-1.08.18s0,0-.02,0c-.01,0-.02,0-.03,0h0s0,0,0,0c0,0,0,0,0,0,0,0,0,0,0,0h0s-.03-.01-.04-.02c-.01,0-.02-.02-.03-.03,0,0,0,0,0-.01h0s0,0,0,0c0-.01-.01-.03-.01-.04,0,0,0,0,0-.01v-.18h-.02s-1.08.18-1.08.18l-.98.21-.06.19-.16.44-.2.43-.23.42-.25.42-.28.41-.3.39-.33.37-.35.35-.37.33-.47.37ZM217.04,45.8l.51.5.39-.12.47-.1.46-.06.45-.02.44.03.42.07.4.11.18.07h0s-.3-.22-.3-.22l-.1-.06s-.01,0-.02,0h0s-.2-.1-.2-.1l-.35-.15-.38-.1-.4-.06-.41-.02h-.43s-.44.07-.44.07l-.45.1-.26.08ZM189.91,43.51v.23s-.04.39-.04.39l-.06.37-.08.33-.11.3-.13.26-.15.22s0,.01-.01.02l-.17.17s-.01.01-.02.02l-.18.13s-.01,0-.02.01l-.12.05h.02s.17-.05.17-.05c0,0,0,0,.01,0l.16-.08.16-.12.15-.16.14-.21.11-.24.1-.28.08-.32.06-.35.03-.38v-.27s-.1-.01-.1-.01ZM188.26,45.83h.2s.19-.03.19-.03l.17-.07.16-.11.15-.15.14-.2.12-.23.1-.28.08-.31.06-.35.03-.37v-.4s0-.43,0-.43l-.04-.45-.06-.47-.08-.47-.1-.49-.12-.49-.14-.49-.16-.48-.18-.48-.2-.47-.21-.45-.22-.44-.23-.41-.24-.38-.25-.36-.26-.33-.26-.29-.26-.25-.26-.21-.25-.17-.23-.13-.23-.09-.22-.05h-.2s-.19.03-.19.03l-.17.07-.16.11-.15.15-.14.2-.12.24-.1.27-.08.31-.06.34-.03.38v.4s0,.43,0,.43l.04.45.06.46.08.48.1.48.12.49.15.49.16.49.18.48.2.47.21.45.22.44.23.41.25.39.25.35.26.33.26.29.26.25.25.21.25.17.24.13.22.08.22.05ZM220.68,45.78h.06s.01.01.02.02h.03s.1-.43.1-.43l.17-.61.21-.61.25-.6.29-.6.32-.59.36-.58.39-.57.42-.55.45-.53.47-.51.5-.49.52-.47.54-.44.56-.41.57-.38.46-.27-.05-.1-.47.27-.57.38-.56.41-.55.44-.52.47-.5.49-.48.52-.45.54-.42.56-.39.57-.36.58-.32.59-.29.6-.25.61-.21.61-.18.61-.1.46ZM190.26,43.47v.33s-.05.4-.05.4l-.06.37-.08.34-.11.31-.13.27-.15.24.47-.16s.02,0,.03-.01l.05-.02.15-.07.16-.12.15-.16.14-.21.12-.25.1-.28.08-.32.06-.35.03-.38v-.23s-.95.33-.95.33ZM216.61,45.43l.03.08s0,.02,0,.02h0s.31-.09.31-.09l.45-.1.44-.06h.18s.05,0,.07,0l.36-.02h.41s.4.06.4.06l.2.05-.05-.02-.38-.11-.39-.06-.42-.02h-.43s-.44.07-.44.07l-.45.1-.3.09ZM254.05,45.13v.09s-.02.16-.02.16c0,0,0,0,0,0l.14-.06.17-.11.15-.14.09-.12-.04.02s-.01,0-.02.01l-.21.09s-.02,0-.03,0c0,0,0,0,0,0l-.1.03s-.01,0-.02,0l-.12.03ZM191.09,45.09h0s-.12.18-.12.18l.07-.04.16-.12.15-.16.17-.28.02-.27.02-.13-.08.23-.13.26-.15.22s0,0-.01.01l-.1.1ZM217.4,44.05l.46.04.43.08.41.13.38.17.35.22.27.22v-.02s-.25-.23-.25-.23l-.31-.21-.33-.18-.36-.14-.39-.1-.4-.06-.43-.02-.44.02-.45.06-.46.1-.36.11.04.11.4-.12.48-.1.48-.06h.47ZM254.05,41.4v3.48l.08-.02v-3.47l-.08.02ZM254.38,41.3v3.46h.03s.15-.11.15-.11l.11-.11.07-.11.02-.12v-3.24l-.03.03s-.01.01-.02.02l-.17.11s-.01,0-.02.01l-.14.06ZM191.77,42.87v.23s-.04.37-.04.37l.03-.11.11-.27v-.22s-.1-.01-.1-.01ZM189.93,43.27h.08s0,.01,0,.01v-.33s-.05-.46-.05-.46l-.06-.47-.08-.48-.1-.49-.12-.5-.14-.5-.16-.5-.18-.49-.2-.48-.21-.47-.23-.45-.24-.43-.24-.4-.25-.37-.26-.35-.26-.31-.26-.27-.26-.24-.26-.19-.25-.16-.24-.11-.22-.07-.22-.03h-.21s-.17.05-.17.05c0,0,0,0,0,0h-.04s-.1.06-.1.06l.2-.04s.02,0,.02,0h.22s.01,0,.02,0l.24.05s.01,0,.02,0l.25.09s.01,0,.02,0l.25.14.27.19.27.23.27.26.27.3.26.34.26.37.25.39.24.42.23.44.22.46.2.48.18.49.17.49.14.5.13.5.1.5.08.48.06.48.04.46v.38s.03,0,.03,0ZM185.86,34.54l.2.07.27.13.27.17.27.21.28.25.27.28.27.32.26.35.26.38.25.41.24.43.23.46.21.48.2.49.18.5.17.51.14.51.12.51.1.5.08.49.06.48.04.47v.28s.97-.33.97-.33v-.35s-.04-.46-.04-.46l-.06-.47-.08-.48-.1-.49-.12-.5-.14-.5-.16-.5-.18-.49-.2-.48-.21-.47-.22-.44-.24-.43-.24-.4-.25-.38-.26-.34-.26-.31-.26-.27-.26-.24-.26-.19-.26-.16-.23-.11-.23-.07-.22-.03h-.2s-.15.04-.15.04c0,0-.01,0-.02,0h0s-.5.17-.5.17ZM201.63,41.42l.26.23.33.24.37.23.4.21.43.19.46.17.49.14.5.12.53.09.54.07.54.04h.55s.54,0,.54,0l.55-.04.53-.07.52-.1.51-.12.39-.12v-.1s-.03-.19-.03-.19l-.05-.2-.06-.2-.08-.19-.09-.19-.15-.24-.35.1-.46.11-.47.09-.49.06-.49.03h-.49s-.49,0-.49,0l-.49-.05-.48-.07-.47-.1-.45-.12-.43-.15-.41-.17-.38-.19-.34-.21-.32-.22-.21-.19-.1.06-.17.13-.15.15-.12.15-.1.18-.07.17-.04.17v.11ZM191.79,42.63h.08s0,.01,0,.01v-.33s-.05-.46-.05-.46l-.06-.47-.08-.48-.1-.49-.12-.5-.14-.5-.16-.5-.18-.49-.2-.48-.21-.47-.23-.45-.24-.43-.24-.4-.25-.38-.26-.34-.26-.31-.26-.27-.26-.24-.26-.19-.25-.16-.24-.11-.22-.07-.22-.03h-.21s-.05.02-.05.02l.12.03.09.03s.03,0,.04,0l.2.04.26.1.27.15.27.19.27.23.27.26.27.3.26.34.26.37.25.39.24.42.23.44.22.46.2.48.18.49.17.49.15.5.13.5.1.5.08.48.06.48.04.46v.38s.03,0,.03,0ZM209.86,41.29v.02s.12.18.12.18l.1.21.08.21.07.22.05.22.03.26,17.01-5.82.97-.47.99-.39,1-.29.99-.2,17.07-5.84v-.1s-.03-.19-.03-.19l-.04-.2-.06-.2-.07-.2-.09-.18-.15-.24-38.03,13.01ZM187.72,33.9l.2.07.27.13.27.17.27.21.28.25.27.28.27.32.26.35.26.39.25.41.24.43.23.46.21.48.2.49.18.5.17.51.14.51.12.51.1.5.08.49.06.48.04.47v.28s.15-.05.15-.05l.1-.1.2-.15s.01,0,.02-.01l.2-.1s.01,0,.02,0h.01s0,0,0,0h0s.01,0,.02-.01c0,0,0,0,0,0l.57-.2v-.17s-.04-.46-.04-.46l-.06-.47-.08-.48-.1-.49-.12-.5-.15-.5-.16-.5-.18-.49-.2-.48-.21-.47-.22-.44-.24-.43-.24-.4-.25-.38-.26-.34-.26-.31-.26-.27-.26-.24-.26-.19-.26-.16-.23-.11-.23-.07-.22-.03h-.2s-.17.05-.17.05l-.83.28ZM188.93,33.33s.01,0,.02,0l.24.04s.01,0,.02,0l.25.08s.01,0,.02,0l.25.12.28.17.27.21.28.25.27.28.27.32.26.36.26.39.25.41.24.44.23.45.22.47.2.49.18.5.16.51.15.5.12.51.1.5.08.49.06.48.04.57.1-.03h0s-.03-.47-.03-.47l-.06-.47-.08-.49-.1-.5-.12-.5-.14-.51-.16-.5-.18-.5-.2-.49-.21-.48-.22-.46-.24-.44-.25-.42-.25-.39-.26-.36-.26-.33-.26-.3-.27-.26-.26-.22-.26-.18-.25-.14-.24-.1-.23-.06-.22-.02-.2.02-.19.06-.07.04.13-.03s.01,0,.02,0h.22s0,0,0,0ZM240.79,41.44l.08.11.19-.42.23-.44.26-.43.29-.41.32-.4.35-.38.37-.36.39-.33.4-.31.42-.27.43-.25.44-.21.44-.17.45-.14.44-.1.44-.06.43-.02.42.02.4.05.38.09.36.14.33.17.31.21.3.27-.13-.14-.27-.24-.28-.19s0,0,0,0l-.33-.17-.35-.13-.37-.09-.39-.06-.4-.02-.42.02-.43.06-.44.1-.44.13-.46.18-.45.21-.44.25-.44.28-.42.31-.4.34-.38.37-.36.39-.33.41-.3.43-.27.44-.23.45-.16.35ZM202.7,39.97l.27.24.3.22.34.2.38.18.4.16.43.14.45.11.47.08.48.06.49.03h.49s.49-.03.49-.03l.48-.05.47-.08.45-.11.43-.13s0,0,0,0l38.15-13.05h0s.41-.16.41-.16l.38-.18.35-.2.31-.22.27-.23.23-.25.18-.25.13-.25.09-.26.05-.27v-.27s-.04-.27-.04-.27l-.09-.27-.13-.26-.18-.26-.22-.24-22.5-22.07s-.01,0-.01-.01l-.02-.02-.27-.24-.3-.22-.34-.2-.38-.18-.4-.16-.43-.13-.45-.11-.47-.08-.48-.06-.49-.03h-.49s-.49.02-.49.02l-.48.05-.47.08-.45.11-.43.13-38.15,13.05-.41.16-.38.18-.34.2-.31.21-.27.23-.25.27s0,.01-.01.02l-.15.21-.14.25-.09.26-.05.27v.27s.04.27.04.27l.09.26.14.27.18.25.22.24,22.53,22.11ZM250.75,40.12v.08l-.02.4-.06.43-.07.33,1.55-.37-.05-.04s-.01-.01-.02-.02l-.19-.24s0-.01-.01-.02l-.27-.54s0-.01,0-.02l-.18-.59-.11-.6-.2-.29-.18-.31-.15-.32-.3.58.05.13.11.37.07.39.04.41v.23s0,0,0,0h0ZM252.91,41.29s0,.02,0,.02v.03s.89-.15.89-.15l-.02-.11-.87.14v.05s0,.01,0,.02ZM240.29,40.86l.08.07.25.29.11-.24.24-.46.28-.46.31-.44.34-.42.37-.4.4-.38.41-.35.43-.32.45-.29.46-.26.47-.22.29-.11-.52-.51-.39.15-.45.22-.45.25-.43.28-.42.31-.41.34-.38.37-.36.39-.33.41-.3.43-.27.44-.24.45-.13.28.16.16s.01.01.02.02ZM186.36,26.44l15.05,14.77.04-.15s0-.01,0-.02l.08-.19.11-.2s0-.01.01-.02l.13-.17.17-.17.18-.15s0,0,.01,0l.05-.03-15.09-14.81-.1.06-.16.13-.15.15-.12.16-.1.17-.07.17-.04.17v.12ZM254.02,41.04l.02.11.09-.02s.01,0,.02,0l.06-.02.2-.08.15-.1.11-.11.07-.11.02-.12-.02-.13-.03.1s0,.03-.02.04l-.08.12s-.01.02-.02.02l-.12.11s-.01.01-.02.02l-.15.09-.19.08s-.01,0-.02,0h-.07ZM179.67,36.44l4.72,4.64-.05-.16-.14-.47-.12-.48-.1-.46-.09-.47-.06-.46-.04-.44-.02-.43v-.2s0,0,0,0v-.02h0s0-.31,0-.31l.03-.39.05-.37.07-.34.09-.31.12-.29.14-.25.16-.22s0,0,.01-.01l.17-.17s0,0,.01-.01l.18-.13s.01,0,.02-.01l.24-.12s.01,0,.02,0c0,0,0,0,0,0,0,0,0,0,0,0l.56-.19-6.62-6.5v3.37l.63,1.05s0,.01.01.02c0,0,0,0,0,0,0,0,0,0,0,0,0,.01,0,.02,0,.04v4.09ZM252.74,40.94l.07.06,1.03-.17s0,0,0,0l.19-.04.17-.07.13-.07.1-.09.06-.09.02-.08v-.08s-.05-.09-.05-.09l-.08-.09-.12-.08-.87-.5-.29-.04h-.29s-.14,0-.14,0l-.28.04-.25.07-.21.08-.07.04h0s.16.4.16.4l.1.18.19.26.13.13.17.13.12.07s0,0,.01,0c0,0,0,0,0,0ZM239.72,40.29l.09.09.14-.32.24-.44.26-.44.3-.42.33-.4.35-.39.37-.36.4-.34.41-.31.43-.28.44-.25.45-.21.36-.14-.04-.11-.38.14-.45.22-.45.25-.44.28-.42.31-.4.34-.38.37-.36.39-.33.41-.31.43-.27.44-.23.45-.13.29ZM239.39,39.99l.15.13.1-.21.24-.46.28-.46.31-.44.34-.43.37-.4.39-.38.41-.35.43-.32.45-.29.46-.26.47-.22.47-.18s0,0,.01,0l.45-.14.46-.1.45-.06.45-.02.43.02.41.06.4.11.27.1-.14-.13-.3-.24-.19-.12-.13-.07-.36-.16-.38-.12-.4-.07-.42-.03h-.44s-.45.07-.45.07l-.46.1-.46.14-.48.18-.47.22-.46.26-.45.3-.44.33-.41.36-.39.39-.37.42-.34.43-.3.45-.34.61-.18.39.36.35s0,0,.01.01l.02.02.17.17s.02.02.02.03ZM251.59,38.81s0,0,0,0l.13.55.05.15.03-.02s.01,0,.02,0l.15-.06v-1.33l-.14-.25s0,0,0,0l-.27-.51-.08-.19v.36s0,0,0,0c0,0,0,0,0,0l.03.61.1.69ZM252.2,38.47v.88l.12-.03.3-.04h.16s.18,0,.18,0l-.2-.16-.22-.21-.1-.12-.24-.31ZM238.54,39.14l.09.09.2-.4s0,0,0,0l-.03-.07s0-.01,0-.02v-.05s-.15.27-.15.27l-.09.2ZM252.45,38.39l.02.03.26.31.2.19.27.22.05-.09h-.01s-.02-.02-.02-.02h-.01s0-.02-.01-.02l-.06-.04s-.03-.02-.04-.03l-.07-.05-.18-.14s0,0,0,0h0s0,0,0,0c0,0,0,0,0,0h0s0,0,0,0l-.38-.36ZM232.16,38.88v.03s.02.01.02.02l.02.06.45-.14.59-.14.58-.1.58-.06h.23s.04-.01.06,0h.07s.54-.03.54-.03l.52.02.51.05.49.09.22.06-.06-.02-.49-.14-.51-.1-.53-.06-.55-.02-.56.02-.57.07-.58.1-.59.15-.44.13ZM237.68,38.3l.67.66.16-.32.22-.39s0,0,0,0l.29-.45.32-.45.35-.43.38-.4.4-.38.43-.35.44-.33.46-.29.47-.26.47-.22.47-.19s0,0,.01,0l.46-.14.46-.11.47-.06.45-.02.44.02.43.06.41.1.38.14.36.18.33.22.3.25.27.29.23.33.12.21v-6.11l-16.12,5.52h.24s.57.02.57.02l.56.07.54.11.52.15.49.2.47.24.44.27.4.31.37.35.33.38.3.42.24.41ZM238.96,38.33l.02.2.15-.26.31-.47.35-.45.38-.43.4-.4.43-.37.45-.34.46-.31.48-.27.49-.23.35-.13-.04-.09s0-.01,0-.02l-.33.13-.46.21-.45.25-.45.28-.43.32-.42.35-.39.37-.37.39-.34.42-.31.43-.26.41ZM250.93,37.7l.07.23.13.28.11.2-.03-.3v-.79s0-.17,0-.17l-.29.55ZM250.17,38s0,0,0,0l.02.03.15.27h0s.34-.67.34-.67c0,0,0,0,0,0l.49-.92.09-.2.09-.22.06-.18.03-.13v-.08s0-.05,0-.08h0s-.04.09-.04.09l-.24.38-.24.29-.28.28-.34.27-.34.24-.2.12.22.25.17.24s0,.01.01.02ZM236.66,37.29l.04.04-.07-.08-.35-.34-.38-.3-.42-.26-.45-.23-.47-.19-.49-.14-.52-.11-.54-.07-.55-.03h-.57s-.48.06-.48.06l.02.11.51-.05h.58s.56.01.56.01l.54.07.52.11.5.15.48.19.45.23.17.1s0,0,0,0c0,0,0,0,0,0h0s0,0,0,0l.25.17.39.3.25.24s0,0,0,0ZM248.99,36.72s0,0,0,0l.6.58.26-.15.33-.23.32-.27.27-.27.23-.28.17-.27.14-.29.1-.32.03-.14.02-.19v-.14s0-2.17,0-2.17h0v-4.57h0v-.4h0v-.11l-.13.25-.21.31-.26.29-.3.28-.34.26-.38.25-.41.22-.45.2-.39.15v6.57l.03.03s0,0,.01.01h.01s.16.19.16.19c0,0,0,0,0,.01l.19.16ZM227.52,36.95l.05.09.67-.35.39-.18.38-.15.38-.14.49-.15.49-.13.49-.1.31-.05v-.02s-.01-.02-.01-.02v-.05s-.84.17-.84.17l-.98.29-.97.38-.86.42ZM244.92,36.26l.51.5.38-.11.46-.1.45-.06.45-.02.43.02.42.06.39.1.24.09-.06-.05-.28-.19s0,0-.01,0l-.33-.17-.35-.13-.37-.09-.39-.06-.41-.02-.42.02-.43.06-.44.1-.25.08ZM175.45,33.74l.37.2.69.41.66.42.63.44.6.45.57.46.46.41h0s-.43-.41-.43-.41l-.49-.43-.51-.42-.54-.4-.57-.4-.59-.38-.61-.37-.42-.24.02.08.06.1.09.07ZM175.24,33.19l.57.33.62.38.59.39.57.4.55.41.52.42.5.43.26.25v-3.8l-.4-.37-.35-.31-.61-.49-.64-.46-.67-.45-.61-.37v.12s0,.01,0,.02c0,0,0,.01,0,.02,0,.02-.01.03-.02.04-.01.01-.02.03-.04.03h0s0,0,0,0c0,0,0,0,0,0-.01,0-.02.01-.04.01-.01,0-.02,0-.04,0h0s0,0,0,0c0,0-.01,0-.01,0-.01,0-.02,0-.03-.01l-.72-.42v3.45ZM244.49,35.9l.04.11.32-.1.47-.1.46-.06h.39s.02,0,.03,0h.03s.41,0,.41,0l.4.04.29.06-.08-.03-.37-.1-.39-.06-.41-.02-.42.02-.43.06-.44.1-.29.09ZM247.71,35.46l.02.02-.17-.19-.28-.23-.31-.2-.34-.17-.35-.13-.38-.09-.4-.06-.41-.02-.43.02-.45.06-.45.1-.36.11.02.05.02.06.4-.12.48-.1.48-.06h.46s.45.02.45.02l.43.07.41.12.38.17.14.07s0,0,0,0c0,0,0,0,0,0l.2.13.31.25.1.09s0,0,0,0ZM251.71,32.7v1.92l.09-.1.14-.21.12-.25.1-.28.08-.32.06-.35.03-.38v-.23s-.61.21-.61.21ZM252.18,34.46l-.12.16.08-.04.16-.12.15-.16.14-.21.12-.24.09-.28.08-.32.06-.35.03-.38v-.27s-.1-.01-.1-.01v.23s-.04.39-.04.39l-.06.36-.08.33-.11.3-.13.26-.15.22-.11.12s0,0,0,0ZM253.23,32.18v.33s-.05.4-.05.4l-.06.37-.08.34-.1.31-.13.27-.15.24.47-.16s.02,0,.03-.01l.05-.02.15-.07.16-.12.15-.16.14-.21.12-.25.1-.28.08-.32.06-.35.03-.38v-.23s-.95.33-.95.33ZM174.94,32.96l.06.06v-3.42l-.12-.08s-.01,0-.02-.02v-.02s-.01,3.26-.01,3.26l.02.11.06.1ZM251.71,28.77v3.68l.62-.21v-.35s-.04-.45-.04-.45l-.06-.47-.08-.48-.1-.49-.12-.5-.21-.72ZM252.9,31.98h.08s0,.01,0,.01v-.33s-.05-.46-.05-.46l-.06-.47-.08-.48-.1-.49-.12-.5-.14-.5-.16-.5-.18-.49-.2-.48-.19-.43v.22l.25.61.18.49.17.49.15.5.13.5.1.5.08.48.06.48.04.46v.38s.03,0,.03,0ZM251.7,26.3l.21.42.21.48.2.49.18.5.17.51.14.51.13.51.1.5.08.49.06.48.04.47v.28s.97-.33.97-.33v-.35s-.04-.45-.04-.45l-.06-.47-.08-.48-.1-.49-.12-.5-.14-.5-.16-.5-.18-.49-.2-.48-.21-.46-.22-.45-.24-.43-.24-.4-.25-.38-.26-.34-.26-.31-.26-.27-.26-.24-.26-.19-.26-.16-.23-.11-.23-.07-.22-.03h-.12s1,.98,1,.98c0,0,0,0,0,0,0,0,0,0,0,0h0s.28.3.28.3l.23.31.2.32.16.33.12.34.08.35.04.34ZM178.9,31.57l.1.1-.08-.14-.02.04ZM176.51,29.72l1.13.81,1.07.89.06-.14-.1-.26-.2-.62-.12-.46-.19-.84-.1-.57-.08-.56-.03-.34-.04.07-.18.25-.23.54-.29.53s0,.01-.01.02l-.36.45s-.01.01-.02.02l-.22.18s-.01.01-.02.01l-.07.04ZM178.15,27.06h0s.01.3.01.3l.05.55.08.55.1.56.19.83.12.45.08.26v-2.95l-.23-.25-.22-.31-.19-.33v.33ZM175.26,29.48l.61.35v-.02h0s0-.03,0-.04v-.04s0-.02.01-.03l-.58-.33-.03.05-.03.05ZM175.36,29.13l.69.39s.01,0,.02,0h.01s.02-.02.04-.02l.09-.02.17-.07.14-.1s-.01,0-.02,0h-.02s0,0,0,0c-.03,0-.06-.01-.08-.03h-.04s-.02-.02-.02-.03l-.1-.07s-.02-.02-.03-.03l-.06-.09s-.02-.04-.02-.06v-.09s0-.04,0-.06l.04-.09s.02-.03.03-.04l.09-.08s.02-.01.03-.02l.12-.06h0s.02,0,.03-.01l.15-.04s.02,0,.03,0h.16s.01,0,.02,0l.16.02s.02,0,.02,0l.13.05h0s.19-.36.19-.36l-.21-.04-.16-.02-1.19.2s0,0,0,0h-.05s-.01.01-.02.01l-.17.04-.17.07-.13.09-.08.1-.04.09v.09l.04.09.09.1.13.1ZM248.12,28.19l.02.02.11.19.1.2.08.22.07.22.05.22.03.24.31-.12.43-.19.39-.22.36-.24.32-.25.29-.27.24-.27.2-.29.15-.28.11-.31.06-.3.02-.22s0-.02,0-.04v-.17l-.04-.33-.08-.32-.11-.31-.15-.31-.19-.3-.22-.29-.3-.32-.11-.07-.13-.04h-.06s.05.05.05.05l.2.27s0,0,0,.01l.14.27.11.29s0,.01,0,.02l.06.28s0,.01,0,.02v.29s.01.01.01.02l-.04.28-.08.3s0,.01,0,.02l-.12.27-.17.28-.21.27-.26.26-.29.24-.33.22-.36.2-.39.18-.27.1ZM175.03,29.33h.02s.04-.07.04-.07c0,0,0-.01.01-.02h0s-.03-.03-.03-.03c0,0-.01-.01-.02-.02l-.11-.12s-.02-.02-.02-.03l-.05-.13s0-.02,0-.03v.05s-.01.08-.01.08c0,0,0,0,0,.01v.08s.07.12.07.12l.1.11ZM176.61,29.07l.1.02h.05s.05-.05.05-.05l.19-.25-.07-.03-.13-.02h-.13s-.04.01-.04.01v.31ZM176.36,28.9h0s0,0,0,0h0ZM177.37,27.98h.05s.02-.03.02-.03h0s-.06.03-.06.03ZM177.19,27.78v.02s.12-.05.12-.05l.21-.15-.08.05s-.01,0-.02,0l-.21.08s-.01.01-.02.01v.03ZM178.24,26.34l.12.31.17.29.25.33v-7.92l-.23-.25-.22-.31-.19-.33v7.28l.03.31.07.29ZM186.04,26.04v.34l.06-.02.02-.14s0-.01,0-.02l.05-.2s0-.01,0-.02l.09-.2s0-.01,0-.02l.12-.19.15-.19.21-.19h0s-.02-.02-.02-.03l-.02-.03s0-.02-.01-.02v-.04s-.02-.02-.02-.03v-.04s0,0,0,0h0s0,0,0,0l-.04.03-.14.12-.13.13-.11.15-.09.15-.06.15-.04.16v.15ZM185.1,25.2l.56.55.04-.15s0-.01,0-.02l.08-.19.11-.2s0-.01.01-.01l.13-.17.17-.17.18-.14.06-.04-.6-.59-.1.06-.16.13-.15.15-.12.16-.1.17-.07.18-.04.16v.12ZM250.01,24.43s.01.01.02.02l.1.15.15.29s0,.01,0,.02l.09.28s0,.01,0,.02l.02.14v-.07s-.06-.26-.06-.26l-.1-.26-.13-.25-.18-.25-.16-.18-.02.02.09.1.17.24ZM184.78,24.8v.34l.06-.02.02-.14.06-.22s0-.01,0-.02l.09-.2s0-.01,0-.02l.12-.19.15-.19.21-.19s-.02-.02-.03-.04l-.02-.03s0-.01,0-.02v-.04s-.02-.02-.02-.03v-.03s0,0,0-.01l-.04.03-.14.11-.13.13-.11.15-.09.15-.07.17-.04.14v.15ZM179.03,19.25l5.37,5.27.04-.15.08-.21s0-.01,0-.02l.11-.18.14-.19.16-.17s0,0,.01-.01l.24-.17-5.41-5.3-.1.06-.16.13-.15.15-.12.15-.1.18-.07.17-.04.17v.12ZM227.16,1.91l22.43,22h.01S227.18,1.9,227.18,1.9h-.01ZM227.5,1.87l22.35,21.93h.13s.02-.01.02-.01h0s-.74-.73-.74-.73c-.02,0-.03-.02-.04-.04l-3.87-3.8s-.03-.02-.04-.04l-3.8-3.73s-.03-.02-.04-.04l-13.66-13.4-.04-.04-.11-.07-.13-.04h-.04ZM178.24,18.06l.12.31.17.29.21.28.08.08.03-.14s0-.01,0-.02l.08-.19.11-.2s0-.01.01-.01l.13-.17.17-.17.18-.15s0,0,.02-.01l.05-.03-.13-.14-.2-.28-.16-.28s0-.01,0-.02l-.1-.28-.06-.3s0-.01,0-.02v-.28s-.01-.01-.01-.02l.03-.29s0-.01,0-.02l.08-.28.13-.29.17-.28.21-.27.26-.26.3-.24.11-.08-.28.17-.36.25-.32.27-.29.29-.25.3-.2.32-.16.33-.12.33-.08.33-.04.34v.17s0,.02,0,.03h0s.03.31.03.31l.07.29ZM241.84,15.43l3.17,3.11-.09-.17-.24-.43-.24-.4-.25-.38-.26-.34-.26-.31-.26-.27-.26-.24-.26-.19-.25-.16-.23-.11-.23-.07-.22-.03h-.12ZM179.22,16.08l-.02.22.04-.21s0-.01,0-.02l.1-.29s0-.01,0-.02l.15-.27.2-.28.33-.37.29-.25.33-.23.15-.09-.21.11-.31.21-.28.23-.24.24-.2.25-.16.26-.11.26-.07.25ZM198.57,2.56h-.55s-.55.05-.55.05l-.57.08-.57.12-.58.16-.58.2-.58.23-.57.27-.57.31-.56.33-.55.37-.53.4-.52.43-.5.45-.48.48-.45.49-.43.52-.4.53-.37.55-.34.56-.31.57-.28.58-.24.58-.21.58-.05.17,10.32-3.53.05-.03.73-.33.73-.29.69-.25.68-.22.67-.19.71-.15,2.37-.81-1.72-1.68s0,0,0,0l-.02-.02s-.02-.01-.03-.02l-.07-.07-.12-.11-.37-.29-.4-.25-.43-.22-.45-.18-.47-.14-.49-.1-.51-.07-.53-.03ZM226.14,1.14l.32.19.32.23.2.18s0,0,0,0h0s-.14-.13-.14-.13l-.3-.22-.33-.2-.09-.04ZM226.76,1.24l.24.18.24.21h.1s-.02-.03-.02-.03l-.35-.24-.22-.13ZM204.95,57.06s-.01,0-.02,0l-.15-.03s-.01,0-.02,0h-.02s0,0,0,0c-.03,0-.06-.01-.08-.03h-.04s-.02-.02-.02-.03l-.1-.07s-.03-.02-.04-.04l-.06-.09s-.02-.03-.02-.05v-.09s0-.04,0-.06l.04-.09s.02-.03.03-.04l.09-.08s.02-.01.03-.02l.12-.06h0s0,0,0,0h0s.02,0,.03,0c0,0,0,0,0,0l.15-.04s.02,0,.03,0h.16s.01,0,.02,0l.15.02s.02,0,.02,0l.13.05s.02,0,.03.02l.1.07s.02.02.03.03l.06.09s.02.03.02.05v.09s.01.05,0,.07l-.04.09s-.02.03-.03.04l-.09.08s-.02.02-.03.02l-.12.06s0,0-.01,0h0s-.01,0-.02,0l-.15.03s-.01,0-.02,0h-.16s0,0,0,0ZM204.87,56.8l.1.02h.13s.13-.03.13-.03l.09-.04.05-.05.02-.04v-.03s-.03-.04-.03-.04l-.07-.05-.11-.04-.13-.02h-.14s-.04.01-.04.01v.31ZM204.62,56.63h0s0,0,0,0h0ZM252.81,40.68s-.01,0-.02,0l-.15-.02s-.02,0-.02,0h-.03s-.03-.02-.04-.03l-.06-.02s-.02,0-.03-.02l-.1-.07s-.02-.02-.03-.03l-.06-.09s-.02-.04-.02-.06v-.09s0-.04,0-.06l.04-.09s.02-.03.03-.04l.09-.08s.02-.01.03-.02l.12-.06s.02,0,.03,0l.14-.04s.02,0,.03,0h.16s.01,0,.02,0l.15.02s.02,0,.02,0l.13.05s.02,0,.03.01l.1.07s.02.02.03.03l.06.09s.02.04.02.06v.09s0,.04,0,.06l-.04.09s-.02.03-.03.04l-.09.08s-.02.02-.03.02l-.12.06s0,0-.01,0c0,0-.01,0-.02,0l-.14.03s-.01,0-.02,0h-.16s0,0,0,0ZM252.72,40.43h.09s.14,0,.14,0l.12-.03.09-.04.05-.05.02-.03v-.03s-.03-.04-.03-.04l-.07-.05-.11-.04-.13-.02h-.14s-.04.01-.04.01v.32ZM252.48,40.29h0s0-.04,0-.04h0s0,.04,0,.04ZM183.48,31.57s0,0,0,0h0s-.02,0-.04,0c-.01,0-.03-.01-.04-.02,0,0,0,0,0,0,0,0,0,0,0,0,0,0,0,0,0,0,0,0,0,0,0,0,0,0,0,0,0,0h0l-4.19-4.11s-.01-.01-.02-.02c0,0,0-.01,0-.02,0,0,0,0,0,0,0,0,0-.02-.01-.03,0,0,0-.02,0-.03v-4.14s0-.04.01-.06c0,0,0,0,0,0,0,0,0,0,0,0,0,0,0-.01,0-.02h0s0,0,0,0h0s.01-.01.02-.02h0s0,0,0,0c0,0,.02-.01.03-.02,0,0,0,0,0,0h0s0,0,0,0c.03-.01.07-.01.1,0,.01,0,.03.01.04.03l4.19,4.12s.02.03.03.04c0,.01,0,.02,0,.04h0s0,0,0,0v3.89h0v.25s0,0,0,.01h0s0,.02,0,.03c0,0,0,0,0,0h0s-.01.03-.03.04c-.01.01-.03.02-.04.03,0,0,0,0,0,0-.01,0-.02,0-.04,0h0s0,0,0,0ZM179.59,27.2l3.78,3.71v-3.55l-3.78-3.71v3.55ZM194.37,29.06h-.28s-.27-.04-.27-.04l-.26-.06-.24-.08-.22-.11-.19-.12s-.01,0-.02-.02l-.14-.14s-.01-.01-.02-.02l-.09-.14s0-.02-.01-.02l-.06-.15s0-.02,0-.04v-.16s0-.02,0-.03l.04-.16s0-.02.01-.03l.08-.15s0-.02.02-.02l.12-.14s.01-.01.02-.02l.16-.13s.01,0,.02-.01l.19-.11.23-.1s.01,0,.02,0l.24-.07.27-.05.28-.02h.28s.27.04.27.04l.26.06.25.08.22.1s.01,0,.02,0l.17.12s.01,0,.02.01l.13.13s.01.01.02.02l.1.15s.01.02.01.03l.05.15s0,.02,0,.03v.16s0,.02,0,.03l-.03.16s0,.02-.01.03l-.08.15s0,.01-.02.02l-.12.14s0,0-.01.01l-.16.13s-.01,0-.02.01l-.19.11-.23.09s0,0-.01,0c0,0,0,0,0,0l-.24.07-.28.04-.28.02ZM193.36,28.46l.03.02-.02-.04s-.01-.03-.01-.04v-.12s-.01-.04,0-.05l.04-.12s.01-.02.02-.04l.09-.11s.02-.02.02-.02l.13-.09s.01,0,.02-.01h.02s-.08-.15-.08-.15h0s-.07.03-.07.03l-.14.09-.11.1-.07.1-.03.1v.1s.05.1.05.1l.12.14ZM194.25,27.7h.22s.21.05.21.05c0,0,.01,0,.02,0l.17.06s.01,0,.02,0l.14.08s.02.01.03.02l.1.1s.02.02.02.03l.06.11s.01.03.01.05v.12s0,.03,0,.05l-.03.1h.02s.08-.09.08-.09l.06-.1.03-.1v-.1s-.05-.11-.05-.11l-.08-.1-.12-.1-.16-.08-.2-.07-.21-.05-.23-.02h-.23s-.29.06-.29.06l.08.14.12-.03s.01,0,.02,0l.2-.02ZM192.92,28.33l.09.09-.05-.12s0-.03,0-.04v-.14s0-.03,0-.04l.04-.14s0-.03.02-.04l.09-.13s.01-.01.02-.02l.13-.12s.01-.01.02-.01l.16-.1s.01,0,.02,0l.09-.04-.08-.14-.14.06-.17.1-.14.11-.1.12-.06.12-.03.13v.12s.05.12.05.12l.08.12ZM194.37,27.31l.26.02.24.05.22.08s.01,0,.02,0l.18.09s.01,0,.02.01l.14.12s.01.01.02.02l.1.13s.01.02.02.03l.05.14s0,.02,0,.03v.14s.01.03,0,.05l-.04.14s0,.02-.01.03l-.02.02.03-.02.11-.12.07-.12.02-.12v-.12s-.05-.12-.05-.12l-.08-.13-.12-.12-.16-.11-.2-.09-.22-.08-.24-.05-.25-.03h-.26s-.26,0-.26,0l-.31.06.04.07s0,.01,0,.02l.02.06.11-.03.25-.04h.26ZM194.1,28.38l.19.02.19-.02.15-.05.09-.09-.1-.06s-.05.02-.08,0h-.07s0,0,0,0v.02s0,.02-.01.03c0,0,0,0,0,0,0,.01-.02.03-.03.04-.02.01-.03.02-.05.03,0,0-.02,0-.03,0h-.12c-.07,0-.12-.05-.12-.12v-.02h-.05s-.02.01-.04.01c-.02,0-.04,0-.06-.01l-.1.05h0s.08.09.08.09l.15.06ZM192.4,20.16l-.49-.02-.49-.05-.48-.07-.46-.1-.45-.12-.43-.15-.4-.16-.38-.19-.34-.21-.31-.23-.27-.24s0,0,0,0c0,0,0,0,0,0l-.23-.25-.2-.27-.15-.28-.11-.29s0-.01,0-.02l-.06-.28-.02-.23s0,0,0,0c0,0,0,0,0,0v-.02s0-.01,0-.02v-.04s0-.01,0-.02l.04-.28s0-.01,0-.02l.08-.28s0-.01,0-.02l.12-.27.17-.28.21-.27.26-.25.29-.24.33-.22.36-.2.39-.18.41-.16.44-.13.46-.11.47-.08.48-.06.49-.03h.49s.5.01.5.01l.49.05.48.07.47.1.45.12.43.15.4.17.37.19.34.21.31.23.27.24s0,0,0,0c0,0,0,0,0,0l.22.25.2.27.16.28s0,.01,0,.02l.1.28.06.29s0,.01,0,.02v.19s.01.02.01.03v.09l-.04.3s0,.01,0,.02l-.08.28s0,.01,0,.02l-.12.27s0,.01,0,.02l-.17.26-.21.27-.26.25-.29.24-.33.22-.36.2-.39.18-.42.16-.44.14-.46.11-.47.09-.49.06-.49.03h-.49ZM188.05,18.43l.26.23.29.21.33.2.36.18.39.16.41.14.44.11.45.09.46.07.47.04.48.02h.48s.48-.04.48-.04l.47-.06.46-.08.44-.11.42-.13.4-.15.37-.17.34-.19.31-.21.27-.22.24-.24.2-.25.15-.24.11-.26.07-.26.03-.26v-.26s-.07-.27-.07-.27l-.09-.25-.14-.26-.18-.25-.21-.24-.26-.23-.3-.22-.33-.2-.36-.18-.39-.16-.41-.14-.44-.11-.45-.1-.46-.07-.47-.04-.48-.02h-.48s-.48.04-.48.04l-.47.06-.46.08-.44.11-.42.13-.4.15-.38.18-.34.19-.31.21-.27.22-.24.23-.2.24-.16.26-.11.25-.07.26-.03.26v.26s.07.26.07.26l.1.27.14.25.18.25.22.23ZM192.55,19.48h-.44s-.43-.05-.43-.05l-.43-.06-.41-.09-.39-.11-.38-.14-.35-.16-.32-.18-.28-.2-.25-.22s0,0,0,0c0,0,0,0,0,0l-.2-.22-.17-.25s0-.01,0-.02l-.12-.24s0-.01,0-.02l-.07-.25s0-.01,0-.02l-.03-.25s0-.02,0-.02l.02-.25s0-.02,0-.02l.07-.25s0-.01,0-.02l.11-.24s0-.01,0-.02l.15-.23s0,0,.01-.01l.19-.22.24-.23.28-.2.31-.18.35-.17.37-.14.39-.12.41-.09.42-.07.43-.04.44-.02h.44s.43.05.43.05l.43.06.41.09.39.11.38.14.35.16.32.18.29.2.25.22s0,0,0,0c0,0,0,0,0,0l.2.22.17.24s0,.01,0,.02l.12.24s0,.01,0,.02l.07.25s0,.01,0,.02l.03.25s0,.01,0,.02h0s0,.04,0,.04c0,.01,0,.02,0,.04v.18s-.01.01-.02.02l-.06.25s0,.01,0,.02l-.11.24-.16.25s0,0-.01.01l-.19.22-.24.22-.28.2-.31.19-.35.17-.37.14-.4.12-.4.1-.43.07-.43.04-.44.02ZM191.35,19.11l.34.05-.31-.05s-.02,0-.03,0ZM193.42,19.14l-.11.02.11-.02ZM193.63,19.1l-.2.04.31-.05.4-.09.14-.04h-.03s-.06,0-.06,0c-.03.02-.06.03-.09.03l-.06.02-.32.08s-.06.03-.09.02ZM188.84,17.77l.17.22.21.21.25.19.29.18.32.16.35.14.37.12.53.11s-.02,0-.04-.01h0s-.2-.05-.2-.05l-.29-.09-.26-.1-.23-.11-.19-.11-.16-.12-.13-.11-.09-.1s0,0-.01-.01l-.05-.08s0-.01-.01-.02l-.02-.04s-.01-.02-.02-.04l-.03-.11s0-.01,0-.02l-.03-.21s0-.02,0-.03l.02-.22s0-.02,0-.03l.07-.21s0-.01,0-.02l.11-.21s0-.01.01-.02l.16-.19s0,0,.01-.01l.2-.18.26-.17.29-.15.22-.09-.02-.09-.05-.19-.06-.18-.07-.18-.09-.16-.09-.15-.14-.17-.28.11-.33.16-.29.17-.26.19-.22.21-.17.21-.13.23-.09.23-.05.23v.23s.04.23.04.23l.08.23.13.23ZM192.23,18.96h.19s.28,0,.28,0h.16s.23-.06.23-.06c.01,0,.03-.01.04-.01l.21-.07.2-.1.16-.1.13-.12.07-.11-.26.1s-.03,0-.05,0c-.02,0-.05,0-.06-.01-.01,0-.03-.02-.04-.03-.02-.02-.04-.06-.04-.09,0,0,0,0,0,0,0,0,0,0,0,0v-.35l-.04.02-.24.08-.13.03-.29.04v.42s0,0,0,0h0s0,.06-.02.08c0,.01-.03.04-.04.05-.01,0-.04.02-.05.03h-.02s0,0-.01,0l-.46.08s-.02,0-.03,0l-.46-.03s-.02,0-.03,0h-.03s.01,0,.01,0l.28.09s0,0,.01,0l.17.04.15.02ZM194.52,18.81s0,0,.01,0l.05.04.29-.11.33-.16.29-.18.25-.19.22-.21.17-.21.13-.23.09-.23.05-.23v-.23s-.04-.23-.04-.23l-.08-.23-.13-.23-.17-.22-.21-.21-.25-.19-.29-.18-.32-.16-.35-.14-.38-.12-.4-.09-.41-.07-.43-.04-.43-.02h-.43s-.43.05-.43.05l-.41.06-.4.09-.2.06.09.12.1.17.09.18.08.2.07.2.07.27.2-.06.36-.07.37-.04.38-.02h.38s.37.05.37.05l.36.06.34.1.31.12.29.14.26.17.22.18s0,0,.01.01l.17.19s0,.01.01.02l.12.2s0,.01,0,.02l.08.21s0,.02,0,.03l.03.21s0,.02,0,.03l-.02.21s0,.02,0,.02l-.04.13s0,.02,0,.03v.02s-.01.01-.02.02l-.1.15s0,.01-.01.01l-.1.1-.13.11-.18.12-.31.16ZM189.93,18.14l.08.08.11.1.14.11.18.1.15.07-.04-.16s0-.02,0-.03v-.17s0-.02.01-.03l.05-.17s0-.02.01-.02l.09-.16s0-.01.02-.02l.11-.12.03-.1s0-.02,0-.02l.06-.13.09-.14.12-.15.06-.06-.05-.1-.07-.16-.1-.34-.17.07-.26.13-.23.15-.18.16-.15.18-.1.19-.06.18-.02.19.02.19.02.08s0,0,0,0l.02.05.04.06ZM194.11,17.64s0,0,0,0l.06.06.14.15s.01.02.02.02l.09.16s0,.02.01.03l.04.17s0,.02,0,.03v.17s0,.02,0,.03l-.04.13.1-.05.19-.1.16-.1.2-.18.08-.11s0,0,0,0l.04-.13.02-.19-.02-.19-.07-.18-.11-.18-.15-.18-.2-.17-.23-.15-.27-.13-.29-.11-.32-.09-.34-.06-.35-.04h-.36s-.36,0-.36,0l-.35.04-.34.07-.21.06v.05s.1.29.1.29l.08.17.13-.11s.02-.02.03-.03c.01-.02.03-.03.04-.04l.11-.09s0,0,0,0c.01,0,.02-.01.03-.02l.16-.08s0,0,.01,0c0,0,0,0,.01,0l.16-.04.15-.03s.04-.01.06-.01h0s.03,0,.04,0c0,0,0,0,.01,0,0,0,0,0,0,0,0,0,0,0,0,0,0,0,0,0,0,0h0s.01,0,.02,0l.05.03s.04.02.05.03l.3.22.39.14s.01,0,.02,0l.35.18.3.21s.01.01.02.02h.01s0,.02,0,.02l.06.05s0,0,.01.01l.1.11s0,0,.01,0c0,0,.02.02.03.04,0,0,0,0,0,.01l.03.07ZM191.79,18.56h.37l.16-.03-.74-1.45-.13.11s-.02.02-.04.03h0s-.2.26-.2.26l-.12.27-.02.28.1.22.14.13.21.11.28.07ZM193.7,17.82v.37l.06-.02.13-.09.06-.1v-.14s-.09-.17-.09-.17l-.17-.18-.04-.03.06.32s0,0,0,.01c0,0,0,.01,0,.02h0ZM191.99,17.29l.35.67v-.21l-.35-.47ZM192.67,17.84l.04.09.17-.02.23-.05.22-.06.11-.04-.02-.1-.07.03-.27.09-.15.03-.26.03ZM192.44,17l.13.57h.18s.26-.06.26-.06l.12-.03.14-.05-.66-.47-.16.04ZM192.01,16.88l.19.26-.03-.14-.16-.11ZM192.24,16.73l.08.06h.02s-.08-.06-.08-.06h-.02ZM235.37,15.03h-.28s-.28-.04-.28-.04l-.26-.06-.25-.08-.22-.1s-.01,0-.02,0l-.17-.12s-.01,0-.02-.01l-.13-.13s-.01-.01-.02-.02l-.1-.15s-.01-.02-.01-.03l-.05-.15s0-.02,0-.03v-.16s0-.02,0-.03l.03-.15s0-.02.01-.03l.08-.15s0-.01.01-.02l.12-.14s.01-.01.02-.02l.16-.13.2-.12s.01,0,.02,0l.22-.09s.01,0,.02,0l.24-.07.27-.05.28-.02h.28s.28.04.28.04l.26.06.24.08.22.11s.01,0,.01,0l.17.12s.01,0,.02.01l.14.13s.01.01.02.02l.09.14s.01.02.01.03l.05.16s0,.02,0,.03v.15s.01.03.01.04l-.04.16s0,.02,0,.03l-.08.15s-.01.02-.02.03l-.12.14s-.01.01-.02.02l-.16.13s0,0-.01.01l-.19.11-.23.1s-.01,0-.02,0c0,0,0,0,0,0l-.24.07-.27.05-.28.02ZM235.26,13.67s0,0,0,0h.2s.21.05.21.05c0,0,.01,0,.02,0l.17.06s.02,0,.02.01l.14.09s.02.01.02.02l.1.1s.02.02.02.03l.06.11s.01.03.01.04v.12s.01.04,0,.05l-.03.1.02-.02s0,0,.01-.01l.06-.06.07-.11.03-.1v-.1s-.05-.1-.05-.1l-.08-.11-.12-.1-.17-.09-.18-.07-.22-.05-.22-.02h-.23s-.21.03-.21.03l-.08.02.08.13.12-.03.22-.03s0,0,.01,0ZM234.35,14.42s0,0,.01,0l.02.02-.02-.03s-.01-.03-.01-.05v-.12s0-.03,0-.04l.04-.12s.01-.03.02-.04l.09-.11s.01-.02.02-.02l.13-.09s.01,0,.02-.01h.02s-.08-.15-.08-.15l-.07.03-.15.09-.11.1-.07.11-.03.1v.1s.05.1.05.1l.11.12ZM235.37,13.29l.25.02.24.05s.01,0,.02,0l.21.08.19.1s.01,0,.02.01l.14.11s.01.01.02.02l.1.13s.01.02.02.03l.06.13s0,.03,0,.04v.14s0,.03,0,.04l-.04.14s0,.02-.02.03l-.02.03.03-.03.1-.12.06-.13.03-.12v-.12s-.05-.13-.05-.13l-.08-.12-.12-.12-.16-.11-.2-.1-.21-.07-.24-.05-.26-.03h-.25s-.26.01-.26.01l-.3.06h0s0,.02,0,.03l.05.11.12-.03s.01,0,.02,0l.23-.03h.26ZM233.93,14.3l.08.08-.05-.12s0-.03,0-.04v-.14s0-.03,0-.04l.04-.14s0-.02.02-.03l.09-.13s.01-.02.02-.02l.13-.12s.01-.01.02-.02l.17-.1s.01,0,.02,0l.08-.03-.08-.14-.13.05-.18.11-.14.11-.1.12-.07.13-.02.12v.12s.05.12.05.12l.08.13ZM235.18,14.36h.2s.18-.03.18-.03l.13-.07.06-.07v-.05s-.04-.06-.04-.06l-.07-.02s-.02.01-.03.01c0,.01,0,.02,0,.03,0,.02,0,.03,0,.05h0s0,0,0,0c0,.02-.01.04-.03.05,0,0-.02.02-.03.02,0,0-.01,0-.02,0l-.08.03s-.04.02-.06.02c0,0,0,0,0,0-.01,0-.03,0-.04,0-.02,0-.03-.02-.04-.03,0,0,0,0,0,0,0,0-.01-.02-.02-.03v-.02s-.03-.02-.04-.03l-.09.05s-.02,0-.03.01c-.02,0-.03,0-.05,0,0,0,0,0,0,0,0,0,0,0-.01,0l-.08.07h.02s.17.06.17.06Z" fill="#4b18a1"/>
  <g>
    <path d="M156.84,73.17c-6.33,0-10.88,5.13-10.88,11.46v.07c0,6.33,4.61,11.54,10.95,11.54s10.88-5.13,10.88-11.46v-.07c0-6.34-4.62-11.54-10.95-11.54Z" fill="#b7a3d9"/>
    <path d="M17.93,76.65c-4.54,0-7.69,3.59-7.69,7.98v.07c0,4.39,3.22,8.06,7.76,8.06s7.69-3.59,7.69-7.98v-.07c0-4.39-3.22-8.06-7.76-8.06Z" fill="#b7a3d9"/>
    <path d="M0,68.56v33.18h175v-33.18H0ZM31.59,84.71c0,7.29-5.75,13.26-13.66,13.26s-13.59-5.9-13.59-13.18v-.07c0-7.29,5.75-13.26,13.66-13.26s13.59,5.9,13.59,13.18v.07ZM58.11,97.52h-4.8l-12.41-16.3v16.3h-5.57v-25.63h5.2l12.01,15.78v-15.78h5.57v25.63ZM82.5,97.52h-19.52v-25.63h19.34v5.02h-13.73v5.2h12.09v5.02h-12.09v5.38h13.92v5.02ZM115.09,97.52h-18.42v-25.63h18.24v1.76h-16.33v10.07h14.68v1.76h-14.68v10.29h16.52v1.76ZM131.53,97.96c-7.36,0-12.74-5.82-12.74-13.18v-.07c0-7.25,5.42-13.26,12.82-13.26,4.54,0,7.32,1.65,9.96,4.1l-1.35,1.39c-2.23-2.16-4.8-3.77-8.64-3.77-6.15,0-10.8,5.02-10.8,11.46v.07c0,6.45,4.72,11.54,10.84,11.54,3.7,0,6.23-1.39,8.83-3.99l1.28,1.25c-2.75,2.64-5.64,4.47-10.18,4.47ZM169.77,84.71c0,7.03-5.16,13.26-12.93,13.26s-12.85-6.19-12.85-13.18v-.07c0-7.03,5.16-13.26,12.93-13.26s12.85,6.19,12.85,13.18v.07Z" fill="#b7a3d9"/>
  </g>
</svg>