<?xml version="1.0" encoding="UTF-8"?>
<svg id="uuid-c8cb5981-b4f3-49f1-a973-1a14c2587457" data-name="Layer 1" xmlns="http://www.w3.org/2000/svg" viewBox="0 0 182.55 142.22">
  <path d="M68.56,141.89s-.02,0-.03,0l-.54-.06s-.03,0-.05-.01l-.52-.16s-.03-.01-.05-.02l-.48-.25s-.03-.02-.04-.03l-.43-.35s-.02-.02-.03-.03l-.36-.41s-.02-.03-.03-.05l-.26-.47s0-.02-.01-.02h0l-.3-.65-.62-1.19-.7-1.16-.79-1.16-.87-1.14-.95-1.13-1.03-1.11-.56-.56s0,0,0,0l-9.68-9.5-.15.04s-.03,0-.05,0l-.53.05s-.03,0-.05,0l-.56-.04s-.03,0-.05,0l-.58-.14-.63-.25-.63-.33-.62-.42-.62-.5-.6-.59-.6-.64-.58-.72-.57-.77-.55-.82-.53-.89-.51-.92-.48-.97-.61-1.39-8.12-7.96-.14.04s-.03,0-.05,0l-.53.05s-.03,0-.05,0l-.56-.04s-.03,0-.05,0l-.58-.14-.63-.25-.62-.33-.62-.42-.61-.5-.61-.58-.59-.64-.58-.71-.57-.77-.55-.82-.53-.88-.5-.93-.48-.96-.61-1.38-11.61-11.4-.74-.71-1.19-1.06-1.27-1.04-1.35-1.01-1.42-.99-1.48-.95-1.56-.93-.83-.46s-.05-.03-.07-.04h0s-.27-.18-.27-.18l-.32-.26s-.02-.02-.03-.03l-.25-.28-.25-.35-.19-.37s-.01-.03-.02-.04l-.12-.37-.09-.4s0-.03,0-.04v-.28s-.02-.04-.02-.06v-.06H.08v-8.43H.08v-.02s0-.05.01-.07v-.12s0-.05.01-.08l.09-.32s.01-.03.02-.05l.16-.32s.02-.04.04-.05l.24-.28s.03-.03.04-.04l.36-.27s.03-.02.04-.03l.42-.21.27-.1s.06-.02.09-.03l.36-.1.28-.06s0,0,.01,0l2.3-.38v-.06s.02-.05.03-.07l.04-.09s.02-.03.03-.05l.1-.14s.03-.04.05-.05l.26-.22s.02-.02.03-.02c.01,0,.02-.01.03-.02l.17-.09s.05-.03.08-.04c0,0,0,0,0,0l.61-.24.43-.25.35-.29.22-.26.28-.99s0-.02,0-.03v-20.86s0-.06.01-.08v-.33s.1-.82.1-.82l.19-.82.31-.82.4-.8.49-.77.6-.74.69-.7.76-.65.84-.59.9-.54.95-.48,1-.41.55-.2s0,0,.01,0l12.37-4.23v-.06s.39-1.28.39-1.28l.45-1.28.53-1.28.59-1.27.68-1.24.74-1.23.8-1.2.86-1.17.91-1.13.97-1.1,1.01-1.05,1.07-1,1.11-.95,1.14-.89,1.18-.84,1.21-.77,1.22-.71,1.25-.65,1.26-.58,1.27-.49,1.27-.42,1.28-.34,1.27-.27,1.26-.19,1.25-.1,1.22-.02,1.2.05,1.17.14,1.14.23,1.09.3,1.05.38,1,.46.95.53.89.61.83.67.33.31s0,0,0,0c0,0,0,0,0,0l.09.09,4.09,4.01L102.17,1.42s0,0,.01,0l.74-.24,1.08-.28,1.11-.23,1.13-.18,1.14-.11,1.16-.05h1.15s1.15.06,1.15.06l1.14.12,1.13.17,1.11.24,1.07.3,1.04.35,1,.4.95.47.88.52.83.56.75.6.41.38s0,0,0,0h0s30.92,30.35,30.92,30.35l.15-.04s.03,0,.05,0l.53-.05s.03,0,.05,0l.56.04s.03,0,.05,0l.58.14.63.25.62.33.62.42.61.5.6.58.59.64.58.71.57.77.55.82.53.88.5.93.48.96.62,1.39,8.11,7.96.14-.04s.03,0,.05,0l.53-.05s.03,0,.05,0l.56.04s.03,0,.05,0l.58.14.63.25.63.33.62.44.61.49.61.59.59.64.58.71.57.77.55.82.53.89.51.92.48.97.45,1.01.42,1.02.39,1.04.36,1.07.31,1.07.28,1.07.24,1.07.19,1.05.14,1.04.1,1.01.05,1.47s0,0,0,0h0s0,.02,0,.02v.67s-.07.88-.07.88l-.11.84-.17.77-.22.72-.26.64-.32.57-.35.49s-.02.03-.03.04l-.39.38-.45.33s-.03.02-.04.03l-.05.02s0,0-.01,0l-.45.22s-.04.02-.07.02h-.03s-2.7.93-2.7.93c-.02,0-.04.01-.07.01h0s-.02,0-.03,0l-.31.09s-.03,0-.05,0l-.28.03v2.15h0s0,.41,0,.41l.08.8.28,1.1.34.86.35.67.31.5.58.75.15.16.96.89.76.54s.02.01.03.02c0,0,0,0,0,0l.06.04s.04.02.06.04l.08.07s.04.04.05.06l.11.11s.04.04.06.07l.13.18s.01.02.02.03l.14.33s.02.06.02.1v.15l.86.51.85.47s.02.01.03.02l.34.23s.02.02.03.03l.28.26s.03.03.04.05l.2.29s.02.03.03.05l.13.33s.01.04.02.06l.05.35s0,.03,0,.04h0v8.46h0v.02s0,.03,0,.05h0s-.04.46-.04.46c0,.02,0,.04,0,.05l-.14.5s0,.03-.02.04l-.21.46s-.02.03-.02.04l-.29.42s-.02.03-.04.04l-.38.36s-.02.02-.03.03l-.42.28s-.03.02-.04.02l-.47.21s-.03.01-.05.02l-.49.12s-.02,0-.04,0l-1.45.22-2.19.4-2.15.44-2.13.49-2.09.54-2.04.58-2,.63-1.03.34s0,0,0,0l-13.98,4.78-.54,1.13-.67,1.24-.74,1.22-.8,1.19-.86,1.17-.91,1.13-.97,1.1-1.01,1.05-1.05,1-1.11.95-1.14.9-1.17.83-1.2.78-1.23.72-1.23.65-1.26.58-1.26.5-1.26.43-1.27.35-1.26.28-1.25.2-1.24.11-1.2.04-1.19-.05-1.16-.12-1.12-.21-1.09-.29-1.04-.36-.99-.44-.73-.41s-.03-.02-.05-.03c0,0-.02,0-.02-.01l-.63-.39-.92-.69-.72-.66s-.03-.02-.05-.04l-1.61-1.57-31.93,10.92s0,0,0,0l-1.28.46-1.9.72-1.84.76-1.78.79-1.73.84-1.67.87-1.6.9-.81.48s-.02,0-.03.01l-.48.24s-.03.01-.05.02l-.52.14s-.03,0-.05,0l-.54.04s-.01,0-.02,0ZM68.08,141.28l.49.05.49-.04.47-.13.44-.22.19-.15.15-.23.07-.22-.17.08s-.03.01-.04.01l-.53.14-.62.08h-.62s-.61-.05-.61-.05l-.58-.14-.52-.2s-.03-.01-.04-.02l-.19-.12.05.1.32.37.39.31.43.23.47.15ZM70.95,140.04l-.03.3s0,.03,0,.05l1.48-.83,1.68-.88,1.74-.85,1.8-.8,1.86-.77,1.91-.72,1.29-.46h0l.05-.02.1-.11.11-.21.07-.29-1.33.47-1.67.65-1.64.68-1.6.71-1.55.74-1.51.78-1.46.8-1.29.76ZM66.87,139.76l.47.18.51.12.54.05h.56s.55-.08.55-.08l.3-.08v-7.89l-.19.05-.62.08h-.62s-.61-.05-.61-.05l-.58-.14-.52-.2s-.03-.01-.04-.02l-.41-.24s-.03-.02-.05-.04l-.06-.06v7.62l.15.22.27.25.36.22ZM70.35,131.91v7.85l.07-.04v-7.84l-.07.03ZM70.97,131.58v7.81l1.01-.59,1.47-.81,1.52-.79,1.56-.75,1.61-.71,1.65-.68,1.68-.65,1.55-.55v-8.8l-1.26.46-1.25.48-1.95.82-1.89.87-1.82.92-1.7.94-.14.22v.45s0,.02,0,.04c0,.04-.02.07-.03.1-.02.03-.04.06-.08.09,0,0-.02.01-.03.02l-1.91,1.11ZM59.9,130.41l.93.94.94,1.06.87,1.05.82,1.09.75,1.1.69,1.12.64,1.17v-7.18l-.76-1.55s0,0,0,0c-.01-.02-.02-.04-.02-.06,0-.02,0-.04,0-.07l-.02-.57-.07-.25-.86-1.48-.98-1.47-1.77-2.23-.79-.88-.37-.38v8.6ZM83.56,134.27l-.02.24s0,.03,0,.04l-.06.25,30.88-10.56s0,0-.01-.01l-.4-.37-30.39,10.41ZM83.58,124.68v9l29.93-10.25-2.99-2.93-.53-.29-.98-.62-.89-.69-.4.8-.56.96-.63.92-.68.89-.73.87-.8.82-.83.76-.86.71-.91.66-.93.6-.96.53-.97.45-.98.39-1,.31-.98.23-.97.16-.96.07h-.94s-.91-.1-.91-.1l-.87-.18-.83-.25-.79-.34-.59-.33s-.02-.01-.03-.02c-.03-.01-.05-.03-.07-.05l-.67-.46-.54-.47s-.04-.03-.06-.04l-1.67-1.63s-.02-.02-.03-.03l-.3-.34s-.02-.01-.02-.02l-.41-.38s-.03-.02-.05-.04l-.31-.3-.14-.06-.8-.41-.75-.49-.68-.57-.61-.66-.52-.74-.26-.46v3.56l2.22.16s.02,0,.03,0c.02,0,.04,0,.06.02.02,0,.04.02.06.03,0,0,0,0,0,0h0s.03.02.04.03h0s0,0,0,0c0,0,0,0,0,0,0,0,0,0,0,0,0,0,0,0,0,0,0,0,0,0,0,0,0,0,0,0,0,0,0,0,0,0,0,0,0,0,0,0,0,0,0,0,0,0,0,0,0,0,0,0,0,0h0s.02.03.03.04c0,.01.01.02.02.04h0s0,0,0,0c0,.02.01.04.02.06h0s0,0,0,0h0s0,0,0,0h0s0,0,0,0h0s0,0,0,0c0,0,0,0,0,0,0,0,0,0,0,0h0s0,0,0,0h0s0,0,0,0h0ZM66.87,131.31l.47.18.51.12.54.05h.56s.55-.08.55-.08l.27-.07-.1-.24-.3.08s-.03,0-.05,0l-.52.05h-.57s-.55-.09-.55-.09c-.01,0-.03,0-.04-.01l-.47-.15s-.03-.01-.04-.02l-.39-.2s-.03-.02-.05-.03l-.31-.25s-.04-.04-.05-.06l-.07-.11-.09.06-.07.1.13.2.27.25.36.22ZM70.19,131.09l.1.24.1-.05-.14-.23-.06.03ZM70.73,130.77l.14.23,1.42-.83-.18-.2-1.38.8ZM67.79,130.78l.49.08h.5s.46-.04.46-.04l.46-.12s0,0,0,0l.08-.03s.03-.01.05-.02l.28-.13s.01,0,.02,0l1.88-1.1.11-.4s0,0,0-.01l.06-.38-.08-.23-.2-.29-.29-.27-.39-.24-.48-.21-.53-.15-.57-.09-.6-.04-.59.03-.58.09-.79.25-.24.11-.22.13-.37.29-.14.15-.19.3-.05.1.72,1.46.16.24.25.21.34.18.42.14ZM65.35,129.13l.49.97.16-.11-.47-.97s0,0-.02.01l-.16.1ZM51.39,122.05l7.96,7.82v-8.73s0-.03,0-.04h0s0,0,0,0c0-.02,0-.04.01-.06,0,0,0,0,0,0h0s.01-.03.02-.04h0s0,0,0,0c.02-.03.04-.05.06-.07.01,0,.02-.02.03-.02h0s0,0,0,0h0s0,0,0,0h0s0,0,0,0c0,0,0,0,0,0t0,0s0,0,0,0h0s0,0,0,0h0s0,0,0,0h0s0,0,0,0c0,0,0,0,0,0,0,0,0,0,0,0,0,0,0,0,0,0h0s0,0,0,0h0s0,0,0,0h0s0,0,0,0h0s0,0,0,0h0s0,0,0,0h0s0,0,0,0h0s0,0,0,0c.01,0,.03,0,.04-.01.03,0,.06,0,.09,0,.01,0,.03,0,.04,0l1.12.32v-3.07l-.24.47-.36.53s-.02.03-.03.04l-.4.4s-.02.02-.03.03l-.43.3s-.03.02-.05.03l-.48.2s-.03.01-.05.02l-.5.1s-.04,0-.06,0h-.54s-.03,0-.05,0l-.6-.11-2.25.77s-.05.02-.07.02c-.02,0-.03,0-.05.01l-.35.09s-.03,0-.04,0l-.33.03-.08.06s-.02.02-.04.02l-.46.23s-.04.02-.06.02h0s-.03.02-.05.02h-.03s-1.8.62-1.8.62ZM113.94,116.51l.05,1.23.13,1.18.22,1.13.31,1.08.39,1.04.48.97.56.91.63.85.71.77.78.72.85.62.91.56.97.46,1.03.39,1.08.3,1.13.22,1.16.12,1.21.04,1.24-.05,1.27-.14,1.28-.23,1.29-.32,1.31-.4,1.31-.48,1.3-.57,1.29-.65,1.28-.73,1.25-.81,1.22-.88,1.18-.94,1.14-1,1.1-1.05,1.05-1.11.99-1.15.92-1.2.87-1.23.78-1.26.73-1.28.63-1.3.56-1.31.48-1.32.39-1.31.31-1.31.22-1.29.13-1.27.05-1.23-.05-1.23-.13-1.18-.22-1.13-.31-1.08-.39-1.04-.48-.97-.56-.91-.63-.85-.71-.77-.78-.7-.85-.63-.9-.56-.97-.46-1.03-.39-1.08-.3-1.13-.22-1.16-.12-1.21-.04-1.24.05-1.27.14-1.28.23-1.29.32-1.31.4-1.3.49-1.3.56-1.29.65-1.28.73-1.25.8-1.22.88-1.18.94-1.14,1-1.1,1.05-1.05,1.11-.99,1.16-.92,1.19-.87,1.23-.78,1.26-.73,1.28-.63,1.3-.56,1.32-.48,1.31-.39,1.31-.31,1.31-.22,1.29-.13,1.27-.05,1.23ZM72.75,128.67h.12s.02,0,.02,0l.06-.51-.02-.64-.2-1.35-.37-1.43.13.59.15.91.12,1.12.02.64s0,0,0,0h0s-.02.56-.02.56c0,.01,0,.02,0,.03,0,.03,0,.05,0,.07ZM72.49,123.38l.43,1.32.34,1.36.21,1.41.02.71-.02.21,3.11-1.45,3.62-1.48.28-.83-.27-.13-.51-.33-2.36-1.72-.89-.62-.96-.6-1.03-.59-1.09-.53-.84-.32-.87-.24-1.21-.22.54.9.78,1.52.7,1.61s0,.01,0,.02c0,0,0,0,0,.01ZM86.72,120.98l.04.91.13.86.21.82.29.76.37.71.44.64.52.58.58.5.65.44.71.36.77.29.81.19.86.12.89.04.93-.05.94-.14.96-.22.97-.31.97-.38.97-.47.95-.54.93-.6.89-.68.86-.73.82-.79.76-.84.71-.88.65-.91.57-.95.51-.96.43-.98.34-1.01s0-.02,0-.02l.08-2.14h0s.01-1.16.01-1.16c0-.02,0-.03,0-.04,0-.02,0-.04.02-.06l-.05-1.72-.06-1.42s0-.02,0-.02v-.05l-.34-.71-.42-.66-.5-.59-.56-.54-.63-.45-.7-.39-.74-.3-.81-.23-.84-.13-.88-.06-.92.02-.94.11-.96.2-.96.28-.98.36-.96.45-.95.51-.94.59-.9.66-.87.71-.83.78-.78.82-.73.87-.66.91-.6.93-.53.96-.45.97-.38.99-.3.98-.21.96-.13.95-.04.92ZM65.25,127.55l.2.05s.03,0,.04.01l.04.02.04-.14.37-1.08.78-1.97.3-.7s0,0,0-.01l.22-.49-.44.79-.6,1.21-.56,1.25-.25.63-.14.45ZM69.06,126.54l.66.04.63.1.59.17.53.22s.02.01.04.02l.43.26s.03.02.04.03l.24.22v-.23s-.13-1.07-.13-1.07l-.15-.88-.19-.88-.24-.93-.28-.94-.33-.92-.39-.95-.41-.91-.2-.39-.32.51-.56.96-.55,1.02-.51,1.06-.37.84v2.85l.21-.06.65-.1.65-.03ZM67.01,125.19l-.54,1.4-.26.74.12-.09.27-.16.41-.18v-1.72ZM61.54,122.72l1.92,2.3,1.38,2,.03-.1.26-.66.57-1.27.61-1.23.64-1.17s0-.01.01-.02l.88-1.37.91-1.26.61-.78-.32-.04-.75-.08-.92-.03-.81.08-1.22.33-1.03.44-.91.51-.68.44-1.12.81s-.03.02-.04.03l-.18.08.11.76.02.25ZM87.99,126.35l.32.28-.54-.61-.48-.7-.4-.77-.32-.82-.22-.87-.14-.91-.03-.64h-.04s-.03,0-.05,0h-.11s-.02-.01-.03-.02l.03.52.13.89.22.85.3.8.48.89.36.51.53.61ZM115.12,123.81l.21.32.66.88.73.79.86.77-.55-.51-.75-.81-.66-.9-.58-.95-.5-1.02-.41-1.08-.32-1.13-.23-1.17-.14-1.22-.04-.94-.24-.02.03.83.14,1.21.22,1.17.32,1.11.4,1.06.49,1,.35.61ZM81,124.79l-.16.46,1.12-.39-.96-.06ZM85.47,123.64l.37.53.21.25-.26-.7-.23-.9-.14-.94-.05-.87-1.03-1.02v.25s.14.9.14.9l.22.84.31.78.46.88ZM73.61,119.6l1.11.55,1.05.61.97.62,1.54,1.09,1.72,1.26.54.34v-4.63l-.36-1.47s0-.03,0-.04l-.1-1.28-.81.23-1.2.26-1.23.21-1.25.14-1.28.07h-1.28s-1.28-.05-1.28-.05l-1.26-.12-1.23-.18-1.21-.25-1.16-.31-1.11-.36-1.06-.42-.99-.47-.91-.53-.84-.57-.33-.27-.05,1.04-.21,1.42v4.64l1.42-1.01.36-.23.95-.53,1.09-.46,1.27-.35s.02,0,.03,0c0,0,.01,0,.02,0l.86-.08.98.03.78.08.8.11s.01,0,.02,0l.92.15.91.17.92.25.88.33s0,0,.01,0h0s.01,0,.02,0ZM113.52,122.22l.21.33.33.44-.28-.58-.42-1.1-.33-1.16-.23-1.21-.15-1.25-.05-1.17-1.04-1.02.02.58.14,1.21.23,1.16.31,1.12.41,1.06.49.99.35.61ZM81.18,119.55l.23.57.41.73.48.69.56.6.25.21s0,0,0,0l-.4-.43-.68-.93s0,0,0,0c0,0,0,0,0,0h0s0-.01-.01-.02l-.32-.6-.35-.8-.11-.02h-.06ZM60.67,121.81l.24.24-.05-.28-.3-.09.11.12ZM83.51,121.96l.09.08-.29-.77-.23-.9-.14-.95-.05-.87-1.49-1.46.04.42.06.42.15.7.2.68.35.83.42.74.52.7.37.4ZM52.38,116.28v.53s-.09.89-.09.89l-.13.82-.19.75-.25.68-.29.58s-.01.03-.02.04l-.34.48s-.02.02-.03.03l-.37.39s-.03.03-.04.04l-.42.28s-.03.02-.05.03l-.28.12h.05s.35-.1.35-.1c.02,0,.03-.01.05-.02h.02s.36-.19.36-.19l.37-.28.34-.37.31-.48.27-.56.22-.64.18-.73.13-.8.07-.86.02-.61h-.04s-.2-.02-.2-.02ZM48.64,121.55l.46.02.43-.08.39-.17.37-.25.33-.35.31-.44.26-.54.23-.63.17-.7.13-.78.08-.85.02-.91-.02-.98-.08-1.01-.13-1.06-.18-1.08-.24-1.1-.27-1.11-.33-1.12-.36-1.1-.41-1.09-.44-1.07-.48-1.03-.51-.99-.53-.94-.55-.87-.56-.81-.58-.74-.59-.66-.59-.56-.58-.49-.57-.39-.55-.3-.5-.19-.49-.1h-.46s-.42.07-.42.07l-.4.16-.36.26-.34.34-.31.46-.27.54-.22.62-.17.71-.14.78-.07.85-.03.9.03.98.07,1.02.14,1.05.18,1.09.23,1.1.28,1.12.32,1.11.37,1.11.4,1.09.45,1.05.47,1.04.51.98.53.92.55.89.57.8.58.74.58.66.59.57.58.48.57.39.54.29.51.19.5.1ZM83.46,118.84l.03.52.13.9.22.84.11.3-.16-.85-.09-.92v-.44s-.01-.02-.01-.03v-.3s-.23-.02-.23-.02ZM53.18,116.18l-.02.75-.07.9-.13.84-.19.77-.24.7-.3.62-.34.53,1.05-.36s.06-.03.09-.04h.06s.37-.2.37-.2l.37-.28.35-.37.3-.46.27-.57.22-.65.18-.73.13-.8.08-.87.02-.53-2.18.74ZM108.59,117.83l3.16,3.1-.47-.95-.42-1.11-.33-1.16-.23-1.2-.15-1.25-.05-1.18-1.02-1v.07s0,.08-.02.11c0,0,0,0,0,0v1.07s-.01.02-.01.03l-.08,2.15s0,.02,0,.03v.16s0,0,0,0c0,.05,0,.09-.03.14l-.35.99ZM86.06,120.75h.06s.06,0,.06,0l.03-.74.13-1,.22-1.01.31-1.02.39-1.02.46-1,.55-.99.62-.96.68-.94.75-.9.8-.85.85-.8.9-.73.93-.68.97-.61.98-.53,1-.46,1.02-.37,1-.29,1.01-.21.99-.12.97-.02.93.06.9.15.87.25.8.32.75.42.69.49.3.29s-.02-.05-.03-.07l-.53-.5-.82-.58-.57-.31-.8-.32-.85-.23-.9-.15-.95-.06-.97.04-1.01.12-1.02.22-1.01.32-1.02.38-1.01.47-.98.55-.97.61-.93.69-.9.75-.85.8-.81.86-.74.9-.68.94-.62.97-.54,1-.47,1.01-.39,1.01-.3,1.01-.22,1.01-.13.98-.04.8.12.04ZM55.06,119.87v.02s-.3.39-.3.39l.18-.09.36-.28.34-.37.31-.48.27-.56.22-.64.18-.73.13-.8.07-.86.02-.61h-.04s-.2-.02-.2-.02v.53s-.09.89-.09.89l-.13.82-.19.75-.25.68-.28.58s-.01.03-.02.04l-.34.48-.23.26ZM84.32,119.18l1.08,1.07.02-.38.13-1.03.23-1.05.31-1.06.4-1.05.48-1.04.56-1.03.64-1,.7-.97.76-.93.84-.89.88-.82.93-.77.96-.71,1-.63,1.01-.57,1.04-.49.64-.24-1.18-1.16-.86.33-1,.46-.99.55-.96.62-.94.68-.9.75-.85.81-.8.86-.75.9-.68.94-.62.97-.54.99-.47,1.01-.38,1.02-.31,1.01-.22,1-.13.99v.24c.06.03.11.08.14.14.06.14,0,.3-.14.36h-.03s0,.09,0,.09ZM57.39,114.74l-.02.75-.07.9-.13.84-.19.77-.24.7-.3.62-.34.53.77-.26s.05-.02.07-.02l1-.34s0,0,0,0h.02s.36-.16.36-.16l.37-.26.34-.35.31-.43.27-.55.23-.62.18-.69.14-.72.12-1.14.02-.55-2.93,1ZM60.54,116.46l-.15.56-.25.67-.3.59s-.01.03-.02.04l-.34.47s-.02.02-.03.03l-.38.39s-.02.02-.04.03l-.42.29s-.03.02-.05.03l-.25.11.28-.06.42-.18.38-.27.36-.36.33-.48.29-.56.24-.64.15-.57-.07-.04-.18-.04ZM80.73,117.85l.29,1.17h.05s.03-.02.04-.02h.07s-.12-.44-.12-.44l-.11-.56-.1-.86-.02-.59-.2-.03.1,1.33ZM110.68,114.38l.03.83.14,1.21.22,1.16.39,1.3-.04-.13-.25-1.12-.17-1.15-.08-1.18v-.63s-.01,0-.01,0v-.27s-.03,0-.03,0c-.02,0-.03,0-.05,0h-.11s-.03-.01-.04-.02ZM108.35,118.38l.13.11-.12-.12h0ZM83.47,118.29l.18.02h.04s.04-.79.04-.79l.14-1.05.24-1.06.34-1.08.42-1.07.52-1.06.6-1.02.68-1.01.74-.96.81-.92.88-.87.92-.8.97-.73,1.01-.66,1.02-.59,1.06-.5.86-.33-.04-.14-.05-.11-.83.32-1.01.47-.98.54-.97.62-.93.69-.9.74-.85.81-.81.86-.74.9-.68.94-.62.97-.54.99-.47,1.01-.39,1.02-.3,1.02-.22,1.01-.13.98-.04.8h.03ZM81.39,116.3l1.53,1.5.02-.37.13-1.03.23-1.05.31-1.06.4-1.06.49-1.04.56-1.02.64-1,.7-.97.76-.93.84-.89.87-.83.93-.77.96-.71,1-.64,1.01-.56,1.04-.49,1.04-.4s.02,0,.03-.01l1.04-.31,1.07-.23,1.05-.14,1.02-.03,1,.05.96.16.92.26.48.2-.26-.25-.68-.55-.74-.46-.81-.36-.87-.27-.92-.16-.98-.08-1.01.02-1.04.13-1.05.22-1.06.32-1.07.41-1.06.5-1.03.58-1.01.67-.98.74-.93.8-.88.87-.82.92-.76.97-.68,1-.61,1.04-.52,1.05-.44,1.07-.35,1.06-.22.93-.2,1.32-.04.86ZM61.65,113.32l.64.52.8.54.88.51.96.46,1.03.41,1.08.35,1.13.3,1.18.24,1.21.18,1.24.12,1.25.06h1.25s1.25-.08,1.25-.08l1.22-.14,1.21-.2,1.17-.25.94-.27.11-1.49.37-1.75v-15.11l-.75.23-1.17.29-1.21.24-1.24.17-1.26.1-1.26.04-1.28-.03-1.25-.08-1.25-.15-1.22-.22-1.17-.28-1.14-.33-1.08-.39-1.01-.44-.95-.5-.88-.55-.79-.58-.24-.22v14.88l.21,1.81.07,1.61ZM113.21,116.27l.16.02h.03s.04-1.05.04-1.05l.13-1.31.23-1.33.32-1.34.4-1.35.49-1.34.57-1.34.65-1.32.74-1.31.8-1.28.88-1.25.93-1.21,1-1.18,1.07-1.13,1.12-1.07,1.16-1.01,1.2-.95,1.24-.89,1.27-.81,1.3-.75,1.31-.67,1.33-.58,1.33-.5,1.34-.41,1.33-.33,1.32-.24,1.31-.15,1.28-.05,1.25.04,1.21.12,1.17.23,1.13.31,1.08.4,1.02.49.95.58.89.66.81.74.28.3-.41-.46-.76-.72-.84-.64-.89-.57-.97-.5-1.02-.41-1.07-.34-1.11-.24-1.17-.16-1.2-.07-1.23.02-1.26.1-1.28.19-1.29.28-1.32.36-1.3.45-1.31.53-1.31.6-1.29.69-1.26.76-1.25.84-1.21.9-1.17.97-1.14,1.02-1.08,1.08-1.04,1.13-.97,1.17-.92,1.2-.84,1.25-.79,1.27-.7,1.29-.63,1.3-.55,1.32-.47,1.33-.38,1.32-.3,1.31-.22,1.3-.13,1.27-.04,1.09.05.02ZM80.66,115.97l.19.02.03-.62.21-1.37.18-.78-.23-.08-.32,1.5-.09,1.32h.03ZM60.65,115.91h0s.03,0,.05,0l.18.06.15-.98.06-1.39-.12-.03h-.08s-.02,0-.02,0l-.02.75-.12,1.19-.08.4ZM111.55,114.7l1.08,1.06.03-.65.13-1.31.23-1.34.31-1.34.39-1.35.48-1.36.56-1.35.65-1.33.72-1.31.8-1.29.86-1.27.93-1.22.98-1.19,1.06-1.15,1.1-1.1,1.16-1.04,1.19-.98,1.23-.91,1.27-.85,1.28-.77,1.31-.71,1.34-.62,1.33-.54,1.34-.46,1.35-.37,1.33-.29,1.32-.2,1.3-.1,1.27-.02,1.24.07,1.21.16,1.16.25,1.11.35,1.16.47-.28-.21-.94-.56-1-.48-1.05-.4-1.11-.31-1.16-.22-1.2-.13-1.24-.04-1.28.05-1.29.15-1.32.23-1.33.33-1.33.41-1.35.51-1.33.58-1.33.67-1.3.75-1.28.82-1.25.9-1.22.97-1.17,1.02-1.12,1.08-1.08,1.14-1.01,1.18-.95,1.23-.89,1.26-.82,1.29-.73,1.32-.65,1.33-.57,1.35-.49,1.35-.41,1.35-.31,1.33-.23,1.33-.14,1.31-.04,1.15ZM52.39,115.71l.22.04h.02s-.02-.75-.02-.75l-.07-1.04-.13-1.06-.18-1.1-.23-1.12-.28-1.13-.32-1.13-.36-1.13-.4-1.11-.44-1.09-.48-1.06-.5-1.01-.53-.98-.55-.9-.57-.85-.59-.78-.59-.71-.6-.61-.59-.55-.58-.44-.58-.36-.53-.25-.52-.16-.49-.07-.46.02-.36.08s-.04.02-.07.03h-.05s-.23.13-.23.13l.44-.08s.04,0,.06,0h.52s.03.01.05.02l.54.11s.03,0,.04.01l.56.21.61.33.61.42.61.51.61.59.61.69.6.77.58.84.57.89.55.96.52,1.01.49,1.05.45,1.09.42,1.11.37,1.12.34,1.14.28,1.13.25,1.12.19,1.1.13,1.08.08,1.04.02.86ZM43.18,95.93l.47.14s.02,0,.04.01l.58.27.63.39.62.47.62.58.62.64.61.74.61.8.59.88.56.92.55,1,.51,1.03.49,1.08.45,1.11.41,1.13.37,1.15.33,1.15.29,1.15.24,1.14.19,1.12.13,1.09.07,1.06.02.63,2.19-.75-.02-.79-.08-1.03-.13-1.06-.18-1.1-.23-1.12-.27-1.13-.32-1.13-.37-1.13-.4-1.11-.44-1.09-.47-1.05-.51-1.02-.53-.97-.55-.92-.57-.85-.58-.78-.59-.7-.6-.63-.6-.55-.58-.44-.57-.36-.53-.25-.52-.16-.49-.07-.47.02-.33.09s-.06.01-.09.01l-.37.13s-.06.03-.1.03l-.65.22ZM56.6,114.27l.22.04h.02s-.02-.75-.02-.75l-.07-1.04-.13-1.06-.18-1.1-.23-1.12-.28-1.13-.32-1.13-.36-1.13-.4-1.11-.45-1.09-.47-1.06-.5-1.01-.53-.98-.55-.9-.57-.85-.59-.78-.59-.71-.6-.61-.59-.55-.58-.44-.58-.36-.53-.25-.52-.16-.49-.07-.46.02-.12.03.28.07.19.08s.06,0,.1,0l.45.1.6.22.61.33.61.42.61.51.62.6.61.67.6.77.58.84.57.89.55.96.52,1,.48,1.05.46,1.08.41,1.11.38,1.13.34,1.13.28,1.13.25,1.12.19,1.1.13,1.08.08,1.04.02.86ZM47.4,94.49l.47.14s.02,0,.04.01l.58.27.63.39.62.47.62.58.62.64.61.74.61.8.59.88.57.92.55,1,.51,1.03.48,1.08.46,1.1.41,1.13.37,1.15.33,1.15.29,1.15.24,1.14.18,1.12.13,1.09.07,1.06.02.63,2.94-1-.03-.97-.13-1.32-.12-.89h0s-.19-1.1-.19-1.1l-.24-1.11-.28-1.12-.33-1.12-.37-1.12-.41-1.1-.45-1.07-.47-1.04-.51-.99-.53-.96-.55-.89-.57-.83-.58-.76-.58-.69-.6-.6-.59-.51-.57-.43-.57-.35-.54-.24-.5-.15-.48-.06-.46.03-.36.08-1.89.65ZM110.79,113.84h.06s.06,0,.06,0l.04-1.04.13-1.31.23-1.33.32-1.34.4-1.35.49-1.35.57-1.34.65-1.32.74-1.31.8-1.28.88-1.25.93-1.22,1.01-1.17,1.07-1.13,1.12-1.08,1.16-1.01,1.2-.95,1.24-.88,1.27-.82,1.3-.74,1.31-.67,1.32-.59,1.13-.42-.1-.25-1.15.43-1.34.58-1.32.67-1.31.75-1.28.83-1.25.89-1.21.97-1.17,1.02-1.13,1.09-1.07,1.13-1.02,1.19-.95,1.22-.89,1.26-.8,1.29-.73,1.32-.66,1.33-.57,1.35-.49,1.35-.4,1.35-.32,1.34-.22,1.33-.14,1.31-.04,1.11.13.04ZM109.07,112.27l1.07,1.05.03-.67.14-1.34.23-1.37.33-1.37.41-1.38.5-1.38.58-1.38.68-1.36.75-1.34.82-1.31.9-1.28.96-1.24,1.03-1.21,1.09-1.15,1.15-1.11,1.19-1.04,1.23-.98,1.27-.9,1.3-.84,1.33-.76,1.34-.69,1.37-.6,1.36-.51s.02,0,.03,0l1.35-.42,1.37-.34,1.35-.24,1.34-.15,1.31-.05,1.28.04,1.25.13,1.2.23,1.15.32,1.1.41.81.39-.88-.86s-.01-.01-.02-.02l-2.29-2.25-.56-.52-.85-.65-.54-.36-.37-.22-.99-.5-1.05-.42-1.09-.33-1.15-.24-1.19-.15-1.23-.06-1.27.03-1.27.12-1.08.16-1.08.22-1.09.28-1.09.34-.84.31-.85.34-.87.4-1.71.88-1.3.77-1.27.84-1.24.91-1.21.98-1.16,1.04-1.11,1.09-1.05,1.15-1,1.19-.94,1.23-.87,1.26-.79,1.3-.71,1.32-.64,1.33-.55,1.34-.47,1.35-.38,1.35-.27,1.19,1.94,1.9s.01.01.02.02h0s.03.04.04.06c0,0,0,0,0,0h0s.02.05.02.07c0,0,0,0,0,0l.12.54.52.63.26.37s.02.04.03.06l.15.22.38.78.1.25s.05.1.05.15v.16s0,.02,0,.03l.08,2.45ZM60.88,113.03l.21.02-.05-1.29-.19-1.62h-.02s-.2.02-.2.02l.12.87.1,1.13.03.88ZM81.19,112.61l.24.08.25-.76.45-1.11.54-1.08.63-1.07.7-1.03.78-1,.84-.95.91-.9.96-.83,1.01-.76,1.04-.69,1.06-.6,1.09-.52.78-.3-.09-.24-.73.28-1.03.48-1.01.55-.99.63-.96.7-.92.76-.88.82-.83.87-.77.91-.71.96-.65.99-.57,1.01-.49,1.03-.42,1.04-.23.71ZM151.28,111.09l-.26.61,13.54-4.64.11-.12.11-.2.07-.3-13.57,4.64ZM81.1,97.54v13.67l.23-.57.51-1.06.59-1.04.67-1.02.73-.99.79-.94.85-.9.91-.84.95-.78.99-.72,1.02-.65,1.04-.57,1.06-.5,1.06-.4s.02,0,.03,0l1.06-.32,1.09-.24,1.07-.14,1.04-.05,1.02.05.97.15.93.24.88.33.81.43.76.51.68.61s0,0,.01.01c0,0,0,0,0,0,0,0,0,0,0,0h0s0,0,0,0l.49.54.45.62.2.33.16.3.13-.59.41-1.41.49-1.41.59-1.41.67-1.39.75-1.37.83-1.34.9-1.32.97-1.28,1.03-1.24,1.11-1.2,1.16-1.14,1.2-1.08,1.26-1.02,1.29-.94.55-.37-36.4,12.45ZM33.81,104.8l6.06,5.95-.12-.36-.32-1.06-.28-1.08-.24-1.06-.19-1.06-.14-1.03-.1-1.01-.04-.89-1.33.46s-.05.01-.07.02t0,0h0s-.02,0-.03,0l-.31.09s-.03,0-.05,0l-.33.03-.08.06s-.03.02-.04.03l-.04.02s-.01,0-.02,0l-.45.22s-.04.02-.07.02h-.03s-1.79.62-1.79.62ZM152.61,106.41l-.14.77-.31,1.27-.38,1.28-.25.7,13.35-4.57v-1.14l-.18.12-.94.58-.97.51-.97.43-.98.37-1,.29-.98.21-.98.13-.94.05-.93-.03-.9-.11-.87-.2-.82-.28-.82-.38ZM50.11,93.18s.02,0,.03,0l.53.06s.03,0,.05.01l.56.17.6.27.62.38.61.46.62.54.62.63.6.72.6.78.59.85.57.92.54.98.52,1.01.48,1.06.46,1.08.42,1.12.38,1.14.34,1.14.29,1.14.25,1.13.15.83.22-.02-.14-.77-.25-1.16-.3-1.17-.34-1.17-.39-1.16-.42-1.14-.47-1.12-.5-1.09-.53-1.03-.55-.99-.58-.93-.59-.86-.6-.8-.61-.71-.62-.64-.62-.54-.6-.45-.59-.35-.57-.26-.51-.15-.51-.06-.47.03-.43.12-.23.12.23-.05s.03,0,.05,0l.51-.03s.01,0,.02,0ZM107.1,107.59l.1.09-.07-.08s-.02,0-.03-.01ZM50.46,92.46s.02,0,.03,0l.56.07s.03,0,.05,0l.57.17.63.29.64.38.64.48.65.57.64.66.63.73.62.83.61.88.6.96.57,1.01.54,1.06.5,1.11.48,1.13.43,1.16.4,1.18.35,1.19.22.86v-12.68L26.73,61.06v.52s0,.01,0,.02h0s0,.02,0,.03l-.02.15s-.01.06-.03.09l-.03.06s-.03.05-.05.07l-.03.03s-.06.05-.09.06l-.05.02c-.05.02-.11.02-.16.01h-.05s-.06-.03-.09-.04l-.12-.07s-.03-.02-.04-.03c0,0,0,0-.01-.01l-.5-.5h0s-.06-.06-.06-.06c-.01-.01-.03-.03-.04-.05l-.17-.3s-.01-.03-.02-.05l-.09-.35s0-.03,0-.05v-.09h0v-1.07l-1.21-1.19v.52s0,.01,0,.02c0,0,0,.01,0,.02l-.02.16s-.02.07-.04.11l-.03.05s-.03.04-.04.05l-.03.03s-.06.05-.09.06l-.05.02s-.1.02-.16.01h-.05s-.03-.02-.05-.02l-.05-.02s-.05-.03-.07-.04l-.06-.05s-.02-.01-.02-.02c0,0,0,0,0,0l-.57-.57s-.03-.03-.04-.05l-.17-.3s-.01-.03-.02-.05l-.09-.35s0-.03,0-.05v-1.15l-12.12-11.89v18.01l15.6,15.31.88-.3s0,0,0,0c0,0,.01,0,.02,0h.04s0-.01,0-.01l.33-.09s.03,0,.05,0l.32-.03.09-.06s.03-.02.04-.02l.55-.26s.02-.01.03-.02h0s0,0,0,0c0,0,0,0,0,0l2.32-.79.31-.37s.02-.03.04-.04l.41-.34s.03-.02.04-.03l.45-.25s.04-.02.06-.02l.48-.14s.03,0,.05,0l.51-.06s.04,0,.06,0l.54.05s.03,0,.04,0l.56.14s.03,0,.04.01l.59.24.62.35.63.44.63.53.63.61.62.71.62.77.6.85.59.9.57.96.55,1.03.51,1.06.48,1.1.45,1.13.41,1.16.37,1.16.32,1.17.29,1.15.23,1.15.18,1.14.13,1.1.06.93.11-.04s.01,0,.02,0h0s.04-.01.04-.01c0,0,0,0,0,0l.34-.09s.04,0,.05-.01l.31-.03.1-.07.49-.24s.03-.01.05-.02h0s.03-.02.05-.03h.03s0-.01,0-.01l2.33-.81.37-.41s.02-.02.03-.03l.42-.34s.03-.02.05-.03l.47-.23s.03-.01.05-.02l.49-.13s.04,0,.06,0l.53-.03s.01,0,.02,0ZM165.42,106.26l-.02.24s0,.03,0,.04l-.06.27.23-.08,2.02-.63,2.05-.58,2.1-.54,2.14-.49,2.16-.44,2.2-.4,1.39-.21.03-.05.06-.21.04-.4-1.61.26-1.93.35-1.89.4-1.88.43-1.85.47-1.81.51-1.78.54-1.58.52ZM152.78,105.29l.23.16.7.39.75.3.8.24.84.13.88.06.92-.02.94-.11.96-.2.97-.28.98-.36.96-.45.96-.51.93-.59.91-.66.87-.71.83-.78.78-.82.72-.87.66-.91.6-.93.53-.96.46-.97.37-.98.3-.99.21-.96.13-.95.04-.92-.04-.91-.13-.86-.21-.82-.29-.76-.36-.72-.45-.64-.52-.58-.58-.5-.65-.44-.7-.36-.77-.29-.81-.19-.86-.12-.9-.04-.92.05-.95.14-.96.22-.97.31-.97.38-.97.47-.95.54-.93.6-.89.68-.86.73-.81.79-.77.84-.71.88-.64.91-.58.95-.51.96-.54,1.26.03.04s.02.04.03.06c0,0,0,0,0,0l.36.59.48.98.41,1.03.32,1.07.25,1.12.17,1.15.08,1.18v.65s.01,0,.01,0v.02s0,.01,0,.02v.4s-.07,1.22-.07,1.22l-.08.64ZM165.43,104.33v1.35l1.4-.46,1.8-.54,1.82-.51,1.87-.47,1.89-.43,1.91-.4,1.94-.36,1.71-.28v-7.89l-2.46.41s-.02,0-.03,0c-.02,0-.05,0-.07,0h0s0,0,0,0c0,0-.01,0-.02,0,0,0,0,0,0,0h0s-.07-.03-.1-.05c-.02-.02-.04-.04-.06-.06,0-.01-.01-.02-.02-.03h0s0,0,0,0c-.01-.03-.02-.06-.03-.1,0,0,0-.02,0-.02v-.4l-.05-.02-2.45.44-2.22.47-.13.43-.36.99-.44.98-.52.96-.58.95-.64.92-.69.89-.75.85-.8.8-.84.75-1.07.83ZM96.35,104.24l1.16,1.14.89-.28,1.07-.23,1.05-.13,1.02-.04,1,.06.95.16.91.25.42.17h0s-.68-.5-.68-.5l-.24-.14s-.03-.01-.04-.02h0s-.45-.23-.45-.23l-.8-.34-.85-.23-.9-.15-.93-.05-.98.03-1,.13-1.01.22-.59.18ZM34.81,99.03l-.02.53-.08.88-.13.83-.19.75-.24.68-.3.59-.34.51s-.02.03-.03.04l-.38.39s-.03.02-.04.04l-.42.28s-.03.02-.05.03l-.28.12h.04s.39-.12.39-.12c0,0,.02,0,.03,0l.37-.18.37-.28.34-.37.31-.49.26-.55.22-.64.18-.73.13-.8.08-.87.02-.6-.24-.02ZM31.07,104.31h.46s.43-.06.43-.06l.39-.17.37-.25.34-.35.31-.46.27-.53.22-.63.18-.7.13-.79.08-.85.03-.91-.03-.98-.08-1.01-.13-1.06-.18-1.08-.23-1.11-.28-1.11-.32-1.12-.37-1.1-.41-1.09-.44-1.07-.48-1.02-.5-.99-.53-.93-.55-.87-.57-.81-.58-.74-.58-.66-.58-.56-.58-.48-.57-.39-.53-.29-.53-.2-.49-.1h-.45s-.43.07-.43.07l-.39.16-.37.25-.33.35-.31.44-.28.55-.22.62-.17.71-.13.78-.08.85-.03.9.03.98.08,1.01.13,1.05.18,1.09.23,1.1.28,1.11.33,1.12.36,1.11.41,1.09.44,1.06.48,1.03.5.99.53.93.56.88.56.8.58.74.59.66.59.58.57.48.57.39.55.29.51.19.49.1ZM104.6,104.19l.14.02s.03,0,.04.01l.07.03.22-1,.39-1.38.48-1.38.56-1.37.66-1.36.73-1.34.81-1.32.88-1.28.95-1.25,1.01-1.21,1.06-1.17,1.13-1.11,1.18-1.06,1.23-.99,1.26-.92,1.29-.85,1.05-.62-.12-.22-1.07.62-1.3.87-1.27.93-1.24,1-1.18,1.06-1.14,1.12-1.09,1.18-1.02,1.22-.96,1.26-.89,1.3-.82,1.32-.73,1.35-.65,1.37-.57,1.38-.48,1.38-.4,1.38-.23,1.04ZM35.61,98.94l-.02.76-.08.9-.13.84-.19.77-.24.7-.29.61-.34.54,1.06-.36s.04-.02.06-.03l.12-.04.34-.17.36-.28.33-.37.31-.48.27-.56.22-.64.18-.73.13-.8.07-.86.02-.53-2.17.74ZM95.37,103.4l.07.19s.01.03.02.05h0s.7-.2.7-.2l1.02-.22,1.01-.14.41-.02c.05,0,.11.01.15.03l.82-.05.93.03.9.11.46.1-.11-.04-.86-.24-.89-.15-.95-.05-.97.03-1,.13-1.02.22-.68.21ZM180.31,102.7v.2s-.05.37-.05.37c0,0,0,0,0,0l.31-.14.38-.26.34-.32.2-.28-.08.05s-.03.02-.04.02l-.47.2s-.04.01-.06.02c0,0,0,0,0,0l-.22.07s-.03,0-.04.01l-.27.06ZM37.48,102.63v.02s-.28.38-.28.38l.17-.08.37-.28.34-.37.39-.63.04-.62.04-.3-.19.52-.3.59-.34.51s-.02.02-.03.03l-.22.24ZM97.17,100.25l1.03.08.98.18.93.29.87.39.81.5.61.49v-.06s-.58-.52-.58-.52l-.7-.47-.76-.4-.82-.31-.88-.22-.92-.14-.97-.05-.99.05-1.03.13-1.04.23-.82.25.09.24.92-.27,1.1-.23,1.09-.14,1.07-.02ZM180.31,94.25v7.89l.19-.05v-7.88l-.19.04ZM181.05,94.02v7.86l.07-.03.34-.22.25-.26.15-.25.05-.27v-7.34l-.08.08s-.03.02-.04.04l-.39.25s-.03.02-.04.02l-.31.13ZM39.02,97.59l-.02.53-.08.84.08-.25.25-.6.02-.49-.24-.02ZM34.86,98.48l.18.02h.02s-.02-.75-.02-.75l-.08-1.03-.13-1.06-.18-1.1-.23-1.12-.27-1.13-.32-1.13-.37-1.13-.4-1.11-.44-1.09-.47-1.06-.51-1.01-.53-.97-.55-.92-.57-.84-.58-.78-.59-.71-.6-.61-.6-.55-.58-.44-.57-.36-.55-.26-.5-.16-.49-.06-.47.02-.38.09s-.01,0-.02,0l-.08.03-.23.11.45-.08s.04,0,.06,0h.51s.03.01.05.02l.54.11s.03,0,.04.01l.57.21s.02.01.04.02l.57.32.61.42.62.51.61.59.6.69.6.76.59.83.57.9.54.96.51,1.01.49,1.04.45,1.09.42,1.11.38,1.12.33,1.14.29,1.13.24,1.13.19,1.1.13,1.08.08,1.04.03.86h.04ZM25.62,78.68l.46.15.61.29.62.39.62.47.63.57.62.64.61.74.6.8.59.86.57.94.54.98.52,1.04.48,1.08.45,1.11.41,1.13.38,1.15.33,1.15.28,1.15.24,1.14.19,1.12.13,1.09.08,1.06.02.63,2.18-.75-.02-.79-.07-1.04-.13-1.06-.18-1.1-.23-1.12-.28-1.13-.32-1.13-.36-1.13-.4-1.11-.44-1.09-.48-1.06-.5-1.01-.53-.98-.55-.9-.57-.85-.59-.78-.59-.71-.6-.61-.59-.55-.58-.44-.58-.36-.53-.25-.52-.16-.49-.07-.46.02-.35.08s-.03,0-.04,0h0s-1.14.39-1.14.39ZM61.38,94.29l.58.52.75.55.85.53.92.48.98.43,1.05.38,1.11.32,1.15.27,1.19.21,1.22.15,1.22.08,1.25.03,1.23-.04,1.24-.1,1.21-.16,1.18-.23,1.15-.28.88-.27-.02-.22-.06-.44-.11-.45-.14-.46-.17-.43-.2-.44-.34-.54-.8.24-1.04.26-1.07.2-1.1.13-1.12.07-1.12.02-1.12-.04-1.11-.1-1.09-.16-1.06-.23-1.02-.27-.97-.33-.92-.38-.86-.44-.78-.48-.72-.51-.47-.42-.23.13-.38.3-.33.33-.27.35-.23.41-.16.38-.1.39-.02.26ZM39.07,97.04l.18.02h.02s-.02-.75-.02-.75l-.08-1.03-.13-1.06-.18-1.1-.23-1.12-.27-1.13-.32-1.13-.37-1.13-.4-1.11-.44-1.09-.47-1.06-.51-1.01-.53-.97-.55-.9-.57-.85-.58-.78-.59-.71-.6-.61-.6-.55-.58-.44-.57-.36-.55-.26-.5-.16-.49-.06-.47.02-.12.03.28.07.19.08s.06,0,.1,0l.45.1.6.22.61.33.61.42.62.51.61.59.6.69.6.76.59.83.57.9.54.96.51,1.01.49,1.04.45,1.09.42,1.11.38,1.12.33,1.14.29,1.13.24,1.13.19,1.1.13,1.08.08,1.04.03.86h.04ZM80.05,93.99l.03.04.25.42.22.47.19.47.15.5.12.49.07.58,38.59-13.2,2.19-1.06,2.24-.88,2.28-.67,2.25-.46,38.73-13.25v-.22s-.08-.43-.08-.43l-.1-.46-.15-.45-.17-.46-.2-.41-.34-.55-86.27,29.52ZM29.84,77.24l.46.15.61.29.62.39.62.47.63.57.62.64.61.74.6.8.59.87.56.92.54.99.52,1.04.48,1.08.45,1.11.41,1.13.38,1.15.33,1.15.28,1.15.24,1.14.19,1.12.13,1.09.08,1.06.02.63.31-.11.23-.22.45-.33s.03-.02.04-.03l.46-.22s.03-.01.05-.02h.02s0-.01,0-.01h.02s.02-.02.04-.02c0,0,0,0,0,0l1.3-.44v-.38s-.09-1.03-.09-1.03l-.13-1.06-.18-1.1-.23-1.12-.27-1.13-.33-1.12-.36-1.13-.4-1.11-.44-1.09-.48-1.06-.5-1.01-.53-.98-.55-.9-.57-.85-.58-.78-.6-.71-.59-.62-.6-.55-.58-.44-.58-.36-.52-.25-.53-.16-.49-.07-.46.02-.38.09-1.89.65ZM32.58,75.93s.03,0,.04,0l.54.08s.03,0,.04,0l.57.17s.03,0,.04.02l.57.27.63.39.62.47.63.57.61.64.62.73.6.81.59.87.57.92.55,1,.51,1.03.49,1.08.45,1.11.41,1.13.37,1.15.34,1.14.28,1.15.24,1.14.18,1.12.13,1.09.09,1.28.22-.08h0s-.07-1.06-.07-1.06l-.13-1.07-.18-1.12-.22-1.13-.28-1.14-.31-1.15-.36-1.14-.4-1.14-.44-1.11-.47-1.08-.5-1.04-.53-1.01-.56-.94-.57-.89-.58-.82-.6-.75-.6-.68-.6-.58-.6-.51-.59-.41-.57-.32-.54-.22-.52-.13-.49-.05-.46.05-.43.13-.16.09.3-.07s.03,0,.05,0l.51-.02s0,0,.01,0ZM150.23,94.33l.18.25.42-.96.53-.99.6-.98.66-.94.73-.91.79-.87.83-.81.89-.75.92-.7.96-.62.98-.56,1-.49,1.01-.39,1.01-.32,1.01-.23,1-.15.97-.05.95.04.91.12.87.21.83.32.76.39.7.47.69.61-.29-.33-.61-.53-.63-.43s-.01,0-.02-.01l-.75-.4-.78-.3-.83-.21-.89-.14-.91-.04-.96.04-.98.13-.99.22-1,.3-1.04.4-1.03.48-1.01.56-.99.64-.95.71-.91.78-.87.83-.81.89-.75.93-.69.97-.61,1-.53,1.02-.36.8ZM63.82,91.01l.61.54.69.49.77.45.85.41.92.36.97.31,1.03.25,1.06.19,1.09.13,1.11.07h1.11s1.11-.06,1.11-.06l1.09-.12,1.07-.18,1.03-.25.98-.3s0,0,0,0l86.55-29.61h0s.94-.35.94-.35l.86-.41.78-.45.7-.49.61-.52.53-.56.41-.57.3-.58.21-.6.11-.61v-.61s-.09-.6-.09-.6l-.2-.6-.3-.59-.42-.59-.5-.55L118.81,4.92s-.02-.02-.03-.03l-.04-.04-.61-.54-.69-.49-.77-.45-.85-.42-.91-.36-.98-.3-1.02-.26-1.06-.19-1.09-.13-1.11-.06h-1.12s-1.11.05-1.11.05l-1.09.12-1.07.19-1.03.24-.98.3L16.67,32.16l-.94.36-.87.4-.78.46-.7.49-.62.52-.56.62s-.02.03-.03.04l-.34.48-.31.57-.21.6-.11.61v.61s.09.6.09.6l.2.6.32.61.41.58.5.55,51.11,50.15ZM172.82,91.35v.17l-.05.91-.13.98-.16.75,3.51-.84-.11-.1s-.02-.02-.03-.04l-.43-.54s-.02-.03-.03-.05l-.61-1.23s-.01-.03-.02-.04l-.42-1.34-.26-1.35-.46-.65-.42-.71-.33-.73-.69,1.32.12.29.25.85.17.89.09.92v.51s.01,0,.01,0h0ZM177.73,94s0,.04,0,.06l-.02.06,2.04-.34-.04-.25-1.97.32v.11s0,.03,0,.04ZM149.09,93.01l.18.17.57.66.24-.55.55-1.05.63-1.03.71-1,.77-.96.83-.92.9-.86.94-.8.98-.73,1.02-.66,1.04-.58,1.06-.5.66-.26-1.18-1.15-.88.33-1.03.49-1.01.56-.98.64-.95.71-.92.77-.86.84-.82.89-.75.93-.68.97-.61,1-.54,1.03-.29.64.37.36s.03.03.04.05ZM26.74,60.3l34.15,33.51.08-.33s0-.03.01-.04l.18-.43.26-.46s.01-.02.02-.03l.31-.39.38-.38.42-.34s.02-.02.03-.02l.11-.06L28.46,57.75l-.23.14-.36.29-.33.33-.28.37-.22.39-.16.38-.1.4-.03.26ZM180.25,93.43l.05.26.21-.05s.03,0,.04-.01l.14-.04.45-.19.34-.22.25-.25.15-.25.05-.27-.05-.3-.06.23s-.02.06-.04.08l-.17.26s-.03.04-.04.05l-.26.24s-.03.03-.05.04l-.35.19-.44.18s-.03.01-.05.01l-.16.03ZM11.57,82.98l10.72,10.52-.12-.36-.32-1.06-.27-1.08-.24-1.05-.2-1.06-.14-1.04-.09-1.01-.05-.97v-.46s0,0,0,0v-.05h0s0-.7,0-.7l.06-.88.11-.84.17-.77.21-.71.27-.66.31-.56.37-.5s.02-.02.03-.03l.38-.38s.02-.02.03-.03l.42-.3s.03-.02.04-.03l.55-.26s.02-.01.04-.02c0,0,0,0,0,0,0,0,0,0,0,0l1.26-.43-15.02-14.74v7.64l1.42,2.39s.02.03.02.05c0,0,0,0,0,0,0,0,0,.01,0,.02,0,.03.01.06.01.08v9.27ZM177.34,93.2l.16.13,2.34-.39s0,0,0,0l.43-.09.38-.15.28-.16.22-.2.13-.2.05-.19-.02-.18-.09-.19-.18-.2-.28-.19-1.98-1.14-.67-.08-.65-.03-.32.02-.62.09-.57.16-.48.19-.16.1v.03s.37.88.37.88l.23.42.43.6.29.3.4.29.26.15s.02.01.03.02c0,0,.01,0,.02.01ZM147.81,91.74l.2.2.31-.73.54-1.01.6-.99.68-.96.74-.92.8-.88.84-.82.91-.77.94-.7.98-.64.99-.56,1.03-.48.82-.32-.09-.24-.85.32-1.03.49-1.01.56-.99.64-.95.71-.91.77-.87.84-.81.88-.75.94-.69.97-.61,1-.53,1.02-.29.65ZM147.05,91.04l.33.29.22-.48.54-1.05.63-1.03.71-1,.77-.97.84-.91.9-.87.94-.79.98-.73,1.02-.66,1.04-.58,1.06-.51,1.06-.4s.02,0,.03,0l1.02-.31,1.04-.23,1.03-.14,1.01-.04.97.05.94.13.9.24.61.23-.32-.3-.68-.54-.42-.27-.3-.16-.82-.36-.86-.26-.91-.15-.96-.08-1,.03-1.03.13-1.04.22-1.05.32-1.08.41-1.07.51-1.05.59-1.02.68-.99.75-.94.82-.88.88-.83.94-.76.98-.68,1.03-.77,1.38-.42.89.81.8s.02.02.03.03l.04.03.37.37s.04.05.05.08ZM174.73,88.38s0,0,0,0l.28,1.25.11.34.07-.04s.03-.01.04-.02l.33-.13v-3.01l-.33-.56s0-.01-.01-.02l-.61-1.16-.19-.42v.81s0,.01,0,.02c0,0,0,0,0,0l.07,1.38.23,1.56ZM176.13,87.59v2l.28-.07.68-.1.36-.02h.4s-.44-.36-.44-.36l-.49-.47-.24-.27-.55-.71ZM145.13,89.12l.2.2.44-.92s0-.01,0-.02l-.07-.15s-.01-.03-.02-.05l-.03-.12-.31.61-.2.45ZM176.68,87.42l.05.07.58.7.46.44.62.51.11-.2-.03-.02s-.04-.02-.06-.03l-.03-.02s-.02-.01-.03-.02l-.13-.09s-.06-.04-.09-.07l-.17-.11-.41-.32s0,0,0,0h0s0,0,0,0c0,0,0,0,0,0h0s0,0,0,0l-.86-.82ZM130.66,88.54l.03.07s.01.03.02.04l.04.14,1.02-.32,1.33-.32,1.32-.24,1.31-.15.52-.03s.09,0,.13.03l.16-.02,1.22-.04,1.19.05,1.16.12,1.12.21.5.13-.14-.05-1.1-.31-1.16-.22-1.21-.13-1.24-.04-1.27.05-1.3.15-1.32.23-1.33.33-.99.31ZM143.18,87.21l1.53,1.5.35-.73.49-.89s0,0,0-.01l.65-1.03.73-1.01.8-.97.85-.92.92-.87.97-.8,1-.74,1.04-.66,1.06-.59,1.07-.5,1.08-.42s.02,0,.03-.01l1.05-.31,1.05-.24,1.06-.14,1.03-.05.99.04.97.13.92.23.86.31.82.41.75.49.68.57.6.65.53.74.26.48v-13.85l-36.57,12.51h.55s1.3.05,1.3.05l1.26.16,1.22.26,1.17.34,1.11.45,1.06.54.99.62.92.71.84.8.76.87.69.94.53.93ZM146.08,87.29l.05.46.33-.58.7-1.06.79-1.01.85-.97.91-.91.97-.85,1.02-.77,1.05-.7,1.09-.61,1.1-.53.79-.3-.09-.21s0-.02-.01-.04l-.75.29-1.04.48-1.03.57-1.01.64-.97.72-.94.78-.89.84-.83.89-.78.94-.71.98-.59.93ZM173.23,85.85l.17.53.29.64.26.45-.07-.69-.03-1.78.03-.39-.65,1.24ZM171.51,86.53s0,0,0,0l.05.07.34.62.02-.03.77-1.5s0,0,0,0l1.11-2.1.21-.46.2-.5.14-.41.08-.3-.02-.17c0-.06,0-.12.04-.17v-.03l-.1.23-.55.87-.55.67-.64.63-.77.62-.77.54-.46.27.49.56.38.54s.02.03.03.04ZM140.85,84.92l.1.1-.15-.17-.8-.76-.87-.67-.94-.59-1.01-.52-1.07-.43-1.12-.33-1.18-.25-1.22-.16-1.26-.06-1.29.03-1.09.11.05.24,1.15-.11,1.31-.03,1.27.06,1.23.15,1.19.25,1.14.34,1.09.44,1.03.52.39.23s0,0,.01,0c0,0,0,0,0,0h0s0,0,0,0l.56.38.89.68.58.53s0,0,0,0ZM168.84,83.64s0,0,.01.01l1.35,1.33.59-.35.75-.52.73-.6.6-.6.51-.64.38-.6.31-.66.22-.72.06-.32.06-.42.02-.31v-4.92h0v-10.38h0v-.9h0v-.25l-.3.57-.48.71-.59.67-.69.64-.77.6-.86.56-.93.51-1.01.46-.88.33v14.9l.06.06s.02.02.03.03l.03.03.37.4s.02.02.02.03l.42.37ZM120.11,84.16l.12.21,1.53-.79.89-.41.87-.35.86-.32,1.12-.35,1.12-.29,1.11-.23.71-.11-.02-.05s0-.04-.01-.06v-.12s-1.92.39-1.92.39l-2.23.66-2.2.87-1.96.95ZM159.6,82.6l1.17,1.14.87-.26,1.04-.23,1.03-.14,1.01-.04.97.04.95.15.89.23.55.21-.14-.12-.64-.44s-.02,0-.02-.01l-.74-.4-.79-.3-.83-.21-.89-.13-.92-.05-.95.04-.98.13-.99.22-.57.17ZM1.99,76.88l.83.46,1.57.94,1.5.96,1.43,1,1.37,1.02,1.29,1.05,1.04.92h0s-.98-.94-.98-.94l-1.11-.97-1.16-.95-1.22-.92-1.28-.9-1.33-.87-1.39-.85-.95-.54.05.18.14.23.2.16ZM1.53,75.63l1.3.74,1.4.86,1.35.88,1.3.91,1.24.93,1.18.96,1.12.98.6.57v-8.63l-.91-.84-.8-.71-1.38-1.1-1.44-1.05-1.52-1.02-1.39-.84v.26s0,.03,0,.04c0,.01,0,.02,0,.04,0,.03-.02.07-.04.09-.02.03-.05.06-.09.08h0s0,0,0,0c0,0,0,0,0,0-.03.01-.06.02-.09.03-.03,0-.06,0-.08,0h0s0,0,0,0c-.01,0-.02,0-.03,0-.03,0-.05-.02-.07-.03l-1.63-.95v7.82ZM158.63,81.76l.09.24.74-.22,1.06-.23,1.04-.13.88-.02s.04,0,.06,0h.06s.94,0,.94,0l.91.09.65.12-.19-.07-.84-.23-.88-.13-.92-.05-.96.04-.98.13-.99.22-.66.2ZM165.92,80.78l.05.05-.39-.42-.63-.52-.7-.46-.76-.38-.8-.29-.87-.21-.92-.13-.94-.04-.98.05-1.02.13-1.01.23-.81.24.04.12.06.13.9-.27,1.09-.23,1.08-.14,1.05-.03,1.02.08.97.17.93.28.86.38.33.17s0,0,.01,0c0,0,.01,0,.02.01l.45.29.71.56.24.22s0,0,0,0ZM175,74.51v4.36l.21-.23.31-.48.27-.56.22-.64.18-.73.13-.8.08-.87v-.53s-1.39.48-1.39.48ZM176.08,78.49l-.26.37.17-.08.37-.28.34-.37.31-.49.27-.55.21-.64.18-.73.13-.8.08-.87.02-.6-.24-.02-.02.53-.08.89-.13.82-.19.75-.24.68-.3.59-.34.51-.24.28s-.01.01-.02.02ZM178.45,73.33l-.02.75-.08.9-.13.84-.19.77-.23.69-.3.61-.34.53,1.06-.36s.04-.02.06-.03l.12-.04.34-.17.36-.28.34-.37.31-.48.27-.56.22-.64.18-.73.13-.8.08-.87v-.53s-2.16.74-2.16.74ZM.83,75.1l.15.15v-7.76l-.27-.18s-.03-.02-.04-.04l-.03-.04v7.39s.06.24.06.24l.14.24ZM175,65.58v8.34l1.41-.48-.02-.79-.08-1.03-.13-1.06-.18-1.1-.23-1.12-.28-1.13-.48-1.63ZM177.7,72.87l.18.02h.02s-.02-.75-.02-.75l-.08-1.03-.13-1.06-.18-1.1-.22-1.12-.28-1.12-.32-1.13-.37-1.13-.4-1.11-.44-1.09-.43-.97v.5l.58,1.38.42,1.11.38,1.12.33,1.14.29,1.13.24,1.13.19,1.1.13,1.08.08,1.04.03.86h.04ZM174.97,59.99l.49.96.48,1.08.45,1.11.41,1.13.38,1.15.33,1.15.29,1.15.23,1.14.18,1.12.13,1.09.08,1.06.02.64,2.18-.75-.02-.79-.08-1.03-.13-1.06-.18-1.1-.23-1.12-.28-1.13-.32-1.13-.36-1.13-.4-1.11-.44-1.09-.48-1.05-.5-1.02-.53-.98-.55-.9-.57-.85-.59-.78-.59-.71-.59-.62-.6-.55-.58-.44-.58-.36-.53-.25-.52-.16-.49-.07h-.26s2.26,2.23,2.26,2.23c0,0,0,0,0,0,0,0,0,0,0,0h0s.63.69.63.69l.53.7.45.72.36.75.28.77.19.79.08.77ZM9.82,71.95l.23.22-.19-.31-.05.09ZM4.4,67.74l2.56,1.83,2.43,2.01.14-.32-.24-.6-.45-1.41-.28-1.05-.44-1.91-.23-1.29-.18-1.28-.07-.77-.08.16-.4.57-.53,1.23-.66,1.19s-.02.03-.02.04l-.81,1.03s-.03.03-.04.04l-.49.41s-.03.02-.05.03l-.16.09ZM8.12,61.73h0s.03.68.03.68l.11,1.25.18,1.26.22,1.27.43,1.88.27,1.03.18.58v-6.69l-.52-.56-.51-.7-.43-.75v.21l.02.54ZM1.56,67.2l1.39.8v-.05h0v-.02s0-.05.01-.08v-.08s.02-.04.03-.06l-1.31-.74-.06.1-.06.12ZM1.8,66.4l1.57.89s.02-.01.04-.01h.03s.05-.04.08-.05l.21-.06.39-.16.32-.22s-.03,0-.05-.01h-.04s0-.01,0-.01c-.07,0-.13-.02-.18-.07l-.09-.03s-.04-.02-.06-.03l-.23-.15s-.06-.05-.08-.08l-.13-.19s-.04-.08-.05-.13l-.02-.21s0-.1.02-.14l.09-.2s.04-.07.07-.09l.19-.17s.04-.03.06-.04l.27-.13h0s.04-.02.06-.02l.33-.08s.04,0,.06,0h.36s.03,0,.05,0l.36.05s.04,0,.06.01l.3.11h0s.43-.81.43-.81l-.47-.1-.36-.05-2.69.45s-.01,0-.02,0l-.1.02s-.03,0-.04,0l-.38.1-.38.16-.28.21-.18.22-.08.2v.21l.08.2.19.22.3.22ZM166.86,64.28l.04.06.25.43.22.45.18.49.16.49.11.5.08.55.69-.26.98-.44.9-.49.82-.54.73-.57.65-.6.55-.62.45-.65.34-.65.25-.7.14-.69.04-.51s-.01-.05-.01-.08v-.38l-.08-.75-.18-.73-.26-.71-.33-.69-.42-.67-.5-.66-.69-.73-.25-.15-.3-.09h-.14s.12.11.12.11l.45.61s.01.02.02.03l.33.62.25.65s0,.03.01.04l.13.64s0,.03,0,.04l.03.65s0,.03,0,.05l-.08.64-.18.68s0,.03-.01.04l-.27.62-.39.64-.49.61-.59.58-.66.54-.75.5-.82.46-.88.41-.62.24ZM1.04,66.87l.04.03.1-.18s.01-.02.02-.04v-.02s-.06-.05-.06-.05c-.02-.01-.03-.03-.04-.04l-.24-.27s-.04-.05-.05-.08l-.12-.29s-.01-.04-.02-.06l-.03.11v.17s0,.02,0,.03l.03.19.13.26.24.25ZM4.63,66.27l.22.04h.1s.11-.11.11-.11l.43-.57-.16-.06-.3-.04h-.3s-.1.03-.1.03v.71ZM4.07,65.9v.02s0-.02,0-.02h0ZM6.35,63.81l.11.03.04-.1h-.02s-.13.07-.13.07ZM5.95,63.34v.05s.27-.12.27-.12l.48-.35-.18.1s-.03.01-.04.02l-.48.19s-.03.02-.05.03v.08ZM8.33,60.08l.28.69.38.66.56.74v-17.97l-.52-.56-.51-.7-.43-.75v16.52l.07.69.16.66ZM26.03,59.4v.77l.13-.04.04-.32s0-.03,0-.04l.12-.45s0-.03.01-.04l.2-.45s.01-.02.02-.03l.27-.43.34-.42.48-.43-.02-.02s-.04-.04-.05-.06l-.04-.06s-.02-.04-.03-.06l-.03-.08s-.01-.04-.02-.07v-.09s-.01,0-.01,0h0s0,0,0-.01l-.1.06-.32.26-.29.29-.25.33-.21.35-.14.33-.09.35-.03.34ZM23.89,57.5l1.27,1.25.09-.34s0-.03.01-.04l.18-.43.26-.46s.01-.02.02-.03l.3-.39.38-.38.41-.33.14-.09-1.35-1.33-.23.14-.36.29-.33.33-.28.37-.22.39-.17.4-.09.37-.03.26ZM171.15,55.74s.03.03.04.05l.22.35.34.65s.01.03.02.04l.21.64s0,.03.01.05l.05.32v-.16s-.13-.6-.13-.6l-.23-.6-.3-.57-.42-.57-.37-.4-.03.04.2.22.39.55ZM23.17,56.6v.78l.13-.04.04-.31.13-.49s0-.03.02-.04l.2-.45s.01-.02.02-.03l.27-.43.34-.42.48-.43s-.06-.05-.08-.08l-.04-.07s-.01-.03-.02-.04l-.03-.08s-.01-.04-.02-.06v-.07s-.01-.02-.01-.03l-.1.06-.33.26-.29.29-.25.33-.19.33-.16.38-.08.33-.03.34ZM10.12,43.99l12.18,11.95.09-.33.18-.47s.01-.03.02-.04l.25-.42.32-.42.37-.38s.02-.02.03-.03l.54-.39-12.27-12.03-.22.13-.37.3-.34.34-.27.35-.23.41-.16.38-.1.4-.03.26ZM119.32,4.65l50.87,49.91.02-.02L119.35,4.63l-.03.02ZM120.07,4.56l50.71,49.75.29-.03s.04,0,.06,0h.01s-1.69-1.65-1.69-1.65c-.04-.02-.07-.05-.1-.09l-8.78-8.62s-.06-.05-.08-.08l-8.61-8.45s-.06-.05-.09-.08l-30.98-30.4-.1-.08-.26-.16-.29-.09h-.1ZM8.33,41.3l.28.69.38.66.47.65.17.19.08-.31s0-.03.01-.04l.18-.43.26-.46s.01-.02.02-.03l.3-.39.38-.38.41-.33s.02-.02.03-.02l.12-.07-.29-.32-.45-.63-.35-.64s-.01-.03-.02-.04l-.22-.63-.14-.68s0-.03,0-.04l-.03-.64s0-.03,0-.04l.07-.65s0-.03,0-.05l.18-.63.29-.65.39-.64.49-.61.58-.58.67-.55.26-.17-.64.38-.81.56-.72.61-.65.66-.56.69-.46.72-.37.75-.28.76-.17.76-.09.76v.38s-.01.05-.02.07h0s.07.7.07.7l.16.66ZM152.61,35.34l7.18,7.05-.19-.38-.54-.98-.55-.9-.57-.85-.58-.78-.59-.71-.6-.61-.6-.55-.58-.44-.57-.36-.53-.25-.52-.16-.49-.07h-.27ZM10.55,36.8l-.05.5.08-.47s0-.03.01-.05l.23-.65s.01-.03.02-.04l.34-.62.46-.64.75-.84.66-.56.74-.51.33-.19-.47.26-.71.47-.63.51-.54.54-.45.56-.36.58-.26.59-.16.57ZM54.46,6.13h-1.24s-1.26.12-1.26.12l-1.28.19-1.29.28-1.31.36-1.32.45-1.31.52-1.3.61-1.29.69-1.27.76-1.24.84-1.21.9-1.18.97-1.13,1.02-1.09,1.08-1.03,1.12-.98,1.17-.92,1.21-.85,1.24-.77,1.27-.7,1.29-.63,1.31-.55,1.32-.47,1.32-.12.38,23.42-8.01.12-.06,1.66-.75,1.66-.66,1.57-.57,1.53-.49,1.51-.43,1.61-.35,5.38-1.84-3.9-3.82s0,0,0,0l-.04-.04s-.05-.03-.07-.05l-.17-.17-.28-.25-.84-.66-.9-.56-.97-.5-1.02-.42-1.07-.33-1.12-.24-1.16-.16-1.2-.07ZM117,2.92l.73.43.73.52.45.4s0,0,0,0h.01s-.32-.3-.32-.3l-.67-.49-.74-.45-.2-.1ZM118.41,3.13l.55.41.54.47.24-.02-.04-.03-.79-.54-.49-.29ZM68.93,129.77s-.03,0-.05,0l-.35-.06s-.03,0-.05-.01h-.04s0-.01,0-.01c-.07,0-.13-.02-.18-.07l-.09-.03s-.04-.02-.06-.03l-.23-.15s-.06-.05-.08-.08l-.13-.2s-.04-.08-.04-.12l-.02-.2s0-.1.02-.14l.09-.2s.04-.07.07-.09l.19-.17s.04-.03.06-.04l.27-.13h0s0,0,0,0h0s.04-.02.06-.02c0,0,0,0,0,0l.33-.08s.04,0,.06,0h.37s.03,0,.05,0l.35.05s.04,0,.05.01l.3.11s.05.02.07.04l.22.16s.05.04.07.07l.13.19s.04.07.04.11l.03.2c0,.05,0,.11-.02.15l-.09.2s-.04.06-.06.09l-.19.18s-.05.04-.07.05l-.28.13s-.02,0-.03.01h0s-.03,0-.04.01l-.33.07s-.03,0-.04,0l-.36.02s-.01,0-.02,0ZM68.73,129.17l.22.04.3-.02.28-.06.22-.1.12-.11.04-.08v-.06s-.08-.1-.08-.1l-.15-.11-.24-.09-.29-.04h-.31s-.1.03-.1.03v.71ZM68.18,128.8h0s0,0,0,0h0ZM177.5,92.62s-.03,0-.04,0l-.35-.05s-.04,0-.05-.01l-.08-.03s-.06-.02-.09-.03l-.14-.05s-.05-.02-.07-.04l-.22-.16s-.04-.04-.06-.06l-.14-.19s-.05-.09-.05-.14l-.02-.21s0-.1.02-.14l.09-.2s.04-.07.07-.09l.19-.17s.04-.03.07-.04l.28-.13s.04-.02.06-.02l.32-.08s.04,0,.06,0h.37s.03,0,.05,0l.35.05s.04,0,.06.01l.31.11s.04.02.06.03l.23.16s.05.04.07.07l.13.19s.04.08.05.13l.02.21s0,.1-.03.14l-.09.19s-.03.06-.06.08l-.19.18s-.04.04-.07.05l-.27.13s-.02,0-.03.01c-.01,0-.03,0-.05.01l-.33.07s-.03,0-.04,0l-.37.02s0,0-.02,0ZM177.3,92.04l.2.03.32-.02.28-.06.21-.1.12-.12.04-.08v-.07s-.07-.09-.07-.09l-.16-.11-.25-.09-.29-.04h-.31s-.09.03-.09.03v.72ZM176.75,91.73h0s0-.09,0-.09v.03s0,.06,0,.06ZM20.22,71.95s-.01,0-.02,0h0s-.06,0-.08-.02c-.03-.01-.06-.03-.09-.06,0,0,0,0,0,0,0,0,0,0,0,0,0,0,0,0,0,0,0,0,0,0,0,0,0,0,0,0,0,0h0l-9.51-9.33s-.03-.03-.04-.04c0-.01-.01-.02-.02-.03,0,0,0,0,0,0-.01-.02-.02-.05-.02-.07,0-.02,0-.04,0-.06v-9.39s.01-.09.03-.13c0,0,0,0,0,0,0,0,0,0,0,0,0-.01.01-.02.02-.03h0s0,0,0,0h0s.03-.03.04-.05h0s0,0,0,0c.02-.02.04-.03.06-.04,0,0,0,0,0,0h0s0,0,0,0c.07-.03.15-.03.22,0,.03.01.06.03.09.06l9.51,9.35s.05.06.06.09c.01.03.02.05.02.08h0s0,.01,0,.02v8.82h0v.57s0,.02,0,.03h0s0,.05-.01.07c0,0,0,0,0,0h0s-.03.07-.06.1c-.03.03-.06.05-.1.06,0,0,0,0,0,0-.03.01-.05.02-.08.02h0s0,0-.01,0ZM11.39,62.04l8.56,8.41v-8.05l-8.56-8.42v8.05ZM44.92,66.26l-.64-.02-.62-.07-.6-.14-.55-.19-.5-.25-.43-.28s-.03-.02-.04-.03l-.32-.32s-.03-.03-.04-.04l-.21-.33s-.02-.03-.03-.05l-.13-.35s-.02-.05-.02-.08l-.02-.36s0-.05,0-.08l.08-.36s.01-.04.02-.06l.17-.34s.02-.04.03-.05l.27-.33s.02-.03.04-.04l.36-.28s.02-.02.04-.03l.44-.24.52-.22s.03-.01.05-.02l.54-.15.62-.11.64-.04.64.02.62.07.6.14.56.19.5.24s.03.01.04.02l.4.27s.03.02.04.03l.3.3s.02.03.03.04l.22.34s.02.04.03.06l.12.35s.01.05.02.08l.02.36s0,.05,0,.07l-.07.36s-.02.05-.03.08l-.18.34s-.02.03-.03.05l-.27.32s-.02.02-.03.03l-.36.29s-.03.02-.04.03l-.44.24-.52.22s-.02,0-.03.01c0,0,0,0,0,0l-.54.16-.63.1-.63.05ZM42.63,64.9l.06.05-.05-.09s-.03-.06-.03-.1l-.03-.26s0-.08.01-.12l.09-.26s.03-.06.04-.08l.19-.24s.03-.04.06-.05l.28-.2s.03-.02.05-.03l.04-.02-.17-.32h0s-.16.06-.16.06l-.32.21-.24.23-.15.23-.06.23v.22s.11.24.11.24l.28.32ZM44.64,63.16l.51.02.47.09s.03,0,.04.01l.39.14s.03.01.04.02l.32.18s.04.03.06.05l.23.23s.04.04.05.07l.13.25s.03.07.03.11l.02.26s0,.07-.01.1l-.07.23.04-.03.18-.17.15-.24.07-.23-.02-.22-.09-.24-.19-.23-.28-.23-.36-.19-.45-.16-.49-.1-.52-.05h-.52s-.67.13-.67.13l.18.31.26-.07s.03,0,.04,0l.45-.04ZM41.64,64.59l.21.21-.12-.28s-.02-.06-.02-.09l-.02-.32s0-.06,0-.09l.08-.32s.02-.06.04-.08l.19-.29s.02-.03.04-.05l.28-.27s.03-.02.04-.03l.37-.23s.03-.01.04-.02l.2-.09-.18-.32-.31.13-.39.22-.32.25-.24.28-.14.28-.06.28.02.27.11.28.18.28ZM44.91,62.29l.58.05.55.12.5.17s.03.01.04.02l.41.21s.03.02.05.03l.33.26s.03.02.04.04l.23.28s.03.05.04.08l.12.32s.01.05.02.07l.03.32s0,.07,0,.1l-.09.32s-.02.05-.03.07l-.03.06.06-.05.24-.28.15-.27.06-.28-.02-.28-.1-.28-.19-.28-.27-.27-.36-.25-.45-.21-.5-.17-.54-.12-.57-.07-.59-.02-.58.04-.69.14.09.15s.01.02.02.04l.06.13.26-.07.57-.09h.58ZM44.31,64.7l.43.05.43-.04.35-.12.21-.2-.23-.13c-.05.02-.11.03-.17.02l-.15-.03s0,.02,0,.02v.05s-.02.05-.03.07c0,0,0,0,0,0-.02.03-.04.06-.07.09-.03.03-.08.05-.12.06-.02,0-.04,0-.06,0h-.28c-.15,0-.28-.12-.28-.28v-.04l-.11.02s-.05.01-.08.01c-.05,0-.09,0-.13-.03l-.23.12v.03s.19.16.19.16l.34.14ZM40.44,46.07l-1.12-.04-1.1-.1-1.08-.16-1.05-.22-1.02-.28-.97-.33-.91-.37-.85-.44-.78-.47-.71-.51-.62-.55s0,0-.01-.01c0,0,0,0-.01-.01l-.52-.57-.45-.61-.35-.64-.25-.65s0-.03-.01-.04l-.13-.64-.04-.52s0,0,0-.01c0,0,0,0,0-.01v-.05s0-.03,0-.05v-.08s0-.03,0-.05l.08-.64s0-.03,0-.04l.17-.63s0-.03.01-.04l.27-.62.39-.64.49-.61.58-.57.66-.54.74-.5.81-.45.89-.42.93-.35.99-.3,1.04-.26,1.07-.19,1.1-.14,1.12-.07,1.11-.02,1.13.05,1.1.1,1.08.15,1.06.23,1.02.27.97.33.91.38.85.42.78.47.71.52.62.54s.01,0,.02.01c0,0,.01.01.02.02l.51.57.44.61.35.64s.01.03.02.04l.22.63.14.67s0,.03,0,.04l.02.44s.01.05.01.07v.19l-.08.68s0,.03,0,.04l-.17.63s0,.03-.01.04l-.27.62s-.01.02-.02.03l-.38.6-.49.61-.58.57-.66.54-.74.49-.81.46-.88.41-.94.35-.99.31-1.04.25-1.06.2-1.1.13-1.11.07-1.11.02ZM30.59,42.14l.59.53.67.48.75.46.81.41.88.37.94.32.99.26,1.02.21,1.05.16,1.07.1,1.09.04h1.08s1.08-.09,1.08-.09l1.07-.13,1.03-.18,1.01-.25.96-.29.91-.35.85-.39.77-.43.7-.47.62-.5.54-.54.45-.56.35-.56.26-.58.16-.59.08-.6-.03-.59-.13-.61-.21-.57-.32-.59-.41-.56-.48-.53-.6-.52-.67-.49-.74-.44-.82-.41-.88-.37-.94-.32-.99-.26-1.02-.22-1.05-.15-1.07-.1-1.09-.05-1.08.02-1.08.07-1.07.14-1.04.18-1.01.25-.96.29-.9.34-.85.4-.78.43-.7.47-.62.5-.54.53-.45.56-.36.58-.25.57-.16.59-.08.6.03.59.12.59.23.61.31.58.41.56.49.52ZM40.79,44.52l-1.01-.03-.98-.08-.97-.14-.93-.2-.89-.26-.85-.31-.78-.36-.72-.41-.64-.45-.57-.49s-.01-.01-.02-.02c0,0,0,0-.01-.01l-.44-.49-.39-.56s-.02-.02-.02-.04l-.26-.55s-.01-.03-.02-.04l-.16-.56s0-.03,0-.05l-.06-.56s0-.04,0-.06l.04-.57s0-.04,0-.05l.15-.56s0-.03.01-.04l.24-.55s.01-.02.02-.04l.34-.53s.02-.02.02-.03l.44-.51.55-.51.64-.46.7-.42.78-.38.83-.32.89-.27.92-.21.96-.16.98-.09,1-.04,1,.03.98.08.97.14.93.2.89.26.85.31.78.36.72.41.65.45.56.49s.01.01.02.02c0,0,0,0,0,0l.45.5.39.56s.02.02.02.04l.26.55s.01.03.02.04l.16.56s0,.03,0,.05l.06.57s0,.03,0,.05h0s0,.08,0,.08c0,.03,0,.06-.01.08l-.03.41s0,.03,0,.05l-.14.56s0,.03-.02.05l-.25.55-.35.56s-.02.02-.02.03l-.44.51-.55.5-.63.46-.7.42-.78.38-.83.32-.9.26-.92.22-.97.16-.98.09-.99.04ZM38.08,43.67l.78.12-.71-.12s-.05,0-.07,0ZM42.76,43.75l-.25.03.25-.03ZM43.24,43.66l-.44.09.7-.11.9-.21.31-.09-.08-.02h-.14c-.06.05-.13.07-.2.07l-.13.04-.72.19c-.06.04-.14.06-.21.04ZM32.38,40.64l.39.5.48.47.57.43.65.41.73.36.8.32.85.27,1.2.26s-.06-.02-.08-.03h-.01s-.46-.12-.46-.12l-.65-.2-.59-.23-.52-.25-.44-.25-.37-.27-.28-.25-.21-.22s-.02-.02-.03-.03l-.12-.17s-.02-.03-.03-.04l-.04-.1s-.03-.05-.04-.09l-.07-.25s0-.03,0-.04l-.06-.48s0-.04,0-.06l.04-.49s0-.05.01-.07l.16-.47s.01-.03.02-.04l.25-.47s.02-.03.03-.05l.37-.44s.02-.02.03-.03l.46-.41.58-.39.65-.33.5-.2-.04-.21-.12-.43-.15-.42-.17-.41-.19-.37-.2-.34-.31-.4-.65.25-.74.37-.66.4-.59.44-.5.47-.39.48-.3.51-.21.52-.1.52v.52s.08.53.08.53l.19.51.29.51ZM40.06,43.35l.43.02h.63s.37-.04.37-.04l.52-.1s.06-.02.1-.02l.47-.15.46-.22.36-.23.29-.28.17-.24-.59.23s-.07.02-.12.02c-.04,0-.1-.01-.14-.03-.03-.01-.07-.04-.09-.06-.05-.05-.1-.14-.1-.21,0,0,0,0,0-.01,0,0,0,0,0-.01v-.79l-.09.04-.54.17-.3.07-.65.09v.95s0,0,0,0h0c0,.06-.02.14-.05.18-.02.03-.07.09-.1.11-.03.02-.09.05-.12.06h-.04s-.02.01-.02.01l-1.05.18s-.04,0-.06,0l-1.04-.06s-.05,0-.07-.02l-.07-.02.03.02.63.21s.02,0,.02,0l.4.09.34.05ZM45.27,43.01s.02.01.02.02l.11.09.67-.26.74-.36.67-.4.57-.44.5-.47.39-.48.3-.51.21-.52.1-.52v-.52s-.08-.53-.08-.53l-.19-.51-.29-.51-.39-.5-.48-.47-.57-.43-.65-.41-.73-.36-.79-.32-.85-.27-.9-.21-.93-.15-.97-.1-.97-.04-.97.03-.97.09-.94.14-.9.21-.46.14.2.27.23.38.21.41.18.45.16.45.16.62.45-.14.82-.17.84-.1.85-.04.87.03.83.09.82.14.78.22.71.27.66.33.59.38.49.42s.02.02.03.03l.38.44s.02.02.03.04l.27.46s.02.03.02.05l.17.47s.01.04.01.06l.06.49s0,.04,0,.06l-.04.48s0,.04,0,.05l-.08.29s0,.04-.02.07l-.02.05s-.01.03-.02.04l-.22.33s-.02.02-.03.03l-.22.22-.3.26-.41.27-.7.36ZM34.84,41.47l.18.19.25.22.33.24.4.23.35.17-.09-.37s0-.05,0-.07v-.39s.01-.05.02-.08l.12-.38s.01-.04.02-.05l.2-.36s.02-.03.03-.05l.26-.28.06-.22s.01-.04.02-.05l.14-.28.19-.32.28-.35.14-.14-.12-.22-.15-.37-.23-.77-.38.15-.6.3-.52.35-.41.37-.34.4-.23.42-.14.41-.04.42.05.43.05.19s0,.01,0,.02l.05.11.1.14ZM44.32,40.35s.01.01.02.02l.13.13.31.35s.03.03.04.05l.19.37s.02.04.02.06l.09.38s0,.05,0,.07v.38s-.01.05-.02.07l-.09.29.23-.11.43-.24.36-.23.45-.42.18-.26s0-.01,0-.02l.08-.29.04-.42-.05-.43-.15-.41-.25-.42-.35-.4-.45-.38-.53-.35-.61-.3-.67-.25-.73-.21-.78-.14-.8-.09-.82-.03-.81.04-.8.09-.77.16-.48.15.02.1.2.66.17.39.3-.24s.04-.04.06-.06c.03-.04.06-.07.1-.09l.25-.2s.01-.01.02-.02c.02-.02.05-.03.07-.04l.36-.18s.02-.01.03-.02c0,0,.02,0,.03,0l.36-.1.34-.07s.08-.03.13-.03h0s.07,0,.1.02c0,0,.02,0,.02,0,0,0,0,0,0,0,0,0,0,0,0,0,0,0,0,0,0,0h0s.03.01.05.02l.11.07s.08.04.11.08l.68.49.89.31s.03.01.04.02l.79.42.67.48s.03.02.04.04l.03.03s0,0,0,0l.13.11s.02.02.03.03l.22.25s.02.01.02.02c.02.02.04.05.06.08,0,0,.01.02.01.03l.08.16ZM39.08,42.44h.85l.36-.06-1.68-3.29-.3.25s-.05.06-.08.08h-.01s-.45.58-.45.58l-.28.6-.03.65.22.51.32.3.48.24.63.15ZM43.4,40.76v.84l.13-.04.29-.2.13-.22v-.32s-.22-.39-.22-.39l-.38-.41-.1-.07.14.74s0,.02,0,.03c0,.01,0,.02,0,.04h0ZM39.52,39.56l.78,1.53v-.47l-.78-1.06ZM41.05,40.79l.09.2.38-.04.52-.11.5-.15.24-.1-.04-.22-.16.07-.6.21-.33.07-.59.07ZM40.53,38.9l.3,1.3.41-.02.58-.11.26-.08.31-.12-1.5-1.06-.37.09ZM39.56,38.63l.43.58-.07-.32-.35-.26ZM40.09,38.27l.17.13h.05s-.17-.14-.17-.14h-.05ZM137.94,34.43h-.63s-.63-.09-.63-.09l-.59-.14-.56-.19-.5-.24s-.03-.01-.04-.02l-.4-.27s-.03-.02-.04-.03l-.3-.3s-.02-.03-.03-.04l-.22-.34s-.02-.04-.03-.06l-.12-.35s-.01-.05-.02-.08l-.02-.36s0-.05,0-.07l.07-.35s.01-.05.03-.07l.18-.35s.02-.03.03-.05l.26-.32s.03-.03.04-.04l.37-.28.45-.27s.03-.01.04-.02l.5-.2s.03,0,.04-.01l.54-.15.62-.11.64-.04h.63s.63.09.63.09l.59.13.55.19.5.25s.02.01.03.02l.4.27s.02.02.03.03l.32.3s.03.03.04.05l.21.33s.02.04.03.06l.12.36s.01.04.01.07l.03.35s0,.06,0,.09l-.08.36s-.01.04-.02.06l-.17.35s-.02.04-.04.06l-.27.32s-.02.02-.04.03l-.36.28s-.02.02-.03.02l-.44.25-.53.22s-.03.01-.04.01c0,0,0,0,0,0l-.55.15-.6.11-.64.04ZM137.69,31.33s0,0,.01,0l.46.02.48.09s.03,0,.04.01l.4.14s.03.01.05.02l.32.19s.04.02.05.04l.23.23s.04.04.05.07l.13.25s.03.06.03.1l.03.26s0,.08-.01.12l-.08.22.05-.04s.02-.02.03-.03l.13-.14.16-.25.06-.23v-.22s-.11-.23-.11-.23l-.19-.24-.28-.22-.38-.2-.42-.15-.5-.11-.5-.04h-.53s-.48.08-.48.08l-.18.05.18.31.26-.06.49-.06s.02,0,.03,0ZM135.61,33.04s.02.01.03.02l.05.04-.03-.07s-.03-.07-.03-.11l-.02-.26s0-.07.01-.1l.08-.26s.03-.06.05-.09l.19-.24s.03-.04.05-.05l.29-.21s.03-.02.05-.03l.04-.02-.17-.32-.17.07-.33.21-.24.23-.15.24-.06.23v.22s.11.24.11.24l.24.28ZM137.94,30.47l.56.04.56.12s.03,0,.04.01l.47.17.44.23s.03.02.04.03l.32.25s.03.03.05.05l.23.29s.03.04.04.06l.13.3s.02.06.02.09l.02.32s0,.06,0,.09l-.08.32s-.02.05-.03.08l-.04.07.08-.06.23-.27.14-.28.06-.28-.02-.27-.1-.29-.18-.27-.28-.27-.36-.25-.45-.22-.49-.17-.54-.11-.58-.08h-.58s-.59.03-.59.03l-.69.13.02.03s.02.03.02.04l.11.25.26-.07s.03,0,.04,0l.53-.07h.59ZM134.66,32.77l.19.19-.11-.26s-.02-.06-.02-.09l-.02-.32s0-.06,0-.09l.08-.32s.02-.05.03-.08l.19-.3s.03-.04.04-.05l.28-.27s.03-.03.05-.04l.38-.23s.03-.02.04-.02l.19-.08-.18-.32-.3.12-.41.24-.31.25-.23.27-.15.28-.06.27.02.28.1.28.19.28ZM137.5,32.91l.44.02.41-.09.29-.15.13-.15v-.12s-.08-.14-.08-.14l-.15-.06s-.04.02-.07.03c.01.02.02.05.02.07,0,.04,0,.07,0,.11h0s0,0,0,0c-.01.04-.03.08-.06.11-.02.02-.04.04-.07.06-.01,0-.03.01-.04.02l-.19.07s-.09.04-.14.04c0,0,0,0,0,0-.03,0-.06,0-.09-.02-.04-.01-.07-.03-.1-.06,0,0,0,0,0,0-.02-.02-.03-.04-.04-.06l-.03-.05s-.04-.04-.05-.06l-.19.11s-.04.02-.06.03c-.04.01-.08.02-.12,0,0,0,0,0,0,0,0,0-.02,0-.03,0l-.18.16.04.02.38.1Z" fill="#4b18a1"/>
</svg>