<?xml version="1.0" encoding="UTF-8"?>
<svg id="uuid-48c64724-cab5-44ef-a9ad-aa4beb63ba55" data-name="Layer 1" xmlns="http://www.w3.org/2000/svg" viewBox="0 0 694.74 158.39">
  <g>
    <g>
      <path d="M22.41,44.82C10.05,44.82,0,34.77,0,22.41S10.05,0,22.41,0s22.41,10.05,22.41,22.41-10.05,22.41-22.41,22.41ZM22.41.71C10.44.71.7,10.44.7,22.41s9.74,21.7,21.71,21.7,21.71-9.74,21.71-21.7S34.38.71,22.41.71Z" fill="#4a17a1"/>
      <g>
        <path d="M28.19,18.99c-3.11,0-5.64-2.53-5.64-5.64s2.53-5.64,5.64-5.64,5.64,2.53,5.64,5.64-2.53,5.64-5.64,5.64ZM28.19,9.2c-2.29,0-4.15,1.86-4.15,4.14s1.86,4.15,4.15,4.15,4.15-1.86,4.15-4.15-1.86-4.14-4.15-4.14Z" fill="#4a17a1"/>
        <path d="M28.19,37.12c-3.11,0-5.64-2.53-5.64-5.64s2.53-5.64,5.64-5.64,5.64,2.53,5.64,5.64-2.53,5.64-5.64,5.64ZM28.19,27.33c-2.29,0-4.15,1.86-4.15,4.14s1.86,4.15,4.15,4.15,4.15-1.86,4.15-4.15-1.86-4.14-4.15-4.14Z" fill="#4a17a1"/>
        <path d="M12.63,28.15c-3.11,0-5.64-2.53-5.64-5.64s2.53-5.64,5.64-5.64,5.64,2.53,5.64,5.64-2.53,5.64-5.64,5.64ZM12.63,18.36c-2.29,0-4.15,1.86-4.15,4.14s1.86,4.15,4.15,4.15,4.15-1.86,4.15-4.15-1.86-4.14-4.15-4.14Z" fill="#4a17a1"/>
        <rect x="15.81" y="16.46" width="8.8" height="1.5" transform="translate(-5.01 8.94) rotate(-22.27)" fill="#4a17a1"/>
        <rect x="18.49" y="23.68" width="1.5" height="8.82" transform="translate(-13.82 36.22) rotate(-69.4)" fill="#4a17a1"/>
      </g>
    </g>
    <g>
      <path d="M51,25.86v-9.54h4.38c1.12,0,1.99.22,2.59.66.6.44.91,1.04.91,1.81,0,.52-.12.95-.36,1.31-.24.35-.56.63-.96.82s-.83.29-1.3.29l.25-.41c.56,0,1.05.1,1.48.29.43.19.77.47,1.02.84.25.37.38.82.38,1.37,0,.82-.31,1.45-.94,1.9-.63.45-1.56.67-2.79.67h-4.66ZM52.39,24.75h3.21c.77,0,1.36-.13,1.77-.38.41-.25.61-.66.61-1.2s-.2-.96-.61-1.21c-.41-.25-1-.38-1.77-.38h-3.33v-1.1h2.98c.71,0,1.25-.13,1.64-.38.39-.25.59-.64.59-1.15s-.2-.89-.59-1.15-.94-.38-1.64-.38h-2.86v7.33Z" fill="#4a17a1"/>
      <path d="M65.95,25.97c-.74,0-1.43-.12-2.07-.37s-1.19-.59-1.65-1.03c-.46-.44-.83-.96-1.09-1.55-.26-.59-.39-1.24-.39-1.94s.13-1.35.39-1.94c.26-.59.62-1.11,1.09-1.55s1.01-.78,1.64-1.03c.63-.25,1.32-.37,2.08-.37s1.43.12,2.06.36,1.18.58,1.64,1.02c.46.44.83.96,1.08,1.55.25.6.38,1.24.38,1.94s-.13,1.36-.38,1.95c-.26.59-.62,1.11-1.08,1.55-.46.44-1.01.78-1.64,1.02s-1.32.36-2.06.36ZM65.94,24.75c.55,0,1.05-.09,1.51-.27.46-.18.86-.44,1.2-.77.34-.33.6-.72.79-1.17s.29-.93.29-1.46-.1-1.01-.29-1.45-.46-.83-.79-1.17c-.34-.34-.74-.6-1.2-.78-.46-.18-.96-.27-1.51-.27s-1.04.09-1.5.27c-.46.18-.86.44-1.21.78s-.61.72-.8,1.17-.29.92-.29,1.45.1,1.01.29,1.46.46.83.8,1.17c.34.33.75.59,1.21.77.46.18.96.27,1.5.27Z" fill="#4a17a1"/>
      <path d="M77.62,25.97c-.74,0-1.43-.12-2.06-.36s-1.17-.58-1.63-1.02-.82-.96-1.08-1.55c-.26-.59-.39-1.24-.39-1.95s.13-1.36.39-1.95c.26-.59.62-1.11,1.09-1.55s1.01-.78,1.64-1.02,1.31-.36,2.06-.36,1.45.12,2.08.37,1.18.62,1.62,1.11l-.91.86c-.37-.38-.79-.67-1.25-.85-.46-.19-.96-.28-1.49-.28s-1.06.09-1.53.27c-.47.18-.88.44-1.22.76s-.61.72-.8,1.17c-.19.45-.29.94-.29,1.47s.1,1.02.29,1.47.46.84.8,1.17.75.58,1.22.76c.47.18.98.27,1.53.27s1.03-.09,1.49-.28c.46-.19.88-.47,1.25-.87l.91.86c-.45.49-.99.86-1.62,1.12-.64.25-1.34.38-2.1.38Z" fill="#4a17a1"/>
      <path d="M81.85,25.86l4.42-9.54h1.38l4.43,9.54h-1.46l-3.94-8.78h.56l-3.94,8.78h-1.44ZM83.74,23.47l.38-1.09h5.49l.4,1.09h-6.27Z" fill="#4a17a1"/>
      <path d="M97.28,25.86v-9.54h1.14l4.38,7.21h-.61l4.32-7.21h1.14v9.54s-1.32,0-1.32,0v-7.48s.31,0,.31,0l-3.85,6.33h-.64l-3.87-6.33h.35v7.48h-1.34Z" fill="#4a17a1"/>
      <path d="M114.64,25.97c-1.28,0-2.29-.36-3.02-1.08-.73-.72-1.1-1.77-1.1-3.15v-5.43h1.39v5.37c0,1.06.24,1.84.72,2.33.48.49,1.16.74,2.03.74s1.56-.25,2.04-.74c.48-.49.72-1.27.72-2.33v-5.37h1.35v5.43c0,1.38-.37,2.43-1.09,3.15s-1.74,1.08-3.03,1.08Z" fill="#4a17a1"/>
      <path d="M121.62,25.86v-9.54h1.39v8.36h5.28v1.19h-6.68Z" fill="#4a17a1"/>
      <path d="M131.84,25.86v-8.36h-3.35v-1.19h8.07v1.19h-3.34v8.36h-1.38Z" fill="#4a17a1"/>
      <path d="M138.08,25.86v-9.54h1.39v9.54h-1.39Z" fill="#4a17a1"/>
      <path d="M146.76,25.97c-.74,0-1.43-.12-2.06-.36s-1.17-.58-1.63-1.02-.82-.96-1.08-1.55c-.26-.59-.39-1.24-.39-1.95s.13-1.36.39-1.95c.26-.59.62-1.11,1.09-1.55s1.01-.78,1.64-1.02,1.31-.36,2.06-.36,1.45.12,2.08.37,1.18.62,1.62,1.11l-.91.86c-.37-.38-.79-.67-1.25-.85-.46-.19-.96-.28-1.49-.28s-1.06.09-1.53.27c-.47.18-.88.44-1.22.76s-.61.72-.8,1.17c-.19.45-.29.94-.29,1.47s.1,1.02.29,1.47.46.84.8,1.17.75.58,1.22.76c.47.18.98.27,1.53.27s1.03-.09,1.49-.28c.46-.19.88-.47,1.25-.87l.91.86c-.45.49-.99.86-1.62,1.12-.64.25-1.34.38-2.1.38Z" fill="#4a17a1"/>
      <path d="M156.88,25.97c-.74,0-1.43-.12-2.07-.37s-1.19-.59-1.65-1.03c-.46-.44-.83-.96-1.09-1.55-.26-.59-.39-1.24-.39-1.94s.13-1.35.39-1.94c.26-.59.62-1.11,1.09-1.55s1.01-.78,1.64-1.03c.63-.25,1.32-.37,2.08-.37s1.43.12,2.06.36,1.18.58,1.64,1.02c.46.44.83.96,1.08,1.55.25.6.38,1.24.38,1.94s-.13,1.36-.38,1.95c-.26.59-.62,1.11-1.08,1.55-.46.44-1.01.78-1.64,1.02s-1.32.36-2.06.36ZM156.87,24.75c.55,0,1.05-.09,1.51-.27.46-.18.86-.44,1.2-.77.34-.33.6-.72.79-1.17s.29-.93.29-1.46-.1-1.01-.29-1.45-.46-.83-.79-1.17c-.34-.34-.74-.6-1.2-.78-.46-.18-.96-.27-1.51-.27s-1.04.09-1.5.27c-.46.18-.86.44-1.21.78s-.61.72-.8,1.17-.29.92-.29,1.45.1,1.01.29,1.46.46.83.8,1.17c.34.33.75.59,1.21.77.46.18.96.27,1.5.27Z" fill="#4a17a1"/>
      <path d="M164.19,25.86v-9.54h1.14l6.45,7.84h-.6v-7.84h1.39v9.54h-1.14l-6.45-7.84h.6v7.84h-1.39Z" fill="#4a17a1"/>
      <path d="M176.9,24.67h5.69v1.19h-7.08v-9.54h6.88v1.19h-5.49v7.17ZM176.77,20.43h5.02v1.16h-5.02v-1.16Z" fill="#4a17a1"/>
      <path d="M183.56,25.86l4.06-5.41v1.05l-3.83-5.18h1.59l3.04,4.08h-.63s3.02-4.08,3.02-4.08h1.52l-3.8,5.1v-.98l4.06,5.43h-1.6l-3.23-4.35h.61l-3.19,4.35h-1.6Z" fill="#4a17a1"/>
      <path d="M192.75,25.86l4.42-9.54h1.38l4.43,9.54h-1.46l-3.94-8.78h.56l-3.94,8.78h-1.44ZM194.63,23.47l.38-1.09h5.49l.4,1.09h-6.27ZM198.84,15.5c-.22,0-.42-.05-.59-.14s-.33-.2-.47-.32c-.14-.12-.27-.23-.4-.32-.13-.09-.26-.14-.39-.14-.21,0-.37.08-.5.23s-.2.36-.22.62h-.75c.02-.51.15-.91.39-1.21.24-.3.57-.45.98-.45.22,0,.42.05.6.14.18.1.33.2.47.33.14.12.27.23.4.32.12.09.25.14.38.14.2,0,.37-.07.5-.22s.2-.35.21-.6h.75c0,.48-.14.87-.38,1.17-.25.3-.57.45-.98.45Z" fill="#4a17a1"/>
      <path d="M208.83,25.97c-.74,0-1.43-.12-2.07-.37s-1.19-.59-1.65-1.03c-.46-.44-.83-.96-1.09-1.55-.26-.59-.39-1.24-.39-1.94s.13-1.35.39-1.94c.26-.59.62-1.11,1.09-1.55s1.01-.78,1.64-1.03c.63-.25,1.32-.37,2.08-.37s1.43.12,2.06.36,1.18.58,1.64,1.02c.46.44.83.96,1.08,1.55.25.6.38,1.24.38,1.94s-.13,1.36-.38,1.95c-.26.59-.62,1.11-1.08,1.55-.46.44-1.01.78-1.64,1.02s-1.32.36-2.06.36ZM208.82,24.75c.55,0,1.05-.09,1.51-.27.46-.18.86-.44,1.2-.77.34-.33.6-.72.79-1.17s.29-.93.29-1.46-.1-1.01-.29-1.45-.46-.83-.79-1.17c-.34-.34-.74-.6-1.2-.78-.46-.18-.96-.27-1.51-.27s-1.04.09-1.5.27c-.46.18-.86.44-1.21.78s-.61.72-.8,1.17-.29.92-.29,1.45.1,1.01.29,1.46.46.83.8,1.17c.34.33.75.59,1.21.77.46.18.96.27,1.5.27Z" fill="#4a17a1"/>
    </g>
  </g>
  <g>
    <g>
      <path d="M343.41,44.82c-12.36,0-22.41-10.05-22.41-22.41S331.05,0,343.41,0s22.41,10.05,22.41,22.41-10.05,22.41-22.41,22.41ZM343.41.7c-11.97,0-21.71,9.74-21.71,21.71s9.74,21.71,21.71,21.71,21.71-9.74,21.71-21.71S355.38.7,343.41.7Z" fill="#4a17a1"/>
      <path d="M349.19,18.99c-3.11,0-5.64-2.53-5.64-5.64s2.53-5.64,5.64-5.64,5.64,2.53,5.64,5.64-2.53,5.64-5.64,5.64ZM349.19,9.2c-2.29,0-4.15,1.86-4.15,4.15s1.86,4.15,4.15,4.15,4.15-1.86,4.15-4.15-1.86-4.15-4.15-4.15Z" fill="#4a17a1"/>
      <path d="M349.33,37.12c-3.11.08-5.7-2.39-5.78-5.5-.08-3.11,2.39-5.7,5.5-5.78,3.11-.08,5.7,2.39,5.78,5.5.08,3.11-2.39,5.7-5.5,5.78ZM349.09,27.33c-2.29.06-4.1,1.96-4.04,4.25s1.96,4.1,4.25,4.04,4.1-1.96,4.04-4.25-1.96-4.1-4.25-4.04Z" fill="#4a17a1"/>
      <path d="M333.63,28.15c-3.11,0-5.64-2.53-5.64-5.65s2.53-5.64,5.64-5.64,5.64,2.53,5.64,5.64-2.53,5.65-5.64,5.65ZM333.63,18.36c-2.29,0-4.15,1.86-4.15,4.14s1.86,4.15,4.15,4.15,4.15-1.86,4.15-4.15-1.86-4.14-4.15-4.14Z" fill="#4a17a1"/>
      <rect x="336.81" y="16.46" width="8.8" height="1.5" transform="translate(18.92 130.57) rotate(-22.27)" fill="#4a17a1"/>
      <rect x="339.5" y="23.68" width="1.5" height="8.81" transform="translate(194.13 336.65) rotate(-69.38)" fill="#4a17a1"/>
    </g>
    <g>
      <path d="M373.99,25.86v-9.54h4.38c1.12,0,1.99.22,2.59.66.6.44.91,1.04.91,1.81,0,.52-.12.95-.36,1.31-.24.35-.56.63-.96.82s-.83.29-1.3.29l.25-.41c.56,0,1.05.1,1.48.29.43.19.77.47,1.02.84.25.37.38.82.38,1.37,0,.82-.31,1.45-.94,1.9-.63.45-1.56.67-2.79.67h-4.66ZM375.39,24.76h3.21c.77,0,1.36-.13,1.77-.38.41-.25.61-.66.61-1.2s-.2-.96-.61-1.21c-.41-.25-1-.38-1.77-.38h-3.33v-1.1h2.98c.71,0,1.25-.13,1.64-.38.39-.25.59-.64.59-1.15s-.2-.89-.59-1.15-.94-.38-1.64-.38h-2.86v7.33Z" fill="#4a17a1"/>
      <path d="M388.95,25.97c-.74,0-1.43-.12-2.07-.37s-1.19-.59-1.65-1.03c-.46-.44-.83-.96-1.09-1.55-.26-.59-.39-1.24-.39-1.94s.13-1.35.39-1.94c.26-.59.62-1.11,1.09-1.55s1.01-.78,1.64-1.03c.63-.25,1.32-.37,2.08-.37s1.43.12,2.06.36,1.18.58,1.64,1.02c.46.44.83.96,1.08,1.55.25.6.38,1.24.38,1.94s-.13,1.36-.38,1.95c-.26.59-.62,1.11-1.08,1.55-.46.44-1.01.78-1.64,1.02s-1.32.36-2.06.36ZM388.94,24.76c.55,0,1.05-.09,1.51-.27.46-.18.86-.44,1.2-.77.34-.33.6-.72.79-1.17s.29-.93.29-1.46-.1-1.01-.29-1.45-.46-.83-.79-1.17c-.34-.34-.74-.6-1.2-.78-.46-.18-.96-.27-1.51-.27s-1.04.09-1.5.27c-.46.18-.86.44-1.21.78s-.61.72-.8,1.17-.29.92-.29,1.45.1,1.01.29,1.46.46.83.8,1.17c.34.33.75.59,1.21.77.46.18.96.27,1.5.27Z" fill="#4a17a1"/>
      <path d="M400.62,25.97c-.74,0-1.43-.12-2.06-.36s-1.17-.58-1.63-1.02-.82-.96-1.08-1.55c-.26-.59-.39-1.24-.39-1.95s.13-1.36.39-1.95c.26-.59.62-1.11,1.09-1.55s1.01-.78,1.64-1.02,1.31-.36,2.06-.36,1.45.12,2.08.37,1.18.62,1.62,1.11l-.91.86c-.37-.38-.79-.67-1.25-.85-.46-.19-.96-.28-1.49-.28s-1.06.09-1.53.27c-.47.18-.88.44-1.22.76s-.61.72-.8,1.17c-.19.45-.29.94-.29,1.47s.1,1.02.29,1.47.46.84.8,1.17.75.58,1.22.76c.47.18.98.27,1.53.27s1.03-.09,1.49-.28c.46-.19.88-.47,1.25-.87l.91.86c-.45.49-.99.86-1.62,1.12-.64.25-1.34.38-2.1.38Z" fill="#4a17a1"/>
      <path d="M404.85,25.86l4.42-9.54h1.38l4.43,9.54h-1.46l-3.94-8.78h.56l-3.94,8.78h-1.44ZM406.74,23.47l.38-1.09h5.49l.4,1.09h-6.27Z" fill="#4a17a1"/>
      <path d="M420.28,25.86v-9.54h1.14l4.38,7.21h-.61l4.32-7.21h1.14v9.54s-1.32,0-1.32,0v-7.48s.31,0,.31,0l-3.85,6.33h-.64l-3.87-6.33h.35v7.48h-1.34Z" fill="#4a17a1"/>
      <path d="M437.64,25.97c-1.28,0-2.29-.36-3.02-1.08-.73-.72-1.1-1.77-1.1-3.15v-5.43h1.39v5.37c0,1.06.24,1.84.72,2.33.48.49,1.16.74,2.03.74s1.56-.25,2.04-.74c.48-.49.72-1.27.72-2.33v-5.37h1.35v5.43c0,1.38-.37,2.43-1.09,3.15s-1.74,1.08-3.03,1.08Z" fill="#4a17a1"/>
      <path d="M444.62,25.86v-9.54h1.39v8.36h5.28v1.19h-6.68Z" fill="#4a17a1"/>
      <path d="M454.84,25.86v-8.36h-3.35v-1.19h8.07v1.19h-3.34v8.36h-1.38Z" fill="#4a17a1"/>
      <path d="M461.08,25.86v-9.54h1.39v9.54h-1.39Z" fill="#4a17a1"/>
      <path d="M466.79,24.67h5.69v1.19h-7.08v-9.54h6.88v1.19h-5.49v7.17ZM466.67,20.43h5.02v1.16h-5.02v-1.16Z" fill="#4a17a1"/>
      <path d="M474.74,25.86v-9.54h1.14l6.45,7.84h-.6v-7.84h1.39v9.54h-1.14l-6.45-7.84h.6v7.84h-1.39Z" fill="#4a17a1"/>
      <path d="M487.99,25.86v-8.36h-3.35v-1.19h8.07v1.19h-3.34v8.36h-1.38Z" fill="#4a17a1"/>
      <path d="M494.24,25.86v-9.54h3.8c.85,0,1.58.13,2.19.4.6.26,1.07.65,1.39,1.15.33.5.49,1.1.49,1.79s-.16,1.28-.49,1.78-.79.87-1.39,1.14c-.6.26-1.33.4-2.19.4h-3.04l.63-.63v3.53h-1.39ZM495.63,22.47l-.63-.67h3c.89,0,1.57-.19,2.03-.57s.69-.91.69-1.59-.23-1.21-.69-1.58c-.46-.37-1.14-.56-2.03-.56h-3l.63-.68v5.64ZM500.76,25.86l-2.48-3.46h1.49l2.51,3.46h-1.52Z" fill="#4a17a1"/>
      <path d="M502.89,25.86l4.42-9.54h1.38l4.43,9.54h-1.46l-3.94-8.78h.56l-3.94,8.78h-1.44ZM504.78,23.47l.38-1.09h5.49l.4,1.09h-6.27Z" fill="#4a17a1"/>
      <path d="M514.57,25.86v-9.54h4.11c1.04,0,1.96.2,2.75.6s1.41.96,1.85,1.68c.44.72.66,1.55.66,2.5s-.22,1.78-.66,2.49-1.06,1.28-1.85,1.68c-.79.4-1.71.6-2.75.6h-4.11ZM515.97,24.67h2.63c.81,0,1.51-.15,2.1-.45.59-.3,1.05-.72,1.37-1.26.33-.54.49-1.17.49-1.87s-.16-1.35-.49-1.88c-.33-.54-.78-.95-1.37-1.25-.59-.3-1.29-.45-2.1-.45h-2.63v7.17Z" fill="#4a17a1"/>
      <path d="M524.61,25.86l4.42-9.54h1.38l4.43,9.54h-1.46l-3.94-8.78h.56l-3.94,8.78h-1.44ZM526.49,23.47l.38-1.09h5.49l.4,1.09h-6.27Z" fill="#4a17a1"/>
    </g>
  </g>
  <g>
    <g>
      <path d="M343.41,113.63c-12.36,0-22.41-10.05-22.41-22.41s10.05-22.41,22.41-22.41,22.41,10.05,22.41,22.41-10.05,22.41-22.41,22.41ZM343.41,69.52c-11.97,0-21.71,9.74-21.71,21.71s9.74,21.71,21.71,21.71,21.71-9.74,21.71-21.71-9.74-21.71-21.71-21.71Z" fill="#4a17a1"/>
      <path d="M343.46,109.24h.1s.02-.03.03-.05c.07-.1.15-.2.19-.29,1.34-2.82,2.7-5.69,4.01-8.46l.06-.12c.04-.1.07-.18.1-.25.02-.08.02-.15,0-.19-.03-.05-.09-.07-.14-.08-.09-.02-.19-.02-.3-.02h-.05c-.43,0-.86,0-1.29,0h-.74s0-16.55,0-16.55h2.1c.27,0,.4-.06.43-.11.02-.03.06-.13-.08-.41-.63-1.34-1.27-2.67-1.9-4.01-.73-1.55-1.47-3.09-2.2-4.64-.12-.25-.19-.29-.3-.3h0c-.11,0-.15.05-.26.29l-1.31,2.75c-.93,1.96-1.86,3.92-2.79,5.88-.11.24-.12.38-.09.43.03.05.17.11.44.11h2.15v16.55h-2.17c-.26,0-.39.06-.42.11-.03.05-.03.19.08.42,1.31,2.77,2.71,5.71,4.11,8.64.04.08.11.16.2.24.02.02.04.04.06.06M343.83,109.75h-.61l-.08-.09s-.07-.08-.11-.12c-.1-.1-.22-.22-.29-.38-1.4-2.92-2.8-5.87-4.11-8.64-.18-.38-.2-.68-.05-.91.15-.23.43-.35.86-.35.44,0,.87,0,1.31,0h.34s0-15.52,0-15.52h-1.64c-.44,0-.73-.11-.88-.35-.15-.23-.13-.53.06-.93.93-1.96,1.86-3.92,2.79-5.88l1.31-2.75c.11-.24.28-.59.74-.58.48,0,.67.4.76.59.73,1.55,1.47,3.09,2.2,4.64.63,1.33,1.27,2.67,1.9,4,.18.37.19.67.05.9-.15.23-.44.35-.86.35-.42,0-.84,0-1.27,0h-.32v15.52h.22c.43,0,.86,0,1.3,0h.05c.13,0,.28,0,.43.03.2.05.36.16.46.32.1.16.12.37.06.58-.03.11-.07.21-.13.34l-.06.12c-1.32,2.78-2.67,5.64-4.01,8.46-.07.14-.16.26-.24.38-.03.05-.07.1-.1.14l-.08.11Z" fill="#4a17a1"/>
      <path d="M347.78,93.41h3.98v2.13c0,.26.06.39.11.43.05.03.19.03.41-.08,2.75-1.31,5.69-2.7,8.64-4.11.08-.04.16-.11.24-.19.02-.02.04-.04.06-.06v-.05s-.04-.04-.07-.06c-.09-.09-.18-.17-.26-.21-2.61-1.25-5.27-2.51-7.84-3.73l-.73-.35c-.11-.06-.2-.09-.28-.11-.14-.03-.2,0-.24.13-.03.09-.03.21-.04.33,0,.46,0,.91,0,1.38v.79h-3.98v3.77ZM351.95,96.5c-.13,0-.25-.03-.35-.1-.23-.15-.35-.44-.35-.86v-1.62h-3.98v-4.79h3.98v-.27c0-.48,0-.93,0-1.39,0-.16,0-.33.06-.49.14-.39.46-.56.86-.46.11.03.23.07.37.14l.73.35c2.57,1.22,5.23,2.48,7.84,3.73.16.08.29.2.4.3.04.04.09.09.13.12l.09.08v.52l-.09.08s-.08.07-.13.12c-.1.1-.22.21-.38.29-2.94,1.41-5.88,2.8-8.64,4.11-.2.1-.39.15-.55.15" fill="#4a17a1"/>
      <path d="M335.03,87.01c-.07,0-.19.03-.35.1-1.22.58-2.44,1.16-3.66,1.74-1.66.79-3.32,1.57-4.98,2.36-.25.12-.29.19-.29.3,0,.11.04.15.29.26,1.43.68,2.87,1.37,4.3,2.05,1.44.69,2.89,1.37,4.33,2.06.24.11.38.12.43.09.05-.03.1-.16.1-.41,0-.43,0-.85,0-1.29v-.85h4v-3.77h-4v-.87c0-.45,0-.89,0-1.33,0-.26-.06-.38-.1-.42-.02-.01-.04-.02-.08-.02M335.03,96.5c-.16,0-.35-.05-.57-.15-1.44-.69-2.89-1.37-4.33-2.06-1.43-.68-2.87-1.37-4.3-2.05-.23-.11-.58-.28-.58-.72,0-.49.39-.68.58-.77,1.66-.79,3.32-1.57,4.98-2.36,1.22-.58,2.44-1.16,3.66-1.74.39-.18.69-.2.92-.06.23.15.34.42.34.85,0,.44,0,.88,0,1.33v.36h4v4.79h-4v.34c0,.44,0,.87,0,1.3,0,.42-.12.7-.34.84-.1.07-.22.1-.35.1" fill="#4a17a1"/>
    </g>
    <g>
      <path d="M373.99,87.92v-9.54h1.39v9.54h-1.39Z" fill="#4a17a1"/>
      <path d="M378.32,87.92v-9.54h1.14l6.45,7.84h-.6v-7.84h1.39v9.54h-1.14l-6.45-7.84h.6v7.84h-1.39Z" fill="#4a17a1"/>
      <path d="M392.48,88.03c-.74,0-1.45-.11-2.13-.33-.68-.22-1.21-.51-1.6-.87l.52-1.06c.37.32.85.58,1.42.79s1.18.31,1.8.31c.57,0,1.03-.06,1.38-.19.35-.13.61-.3.78-.53.17-.22.25-.47.25-.76,0-.33-.11-.59-.33-.79-.22-.2-.5-.36-.85-.48-.35-.12-.73-.23-1.15-.32-.42-.09-.84-.2-1.26-.32s-.81-.28-1.16-.47c-.35-.19-.63-.45-.84-.77s-.32-.74-.32-1.25.13-.94.4-1.36c.26-.41.67-.75,1.23-1,.55-.25,1.26-.37,2.11-.37.57,0,1.13.07,1.69.22s1.04.35,1.45.63l-.46,1.09c-.42-.27-.86-.47-1.32-.59-.46-.12-.92-.18-1.35-.18-.55,0-1,.07-1.35.2-.35.14-.61.32-.77.55-.16.23-.24.48-.24.76,0,.34.11.61.33.8.22.2.5.36.85.48.35.12.73.23,1.15.32.42.1.84.2,1.26.32s.81.27,1.16.46c.35.19.63.45.84.76s.32.73.32,1.23-.13.93-.4,1.34c-.27.41-.68.75-1.25,1s-1.27.37-2.13.37Z" fill="#4a17a1"/>
      <path d="M400.23,87.92v-8.36h-3.35v-1.19h8.07v1.19h-3.34v8.36h-1.38Z" fill="#4a17a1"/>
      <path d="M404.99,87.92l4.42-9.54h1.38l4.43,9.54h-1.46l-3.94-8.78h.56l-3.94,8.78h-1.44ZM406.87,85.54l.38-1.09h5.49l.4,1.09h-6.27Z" fill="#4a17a1"/>
      <path d="M416.67,87.92v-9.54h1.39v8.36h5.28v1.19h-6.68Z" fill="#4a17a1"/>
      <path d="M423.48,87.92l4.42-9.54h1.38l4.43,9.54h-1.46l-3.94-8.78h.56l-3.94,8.78h-1.44ZM425.36,85.54l.38-1.09h5.49l.4,1.09h-6.27Z" fill="#4a17a1"/>
      <path d="M439.52,88.03c-.74,0-1.43-.12-2.06-.36-.63-.24-1.17-.58-1.63-1.02s-.82-.96-1.08-1.55c-.26-.59-.39-1.24-.39-1.95s.13-1.36.39-1.95c.26-.59.62-1.11,1.09-1.55.46-.44,1.01-.78,1.64-1.02.63-.24,1.31-.36,2.06-.36s1.45.12,2.08.37,1.18.62,1.62,1.11l-.91.86c-.37-.38-.79-.67-1.25-.85-.46-.19-.96-.28-1.49-.28s-1.06.09-1.53.27c-.47.18-.88.44-1.22.76s-.61.72-.8,1.17c-.19.45-.29.94-.29,1.46s.1,1.02.29,1.47.46.84.8,1.17c.34.33.75.58,1.22.76.47.18.98.27,1.53.27s1.03-.09,1.49-.28c.46-.19.88-.47,1.25-.87l.91.86c-.45.49-.99.86-1.62,1.12-.64.25-1.34.38-2.1.38ZM438.95,90.98c-.24,0-.46-.03-.67-.08-.21-.05-.4-.12-.57-.23l.29-.67c.15.08.3.14.45.18.15.04.32.05.5.05.27,0,.47-.05.59-.14.13-.09.19-.23.19-.4s-.06-.29-.19-.39c-.12-.1-.33-.14-.61-.14h-.38l.35-1.34h.77l-.21.78c.4.04.7.16.91.37.2.21.31.46.31.76,0,.38-.16.68-.47.91-.32.22-.73.33-1.25.33Z" fill="#4a17a1"/>
      <path d="M443.76,87.92l4.42-9.54h1.38l4.43,9.54h-1.46l-3.94-8.78h.56l-3.94,8.78h-1.44ZM445.64,85.54l.38-1.09h5.49l.4,1.09h-6.27ZM449.85,77.56c-.22,0-.42-.04-.59-.14s-.33-.2-.47-.32c-.14-.12-.27-.23-.4-.32-.13-.09-.26-.14-.39-.14-.21,0-.37.08-.5.23-.12.15-.2.36-.22.62h-.75c.02-.51.15-.91.39-1.21.24-.3.57-.45.98-.45.22,0,.42.05.6.14.18.1.33.21.47.33.14.12.27.23.4.32.12.09.25.14.38.14.2,0,.37-.07.5-.22.13-.15.2-.35.21-.6h.75c0,.48-.14.87-.38,1.17-.25.3-.57.45-.98.45Z" fill="#4a17a1"/>
      <path d="M459.84,88.03c-.74,0-1.43-.12-2.07-.37s-1.19-.59-1.65-1.03c-.46-.44-.83-.96-1.09-1.55-.26-.59-.39-1.24-.39-1.94s.13-1.34.39-1.94c.26-.59.62-1.11,1.09-1.55.46-.44,1.01-.79,1.64-1.03.63-.25,1.32-.37,2.08-.37s1.43.12,2.06.36c.63.24,1.18.58,1.64,1.02.46.44.83.96,1.08,1.55.25.59.38,1.24.38,1.94s-.13,1.36-.38,1.95c-.26.59-.62,1.11-1.08,1.55-.46.44-1.01.78-1.64,1.02-.63.24-1.32.36-2.06.36ZM459.83,86.82c.55,0,1.05-.09,1.51-.27.46-.18.86-.44,1.2-.77.34-.33.6-.72.79-1.17s.29-.93.29-1.46-.1-1.01-.29-1.45c-.19-.44-.46-.83-.79-1.17-.34-.34-.74-.6-1.2-.78s-.96-.27-1.51-.27-1.04.09-1.5.27-.86.44-1.21.78-.61.72-.8,1.17c-.19.44-.29.92-.29,1.45s.1,1.01.29,1.46.46.83.8,1.17.75.59,1.21.77c.46.18.96.27,1.5.27Z" fill="#4a17a1"/>
      <path d="M473.71,87.92l-4.29-9.54h1.5l3.94,8.81h-.86l3.97-8.81h1.39l-4.28,9.54h-1.38Z" fill="#4a17a1"/>
      <path d="M482.21,86.73h5.69v1.19h-7.08v-9.54h6.88v1.19h-5.49v7.17ZM482.08,82.49h5.02v1.16h-5.02v-1.16Z" fill="#4a17a1"/>
      <path d="M490.16,87.92v-9.54h3.8c.85,0,1.58.13,2.19.4.6.26,1.07.65,1.39,1.15s.49,1.1.49,1.79-.16,1.28-.49,1.78c-.33.5-.79.87-1.39,1.14-.6.26-1.33.4-2.19.4h-3.04l.63-.63v3.53h-1.39ZM491.55,84.53l-.63-.67h3c.89,0,1.57-.19,2.03-.57s.69-.91.69-1.59-.23-1.21-.69-1.58c-.46-.37-1.14-.56-2.03-.56h-3l.63-.68v5.64ZM496.68,87.92l-2.48-3.46h1.49l2.51,3.46h-1.52Z" fill="#4a17a1"/>
      <path d="M502.23,87.92v-8.36h-3.35v-1.19h8.07v1.19h-3.34v8.36h-1.38Z" fill="#4a17a1"/>
      <path d="M508.47,87.92v-9.54h1.39v9.54h-1.39Z" fill="#4a17a1"/>
      <path d="M517.15,88.03c-.74,0-1.43-.12-2.06-.36-.63-.24-1.17-.58-1.63-1.02s-.82-.96-1.08-1.55c-.26-.59-.39-1.24-.39-1.95s.13-1.36.39-1.95c.26-.59.62-1.11,1.09-1.55.46-.44,1.01-.78,1.64-1.02.63-.24,1.31-.36,2.06-.36s1.45.12,2.08.37,1.18.62,1.62,1.11l-.91.86c-.37-.38-.79-.67-1.25-.85-.46-.19-.96-.28-1.49-.28s-1.06.09-1.53.27c-.47.18-.88.44-1.22.76s-.61.72-.8,1.17c-.19.45-.29.94-.29,1.46s.1,1.02.29,1.47.46.84.8,1.17c.34.33.75.58,1.22.76.47.18.98.27,1.53.27s1.03-.09,1.49-.28c.46-.19.88-.47,1.25-.87l.91.86c-.45.49-.99.86-1.62,1.12-.64.25-1.34.38-2.1.38Z" fill="#4a17a1"/>
      <path d="M521.39,87.92l4.42-9.54h1.38l4.43,9.54h-1.46l-3.94-8.78h.56l-3.94,8.78h-1.44ZM523.27,85.54l.38-1.09h5.49l.4,1.09h-6.27Z" fill="#4a17a1"/>
      <path d="M533.07,87.92v-9.54h1.39v8.36h5.28v1.19h-6.68Z" fill="#4a17a1"/>
      <path d="M378.4,104.39c-.74,0-1.43-.12-2.07-.37-.64-.25-1.19-.59-1.65-1.03s-.83-.96-1.09-1.55c-.26-.59-.39-1.24-.39-1.94s.13-1.34.39-1.94c.26-.59.62-1.11,1.09-1.55s1.01-.78,1.64-1.03c.63-.25,1.32-.37,2.08-.37s1.43.12,2.06.36,1.18.58,1.64,1.02c.46.44.83.96,1.08,1.55.25.59.38,1.24.38,1.94s-.13,1.36-.38,1.95c-.26.59-.62,1.11-1.08,1.55-.46.44-1.01.78-1.64,1.02-.63.24-1.32.36-2.06.36ZM378.39,103.18c.55,0,1.05-.09,1.51-.27.46-.18.86-.44,1.2-.77.34-.33.6-.72.79-1.17s.29-.93.29-1.46-.1-1.01-.29-1.45-.46-.83-.79-1.17c-.34-.34-.74-.59-1.2-.78-.46-.18-.96-.27-1.51-.27s-1.04.09-1.5.27c-.46.18-.86.44-1.21.78-.34.34-.61.72-.8,1.17s-.29.92-.29,1.45.1,1.01.29,1.46.46.83.8,1.17.75.59,1.21.77c.46.18.96.27,1.5.27Z" fill="#4a17a1"/>
      <path d="M389.74,104.39c-1.28,0-2.29-.36-3.02-1.08-.73-.72-1.1-1.77-1.1-3.15v-5.43h1.39v5.37c0,1.06.24,1.84.72,2.33.48.49,1.16.74,2.03.74s1.56-.25,2.04-.74c.48-.49.72-1.27.72-2.33v-5.37h1.35v5.43c0,1.38-.37,2.43-1.09,3.15-.73.72-1.74,1.08-3.03,1.08Z" fill="#4a17a1"/>
      <path d="M401.87,104.28h-1.39v-9.54h1.39v9.54ZM407.6,100.03h-5.87v-1.19h5.87v1.19ZM407.47,94.74h1.39v9.54h-1.39v-9.54Z" fill="#4a17a1"/>
      <path d="M416.2,104.39c-.74,0-1.43-.12-2.07-.37-.64-.25-1.19-.59-1.65-1.03s-.83-.96-1.09-1.55c-.26-.59-.39-1.24-.39-1.94s.13-1.34.39-1.94c.26-.59.62-1.11,1.09-1.55s1.01-.78,1.64-1.03c.63-.25,1.32-.37,2.08-.37s1.43.12,2.06.36,1.18.58,1.64,1.02c.46.44.83.96,1.08,1.55.25.59.38,1.24.38,1.94s-.13,1.36-.38,1.95c-.26.59-.62,1.11-1.08,1.55-.46.44-1.01.78-1.64,1.02-.63.24-1.32.36-2.06.36ZM416.19,103.18c.55,0,1.05-.09,1.51-.27.46-.18.86-.44,1.2-.77.34-.33.6-.72.79-1.17s.29-.93.29-1.46-.1-1.01-.29-1.45-.46-.83-.79-1.17c-.34-.34-.74-.59-1.2-.78-.46-.18-.96-.27-1.51-.27s-1.04.09-1.5.27c-.46.18-.86.44-1.21.78-.34.34-.61.72-.8,1.17s-.29.92-.29,1.45.1,1.01.29,1.46.46.83.8,1.17.75.59,1.21.77c.46.18.96.27,1.5.27Z" fill="#4a17a1"/>
      <path d="M423.5,104.28v-9.54h3.8c.85,0,1.58.13,2.19.4.6.26,1.07.64,1.39,1.14s.49,1.1.49,1.79-.16,1.28-.49,1.78-.79.87-1.39,1.14c-.6.26-1.33.4-2.19.4h-3.04l.63-.63v3.53h-1.39ZM424.9,100.89l-.63-.67h3c.89,0,1.57-.19,2.03-.57s.69-.91.69-1.59-.23-1.21-.69-1.58-1.14-.56-2.03-.56h-3l.63-.68v5.64ZM430.03,104.28l-2.48-3.46h1.49l2.51,3.46h-1.52Z" fill="#4a17a1"/>
      <path d="M433.64,104.28v-9.54h1.39v9.54h-1.39Z" fill="#4a17a1"/>
      <path d="M437.09,104.28v-.93l6.56-7.96.15.53h-6.62v-1.19h7.87v.93l-6.54,7.96-.17-.53h6.88v1.19h-8.15Z" fill="#4a17a1"/>
      <path d="M451.52,104.39c-.74,0-1.43-.12-2.07-.37-.64-.25-1.19-.59-1.65-1.03s-.83-.96-1.09-1.55c-.26-.59-.39-1.24-.39-1.94s.13-1.34.39-1.94c.26-.59.62-1.11,1.09-1.55s1.01-.78,1.64-1.03c.63-.25,1.32-.37,2.08-.37s1.43.12,2.06.36,1.18.58,1.64,1.02c.46.44.83.96,1.08,1.55.25.59.38,1.24.38,1.94s-.13,1.36-.38,1.95c-.26.59-.62,1.11-1.08,1.55-.46.44-1.01.78-1.64,1.02-.63.24-1.32.36-2.06.36ZM451.51,103.18c.55,0,1.05-.09,1.51-.27.46-.18.86-.44,1.2-.77.34-.33.6-.72.79-1.17s.29-.93.29-1.46-.1-1.01-.29-1.45-.46-.83-.79-1.17c-.34-.34-.74-.59-1.2-.78-.46-.18-.96-.27-1.51-.27s-1.04.09-1.5.27c-.46.18-.86.44-1.21.78-.34.34-.61.72-.8,1.17s-.29.92-.29,1.45.1,1.01.29,1.46.46.83.8,1.17.75.59,1.21.77c.46.18.96.27,1.5.27Z" fill="#4a17a1"/>
      <path d="M458.82,104.28v-9.54h1.14l6.45,7.84h-.6v-7.84h1.39v9.54h-1.14l-6.45-7.84h.6v7.84h-1.39Z" fill="#4a17a1"/>
      <path d="M472.08,104.28v-8.36h-3.35v-1.19h8.07v1.19h-3.34v8.36h-1.38Z" fill="#4a17a1"/>
      <path d="M476.84,104.28l4.42-9.54h1.38l4.43,9.54h-1.46l-3.94-8.78h.56l-3.94,8.78h-1.44ZM478.73,101.9l.38-1.09h5.49l.4,1.09h-6.27Z" fill="#4a17a1"/>
      <path d="M488.53,104.28v-9.54h1.39v8.36h5.28v1.19h-6.68Z" fill="#4a17a1"/>
    </g>
  </g>
  <g>
    <g>
      <path d="M22.41,113.63c-12.36,0-22.41-10.05-22.41-22.41s10.05-22.41,22.41-22.41,22.41,10.05,22.41,22.41-10.05,22.41-22.41,22.41ZM22.41,69.42c-12.02,0-21.8,9.78-21.8,21.8s9.78,21.8,21.8,21.8,21.8-9.78,21.8-21.8-9.78-21.8-21.8-21.8Z" fill="#4a17a1"/>
      <path d="M17.22,103.37c.15.07.3.16.46.22,1.2.47,2.46.77,3.74.92,2.32.27,4.62.26,6.92-.22.72-.15,1.43-.33,2.07-.73.24-.15.25-.21.01-.37-.18-.12-.38-.22-.57-.3-1.1-.46-2.27-.67-3.44-.74-1.84-.12-3.69-.16-5.53.14-1.25.21-2.46.55-3.65,1.08M17.19,97.29c.06.05.09.08.12.09.1.04.2.09.3.13,1.53.6,3.13.91,4.76,1.05,1.88.16,3.75.09,5.6-.25.83-.15,1.66-.33,2.39-.78.09-.05.17-.12.27-.2-.26-.31-.59-.44-.92-.55-1.26-.45-2.57-.65-3.91-.72-2.04-.11-4.07-.06-6.07.41-.86.2-1.71.44-2.55.84M17.18,91.16v.1c.1.04.2.09.3.12,1.48.57,3,.92,4.57,1.06,1.91.18,3.81.13,5.71-.18.83-.14,1.64-.32,2.4-.7.17-.08.31-.2.49-.32-.3-.32-.65-.46-1.01-.58-1.47-.52-3-.68-4.54-.75-1.95-.09-3.88.07-5.78.56-.72.19-1.43.45-2.14.68M30.68,79.14c-.15-.12-.22-.2-.3-.24-.38-.17-.75-.37-1.15-.49-.93-.29-1.89-.43-2.85-.53-1.85-.2-3.7-.13-5.53.15-1.17.18-2.3.51-3.4.93-.07.03-.14.09-.24.15.13.07.21.11.29.15,1.62.65,3.31,1.01,5.05,1.09,1.1.05,2.21.04,3.31,0,1.39-.05,2.75-.27,4.04-.8.25-.1.48-.25.78-.42M17.13,85.16c.18.08.3.15.42.19,1.19.48,2.42.78,3.68.95,2.11.29,4.22.29,6.33-.06.88-.14,1.74-.32,2.55-.71.18-.08.34-.22.54-.35-.33-.32-.69-.46-1.05-.58-1.26-.46-2.58-.62-3.91-.71-1.78-.12-3.56-.03-5.32.3-1.09.2-2.14.52-3.23.97M14.22,106.34h-1.48c.11-.42.17-.81.32-1.18.24-.63.65-1.17,1.17-1.61.17-.14.15-.21.01-.35-.5-.48-.93-1.01-1.19-1.66-.49-1.2-.22-2.3.5-3.31.2-.28.47-.52.71-.78.05-.05.14-.07.21-.11-2.4-2.14-1.99-4.46-.04-6.12-.93-.8-1.61-1.75-1.62-3.02-.01-1.27.69-2.22,1.62-3.05-.93-.8-1.61-1.75-1.62-3.01,0-1.27.67-2.23,1.62-3.06-.9-.77-1.54-1.71-1.64-2.99.38,0,.73.02,1.09,0,.25-.02.36.03.41.31.15.78.7,1.3,1.28,1.77.05.04.18.02.25-.02,1.83-.98,3.8-1.45,5.84-1.69,1.42-.16,2.84-.21,4.26-.08,1.48.13,2.95.29,4.34.86.41.17.83.38,1.17.67.84.71.9,1.58.04,2.33-.34.3-.76.52-1.18.7-.96.4-1.97.58-2.99.72-1.84.26-3.69.3-5.54.09-2.09-.24-4.12-.7-5.99-1.73-.05-.03-.16-.04-.2,0-.58.44-1.06.97-1.28,1.69-.16.52-.04,1,.25,1.41.28.4.66.75,1.01,1.1.04.05.19.05.26.01,1.93-1.04,4.01-1.53,6.17-1.71.88-.08,1.76-.17,2.63-.13,1.84.07,3.68.21,5.43.85.47.17.94.41,1.34.72.93.72.91,1.71,0,2.45-.52.42-1.12.66-1.76.84-2.26.63-4.57.8-6.91.64-1.47-.1-2.91-.32-4.32-.74-.96-.28-1.88-.64-2.79-1.16-.3.33-.64.63-.91.99-.61.8-.62,1.59-.03,2.4.25.33.57.61.87.89.05.05.19.06.25.02,2.02-1.07,4.21-1.53,6.47-1.75,1.68-.17,3.34-.09,5.01.12,1.01.13,2.02.31,2.97.7.5.2.98.44,1.36.83.61.62.65,1.43.02,2.03-.31.3-.7.55-1.09.74-.87.43-1.81.65-2.77.76-1.26.14-2.53.32-3.8.3-2.46-.04-4.89-.38-7.18-1.37-.33-.14-.64-.32-.97-.48-.07-.03-.18-.06-.22-.02-.57.44-1.06.94-1.3,1.65-.16.48-.05.91.16,1.33.25.51.64.9,1.09,1.23.05.04.18.04.24,0,1.39-.75,2.88-1.2,4.43-1.49,2.03-.37,4.07-.44,6.13-.25,1.3.12,2.59.32,3.82.78.49.18.95.41,1.34.77.74.69.74,1.53.01,2.23-.48.46-1.07.71-1.69.91-1.18.39-2.39.55-3.62.67-2.74.26-5.44.03-8.07-.78-.79-.25-1.55-.62-2.31-.96-.14-.06-.23-.08-.35.03-.45.41-.88.82-1.12,1.4-.23.56-.15,1.08.13,1.59.25.46.6.83,1.01,1.14.07.05.21.08.28.04,1.33-.72,2.75-1.16,4.23-1.45,1.94-.38,3.9-.48,5.88-.33,1.26.1,2.52.25,3.73.64.57.18,1.11.46,1.63.75.24.13.43.39.6.63.34.5.27,1.01-.06,1.5-.25.37-.62.61-1,.81-.83.44-1.74.65-2.65.81-1.97.36-3.96.43-5.96.25-1.93-.17-3.8-.57-5.58-1.35-.24-.11-.48-.22-.72-.35-.17-.1-.3-.08-.45.04-.63.51-1.09,1.13-1.21,1.96" fill="#4a17a1"/>
    </g>
    <g>
      <path d="M50.13,94.8v-.93l6.56-7.96.15.53h-6.62v-1.19h7.87v.93l-6.54,7.96-.17-.53h6.88v1.19h-8.15Z" fill="#4a17a1"/>
      <path d="M61.55,93.61h5.69v1.19h-7.08v-9.54h6.88v1.19h-5.49v7.17ZM61.42,89.37h5.02v1.16h-5.02v-1.16Z" fill="#4a17a1"/>
      <path d="M69.49,94.8v-9.54h3.8c.85,0,1.58.13,2.19.4.6.26,1.07.64,1.39,1.14s.49,1.1.49,1.79-.16,1.28-.49,1.78-.79.87-1.39,1.14c-.6.26-1.33.4-2.19.4h-3.04l.63-.63v3.53h-1.39ZM70.88,91.4l-.63-.67h3c.89,0,1.57-.19,2.03-.57s.69-.91.69-1.59-.23-1.21-.69-1.58-1.14-.56-2.03-.56h-3l.63-.68v5.64ZM76.01,94.8l-2.48-3.46h1.49l2.51,3.46h-1.52Z" fill="#4a17a1"/>
      <path d="M84.03,94.9c-.74,0-1.43-.12-2.07-.37-.64-.25-1.19-.59-1.65-1.03s-.83-.96-1.09-1.55c-.26-.59-.39-1.24-.39-1.94s.13-1.34.39-1.94c.26-.59.62-1.11,1.09-1.55s1.01-.78,1.64-1.03c.63-.25,1.32-.37,2.08-.37s1.43.12,2.06.36,1.18.58,1.64,1.02c.46.44.83.96,1.08,1.55.25.59.38,1.24.38,1.94s-.13,1.36-.38,1.95c-.26.59-.62,1.11-1.08,1.55-.46.44-1.01.78-1.64,1.02-.63.24-1.32.36-2.06.36ZM84.01,93.69c.55,0,1.05-.09,1.51-.27.46-.18.86-.44,1.2-.77.34-.33.6-.72.79-1.17s.29-.93.29-1.46-.1-1.01-.29-1.45-.46-.83-.79-1.17c-.34-.34-.74-.59-1.2-.78-.46-.18-.96-.27-1.51-.27s-1.04.09-1.5.27c-.46.18-.86.44-1.21.78-.34.34-.61.72-.8,1.17s-.29.92-.29,1.45.1,1.01.29,1.46.46.83.8,1.17.75.59,1.21.77c.46.18.96.27,1.5.27Z" fill="#4a17a1"/>
      <path d="M97.9,94.8l-4.29-9.54h1.5l3.94,8.81h-.86l3.97-8.81h1.39l-4.28,9.54h-1.38Z" fill="#4a17a1"/>
      <path d="M105.01,94.8v-9.54h1.39v9.54h-1.39Z" fill="#4a17a1"/>
      <path d="M109.33,94.8v-9.54h4.38c1.12,0,1.99.22,2.59.66.6.44.91,1.04.91,1.81,0,.52-.12.95-.36,1.31-.24.35-.56.63-.96.82-.4.19-.83.29-1.3.29l.25-.41c.56,0,1.05.1,1.48.29.43.19.77.47,1.02.84.25.37.38.82.38,1.37,0,.82-.31,1.45-.94,1.9-.63.45-1.56.67-2.79.67h-4.66ZM110.72,93.69h3.21c.77,0,1.36-.13,1.77-.38.41-.25.61-.66.61-1.2s-.2-.96-.61-1.21c-.41-.25-1-.38-1.77-.38h-3.33v-1.11h2.98c.71,0,1.25-.13,1.64-.38.39-.25.59-.64.59-1.15s-.2-.89-.59-1.15c-.39-.25-.94-.38-1.64-.38h-2.86v7.33Z" fill="#4a17a1"/>
      <path d="M119.88,94.8v-9.54h3.8c.85,0,1.58.13,2.19.4.6.26,1.07.64,1.39,1.14s.49,1.1.49,1.79-.16,1.28-.49,1.78-.79.87-1.39,1.14c-.6.26-1.33.4-2.19.4h-3.04l.63-.63v3.53h-1.39ZM121.27,91.4l-.63-.67h3c.89,0,1.57-.19,2.03-.57s.69-.91.69-1.59-.23-1.21-.69-1.58-1.14-.56-2.03-.56h-3l.63-.68v5.64ZM126.4,94.8l-2.48-3.46h1.49l2.51,3.46h-1.52Z" fill="#4a17a1"/>
      <path d="M128.53,94.8l4.42-9.54h1.38l4.43,9.54h-1.46l-3.94-8.78h.56l-3.94,8.78h-1.44ZM130.41,92.41l.38-1.09h5.49l.4,1.09h-6.27Z" fill="#4a17a1"/>
      <path d="M144.58,94.9c-.74,0-1.43-.12-2.06-.36-.63-.24-1.17-.58-1.63-1.02-.46-.44-.82-.96-1.08-1.55-.26-.59-.39-1.24-.39-1.95s.13-1.36.39-1.95c.26-.59.62-1.11,1.09-1.55s1.01-.78,1.64-1.02,1.31-.36,2.06-.36,1.45.12,2.08.37,1.18.62,1.62,1.11l-.91.86c-.37-.38-.79-.67-1.25-.85-.46-.19-.96-.28-1.49-.28s-1.06.09-1.53.27c-.47.18-.88.44-1.22.76-.34.33-.61.72-.8,1.17-.19.45-.29.94-.29,1.47s.1,1.02.29,1.47c.19.45.46.84.8,1.17s.75.58,1.22.76c.47.18.98.27,1.53.27s1.03-.09,1.49-.28c.46-.19.88-.47,1.25-.87l.91.86c-.45.49-.99.86-1.62,1.12s-1.34.38-2.1.38ZM144,97.85c-.24,0-.46-.03-.67-.07-.21-.05-.4-.12-.57-.23l.29-.67c.15.08.3.14.45.18.15.04.32.05.5.05.27,0,.47-.05.59-.14.13-.1.19-.23.19-.4s-.06-.29-.19-.39c-.12-.1-.33-.14-.61-.14h-.38l.35-1.34h.77l-.21.78c.4.04.7.16.91.37.2.21.31.46.31.76,0,.38-.16.68-.47.91-.32.22-.73.33-1.25.33Z" fill="#4a17a1"/>
      <path d="M154.7,94.9c-.74,0-1.43-.12-2.07-.37-.64-.25-1.19-.59-1.65-1.03s-.83-.96-1.09-1.55c-.26-.59-.39-1.24-.39-1.94s.13-1.34.39-1.94c.26-.59.62-1.11,1.09-1.55s1.01-.78,1.64-1.03c.63-.25,1.32-.37,2.08-.37s1.43.12,2.06.36,1.18.58,1.64,1.02c.46.44.83.96,1.08,1.55.25.59.38,1.24.38,1.94s-.13,1.36-.38,1.95c-.26.59-.62,1.11-1.08,1.55-.46.44-1.01.78-1.64,1.02-.63.24-1.32.36-2.06.36ZM154.68,93.69c.55,0,1.05-.09,1.51-.27.46-.18.86-.44,1.2-.77.34-.33.6-.72.79-1.17s.29-.93.29-1.46-.1-1.01-.29-1.45-.46-.83-.79-1.17c-.34-.34-.74-.59-1.2-.78-.46-.18-.96-.27-1.51-.27s-1.04.09-1.5.27c-.46.18-.86.44-1.21.78-.34.34-.61.72-.8,1.17s-.29.92-.29,1.45.1,1.01.29,1.46.46.83.8,1.17.75.59,1.21.77c.46.18.96.27,1.5.27ZM155.67,84.44c-.22,0-.42-.05-.59-.14-.17-.09-.33-.2-.47-.32-.14-.12-.27-.23-.4-.32s-.26-.14-.39-.14c-.21,0-.37.07-.5.22s-.2.36-.22.62h-.75c.02-.51.15-.91.39-1.21.24-.3.57-.45.98-.45.22,0,.42.05.6.14.18.1.33.21.47.33.14.12.27.23.4.32.12.09.25.14.38.14.2,0,.37-.07.5-.22s.2-.35.21-.6h.75c0,.48-.14.87-.38,1.17-.25.3-.57.45-.98.45Z" fill="#4a17a1"/>
      <path d="M163.39,93.61h5.69v1.19h-7.08v-9.54h6.88v1.19h-5.49v7.17ZM163.27,89.37h5.02v1.16h-5.02v-1.16Z" fill="#4a17a1"/>
      <path d="M174.18,94.9c-.74,0-1.45-.11-2.13-.33-.68-.22-1.21-.51-1.6-.87l.52-1.06c.37.32.85.58,1.42.79s1.18.31,1.8.31c.57,0,1.03-.06,1.38-.19.35-.13.61-.3.78-.52.17-.22.25-.47.25-.76,0-.33-.11-.59-.33-.79-.22-.2-.5-.36-.85-.48-.35-.12-.73-.23-1.15-.32s-.84-.2-1.26-.32c-.42-.12-.81-.28-1.16-.47-.35-.19-.63-.45-.84-.77-.21-.32-.32-.74-.32-1.25s.13-.94.4-1.36c.26-.41.67-.75,1.23-1,.55-.25,1.26-.37,2.11-.37.57,0,1.13.07,1.69.22.56.15,1.04.36,1.45.63l-.46,1.09c-.42-.27-.86-.47-1.32-.59s-.92-.18-1.35-.18c-.55,0-1,.07-1.35.2-.35.14-.61.32-.77.55-.16.23-.24.48-.24.76,0,.34.11.6.33.8.22.2.5.36.85.48.35.12.73.22,1.15.32s.84.2,1.26.32c.42.12.81.27,1.16.46.35.19.63.45.84.76s.32.73.32,1.23-.13.93-.4,1.34-.68.75-1.25,1-1.27.37-2.13.37Z" fill="#4a17a1"/>
    </g>
  </g>
</svg>