<?xml version="1.0" encoding="UTF-8"?>
<svg id="uuid-c40ab15e-bffb-4b35-a647-4bc6313dc34e" data-name="Layer 1" xmlns="http://www.w3.org/2000/svg" viewBox="0 0 320 60.66">
  <path d="M286.8,8.44c-11.59,0-19.89,9.37-19.89,20.96v.13c0,11.59,8.44,21.1,20.02,21.1s19.89-9.37,19.89-20.96v-.13c0-11.58-8.44-21.09-20.02-21.09Z" fill="#b7a3d9"/>
  <path d="M0,0v60.66h320V0H0ZM57.77,29.53c0,13.33-10.51,24.24-24.98,24.24S7.95,42.99,7.95,29.67v-.13c0-13.33,10.51-24.24,24.98-24.24s24.85,10.78,24.85,24.11v.13ZM106.26,52.97h-8.77l-22.7-29.8v29.8h-10.18V6.09h9.51l21.97,28.86V6.09h10.18v46.88ZM150.85,52.97h-35.7V6.09h35.36v9.18h-25.11v9.51h22.1v9.18h-22.1v9.84h25.45v9.18ZM210.45,52.97h-33.69V6.09h33.35v3.21h-29.87v18.42h26.86v3.21h-26.86v18.82h30.2v3.22ZM240.52,53.78c-13.46,0-23.31-10.65-23.31-24.11v-.13c0-13.26,9.91-24.24,23.44-24.24,8.3,0,13.39,3.01,18.22,7.5l-2.48,2.54c-4.08-3.95-8.77-6.9-15.81-6.9-11.25,0-19.76,9.18-19.76,20.96v.13c0,11.79,8.64,21.1,19.82,21.1,6.76,0,11.38-2.54,16.14-7.3l2.34,2.28c-5.02,4.82-10.31,8.17-18.62,8.17ZM310.44,29.53c0,12.86-9.44,24.24-23.64,24.24s-23.51-11.32-23.51-24.11v-.13c0-12.86,9.44-24.24,23.64-24.24s23.51,11.32,23.51,24.11v.13Z" fill="#b7a3d9"/>
  <path d="M32.79,14.8c-8.3,0-14.06,6.56-14.06,14.6v.13c0,8.04,5.89,14.73,14.2,14.73s14.06-6.56,14.06-14.6v-.13c0-8.04-5.89-14.73-14.2-14.73Z" fill="#b7a3d9"/>
</svg>